<svg xmlns="http://www.w3.org/2000/svg" width="71" height="70" viewBox="0 0 71 70" fill="none"><g clip-path="url(#clip0_3720_5128)"><rect x="0.687988" width="70" height="70" rx="10" fill="url(#paint0_linear_3720_5128)"></rect><path d="M42.2337 55.854L38.792 52.4123L43.9545 47.2498L38.792 42.0873L42.2337 38.6457L47.3962 43.8082L52.5587 38.6457L56.0003 42.0873L50.8993 47.2498L56.0003 52.4123L52.5587 55.854L47.3962 50.753L42.2337 55.854ZM5.60449 57.0832L54.7712 7.9165L54.7097 34.2207C53.6444 33.5651 52.4767 33.0841 51.2066 32.7776C49.9364 32.4712 48.6663 32.3171 47.3962 32.3155C43.258 32.3155 39.7344 33.77 36.8253 36.679C33.9163 39.588 32.4618 43.1116 32.4618 47.2498C32.4618 49.1346 32.7691 50.8865 33.3837 52.5058C33.9982 54.125 34.9201 55.6508 36.1493 57.0832H5.60449Z" fill="white"></path></g><defs><linearGradient id="paint0_linear_3720_5128" x1="35.688" y1="0" x2="35.688" y2="70" gradientUnits="userSpaceOnUse"><stop stop-color="#921D41"></stop><stop offset="1" stop-color="#1D3792"></stop></linearGradient><clipPath id="clip0_3720_5128"><rect x="0.687988" width="70" height="70" rx="10" fill="white"></rect></clipPath></defs></svg>