<svg xmlns="http://www.w3.org/2000/svg" width="71" height="70" viewBox="0 0 71 70" fill="none"><rect x="0.687988" width="70" height="70" rx="10" fill="url(#paint0_linear_3720_5134)"></rect><g clip-path="url(#clip0_3720_5134)"><path fill-rule="evenodd" clip-rule="evenodd" d="M52.4346 53.7176V51.2H49.8984C49.7329 51.2 49.5938 51.062 49.5938 50.8976V49.4909C49.5938 49.3266 49.7329 49.1886 49.8984 49.1886H52.4346V46.6709C52.4346 46.5066 52.5736 46.3686 52.7392 46.3686H54.1562C54.3218 46.3686 54.4608 46.5066 54.4608 46.6709V49.1886H56.997C57.1625 49.1886 57.3016 49.3266 57.3016 49.4909V50.8976C57.3016 51.062 57.1625 51.2 56.997 51.2H54.4608V53.7176C54.4608 53.882 54.3218 54.02 54.1562 54.02H52.7392C52.5736 54.02 52.4346 53.882 52.4346 53.7176ZM14.3728 49.0505H21.4713C21.6368 49.0505 21.7759 49.1886 21.7759 49.3529V50.7596C21.7759 50.9239 21.6368 51.062 21.4713 51.062H14.3728C14.2072 51.062 14.0682 50.9239 14.0682 50.7596V49.3529C14.0682 49.1886 14.2072 49.0505 14.3728 49.0505ZM35.9067 48.689H39.787C39.8731 48.689 39.946 48.735 39.9857 48.8139C40.0254 48.8928 40.0122 48.9782 39.9592 49.0439L32.9931 57.7603C32.9269 57.8458 32.8143 57.8655 32.7216 57.8129C32.6289 57.7603 32.5826 57.6551 32.6223 57.5565C33.3639 55.3741 34.1056 53.1852 34.8472 50.9962H31.5959C31.5231 50.9962 31.4635 50.9634 31.4171 50.9108C31.3774 50.8516 31.3642 50.7859 31.384 50.7202L33.7083 43.5157C33.7348 43.4237 33.8208 43.3645 33.9135 43.3645H37.8336C37.9065 43.3645 37.9727 43.3974 38.0124 43.4631C38.0521 43.5223 38.0588 43.6011 38.0323 43.6669L35.9067 48.6955V48.689ZM9.03564 37.0737H62.3407V63.0322H9.03564L9.03564 37.0737Z" fill="white"></path><path fill-rule="evenodd" clip-rule="evenodd" d="M8.00246 30.106L63.3735 30.106C63.8238 30.106 64.188 30.4675 64.188 30.9145V33.9448C64.188 34.3918 63.8238 34.7534 63.3735 34.7534H8.00246C7.55218 34.7534 7.18799 34.3918 7.18799 33.9448V30.9145C7.18799 30.4675 7.55218 30.106 8.00246 30.106Z" fill="white"></path><path fill-rule="evenodd" clip-rule="evenodd" d="M8.00246 65.3594H63.3735C63.8238 65.3594 64.188 65.7209 64.188 66.1679V69.1983C64.188 69.6452 63.8238 70.0068 63.3735 70.0068H8.00246C7.55218 70.0068 7.18799 69.6452 7.18799 69.1983V66.1679C7.18799 65.7209 7.55218 65.3594 8.00246 65.3594Z" fill="white"></path><path fill-rule="evenodd" clip-rule="evenodd" d="M14.1409 28.1929H21.7096C21.8619 28.1929 21.9877 28.3178 21.9877 28.4624V31.7425H13.8628V28.4624C13.8628 28.3112 13.9886 28.1929 14.1409 28.1929Z" fill="white"></path><path fill-rule="evenodd" clip-rule="evenodd" d="M16.2069 23H19.6503C20.0277 23 20.3389 23.309 20.3389 23.6836V29.1462H15.5249V23.6836C15.5249 23.309 15.8361 23 16.2136 23" fill="white"></path><path fill-rule="evenodd" clip-rule="evenodd" d="M49.6665 28.1929H57.2352C57.3875 28.1929 57.5133 28.3178 57.5133 28.4624V31.7425H49.395V28.4624C49.395 28.3112 49.5208 28.1929 49.6731 28.1929" fill="white"></path><path fill-rule="evenodd" clip-rule="evenodd" d="M51.7323 23H55.1756C55.5531 23 55.8643 23.309 55.8643 23.6836V29.1462H51.0503V23.6836C51.0503 23.309 51.3615 23 51.739 23" fill="white"></path></g><defs><linearGradient id="paint0_linear_3720_5134" x1="35.688" y1="0" x2="35.688" y2="70" gradientUnits="userSpaceOnUse"><stop stop-color="#921D41"></stop><stop offset="1" stop-color="#1D3792"></stop></linearGradient><clipPath id="clip0_3720_5134"><rect width="57" height="47" fill="white" transform="translate(7.18799 23)"></rect></clipPath></defs></svg>