<svg xmlns="http://www.w3.org/2000/svg" width="71" height="70" viewBox="0 0 71 70" fill="none"><g clip-path="url(#clip0_3720_5131)"><rect x="0.687988" width="70" height="70" rx="10" fill="url(#paint0_linear_3720_5131)"></rect><g clip-path="url(#clip1_3720_5131)"><path d="M51.2624 61.9754C46.9665 69.4162 40.0607 74.4209 32.3628 76.5406L31.3367 72.7111C38.0997 70.8609 44.1267 66.5477 47.8905 60.0286C51.6413 53.532 52.3761 46.1334 50.5969 39.3514L54.4264 38.3253C56.4396 46.0517 55.5583 54.5347 51.2624 61.9754ZM45.3855 51.3889L47.462 47.7922L40.2686 43.639C38.2904 42.4969 35.7374 43.181 34.5953 45.1592L32.5187 48.7559C31.9679 49.7098 31.8187 50.8434 32.1038 51.9074C32.3889 52.9713 33.0849 53.8785 34.0388 54.4292L37.6356 56.5058L35.559 60.1025L28.3655 55.9494L26.289 59.5461L33.4824 63.6992C35.4606 64.8414 38.0136 64.1573 39.1557 62.1791L41.2323 58.5824C41.783 57.6284 41.9323 56.4948 41.6472 55.4309C41.3621 54.3669 40.6661 53.4598 39.7121 52.9091L36.1154 50.8325L38.192 47.2357L45.3855 51.3889ZM24.0264 28.2671C27.2044 28.2136 30.4271 28.9652 33.372 30.6654C36.3168 32.3656 38.5791 34.7808 40.1218 37.5597L47.1129 41.5961C45.8143 35.3313 41.9472 29.6218 35.9677 26.1695C29.9881 22.7172 23.11 22.223 17.0353 24.2307L24.0264 28.2671ZM26.9845 47.9586C28.4232 48.7892 28.9552 50.7748 28.1246 52.2135L26.5672 54.9111C26.2945 55.3834 25.9314 55.7974 25.4987 56.1294C25.066 56.4614 24.5722 56.705 24.0454 56.8461C23.5185 56.9873 22.9691 57.0233 22.4284 56.9521C21.8876 56.8809 21.3662 56.7039 20.8939 56.4312L13.7004 52.2781L24.0833 34.2944L31.2767 38.4476C32.2307 38.9983 32.9267 39.9055 33.2118 40.9694C33.4969 42.0334 33.3476 43.167 32.7969 44.1209L31.2395 46.8184C30.4088 48.2571 28.4232 48.7892 26.9845 47.9586ZM25.047 49.2378L21.4503 47.1612L19.3737 50.7579L22.9704 52.8345L25.047 49.2378ZM29.2002 42.0443L25.6034 39.9677L23.5269 43.5645L27.1236 45.641L29.2002 42.0443ZM17.2372 20.0912L16.2111 16.2617C8.51321 18.3813 1.60737 23.3861 -2.68854 30.8268C-6.98445 38.2676 -7.86576 46.7506 -5.85248 54.477L-2.02301 53.4509C-3.80224 46.6688 -3.08039 39.2927 0.683397 32.7736C4.43421 26.277 10.4742 21.9413 17.2372 20.0912ZM8.30532 49.1632L12.4585 41.9698L8.86173 39.8932L4.70859 47.0867L1.11186 45.0101L9.41815 30.6232C9.96889 29.6693 10.876 28.9732 11.94 28.6881C13.0039 28.403 14.1375 28.5523 15.0915 29.103L18.6882 31.1796C20.6664 32.3217 21.3505 34.8747 20.2083 36.8529L11.902 51.2398L8.30532 49.1632ZM14.535 38.373L16.6116 34.7763L13.0149 32.6997L10.9383 36.2965L14.535 38.373ZM24.5475 64.5352C21.3695 64.5887 18.1468 63.837 15.2019 62.1368C12.3662 60.4963 10.0323 58.1124 8.45211 55.2425L1.46096 51.2062C2.75955 57.4709 6.62665 63.1804 12.6062 66.6327C18.5858 70.085 25.4639 70.5793 31.5386 68.5715L24.5475 64.5352Z" fill="white"></path></g></g><defs><linearGradient id="paint0_linear_3720_5131" x1="35.688" y1="0" x2="35.688" y2="70" gradientUnits="userSpaceOnUse"><stop stop-color="#921D41"></stop><stop offset="1" stop-color="#1D3792"></stop></linearGradient><clipPath id="clip0_3720_5131"><rect x="0.687988" width="70" height="70" rx="10" fill="white"></rect></clipPath><clipPath id="clip1_3720_5131"><rect width="62.2972" height="62.2972" fill="white" transform="translate(12.8857 3.85156) rotate(30)"></rect></clipPath></defs></svg>