<svg xmlns="http://www.w3.org/2000/svg" width="25" height="25" viewBox="0 0 25 25" fill="none"><path fill-rule="evenodd" clip-rule="evenodd" d="M8.15982 1.67342C9.33282 1.61942 9.70682 1.60742 12.6948 1.60742C15.6828 1.60742 16.0568 1.62042 17.2288 1.67342C18.4008 1.72642 19.2008 1.91342 19.9008 2.18442C20.6338 2.46142 21.2988 2.89442 21.8488 3.45442C22.4088 4.00342 22.8408 4.66742 23.1168 5.40142C23.3888 6.10142 23.5748 6.90142 23.6288 8.07142C23.6828 9.24642 23.6948 9.62042 23.6948 12.6074C23.6948 15.5954 23.6818 15.9694 23.6288 17.1424C23.5758 18.3124 23.3888 19.1124 23.1168 19.8124C22.8408 20.5465 22.4081 21.2116 21.8488 21.7614C21.2988 22.3214 20.6338 22.7534 19.9008 23.0294C19.2008 23.3014 18.4008 23.4874 17.2308 23.5414C16.0568 23.5954 15.6828 23.6074 12.6948 23.6074C9.70682 23.6074 9.33282 23.5944 8.15982 23.5414C6.98982 23.4884 6.18982 23.3014 5.48982 23.0294C4.75574 22.7534 4.09064 22.3207 3.54082 21.7614C2.9812 21.2121 2.54814 20.5473 2.27182 19.8134C2.00082 19.1134 1.81482 18.3134 1.76082 17.1434C1.70682 15.9684 1.69482 15.5944 1.69482 12.6074C1.69482 9.61942 1.70782 9.24542 1.76082 8.07342C1.81382 6.90142 2.00082 6.10142 2.27182 5.40142C2.54855 4.6675 2.98194 4.00274 3.54182 3.45342C4.09086 2.89392 4.7553 2.46087 5.48882 2.18442C6.18882 1.91342 6.98882 1.72742 8.15882 1.67342H8.15982ZM17.1398 3.65342C15.9798 3.60042 15.6318 3.58942 12.6948 3.58942C9.75782 3.58942 9.40982 3.60042 8.24982 3.65342C7.17682 3.70242 6.59482 3.88142 6.20682 4.03242C5.69382 4.23242 5.32682 4.46942 4.94182 4.85442C4.57687 5.20947 4.296 5.6417 4.11982 6.11942C3.96882 6.50742 3.78982 7.08942 3.74082 8.16242C3.68782 9.32242 3.67682 9.67042 3.67682 12.6074C3.67682 15.5444 3.68782 15.8924 3.74082 17.0524C3.78982 18.1254 3.96882 18.7074 4.11982 19.0954C4.29582 19.5724 4.57682 20.0054 4.94182 20.3604C5.29682 20.7254 5.72982 21.0064 6.20682 21.1824C6.59482 21.3334 7.17682 21.5124 8.24982 21.5614C9.40982 21.6144 9.75682 21.6254 12.6948 21.6254C15.6328 21.6254 15.9798 21.6144 17.1398 21.5614C18.2128 21.5124 18.7948 21.3334 19.1828 21.1824C19.6958 20.9824 20.0628 20.7454 20.4478 20.3604C20.8128 20.0054 21.0938 19.5724 21.2698 19.0954C21.4208 18.7074 21.5998 18.1254 21.6488 17.0524C21.7018 15.8924 21.7128 15.5444 21.7128 12.6074C21.7128 9.67042 21.7018 9.32242 21.6488 8.16242C21.5998 7.08942 21.4208 6.50742 21.2698 6.11942C21.0698 5.60642 20.8328 5.23942 20.4478 4.85442C20.0928 4.48949 19.6605 4.20863 19.1828 4.03242C18.7948 3.88142 18.2128 3.70242 17.1398 3.65342ZM11.2898 15.9984C12.0745 16.3251 12.9482 16.3691 13.7618 16.1231C14.5753 15.8771 15.2782 15.3563 15.7504 14.6497C16.2227 13.943 16.4349 13.0943 16.3509 12.2485C16.2669 11.4028 15.8918 10.6124 15.2898 10.0124C14.9061 9.6289 14.442 9.33523 13.9312 9.15257C13.4203 8.9699 12.8753 8.90278 12.3353 8.95604C11.7954 9.00929 11.274 9.1816 10.8086 9.46055C10.3433 9.73951 9.94557 10.1182 9.64413 10.5693C9.34269 11.0204 9.14501 11.5327 9.06534 12.0694C8.98567 12.6061 9.02598 13.1537 9.18336 13.6729C9.34075 14.1922 9.61131 14.67 9.97554 15.0721C10.3398 15.4743 10.7886 15.7906 11.2898 15.9984ZM8.69682 8.60942C9.22185 8.0844 9.84514 7.66792 10.5311 7.38378C11.2171 7.09964 11.9523 6.9534 12.6948 6.9534C13.4373 6.9534 14.1725 7.09964 14.8585 7.38378C15.5445 7.66792 16.1678 8.0844 16.6928 8.60942C17.2178 9.13445 17.6343 9.75774 17.9185 10.4437C18.2026 11.1297 18.3489 11.8649 18.3489 12.6074C18.3489 13.3499 18.2026 14.0851 17.9185 14.7711C17.6343 15.4571 17.2178 16.0804 16.6928 16.6054C15.6325 17.6658 14.1944 18.2614 12.6948 18.2614C11.1953 18.2614 9.75716 17.6658 8.69682 16.6054C7.63649 15.5451 7.0408 14.107 7.0408 12.6074C7.0408 11.1079 7.63649 9.66976 8.69682 8.60942ZM19.6028 7.79542C19.7329 7.67269 19.8371 7.5251 19.9091 7.3614C19.9812 7.19769 20.0196 7.02119 20.0222 6.84235C20.0248 6.66351 19.9915 6.48597 19.9243 6.32023C19.8571 6.15449 19.7573 6.00393 19.6308 5.87746C19.5043 5.75099 19.3538 5.65118 19.188 5.58394C19.0223 5.5167 18.8447 5.4834 18.6659 5.486C18.4871 5.48861 18.3106 5.52708 18.1469 5.59912C17.9831 5.67116 17.8356 5.77532 17.7128 5.90542C17.4741 6.15845 17.3435 6.49454 17.3485 6.84235C17.3536 7.19016 17.494 7.5223 17.74 7.76826C17.9859 8.01423 18.3181 8.15465 18.6659 8.15972C19.0137 8.16479 19.3498 8.03411 19.6028 7.79542Z" fill="white"></path></svg>
