<svg xmlns="http://www.w3.org/2000/svg" width="22" height="22" viewBox="0 0 22 22" fill="none"><path d="M4.70982 6.52561C5.75982 6.52561 6.59982 5.67248 6.59982 4.63561C6.59982 3.59873 5.7467 2.74561 4.70982 2.74561C3.67295 2.74561 2.81982 3.59873 2.81982 4.63561C2.81982 5.67248 3.67295 6.52561 4.70982 6.52561ZM8.39795 7.95623V18.4825H11.6529V13.285C11.6529 11.9069 11.9154 10.5812 13.6086 10.5812C15.3017 10.5812 15.3017 12.1562 15.3017 13.3637V18.4825H18.5698V12.7075C18.5698 9.87248 17.9661 7.69373 14.6586 7.69373C13.0704 7.69373 12.0073 8.55998 11.5742 9.38686H11.5348V7.94311H8.41107L8.39795 7.95623ZM3.08232 7.95623H6.35045V18.4825H3.08232V7.95623Z" fill="white"></path></svg>
