<svg xmlns="http://www.w3.org/2000/svg" xmlns:xlink="http://www.w3.org/1999/xlink" id="Layer_1" x="0px" y="0px" width="686.667px" height="159.333px" viewBox="-300.167 -225 686.667 159.333" xml:space="preserve"><g>	<defs>		<rect id="SVGID_1_" x="-296.087" y="-219.109" width="677.806" height="146.553"></rect>	</defs>	<clipPath id="SVGID_2_">		<use xlink:href="#SVGID_1_"></use>	</clipPath>	<g clip-path="url(#SVGID_2_)">		<path fill="#FFFFFF" d="M-247.874-72.881c15.213,0,30.244-0.66,44.015-4.873c2.446-0.751,5.397-2.004,7.156-3.568h-5.294   l-4.381-4.325c-0.572,0.796-1.594,1.503-2.799,2.12c0.633,0.342,1.059,1.008,1.059,1.771c0,1.016-0.755,1.852-1.74,1.999v0.023   h-0.603v-0.023c-0.84-0.125-1.51-0.751-1.692-1.559h-3.194c-0.194,0.048-0.384,0.097-0.555,0.135   c-7.089,1.648-15.529,2.627-24.207,2.918l1.26,1.241h17.659c0.207-0.896,1.022-1.576,1.996-1.576c1.126,0,2.045,0.903,2.045,2.017   c0,1.014-0.755,1.852-1.741,1.995v0.026h-0.603v-0.026c-0.839-0.121-1.508-0.749-1.691-1.557h-18.031l-2.111-2.082   c-7.734,0.201-15.615-0.134-22.851-1.02l-4.423,4.532h-5.125c7.899,1.232,17.885,1.839,25.863,1.839L-247.874-72.881z    M-210.2-83.051h0.037c0.718,0,1.302,0.574,1.302,1.283s-0.584,1.281-1.302,1.281c-0.719,0-1.303-0.572-1.303-1.281   c0-0.36,0.152-0.691,0.401-0.924C-210.772-82.808-210.479-82.928-210.2-83.051z M-212.135-82.293c0,0-0.018,0.054-0.025,0.085   h-0.23l0.249-0.085H-212.135z M-195.881-82.208h-5.75l-4.338-4.28c0.036-0.13,0.055-0.264,0.066-0.394   c0.11-1.959-2.305-3.363-4.886-4.365l-1.12-1.104c1.782,0.357,3.444,0.688,5.427,1.232c2.952,0.807,5.708,1.764,8.002,3.09   c3.64,2.1,3.907,4.112,2.605,5.828L-195.881-82.208z M-213.504-92.683c-0.281-0.063-0.572-0.116-0.864-0.184   c-0.212-0.045-0.451-0.111-0.67-0.111l-0.626,0.143c0.742,0.233,1.782,0.523,2.915,0.891l-0.75-0.738H-213.504z M-219.206-77.883   c0.718,0,1.302,0.572,1.302,1.287c0,0.716-0.584,1.284-1.302,1.284c-0.718,0-1.303-0.575-1.303-1.284   C-220.509-77.302-219.924-77.883-219.206-77.883z M-265.296-79.399l-3.706,3.793l-9.682,0.013   c-1.041-0.219-2.105-0.465-3.59-0.818c-0.306-0.071-0.78-0.109-1.133-0.194c-0.76-0.19-1.485-0.532-2.136-0.685   c-3.104-0.722-7.15-2.113-9.383-4.336c-1.083-1.075-1.606-2.451-0.724-3.94c0.65-1.1,1.789-1.845,2.945-2.518   c3.383-1.959,8.361-3.292,12.512-4.114c0.785-0.161,1.54-0.3,2.355-0.466c1.46-0.286,1.764-0.47,2.222-0.17   c-1.644,0.519-4.813,1.331-7.096,2.595c-0.463,0.111-0.871,0.38-1.15,0.746c-1.004,0.77-1.625,1.673-1.503,2.742   c0.341,2.883,7.125,4.879,9.991,5.55c3.129,0.733,6.512,1.333,10.072,1.798L-265.296-79.399z"></path>		<path fill="#FFFFFF" d="M-246.168-152.735l0.011-0.036l-7.916,0.055c-1.966,1.551-4.4,2.724-6.682,3.646l1.752,1.729   c0.335-0.208,0.719-0.318,1.101-0.318c0.384,0,0.767,0.104,1.103,0.323c0.03,0,0.066,0.019,0.115,0.062l0.17,0.159l0.042,0.042   c0,0,0.031,0.032,0.049,0.044l0.17,0.164c0.042,0.055,0.062,0.086,0.062,0.116c0.219,0.33,0.329,0.715,0.329,1.1   c0,0.514-0.201,1.033-0.597,1.431c-0.395,0.39-0.925,0.591-1.448,0.591c-0.523,0-1.047-0.195-1.442-0.591   c-0.688-0.68-0.785-1.729-0.28-2.512l-2.021-1.99c-1.764,0.671-4.734,1.704-6.176,1.796c-0.53-0.367-1.016-0.855-1.437-1.252   c-0.542-0.513-0.815-0.771-1.326-1.308c-0.536-0.561-1.053-1.136-1.546-1.722h-13.393l-0.882,0.935c0.912,1.9,1.917,3.792,3,5.674   h11.202c0.207-0.903,1.023-1.577,1.996-1.577c1.125,0,2.045,0.906,2.045,2.015c0,1.015-0.76,1.852-1.74,1.999v0.022h-0.603v-0.022   c-0.839-0.123-1.509-0.751-1.691-1.559h-10.692c1.053,1.778,2.172,3.549,3.36,5.32h10.131c4.046-1.355,8.246-2.97,9.749-3.708   c3.639-1.793,7.449-3.652,10.369-6.432l-1.077-1.062h-2.002c-0.158-0.294-0.322-0.587-0.486-0.88h2.86l1.333,1.314   c0.499-0.52,0.967-1.076,1.393-1.668c0.603-0.824,0.651-1.166,1.102-1.917L-246.168-152.735z M-238.945-217.79   c-0.718,0-1.303,0.575-1.303,1.289c0,0.715,0.585,1.283,1.303,1.283s1.303-0.574,1.303-1.283S-238.228-217.79-238.945-217.79z    M-203.292-186.731c-0.718,0-1.303,0.575-1.303,1.283c0,0.709,0.584,1.289,1.303,1.289c0.718,0,1.302-0.574,1.302-1.289   C-201.99-186.163-202.574-186.731-203.292-186.731z M-245.889-153.651c0.432-1.417,0.463-1.845,0.182-3.915   c-0.566-2.755-3.189-4.924-5.021-6.255c-0.067,0.867,0.554,2.089,0.615,3.401c0.127,2.822-1.089,5.04-2.945,6.817l7.168-0.055   V-153.651z M-270.218-145.435c0.718,0,1.303,0.573,1.303,1.288c0,0.716-0.585,1.284-1.303,1.284s-1.303-0.575-1.303-1.284   S-270.936-145.435-270.218-145.435z M-272.859-152.075h-13.053l-0.901,0.959c-1.125-2.431-2.093-4.886-2.878-7.372l12.822-0.019   c1.071,2.236,2.411,4.392,4.016,6.438L-272.859-152.075z M-277.283-159.386c-1.752-3.934-2.696-8.087-2.866-12.234h-4.108   c-0.182,0.806-0.857,1.435-1.691,1.558v0.024h-0.603v-0.024c-0.985-0.146-1.74-0.984-1.74-1.991c0-1.111,0.919-2.016,2.044-2.016   c0.974,0,1.79,0.679,1.997,1.577h4.083c-0.104-6.994,1.983-13.938,6.09-19.814h-10.564l-4.813,4.489   c-3.407,10.194-3.164,19.532-0.511,28.457l12.682-0.019V-159.386z M-273.449-193.193h-11.543l-3.822,3.567   c0.055-0.146,0.109-0.287,0.164-0.434c1.418-3.708,4.363-8.497,6.682-11.203c1.266-1.478,2.811-3.255,4.247-4.599l3.48-2.852   l20.143-0.03l7.145-7.324h6.023c0.184,0.806,0.852,1.436,1.692,1.558v0.023h0.603v-0.023c0.986-0.146,1.741-0.984,1.741-1.992   c0-0.873-0.561-1.619-1.351-1.899c0.681,0.092,1.381,0.195,2.105,0.312c1.077,0.17,2.143,0.39,3.194,0.653l11.154,11.007h9.335   c2.373,2.187,4.515,4.611,6.358,7.14h-15.492l-7.619-7.52l-8.976,0.067c-4.028-0.764-8.191-0.836-12.311-0.184   c-0.298-0.75-1.041-1.288-1.905-1.288h-0.018c-0.542,0-1.059,0.219-1.436,0.605c-0.384,0.385-0.59,0.898-0.59,1.429   c0,0.043,0,0.08,0,0.117c-2.989,0.83-5.922,2.057-8.732,3.713c-0.967,0.573-1.899,1.178-2.788,1.82h-5.439   c0.055,0.293,0.103,0.586,0.152,0.88h4.119c-2.434,1.911-4.545,4.085-6.316,6.449V-193.193z M-253.709-206.258   c0.816-0.208,1.631-0.385,2.453-0.538c-0.219-0.409-0.652-0.684-1.145-0.684h-0.036c-0.341,0-0.657,0.141-0.901,0.385   c-0.225,0.226-0.359,0.525-0.376,0.837H-253.709z M-234.674-205.886c3.42,1.008,6.694,2.529,9.707,4.52l-4.619-4.556   L-234.674-205.886z M-221.086-198.41h15.597c0.14,0.208,0.281,0.409,0.42,0.617c1.29,1.93,2.592,4.208,3.565,6.45   c1.734,3.964,4.181,12.026,3.785,16.295c-1.271-0.494-2.641-1.436-5.763-2.602c-1.844-0.69-4.545-1.258-6.541-1.6   c-0.287-1.906-0.852-3.866-1.595-5.753h6.329c0.207,0.904,1.022,1.575,1.996,1.575c1.125,0,2.045-0.903,2.045-2.015   c0-1.014-0.762-1.852-1.741-1.992v-0.024h-0.603v0.024c-0.84,0.122-1.508,0.751-1.691,1.558h-6.693   c-1.327-3.103-3.091-5.974-4.808-8.075c-1.321-1.625-2.763-3.103-4.296-4.447L-221.086-198.41z M-213.442-207.309   c-2.319-2.027-4.838-3.823-7.472-5.276c-3.019-1.662-6.548-3.263-10.297-4.38l9.786,9.65h7.99L-213.442-207.309z M-239.134-218.51   c-0.889,0.079-1.612,0.727-1.807,1.568h-6.402l-7.144,7.318l-18.688,0.03l0.316-0.263c2.854-2.015,5.915-3.762,9.134-5.167   c0.098,0.25,0.25,0.488,0.457,0.696c0.396,0.39,0.919,0.592,1.448,0.592c0.53,0,1.048-0.195,1.442-0.592   c0.402-0.391,0.597-0.91,0.597-1.43c0-0.251-0.049-0.501-0.141-0.739c4.479-1.514,9.202-2.357,14.046-2.357   c2.3-0.049,4.448,0.067,6.735,0.342H-239.134z M-257.913-146.925c0.347,0,0.675,0.134,0.918,0.372c0.512,0.501,0.512,1.32,0,1.82   c-0.243,0.244-0.571,0.372-0.918,0.372c-0.348,0-0.676-0.134-0.919-0.372c-0.244-0.246-0.383-0.568-0.383-0.91   s0.134-0.667,0.383-0.91C-258.589-146.798-258.261-146.925-257.913-146.925z M-286.247-173.355c0.719,0,1.303,0.575,1.303,1.29   s-0.583,1.282-1.303,1.282c-0.718,0-1.301-0.574-1.301-1.282C-287.548-172.775-286.965-173.355-286.247-173.355z M-260.615-216.25   c-0.815,0.293-1.625,0.605-2.428,0.935c0.066,0.171,0.165,0.33,0.304,0.464c0.243,0.244,0.571,0.372,0.918,0.372   c0.348,0,0.676-0.134,0.919-0.372c0.384-0.379,0.481-0.935,0.281-1.405L-260.615-216.25z M-278.944-137.514   c0.305,0.447,0.609,0.885,0.919,1.333c0.876,0.085,3.183-0.496,5.903-1.333h-6.816H-278.944z"></path>		<path fill="#FFFFFF" d="M-265.234-86.887c-0.846-0.208-1.789-0.532-2.623-0.938h-9.067c0.542,1.793,4.119,3.095,6.092,3.712   c2.477,0.775,5.349,1.361,8.397,1.803l0.59-0.604h6.402c0.2-0.905,1.022-1.583,1.996-1.583c1.126,0,2.044,0.903,2.044,2.018   c0,0.413-0.127,0.798-0.347,1.122c2.313,0.103,4.589,0.147,6.731,0.147h0.675l-3.401-3.361c-1.491-0.035-2.86-0.123-4.047-0.243   c-2.47-0.255-4.637-0.477-6.961-0.733c-2.422-0.269-4.345-0.806-6.468-1.351L-265.234-86.887z M-243.108-81.22l-3.366-3.321   c3.797,0.038,8.215-0.172,12.377-0.642l3.311,3.27c-4.115,0.438-8.405,0.646-12.317,0.693H-243.108z M-228.394-82.201   c3.304-0.44,6.426-1.049,9.06-1.877c2.703-0.847,9.231-3.175,4.723-6.399c-1.771-1.266-8.331-3.384-11.027-3.366   c0.384,0.293,1.874,0.643,2.835,1.045c4.388,1.855,3.493,3.963-0.499,5.425c-2.483,0.903-5.934,1.588-9.669,2.058l3.152,3.115   H-228.394z M-260.329-82.038h4.879c0.037,0.165,0.098,0.331,0.177,0.479C-256.97-81.683-258.669-81.842-260.329-82.038z    M-254.293-81.492c-0.285-0.237-0.462-0.586-0.462-0.984c0-0.707,0.583-1.283,1.303-1.283c0.718,0,1.301,0.576,1.301,1.283   c0,0.447-0.231,0.843-0.583,1.076c-0.518-0.025-1.036-0.057-1.552-0.092H-254.293z M-269.275-88.707   c-0.261-0.214-0.475-0.434-0.633-0.666c-1.229-1.831,1.929-3.207,3.085-3.564c0.36-0.154,0.652-0.289,1.096-0.416   c0.518-0.152,0.955-0.215,1.315-0.49c-2.738-0.006-9.177,2.078-10.947,3.304c-0.938,0.648-1.424,1.266-1.577,1.84h7.661V-88.707z"></path>		<path fill="#FFFFFF" d="M-235.484-154.379c-0.042,0.215-0.097,0.434-0.152,0.648h0.518l7.619,7.513h18.377   c0.207-0.904,1.022-1.576,1.996-1.576c0.195,0,0.389,0.031,0.566,0.079v-0.042c1.973-13.589-6.14-24.792-15.407-29.599   c-2.088-1.081-4.168-1.905-6.262-2.485h-0.919c0.109-0.049,0.219-0.104,0.329-0.16c-3.238-0.83-6.493-1.087-9.798-0.837   c0.012,0.037,0.024,0.08,0.031,0.117h0.875c0.463,0.342,0.956,0.635,1.479,0.88h-2.354c-0.208,0.903-1.023,1.575-1.997,1.575   c-1.126,0-2.044-0.903-2.044-2.016v-0.012c-1.497,0.287-3,0.679-4.521,1.155l13.314,13.132h17.659   c0.207-0.899,1.022-1.577,1.996-1.577c1.126,0,2.045,0.904,2.045,2.016c0,1.014-0.755,1.85-1.741,1.997v0.025h-0.603v-0.025   c-0.838-0.122-1.508-0.751-1.691-1.557H-234.2l-13.886-13.706c-0.608,0.201-1.218,0.421-1.826,0.653   c-1.6,0.612-2.659,1.1-4.017,1.791l-2.75,1.551c-0.091,0.067-0.164,0.116-0.225,0.153l0.718,0.709   c3.76,0.263,15.45,1.081,19.765,10.432c0.463,1.001,0.767,1.875,0.95,2.711h10.265c0.208-0.897,1.023-1.575,1.997-1.575   c0.042,0,0.085,0,0.127,0c-0.182-0.538-0.384-1.063-0.621-1.575l1.759-0.44c0.699,1.515,1.181,3.035,1.497,4.568l-0.944,0.367   c-0.292,0.575-0.857,0.99-1.521,1.088v0.023h-0.603v-0.023c-0.84-0.123-1.508-0.751-1.692-1.558h-10.106   c0.225,1.655,0.042,3.267-0.159,5.576L-235.484-154.379z M-214.185-166.85c0.718,0,1.302,0.574,1.302,1.288   c0,0.715-0.583,1.283-1.302,1.283c-0.718,0-1.302-0.574-1.302-1.283C-215.487-166.27-214.903-166.85-214.185-166.85z    M-239.384-180.771c0.066,0.153,0.098,0.317,0.098,0.495c0,0.708-0.585,1.283-1.303,1.283s-1.303-0.575-1.303-1.283   c0-0.055,0-0.104,0.007-0.153c0.833-0.146,1.667-0.256,2.495-0.342H-239.384z M-235.91-152.845h0.426l7.613,7.506h18.749   c0.182,0.808,0.857,1.436,1.692,1.559v0.022h0.097c-0.426,1.509-1.047,2.907-2.1,4.466c-0.62,0.923-1.241,1.832-1.861,2.737   l-6.603-6.519h-1.26l7.352,7.258c-2.483,3.591-4.978,7.04-7.509,10.412l-9.931-9.797c1.192-1.532,2.33-3.133,3.408-4.813   l-1.965-0.923c-1.071,1.552-2.209,3.037-3.408,4.459h-0.59l0.322,0.317l-0.085,0.105l0.518,0.325l11.197,11.047   c-1.004,1.333-2.008,2.647-3.025,3.958l-2.307-2.276l-21.195,0.156c-0.207-0.896-1.022-1.561-1.989-1.561h-0.019   c-0.542,0-1.059,0.219-1.436,0.604c-0.383,0.385-0.59,0.899-0.59,1.429c0.006,0.964,0.7,1.765,1.619,1.961v0.049l0.888-0.007   v-0.049c0.767-0.177,1.363-0.78,1.527-1.541l20.831-0.152l2.13,2.102c-0.792,1.015-1.582,2.028-2.386,3.037   c-0.815,0.139-1.466,0.756-1.649,1.543h-11.354c-0.207-0.903-1.023-1.574-1.997-1.574c-1.125,0-2.044,0.904-2.044,2.015   c0,1.013,0.761,1.852,1.74,1.997v0.027h0.603v-0.027c0.84-0.121,1.509-0.751,1.691-1.556h11.069   c-1.382,1.717-2.775,3.433-4.193,5.154h-20.136l-3.03-3.115c2.519-1.753,5.008-3.542,7.472-5.376l-2.1-2.438   c-2.666,1.731-5.373,3.39-8.111,5.005l-1.352-1.394h-4.582c-2.033-2.712-4.046-5.436-5.994-8.191l19.687-0.032l7.144-7.316h6.024   c0.182,0.807,0.852,1.436,1.691,1.559v0.024h0.603v-0.024c0.986-0.146,1.741-0.982,1.741-1.993c0-1.109-0.919-2.015-2.045-2.015   c-0.974,0-1.789,0.677-1.996,1.577h-6.402l-7.144,7.321l-19.923,0.031c-0.237-0.34-0.474-0.676-0.712-1.02   c-0.426-0.543-1.284-1.525-1.643-2.223c0.201-0.159-0.024-0.092,0.615-0.389c0.371-0.174,0.073-0.063,0.511-0.179l3.505-0.832   c2.495-0.559,5.501-1.503,8.525-2.657l0.061,0.063c-0.505,0.782-0.408,1.825,0.279,2.509c0.396,0.392,0.919,0.595,1.442,0.595   c0.523,0,1.047-0.197,1.448-0.595c0.402-0.389,0.597-0.908,0.597-1.429c0-0.385-0.11-0.763-0.329-1.098   c0-0.031-0.018-0.067-0.06-0.116l-0.171-0.172c-0.012-0.011-0.03-0.029-0.048-0.042l-0.043-0.042l-0.17-0.166   c-0.055-0.038-0.085-0.056-0.115-0.056c-0.237-0.152-0.5-0.25-0.767-0.291c2.568-1.064,5.075-2.254,7.205-3.475h5.726   c0.159,0.693,0.682,1.261,1.363,1.476c0.164,0.074,0.341,0.123,0.53,0.152v0.027h0.603v-0.027   c0.499-0.071,0.937-0.322,1.253-0.688h-0.268c0.348-0.36,0.56-0.85,0.56-1.382c0-1.109-0.919-2.013-2.045-2.013   c-0.974,0-1.789,0.675-1.996,1.574h-4.259c0.469-0.3,0.918-0.6,1.332-0.89c0.81-0.582,2.77-1.955,4.297-3.287l0.268,0.262h14.812   l4.461,4.403c-0.5,0.783-0.408,1.827,0.28,2.505c0.401,0.391,0.925,0.595,1.448,0.595c0.523,0,1.047-0.197,1.449-0.595   c0.395-0.389,0.596-0.908,0.596-1.427c0-0.423-0.134-0.845-0.402-1.199l0.018-0.018l-0.426-0.42l-0.018,0.018   c-0.359-0.264-0.785-0.394-1.211-0.394c-0.383,0-0.767,0.105-1.103,0.317l-4.722-4.665h-14.774   c0.578-0.555,1.034-1.087,1.229-1.516c0.505-0.139,1.485-1.507,1.923-2.027c0.621-0.732,1.046-1.404,1.534-2.29   c0.608-1.105,1.369-2.492,1.874-3.933L-235.91-152.845z M-207.139-144.489c-0.712-0.006-1.283-0.579-1.283-1.283   c0-0.702,0.583-1.288,1.301-1.288c0.159,0,0.317,0.03,0.458,0.079c-0.14,0.891-0.287,1.712-0.476,2.486V-144.489z    M-248.396-123.681c-0.34,0-0.658,0.143-0.9,0.385c-0.244,0.246-0.378,0.563-0.378,0.906c0,0.355,0.14,0.673,0.39,0.915   c0.243,0.239,0.571,0.374,0.913,0.374h0.007c0.346,0,0.675-0.141,0.918-0.385c0.244-0.244,0.378-0.562,0.378-0.903   c0-0.713-0.585-1.281-1.296-1.281h-0.037L-248.396-123.681z M-240.803-116.284c-0.718,0-1.301,0.575-1.301,1.284   c0,0.707,0.583,1.288,1.301,1.288c0.719,0,1.303-0.572,1.303-1.288S-240.083-116.284-240.803-116.284z M-234.911-133.985   c-0.719,0-1.303,0.577-1.303,1.29s0.583,1.281,1.303,1.281c0.718,0,1.301-0.572,1.301-1.281S-234.193-133.985-234.911-133.985z    M-263.111-115.843c1.467,1.948,2.934,3.889,4.394,5.834l5.982,7.963h14.684c1.837-2.18,3.638-4.336,5.403-6.474h-19.79   l-3.389-3.482c-0.334,0.23-0.669,0.458-1.004,0.691l-2.842-2.938c0.354-0.208,0.707-0.412,1.059-0.617l-0.95-0.971h-3.541   L-263.111-115.843z M-221.876-138.011c-0.335,0-0.669,0.125-0.919,0.376c-0.244,0.241-0.383,0.568-0.383,0.908   c0,0.344,0.134,0.667,0.383,0.912c0.255,0.25,0.59,0.376,0.919,0.376c0.328,0,0.669-0.121,0.918-0.376   c0.25-0.246,0.384-0.563,0.384-0.912c0-0.349-0.134-0.667-0.384-0.908C-221.213-137.886-221.542-138.011-221.876-138.011z    M-252.078-101.171l3.2,4.262h4.157l1.386,1.368l4.559-5.63H-252.078z M-248.213-96.028h3.127l1.199,1.176l-1.784,2.2   l-2.542-3.386V-96.028z M-242.512-139.133c-0.718,0-1.301,0.575-1.301,1.288c0,0.715,0.583,1.284,1.301,1.284   s1.303-0.573,1.303-1.284C-241.209-138.552-241.794-139.133-242.512-139.133z M-257.78-133.234c-0.347,0-0.675,0.137-0.919,0.376   c-0.244,0.241-0.383,0.559-0.383,0.908c0,0.349,0.134,0.667,0.383,0.913c0.244,0.241,0.573,0.371,0.919,0.371   s0.675-0.134,0.919-0.371c0.511-0.501,0.511-1.319,0-1.82C-257.104-133.104-257.433-133.234-257.78-133.234z M-235.775-174.541   l-0.214,1.337c-1.393-0.341-2.798-0.653-4.223-0.934l0.11-1.247C-238.653-175.163-237.211-174.883-235.775-174.541z    M-227.147-168.713c-0.974-0.935-2.039-1.76-3.219-2.45l0.864-0.94c1.114,0.641,2.185,1.38,3.201,2.205l-0.846,1.178V-168.713z    M-222.845-161.616c0.207,0.714,0.371,1.441,0.493,2.187c-0.231,0.201-0.536,0.33-0.87,0.33c-0.718,0-1.303-0.574-1.303-1.282   c0-0.709,0.584-1.289,1.303-1.289C-223.094-161.671-222.966-161.653-222.845-161.616z M-224.056-147.36   c0.693-1.49,1.26-3.108,1.631-4.916l1.862,0.421c-0.414,1.727-0.967,3.365-1.63,4.934l-1.863-0.445V-147.36z M-241.179-123.008   c2.397-2.011,4.704-4.148,6.906-6.432l-2.001-1.559c-2.197,2.151-4.576,4.197-7.078,6.177L-241.179-123.008z"></path>		<path fill="#FFFFFF" d="M-264.126-120.175l2.397,3.444h2.538l1.351,1.393c2.738-1.612,5.446-3.273,8.112-5.002l2.1,2.437   c-2.466,1.834-4.955,3.623-7.474,5.376l3.03,3.113h0.019l13.91-12.624l-8.232,0.061c-0.165,0.758-0.762,1.364-1.527,1.539v0.049   h-0.883v-0.042c-0.918-0.19-1.612-0.995-1.618-1.961c0-0.532,0.207-1.042,0.59-1.427c0.384-0.387,0.895-0.599,1.436-0.606h0.018   c0.968,0,1.783,0.673,1.99,1.563l9.213-0.067l9.956-9.034l-3.834-3.779l-0.518-0.324l0.086-0.105l-0.323-0.317h0.59   c1.199-1.422,2.337-2.907,3.408-4.459l1.965,0.924c-1.078,1.679-2.215,3.28-3.408,4.814l2.684,2.647l3.14-2.851   c-0.602-0.677-0.663-1.666-0.188-2.406l-4.461-4.403h-6.857l-4.041,6.78l-3.772,2.29h5.829c0.208-0.903,1.023-1.577,1.997-1.577   c1.125,0,2.043,0.906,2.043,2.015c0,1.015-0.753,1.852-1.74,1.993v0.024h-0.603v-0.024c-0.84-0.123-1.509-0.751-1.691-1.559   h-6.024l-7.144,7.316h-6.196l-7.85,4.772L-264.126-120.175z M-248.402-123.681h0.037c0.712,0,1.29,0.575,1.296,1.277   c0,0.347-0.133,0.664-0.377,0.91c-0.244,0.244-0.573,0.38-0.919,0.385h-0.006c-0.348,0-0.669-0.13-0.914-0.371   c-0.249-0.246-0.389-0.563-0.389-0.913c0-0.349,0.134-0.667,0.377-0.908c0.238-0.239,0.56-0.38,0.901-0.385L-248.402-123.681z    M-244.143-132.293l-6.316,6.47h-4.363L-244.143-132.293z M-234.917-133.99c0.718,0,1.303,0.573,1.303,1.288   c0,0.716-0.585,1.284-1.303,1.284s-1.302-0.577-1.302-1.284C-236.219-133.411-235.635-133.99-234.917-133.99z M-261.114-115.85   h1.545l0.949,0.97c-0.352,0.208-0.706,0.409-1.059,0.617l2.842,2.938c0.334-0.232,0.67-0.458,1.004-0.691l3.122,3.207   l-2.148,1.948L-261.114-115.85z M-222.875-135.896l1.918-1.742c-0.256-0.25-0.585-0.378-0.919-0.378   c-0.334,0-0.669,0.121-0.919,0.371c-0.244,0.246-0.383,0.568-0.383,0.91c0,0.311,0.109,0.599,0.311,0.83L-222.875-135.896z    M-220.409-138.131l-0.238-0.233l-0.018,0.018c-0.359-0.264-0.785-0.389-1.211-0.389c-0.383,0-0.767,0.103-1.101,0.317   l-4.722-4.669h-6.707l3.261-5.471l3.274,3.226h15.396l-4.022,3.652l-1.405-1.387h-1.26l2.008,1.979l-3.262,2.961L-220.409-138.131   z M-211.501-146.219l0.042-0.037l-3.791-17.591c-0.463-0.281-0.804-0.738-0.926-1.283h-15.328l0.706,4.294h5.581   c0.207-0.897,1.022-1.576,1.996-1.576c0.042,0,0.085,0,0.127,0c-0.183-0.537-0.383-1.063-0.621-1.575l1.759-0.439   c0.7,1.514,1.181,3.034,1.497,4.568l-0.943,0.366c-0.292,0.575-0.858,0.989-1.521,1.088v0.024h-0.603v-0.024   c-0.84-0.122-1.51-0.751-1.692-1.558h-5.439l1.363,8.289l-1.382,2.314l3.176,3.133h15.993L-211.501-146.219z M-215.864-166.711   l-0.018-0.078l-15.895-11.795l-13.041,1.056l-0.322,0.36l6.748,6.658l6.615,3.713l0.127,0.776h15.475   c0.062-0.257,0.166-0.488,0.311-0.702V-166.711z M-245.725-176.501l4.412,4.355l-5.525-3.103L-245.725-176.501z M-235.775-174.554   l-0.212,1.338c-1.394-0.342-2.8-0.654-4.223-0.935l0.109-1.245C-238.653-175.177-237.211-174.896-235.775-174.554z    M-227.146-168.727c-0.974-0.935-2.038-1.76-3.219-2.449l0.865-0.94c1.113,0.642,2.184,1.381,3.2,2.205l-0.845,1.179V-168.727z    M-222.843-161.63c0.207,0.715,0.371,1.442,0.492,2.188c-0.23,0.201-0.534,0.33-0.87,0.33c-0.718,0-1.302-0.574-1.302-1.283   c0-0.708,0.583-1.289,1.302-1.289C-223.094-161.685-222.965-161.666-222.843-161.63z M-224.054-147.374l1.861,0.446   c0.663-1.57,1.217-3.207,1.631-4.935l-1.863-0.42c-0.371,1.807-0.937,3.419-1.63,4.916V-147.374z M-241.178-123.021l-2.172-1.813   c2.5-1.972,4.879-4.025,7.076-6.176l2.003,1.559C-236.474-127.169-238.781-125.032-241.178-123.021z"></path>		<path fill="#FFFFFF" d="M-264.126-120.175l2.397,3.444h2.538l7.119,7.317h0.019l13.91-12.624l-8.232,0.061   c-0.165,0.758-0.762,1.364-1.527,1.539v0.049h-0.883v-0.042c-0.918-0.19-1.612-0.995-1.618-1.961c0-0.532,0.207-1.042,0.59-1.427   c0.384-0.387,0.895-0.599,1.436-0.606h0.018c0.968,0,1.783,0.673,1.99,1.563l9.213-0.067l9.956-9.034l-4.582-4.518h1.259   l3.98,3.927l3.14-2.854c-0.603-0.68-0.663-1.668-0.189-2.406l-4.46-4.405h-6.858l-4.041,6.78l-3.772,2.29h5.83   c0.207-0.903,1.021-1.574,1.996-1.574c1.126,0,2.045,0.903,2.045,2.015c0,1.013-0.754,1.852-1.741,1.992v0.022h-0.603v-0.022   c-0.84-0.123-1.508-0.751-1.692-1.559h-6.024l-7.144,7.319h-6.194l-7.85,4.768L-264.126-120.175z M-223.227-161.678   c-0.718,0-1.303,0.574-1.303,1.288c0,0.716,0.585,1.284,1.303,1.284s1.302-0.575,1.302-1.284   C-221.925-161.098-222.509-161.678-223.227-161.678z M-248.402-123.681h0.037c0.712,0,1.29,0.575,1.296,1.277   c0,0.347-0.133,0.664-0.377,0.91c-0.244,0.244-0.573,0.38-0.919,0.385h-0.006c-0.348,0-0.669-0.13-0.914-0.371   c-0.249-0.246-0.389-0.563-0.389-0.913c0-0.349,0.134-0.667,0.377-0.908c0.238-0.239,0.56-0.38,0.901-0.385L-248.402-123.681z    M-244.143-132.293l-6.316,6.47h-4.363L-244.143-132.293z M-234.917-133.99c0.718,0,1.303,0.573,1.303,1.288   c0,0.716-0.585,1.284-1.303,1.284s-1.302-0.577-1.302-1.284C-236.219-133.411-235.635-133.99-234.917-133.99z M-261.114-115.85   h1.545l6.853,7.042l-2.148,1.948l-6.256-8.989H-261.114z M-222.875-135.896l1.918-1.742c-0.256-0.25-0.585-0.378-0.919-0.378   c-0.334,0-0.669,0.121-0.919,0.371c-0.244,0.246-0.383,0.568-0.383,0.91c0,0.311,0.109,0.599,0.311,0.83L-222.875-135.896z    M-220.409-138.131l-0.238-0.233l-0.018,0.018c-0.359-0.264-0.785-0.389-1.211-0.389c-0.383,0-0.767,0.103-1.101,0.317   l-4.722-4.669h-6.707l3.261-5.471l3.274,3.226h15.396l-4.022,3.652l-1.405-1.387h-1.26l2.008,1.979l-3.262,2.961L-220.409-138.131   z M-211.501-146.219h-15.991l-3.176-3.133l1.381-2.316l-1.363-8.289h5.44c0.183,0.807,0.852,1.436,1.692,1.558v0.025h0.602v-0.025   c0.986-0.146,1.741-0.982,1.741-1.997c0-1.111-0.919-2.016-2.045-2.016c-0.974,0-1.789,0.679-1.996,1.576h-5.581l-0.706-4.294   h15.328c0.122,0.538,0.463,0.997,0.926,1.283l3.791,17.591L-211.501-146.219z M-215.864-166.711l-0.018-0.078l-15.895-11.795   l-13.041,1.056l-0.322,0.36l6.748,6.658l6.615,3.713l0.127,0.776h15.475c0.062-0.257,0.166-0.488,0.311-0.702V-166.711z    M-245.725-176.501l4.412,4.355l-5.525-3.103L-245.725-176.501z"></path>		<path fill="#FFFFFF" d="M-247.874-72.881c15.213,0,30.244-0.66,44.015-4.873c2.446-0.751,5.397-2.004,7.156-3.568h-5.294   l-4.381-4.325c-0.572,0.796-1.594,1.503-2.799,2.12c0.633,0.342,1.059,1.008,1.059,1.771c0,1.016-0.755,1.852-1.74,1.999v0.023   h-0.603v-0.023c-0.84-0.125-1.51-0.751-1.692-1.559h-3.194c-0.194,0.048-0.384,0.097-0.555,0.135   c-7.089,1.648-15.529,2.627-24.207,2.918l1.26,1.241h17.659c0.207-0.896,1.022-1.576,1.996-1.576c1.126,0,2.045,0.903,2.045,2.017   c0,1.014-0.755,1.852-1.741,1.995v0.026h-0.603v-0.026c-0.839-0.121-1.508-0.749-1.691-1.557h-18.031l-2.111-2.082   c-7.734,0.201-15.615-0.134-22.851-1.02l-4.423,4.532h-5.125c7.899,1.232,17.885,1.839,25.863,1.839L-247.874-72.881z    M-210.2-83.051h0.037c0.718,0,1.302,0.574,1.302,1.283s-0.584,1.281-1.302,1.281c-0.719,0-1.303-0.572-1.303-1.281   c0-0.36,0.152-0.691,0.401-0.924C-210.772-82.808-210.479-82.928-210.2-83.051z M-212.135-82.293c0,0-0.018,0.054-0.025,0.085   h-0.23l0.249-0.085H-212.135z M-195.881-82.208h-5.75l-4.338-4.28c0.036-0.13,0.055-0.264,0.066-0.394   c0.11-1.959-2.305-3.363-4.886-4.365l-1.12-1.104c1.782,0.357,3.444,0.688,5.427,1.232c2.952,0.807,5.708,1.764,8.002,3.09   c3.64,2.1,3.907,4.112,2.605,5.828L-195.881-82.208z M-213.504-92.683c-0.281-0.063-0.572-0.116-0.864-0.184   c-0.212-0.045-0.451-0.111-0.67-0.111l-0.626,0.143c0.742,0.233,1.782,0.523,2.915,0.891l-0.75-0.738H-213.504z M-219.206-77.883   c0.718,0,1.302,0.572,1.302,1.287c0,0.716-0.584,1.284-1.302,1.284c-0.718,0-1.303-0.575-1.303-1.284   C-220.509-77.302-219.924-77.883-219.206-77.883z M-265.296-79.399l-3.706,3.793l-9.682,0.013   c-1.041-0.219-2.105-0.465-3.59-0.818c-0.306-0.071-0.78-0.109-1.133-0.194c-0.76-0.19-1.485-0.532-2.136-0.685   c-3.104-0.722-7.15-2.113-9.383-4.336c-1.083-1.075-1.606-2.451-0.724-3.94c0.65-1.1,1.789-1.845,2.945-2.518   c3.383-1.959,8.361-3.292,12.512-4.114c0.785-0.161,1.54-0.3,2.355-0.466c1.46-0.286,1.764-0.47,2.222-0.17   c-1.644,0.519-4.813,1.331-7.096,2.595c-0.463,0.111-0.871,0.38-1.15,0.746c-1.004,0.77-1.625,1.673-1.503,2.742   c0.341,2.883,7.125,4.879,9.991,5.55c3.129,0.733,6.512,1.333,10.072,1.798L-265.296-79.399z"></path>		<path fill="#FFFFFF" d="M-246.168-152.735l0.011-0.036l-7.916,0.055c-1.966,1.551-4.4,2.724-6.682,3.646l1.752,1.729   c0.335-0.208,0.719-0.318,1.101-0.318c0.384,0,0.767,0.104,1.103,0.323c0.03,0,0.066,0.019,0.115,0.062l0.17,0.159l0.042,0.042   c0,0,0.031,0.032,0.049,0.044l0.17,0.164c0.042,0.055,0.062,0.086,0.062,0.116c0.219,0.33,0.329,0.715,0.329,1.1   c0,0.514-0.201,1.033-0.597,1.431c-0.395,0.39-0.925,0.591-1.448,0.591c-0.523,0-1.047-0.195-1.442-0.591   c-0.688-0.68-0.785-1.729-0.28-2.512l-2.021-1.99c-1.764,0.671-4.734,1.704-6.176,1.796c-0.53-0.367-1.016-0.855-1.437-1.252   c-0.542-0.513-0.815-0.771-1.326-1.308c-0.536-0.561-1.053-1.136-1.546-1.722h-13.393l-0.882,0.935c0.912,1.9,1.917,3.792,3,5.674   h11.202c0.207-0.903,1.023-1.577,1.996-1.577c1.125,0,2.045,0.906,2.045,2.015c0,1.015-0.76,1.852-1.74,1.999v0.022h-0.603v-0.022   c-0.839-0.123-1.509-0.751-1.691-1.559h-10.692c1.053,1.778,2.172,3.549,3.36,5.32h10.131c4.046-1.355,8.246-2.97,9.749-3.708   c3.639-1.793,7.449-3.652,10.369-6.432l-1.077-1.062h-2.002c-0.158-0.294-0.322-0.587-0.486-0.88h2.86l1.333,1.314   c0.499-0.52,0.967-1.076,1.393-1.668c0.603-0.824,0.651-1.166,1.102-1.917L-246.168-152.735z M-238.945-217.79   c-0.718,0-1.303,0.575-1.303,1.289c0,0.715,0.585,1.283,1.303,1.283s1.303-0.574,1.303-1.283S-238.228-217.79-238.945-217.79z    M-203.292-186.731c-0.718,0-1.303,0.575-1.303,1.283c0,0.709,0.584,1.289,1.303,1.289c0.718,0,1.302-0.574,1.302-1.289   C-201.99-186.163-202.574-186.731-203.292-186.731z M-245.889-153.651c0.432-1.417,0.463-1.845,0.182-3.915   c-0.566-2.755-3.189-4.924-5.021-6.255c-0.067,0.867,0.554,2.089,0.615,3.401c0.127,2.822-1.089,5.04-2.945,6.817l7.168-0.055   V-153.651z M-270.218-145.435c0.718,0,1.303,0.573,1.303,1.288c0,0.716-0.585,1.284-1.303,1.284s-1.303-0.575-1.303-1.284   S-270.936-145.435-270.218-145.435z M-272.859-152.075h-13.053l-0.901,0.959c-1.125-2.431-2.093-4.886-2.878-7.372l12.822-0.019   c1.071,2.236,2.411,4.392,4.016,6.438L-272.859-152.075z M-277.283-159.386c-1.752-3.934-2.696-8.087-2.866-12.234h-4.108   c-0.182,0.806-0.857,1.435-1.691,1.558v0.024h-0.603v-0.024c-0.985-0.146-1.74-0.984-1.74-1.991c0-1.111,0.919-2.016,2.044-2.016   c0.974,0,1.79,0.679,1.997,1.577h4.083c-0.104-6.994,1.983-13.938,6.09-19.814h-10.564l-4.813,4.489   c-3.407,10.194-3.164,19.532-0.511,28.457l12.682-0.019V-159.386z M-273.449-193.193h-11.543l-3.822,3.567   c0.055-0.146,0.109-0.287,0.164-0.434c1.418-3.708,4.363-8.497,6.682-11.203c1.266-1.478,2.811-3.255,4.247-4.599l3.48-2.852   l20.143-0.03l7.145-7.324h6.023c0.184,0.806,0.852,1.436,1.692,1.558v0.023h0.603v-0.023c0.986-0.146,1.741-0.984,1.741-1.992   c0-0.873-0.561-1.619-1.351-1.899c0.681,0.092,1.381,0.195,2.105,0.312c1.077,0.17,2.143,0.39,3.194,0.653l11.154,11.007h9.335   c2.373,2.187,4.515,4.611,6.358,7.14h-15.492l-7.619-7.52l-8.976,0.067c-4.028-0.764-8.191-0.836-12.311-0.184   c-0.298-0.75-1.041-1.288-1.905-1.288h-0.018c-0.542,0-1.059,0.219-1.436,0.605c-0.384,0.385-0.59,0.898-0.59,1.429   c0,0.043,0,0.08,0,0.117c-2.989,0.83-5.922,2.057-8.732,3.713c-0.967,0.573-1.899,1.178-2.788,1.82h-5.439   c0.055,0.293,0.103,0.586,0.152,0.88h4.119c-2.434,1.911-4.545,4.085-6.316,6.449V-193.193z M-253.709-206.258   c0.816-0.208,1.631-0.385,2.453-0.538c-0.219-0.409-0.652-0.684-1.145-0.684h-0.036c-0.341,0-0.657,0.141-0.901,0.385   c-0.225,0.226-0.359,0.525-0.376,0.837H-253.709z M-234.674-205.886c3.42,1.008,6.694,2.529,9.707,4.52l-4.619-4.556   L-234.674-205.886z M-221.086-198.41h15.597c0.14,0.208,0.281,0.409,0.42,0.617c1.29,1.93,2.592,4.208,3.565,6.45   c1.734,3.964,4.181,12.026,3.785,16.295c-1.271-0.494-2.641-1.436-5.763-2.602c-1.844-0.69-4.545-1.258-6.541-1.6   c-0.287-1.906-0.852-3.866-1.595-5.753h6.329c0.207,0.904,1.022,1.575,1.996,1.575c1.125,0,2.045-0.903,2.045-2.015   c0-1.014-0.762-1.852-1.741-1.992v-0.024h-0.603v0.024c-0.84,0.122-1.508,0.751-1.691,1.558h-6.693   c-1.327-3.103-3.091-5.974-4.808-8.075c-1.321-1.625-2.763-3.103-4.296-4.447L-221.086-198.41z M-213.442-207.309   c-2.319-2.027-4.838-3.823-7.472-5.276c-3.019-1.662-6.548-3.263-10.297-4.38l9.786,9.65h7.99L-213.442-207.309z M-239.134-218.51   c-0.889,0.079-1.612,0.727-1.807,1.568h-6.402l-7.144,7.318l-18.688,0.03l0.316-0.263c2.854-2.015,5.915-3.762,9.134-5.167   c0.098,0.25,0.25,0.488,0.457,0.696c0.396,0.39,0.919,0.592,1.448,0.592c0.53,0,1.048-0.195,1.442-0.592   c0.402-0.391,0.597-0.91,0.597-1.43c0-0.251-0.049-0.501-0.141-0.739c4.479-1.514,9.202-2.357,14.046-2.357   c2.3-0.049,4.448,0.067,6.735,0.342H-239.134z M-257.913-146.925c0.347,0,0.675,0.134,0.918,0.372c0.512,0.501,0.512,1.32,0,1.82   c-0.243,0.244-0.571,0.372-0.918,0.372c-0.348,0-0.676-0.134-0.919-0.372c-0.244-0.246-0.383-0.568-0.383-0.91   s0.134-0.667,0.383-0.91C-258.589-146.798-258.261-146.925-257.913-146.925z M-286.247-173.355c0.719,0,1.303,0.575,1.303,1.29   s-0.583,1.282-1.303,1.282c-0.718,0-1.301-0.574-1.301-1.282C-287.548-172.775-286.965-173.355-286.247-173.355z M-260.615-216.25   c-0.815,0.293-1.625,0.605-2.428,0.935c0.066,0.171,0.165,0.33,0.304,0.464c0.243,0.244,0.571,0.372,0.918,0.372   c0.348,0,0.676-0.134,0.919-0.372c0.384-0.379,0.481-0.935,0.281-1.405L-260.615-216.25z M-278.944-137.514   c0.305,0.447,0.609,0.885,0.919,1.333c0.876,0.085,3.183-0.496,5.903-1.333h-6.816H-278.944z"></path>		<path fill="#FFFFFF" d="M-265.234-86.887c-0.846-0.208-1.789-0.532-2.623-0.938h-9.067c0.542,1.793,4.119,3.095,6.092,3.712   c2.477,0.775,5.349,1.361,8.397,1.803l0.59-0.604h6.402c0.2-0.905,1.022-1.583,1.996-1.583c1.126,0,2.044,0.903,2.044,2.018   c0,0.413-0.127,0.798-0.347,1.122c2.313,0.103,4.589,0.147,6.731,0.147h0.675l-3.401-3.361c-1.491-0.035-2.86-0.123-4.047-0.243   c-2.47-0.255-4.637-0.477-6.961-0.733c-2.422-0.269-4.345-0.806-6.468-1.351L-265.234-86.887z M-243.108-81.22l-3.366-3.321   c3.797,0.038,8.215-0.172,12.377-0.642l3.311,3.27c-4.115,0.438-8.405,0.646-12.317,0.693H-243.108z M-228.394-82.201   c3.304-0.44,6.426-1.049,9.06-1.877c2.703-0.847,9.231-3.175,4.723-6.399c-1.771-1.266-8.331-3.384-11.027-3.366   c0.384,0.293,1.874,0.643,2.835,1.045c4.388,1.855,3.493,3.963-0.499,5.425c-2.483,0.903-5.934,1.588-9.669,2.058l3.152,3.115   H-228.394z M-260.329-82.038h4.879c0.037,0.165,0.098,0.331,0.177,0.479C-256.97-81.683-258.669-81.842-260.329-82.038z    M-254.293-81.492c-0.285-0.237-0.462-0.586-0.462-0.984c0-0.707,0.583-1.283,1.303-1.283c0.718,0,1.301,0.576,1.301,1.283   c0,0.447-0.231,0.843-0.583,1.076c-0.518-0.025-1.036-0.057-1.552-0.092H-254.293z M-269.275-88.707   c-0.261-0.214-0.475-0.434-0.633-0.666c-1.229-1.831,1.929-3.207,3.085-3.564c0.36-0.154,0.652-0.289,1.096-0.416   c0.518-0.152,0.955-0.215,1.315-0.49c-2.738-0.006-9.177,2.078-10.947,3.304c-0.938,0.648-1.424,1.266-1.577,1.84h7.661V-88.707z"></path>		<path fill="#FFFFFF" d="M-235.484-154.379c-0.042,0.215-0.097,0.434-0.152,0.648h0.518l7.619,7.513h18.377   c0.207-0.904,1.022-1.576,1.996-1.576c0.195,0,0.389,0.031,0.566,0.079v-0.042c1.973-13.589-6.14-24.792-15.407-29.599   c-2.088-1.081-4.168-1.905-6.262-2.485h-0.919c0.109-0.049,0.219-0.104,0.329-0.16c-3.238-0.83-6.493-1.087-9.798-0.837   c0.012,0.037,0.024,0.08,0.031,0.117h0.875c0.463,0.342,0.956,0.635,1.479,0.88h-2.354c-0.208,0.903-1.023,1.575-1.997,1.575   c-1.126,0-2.044-0.903-2.044-2.016v-0.012c-1.497,0.287-3,0.679-4.521,1.155l13.314,13.132h17.659   c0.207-0.899,1.022-1.577,1.996-1.577c1.126,0,2.045,0.904,2.045,2.016c0,1.014-0.755,1.85-1.741,1.997v0.025h-0.603v-0.025   c-0.838-0.122-1.508-0.751-1.691-1.557H-234.2l-13.886-13.706c-0.608,0.201-1.218,0.421-1.826,0.653   c-1.6,0.612-2.659,1.1-4.017,1.791l-2.75,1.551c-0.091,0.067-0.164,0.116-0.225,0.153l0.718,0.709   c3.76,0.263,15.45,1.081,19.765,10.432c0.463,1.001,0.767,1.875,0.95,2.711h10.265c0.208-0.897,1.023-1.575,1.997-1.575   c0.042,0,0.085,0,0.127,0c-0.182-0.538-0.384-1.063-0.621-1.575l1.759-0.44c0.699,1.515,1.181,3.035,1.497,4.568l-0.944,0.367   c-0.292,0.575-0.857,0.99-1.521,1.088v0.023h-0.603v-0.023c-0.84-0.123-1.508-0.751-1.692-1.558h-10.106   c0.225,1.655,0.042,3.267-0.159,5.576L-235.484-154.379z M-214.185-166.85c0.718,0,1.302,0.574,1.302,1.288   c0,0.715-0.583,1.283-1.302,1.283c-0.718,0-1.302-0.574-1.302-1.283C-215.487-166.27-214.903-166.85-214.185-166.85z    M-239.384-180.771c0.066,0.153,0.098,0.317,0.098,0.495c0,0.708-0.585,1.283-1.303,1.283s-1.303-0.575-1.303-1.283   c0-0.055,0-0.104,0.007-0.153c0.833-0.146,1.667-0.256,2.495-0.342H-239.384z M-235.91-152.845h0.426l7.613,7.506h18.749   c0.182,0.808,0.857,1.436,1.692,1.559v0.022h0.097c-0.426,1.509-1.047,2.907-2.1,4.466c-0.62,0.923-1.241,1.832-1.861,2.737   l-6.603-6.519h-1.26l7.352,7.258c-2.483,3.591-4.978,7.04-7.509,10.412l-9.931-9.797c1.192-1.532,2.33-3.133,3.408-4.813   l-1.965-0.923c-1.071,1.552-2.209,3.037-3.408,4.459h-0.59l0.322,0.317l-0.085,0.105l0.518,0.325l11.197,11.047   c-1.004,1.333-2.008,2.647-3.025,3.958l-2.307-2.276l-21.195,0.156c-0.207-0.896-1.022-1.561-1.989-1.561h-0.019   c-0.542,0-1.059,0.219-1.436,0.604c-0.383,0.385-0.59,0.899-0.59,1.429c0.006,0.964,0.7,1.765,1.619,1.961v0.049l0.888-0.007   v-0.049c0.767-0.177,1.363-0.78,1.527-1.541l20.831-0.152l2.13,2.102c-0.792,1.015-1.582,2.028-2.386,3.037   c-0.815,0.139-1.466,0.756-1.649,1.543h-11.354c-0.207-0.903-1.023-1.574-1.997-1.574c-1.125,0-2.044,0.904-2.044,2.015   c0,1.013,0.761,1.852,1.74,1.997v0.027h0.603v-0.027c0.84-0.121,1.509-0.751,1.691-1.556h11.069   c-1.382,1.717-2.775,3.433-4.193,5.154h-20.136l-3.03-3.115c2.519-1.753,5.008-3.542,7.472-5.376l-2.1-2.438   c-2.666,1.731-5.373,3.39-8.111,5.005l-1.352-1.394h-4.582c-2.033-2.712-4.046-5.436-5.994-8.191l19.687-0.032l7.144-7.316h6.024   c0.182,0.807,0.852,1.436,1.691,1.559v0.024h0.603v-0.024c0.986-0.146,1.741-0.982,1.741-1.993c0-1.109-0.919-2.015-2.045-2.015   c-0.974,0-1.789,0.677-1.996,1.577h-6.402l-7.144,7.321l-19.923,0.031c-0.237-0.34-0.474-0.676-0.712-1.02   c-0.426-0.543-1.284-1.525-1.643-2.223c0.201-0.159-0.024-0.092,0.615-0.389c0.371-0.174,0.073-0.063,0.511-0.179l3.505-0.832   c2.495-0.559,5.501-1.503,8.525-2.657l0.061,0.063c-0.505,0.782-0.408,1.825,0.279,2.509c0.396,0.392,0.919,0.595,1.442,0.595   c0.523,0,1.047-0.197,1.448-0.595c0.402-0.389,0.597-0.908,0.597-1.429c0-0.385-0.11-0.763-0.329-1.098   c0-0.031-0.018-0.067-0.06-0.116l-0.171-0.172c-0.012-0.011-0.03-0.029-0.048-0.042l-0.043-0.042l-0.17-0.166   c-0.055-0.038-0.085-0.056-0.115-0.056c-0.237-0.152-0.5-0.25-0.767-0.291c2.568-1.064,5.075-2.254,7.205-3.475h5.726   c0.159,0.693,0.682,1.261,1.363,1.476c0.164,0.074,0.341,0.123,0.53,0.152v0.027h0.603v-0.027   c0.499-0.071,0.937-0.322,1.253-0.688h-0.268c0.348-0.36,0.56-0.85,0.56-1.382c0-1.109-0.919-2.013-2.045-2.013   c-0.974,0-1.789,0.675-1.996,1.574h-4.259c0.469-0.3,0.918-0.6,1.332-0.89c0.81-0.582,2.77-1.955,4.297-3.287l0.268,0.262h14.812   l4.461,4.403c-0.5,0.783-0.408,1.827,0.28,2.505c0.401,0.391,0.925,0.595,1.448,0.595c0.523,0,1.047-0.197,1.449-0.595   c0.395-0.389,0.596-0.908,0.596-1.427c0-0.423-0.134-0.845-0.402-1.199l0.018-0.018l-0.426-0.42l-0.018,0.018   c-0.359-0.264-0.785-0.394-1.211-0.394c-0.383,0-0.767,0.105-1.103,0.317l-4.722-4.665h-14.774   c0.578-0.555,1.034-1.087,1.229-1.516c0.505-0.139,1.485-1.507,1.923-2.027c0.621-0.732,1.046-1.404,1.534-2.29   c0.608-1.105,1.369-2.492,1.874-3.933L-235.91-152.845z M-207.139-144.489c-0.712-0.006-1.283-0.579-1.283-1.283   c0-0.702,0.583-1.288,1.301-1.288c0.159,0,0.317,0.03,0.458,0.079c-0.14,0.891-0.287,1.712-0.476,2.486V-144.489z    M-248.396-123.681c-0.34,0-0.658,0.143-0.9,0.385c-0.244,0.246-0.378,0.563-0.378,0.906c0,0.355,0.14,0.673,0.39,0.915   c0.243,0.239,0.571,0.374,0.913,0.374h0.007c0.346,0,0.675-0.141,0.918-0.385c0.244-0.244,0.378-0.562,0.378-0.903   c0-0.713-0.585-1.281-1.296-1.281h-0.037L-248.396-123.681z M-240.803-116.284c-0.718,0-1.301,0.575-1.301,1.284   c0,0.707,0.583,1.288,1.301,1.288c0.719,0,1.303-0.572,1.303-1.288S-240.083-116.284-240.803-116.284z M-234.911-133.985   c-0.719,0-1.303,0.577-1.303,1.29s0.583,1.281,1.303,1.281c0.718,0,1.301-0.572,1.301-1.281S-234.193-133.985-234.911-133.985z    M-263.111-115.843c1.467,1.948,2.934,3.889,4.394,5.834l5.982,7.963h14.684c1.837-2.18,3.638-4.336,5.403-6.474h-19.79   l-3.389-3.482c-0.334,0.23-0.669,0.458-1.004,0.691l-2.842-2.938c0.354-0.208,0.707-0.412,1.059-0.617l-0.95-0.971h-3.541   L-263.111-115.843z M-221.876-138.011c-0.335,0-0.669,0.125-0.919,0.376c-0.244,0.241-0.383,0.568-0.383,0.908   c0,0.344,0.134,0.667,0.383,0.912c0.255,0.25,0.59,0.376,0.919,0.376c0.328,0,0.669-0.121,0.918-0.376   c0.25-0.246,0.384-0.563,0.384-0.912c0-0.349-0.134-0.667-0.384-0.908C-221.213-137.886-221.542-138.011-221.876-138.011z    M-252.078-101.171l3.2,4.262h4.157l1.386,1.368l4.559-5.63H-252.078z M-248.213-96.028h3.127l1.199,1.176l-1.784,2.2   l-2.542-3.386V-96.028z M-242.512-139.133c-0.718,0-1.301,0.575-1.301,1.288c0,0.715,0.583,1.284,1.301,1.284   s1.303-0.573,1.303-1.284C-241.209-138.552-241.794-139.133-242.512-139.133z M-257.78-133.234c-0.347,0-0.675,0.137-0.919,0.376   c-0.244,0.241-0.383,0.559-0.383,0.908c0,0.349,0.134,0.667,0.383,0.913c0.244,0.241,0.573,0.371,0.919,0.371   s0.675-0.134,0.919-0.371c0.511-0.501,0.511-1.319,0-1.82C-257.104-133.104-257.433-133.234-257.78-133.234z M-235.775-174.541   l-0.214,1.337c-1.393-0.341-2.798-0.653-4.223-0.934l0.11-1.247C-238.653-175.163-237.211-174.883-235.775-174.541z    M-227.147-168.713c-0.974-0.935-2.039-1.76-3.219-2.45l0.864-0.94c1.114,0.641,2.185,1.38,3.201,2.205l-0.846,1.178V-168.713z    M-222.845-161.616c0.207,0.714,0.371,1.441,0.493,2.187c-0.231,0.201-0.536,0.33-0.87,0.33c-0.718,0-1.303-0.574-1.303-1.282   c0-0.709,0.584-1.289,1.303-1.289C-223.094-161.671-222.966-161.653-222.845-161.616z M-224.056-147.36   c0.693-1.49,1.26-3.108,1.631-4.916l1.862,0.421c-0.414,1.727-0.967,3.365-1.63,4.934l-1.863-0.445V-147.36z M-241.179-123.008   c2.397-2.011,4.704-4.148,6.906-6.432l-2.001-1.559c-2.197,2.151-4.576,4.197-7.078,6.177L-241.179-123.008z"></path>		<path fill="#FFFFFF" d="M-264.126-120.175l2.397,3.444h2.538l1.351,1.393c2.738-1.612,5.446-3.273,8.112-5.002l2.1,2.437   c-2.466,1.834-4.955,3.623-7.474,5.376l3.03,3.113h0.019l13.91-12.624l-8.232,0.061c-0.165,0.758-0.762,1.364-1.527,1.539v0.049   h-0.883v-0.042c-0.918-0.19-1.612-0.995-1.618-1.961c0-0.532,0.207-1.042,0.59-1.427c0.384-0.387,0.895-0.599,1.436-0.606h0.018   c0.968,0,1.783,0.673,1.99,1.563l9.213-0.067l9.956-9.034l-3.834-3.779l-0.518-0.324l0.086-0.105l-0.323-0.317h0.59   c1.199-1.422,2.337-2.907,3.408-4.459l1.965,0.924c-1.078,1.679-2.215,3.28-3.408,4.814l2.684,2.647l3.14-2.851   c-0.602-0.677-0.663-1.666-0.188-2.406l-4.461-4.403h-6.857l-4.041,6.78l-3.772,2.29h5.829c0.208-0.903,1.023-1.577,1.997-1.577   c1.125,0,2.043,0.906,2.043,2.015c0,1.015-0.753,1.852-1.74,1.993v0.024h-0.603v-0.024c-0.84-0.123-1.509-0.751-1.691-1.559   h-6.024l-7.144,7.316h-6.196l-7.85,4.772L-264.126-120.175z M-248.402-123.681h0.037c0.712,0,1.29,0.575,1.296,1.277   c0,0.347-0.133,0.664-0.377,0.91c-0.244,0.244-0.573,0.38-0.919,0.385h-0.006c-0.348,0-0.669-0.13-0.914-0.371   c-0.249-0.246-0.389-0.563-0.389-0.913c0-0.349,0.134-0.667,0.377-0.908c0.238-0.239,0.56-0.38,0.901-0.385L-248.402-123.681z    M-244.143-132.293l-6.316,6.47h-4.363L-244.143-132.293z M-234.917-133.99c0.718,0,1.303,0.573,1.303,1.288   c0,0.716-0.585,1.284-1.303,1.284s-1.302-0.577-1.302-1.284C-236.219-133.411-235.635-133.99-234.917-133.99z M-261.114-115.85   h1.545l0.949,0.97c-0.352,0.208-0.706,0.409-1.059,0.617l2.842,2.938c0.334-0.232,0.67-0.458,1.004-0.691l3.122,3.207   l-2.148,1.948L-261.114-115.85z M-222.875-135.896l1.918-1.742c-0.256-0.25-0.585-0.378-0.919-0.378   c-0.334,0-0.669,0.121-0.919,0.371c-0.244,0.246-0.383,0.568-0.383,0.91c0,0.311,0.109,0.599,0.311,0.83L-222.875-135.896z    M-220.409-138.131l-0.238-0.233l-0.018,0.018c-0.359-0.264-0.785-0.389-1.211-0.389c-0.383,0-0.767,0.103-1.101,0.317   l-4.722-4.669h-6.707l3.261-5.471l3.274,3.226h15.396l-4.022,3.652l-1.405-1.387h-1.26l2.008,1.979l-3.262,2.961L-220.409-138.131   z M-211.501-146.219l0.042-0.037l-3.791-17.591c-0.463-0.281-0.804-0.738-0.926-1.283h-15.328l0.706,4.294h5.581   c0.207-0.897,1.022-1.576,1.996-1.576c0.042,0,0.085,0,0.127,0c-0.183-0.537-0.383-1.063-0.621-1.575l1.759-0.439   c0.7,1.514,1.181,3.034,1.497,4.568l-0.943,0.366c-0.292,0.575-0.858,0.989-1.521,1.088v0.024h-0.603v-0.024   c-0.84-0.122-1.51-0.751-1.692-1.558h-5.439l1.363,8.289l-1.382,2.314l3.176,3.133h15.993L-211.501-146.219z M-215.864-166.711   l-0.018-0.078l-15.895-11.795l-13.041,1.056l-0.322,0.36l6.748,6.658l6.615,3.713l0.127,0.776h15.475   c0.062-0.257,0.166-0.488,0.311-0.702V-166.711z M-245.725-176.501l4.412,4.355l-5.525-3.103L-245.725-176.501z M-235.775-174.554   l-0.212,1.338c-1.394-0.342-2.8-0.654-4.223-0.935l0.109-1.245C-238.653-175.177-237.211-174.896-235.775-174.554z    M-227.146-168.727c-0.974-0.935-2.038-1.76-3.219-2.449l0.865-0.94c1.113,0.642,2.184,1.381,3.2,2.205l-0.845,1.179V-168.727z    M-222.843-161.63c0.207,0.715,0.371,1.442,0.492,2.188c-0.23,0.201-0.534,0.33-0.87,0.33c-0.718,0-1.302-0.574-1.302-1.283   c0-0.708,0.583-1.289,1.302-1.289C-223.094-161.685-222.965-161.666-222.843-161.63z M-224.054-147.374l1.861,0.446   c0.663-1.57,1.217-3.207,1.631-4.935l-1.863-0.42c-0.371,1.807-0.937,3.419-1.63,4.916V-147.374z M-241.178-123.021l-2.172-1.813   c2.5-1.972,4.879-4.025,7.076-6.176l2.003,1.559C-236.474-127.169-238.781-125.032-241.178-123.021z"></path>		<path fill="#FFFFFF" d="M-264.126-120.175l2.397,3.444h2.538l7.119,7.317h0.019l13.91-12.624l-8.232,0.061   c-0.165,0.758-0.762,1.364-1.527,1.539v0.049h-0.883v-0.042c-0.918-0.19-1.612-0.995-1.618-1.961c0-0.532,0.207-1.042,0.59-1.427   c0.384-0.387,0.895-0.599,1.436-0.606h0.018c0.968,0,1.783,0.673,1.99,1.563l9.213-0.067l9.956-9.034l-4.582-4.518h1.259   l3.98,3.927l3.14-2.854c-0.603-0.68-0.663-1.668-0.189-2.406l-4.46-4.405h-6.858l-4.041,6.78l-3.772,2.29h5.83   c0.207-0.903,1.021-1.574,1.996-1.574c1.126,0,2.045,0.903,2.045,2.015c0,1.013-0.754,1.852-1.741,1.992v0.022h-0.603v-0.022   c-0.84-0.123-1.508-0.751-1.692-1.559h-6.024l-7.144,7.319h-6.194l-7.85,4.768L-264.126-120.175z M-223.227-161.678   c-0.718,0-1.303,0.574-1.303,1.288c0,0.716,0.585,1.284,1.303,1.284s1.302-0.575,1.302-1.284   C-221.925-161.098-222.509-161.678-223.227-161.678z M-248.402-123.681h0.037c0.712,0,1.29,0.575,1.296,1.277   c0,0.347-0.133,0.664-0.377,0.91c-0.244,0.244-0.573,0.38-0.919,0.385h-0.006c-0.348,0-0.669-0.13-0.914-0.371   c-0.249-0.246-0.389-0.563-0.389-0.913c0-0.349,0.134-0.667,0.377-0.908c0.238-0.239,0.56-0.38,0.901-0.385L-248.402-123.681z    M-244.143-132.293l-6.316,6.47h-4.363L-244.143-132.293z M-234.917-133.99c0.718,0,1.303,0.573,1.303,1.288   c0,0.716-0.585,1.284-1.303,1.284s-1.302-0.577-1.302-1.284C-236.219-133.411-235.635-133.99-234.917-133.99z M-261.114-115.85   h1.545l6.853,7.042l-2.148,1.948l-6.256-8.989H-261.114z M-222.875-135.896l1.918-1.742c-0.256-0.25-0.585-0.378-0.919-0.378   c-0.334,0-0.669,0.121-0.919,0.371c-0.244,0.246-0.383,0.568-0.383,0.91c0,0.311,0.109,0.599,0.311,0.83L-222.875-135.896z    M-220.409-138.131l-0.238-0.233l-0.018,0.018c-0.359-0.264-0.785-0.389-1.211-0.389c-0.383,0-0.767,0.103-1.101,0.317   l-4.722-4.669h-6.707l3.261-5.471l3.274,3.226h15.396l-4.022,3.652l-1.405-1.387h-1.26l2.008,1.979l-3.262,2.961L-220.409-138.131   z M-211.501-146.219h-15.991l-3.176-3.133l1.381-2.316l-1.363-8.289h5.44c0.183,0.807,0.852,1.436,1.692,1.558v0.025h0.602v-0.025   c0.986-0.146,1.741-0.982,1.741-1.997c0-1.111-0.919-2.016-2.045-2.016c-0.974,0-1.789,0.679-1.996,1.576h-5.581l-0.706-4.294   h15.328c0.122,0.538,0.463,0.997,0.926,1.283l3.791,17.591L-211.501-146.219z M-215.864-166.711l-0.018-0.078l-15.895-11.795   l-13.041,1.056l-0.322,0.36l6.748,6.658l6.615,3.713l0.127,0.776h15.475c0.062-0.257,0.166-0.488,0.311-0.702V-166.711z    M-245.725-176.501l4.412,4.355l-5.525-3.103L-245.725-176.501z"></path>		<path fill="#FFFFFF" d="M-129.917-219.109h-8.768h-43.51v8.808h43.51v87.435h8.768v-87.435h43.51v-8.808H-129.917z"></path>		<path fill="#FFFFFF" d="M-60.637-204.848c-6.237,6.645-9.949,15.129-9.949,24.358v19.02c0,9.229,3.712,17.689,9.924,24.358   c1.857,1.979,3.944,3.824,6.219,5.43c6.518,4.685,14.635,7.787,23.52,8.6v-8.833c-5.775-0.628-11.319-2.424-16.119-5.197   c-1.023-0.582-1.996-1.234-2.944-1.912c-2.808-2.002-5.198-4.336-7.097-6.902c-3.48-4.636-5.379-10.022-5.379-15.544v-19.02   c0-5.546,1.905-10.909,5.379-15.569c1.905-2.541,4.289-4.875,7.119-6.902c0.95-0.679,1.923-1.307,2.945-1.887   c4.802-2.798,10.32-4.569,16.095-5.198v-8.832c-8.885,0.818-17.002,3.891-23.52,8.601   C-56.718-208.672-58.805-206.827-60.637-204.848z M8.225-204.848c-1.857-2.004-3.92-3.824-6.196-5.454   c-6.54-4.685-14.657-7.765-23.542-8.576v8.832c5.797,0.629,11.319,2.4,16.118,5.198c1.024,0.58,2.022,1.208,2.947,1.887   c2.805,2.027,5.196,4.361,7.094,6.902c3.505,4.66,5.379,10.047,5.379,15.569v19.02c0,5.521-1.903,10.908-5.379,15.544   c-1.923,2.566-4.289,4.892-7.119,6.902c-0.926,0.677-1.924,1.308-2.945,1.912c-4.776,2.773-10.32,4.569-16.095,5.197v8.833   c8.885-0.818,17.002-3.915,23.52-8.6c2.275-1.63,4.362-3.451,6.219-5.43c6.212-6.646,9.924-15.129,9.924-24.358v-19.02   C18.149-189.719,14.437-198.203,8.225-204.848z"></path>		<path fill="#FFFFFF" d="M115.962-209.551c-7.025-5.826-17.694-9.559-29.639-9.559H33.929v8.112h52.395   c9.509,0,18.604,3.102,24.38,8.275c1.97,1.797,5.286,5.479,5.286,9.908c0,4.428-3.316,8.087-5.286,9.883   c-5.754,5.173-14.871,8.275-24.38,8.275H33.929v51.814h8.771v-43.708h43.629c11.945,0,22.614-3.708,29.665-9.56   c5.479-4.544,8.771-10.37,8.771-16.711c0-6.34-3.291-12.191-8.792-16.735L115.962-209.551z"></path>		<path fill="#FFFFFF" d="M140.382-175.384v52.542h8.771v-43.727h73.365v-8.814H140.382z M140.382-219.109v8.808h82.136v-8.808   H140.382z"></path>		<path fill="#FFFFFF" d="M247.125-131.655v-87.454h-8.77v96.267h70.722v-8.813H247.125z"></path>		<path fill="#FFFFFF" d="M370.399-219.109l-35.02,41.955l-35.046-41.955h-11.315l42.483,50.885v45.382h8.748v-46.597l41.469-49.67   H370.399z"></path>		<path fill="#FFFFFF" d="M-171.773-86.665c0,2.896,0.202,5.267,0.597,7.098c0.396,1.832,1.107,3.268,2.124,4.301   c1.016,1.032,2.392,1.746,4.132,2.131c1.74,0.385,3.93,0.574,6.583,0.574h11.355c2.386,0,4.308-0.208,5.768-0.624   c1.461-0.413,2.586-1.16,3.384-2.242c0.798-1.078,1.327-2.563,1.589-4.457c0.267-1.895,0.396-4.318,0.396-7.274h-18.475v3.193   h15.024c0,1.771-0.116,3.202-0.354,4.282c-0.237,1.08-0.638,1.912-1.216,2.505c-0.573,0.593-1.357,0.981-2.344,1.174   c-0.985,0.192-2.245,0.286-3.778,0.286h-11.715c-2.063,0-3.742-0.13-5.039-0.38c-1.296-0.251-2.306-0.763-3.023-1.534   c-0.725-0.77-1.212-1.867-1.461-3.303c-0.249-1.436-0.376-3.348-0.376-5.74v-2.84c0-2.335,0.146-4.223,0.444-5.658   c0.292-1.436,0.839-2.54,1.637-3.327c0.797-0.783,1.886-1.309,3.268-1.577c1.388-0.269,3.165-0.396,5.349-0.396h10.917   c1.502,0,2.762,0.127,3.778,0.378c1.017,0.25,1.826,0.61,2.429,1.087c0.603,0.472,1.028,1.058,1.284,1.753   c0.249,0.696,0.39,1.472,0.42,2.328h3.183c0-2.988-0.913-5.192-2.738-6.61c-1.826-1.418-4.612-2.131-8.354-2.131h-10.474   c-2.738,0-5.033,0.208-6.87,0.624c-1.845,0.416-3.317,1.154-4.418,2.216c-1.107,1.062-1.887,2.516-2.343,4.35   c-0.456,1.831-0.688,4.173-0.688,7.004v2.8L-171.773-86.665z"></path>		<path fill="#FFFFFF" d="M-85.788-95.442c0-2.486-0.815-4.423-2.452-5.81c-1.637-1.391-4.266-2.082-7.886-2.082h-21.256v30.784   h3.401v-13.219h17.855c3.62,0,6.255-0.695,7.886-2.081c1.637-1.394,2.452-3.33,2.452-5.808v-1.771V-95.442z M-113.981-100.145   h17.678c1.387,0,2.531,0.103,3.444,0.311c0.914,0.208,1.637,0.519,2.167,0.928c0.529,0.416,0.906,0.917,1.125,1.51   c0.219,0.593,0.329,1.288,0.329,2.084v1.508c0,0.8-0.11,1.495-0.329,2.084c-0.219,0.59-0.596,1.091-1.125,1.507   c-0.53,0.416-1.253,0.727-2.167,0.928c-0.913,0.208-2.063,0.312-3.444,0.312h-17.678v-11.177V-100.145z"></path>		<path fill="#FFFFFF" d="M-57.832-103.34c-3.182,0-5.543,0.648-7.093,1.955c-1.546,1.301-2.32,3.403-2.32,6.297   c0,1.391,0.151,2.59,0.463,3.592c0.311,1.008,0.907,1.833,1.788,2.486c0.884,0.653,2.106,1.136,3.671,1.467   c1.564,0.322,3.595,0.519,6.096,0.572l10.742,0.269c2.148,0.063,3.896,0.184,5.24,0.381c1.339,0.188,2.379,0.491,3.116,0.907   c0.735,0.416,1.228,0.953,1.477,1.619c0.249,0.666,0.378,1.485,0.378,2.462c0,2.1-0.573,3.554-1.722,4.367   c-1.149,0.814-2.934,1.222-5.349,1.222h-14.539c-1.501,0-2.762-0.128-3.778-0.378c-1.016-0.251-1.825-0.611-2.427-1.09   c-0.603-0.469-1.029-1.055-1.285-1.75c-0.25-0.696-0.389-1.475-0.419-2.328h-3.182c0,2.987,0.907,5.192,2.72,6.61   c1.814,1.415,4.248,2.128,7.314,2.128h15.78c1.766,0,3.286-0.145,4.552-0.442c1.265-0.295,2.31-0.782,3.14-1.467   c0.826-0.68,1.429-1.576,1.813-2.684c0.382-1.109,0.573-2.474,0.573-4.101c0-1.633-0.221-2.885-0.665-3.947   s-1.2-1.937-2.276-2.614c-1.076-0.68-2.53-1.186-4.375-1.51c-1.844-0.324-4.162-0.519-6.961-0.574l-9.499-0.22   c-1.972-0.031-3.565-0.134-4.77-0.311c-1.208-0.177-2.137-0.454-2.79-0.818c-0.65-0.373-1.077-0.856-1.282-1.465   c-0.208-0.605-0.311-1.382-0.311-2.33c0-0.83,0.08-1.557,0.243-2.191c0.165-0.635,0.47-1.167,0.925-1.595   c0.458-0.427,1.079-0.751,1.857-0.977c0.778-0.219,1.789-0.331,3.024-0.331h15.51c1.504,0,2.764,0.13,3.78,0.38   c1.017,0.25,1.825,0.61,2.427,1.087c0.602,0.47,1.028,1.051,1.285,1.729c0.249,0.678,0.389,1.447,0.418,2.31h3.227   c0-2.925-0.884-5.107-2.654-6.543c-1.765-1.436-4.361-2.149-7.776-2.149h-16.091L-57.832-103.34z"></path>		<path fill="#FFFFFF" d="M9.509-77.969c0,0.709,0.103,1.394,0.309,2.04c0.207,0.648,0.585,1.229,1.127,1.73   c0.546,0.501,1.289,0.903,2.233,1.196c0.943,0.293,2.147,0.445,3.627,0.445h12.42c2.739,0,4.729-0.494,5.963-1.484   c1.234-0.989,1.857-2.283,1.857-3.878v-1.239c0-2.039-0.653-3.506-1.949-4.392s-3.14-1.362-5.525-1.418l-12.729-0.269   c-1.328-0.031-2.35-0.236-3.073-0.621c-0.724-0.385-1.083-1.083-1.083-2.084v-0.936c0-1.954,1.387-2.925,4.157-2.925h12.42   c1.058,0,1.898,0.092,2.519,0.269s1.094,0.416,1.436,0.709c0.341,0.293,0.553,0.628,0.638,0.995   c0.085,0.366,0.135,0.747,0.135,1.132v1.108h3.181v-1.507c0-0.622-0.108-1.252-0.328-1.888c-0.22-0.635-0.635-1.221-1.236-1.753   c-0.603-0.532-1.447-0.971-2.542-1.306c-1.09-0.345-2.508-0.515-4.243-0.515H17.157c-2.622,0-4.545,0.532-5.768,1.595   c-1.222,1.062-1.832,2.395-1.832,3.996v1.02c0,2.008,0.664,3.408,1.99,4.188c1.325,0.78,3.164,1.191,5.524,1.223l12.682,0.269   c1.326,0.029,2.349,0.309,3.074,0.841c0.724,0.532,1.083,1.288,1.083,2.261v0.935c0,1.009-0.414,1.761-1.234,2.262   c-0.829,0.5-2.004,0.751-3.536,0.751H17.249c-0.914,0-1.667-0.076-2.251-0.222c-0.59-0.145-1.053-0.355-1.394-0.624   c-0.341-0.268-0.572-0.59-0.706-0.975c-0.135-0.385-0.201-0.832-0.201-1.333v-1.153H9.514v1.552L9.509-77.969z"></path>		<path fill="#FFFFFF" d="M65.129-94.605c-1.74,0-3.216,0.215-4.419,0.64c-1.212,0.429-2.187,1.028-2.938,1.798   c-0.749,0.769-1.304,1.686-1.655,2.748c-0.354,1.063-0.53,2.216-0.53,3.457v4.788c0,2.809,0.778,4.946,2.341,6.409   c1.565,1.465,3.962,2.191,7.205,2.191h8.792c1.767,0,3.256-0.232,4.461-0.689c1.21-0.46,2.186-1.089,2.941-1.887   c0.746-0.801,1.288-1.718,1.609-2.751c0.324-1.033,0.488-2.131,0.488-3.278v-4.79c0-1.122-0.152-2.209-0.461-3.26   c-0.313-1.052-0.837-1.973-1.57-2.773c-0.737-0.801-1.717-1.436-2.942-1.905c-1.221-0.472-2.73-0.711-4.526-0.711h-8.792   L65.129-94.605z M58.805-81.162v-4.789c0-2.132,0.555-3.646,1.655-4.545c1.109-0.903,2.764-1.354,4.971-1.354h8.178   c2.151,0,3.793,0.494,4.933,1.484c1.132,0.989,1.704,2.446,1.704,4.365v4.839c0,2.132-0.599,3.646-1.793,4.545   c-1.192,0.903-2.805,1.354-4.835,1.354h-8.18c-4.417,0-6.628-1.968-6.628-5.899H58.805z"></path>		<path fill="#FFFFFF" d="M106.525-103.34h-3.18v30.784h3.18V-103.34z"></path>		<path fill="#FFFFFF" d="M136.337-72.557h8.573c1.004,0,1.862-0.09,2.587-0.269c0.725-0.177,1.333-0.396,1.834-0.666   c0.496-0.269,0.91-0.555,1.234-0.868c0.322-0.309,0.591-0.586,0.796-0.816v2.614h3.091v-21.915h-3.185v13.706   c0,0.946-0.174,1.76-0.527,2.436c-0.354,0.68-0.828,1.252-1.409,1.713c-0.593,0.456-1.268,0.801-2.035,1.02   c-0.767,0.22-1.565,0.329-2.386,0.329h-8.573c-1.971,0-3.522-0.463-4.646-1.397c-1.117-0.936-1.677-2.347-1.677-4.24v-13.571   h-3.227v13.308c0,2.694,0.749,4.803,2.252,6.323c1.502,1.521,3.931,2.283,7.29,2.283L136.337-72.557z"></path>		<path fill="#FFFFFF" d="M182.197-75.263c-1.329,0-2.432-0.392-3.319-1.172c-0.881-0.782-1.325-2.077-1.325-3.88v-10.957h16.444   v-3.195h-16.444v-4.213h-3.183v4.213h-2.739v3.195h2.739v10.555c0,2.812,0.7,4.873,2.1,6.188c1.4,1.313,3.306,1.973,5.721,1.973   h6.321c1.442,0,2.659-0.184,3.647-0.555c0.983-0.373,1.787-0.846,2.406-1.418c0.622-0.574,1.06-1.216,1.328-1.905   c0.269-0.697,0.394-1.357,0.394-1.972h-3.443c0,0.268-0.067,0.586-0.197,0.952c-0.137,0.371-0.375,0.714-0.709,1.042   c-0.342,0.326-0.807,0.6-1.411,0.818c-0.602,0.222-1.361,0.331-2.276,0.331H182.197z"></path>		<path fill="#FFFFFF" d="M217.795-94.472h-3.184v21.915h3.184V-94.472z M217.795-103.34h-3.184v3.193h3.184V-103.34z"></path>		<path fill="#FFFFFF" d="M246.946-94.605c-1.739,0-3.211,0.215-4.416,0.64c-1.21,0.429-2.185,1.028-2.937,1.798   c-0.751,0.769-1.306,1.686-1.657,2.748c-0.351,1.063-0.53,2.216-0.53,3.457v4.788c0,2.809,0.778,4.946,2.344,6.409   c1.565,1.465,3.963,2.191,7.205,2.191h8.793c1.765,0,3.256-0.232,4.459-0.689c1.212-0.46,2.188-1.089,2.943-1.887   c0.744-0.801,1.288-1.718,1.609-2.751c0.322-1.033,0.488-2.131,0.488-3.278v-4.79c0-1.122-0.152-2.209-0.466-3.26   c-0.309-1.052-0.831-1.973-1.567-2.773c-0.735-0.801-1.717-1.436-2.94-1.905c-1.221-0.472-2.732-0.711-4.526-0.711h-8.793   L246.946-94.605z M240.625-81.162v-4.789c0-2.132,0.555-3.646,1.656-4.545c1.107-0.903,2.765-1.354,4.97-1.354h8.18   c2.149,0,3.79,0.494,4.929,1.484c1.134,0.989,1.704,2.446,1.704,4.365v4.839c0,2.132-0.595,3.646-1.789,4.545   c-1.194,0.903-2.805,1.354-4.835,1.354h-8.18c-4.419,0-6.629-1.968-6.629-5.899H240.625z"></path>		<path fill="#FFFFFF" d="M301.953-94.472h-8.397c-1.764,0-3.15,0.313-4.157,0.935c-1.002,0.622-1.751,1.496-2.249,2.614v-3.549   h-3.185v21.915h3.185v-13.216c0-0.886,0.165-1.7,0.485-2.438c0.324-0.74,0.767-1.369,1.328-1.888   c0.557-0.519,1.228-0.921,2.008-1.221c0.778-0.295,1.642-0.447,2.585-0.447h8.397c1.887,0,3.421,0.519,4.596,1.552   c1.178,1.033,1.764,2.516,1.764,4.433v13.22h3.183V-85.29c0-1.243-0.163-2.419-0.485-3.524c-0.322-1.113-0.865-2.084-1.612-2.927   c-0.749-0.843-1.729-1.51-2.94-1.997c-1.213-0.489-2.708-0.733-4.509-0.733H301.953z"></path>		<path fill="#FFFFFF" d="M330.396-77.969c0,0.709,0.104,1.394,0.311,2.04c0.206,0.648,0.586,1.229,1.127,1.73   c0.548,0.501,1.288,0.903,2.232,1.196c0.943,0.293,2.148,0.445,3.627,0.445h12.42c2.737,0,4.728-0.494,5.966-1.484   c1.232-0.989,1.852-2.283,1.852-3.878v-1.239c0-2.039-0.648-3.506-1.945-4.392s-3.14-1.362-5.523-1.418l-12.73-0.269   c-1.328-0.031-2.351-0.236-3.075-0.621s-1.082-1.083-1.082-2.084v-0.936c0-1.954,1.389-2.925,4.157-2.925h12.417   c1.061,0,1.901,0.092,2.522,0.269c0.62,0.177,1.094,0.416,1.436,0.709c0.341,0.293,0.555,0.628,0.64,0.995   c0.09,0.371,0.13,0.747,0.13,1.132v1.108h3.185v-1.507c0-0.622-0.109-1.252-0.326-1.888c-0.22-0.635-0.636-1.221-1.239-1.753   c-0.6-0.532-1.444-0.971-2.543-1.306c-1.089-0.345-2.506-0.515-4.241-0.515h-11.664c-2.624,0-4.544,0.532-5.768,1.595   c-1.226,1.062-1.831,2.395-1.831,3.996v1.02c0,2.008,0.661,3.408,1.99,4.188c1.323,0.78,3.161,1.191,5.523,1.223l12.684,0.269   c1.323,0.029,2.346,0.309,3.072,0.841c0.723,0.532,1.082,1.288,1.082,2.261v0.935c0,1.009-0.416,1.761-1.236,2.262   c-0.827,0.5-2.001,0.751-3.535,0.751h-11.891c-0.914,0-1.666-0.076-2.252-0.222c-0.59-0.145-1.051-0.355-1.393-0.624   c-0.342-0.268-0.572-0.59-0.704-0.975c-0.137-0.385-0.202-0.832-0.202-1.333v-1.153h-3.184v1.552L330.396-77.969z"></path>	</g></g></svg>