<svg xmlns="http://www.w3.org/2000/svg" xmlns:xlink="http://www.w3.org/1999/xlink" id="DESIGNED_BY_FREEPIK" x="0px" y="0px" width="1142px" height="1505.5px" viewBox="0 0 1142 1505.5" xml:space="preserve"><g>	<g>		<path fill-rule="evenodd" clip-rule="evenodd" fill="#E4200E" d="M536.618,1289.671c123.554,0,245.635-5.358,357.488-39.455   c19.867-6.058,43.838-16.189,58.125-28.884h-43.002l-35.608-35.01c-4.624,6.415-12.97,12.169-22.729,17.15   c5.135,2.779,8.62,8.152,8.62,14.311c0,8.183-6.149,14.969-14.143,16.151v0.174h-4.899v-0.174   c-6.815-1.004-12.27-6.077-13.751-12.603h-25.974c-1.603,0.4-3.113,0.762-4.504,1.091   c-57.594,13.355-126.15,21.248-196.617,23.612l10.228,10.05h143.45c1.66-7.278,8.293-12.762,16.194-12.762   c9.161,0,16.604,7.327,16.604,16.324c0,8.187-6.15,14.973-14.144,16.15v0.175h-4.899v-0.175   c-6.82-1.004-12.27-6.071-13.756-12.598H606.859l-17.159-16.875c-62.822,1.646-126.817-1.081-185.608-8.225l-35.931,36.675   l-41.603,0.063C390.692,1284.737,471.817,1289.671,536.618,1289.671L536.618,1289.671z M842.604,1207.383l0.309-0.011   c5.831,0,10.586,4.668,10.586,10.411c0,5.73-4.755,10.394-10.586,10.394s-10.58-4.663-10.58-10.394   c0-2.939,1.24-5.594,3.239-7.485C837.936,1209.371,840.291,1208.396,842.604,1207.383L842.604,1207.383z M826.897,1213.517   c-0.068,0.237-0.126,0.469-0.179,0.705h-1.864L826.897,1213.517L826.897,1213.517z M958.927,1214.222h-46.7l-35.265-34.666   c0.279-1.048,0.458-2.104,0.521-3.182c0.907-15.87-18.718-27.214-39.691-35.327l-9.118-8.964   c14.462,2.896,27.977,5.608,44.113,9.987c23.971,6.506,46.343,14.272,64.999,25.007   C967.364,1184.103,969.497,1200.354,958.927,1214.222L958.927,1214.222z M815.795,1129.477c-2.298-0.474-4.639-0.966-7.037-1.478   c-1.704-0.366-3.645-0.888-5.44-0.888l-5.078,1.144c6.015,1.897,14.48,4.263,23.652,7.217L815.795,1129.477L815.795,1129.477z    M769.496,1249.241c5.831,0,10.585,4.667,10.585,10.406c0,5.734-4.754,10.397-10.585,10.397c-5.827,0-10.581-4.663-10.581-10.397   C758.915,1253.908,763.669,1249.241,769.496,1249.241L769.496,1249.241z M395.157,1236.971l-30.081,30.689l-78.645,0.125   c-8.456-1.762-17.092-3.773-29.159-6.637c-2.486-0.589-6.328-0.869-9.195-1.583c-6.193-1.55-12.063-4.32-17.338-5.541   c-25.215-5.836-58.101-17.121-76.226-35.097c-8.785-8.717-13.057-19.838-5.884-31.886c5.305-8.911,14.504-14.949,23.936-20.384   c27.484-15.848,67.924-26.621,101.62-33.301c6.391-1.274,12.526-2.438,19.139-3.741c11.85-2.331,14.345-3.789,18.038-1.361   c-13.361,4.195-39.083,10.788-57.609,21.031c-3.779,0.888-7.062,3.05-9.34,6.004c-8.152,6.223-13.216,13.555-12.192,22.194   c2.766,23.353,57.898,39.494,81.149,44.929C338.75,1228.359,366.278,1233.206,395.157,1236.971z"></path>		<path fill-rule="evenodd" clip-rule="evenodd" fill="#E4200E" d="M550.467,643.43l0.082-0.271l-64.318,0.464   c-15.962,12.578-35.729,22.049-54.249,29.482l14.215,13.979c2.727-1.699,5.84-2.549,8.949-2.549c3.123,0,6.241,0.859,8.959,2.592   c0.246,0,0.521,0.15,0.946,0.498l0.029-0.029l1.366,1.332l0.362,0.367c0.13,0.115,0.261,0.246,0.376,0.366l1.371,1.333   l-0.048,0.028c0.367,0.41,0.498,0.686,0.498,0.931c1.771,2.689,2.659,5.788,2.659,8.887c0,4.171-1.612,8.355-4.855,11.537   c-3.234,3.186-7.487,4.778-11.739,4.778s-8.505-1.593-11.739-4.778c-5.599-5.508-6.352-13.979-2.269-20.293l-16.397-16.121   c-14.351,5.444-38.475,13.805-50.151,14.533c-4.276-2.969-8.239-6.897-11.662-10.131c-4.402-4.152-6.637-6.218-10.798-10.557   c-4.368-4.562-8.553-9.215-12.545-13.949H230.783l-7.188,7.582c7.395,15.379,15.562,30.67,24.385,45.899h90.987   c1.655-7.299,8.288-12.767,16.208-12.767c9.142,0,16.604,7.326,16.604,16.328c0,8.182-6.168,14.969-14.162,16.151v0.173h-4.899   v-0.173c-6.801-1.004-12.256-6.077-13.737-12.603h-86.831c8.539,14.383,17.662,28.729,27.272,43.055h82.313   c32.866-10.967,66.987-24.004,79.18-29.994c29.545-14.51,60.495-29.541,84.21-52.023l-8.747-8.602h-16.281   c-1.289-2.38-2.602-4.76-3.934-7.105h23.208l10.836,10.648c4.045-4.229,7.839-8.708,11.334-13.477   C546.422,652.272,546.837,649.512,550.467,643.43L550.467,643.43z M609.138,116.986c-5.831,0-10.586,4.668-10.586,10.412   c0,5.725,4.755,10.393,10.586,10.393c5.826,0,10.58-4.668,10.58-10.393C619.718,121.654,614.964,116.986,609.138,116.986   L609.138,116.986z M898.745,368.317c-5.831,0-10.571,4.667-10.571,10.396c0,5.739,4.74,10.407,10.571,10.407   c5.84,0,10.58-4.668,10.58-10.407C909.325,372.984,904.585,368.317,898.745,368.317L898.745,368.317z M552.77,636.029   c3.494-11.473,3.77-14.929,1.467-31.684c-4.585-22.295-25.905-39.836-40.792-50.595c-0.545,6.999,4.523,16.903,5.01,27.537   c1.047,22.822-8.857,40.797-23.932,55.167L552.77,636.029L552.77,636.029z M355.176,702.491c5.831,0,10.571,4.667,10.571,10.411   c0,5.73-4.74,10.393-10.571,10.393c-5.845,0-10.581-4.662-10.581-10.393C344.596,707.158,349.331,702.491,355.176,702.491   L355.176,702.491z M333.702,648.748H227.646l-7.337,7.738c-9.151-19.693-17.024-39.557-23.391-59.656l104.15-0.158   C309.77,614.748,320.63,632.217,333.702,648.748L333.702,648.748z M297.766,589.562c-14.229-31.848-21.899-65.433-23.29-99.009   h-33.363c-1.481,6.526-6.945,11.6-13.751,12.589v0.188h-4.899v-0.188c-7.993-1.159-14.143-7.954-14.143-16.132   c0-9.002,7.443-16.329,16.6-16.329c7.911,0,14.539,5.469,16.194,12.763h33.161c-0.854-56.596,16.092-112.81,49.48-160.334h-85.769   l-39.102,36.321c-27.668,82.516-25.694,158.046-4.146,230.295L297.766,589.562L297.766,589.562z M328.923,315.999h-93.82   l-31.051,28.845c0.439-1.168,0.878-2.341,1.327-3.509c11.512-30.022,35.458-68.773,54.254-90.64   c10.262-11.941,22.835-26.354,34.483-37.205l28.281-23.072l163.592-0.236l58.019-59.24h48.935   c1.481,6.525,6.932,11.604,13.732,12.588v0.193h4.914v-0.193c7.998-1.158,14.147-7.949,14.147-16.131   c0-7.057-4.571-13.081-10.962-15.359c5.551,0.743,11.228,1.583,17.087,2.539c8.727,1.371,17.396,3.152,25.954,5.281l90.605,89.064   h75.82c19.249,17.71,36.688,37.322,51.628,57.777H750.048l-61.87-60.818l-72.891,0.531c-32.712-6.169-66.524-6.787-99.975-1.482   c-2.403-6.105-8.438-10.449-15.479-10.449c-0.043,0-0.083,0-0.126,0c-4.421,0.029-8.577,1.762-11.69,4.875   c-3.123,3.108-4.778,7.25-4.778,11.565c0,0.327,0.009,0.642,0.033,0.96c-24.274,6.715-48.104,16.678-70.916,30.076   c-7.873,4.624-15.427,9.538-22.652,14.732h-44.209c0.435,2.365,0.849,4.729,1.241,7.104h33.489   C360.428,279.281,343.297,296.875,328.923,315.999L328.923,315.999z M489.262,210.295c6.623-1.685,13.27-3.128,19.935-4.324   c-1.766-3.293-5.276-5.532-9.301-5.557h-0.28c-2.761,0.043-5.362,1.148-7.313,3.094   C490.469,205.353,489.392,207.736,489.262,210.295L489.262,210.295z M643.857,213.307c27.759,8.178,54.354,20.447,78.852,36.568   l-37.51-36.872L643.857,213.307L643.857,213.307z M754.243,273.816h126.695c1.153,1.651,2.288,3.311,3.408,4.977   c10.474,15.596,21.035,34.044,28.985,52.188c14.07,32.1,33.957,97.306,30.732,131.885c-10.329-4.006-21.45-11.604-46.812-21.064   c-14.992-5.589-36.906-10.165-53.153-12.959c-2.302-15.432-6.917-31.273-12.97-46.565h51.421   c1.655,7.294,8.283,12.763,16.194,12.763c9.156,0,16.613-7.328,16.613-16.325c0-8.187-6.164-14.973-14.156-16.136v-0.188h-4.899   v0.188c-6.806,0.989-12.256,6.058-13.737,12.588h-54.36c-10.769-25.133-25.134-48.359-39.045-65.365   C778.416,296.677,766.716,284.672,754.243,273.816L754.243,273.816z M816.297,201.818c-18.849-16.401-39.28-30.939-60.693-42.698   c-24.496-13.447-53.168-26.413-83.64-35.409l79.455,78.107H816.297L816.297,201.818z M607.607,111.142   c-7.222,0.651-13.115,5.874-14.664,12.694h-52l-58.033,59.235l-151.791,0.222l2.592-2.109   c23.164-16.338,48.037-30.462,74.189-41.814c0.806,2.047,2.046,3.963,3.727,5.613c3.233,3.181,7.486,4.773,11.738,4.773   c4.248,0,8.505-1.593,11.739-4.773c3.239-3.181,4.855-7.371,4.855-11.541c0-2.027-0.381-4.055-1.144-5.966   c36.366-12.241,74.739-19.066,114.088-19.095C571.604,108.009,589.023,108.94,607.607,111.142L607.607,111.142z M455.078,690.443   c2.819,0,5.479,1.076,7.472,3.041c4.127,4.055,4.127,10.652,0,14.713c-1.993,1.959-4.653,3.03-7.472,3.03   c-2.833,0-5.483-1.071-7.477-3.021l-0.009-0.009c-1.994-1.965-3.099-4.586-3.099-7.357c0-2.794,1.105-5.396,3.099-7.355   C449.581,691.52,452.245,690.443,455.078,690.443L455.078,690.443z M224.918,476.598c5.831,0,10.585,4.668,10.585,10.412   c0,5.725-4.755,10.388-10.585,10.388c-5.826,0-10.581-4.663-10.581-10.388C214.338,481.266,219.092,476.598,224.918,476.598   L224.918,476.598z M433.13,129.436c-6.642,2.351-13.207,4.88-19.699,7.578c0.521,1.41,1.352,2.693,2.452,3.784l0.015,0.01   c1.993,1.95,4.639,3.026,7.472,3.026c2.824,0,5.483-1.076,7.472-3.036C433.965,137.729,434.728,133.209,433.13,129.436   L433.13,129.436z M284.236,766.616c2.452,3.596,4.933,7.192,7.443,10.788c7.125,0.671,25.867-4.016,47.921-10.788H284.236z"></path>		<path fill-rule="evenodd" clip-rule="evenodd" fill="#E4200E" d="M395.616,1176.316c-6.854-1.67-14.515-4.306-21.296-7.607   h-73.658c4.383,14.51,33.465,25.062,49.476,30.053c20.123,6.265,43.457,11.014,68.194,14.558l4.779-4.876h52   c1.656-7.298,8.288-12.781,16.194-12.781c9.157,0,16.6,7.327,16.6,16.325c0,3.358-1.033,6.482-2.809,9.079   c18.805,0.845,37.263,1.211,54.645,1.207l5.479-0.016l-27.634-27.16c-12.12-0.318-23.246-0.971-32.866-1.955   c-20.08-2.056-37.684-3.847-56.547-5.918C428.497,1185.063,412.906,1180.68,395.616,1176.316L395.616,1176.316z M575.354,1222.172   L548,1195.286c30.829,0.31,66.75-1.391,100.514-5.175l26.886,26.433C641.97,1220.115,607.158,1221.771,575.354,1222.172   L575.354,1222.172z M694.857,1214.222c26.853-3.563,52.193-8.5,73.596-15.176c21.952-6.849,74.961-25.702,38.34-51.816   c-14.374-10.247-67.653-27.388-89.567-27.219c3.128,2.351,15.205,5.169,23.024,8.472c35.627,15.05,28.357,32.089-4.064,43.876   c-20.172,7.337-48.191,12.873-78.548,16.672l25.626,25.191H694.857L694.857,1214.222z M435.462,1215.549h39.647   c0.309,1.361,0.787,2.655,1.419,3.861C462.738,1218.421,448.962,1217.152,435.462,1215.549L435.462,1215.549z M484.493,1219.951   c-2.308-1.911-3.775-4.77-3.775-7.964c0-5.726,4.754-10.393,10.585-10.393s10.585,4.667,10.585,10.393   c0,3.63-1.902,6.829-4.769,8.692C492.921,1220.463,488.712,1220.217,484.493,1219.951L484.493,1219.951z M362.793,1161.594   c-2.109-1.718-3.861-3.523-5.116-5.396c-9.982-14.833,15.688-25.931,25.042-28.865c2.896-1.23,5.29-2.317,8.876-3.379   c4.219-1.235,7.771-1.718,10.692-3.968c-22.223-0.063-74.517,16.817-88.906,26.751c-7.602,5.252-11.546,10.214-12.815,14.856   H362.793z"></path>		<path fill-rule="evenodd" clip-rule="evenodd" fill="#E4200E" d="M637.229,630.156c-0.348,1.747-0.768,3.504-1.24,5.261   l4.219-0.034l61.871,60.824h149.266c1.656-7.299,8.283-12.763,16.194-12.763c1.598,0,3.147,0.228,4.614,0.642l0.049-0.342   c15.981-109.995-49.905-200.605-125.219-239.5c-16.942-8.756-33.88-15.408-50.875-20.123h-7.478   c0.894-0.41,1.776-0.846,2.65-1.294c-26.282-6.714-52.729-8.81-79.571-6.782c0.097,0.318,0.179,0.638,0.251,0.966h7.134   c3.741,2.761,7.767,5.146,12.034,7.11h-19.153c-1.656,7.293-8.283,12.776-16.204,12.776c-9.146,0-16.604-7.327-16.604-16.325   v-0.125c-12.14,2.346-24.375,5.474-36.732,9.335L650.557,536.07h143.45c1.66-7.289,8.287-12.763,16.199-12.763   c9.156,0,16.6,7.323,16.6,16.325c0,8.182-6.15,14.973-14.143,16.15v0.174h-4.9v-0.174c-6.82-1.004-12.27-6.082-13.756-12.607   H647.564L534.746,432.273c-4.918,1.65-9.861,3.417-14.823,5.295c-13.004,4.923-21.61,8.9-32.62,14.485l-22.363,12.555   c-0.724,0.526-1.322,0.927-1.815,1.235l5.845,5.749c30.525,2.139,125.489,8.728,160.527,84.403   c3.756,8.109,6.207,15.185,7.719,21.943h83.379c1.66-7.289,8.287-12.768,16.194-12.768c0.356,0,0.71,0.014,1.062,0.033   c-1.463-4.33-3.133-8.582-5.024-12.742l14.264-3.563c5.676,12.26,9.581,24.578,12.163,36.955l-7.641,2.986   c-2.385,4.64-6.951,8.009-12.366,8.805v0.179h-4.899v-0.179c-6.816-0.999-12.271-6.076-13.752-12.604h-82.101   C640.319,598.424,638.861,611.51,637.229,630.156L637.229,630.156z M810.206,529.221c5.825,0,10.58,4.668,10.58,10.412   c0,5.725-4.755,10.392-10.58,10.392c-5.831,0-10.586-4.667-10.586-10.392C799.62,533.889,804.375,529.221,810.206,529.221   L810.206,529.221z M605.546,416.586c0.517,1.227,0.807,2.577,0.807,3.986c0,5.725-4.74,10.393-10.581,10.393   c-5.83,0-10.57-4.668-10.57-10.393c0-0.42,0.024-0.834,0.072-1.244C592.06,418.159,598.813,417.247,605.546,416.586   L605.546,416.586z M633.745,642.551l3.479-0.029l61.856,60.795h152.264c1.482,6.526,6.946,11.6,13.752,12.588v0.189h0.768   c-3.476,12.211-8.515,23.506-17.039,36.124c-5.044,7.462-10.093,14.853-15.142,22.165l-53.632-52.729h-10.232l59.718,58.709   c-20.186,29.053-40.439,56.98-60.992,84.291l-80.647-79.285c9.692-12.386,18.936-25.337,27.673-38.943l-15.943-7.443   c-8.693,12.551-17.937,24.559-27.687,36.062h-4.779l2.597,2.554l-0.704,0.814l4.204,2.622l90.933,89.394   c-8.133,10.754-16.314,21.426-24.559,32.036l-18.747-18.429L548.709,885.3c-1.689-7.245-8.302-12.661-16.169-12.661   c-0.039,0-0.083,0-0.125,0c-4.421,0.029-8.578,1.757-11.691,4.865c-3.123,3.113-4.779,7.26-4.779,11.574   c0.058,7.806,5.696,14.307,13.153,15.861l0.043,0.377l7.183-0.059v-0.396c6.222-1.438,11.063-6.323,12.415-12.473l169.167-1.235   l17.294,17c-6.41,8.216-12.858,16.397-19.351,24.569c-6.642,1.11-11.937,6.11-13.395,12.525h-92.251   c-1.66-7.298-8.288-12.763-16.194-12.763c-9.161,0-16.619,7.313-16.619,16.311c0,8.187,6.164,14.987,14.163,16.15v0.174h4.898   v-0.174c6.801-0.989,12.266-6.063,13.752-12.588h89.92c-11.198,13.892-22.537,27.773-34.049,41.723H502.521l-24.627-25.225   c20.461-14.182,40.696-28.691,60.712-43.51l-17.039-19.732c-21.658,13.984-43.669,27.417-65.906,40.479l-10.986-11.251h-37.22   c-16.493-21.929-32.852-43.988-48.669-66.278l159.915-0.231l58.015-59.235h48.935c1.481,6.525,6.931,11.599,13.737,12.588v0.188   h4.913v-0.188c7.993-1.163,14.144-7.954,14.144-16.136c0-9.002-7.443-16.325-16.6-16.325c-7.907,0-14.539,5.465-16.194,12.763h-52   l-58.034,59.24l-161.845,0.231c-1.931-2.751-3.852-5.502-5.768-8.258c-3.471-4.417-10.417-12.348-13.322-18.014   c1.655-1.285-0.179-0.739,5.01-3.168c2.998-1.404,0.58-0.486,4.132-1.442l28.484-6.738c20.258-4.556,44.667-12.154,69.26-21.489   l0.498,0.492c-4.083,6.309-3.331,14.785,2.269,20.292c3.234,3.187,7.486,4.779,11.739,4.779c4.253,0,8.505-1.593,11.739-4.779   c3.243-3.186,4.855-7.366,4.855-11.54c0-3.095-0.888-6.193-2.659-8.887c0-0.242-0.13-0.521-0.497-0.927l0.048-0.029l-1.371-1.337   c-0.115-0.116-0.246-0.246-0.376-0.361l-0.362-0.368l-1.371-1.332l-0.029,0.029c-0.42-0.353-0.695-0.497-0.941-0.497   c-1.926-1.23-4.06-2.022-6.246-2.38c20.876-8.597,41.212-18.235,58.545-28.102h46.506c1.284,5.647,5.542,10.204,11.073,11.979   c1.342,0.59,2.78,1.004,4.281,1.227v0.174h4.899v-0.174c4.055-0.599,7.632-2.631,10.175-5.565h-2.162   c2.81-2.921,4.532-6.864,4.532-11.194c0-8.997-7.462-16.323-16.604-16.323c-7.921,0-14.548,5.468-16.209,12.762h-34.608   c3.828-2.408,7.443-4.827,10.808-7.231c6.564-4.691,22.513-15.803,34.879-26.576l2.162,2.124H697.45l36.24,35.646   c-4.069,6.309-3.331,14.784,2.268,20.278c3.244,3.186,7.497,4.777,11.749,4.777c4.248,0,8.505-1.592,11.744-4.777   c3.229-3.167,4.855-7.357,4.855-11.537c0-3.417-1.091-6.834-3.258-9.711l0.135-0.136l-3.476-3.397l-0.13,0.125   c-2.905-2.119-6.361-3.176-9.817-3.176c-3.109,0-6.223,0.854-8.939,2.553l-38.374-37.75H580.446   c4.711-4.519,8.385-8.785,9.982-12.242c4.107-1.148,12.076-12.235,15.615-16.392c5.044-5.917,8.514-11.386,12.458-18.506   C623.459,665.416,629.608,654.203,633.745,642.551L633.745,642.551z M867.419,710.166c-5.773-0.068-10.451-4.711-10.451-10.397   c0-5.743,4.74-10.406,10.571-10.406c1.308,0,2.563,0.236,3.722,0.666C870.136,697.244,868.938,703.861,867.419,710.166   L867.419,710.166z M532.327,878.565c-2.761,0.049-5.362,1.149-7.313,3.099c-1.965,1.961-3.056,4.548-3.056,7.299v0.068   c0.034,2.779,1.154,5.387,3.171,7.346c1.994,1.931,4.629,2.992,7.433,2.992c0.015,0,0.034,0,0.054,0   c2.818-0.028,5.479-1.134,7.457-3.108c1.96-1.964,3.056-4.552,3.056-7.298v-0.072c-0.043-5.701-4.754-10.296-10.527-10.325   H532.327L532.327,878.565z M594.01,938.399c-5.845,0-10.585,4.668-10.585,10.397c0,5.744,4.74,10.406,10.585,10.406   c5.826,0,10.566-4.662,10.566-10.406C604.576,943.067,599.836,938.399,594.01,938.399L594.01,938.399z M641.845,795.138   c-5.831,0-10.581,4.673-10.581,10.412c0,5.729,4.75,10.393,10.581,10.393c5.825,0,10.58-4.663,10.58-10.393   C652.425,799.811,647.67,795.138,641.845,795.138L641.845,795.138z M412.805,941.952c11.893,15.765,23.83,31.481,35.665,47.179   l48.583,64.438h119.248c14.948-17.671,29.555-35.082,43.891-52.382H499.437l-27.533-28.193c-2.712,1.868-5.43,3.73-8.147,5.584   L440.68,954.82c2.872-1.66,5.739-3.325,8.606-4.996l-7.689-7.872H412.805L412.805,941.952z M747.702,762.6   c-2.707,0-5.42,1.01-7.481,3.032c-1.993,1.964-3.099,4.58-3.099,7.36c0,2.785,1.105,5.387,3.099,7.352   c2.062,2.027,4.774,3.041,7.481,3.041c2.713,0,5.421-1.014,7.477-3.041c2.004-1.965,3.095-4.566,3.095-7.352   c0-2.78-1.091-5.396-3.095-7.36C753.123,763.609,750.415,762.6,747.702,762.6L747.702,762.6z M502.41,1060.674l26.002,34.493   h33.745l11.271,11.072l37.041-45.565H502.41L502.41,1060.674z M533.771,1102.271h25.395l9.721,9.558l-14.476,17.812   L533.771,1102.271L533.771,1102.271z M580.108,753.443c-5.84,0-10.58,4.673-10.58,10.406c0,5.73,4.74,10.398,10.58,10.398   c5.831,0,10.571-4.668,10.571-10.398C590.68,758.116,585.939,753.443,580.108,753.443L580.108,753.443z M456.082,801.201   c-2.838,0-5.498,1.071-7.486,3.035c-1.994,1.965-3.099,4.566-3.099,7.357c0,2.775,1.105,5.391,3.099,7.355l0.01,0.015   c1.993,1.95,4.639,3.021,7.477,3.021c2.819,0,5.479-1.071,7.472-3.036c4.127-4.055,4.127-10.658,0-14.713   C461.561,802.272,458.901,801.201,456.082,801.201L456.082,801.201z M634.807,466.939l-1.747,10.847   c-11.324-2.776-22.759-5.306-34.305-7.583l0.902-10.088C611.416,461.881,623.131,464.15,634.807,466.939L634.807,466.939z    M704.888,514.088c-7.892-7.553-16.561-14.229-26.161-19.818l7.022-7.598c9.065,5.185,17.725,11.17,26.022,17.859L704.888,514.088   L704.888,514.088z M739.83,571.529c1.67,5.771,2.992,11.68,4.025,17.694c-1.878,1.661-4.354,2.669-7.066,2.669   c-5.826,0-10.581-4.667-10.581-10.396c0-5.739,4.755-10.406,10.581-10.406C737.846,571.09,738.869,571.239,739.83,571.529   L739.83,571.529z M730.002,686.91c5.629-12.077,10.238-25.143,13.255-39.773l15.108,3.432   c-3.364,13.984-7.854,27.248-13.255,39.938L730.002,686.91L730.002,686.91z M590.921,883.981   c19.467-16.247,38.189-33.565,56.093-52.044l-16.276-12.598c-17.83,17.406-37.147,33.972-57.479,49.959L590.921,883.981z"></path>	</g>	<path fill-rule="evenodd" clip-rule="evenodd" fill="#E4200E" d="M404.613,906.957l19.467,27.886h20.596l10.986,11.251  c22.237-13.062,44.248-26.494,65.906-40.479l17.039,19.732c-20.017,14.818-40.251,29.328-60.712,43.51l24.627,25.225h0.125  l112.973-102.18l-66.881,0.487c-1.352,6.149-6.193,11.034-12.415,12.473v0.396l-7.183,0.059l-0.043-0.377  c-7.458-1.555-13.095-8.056-13.153-15.861c0-4.314,1.656-8.461,4.779-11.574c3.113-3.108,7.27-4.836,11.691-4.865  c0.043,0,0.086,0,0.125,0c7.868,0,14.48,5.416,16.169,12.661l74.822-0.551l80.845-73.122l-31.118-30.593l-4.204-2.622l0.704-0.814  l-2.597-2.554h4.779c9.75-11.503,18.993-23.511,27.687-36.062l15.943,7.443c-8.737,13.606-17.98,26.558-27.673,38.943  l21.808,21.439l25.501-23.066c-4.904-5.494-5.396-13.473-1.516-19.491l-36.24-35.646h-55.703l-32.827,54.872l-30.631,18.511h47.361  c1.655-7.298,8.287-12.763,16.194-12.763c9.156,0,16.6,7.323,16.6,16.325c0,8.182-6.15,14.973-14.144,16.136v0.188h-4.913v-0.188  c-6.807-0.989-12.256-6.063-13.737-12.588h-48.935l-58.015,59.235l-50.306,0.072L404.613,906.957L404.613,906.957z   M532.327,878.565h0.275c5.773,0.029,10.484,4.624,10.527,10.325v0.072c0,2.746-1.096,5.334-3.056,7.298  c-1.979,1.975-4.639,3.08-7.457,3.108c-0.02,0-0.039,0-0.054,0c-2.804,0-5.439-1.062-7.433-2.992  c-2.018-1.959-3.137-4.566-3.171-7.346v-0.068c0-2.751,1.091-5.338,3.056-7.299C526.965,879.715,529.566,878.614,532.327,878.565  L532.327,878.565z M566.917,808.861l-51.3,52.366l-35.429,0.054L566.917,808.861L566.917,808.861z M641.845,795.138  c5.825,0,10.58,4.673,10.58,10.412c0,5.729-4.755,10.393-10.58,10.393c-5.831,0-10.581-4.663-10.581-10.393  C631.264,799.811,636.014,795.138,641.845,795.138L641.845,795.138z M429.037,941.952h12.56l7.689,7.872  c-2.867,1.671-5.734,3.336-8.606,4.996l23.077,23.758c2.718-1.854,5.435-3.716,8.147-5.584l25.355,25.964l-17.434,15.765  L429.037,941.952L429.037,941.952z M739.642,779.73l15.562-14.074l-0.024-0.024c-2.056-2.022-4.764-3.032-7.477-3.032  c-2.707,0-5.42,1.01-7.481,3.032c-1.993,1.964-3.099,4.58-3.099,7.36C737.122,775.498,738.015,777.854,739.642,779.73  L739.642,779.73z M759.644,761.64l-1.936-1.892l-0.13,0.125c-2.905-2.119-6.361-3.176-9.817-3.176  c-3.109,0-6.223,0.854-8.939,2.553l-38.374-37.75H646l26.505-44.301l26.576,26.117h125.045l-32.668,29.551l-11.406-11.213h-10.232  l16.305,16.034L759.644,761.64L759.644,761.64z M831.989,696.207l0.328-0.295l-30.785-142.374  c-3.761-2.282-6.531-5.999-7.525-10.362H669.512l5.739,34.764h45.344c1.66-7.289,8.287-12.768,16.194-12.768  c0.356,0,0.71,0.014,1.062,0.033c-1.463-4.33-3.133-8.582-5.024-12.742l14.264-3.563c5.676,12.26,9.581,24.578,12.163,36.955  l-7.641,2.986c-2.385,4.64-6.951,8.009-12.366,8.805v0.179h-4.899v-0.179c-6.816-0.999-12.271-6.076-13.752-12.604h-44.171  l11.077,67.09l-11.207,18.732l25.785,25.342H831.989L831.989,696.207z M796.526,530.403l-0.136-0.632L667.296,434.35  l-105.926,8.533l-2.62,2.935l54.813,53.882l53.732,30.072l1.043,6.299h125.668C794.479,534.004,795.344,532.093,796.526,530.403  L796.526,530.403z M553.971,451.17l35.854,35.241l-44.89-25.118L553.971,451.17L553.971,451.17z M634.807,466.939l-1.747,10.847  c-11.324-2.776-22.759-5.306-34.305-7.583l0.902-10.088C611.416,461.881,623.131,464.15,634.807,466.939L634.807,466.939z   M704.888,514.088c-7.892-7.553-16.561-14.229-26.161-19.818l7.022-7.598c9.065,5.185,17.725,11.17,26.022,17.859L704.888,514.088  L704.888,514.088z M739.83,571.529c1.67,5.771,2.992,11.68,4.025,17.694c-1.878,1.661-4.354,2.669-7.066,2.669  c-5.826,0-10.581-4.667-10.581-10.396c0-5.739,4.755-10.406,10.581-10.406C737.846,571.09,738.869,571.239,739.83,571.529  L739.83,571.529z M730.002,686.91l15.108,3.596c5.401-12.689,9.891-25.953,13.255-39.938l-15.108-3.432  C740.24,661.768,735.631,674.833,730.002,686.91L730.002,686.91z M590.921,883.981l-17.662-14.683  c20.331-15.987,39.648-32.553,57.479-49.959l16.276,12.598C629.11,850.416,610.388,867.734,590.921,883.981z"></path>	<path fill-rule="evenodd" clip-rule="evenodd" fill="#E4200E" d="M404.613,906.957l19.467,27.886h20.596l57.845,59.239h0.125  l112.973-102.18l-66.881,0.487c-1.352,6.149-6.193,11.034-12.415,12.473v0.396l-7.183,0.059l-0.043-0.377  c-7.458-1.555-13.095-8.056-13.153-15.861c0-4.314,1.656-8.461,4.779-11.574c3.113-3.108,7.27-4.836,11.691-4.865  c0.043,0,0.086,0,0.125,0c7.868,0,14.48,5.416,16.169,12.661l74.822-0.551l80.845-73.122l-37.215-36.583h10.233l32.311,31.765  l25.501-23.066c-4.904-5.494-5.396-13.473-1.516-19.491l-36.24-35.646h-55.703l-32.827,54.872l-30.631,18.511h47.361  c1.655-7.298,8.287-12.763,16.194-12.763c9.156,0,16.6,7.323,16.6,16.325c0,8.182-6.15,14.973-14.144,16.136v0.188h-4.913v-0.188  c-6.807-0.989-12.256-6.063-13.737-12.588h-48.935l-58.015,59.235l-50.306,0.072L404.613,906.957L404.613,906.957z M736.789,571.09  c-5.826,0-10.581,4.667-10.581,10.406c0,5.729,4.755,10.396,10.581,10.396c5.831,0,10.585-4.667,10.585-10.396  C747.374,575.757,742.62,571.09,736.789,571.09L736.789,571.09z M532.327,878.565h0.275c5.773,0.029,10.484,4.624,10.527,10.325  v0.072c0,2.746-1.096,5.334-3.056,7.298c-1.979,1.975-4.639,3.08-7.457,3.108c-0.02,0-0.039,0-0.054,0  c-2.804,0-5.439-1.062-7.433-2.992c-2.018-1.959-3.137-4.566-3.171-7.346v-0.068c0-2.751,1.091-5.338,3.056-7.299  C526.965,879.715,529.566,878.614,532.327,878.565L532.327,878.565z M566.917,808.861l-51.3,52.366l-35.429,0.054L566.917,808.861  L566.917,808.861z M641.845,795.138c5.825,0,10.58,4.673,10.58,10.412c0,5.729-4.755,10.393-10.58,10.393  c-5.831,0-10.581-4.663-10.581-10.393C631.264,799.811,636.014,795.138,641.845,795.138L641.845,795.138z M429.037,941.952h12.56  l55.663,57.006l-17.434,15.765L429.037,941.952L429.037,941.952z M739.642,779.73l15.562-14.074l-0.024-0.024  c-2.056-2.022-4.764-3.032-7.477-3.032c-2.707,0-5.42,1.01-7.481,3.032c-1.993,1.964-3.099,4.58-3.099,7.36  C737.122,775.498,738.015,777.854,739.642,779.73L739.642,779.73z M759.644,761.64l-1.936-1.892l-0.13,0.125  c-2.905-2.119-6.361-3.176-9.817-3.176c-3.109,0-6.223,0.854-8.939,2.553l-38.374-37.75H646l26.505-44.301l26.576,26.117h125.045  l-32.668,29.551l-11.406-11.213h-10.232l16.305,16.034L759.644,761.64L759.644,761.64z M831.989,696.207h-129.91l-25.785-25.342  l11.207-18.732l-11.077-67.09h44.171c1.481,6.527,6.936,11.604,13.752,12.604v0.179h4.899v-0.179  c7.998-1.173,14.147-7.964,14.147-16.15c0-9.002-7.443-16.324-16.604-16.324c-7.907,0-14.534,5.479-16.194,12.768h-45.344  l-5.739-34.764h124.495c0.994,4.363,3.765,8.08,7.525,10.362l30.785,142.374L831.989,696.207L831.989,696.207z M796.526,530.403  l-0.136-0.632L667.296,434.35l-105.926,8.533l-2.62,2.935l54.813,53.882l53.732,30.072l1.043,6.299h125.668  C794.479,534.004,795.344,532.093,796.526,530.403L796.526,530.403z M553.971,451.17l35.854,35.241l-44.89-25.118L553.971,451.17z"></path>	<g>		<path fill-rule="evenodd" clip-rule="evenodd" fill="#E4200E" d="M536.618,1289.671c123.554,0,245.635-5.358,357.488-39.455   c19.867-6.058,43.838-16.189,58.125-28.884h-43.002l-35.608-35.01c-4.624,6.415-12.97,12.169-22.729,17.15   c5.135,2.779,8.62,8.152,8.62,14.311c0,8.183-6.149,14.969-14.143,16.151v0.174h-4.899v-0.174   c-6.815-1.004-12.27-6.077-13.751-12.603h-25.974c-1.603,0.4-3.113,0.762-4.504,1.091   c-57.594,13.355-126.15,21.248-196.617,23.612l10.228,10.05h143.45c1.66-7.278,8.293-12.762,16.194-12.762   c9.161,0,16.604,7.327,16.604,16.324c0,8.187-6.15,14.973-14.144,16.15v0.175h-4.899v-0.175   c-6.82-1.004-12.27-6.071-13.756-12.598H606.859l-17.159-16.875c-62.822,1.646-126.817-1.081-185.608-8.225l-35.931,36.675   l-41.603,0.063C390.692,1284.737,471.817,1289.671,536.618,1289.671L536.618,1289.671z M842.604,1207.383l0.309-0.011   c5.831,0,10.586,4.668,10.586,10.411c0,5.73-4.755,10.394-10.586,10.394s-10.58-4.663-10.58-10.394   c0-2.939,1.24-5.594,3.239-7.485C837.936,1209.371,840.291,1208.396,842.604,1207.383L842.604,1207.383z M826.897,1213.517   c-0.068,0.237-0.126,0.469-0.179,0.705h-1.864L826.897,1213.517L826.897,1213.517z M958.927,1214.222h-46.7l-35.265-34.666   c0.279-1.048,0.458-2.104,0.521-3.182c0.907-15.87-18.718-27.214-39.691-35.327l-9.118-8.964   c14.462,2.896,27.977,5.608,44.113,9.987c23.971,6.506,46.343,14.272,64.999,25.007   C967.364,1184.103,969.497,1200.354,958.927,1214.222L958.927,1214.222z M815.795,1129.477c-2.298-0.474-4.639-0.966-7.037-1.478   c-1.704-0.366-3.645-0.888-5.44-0.888l-5.078,1.144c6.015,1.897,14.48,4.263,23.652,7.217L815.795,1129.477L815.795,1129.477z    M769.496,1249.241c5.831,0,10.585,4.667,10.585,10.406c0,5.734-4.754,10.397-10.585,10.397c-5.827,0-10.581-4.663-10.581-10.397   C758.915,1253.908,763.669,1249.241,769.496,1249.241L769.496,1249.241z M395.157,1236.971l-30.081,30.689l-78.645,0.125   c-8.456-1.762-17.092-3.773-29.159-6.637c-2.486-0.589-6.328-0.869-9.195-1.583c-6.193-1.55-12.063-4.32-17.338-5.541   c-25.215-5.836-58.101-17.121-76.226-35.097c-8.785-8.717-13.057-19.838-5.884-31.886c5.305-8.911,14.504-14.949,23.936-20.384   c27.484-15.848,67.924-26.621,101.62-33.301c6.391-1.274,12.526-2.438,19.139-3.741c11.85-2.331,14.345-3.789,18.038-1.361   c-13.361,4.195-39.083,10.788-57.609,21.031c-3.779,0.888-7.062,3.05-9.34,6.004c-8.152,6.223-13.216,13.555-12.192,22.194   c2.766,23.353,57.898,39.494,81.149,44.929C338.75,1228.359,366.278,1233.206,395.157,1236.971z"></path>		<path fill-rule="evenodd" clip-rule="evenodd" fill="#E4200E" d="M550.467,643.43l0.082-0.271l-64.318,0.464   c-15.962,12.578-35.729,22.049-54.249,29.482l14.215,13.979c2.727-1.699,5.84-2.549,8.949-2.549c3.123,0,6.241,0.859,8.959,2.592   c0.246,0,0.521,0.15,0.946,0.498l0.029-0.029l1.366,1.332l0.362,0.367c0.13,0.115,0.261,0.246,0.376,0.366l1.371,1.333   l-0.048,0.028c0.367,0.41,0.498,0.686,0.498,0.931c1.771,2.689,2.659,5.788,2.659,8.887c0,4.171-1.612,8.355-4.855,11.537   c-3.234,3.186-7.487,4.778-11.739,4.778s-8.505-1.593-11.739-4.778c-5.599-5.508-6.352-13.979-2.269-20.293l-16.397-16.121   c-14.351,5.444-38.475,13.805-50.151,14.533c-4.276-2.969-8.239-6.897-11.662-10.131c-4.402-4.152-6.637-6.218-10.798-10.557   c-4.368-4.562-8.553-9.215-12.545-13.949H230.783l-7.188,7.582c7.395,15.379,15.562,30.67,24.385,45.899h90.987   c1.655-7.299,8.288-12.767,16.208-12.767c9.142,0,16.604,7.326,16.604,16.328c0,8.182-6.168,14.969-14.162,16.151v0.173h-4.899   v-0.173c-6.801-1.004-12.256-6.077-13.737-12.603h-86.831c8.539,14.383,17.662,28.729,27.272,43.055h82.313   c32.866-10.967,66.987-24.004,79.18-29.994c29.545-14.51,60.495-29.541,84.21-52.023l-8.747-8.602h-16.281   c-1.289-2.38-2.602-4.76-3.934-7.105h23.208l10.836,10.648c4.045-4.229,7.839-8.708,11.334-13.477   C546.422,652.272,546.837,649.512,550.467,643.43L550.467,643.43z M609.138,116.986c-5.831,0-10.586,4.668-10.586,10.412   c0,5.725,4.755,10.393,10.586,10.393c5.826,0,10.58-4.668,10.58-10.393C619.718,121.654,614.964,116.986,609.138,116.986   L609.138,116.986z M898.745,368.317c-5.831,0-10.571,4.667-10.571,10.396c0,5.739,4.74,10.407,10.571,10.407   c5.84,0,10.58-4.668,10.58-10.407C909.325,372.984,904.585,368.317,898.745,368.317L898.745,368.317z M552.77,636.029   c3.494-11.473,3.77-14.929,1.467-31.684c-4.585-22.295-25.905-39.836-40.792-50.595c-0.545,6.999,4.523,16.903,5.01,27.537   c1.047,22.822-8.857,40.797-23.932,55.167L552.77,636.029L552.77,636.029z M355.176,702.491c5.831,0,10.571,4.667,10.571,10.411   c0,5.73-4.74,10.393-10.571,10.393c-5.845,0-10.581-4.662-10.581-10.393C344.596,707.158,349.331,702.491,355.176,702.491   L355.176,702.491z M333.702,648.748H227.646l-7.337,7.738c-9.151-19.693-17.024-39.557-23.391-59.656l104.15-0.158   C309.77,614.748,320.63,632.217,333.702,648.748L333.702,648.748z M297.766,589.562c-14.229-31.848-21.899-65.433-23.29-99.009   h-33.363c-1.481,6.526-6.945,11.6-13.751,12.589v0.188h-4.899v-0.188c-7.993-1.159-14.143-7.954-14.143-16.132   c0-9.002,7.443-16.329,16.6-16.329c7.911,0,14.539,5.469,16.194,12.763h33.161c-0.854-56.596,16.092-112.81,49.48-160.334h-85.769   l-39.102,36.321c-27.668,82.516-25.694,158.046-4.146,230.295L297.766,589.562L297.766,589.562z M328.923,315.999h-93.82   l-31.051,28.845c0.439-1.168,0.878-2.341,1.327-3.509c11.512-30.022,35.458-68.773,54.254-90.64   c10.262-11.941,22.835-26.354,34.483-37.205l28.281-23.072l163.592-0.236l58.019-59.24h48.935   c1.481,6.525,6.932,11.604,13.732,12.588v0.193h4.914v-0.193c7.998-1.158,14.147-7.949,14.147-16.131   c0-7.057-4.571-13.081-10.962-15.359c5.551,0.743,11.228,1.583,17.087,2.539c8.727,1.371,17.396,3.152,25.954,5.281l90.605,89.064   h75.82c19.249,17.71,36.688,37.322,51.628,57.777H750.048l-61.87-60.818l-72.891,0.531c-32.712-6.169-66.524-6.787-99.975-1.482   c-2.403-6.105-8.438-10.449-15.479-10.449c-0.043,0-0.083,0-0.126,0c-4.421,0.029-8.577,1.762-11.69,4.875   c-3.123,3.108-4.778,7.25-4.778,11.565c0,0.327,0.009,0.642,0.033,0.96c-24.274,6.715-48.104,16.678-70.916,30.076   c-7.873,4.624-15.427,9.538-22.652,14.732h-44.209c0.435,2.365,0.849,4.729,1.241,7.104h33.489   C360.428,279.281,343.297,296.875,328.923,315.999L328.923,315.999z M489.262,210.295c6.623-1.685,13.27-3.128,19.935-4.324   c-1.766-3.293-5.276-5.532-9.301-5.557h-0.28c-2.761,0.043-5.362,1.148-7.313,3.094   C490.469,205.353,489.392,207.736,489.262,210.295L489.262,210.295z M643.857,213.307c27.759,8.178,54.354,20.447,78.852,36.568   l-37.51-36.872L643.857,213.307L643.857,213.307z M754.243,273.816h126.695c1.153,1.651,2.288,3.311,3.408,4.977   c10.474,15.596,21.035,34.044,28.985,52.188c14.07,32.1,33.957,97.306,30.732,131.885c-10.329-4.006-21.45-11.604-46.812-21.064   c-14.992-5.589-36.906-10.165-53.153-12.959c-2.302-15.432-6.917-31.273-12.97-46.565h51.421   c1.655,7.294,8.283,12.763,16.194,12.763c9.156,0,16.613-7.328,16.613-16.325c0-8.187-6.164-14.973-14.156-16.136v-0.188h-4.899   v0.188c-6.806,0.989-12.256,6.058-13.737,12.588h-54.36c-10.769-25.133-25.134-48.359-39.045-65.365   C778.416,296.677,766.716,284.672,754.243,273.816L754.243,273.816z M816.297,201.818c-18.849-16.401-39.28-30.939-60.693-42.698   c-24.496-13.447-53.168-26.413-83.64-35.409l79.455,78.107H816.297L816.297,201.818z M607.607,111.142   c-7.222,0.651-13.115,5.874-14.664,12.694h-52l-58.033,59.235l-151.791,0.222l2.592-2.109   c23.164-16.338,48.037-30.462,74.189-41.814c0.806,2.047,2.046,3.963,3.727,5.613c3.233,3.181,7.486,4.773,11.738,4.773   c4.248,0,8.505-1.593,11.739-4.773c3.239-3.181,4.855-7.371,4.855-11.541c0-2.027-0.381-4.055-1.144-5.966   c36.366-12.241,74.739-19.066,114.088-19.095C571.604,108.009,589.023,108.94,607.607,111.142L607.607,111.142z M455.078,690.443   c2.819,0,5.479,1.076,7.472,3.041c4.127,4.055,4.127,10.652,0,14.713c-1.993,1.959-4.653,3.03-7.472,3.03   c-2.833,0-5.483-1.071-7.477-3.021l-0.009-0.009c-1.994-1.965-3.099-4.586-3.099-7.357c0-2.794,1.105-5.396,3.099-7.355   C449.581,691.52,452.245,690.443,455.078,690.443L455.078,690.443z M224.918,476.598c5.831,0,10.585,4.668,10.585,10.412   c0,5.725-4.755,10.388-10.585,10.388c-5.826,0-10.581-4.663-10.581-10.388C214.338,481.266,219.092,476.598,224.918,476.598   L224.918,476.598z M433.13,129.436c-6.642,2.351-13.207,4.88-19.699,7.578c0.521,1.41,1.352,2.693,2.452,3.784l0.015,0.01   c1.993,1.95,4.639,3.026,7.472,3.026c2.824,0,5.483-1.076,7.472-3.036C433.965,137.729,434.728,133.209,433.13,129.436   L433.13,129.436z M284.236,766.616c2.452,3.596,4.933,7.192,7.443,10.788c7.125,0.671,25.867-4.016,47.921-10.788H284.236z"></path>		<path fill-rule="evenodd" clip-rule="evenodd" fill="#E4200E" d="M395.616,1176.316c-6.854-1.67-14.515-4.306-21.296-7.607   h-73.658c4.383,14.51,33.465,25.062,49.476,30.053c20.123,6.265,43.457,11.014,68.194,14.558l4.779-4.876h52   c1.656-7.298,8.288-12.781,16.194-12.781c9.157,0,16.6,7.327,16.6,16.325c0,3.358-1.033,6.482-2.809,9.079   c18.805,0.845,37.263,1.211,54.645,1.207l5.479-0.016l-27.634-27.16c-12.12-0.318-23.246-0.971-32.866-1.955   c-20.08-2.056-37.684-3.847-56.547-5.918C428.497,1185.063,412.906,1180.68,395.616,1176.316L395.616,1176.316z M575.354,1222.172   L548,1195.286c30.829,0.31,66.75-1.391,100.514-5.175l26.886,26.433C641.97,1220.115,607.158,1221.771,575.354,1222.172   L575.354,1222.172z M694.857,1214.222c26.853-3.563,52.193-8.5,73.596-15.176c21.952-6.849,74.961-25.702,38.34-51.816   c-14.374-10.247-67.653-27.388-89.567-27.219c3.128,2.351,15.205,5.169,23.024,8.472c35.627,15.05,28.357,32.089-4.064,43.876   c-20.172,7.337-48.191,12.873-78.548,16.672l25.626,25.191H694.857L694.857,1214.222z M435.462,1215.549h39.647   c0.309,1.361,0.787,2.655,1.419,3.861C462.738,1218.421,448.962,1217.152,435.462,1215.549L435.462,1215.549z M484.493,1219.951   c-2.308-1.911-3.775-4.77-3.775-7.964c0-5.726,4.754-10.393,10.585-10.393s10.585,4.667,10.585,10.393   c0,3.63-1.902,6.829-4.769,8.692C492.921,1220.463,488.712,1220.217,484.493,1219.951L484.493,1219.951z M362.793,1161.594   c-2.109-1.718-3.861-3.523-5.116-5.396c-9.982-14.833,15.688-25.931,25.042-28.865c2.896-1.23,5.29-2.317,8.876-3.379   c4.219-1.235,7.771-1.718,10.692-3.968c-22.223-0.063-74.517,16.817-88.906,26.751c-7.602,5.252-11.546,10.214-12.815,14.856   H362.793z"></path>		<path fill-rule="evenodd" clip-rule="evenodd" fill="#E4200E" d="M637.229,630.156c-0.348,1.747-0.768,3.504-1.24,5.261   l4.219-0.034l61.871,60.824h149.266c1.656-7.299,8.283-12.763,16.194-12.763c1.598,0,3.147,0.228,4.614,0.642l0.049-0.342   c15.981-109.995-49.905-200.605-125.219-239.5c-16.942-8.756-33.88-15.408-50.875-20.123h-7.478   c0.894-0.41,1.776-0.846,2.65-1.294c-26.282-6.714-52.729-8.81-79.571-6.782c0.097,0.318,0.179,0.638,0.251,0.966h7.134   c3.741,2.761,7.767,5.146,12.034,7.11h-19.153c-1.656,7.293-8.283,12.776-16.204,12.776c-9.146,0-16.604-7.327-16.604-16.325   v-0.125c-12.14,2.346-24.375,5.474-36.732,9.335L650.557,536.07h143.45c1.66-7.289,8.287-12.763,16.199-12.763   c9.156,0,16.6,7.323,16.6,16.325c0,8.182-6.15,14.973-14.143,16.15v0.174h-4.9v-0.174c-6.82-1.004-12.27-6.082-13.756-12.607   H647.564L534.746,432.273c-4.918,1.65-9.861,3.417-14.823,5.295c-13.004,4.923-21.61,8.9-32.62,14.485l-22.363,12.555   c-0.724,0.526-1.322,0.927-1.815,1.235l5.845,5.749c30.525,2.139,125.489,8.728,160.527,84.403   c3.756,8.109,6.207,15.185,7.719,21.943h83.379c1.66-7.289,8.287-12.768,16.194-12.768c0.356,0,0.71,0.014,1.062,0.033   c-1.463-4.33-3.133-8.582-5.024-12.742l14.264-3.563c5.676,12.26,9.581,24.578,12.163,36.955l-7.641,2.986   c-2.385,4.64-6.951,8.009-12.366,8.805v0.179h-4.899v-0.179c-6.816-0.999-12.271-6.076-13.752-12.604h-82.101   C640.319,598.424,638.861,611.51,637.229,630.156L637.229,630.156z M810.206,529.221c5.825,0,10.58,4.668,10.58,10.412   c0,5.725-4.755,10.392-10.58,10.392c-5.831,0-10.586-4.667-10.586-10.392C799.62,533.889,804.375,529.221,810.206,529.221   L810.206,529.221z M605.546,416.586c0.517,1.227,0.807,2.577,0.807,3.986c0,5.725-4.74,10.393-10.581,10.393   c-5.83,0-10.57-4.668-10.57-10.393c0-0.42,0.024-0.834,0.072-1.244C592.06,418.159,598.813,417.247,605.546,416.586   L605.546,416.586z M633.745,642.551l3.479-0.029l61.856,60.795h152.264c1.482,6.526,6.946,11.6,13.752,12.588v0.189h0.768   c-3.476,12.211-8.515,23.506-17.039,36.124c-5.044,7.462-10.093,14.853-15.142,22.165l-53.632-52.729h-10.232l59.718,58.709   c-20.186,29.053-40.439,56.98-60.992,84.291l-80.647-79.285c9.692-12.386,18.936-25.337,27.673-38.943l-15.943-7.443   c-8.693,12.551-17.937,24.559-27.687,36.062h-4.779l2.597,2.554l-0.704,0.814l4.204,2.622l90.933,89.394   c-8.133,10.754-16.314,21.426-24.559,32.036l-18.747-18.429L548.709,885.3c-1.689-7.245-8.302-12.661-16.169-12.661   c-0.039,0-0.083,0-0.125,0c-4.421,0.029-8.578,1.757-11.691,4.865c-3.123,3.113-4.779,7.26-4.779,11.574   c0.058,7.806,5.696,14.307,13.153,15.861l0.043,0.377l7.183-0.059v-0.396c6.222-1.438,11.063-6.323,12.415-12.473l169.167-1.235   l17.294,17c-6.41,8.216-12.858,16.397-19.351,24.569c-6.642,1.11-11.937,6.11-13.395,12.525h-92.251   c-1.66-7.298-8.288-12.763-16.194-12.763c-9.161,0-16.619,7.313-16.619,16.311c0,8.187,6.164,14.987,14.163,16.15v0.174h4.898   v-0.174c6.801-0.989,12.266-6.063,13.752-12.588h89.92c-11.198,13.892-22.537,27.773-34.049,41.723H502.521l-24.627-25.225   c20.461-14.182,40.696-28.691,60.712-43.51l-17.039-19.732c-21.658,13.984-43.669,27.417-65.906,40.479l-10.986-11.251h-37.22   c-16.493-21.929-32.852-43.988-48.669-66.278l159.915-0.231l58.015-59.235h48.935c1.481,6.525,6.931,11.599,13.737,12.588v0.188   h4.913v-0.188c7.993-1.163,14.144-7.954,14.144-16.136c0-9.002-7.443-16.325-16.6-16.325c-7.907,0-14.539,5.465-16.194,12.763h-52   l-58.034,59.24l-161.845,0.231c-1.931-2.751-3.852-5.502-5.768-8.258c-3.471-4.417-10.417-12.348-13.322-18.014   c1.655-1.285-0.179-0.739,5.01-3.168c2.998-1.404,0.58-0.486,4.132-1.442l28.484-6.738c20.258-4.556,44.667-12.154,69.26-21.489   l0.498,0.492c-4.083,6.309-3.331,14.785,2.269,20.292c3.234,3.187,7.486,4.779,11.739,4.779c4.253,0,8.505-1.593,11.739-4.779   c3.243-3.186,4.855-7.366,4.855-11.54c0-3.095-0.888-6.193-2.659-8.887c0-0.242-0.13-0.521-0.497-0.927l0.048-0.029l-1.371-1.337   c-0.115-0.116-0.246-0.246-0.376-0.361l-0.362-0.368l-1.371-1.332l-0.029,0.029c-0.42-0.353-0.695-0.497-0.941-0.497   c-1.926-1.23-4.06-2.022-6.246-2.38c20.876-8.597,41.212-18.235,58.545-28.102h46.506c1.284,5.647,5.542,10.204,11.073,11.979   c1.342,0.59,2.78,1.004,4.281,1.227v0.174h4.899v-0.174c4.055-0.599,7.632-2.631,10.175-5.565h-2.162   c2.81-2.921,4.532-6.864,4.532-11.194c0-8.997-7.462-16.323-16.604-16.323c-7.921,0-14.548,5.468-16.209,12.762h-34.608   c3.828-2.408,7.443-4.827,10.808-7.231c6.564-4.691,22.513-15.803,34.879-26.576l2.162,2.124H697.45l36.24,35.646   c-4.069,6.309-3.331,14.784,2.268,20.278c3.244,3.186,7.497,4.777,11.749,4.777c4.248,0,8.505-1.592,11.744-4.777   c3.229-3.167,4.855-7.357,4.855-11.537c0-3.417-1.091-6.834-3.258-9.711l0.135-0.136l-3.476-3.397l-0.13,0.125   c-2.905-2.119-6.361-3.176-9.817-3.176c-3.109,0-6.223,0.854-8.939,2.553l-38.374-37.75H580.446   c4.711-4.519,8.385-8.785,9.982-12.242c4.107-1.148,12.076-12.235,15.615-16.392c5.044-5.917,8.514-11.386,12.458-18.506   C623.459,665.416,629.608,654.203,633.745,642.551L633.745,642.551z M867.419,710.166c-5.773-0.068-10.451-4.711-10.451-10.397   c0-5.743,4.74-10.406,10.571-10.406c1.308,0,2.563,0.236,3.722,0.666C870.136,697.244,868.938,703.861,867.419,710.166   L867.419,710.166z M532.327,878.565c-2.761,0.049-5.362,1.149-7.313,3.099c-1.965,1.961-3.056,4.548-3.056,7.299v0.068   c0.034,2.779,1.154,5.387,3.171,7.346c1.994,1.931,4.629,2.992,7.433,2.992c0.015,0,0.034,0,0.054,0   c2.818-0.028,5.479-1.134,7.457-3.108c1.96-1.964,3.056-4.552,3.056-7.298v-0.072c-0.043-5.701-4.754-10.296-10.527-10.325   H532.327L532.327,878.565z M594.01,938.399c-5.845,0-10.585,4.668-10.585,10.397c0,5.744,4.74,10.406,10.585,10.406   c5.826,0,10.566-4.662,10.566-10.406C604.576,943.067,599.836,938.399,594.01,938.399L594.01,938.399z M641.845,795.138   c-5.831,0-10.581,4.673-10.581,10.412c0,5.729,4.75,10.393,10.581,10.393c5.825,0,10.58-4.663,10.58-10.393   C652.425,799.811,647.67,795.138,641.845,795.138L641.845,795.138z M412.805,941.952c11.893,15.765,23.83,31.481,35.665,47.179   l48.583,64.438h119.248c14.948-17.671,29.555-35.082,43.891-52.382H499.437l-27.533-28.193c-2.712,1.868-5.43,3.73-8.147,5.584   L440.68,954.82c2.872-1.66,5.739-3.325,8.606-4.996l-7.689-7.872H412.805L412.805,941.952z M747.702,762.6   c-2.707,0-5.42,1.01-7.481,3.032c-1.993,1.964-3.099,4.58-3.099,7.36c0,2.785,1.105,5.387,3.099,7.352   c2.062,2.027,4.774,3.041,7.481,3.041c2.713,0,5.421-1.014,7.477-3.041c2.004-1.965,3.095-4.566,3.095-7.352   c0-2.78-1.091-5.396-3.095-7.36C753.123,763.609,750.415,762.6,747.702,762.6L747.702,762.6z M502.41,1060.674l26.002,34.493   h33.745l11.271,11.072l37.041-45.565H502.41L502.41,1060.674z M533.771,1102.271h25.395l9.721,9.558l-14.476,17.812   L533.771,1102.271L533.771,1102.271z M580.108,753.443c-5.84,0-10.58,4.673-10.58,10.406c0,5.73,4.74,10.398,10.58,10.398   c5.831,0,10.571-4.668,10.571-10.398C590.68,758.116,585.939,753.443,580.108,753.443L580.108,753.443z M456.082,801.201   c-2.838,0-5.498,1.071-7.486,3.035c-1.994,1.965-3.099,4.566-3.099,7.357c0,2.775,1.105,5.391,3.099,7.355l0.01,0.015   c1.993,1.95,4.639,3.021,7.477,3.021c2.819,0,5.479-1.071,7.472-3.036c4.127-4.055,4.127-10.658,0-14.713   C461.561,802.272,458.901,801.201,456.082,801.201L456.082,801.201z M634.807,466.939l-1.747,10.847   c-11.324-2.776-22.759-5.306-34.305-7.583l0.902-10.088C611.416,461.881,623.131,464.15,634.807,466.939L634.807,466.939z    M704.888,514.088c-7.892-7.553-16.561-14.229-26.161-19.818l7.022-7.598c9.065,5.185,17.725,11.17,26.022,17.859L704.888,514.088   L704.888,514.088z M739.83,571.529c1.67,5.771,2.992,11.68,4.025,17.694c-1.878,1.661-4.354,2.669-7.066,2.669   c-5.826,0-10.581-4.667-10.581-10.396c0-5.739,4.755-10.406,10.581-10.406C737.846,571.09,738.869,571.239,739.83,571.529   L739.83,571.529z M730.002,686.91c5.629-12.077,10.238-25.143,13.255-39.773l15.108,3.432   c-3.364,13.984-7.854,27.248-13.255,39.938L730.002,686.91L730.002,686.91z M590.921,883.981   c19.467-16.247,38.189-33.565,56.093-52.044l-16.276-12.598c-17.83,17.406-37.147,33.972-57.479,49.959L590.921,883.981z"></path>	</g>	<path fill-rule="evenodd" clip-rule="evenodd" fill="#E4200E" d="M404.613,906.957l19.467,27.886h20.596l10.986,11.251  c22.237-13.062,44.248-26.494,65.906-40.479l17.039,19.732c-20.017,14.818-40.251,29.328-60.712,43.51l24.627,25.225h0.125  l112.973-102.18l-66.881,0.487c-1.352,6.149-6.193,11.034-12.415,12.473v0.396l-7.183,0.059l-0.043-0.377  c-7.458-1.555-13.095-8.056-13.153-15.861c0-4.314,1.656-8.461,4.779-11.574c3.113-3.108,7.27-4.836,11.691-4.865  c0.043,0,0.086,0,0.125,0c7.868,0,14.48,5.416,16.169,12.661l74.822-0.551l80.845-73.122l-31.118-30.593l-4.204-2.622l0.704-0.814  l-2.597-2.554h4.779c9.75-11.503,18.993-23.511,27.687-36.062l15.943,7.443c-8.737,13.606-17.98,26.558-27.673,38.943  l21.808,21.439l25.501-23.066c-4.904-5.494-5.396-13.473-1.516-19.491l-36.24-35.646h-55.703l-32.827,54.872l-30.631,18.511h47.361  c1.655-7.298,8.287-12.763,16.194-12.763c9.156,0,16.6,7.323,16.6,16.325c0,8.182-6.15,14.973-14.144,16.136v0.188h-4.913v-0.188  c-6.807-0.989-12.256-6.063-13.737-12.588h-48.935l-58.015,59.235l-50.306,0.072L404.613,906.957L404.613,906.957z   M532.327,878.565h0.275c5.773,0.029,10.484,4.624,10.527,10.325v0.072c0,2.746-1.096,5.334-3.056,7.298  c-1.979,1.975-4.639,3.08-7.457,3.108c-0.02,0-0.039,0-0.054,0c-2.804,0-5.439-1.062-7.433-2.992  c-2.018-1.959-3.137-4.566-3.171-7.346v-0.068c0-2.751,1.091-5.338,3.056-7.299C526.965,879.715,529.566,878.614,532.327,878.565  L532.327,878.565z M566.917,808.861l-51.3,52.366l-35.429,0.054L566.917,808.861L566.917,808.861z M641.845,795.138  c5.825,0,10.58,4.673,10.58,10.412c0,5.729-4.755,10.393-10.58,10.393c-5.831,0-10.581-4.663-10.581-10.393  C631.264,799.811,636.014,795.138,641.845,795.138L641.845,795.138z M429.037,941.952h12.56l7.689,7.872  c-2.867,1.671-5.734,3.336-8.606,4.996l23.077,23.758c2.718-1.854,5.435-3.716,8.147-5.584l25.355,25.964l-17.434,15.765  L429.037,941.952L429.037,941.952z M739.642,779.73l15.562-14.074l-0.024-0.024c-2.056-2.022-4.764-3.032-7.477-3.032  c-2.707,0-5.42,1.01-7.481,3.032c-1.993,1.964-3.099,4.58-3.099,7.36C737.122,775.498,738.015,777.854,739.642,779.73  L739.642,779.73z M759.644,761.64l-1.936-1.892l-0.13,0.125c-2.905-2.119-6.361-3.176-9.817-3.176  c-3.109,0-6.223,0.854-8.939,2.553l-38.374-37.75H646l26.505-44.301l26.576,26.117h125.045l-32.668,29.551l-11.406-11.213h-10.232  l16.305,16.034L759.644,761.64L759.644,761.64z M831.989,696.207l0.328-0.295l-30.785-142.374  c-3.761-2.282-6.531-5.999-7.525-10.362H669.512l5.739,34.764h45.344c1.66-7.289,8.287-12.768,16.194-12.768  c0.356,0,0.71,0.014,1.062,0.033c-1.463-4.33-3.133-8.582-5.024-12.742l14.264-3.563c5.676,12.26,9.581,24.578,12.163,36.955  l-7.641,2.986c-2.385,4.64-6.951,8.009-12.366,8.805v0.179h-4.899v-0.179c-6.816-0.999-12.271-6.076-13.752-12.604h-44.171  l11.077,67.09l-11.207,18.732l25.785,25.342H831.989L831.989,696.207z M796.526,530.403l-0.136-0.632L667.296,434.35  l-105.926,8.533l-2.62,2.935l54.813,53.882l53.732,30.072l1.043,6.299h125.668C794.479,534.004,795.344,532.093,796.526,530.403  L796.526,530.403z M553.971,451.17l35.854,35.241l-44.89-25.118L553.971,451.17L553.971,451.17z M634.807,466.939l-1.747,10.847  c-11.324-2.776-22.759-5.306-34.305-7.583l0.902-10.088C611.416,461.881,623.131,464.15,634.807,466.939L634.807,466.939z   M704.888,514.088c-7.892-7.553-16.561-14.229-26.161-19.818l7.022-7.598c9.065,5.185,17.725,11.17,26.022,17.859L704.888,514.088  L704.888,514.088z M739.83,571.529c1.67,5.771,2.992,11.68,4.025,17.694c-1.878,1.661-4.354,2.669-7.066,2.669  c-5.826,0-10.581-4.667-10.581-10.396c0-5.739,4.755-10.406,10.581-10.406C737.846,571.09,738.869,571.239,739.83,571.529  L739.83,571.529z M730.002,686.91l15.108,3.596c5.401-12.689,9.891-25.953,13.255-39.938l-15.108-3.432  C740.24,661.768,735.631,674.833,730.002,686.91L730.002,686.91z M590.921,883.981l-17.662-14.683  c20.331-15.987,39.648-32.553,57.479-49.959l16.276,12.598C629.11,850.416,610.388,867.734,590.921,883.981z"></path>	<path fill-rule="evenodd" clip-rule="evenodd" fill="#E4200E" d="M404.613,906.957l19.467,27.886h20.596l57.845,59.239h0.125  l112.973-102.18l-66.881,0.487c-1.352,6.149-6.193,11.034-12.415,12.473v0.396l-7.183,0.059l-0.043-0.377  c-7.458-1.555-13.095-8.056-13.153-15.861c0-4.314,1.656-8.461,4.779-11.574c3.113-3.108,7.27-4.836,11.691-4.865  c0.043,0,0.086,0,0.125,0c7.868,0,14.48,5.416,16.169,12.661l74.822-0.551l80.845-73.122l-37.215-36.583h10.233l32.311,31.765  l25.501-23.066c-4.904-5.494-5.396-13.473-1.516-19.491l-36.24-35.646h-55.703l-32.827,54.872l-30.631,18.511h47.361  c1.655-7.298,8.287-12.763,16.194-12.763c9.156,0,16.6,7.323,16.6,16.325c0,8.182-6.15,14.973-14.144,16.136v0.188h-4.913v-0.188  c-6.807-0.989-12.256-6.063-13.737-12.588h-48.935l-58.015,59.235l-50.306,0.072L404.613,906.957L404.613,906.957z M736.789,571.09  c-5.826,0-10.581,4.667-10.581,10.406c0,5.729,4.755,10.396,10.581,10.396c5.831,0,10.585-4.667,10.585-10.396  C747.374,575.757,742.62,571.09,736.789,571.09L736.789,571.09z M532.327,878.565h0.275c5.773,0.029,10.484,4.624,10.527,10.325  v0.072c0,2.746-1.096,5.334-3.056,7.298c-1.979,1.975-4.639,3.08-7.457,3.108c-0.02,0-0.039,0-0.054,0  c-2.804,0-5.439-1.062-7.433-2.992c-2.018-1.959-3.137-4.566-3.171-7.346v-0.068c0-2.751,1.091-5.338,3.056-7.299  C526.965,879.715,529.566,878.614,532.327,878.565L532.327,878.565z M566.917,808.861l-51.3,52.366l-35.429,0.054L566.917,808.861  L566.917,808.861z M641.845,795.138c5.825,0,10.58,4.673,10.58,10.412c0,5.729-4.755,10.393-10.58,10.393  c-5.831,0-10.581-4.663-10.581-10.393C631.264,799.811,636.014,795.138,641.845,795.138L641.845,795.138z M429.037,941.952h12.56  l55.663,57.006l-17.434,15.765L429.037,941.952L429.037,941.952z M739.642,779.73l15.562-14.074l-0.024-0.024  c-2.056-2.022-4.764-3.032-7.477-3.032c-2.707,0-5.42,1.01-7.481,3.032c-1.993,1.964-3.099,4.58-3.099,7.36  C737.122,775.498,738.015,777.854,739.642,779.73L739.642,779.73z M759.644,761.64l-1.936-1.892l-0.13,0.125  c-2.905-2.119-6.361-3.176-9.817-3.176c-3.109,0-6.223,0.854-8.939,2.553l-38.374-37.75H646l26.505-44.301l26.576,26.117h125.045  l-32.668,29.551l-11.406-11.213h-10.232l16.305,16.034L759.644,761.64L759.644,761.64z M831.989,696.207h-129.91l-25.785-25.342  l11.207-18.732l-11.077-67.09h44.171c1.481,6.527,6.936,11.604,13.752,12.604v0.179h4.899v-0.179  c7.998-1.173,14.147-7.964,14.147-16.15c0-9.002-7.443-16.324-16.604-16.324c-7.907,0-14.534,5.479-16.194,12.768h-45.344  l-5.739-34.764h124.495c0.994,4.363,3.765,8.08,7.525,10.362l30.785,142.374L831.989,696.207L831.989,696.207z M796.526,530.403  l-0.136-0.632L667.296,434.35l-105.926,8.533l-2.62,2.935l54.813,53.882l53.732,30.072l1.043,6.299h125.668  C794.479,534.004,795.344,532.093,796.526,530.403L796.526,530.403z M553.971,451.17l35.854,35.241l-44.89-25.118L553.971,451.17z"></path></g></svg>