<svg xmlns="http://www.w3.org/2000/svg" width="296" height="65" viewBox="0 0 296 65" fill="none"><g clip-path="url(#clip0_2619_3580)"><path fill-rule="evenodd" clip-rule="evenodd" d="M21.0551 64.8348C27.6987 64.8348 34.2626 64.5468 40.2764 62.7063C41.3447 62.3782 42.6335 61.8314 43.4016 61.1486H41.0896L39.1762 59.2601C38.9264 59.6069 38.48 59.9163 37.9538 60.1857C38.2302 60.335 38.4162 60.6258 38.4162 60.9592C38.4162 61.402 38.0866 61.7674 37.6561 61.8314V61.8421H37.3931V61.8314C37.0263 61.7781 36.734 61.5033 36.6543 61.1512H35.2591C35.1741 61.1726 35.0917 61.1939 35.0173 61.2099C31.9214 61.9301 28.2355 62.3569 24.446 62.4849L24.9961 63.0264H32.708C32.7983 62.6343 33.1544 62.3382 33.5796 62.3382C34.0712 62.3382 34.4725 62.733 34.4725 63.2184C34.4725 63.6612 34.143 64.0266 33.7125 64.0906V64.1013H33.4494V64.0906C33.0827 64.0373 32.7904 63.7626 32.7106 63.4105H24.8366L23.9145 62.5009C20.5369 62.5889 17.0955 62.4422 13.9357 62.0555L12.0038 64.0346H9.76621C13.2156 64.5734 17.5765 64.8375 21.0604 64.8375L21.0551 64.8348ZM37.5073 60.3937H37.5233C37.8368 60.3937 38.092 60.6445 38.092 60.9539C38.092 61.2633 37.8368 61.514 37.5233 61.514C37.2097 61.514 36.9546 61.2633 36.9546 60.9539C36.9546 60.7965 37.021 60.6525 37.13 60.5511C37.2575 60.5004 37.3851 60.4471 37.5073 60.3937ZM36.6623 60.7245C36.6623 60.7245 36.6543 60.7485 36.6516 60.7618H36.5506L36.6596 60.7245H36.6623ZM43.7603 60.7618H41.249L39.3543 58.892C39.3702 58.836 39.3782 58.7773 39.3835 58.7213C39.4313 57.8651 38.3763 57.2516 37.2495 56.8142L36.7606 56.3314C37.5392 56.4887 38.2647 56.6328 39.131 56.8702C40.4199 57.2223 41.6237 57.641 42.6256 58.2198C44.2147 59.1374 44.3317 60.015 43.763 60.7645L43.7603 60.7618ZM36.0643 56.1873C35.9421 56.1607 35.8145 56.1367 35.687 56.1073C35.594 56.0886 35.4903 56.0593 35.3947 56.0593L35.1209 56.1207C35.4451 56.222 35.8996 56.35 36.3939 56.5101L36.067 56.1873H36.0643ZM33.5743 62.6503C33.8879 62.6503 34.143 62.901 34.143 63.2131C34.143 63.5252 33.8879 63.7732 33.5743 63.7732C33.2607 63.7732 33.0056 63.5225 33.0056 63.2131C33.0056 62.9037 33.2607 62.6503 33.5743 62.6503ZM13.4468 61.9888L11.8284 63.6452L7.60039 63.6505C7.14597 63.5545 6.68091 63.4478 6.03249 63.2931C5.89962 63.2611 5.69234 63.2451 5.53821 63.2078C5.20603 63.1251 4.88979 62.9757 4.60544 62.909C3.25014 62.5943 1.48294 61.9861 0.507656 61.0152C0.0346302 60.5458 -0.19391 59.9456 0.19142 59.2948C0.475767 58.8147 0.97271 58.4892 1.47763 58.1958C2.95517 57.3396 5.12896 56.7581 6.94134 56.3981C7.28415 56.3287 7.61368 56.2674 7.96977 56.1953C8.60756 56.07 8.74043 55.99 8.93974 56.1207C8.22223 56.3474 6.8377 56.7021 5.84116 57.2543C5.63919 57.3023 5.46114 57.4196 5.3389 57.5797C4.90042 57.9158 4.62936 58.3105 4.68251 58.7773C4.83133 60.0363 7.79438 60.9085 9.04604 61.2019C10.412 61.522 11.8895 61.7834 13.4441 61.9861L13.4468 61.9888Z" fill="white"></path><path fill-rule="evenodd" clip-rule="evenodd" d="M21.7996 29.9626L21.8049 29.9466L18.3475 29.9706C17.4892 30.6481 16.4262 31.1603 15.4297 31.563L16.195 32.3179C16.3412 32.2272 16.5086 32.1792 16.676 32.1792C16.8434 32.1792 17.0108 32.2245 17.157 32.3205C17.1703 32.3205 17.1862 32.3285 17.2075 32.3472L17.2819 32.4166L17.3005 32.4352C17.3005 32.4352 17.3138 32.4486 17.3218 32.4539L17.3962 32.5259C17.4148 32.5499 17.4228 32.5633 17.4228 32.5766C17.5184 32.7206 17.5663 32.8887 17.5663 33.0567C17.5663 33.2808 17.4786 33.5075 17.3058 33.6809C17.1331 33.8516 16.9019 33.9396 16.6734 33.9396C16.4448 33.9396 16.2163 33.8543 16.0435 33.6809C15.7432 33.3848 15.7007 32.926 15.9213 32.5846L15.039 31.7151C14.2684 32.0085 12.9715 32.4592 12.3417 32.4993C12.1105 32.3392 11.8979 32.1258 11.7146 31.9524C11.478 31.7284 11.3585 31.6164 11.1352 31.3816C10.9014 31.1362 10.6755 30.8855 10.4602 30.6295H4.61119L4.22586 31.0376C4.62448 31.8671 5.06296 32.694 5.53598 33.5155H10.4283C10.5187 33.1207 10.8748 32.8273 11.3 32.8273C11.7916 32.8273 12.1929 33.2221 12.1929 33.7076C12.1929 34.1503 11.8607 34.5158 11.4329 34.5798V34.5904H11.1698V34.5798C10.803 34.5264 10.5107 34.2517 10.431 33.8996H5.76187C6.22161 34.6758 6.71058 35.4493 7.22878 36.2229H11.6534C13.4206 35.6307 15.2543 34.9265 15.9107 34.6038C17.4998 33.8196 19.1634 33.0087 20.439 31.7951L19.9686 31.331H19.0943C19.0252 31.2029 18.9534 31.0749 18.8817 30.9469H20.1307L20.7127 31.5203C20.9306 31.2936 21.1352 31.0509 21.3212 30.7922C21.5843 30.4321 21.6056 30.2827 21.8022 29.9546L21.7996 29.9626ZM24.954 1.55285C24.6404 1.55285 24.3853 1.80358 24.3853 2.11566C24.3853 2.42774 24.6404 2.6758 24.954 2.6758C25.2675 2.6758 25.5227 2.42507 25.5227 2.11566C25.5227 1.80625 25.2675 1.55285 24.954 1.55285ZM40.524 15.1162C40.2104 15.1162 39.9553 15.367 39.9553 15.6764C39.9553 15.9858 40.2104 16.2392 40.524 16.2392C40.8375 16.2392 41.0927 15.9885 41.0927 15.6764C41.0927 15.3643 40.8375 15.1162 40.524 15.1162ZM21.9218 29.5625C22.1105 28.9437 22.1238 28.757 22.0015 27.8528C21.7544 26.6498 20.609 25.7029 19.8091 25.1214C19.7799 25.5002 20.051 26.0336 20.0775 26.6071C20.1334 27.8394 19.6019 28.8077 18.7913 29.5839L21.9218 29.5599V29.5625ZM11.2973 33.1501C11.6109 33.1501 11.866 33.4008 11.866 33.7129C11.866 34.025 11.6109 34.273 11.2973 34.273C10.9838 34.273 10.7286 34.0223 10.7286 33.7129C10.7286 33.4035 10.9838 33.1501 11.2973 33.1501ZM10.144 30.2507H4.44377L4.05047 30.6695C3.55884 29.6079 3.13631 28.5356 2.7935 27.45L8.39274 27.442C8.86045 28.4182 9.44509 29.3598 10.1467 30.2534L10.144 30.2507ZM8.21203 27.0579C7.44669 25.3401 7.03478 23.5263 6.96038 21.7152H5.1666C5.08687 22.0673 4.7919 22.342 4.42783 22.3954V22.4061H4.16474V22.3954C3.73423 22.3314 3.40471 21.966 3.40471 21.5258C3.40471 21.0404 3.80598 20.6456 4.29761 20.6456C4.7228 20.6456 5.0789 20.9417 5.16926 21.3338H6.9524C6.90723 18.2797 7.81873 15.2469 9.61251 12.681H4.99918L2.89714 14.6415C1.40896 19.0932 1.51526 23.1716 2.67391 27.0686L8.21203 27.0606V27.0579ZM9.88623 12.2942H4.84505L3.17617 13.8519C3.20008 13.7879 3.224 13.7266 3.24792 13.6625C3.8671 12.0435 5.15331 9.95228 6.1658 8.77066C6.71855 8.12516 7.39354 7.34897 8.0207 6.76215L9.54076 5.51651L18.3369 5.50317L21.4568 2.30504H24.0876C24.1674 2.65713 24.4597 2.93186 24.8264 2.98521V2.99588H25.0895V2.98521C25.52 2.92119 25.8495 2.55577 25.8495 2.11566C25.8495 1.73423 25.605 1.40882 25.2596 1.28612C25.5572 1.32613 25.8628 1.37147 26.1791 1.42215C26.6494 1.49684 27.1145 1.59286 27.5742 1.70756L32.4453 6.51409H36.5218C37.5582 7.469 38.4937 8.52793 39.2989 9.6322H32.533L29.2059 6.34872L25.2861 6.37806C23.5269 6.04464 21.7092 6.01263 19.9101 6.29804C19.7799 5.96996 19.4557 5.73523 19.0783 5.73523H19.0704C18.8339 5.73523 18.608 5.83125 18.4432 5.9993C18.2758 6.16734 18.1854 6.39139 18.1854 6.62345C18.1854 6.64212 18.1854 6.65813 18.1854 6.67413C16.8806 7.03689 15.5997 7.57302 14.372 8.29587C13.9495 8.5466 13.5429 8.81067 13.1549 9.09074H10.7791C10.803 9.21877 10.8243 9.3468 10.8456 9.47483H12.6447C11.5817 10.3097 10.6595 11.2593 9.88623 12.2915V12.2942ZM18.507 6.58878C18.8631 6.49809 19.2192 6.42073 19.5779 6.35405C19.4823 6.17534 19.2936 6.05531 19.0783 6.05531H19.0624C18.9136 6.05531 18.7754 6.11666 18.6691 6.22335C18.5708 6.32204 18.5123 6.45274 18.5043 6.58878H18.507ZM26.8195 6.75148C28.313 7.19159 29.7427 7.85576 31.0581 8.72531L29.0411 6.73548L26.8195 6.75148ZM32.7536 10.0163H39.5646C39.6257 10.107 39.6869 10.195 39.748 10.2857C40.3114 11.1286 40.8801 12.1235 41.3053 13.1024C42.0626 14.8335 43.1309 18.3544 42.9582 20.2189C42.4028 20.0028 41.8049 19.592 40.4416 19.0826C39.6364 18.7812 38.4565 18.5331 37.5848 18.3837C37.4599 17.5515 37.2128 16.6953 36.8886 15.8711H39.6523C39.7427 16.2659 40.0988 16.5593 40.524 16.5593C41.0156 16.5593 41.4169 16.1645 41.4169 15.679C41.4169 15.2363 41.0847 14.8708 40.6568 14.8095V14.7988H40.3937V14.8095C40.027 14.8628 39.7347 15.1376 39.655 15.4897H36.7318C36.1525 14.1347 35.3818 12.881 34.6324 11.9635C34.0557 11.2539 33.4259 10.6084 32.7562 10.0216L32.7536 10.0163ZM36.0913 6.13C35.0788 5.24444 33.9787 4.46024 32.828 3.82542C31.5099 3.0999 29.9686 2.40106 28.3316 1.91294L32.6048 6.12733H36.094L36.0913 6.13ZM24.8716 1.23811C24.4836 1.27278 24.1674 1.55552 24.0823 1.92361H21.2867L18.1668 5.11908L10.0058 5.13241L10.144 5.01772C11.3903 4.1375 12.727 3.37464 14.1328 2.76115C14.1754 2.87051 14.2418 2.97454 14.3321 3.06523C14.5049 3.23594 14.7334 3.32396 14.9646 3.32396C15.1958 3.32396 15.4217 3.23861 15.5944 3.06523C15.7698 2.89452 15.8549 2.6678 15.8549 2.44107C15.8549 2.33171 15.8336 2.22235 15.7937 2.11833C17.7496 1.45683 19.8118 1.08874 21.9271 1.08874C22.9317 1.0674 23.8697 1.11808 24.8689 1.23811H24.8716ZM16.6707 32.4993C16.8222 32.4993 16.9657 32.5579 17.072 32.662C17.2952 32.8807 17.2952 33.2381 17.072 33.4568C16.9657 33.5635 16.8222 33.6195 16.6707 33.6195C16.5192 33.6195 16.3757 33.5609 16.2694 33.4568C16.1631 33.3501 16.102 33.2088 16.102 33.0594C16.102 32.91 16.1605 32.7687 16.2694 32.662C16.3757 32.5553 16.5192 32.4993 16.6707 32.4993ZM4.29761 20.9577C4.61119 20.9577 4.86631 21.2084 4.86631 21.5205C4.86631 21.8326 4.61119 22.0807 4.29761 22.0807C3.98403 22.0807 3.72892 21.8299 3.72892 21.5205C3.72892 21.2111 3.98403 20.9577 4.29761 20.9577ZM15.4908 2.22502C15.1347 2.35305 14.7812 2.48909 14.4305 2.63312C14.4597 2.70781 14.5022 2.77716 14.5633 2.83584C14.6696 2.94253 14.8131 2.99855 14.9646 2.99855C15.1161 2.99855 15.2596 2.93986 15.3659 2.83584C15.5333 2.67046 15.5758 2.42774 15.4881 2.22235L15.4908 2.22502ZM7.48655 36.6096C7.61942 36.8043 7.7523 36.9964 7.88783 37.1911C8.2705 37.2284 9.27767 36.975 10.4656 36.6096H7.48921H7.48655Z" fill="white"></path><path fill-rule="evenodd" clip-rule="evenodd" d="M13.4736 58.7188C13.1042 58.6281 12.6923 58.4868 12.3282 58.308H8.3686C8.60511 59.0922 10.1677 59.6604 11.0287 59.9298C12.1103 60.2685 13.3646 60.5246 14.696 60.7166L14.9538 60.4526H17.7494C17.8371 60.0578 18.1958 59.7617 18.621 59.7617C19.1127 59.7617 19.5139 60.1565 19.5139 60.642C19.5139 60.8233 19.4581 60.9914 19.3625 61.1327C20.3723 61.1781 21.3662 61.1968 22.3016 61.1968H22.5966L21.1111 59.7297C20.46 59.7137 19.8621 59.6764 19.3439 59.623C18.2649 59.511 17.3189 59.415 16.3037 59.303C15.2461 59.1856 14.4063 58.9509 13.4789 58.7135L13.4736 58.7188ZM23.136 61.1941L21.6665 59.7431C23.3247 59.7591 25.254 59.6684 27.0717 59.463L28.5174 60.89C26.7209 61.0821 24.8474 61.1728 23.1387 61.1941H23.136ZM29.5618 60.7647C31.0048 60.5726 32.368 60.3059 33.5187 59.9458C34.6986 59.575 37.55 58.5588 35.5809 57.1504C34.8076 56.5983 31.9428 55.6727 30.7656 55.6807C30.933 55.8087 31.5841 55.9608 32.004 56.1368C33.92 56.9477 33.5293 57.8679 31.786 58.5054C30.7018 58.9002 29.195 59.1989 27.5634 59.4043L28.9399 60.7647H29.5618ZM15.6155 60.8367H17.7467C17.7627 60.9087 17.7893 60.9807 17.8238 61.0447C17.0824 60.9914 16.3409 60.922 15.6155 60.8367ZM18.2517 61.0741C18.1268 60.97 18.0497 60.818 18.0497 60.6446C18.0497 60.3352 18.3048 60.0845 18.6184 60.0845C18.932 60.0845 19.1871 60.3352 19.1871 60.6446C19.1871 60.8393 19.0861 61.0127 18.932 61.1141C18.7061 61.1034 18.4802 61.0901 18.2543 61.0741H18.2517ZM11.709 57.9239C11.5947 57.8306 11.5017 57.7346 11.4326 57.6332C10.8958 56.833 12.275 56.2329 12.78 56.0755C12.9368 56.0088 13.0643 55.9501 13.2583 55.8941C13.4842 55.8274 13.6755 55.8007 13.8323 55.6807C12.6365 55.678 9.82488 56.5876 9.05156 57.1237C8.64231 57.4065 8.42972 57.6759 8.36328 57.9266H11.709V57.9239Z" fill="white"></path><path fill-rule="evenodd" clip-rule="evenodd" d="M26.4659 29.2449C26.4473 29.3382 26.4234 29.4343 26.3995 29.5276H26.6253L29.9525 32.8084H37.978C38.0683 32.4137 38.4244 32.1203 38.8496 32.1203C38.9347 32.1203 39.0197 32.1336 39.0968 32.1549V32.1363C39.9578 26.2014 36.4154 21.3096 32.3681 19.2104C31.4566 18.7382 30.5477 18.3782 29.6336 18.1248H29.2323C29.2801 18.1034 29.328 18.0794 29.3758 18.0554C27.962 17.6927 26.5403 17.5806 25.0973 17.69C25.1026 17.706 25.1079 17.7247 25.1106 17.7407H25.4933C25.6952 17.89 25.9105 18.0181 26.139 18.1248H25.1106C25.0202 18.5195 24.6641 18.8129 24.239 18.8129C23.7473 18.8129 23.3461 18.4182 23.3461 17.9327V17.9274C22.6923 18.0527 22.0359 18.2235 21.3716 18.4315L27.1861 24.1663H34.898C34.9883 23.7742 35.3444 23.4781 35.7696 23.4781C36.2613 23.4781 36.6625 23.8729 36.6625 24.3583C36.6625 24.8011 36.333 25.1665 35.9025 25.2305V25.2412H35.6394V25.2305C35.2727 25.1772 34.9804 24.9025 34.9006 24.5504H27.0266L20.9623 18.5649C20.6966 18.6529 20.4308 18.7489 20.1651 18.8503C19.4662 19.117 19.0038 19.3304 18.4112 19.6318L17.21 20.3093C17.1701 20.3386 17.1383 20.36 17.1117 20.376L17.4253 20.6854C19.0676 20.8001 24.1725 21.1575 26.0567 25.2412C26.2586 25.6786 26.3915 26.0601 26.4712 26.4255H30.9543C31.0447 26.0334 31.4008 25.7373 31.826 25.7373C31.8446 25.7373 31.8632 25.7373 31.8818 25.7373C31.8021 25.5026 31.7144 25.2732 31.6107 25.0492L32.3787 24.8571C32.6843 25.5186 32.8943 26.1828 33.0325 26.8523L32.6206 27.0123C32.493 27.263 32.2459 27.4444 31.9562 27.4871V27.4978H31.6931V27.4871C31.3264 27.4338 31.0341 27.159 30.9543 26.8069H26.5403C26.6386 27.5298 26.5589 28.234 26.4712 29.2422L26.4659 29.2449ZM35.767 23.7982C36.0806 23.7982 36.3357 24.0489 36.3357 24.361C36.3357 24.6731 36.0806 24.9211 35.767 24.9211C35.4534 24.9211 35.1983 24.6704 35.1983 24.361C35.1983 24.0516 35.4534 23.7982 35.767 23.7982ZM24.7625 17.7193C24.7917 17.786 24.805 17.858 24.805 17.9354C24.805 18.2448 24.5499 18.4955 24.2363 18.4955C23.9227 18.4955 23.6676 18.2448 23.6676 17.9354C23.6676 17.9114 23.6676 17.89 23.6703 17.8687C24.0343 17.8047 24.3984 17.7567 24.7598 17.7193H24.7625ZM26.2799 29.9144H26.4659L29.7904 33.1925H37.978C38.0577 33.5446 38.3527 33.8194 38.7167 33.8727V33.8834H38.7593C38.5732 34.5422 38.3022 35.153 37.8424 35.8332C37.5714 36.236 37.3003 36.6334 37.0293 37.0282L34.1459 34.1821H33.5958L36.806 37.3509C35.7218 38.9193 34.6322 40.4263 33.5267 41.8987L29.1898 37.6203C29.7106 36.9508 30.2076 36.252 30.678 35.5184L29.8196 35.1157C29.3519 35.7932 28.8549 36.4413 28.3314 37.0628H28.0737L28.2145 37.2015L28.1773 37.2469L28.4032 37.3882L33.2929 42.2134C32.8544 42.7949 32.4159 43.3684 31.9721 43.9419L30.965 42.947L21.7091 43.0163C21.6187 42.6242 21.2626 42.3335 20.8401 42.3335H20.8321C20.5956 42.3335 20.3697 42.4295 20.2049 42.5975C20.0375 42.7656 19.9472 42.9896 19.9472 43.2217C19.9498 43.6431 20.2528 43.9926 20.6541 44.0779V44.0993L21.042 44.0966V44.0752C21.3769 43.9979 21.6373 43.7338 21.7091 43.4031L30.8055 43.3364L31.7356 44.254C31.3902 44.6967 31.0447 45.1395 30.6939 45.5796C30.3378 45.641 30.0535 45.9104 29.9737 46.2545H25.0149C24.9246 45.8597 24.5685 45.5663 24.1433 45.5663C23.6517 45.5663 23.2504 45.9611 23.2504 46.4465C23.2504 46.8893 23.5826 47.2547 24.0104 47.3187V47.3294H24.2735V47.3187C24.6402 47.2654 24.9326 46.9906 25.0123 46.6386H29.8462C29.2429 47.3881 28.6344 48.1376 28.0152 48.8898H19.2217L17.8983 47.5294C18.9985 46.7639 20.0854 45.9824 21.1616 45.1822L20.2448 44.1179C19.0808 44.8728 17.8983 45.5983 16.7024 46.3025L16.1125 45.6943H14.1114C13.2238 44.51 12.3442 43.3204 11.4938 42.1174L20.0907 42.1041L23.2105 38.9086H25.8414C25.9211 39.2607 26.2134 39.5354 26.5802 39.5888V39.5995H26.8433V39.5888C27.2738 39.5248 27.6033 39.1594 27.6033 38.7192C27.6033 38.2338 27.202 37.839 26.7104 37.839C26.2852 37.839 25.9291 38.1351 25.8387 38.5272H23.0431L19.9233 41.7253L11.2228 41.7387C11.1191 41.5893 11.0155 41.4426 10.9118 41.2932C10.7258 41.0558 10.3511 40.6264 10.1943 40.3223C10.282 40.253 10.1837 40.2823 10.4627 40.1516C10.6248 40.0769 10.4946 40.1249 10.686 40.0742L12.2167 39.7115C13.3062 39.4661 14.619 39.0553 15.9397 38.5512L15.9663 38.5779C15.7457 38.9193 15.7883 39.3754 16.0886 39.6741C16.2613 39.8449 16.4898 39.9329 16.7184 39.9329C16.9469 39.9329 17.1755 39.8475 17.3508 39.6741C17.5262 39.5034 17.6113 39.2767 17.6113 39.05C17.6113 38.882 17.5634 38.7166 17.4678 38.5699C17.4678 38.5565 17.4598 38.5405 17.4412 38.5192L17.3668 38.4445C17.3615 38.4392 17.3535 38.4312 17.3455 38.4258L17.3269 38.4072L17.2525 38.3351C17.2286 38.3191 17.2153 38.3111 17.202 38.3111C17.0984 38.2445 16.9841 38.2018 16.8672 38.1831C17.9886 37.719 19.0835 37.1989 20.0136 36.6654H22.5143C22.5834 36.9695 22.8119 37.2175 23.1095 37.3109C23.1813 37.3429 23.2584 37.3642 23.3407 37.3776V37.3882H23.6038V37.3776C23.8217 37.3456 24.0131 37.2362 24.1513 37.0762H24.0343C24.1858 36.9188 24.2788 36.7054 24.2788 36.4733C24.2788 35.9879 23.8775 35.5931 23.3859 35.5931C22.9607 35.5931 22.6046 35.8892 22.5143 36.2813H20.6541C20.8587 36.1506 21.0553 36.0199 21.236 35.8919C21.5895 35.6385 22.4452 35.0383 23.1122 34.4568L23.2291 34.5715H29.6974L31.6453 36.4947C31.4274 36.8361 31.4672 37.2922 31.7675 37.5883C31.9429 37.759 32.1714 37.847 32.4 37.847C32.6285 37.847 32.8571 37.7617 33.0325 37.5883C33.2052 37.4176 33.2929 37.1909 33.2929 36.9641C33.2929 36.7801 33.2344 36.596 33.1175 36.4413L33.1255 36.4333L32.9394 36.2493L32.9315 36.2573C32.7747 36.1426 32.5887 36.0866 32.4026 36.0866C32.2352 36.0866 32.0678 36.1319 31.9216 36.2253L29.8595 34.1874H23.4072C23.6596 33.9447 23.8589 33.7127 23.944 33.5259C24.1645 33.4646 24.5924 32.8671 24.7837 32.6404C25.0548 32.3203 25.2408 32.0269 25.4534 31.6401C25.7192 31.1574 26.0513 30.5519 26.2719 29.9224L26.2799 29.9144ZM38.8443 33.5633C38.5334 33.5606 38.2836 33.3099 38.2836 33.0031C38.2836 32.6964 38.5387 32.4403 38.8523 32.4403C38.9214 32.4403 38.9905 32.4537 39.0516 32.475C38.9905 32.8644 38.9267 33.2219 38.8443 33.5606V33.5633ZM20.8268 42.6509C20.678 42.6509 20.5398 42.7122 20.4335 42.8189C20.3272 42.9256 20.2687 43.0643 20.2687 43.2137C20.2687 43.3684 20.3298 43.5071 20.4388 43.6138C20.5451 43.7178 20.6886 43.7765 20.8374 43.7765H20.8401C20.9916 43.7765 21.1351 43.7152 21.2414 43.6085C21.3477 43.5018 21.4061 43.3631 21.4061 43.2137C21.4061 42.9016 21.151 42.6536 20.8401 42.6536H20.8241L20.8268 42.6509ZM24.1433 45.881C23.8297 45.881 23.5746 46.1318 23.5746 46.4412C23.5746 46.7506 23.8297 47.004 24.1433 47.004C24.4569 47.004 24.712 46.7532 24.712 46.4412C24.712 46.1291 24.4569 45.881 24.1433 45.881ZM26.7157 38.1511C26.4021 38.1511 26.147 38.4018 26.147 38.7139C26.147 39.026 26.4021 39.274 26.7157 39.274C27.0293 39.274 27.2844 39.0233 27.2844 38.7139C27.2844 38.4045 27.0293 38.1511 26.7157 38.1511ZM14.4011 46.0731C15.0415 46.924 15.682 47.7722 16.3198 48.6204L18.932 52.0986H25.3445C26.147 51.1463 26.9336 50.2048 27.7043 49.2712H19.0622L17.582 47.7508C17.4359 47.8522 17.2897 47.9509 17.1436 48.0522L15.9025 46.7693C16.0567 46.6786 16.2108 46.5905 16.3649 46.4999L15.9504 46.0757H14.4037L14.4011 46.0731ZM32.408 36.3933C32.2618 36.3933 32.1156 36.4467 32.0067 36.556C31.9004 36.6627 31.8393 36.8041 31.8393 36.9535C31.8393 37.1028 31.8977 37.2442 32.0067 37.3509C32.1183 37.4603 32.2645 37.5163 32.408 37.5163C32.5515 37.5163 32.7003 37.4629 32.8092 37.3509C32.9182 37.2442 32.9767 37.1055 32.9767 36.9535C32.9767 36.8014 32.9182 36.6627 32.8092 36.556C32.6976 36.4467 32.5541 36.3933 32.408 36.3933ZM19.219 52.48L20.6169 54.3418H22.4319L23.0378 54.9393L25.0282 52.48H19.219ZM20.9065 54.7259H22.2724L22.796 55.2407L22.0173 56.2009L20.9065 54.7232V54.7259ZM23.3965 35.9025C23.083 35.9025 22.8279 36.1533 22.8279 36.4653C22.8279 36.7774 23.083 37.0255 23.3965 37.0255C23.7101 37.0255 23.9652 36.7748 23.9652 36.4653C23.9652 36.1559 23.7101 35.9025 23.3965 35.9025ZM16.729 38.4792C16.5775 38.4792 16.434 38.5379 16.3277 38.6419C16.2214 38.7486 16.1603 38.8873 16.1603 39.0393C16.1603 39.1914 16.2188 39.3301 16.3277 39.4368C16.434 39.5434 16.5775 39.5995 16.729 39.5995C16.8805 39.5995 17.024 39.5408 17.1303 39.4368C17.3535 39.218 17.3535 38.8606 17.1303 38.6419C17.024 38.5352 16.8805 38.4792 16.729 38.4792ZM26.3383 20.44L26.2453 21.0242C25.6368 20.8748 25.0229 20.7387 24.4011 20.6161L24.4489 20.0719C25.0814 20.1679 25.7112 20.2906 26.3383 20.44ZM30.1066 22.9846C29.6814 22.5765 29.2164 22.2165 28.7008 21.915L29.0782 21.5043C29.5645 21.7843 30.0322 22.1071 30.476 22.4672L30.1066 22.982V22.9846ZM31.9854 26.0841C32.0758 26.3962 32.1475 26.7136 32.2007 27.039C32.0997 27.127 31.9668 27.183 31.8207 27.183C31.5071 27.183 31.252 26.9323 31.252 26.6229C31.252 26.3135 31.5071 26.0601 31.8207 26.0601C31.8765 26.0601 31.9323 26.0681 31.9854 26.0841ZM31.4566 32.3096C31.7595 31.6588 32.0067 30.952 32.1688 30.1624L32.982 30.3465C32.8013 31.1013 32.5594 31.8162 32.2698 32.5017L31.4566 32.307V32.3096ZM23.9785 42.9443C25.0256 42.0667 26.0327 41.1332 26.9947 40.1356L26.1204 39.4554C25.1611 40.3943 24.122 41.2879 23.0298 42.1521L23.9785 42.9443Z" fill="white"></path><path fill-rule="evenodd" clip-rule="evenodd" d="M13.9575 44.1815L15.0046 45.6859H16.1127L16.7027 46.2941C17.8985 45.5899 19.0811 44.8644 20.245 44.1095L21.1619 45.1738C20.0856 45.974 18.9987 46.7555 17.8985 47.521L19.2219 48.8814H19.2299L25.3048 43.368L21.7093 43.3947C21.6375 43.7254 21.3771 43.9895 21.0423 44.0668V44.0882H20.6569V44.0695C20.2557 43.9868 19.9527 43.6347 19.9501 43.2133C19.9501 42.9812 20.0404 42.7572 20.2078 42.5891C20.3753 42.4211 20.5985 42.3277 20.835 42.3251H20.843C21.2655 42.3251 21.6216 42.6185 21.712 43.0079L25.7353 42.9786L30.0829 39.0336L28.4087 37.3825L28.1828 37.2411L28.22 37.1958L28.0792 37.0571H28.337C28.8605 36.4356 29.3574 35.7874 29.8251 35.1099L30.6835 35.5127C30.2131 36.2462 29.7162 36.9451 29.1953 37.6146L30.3673 38.7722L31.7385 37.5265C31.4754 37.2305 31.4489 36.7984 31.6561 36.4756L29.7082 34.5525H26.7133L24.9487 37.5132L23.3011 38.5135H25.8469C25.9373 38.1187 26.2934 37.8253 26.7186 37.8253C27.2102 37.8253 27.6115 38.22 27.6115 38.7055C27.6115 39.1483 27.282 39.5137 26.8515 39.5751V39.5857H26.5884V39.5751C26.2216 39.5217 25.9293 39.247 25.8496 38.8949H23.2187L20.0989 42.0903H17.3936L13.9655 44.1735L13.9575 44.1815ZM20.8244 42.6505H20.8403C21.1512 42.6505 21.4037 42.9012 21.4064 43.208C21.4064 43.36 21.3479 43.4987 21.2416 43.6054C21.1353 43.7121 20.9918 43.7708 20.8403 43.7734H20.8377C20.6862 43.7734 20.5453 43.7174 20.439 43.6107C20.3301 43.504 20.269 43.3653 20.269 43.2133C20.269 43.0613 20.3274 42.9226 20.4337 42.8159C20.5374 42.7118 20.6782 42.6505 20.827 42.6478L20.8244 42.6505ZM22.6846 38.8895L19.9262 41.7143H18.0208L22.6846 38.8895ZM26.7133 38.148C27.0269 38.148 27.282 38.3988 27.282 38.7108C27.282 39.0229 27.0269 39.271 26.7133 39.271C26.3997 39.271 26.1446 39.0202 26.1446 38.7108C26.1446 38.4014 26.3997 38.148 26.7133 38.148ZM15.273 46.07H15.9479L16.3625 46.4941C16.2084 46.5848 16.0542 46.6728 15.9001 46.7635L17.1411 48.0465C17.2873 47.9451 17.4335 47.8465 17.5796 47.7451L18.9429 49.1454L18.0048 49.9963L15.273 46.07ZM31.9724 37.3158L32.8095 36.5556C32.6979 36.4463 32.5543 36.3903 32.4082 36.3903C32.262 36.3903 32.1159 36.4436 32.0069 36.553C31.9006 36.6597 31.8395 36.801 31.8395 36.9504C31.8395 37.0864 31.8873 37.2118 31.975 37.3132L31.9724 37.3158ZM33.0486 36.3396L32.945 36.2382L32.937 36.2462C32.7802 36.1315 32.5942 36.0755 32.4082 36.0755C32.2408 36.0755 32.0733 36.1209 31.9272 36.2142L29.865 34.1764H26.9365L28.3609 31.7864L29.7906 33.1948H36.5139L34.7574 34.7899L34.1435 34.1844H33.5934L34.4704 35.0486L33.046 36.3422L33.0486 36.3396ZM36.9391 32.808L36.9577 32.792L35.3021 25.1101C35.1002 24.9874 34.9514 24.7874 34.8982 24.55H28.2041L28.5124 26.4251H30.9492C31.0396 26.033 31.3957 25.7369 31.8209 25.7369C31.8395 25.7369 31.8581 25.7369 31.8767 25.7369C31.797 25.5022 31.7093 25.2728 31.6056 25.0488L32.3736 24.8567C32.6793 25.5182 32.8892 26.1824 33.0274 26.8519L32.6155 27.0119C32.4879 27.2626 32.2408 27.444 31.9511 27.4867V27.4974H31.688V27.4867C31.3213 27.4334 31.029 27.1586 30.9492 26.8065H28.5735L29.1688 30.4261L28.5655 31.437L29.9527 32.8054H36.9365L36.9391 32.808ZM35.0337 23.8591L35.0258 23.8245L28.0845 18.6738L22.3896 19.1353L22.2488 19.2926L25.1959 22.2L28.0845 23.8218L28.1403 24.1605H34.8982C34.9248 24.0485 34.97 23.9471 35.0337 23.8538V23.8591ZM21.9936 19.5834L23.9203 21.4852L21.5073 20.1302L21.9936 19.5834ZM26.3386 20.4343L26.2456 21.0184C25.637 20.869 25.0231 20.733 24.4013 20.6103L24.4491 20.0662C25.0816 20.1622 25.7114 20.2849 26.3386 20.4343ZM30.1068 22.9789C29.6816 22.5708 29.2166 22.2107 28.701 21.9093L29.0784 21.4985C29.5647 21.7786 30.0324 22.1014 30.4762 22.4614L30.1068 22.9762V22.9789ZM31.9857 26.0783C32.076 26.3904 32.1478 26.7078 32.2009 27.0333C32.0999 27.1213 31.9671 27.1773 31.8209 27.1773C31.5073 27.1773 31.2522 26.9266 31.2522 26.6171C31.2522 26.3077 31.5073 26.0543 31.8209 26.0543C31.8767 26.0543 31.9325 26.0623 31.9857 26.0783ZM31.4568 32.3039L32.27 32.4986C32.5597 31.8131 32.8015 31.0983 32.9822 30.3434L32.169 30.1594C32.0069 30.9489 31.7598 31.6531 31.4568 32.3066V32.3039ZM23.9788 42.9386L23.0301 42.1464C24.1223 41.2848 25.1613 40.3886 26.1207 39.4497L26.995 40.1299C26.033 41.1274 25.0258 42.061 23.9788 42.9386Z" fill="white"></path><path fill-rule="evenodd" clip-rule="evenodd" d="M13.9575 44.1815L15.0046 45.6859H16.1127L19.2219 48.8814H19.2299L25.3048 43.368L21.7093 43.3947C21.6375 43.7254 21.3771 43.9895 21.0423 44.0668V44.0882H20.6569V44.0695C20.2557 43.9868 19.9527 43.6347 19.9501 43.2133C19.9501 42.9812 20.0404 42.7572 20.2078 42.5891C20.3753 42.4211 20.5985 42.3277 20.835 42.3251H20.843C21.2655 42.3251 21.6216 42.6185 21.712 43.0079L25.7353 42.9786L30.0829 39.0336L28.0819 37.0598H28.632L30.3699 38.7749L31.7412 37.5292C31.4781 37.2331 31.4515 36.801 31.6588 36.4783L29.7109 34.5551H26.7159L24.9514 37.5159L23.3038 38.5161H25.8496C25.94 38.1214 26.2961 37.8279 26.7212 37.8279C27.2129 37.8279 27.6142 38.2227 27.6142 38.7082C27.6142 39.1509 27.2846 39.5164 26.8541 39.5777V39.5884H26.591V39.5777C26.2243 39.5244 25.932 39.2496 25.8523 38.8975H23.2214L20.1015 42.093H17.3963L13.9681 44.1762L13.9575 44.1815ZM31.8182 26.057C31.5047 26.057 31.2495 26.3077 31.2495 26.6198C31.2495 26.9319 31.5047 27.18 31.8182 27.18C32.1318 27.18 32.3869 26.9292 32.3869 26.6198C32.3869 26.3104 32.1318 26.057 31.8182 26.057ZM20.8244 42.6505H20.8403C21.1512 42.6505 21.4037 42.9012 21.4064 43.208C21.4064 43.36 21.3479 43.4987 21.2416 43.6054C21.1353 43.7121 20.9918 43.7708 20.8403 43.7734H20.8377C20.6862 43.7734 20.5453 43.7174 20.439 43.6107C20.3301 43.504 20.269 43.3653 20.269 43.2133C20.269 43.0613 20.3274 42.9226 20.4337 42.8159C20.5374 42.7118 20.6782 42.6505 20.827 42.6478L20.8244 42.6505ZM22.6846 38.8895L19.9262 41.7143H18.0208L22.6846 38.8895ZM26.7133 38.148C27.0269 38.148 27.282 38.3988 27.282 38.7108C27.282 39.0229 27.0269 39.271 26.7133 39.271C26.3997 39.271 26.1446 39.0202 26.1446 38.7108C26.1446 38.4014 26.3997 38.148 26.7133 38.148ZM15.273 46.07H15.9479L18.9402 49.1454L18.0022 49.9963L15.2703 46.07H15.273ZM31.9724 37.3158L32.8095 36.5556C32.6979 36.4463 32.5543 36.3903 32.4082 36.3903C32.262 36.3903 32.1159 36.4436 32.0069 36.553C31.9006 36.6597 31.8395 36.801 31.8395 36.9504C31.8395 37.0864 31.8873 37.2118 31.975 37.3132L31.9724 37.3158ZM33.0486 36.3396L32.945 36.2382L32.937 36.2462C32.7802 36.1315 32.5942 36.0755 32.4082 36.0755C32.2408 36.0755 32.0733 36.1209 31.9272 36.2142L29.865 34.1764H26.9365L28.3609 31.7864L29.7906 33.1948H36.5139L34.7574 34.7899L34.1435 34.1844H33.5934L34.4704 35.0486L33.046 36.3422L33.0486 36.3396ZM36.9391 32.808H29.9554L28.5682 31.4397L29.1714 30.4288L28.5761 26.8092H30.9519C31.0316 27.1613 31.3239 27.436 31.6907 27.4894V27.5H31.9538V27.4894C32.3843 27.4253 32.7138 27.0599 32.7138 26.6171C32.7138 26.1317 32.3125 25.7369 31.8209 25.7369C31.3957 25.7369 31.0396 26.033 30.9492 26.4251H28.5124L28.2041 24.55H34.8982C34.9514 24.7847 35.1002 24.9847 35.3021 25.1101L36.9577 32.792L36.9391 32.808ZM35.0337 23.8591L35.0258 23.8245L28.0845 18.6738L22.3896 19.1353L22.2488 19.2926L25.1959 22.2L28.0845 23.8218L28.1403 24.1605H34.8982C34.9248 24.0485 34.97 23.9471 35.0337 23.8538V23.8591ZM21.9936 19.5834L23.9203 21.4852L21.5073 20.1302L21.9936 19.5834Z" fill="white"></path><path fill-rule="evenodd" clip-rule="evenodd" d="M21.0551 64.8348C27.6987 64.8348 34.2626 64.5468 40.2764 62.7063C41.3447 62.3782 42.6335 61.8314 43.4016 61.1486H41.0896L39.1762 59.2601C38.9264 59.6069 38.48 59.9163 37.9538 60.1857C38.2302 60.335 38.4162 60.6258 38.4162 60.9592C38.4162 61.402 38.0866 61.7674 37.6561 61.8314V61.8421H37.3931V61.8314C37.0263 61.7781 36.734 61.5033 36.6543 61.1512H35.2591C35.1741 61.1726 35.0917 61.1939 35.0173 61.2099C31.9214 61.9301 28.2355 62.3569 24.446 62.4849L24.9961 63.0264H32.708C32.7983 62.6343 33.1544 62.3382 33.5796 62.3382C34.0712 62.3382 34.4725 62.733 34.4725 63.2184C34.4725 63.6612 34.143 64.0266 33.7125 64.0906V64.1013H33.4494V64.0906C33.0827 64.0373 32.7904 63.7626 32.7106 63.4105H24.8366L23.9145 62.5009C20.5369 62.5889 17.0955 62.4422 13.9357 62.0555L12.0038 64.0346H9.76621C13.2156 64.5734 17.5765 64.8375 21.0604 64.8375L21.0551 64.8348ZM37.5073 60.3937H37.5233C37.8368 60.3937 38.092 60.6445 38.092 60.9539C38.092 61.2633 37.8368 61.514 37.5233 61.514C37.2097 61.514 36.9546 61.2633 36.9546 60.9539C36.9546 60.7965 37.021 60.6525 37.13 60.5511C37.2575 60.5004 37.3851 60.4471 37.5073 60.3937ZM36.6623 60.7245C36.6623 60.7245 36.6543 60.7485 36.6516 60.7618H36.5506L36.6596 60.7245H36.6623ZM43.7603 60.7618H41.249L39.3543 58.892C39.3702 58.836 39.3782 58.7773 39.3835 58.7213C39.4313 57.8651 38.3763 57.2516 37.2495 56.8142L36.7606 56.3314C37.5392 56.4887 38.2647 56.6328 39.131 56.8702C40.4199 57.2223 41.6237 57.641 42.6256 58.2198C44.2147 59.1374 44.3317 60.015 43.763 60.7645L43.7603 60.7618ZM36.0643 56.1873C35.9421 56.1607 35.8145 56.1367 35.687 56.1073C35.594 56.0886 35.4903 56.0593 35.3947 56.0593L35.1209 56.1207C35.4451 56.222 35.8996 56.35 36.3939 56.5101L36.067 56.1873H36.0643ZM33.5743 62.6503C33.8879 62.6503 34.143 62.901 34.143 63.2131C34.143 63.5252 33.8879 63.7732 33.5743 63.7732C33.2607 63.7732 33.0056 63.5225 33.0056 63.2131C33.0056 62.9037 33.2607 62.6503 33.5743 62.6503ZM13.4468 61.9888L11.8284 63.6452L7.60039 63.6505C7.14597 63.5545 6.68091 63.4478 6.03249 63.2931C5.89962 63.2611 5.69234 63.2451 5.53821 63.2078C5.20603 63.1251 4.88979 62.9757 4.60544 62.909C3.25014 62.5943 1.48294 61.9861 0.507656 61.0152C0.0346302 60.5458 -0.19391 59.9456 0.19142 59.2948C0.475767 58.8147 0.97271 58.4892 1.47763 58.1958C2.95517 57.3396 5.12896 56.7581 6.94134 56.3981C7.28415 56.3287 7.61368 56.2674 7.96977 56.1953C8.60756 56.07 8.74043 55.99 8.93974 56.1207C8.22223 56.3474 6.8377 56.7021 5.84116 57.2543C5.63919 57.3023 5.46114 57.4196 5.3389 57.5797C4.90042 57.9158 4.62936 58.3105 4.68251 58.7773C4.83133 60.0363 7.79438 60.9085 9.04604 61.2019C10.412 61.522 11.8895 61.7834 13.4441 61.9861L13.4468 61.9888Z" fill="white"></path><path fill-rule="evenodd" clip-rule="evenodd" d="M21.7996 29.9626L21.8049 29.9466L18.3475 29.9706C17.4892 30.6481 16.4262 31.1603 15.4297 31.563L16.195 32.3179C16.3412 32.2272 16.5086 32.1792 16.676 32.1792C16.8434 32.1792 17.0108 32.2245 17.157 32.3205C17.1703 32.3205 17.1862 32.3285 17.2075 32.3472L17.2819 32.4166L17.3005 32.4352C17.3005 32.4352 17.3138 32.4486 17.3218 32.4539L17.3962 32.5259C17.4148 32.5499 17.4228 32.5633 17.4228 32.5766C17.5184 32.7206 17.5663 32.8887 17.5663 33.0567C17.5663 33.2808 17.4786 33.5075 17.3058 33.6809C17.1331 33.8516 16.9019 33.9396 16.6734 33.9396C16.4448 33.9396 16.2163 33.8543 16.0435 33.6809C15.7432 33.3848 15.7007 32.926 15.9213 32.5846L15.039 31.7151C14.2684 32.0085 12.9715 32.4592 12.3417 32.4993C12.1105 32.3392 11.8979 32.1258 11.7146 31.9524C11.478 31.7284 11.3585 31.6164 11.1352 31.3816C10.9014 31.1362 10.6755 30.8855 10.4602 30.6295H4.61119L4.22586 31.0376C4.62448 31.8671 5.06296 32.694 5.53598 33.5155H10.4283C10.5187 33.1207 10.8748 32.8273 11.3 32.8273C11.7916 32.8273 12.1929 33.2221 12.1929 33.7076C12.1929 34.1503 11.8607 34.5158 11.4329 34.5798V34.5904H11.1698V34.5798C10.803 34.5264 10.5107 34.2517 10.431 33.8996H5.76187C6.22161 34.6758 6.71058 35.4493 7.22878 36.2229H11.6534C13.4206 35.6307 15.2543 34.9265 15.9107 34.6038C17.4998 33.8196 19.1634 33.0087 20.439 31.7951L19.9686 31.331H19.0943C19.0252 31.2029 18.9534 31.0749 18.8817 30.9469H20.1307L20.7127 31.5203C20.9306 31.2936 21.1352 31.0509 21.3212 30.7922C21.5843 30.4321 21.6056 30.2827 21.8022 29.9546L21.7996 29.9626ZM24.954 1.55285C24.6404 1.55285 24.3853 1.80358 24.3853 2.11566C24.3853 2.42774 24.6404 2.6758 24.954 2.6758C25.2675 2.6758 25.5227 2.42507 25.5227 2.11566C25.5227 1.80625 25.2675 1.55285 24.954 1.55285ZM40.524 15.1162C40.2104 15.1162 39.9553 15.367 39.9553 15.6764C39.9553 15.9858 40.2104 16.2392 40.524 16.2392C40.8375 16.2392 41.0927 15.9885 41.0927 15.6764C41.0927 15.3643 40.8375 15.1162 40.524 15.1162ZM21.9218 29.5625C22.1105 28.9437 22.1238 28.757 22.0015 27.8528C21.7544 26.6498 20.609 25.7029 19.8091 25.1214C19.7799 25.5002 20.051 26.0336 20.0775 26.6071C20.1334 27.8394 19.6019 28.8077 18.7913 29.5839L21.9218 29.5599V29.5625ZM11.2973 33.1501C11.6109 33.1501 11.866 33.4008 11.866 33.7129C11.866 34.025 11.6109 34.273 11.2973 34.273C10.9838 34.273 10.7286 34.0223 10.7286 33.7129C10.7286 33.4035 10.9838 33.1501 11.2973 33.1501ZM10.144 30.2507H4.44377L4.05047 30.6695C3.55884 29.6079 3.13631 28.5356 2.7935 27.45L8.39274 27.442C8.86045 28.4182 9.44509 29.3598 10.1467 30.2534L10.144 30.2507ZM8.21203 27.0579C7.44669 25.3401 7.03478 23.5263 6.96038 21.7152H5.1666C5.08687 22.0673 4.7919 22.342 4.42783 22.3954V22.4061H4.16474V22.3954C3.73423 22.3314 3.40471 21.966 3.40471 21.5258C3.40471 21.0404 3.80598 20.6456 4.29761 20.6456C4.7228 20.6456 5.0789 20.9417 5.16926 21.3338H6.9524C6.90723 18.2797 7.81873 15.2469 9.61251 12.681H4.99918L2.89714 14.6415C1.40896 19.0932 1.51526 23.1716 2.67391 27.0686L8.21203 27.0606V27.0579ZM9.88623 12.2942H4.84505L3.17617 13.8519C3.20008 13.7879 3.224 13.7266 3.24792 13.6625C3.8671 12.0435 5.15331 9.95228 6.1658 8.77066C6.71855 8.12516 7.39354 7.34897 8.0207 6.76215L9.54076 5.51651L18.3369 5.50317L21.4568 2.30504H24.0876C24.1674 2.65713 24.4597 2.93186 24.8264 2.98521V2.99588H25.0895V2.98521C25.52 2.92119 25.8495 2.55577 25.8495 2.11566C25.8495 1.73423 25.605 1.40882 25.2596 1.28612C25.5572 1.32613 25.8628 1.37147 26.1791 1.42215C26.6494 1.49684 27.1145 1.59286 27.5742 1.70756L32.4453 6.51409H36.5218C37.5582 7.469 38.4937 8.52793 39.2989 9.6322H32.533L29.2059 6.34872L25.2861 6.37806C23.5269 6.04464 21.7092 6.01263 19.9101 6.29804C19.7799 5.96996 19.4557 5.73523 19.0783 5.73523H19.0704C18.8339 5.73523 18.608 5.83125 18.4432 5.9993C18.2758 6.16734 18.1854 6.39139 18.1854 6.62345C18.1854 6.64212 18.1854 6.65813 18.1854 6.67413C16.8806 7.03689 15.5997 7.57302 14.372 8.29587C13.9495 8.5466 13.5429 8.81067 13.1549 9.09074H10.7791C10.803 9.21877 10.8243 9.3468 10.8456 9.47483H12.6447C11.5817 10.3097 10.6595 11.2593 9.88623 12.2915V12.2942ZM18.507 6.58878C18.8631 6.49809 19.2192 6.42073 19.5779 6.35405C19.4823 6.17534 19.2936 6.05531 19.0783 6.05531H19.0624C18.9136 6.05531 18.7754 6.11666 18.6691 6.22335C18.5708 6.32204 18.5123 6.45274 18.5043 6.58878H18.507ZM26.8195 6.75148C28.313 7.19159 29.7427 7.85576 31.0581 8.72531L29.0411 6.73548L26.8195 6.75148ZM32.7536 10.0163H39.5646C39.6257 10.107 39.6869 10.195 39.748 10.2857C40.3114 11.1286 40.8801 12.1235 41.3053 13.1024C42.0626 14.8335 43.1309 18.3544 42.9582 20.2189C42.4028 20.0028 41.8049 19.592 40.4416 19.0826C39.6364 18.7812 38.4565 18.5331 37.5848 18.3837C37.4599 17.5515 37.2128 16.6953 36.8886 15.8711H39.6523C39.7427 16.2659 40.0988 16.5593 40.524 16.5593C41.0156 16.5593 41.4169 16.1645 41.4169 15.679C41.4169 15.2363 41.0847 14.8708 40.6568 14.8095V14.7988H40.3937V14.8095C40.027 14.8628 39.7347 15.1376 39.655 15.4897H36.7318C36.1525 14.1347 35.3818 12.881 34.6324 11.9635C34.0557 11.2539 33.4259 10.6084 32.7562 10.0216L32.7536 10.0163ZM36.0913 6.13C35.0788 5.24444 33.9787 4.46024 32.828 3.82542C31.5099 3.0999 29.9686 2.40106 28.3316 1.91294L32.6048 6.12733H36.094L36.0913 6.13ZM24.8716 1.23811C24.4836 1.27278 24.1674 1.55552 24.0823 1.92361H21.2867L18.1668 5.11908L10.0058 5.13241L10.144 5.01772C11.3903 4.1375 12.727 3.37464 14.1328 2.76115C14.1754 2.87051 14.2418 2.97454 14.3321 3.06523C14.5049 3.23594 14.7334 3.32396 14.9646 3.32396C15.1958 3.32396 15.4217 3.23861 15.5944 3.06523C15.7698 2.89452 15.8549 2.6678 15.8549 2.44107C15.8549 2.33171 15.8336 2.22235 15.7937 2.11833C17.7496 1.45683 19.8118 1.08874 21.9271 1.08874C22.9317 1.0674 23.8697 1.11808 24.8689 1.23811H24.8716ZM16.6707 32.4993C16.8222 32.4993 16.9657 32.5579 17.072 32.662C17.2952 32.8807 17.2952 33.2381 17.072 33.4568C16.9657 33.5635 16.8222 33.6195 16.6707 33.6195C16.5192 33.6195 16.3757 33.5609 16.2694 33.4568C16.1631 33.3501 16.102 33.2088 16.102 33.0594C16.102 32.91 16.1605 32.7687 16.2694 32.662C16.3757 32.5553 16.5192 32.4993 16.6707 32.4993ZM4.29761 20.9577C4.61119 20.9577 4.86631 21.2084 4.86631 21.5205C4.86631 21.8326 4.61119 22.0807 4.29761 22.0807C3.98403 22.0807 3.72892 21.8299 3.72892 21.5205C3.72892 21.2111 3.98403 20.9577 4.29761 20.9577ZM15.4908 2.22502C15.1347 2.35305 14.7812 2.48909 14.4305 2.63312C14.4597 2.70781 14.5022 2.77716 14.5633 2.83584C14.6696 2.94253 14.8131 2.99855 14.9646 2.99855C15.1161 2.99855 15.2596 2.93986 15.3659 2.83584C15.5333 2.67046 15.5758 2.42774 15.4881 2.22235L15.4908 2.22502ZM7.48655 36.6096C7.61942 36.8043 7.7523 36.9964 7.88783 37.1911C8.2705 37.2284 9.27767 36.975 10.4656 36.6096H7.48921H7.48655Z" fill="white"></path><path fill-rule="evenodd" clip-rule="evenodd" d="M13.4736 58.7188C13.1042 58.6281 12.6923 58.4868 12.3282 58.308H8.3686C8.60511 59.0922 10.1677 59.6604 11.0287 59.9298C12.1103 60.2685 13.3646 60.5246 14.696 60.7166L14.9538 60.4526H17.7494C17.8371 60.0578 18.1958 59.7617 18.621 59.7617C19.1127 59.7617 19.5139 60.1565 19.5139 60.642C19.5139 60.8233 19.4581 60.9914 19.3625 61.1327C20.3723 61.1781 21.3662 61.1968 22.3016 61.1968H22.5966L21.1111 59.7297C20.46 59.7137 19.8621 59.6764 19.3439 59.623C18.2649 59.511 17.3189 59.415 16.3037 59.303C15.2461 59.1856 14.4063 58.9509 13.4789 58.7135L13.4736 58.7188ZM23.136 61.1941L21.6665 59.7431C23.3247 59.7591 25.254 59.6684 27.0717 59.463L28.5174 60.89C26.7209 61.0821 24.8474 61.1728 23.1387 61.1941H23.136ZM29.5618 60.7647C31.0048 60.5726 32.368 60.3059 33.5187 59.9458C34.6986 59.575 37.55 58.5588 35.5809 57.1504C34.8076 56.5983 31.9428 55.6727 30.7656 55.6807C30.933 55.8087 31.5841 55.9608 32.004 56.1368C33.92 56.9477 33.5293 57.8679 31.786 58.5054C30.7018 58.9002 29.195 59.1989 27.5634 59.4043L28.9399 60.7647H29.5618ZM15.6155 60.8367H17.7467C17.7627 60.9087 17.7893 60.9807 17.8238 61.0447C17.0824 60.9914 16.3409 60.922 15.6155 60.8367ZM18.2517 61.0741C18.1268 60.97 18.0497 60.818 18.0497 60.6446C18.0497 60.3352 18.3048 60.0845 18.6184 60.0845C18.932 60.0845 19.1871 60.3352 19.1871 60.6446C19.1871 60.8393 19.0861 61.0127 18.932 61.1141C18.7061 61.1034 18.4802 61.0901 18.2543 61.0741H18.2517ZM11.709 57.9239C11.5947 57.8306 11.5017 57.7346 11.4326 57.6332C10.8958 56.833 12.275 56.2329 12.78 56.0755C12.9368 56.0088 13.0643 55.9501 13.2583 55.8941C13.4842 55.8274 13.6755 55.8007 13.8323 55.6807C12.6365 55.678 9.82488 56.5876 9.05156 57.1237C8.64231 57.4065 8.42972 57.6759 8.36328 57.9266H11.709V57.9239Z" fill="white"></path><path fill-rule="evenodd" clip-rule="evenodd" d="M26.4659 29.2449C26.4473 29.3382 26.4234 29.4343 26.3995 29.5276H26.6253L29.9525 32.8084H37.978C38.0683 32.4137 38.4244 32.1203 38.8496 32.1203C38.9347 32.1203 39.0197 32.1336 39.0968 32.1549V32.1363C39.9578 26.2014 36.4154 21.3096 32.3681 19.2104C31.4566 18.7382 30.5477 18.3782 29.6336 18.1248H29.2323C29.2801 18.1034 29.328 18.0794 29.3758 18.0554C27.962 17.6927 26.5403 17.5806 25.0973 17.69C25.1026 17.706 25.1079 17.7247 25.1106 17.7407H25.4933C25.6952 17.89 25.9105 18.0181 26.139 18.1248H25.1106C25.0202 18.5195 24.6641 18.8129 24.239 18.8129C23.7473 18.8129 23.3461 18.4182 23.3461 17.9327V17.9274C22.6923 18.0527 22.0359 18.2235 21.3716 18.4315L27.1861 24.1663H34.898C34.9883 23.7742 35.3444 23.4781 35.7696 23.4781C36.2613 23.4781 36.6625 23.8729 36.6625 24.3583C36.6625 24.8011 36.333 25.1665 35.9025 25.2305V25.2412H35.6394V25.2305C35.2727 25.1772 34.9804 24.9025 34.9006 24.5504H27.0266L20.9623 18.5649C20.6966 18.6529 20.4308 18.7489 20.1651 18.8503C19.4662 19.117 19.0038 19.3304 18.4112 19.6318L17.21 20.3093C17.1701 20.3386 17.1383 20.36 17.1117 20.376L17.4253 20.6854C19.0676 20.8001 24.1725 21.1575 26.0567 25.2412C26.2586 25.6786 26.3915 26.0601 26.4712 26.4255H30.9543C31.0447 26.0334 31.4008 25.7373 31.826 25.7373C31.8446 25.7373 31.8632 25.7373 31.8818 25.7373C31.8021 25.5026 31.7144 25.2732 31.6107 25.0492L32.3787 24.8571C32.6843 25.5186 32.8943 26.1828 33.0325 26.8523L32.6206 27.0123C32.493 27.263 32.2459 27.4444 31.9562 27.4871V27.4978H31.6931V27.4871C31.3264 27.4338 31.0341 27.159 30.9543 26.8069H26.5403C26.6386 27.5298 26.5589 28.234 26.4712 29.2422L26.4659 29.2449ZM35.767 23.7982C36.0806 23.7982 36.3357 24.0489 36.3357 24.361C36.3357 24.6731 36.0806 24.9211 35.767 24.9211C35.4534 24.9211 35.1983 24.6704 35.1983 24.361C35.1983 24.0516 35.4534 23.7982 35.767 23.7982ZM24.7625 17.7193C24.7917 17.786 24.805 17.858 24.805 17.9354C24.805 18.2448 24.5499 18.4955 24.2363 18.4955C23.9227 18.4955 23.6676 18.2448 23.6676 17.9354C23.6676 17.9114 23.6676 17.89 23.6703 17.8687C24.0343 17.8047 24.3984 17.7567 24.7598 17.7193H24.7625ZM26.2799 29.9144H26.4659L29.7904 33.1925H37.978C38.0577 33.5446 38.3527 33.8194 38.7167 33.8727V33.8834H38.7593C38.5732 34.5422 38.3022 35.153 37.8424 35.8332C37.5714 36.236 37.3003 36.6334 37.0293 37.0282L34.1459 34.1821H33.5958L36.806 37.3509C35.7218 38.9193 34.6322 40.4263 33.5267 41.8987L29.1898 37.6203C29.7106 36.9508 30.2076 36.252 30.678 35.5184L29.8196 35.1157C29.3519 35.7932 28.8549 36.4413 28.3314 37.0628H28.0737L28.2145 37.2015L28.1773 37.2469L28.4032 37.3882L33.2929 42.2134C32.8544 42.7949 32.4159 43.3684 31.9721 43.9419L30.965 42.947L21.7091 43.0163C21.6187 42.6242 21.2626 42.3335 20.8401 42.3335H20.8321C20.5956 42.3335 20.3697 42.4295 20.2049 42.5975C20.0375 42.7656 19.9472 42.9896 19.9472 43.2217C19.9498 43.6431 20.2528 43.9926 20.6541 44.0779V44.0993L21.042 44.0966V44.0752C21.3769 43.9979 21.6373 43.7338 21.7091 43.4031L30.8055 43.3364L31.7356 44.254C31.3902 44.6967 31.0447 45.1395 30.6939 45.5796C30.3378 45.641 30.0535 45.9104 29.9737 46.2545H25.0149C24.9246 45.8597 24.5685 45.5663 24.1433 45.5663C23.6517 45.5663 23.2504 45.9611 23.2504 46.4465C23.2504 46.8893 23.5826 47.2547 24.0104 47.3187V47.3294H24.2735V47.3187C24.6402 47.2654 24.9326 46.9906 25.0123 46.6386H29.8462C29.2429 47.3881 28.6344 48.1376 28.0152 48.8898H19.2217L17.8983 47.5294C18.9985 46.7639 20.0854 45.9824 21.1616 45.1822L20.2448 44.1179C19.0808 44.8728 17.8983 45.5983 16.7024 46.3025L16.1125 45.6943H14.1114C13.2238 44.51 12.3442 43.3204 11.4938 42.1174L20.0907 42.1041L23.2105 38.9086H25.8414C25.9211 39.2607 26.2134 39.5354 26.5802 39.5888V39.5995H26.8433V39.5888C27.2738 39.5248 27.6033 39.1594 27.6033 38.7192C27.6033 38.2338 27.202 37.839 26.7104 37.839C26.2852 37.839 25.9291 38.1351 25.8387 38.5272H23.0431L19.9233 41.7253L11.2228 41.7387C11.1191 41.5893 11.0155 41.4426 10.9118 41.2932C10.7258 41.0558 10.3511 40.6264 10.1943 40.3223C10.282 40.253 10.1837 40.2823 10.4627 40.1516C10.6248 40.0769 10.4946 40.1249 10.686 40.0742L12.2167 39.7115C13.3062 39.4661 14.619 39.0553 15.9397 38.5512L15.9663 38.5779C15.7457 38.9193 15.7883 39.3754 16.0886 39.6741C16.2613 39.8449 16.4898 39.9329 16.7184 39.9329C16.9469 39.9329 17.1755 39.8475 17.3508 39.6741C17.5262 39.5034 17.6113 39.2767 17.6113 39.05C17.6113 38.882 17.5634 38.7166 17.4678 38.5699C17.4678 38.5565 17.4598 38.5405 17.4412 38.5192L17.3668 38.4445C17.3615 38.4392 17.3535 38.4312 17.3455 38.4258L17.3269 38.4072L17.2525 38.3351C17.2286 38.3191 17.2153 38.3111 17.202 38.3111C17.0984 38.2445 16.9841 38.2018 16.8672 38.1831C17.9886 37.719 19.0835 37.1989 20.0136 36.6654H22.5143C22.5834 36.9695 22.8119 37.2175 23.1095 37.3109C23.1813 37.3429 23.2584 37.3642 23.3407 37.3776V37.3882H23.6038V37.3776C23.8217 37.3456 24.0131 37.2362 24.1513 37.0762H24.0343C24.1858 36.9188 24.2788 36.7054 24.2788 36.4733C24.2788 35.9879 23.8775 35.5931 23.3859 35.5931C22.9607 35.5931 22.6046 35.8892 22.5143 36.2813H20.6541C20.8587 36.1506 21.0553 36.0199 21.236 35.8919C21.5895 35.6385 22.4452 35.0383 23.1122 34.4568L23.2291 34.5715H29.6974L31.6453 36.4947C31.4274 36.8361 31.4672 37.2922 31.7675 37.5883C31.9429 37.759 32.1714 37.847 32.4 37.847C32.6285 37.847 32.8571 37.7617 33.0325 37.5883C33.2052 37.4176 33.2929 37.1909 33.2929 36.9641C33.2929 36.7801 33.2344 36.596 33.1175 36.4413L33.1255 36.4333L32.9394 36.2493L32.9315 36.2573C32.7747 36.1426 32.5887 36.0866 32.4026 36.0866C32.2352 36.0866 32.0678 36.1319 31.9216 36.2253L29.8595 34.1874H23.4072C23.6596 33.9447 23.8589 33.7127 23.944 33.5259C24.1645 33.4646 24.5924 32.8671 24.7837 32.6404C25.0548 32.3203 25.2408 32.0269 25.4534 31.6401C25.7192 31.1574 26.0513 30.5519 26.2719 29.9224L26.2799 29.9144ZM38.8443 33.5633C38.5334 33.5606 38.2836 33.3099 38.2836 33.0031C38.2836 32.6964 38.5387 32.4403 38.8523 32.4403C38.9214 32.4403 38.9905 32.4537 39.0516 32.475C38.9905 32.8644 38.9267 33.2219 38.8443 33.5606V33.5633ZM20.8268 42.6509C20.678 42.6509 20.5398 42.7122 20.4335 42.8189C20.3272 42.9256 20.2687 43.0643 20.2687 43.2137C20.2687 43.3684 20.3298 43.5071 20.4388 43.6138C20.5451 43.7178 20.6886 43.7765 20.8374 43.7765H20.8401C20.9916 43.7765 21.1351 43.7152 21.2414 43.6085C21.3477 43.5018 21.4061 43.3631 21.4061 43.2137C21.4061 42.9016 21.151 42.6536 20.8401 42.6536H20.8241L20.8268 42.6509ZM24.1433 45.881C23.8297 45.881 23.5746 46.1318 23.5746 46.4412C23.5746 46.7506 23.8297 47.004 24.1433 47.004C24.4569 47.004 24.712 46.7532 24.712 46.4412C24.712 46.1291 24.4569 45.881 24.1433 45.881ZM26.7157 38.1511C26.4021 38.1511 26.147 38.4018 26.147 38.7139C26.147 39.026 26.4021 39.274 26.7157 39.274C27.0293 39.274 27.2844 39.0233 27.2844 38.7139C27.2844 38.4045 27.0293 38.1511 26.7157 38.1511ZM14.4011 46.0731C15.0415 46.924 15.682 47.7722 16.3198 48.6204L18.932 52.0986H25.3445C26.147 51.1463 26.9336 50.2048 27.7043 49.2712H19.0622L17.582 47.7508C17.4359 47.8522 17.2897 47.9509 17.1436 48.0522L15.9025 46.7693C16.0567 46.6786 16.2108 46.5905 16.3649 46.4999L15.9504 46.0757H14.4037L14.4011 46.0731ZM32.408 36.3933C32.2618 36.3933 32.1156 36.4467 32.0067 36.556C31.9004 36.6627 31.8393 36.8041 31.8393 36.9535C31.8393 37.1028 31.8977 37.2442 32.0067 37.3509C32.1183 37.4603 32.2645 37.5163 32.408 37.5163C32.5515 37.5163 32.7003 37.4629 32.8092 37.3509C32.9182 37.2442 32.9767 37.1055 32.9767 36.9535C32.9767 36.8014 32.9182 36.6627 32.8092 36.556C32.6976 36.4467 32.5541 36.3933 32.408 36.3933ZM19.219 52.48L20.6169 54.3418H22.4319L23.0378 54.9393L25.0282 52.48H19.219ZM20.9065 54.7259H22.2724L22.796 55.2407L22.0173 56.2009L20.9065 54.7232V54.7259ZM23.3965 35.9025C23.083 35.9025 22.8279 36.1533 22.8279 36.4653C22.8279 36.7774 23.083 37.0255 23.3965 37.0255C23.7101 37.0255 23.9652 36.7748 23.9652 36.4653C23.9652 36.1559 23.7101 35.9025 23.3965 35.9025ZM16.729 38.4792C16.5775 38.4792 16.434 38.5379 16.3277 38.6419C16.2214 38.7486 16.1603 38.8873 16.1603 39.0393C16.1603 39.1914 16.2188 39.3301 16.3277 39.4368C16.434 39.5434 16.5775 39.5995 16.729 39.5995C16.8805 39.5995 17.024 39.5408 17.1303 39.4368C17.3535 39.218 17.3535 38.8606 17.1303 38.6419C17.024 38.5352 16.8805 38.4792 16.729 38.4792ZM26.3383 20.44L26.2453 21.0242C25.6368 20.8748 25.0229 20.7387 24.4011 20.6161L24.4489 20.0719C25.0814 20.1679 25.7112 20.2906 26.3383 20.44ZM30.1066 22.9846C29.6814 22.5765 29.2164 22.2165 28.7008 21.915L29.0782 21.5043C29.5645 21.7843 30.0322 22.1071 30.476 22.4672L30.1066 22.982V22.9846ZM31.9854 26.0841C32.0758 26.3962 32.1475 26.7136 32.2007 27.039C32.0997 27.127 31.9668 27.183 31.8207 27.183C31.5071 27.183 31.252 26.9323 31.252 26.6229C31.252 26.3135 31.5071 26.0601 31.8207 26.0601C31.8765 26.0601 31.9323 26.0681 31.9854 26.0841ZM31.4566 32.3096C31.7595 31.6588 32.0067 30.952 32.1688 30.1624L32.982 30.3465C32.8013 31.1013 32.5594 31.8162 32.2698 32.5017L31.4566 32.307V32.3096ZM23.9785 42.9443C25.0256 42.0667 26.0327 41.1332 26.9947 40.1356L26.1204 39.4554C25.1611 40.3943 24.122 41.2879 23.0298 42.1521L23.9785 42.9443Z" fill="white"></path><path fill-rule="evenodd" clip-rule="evenodd" d="M13.9575 44.1815L15.0046 45.6859H16.1127L16.7027 46.2941C17.8985 45.5899 19.0811 44.8644 20.245 44.1095L21.1619 45.1738C20.0856 45.974 18.9987 46.7555 17.8985 47.521L19.2219 48.8814H19.2299L25.3048 43.368L21.7093 43.3947C21.6375 43.7254 21.3771 43.9895 21.0423 44.0668V44.0882H20.6569V44.0695C20.2557 43.9868 19.9527 43.6347 19.9501 43.2133C19.9501 42.9812 20.0404 42.7572 20.2078 42.5891C20.3753 42.4211 20.5985 42.3277 20.835 42.3251H20.843C21.2655 42.3251 21.6216 42.6185 21.712 43.0079L25.7353 42.9786L30.0829 39.0336L28.4087 37.3825L28.1828 37.2411L28.22 37.1958L28.0792 37.0571H28.337C28.8605 36.4356 29.3574 35.7874 29.8251 35.1099L30.6835 35.5127C30.2131 36.2462 29.7162 36.9451 29.1953 37.6146L30.3673 38.7722L31.7385 37.5265C31.4754 37.2305 31.4489 36.7984 31.6561 36.4756L29.7082 34.5525H26.7133L24.9487 37.5132L23.3011 38.5135H25.8469C25.9373 38.1187 26.2934 37.8253 26.7186 37.8253C27.2102 37.8253 27.6115 38.22 27.6115 38.7055C27.6115 39.1483 27.282 39.5137 26.8515 39.5751V39.5857H26.5884V39.5751C26.2216 39.5217 25.9293 39.247 25.8496 38.8949H23.2187L20.0989 42.0903H17.3936L13.9655 44.1735L13.9575 44.1815ZM20.8244 42.6505H20.8403C21.1512 42.6505 21.4037 42.9012 21.4064 43.208C21.4064 43.36 21.3479 43.4987 21.2416 43.6054C21.1353 43.7121 20.9918 43.7708 20.8403 43.7734H20.8377C20.6862 43.7734 20.5453 43.7174 20.439 43.6107C20.3301 43.504 20.269 43.3653 20.269 43.2133C20.269 43.0613 20.3274 42.9226 20.4337 42.8159C20.5374 42.7118 20.6782 42.6505 20.827 42.6478L20.8244 42.6505ZM22.6846 38.8895L19.9262 41.7143H18.0208L22.6846 38.8895ZM26.7133 38.148C27.0269 38.148 27.282 38.3988 27.282 38.7108C27.282 39.0229 27.0269 39.271 26.7133 39.271C26.3997 39.271 26.1446 39.0202 26.1446 38.7108C26.1446 38.4014 26.3997 38.148 26.7133 38.148ZM15.273 46.07H15.9479L16.3625 46.4941C16.2084 46.5848 16.0542 46.6728 15.9001 46.7635L17.1411 48.0465C17.2873 47.9451 17.4335 47.8465 17.5796 47.7451L18.9429 49.1454L18.0048 49.9963L15.273 46.07ZM31.9724 37.3158L32.8095 36.5556C32.6979 36.4463 32.5543 36.3903 32.4082 36.3903C32.262 36.3903 32.1159 36.4436 32.0069 36.553C31.9006 36.6597 31.8395 36.801 31.8395 36.9504C31.8395 37.0864 31.8873 37.2118 31.975 37.3132L31.9724 37.3158ZM33.0486 36.3396L32.945 36.2382L32.937 36.2462C32.7802 36.1315 32.5942 36.0755 32.4082 36.0755C32.2408 36.0755 32.0733 36.1209 31.9272 36.2142L29.865 34.1764H26.9365L28.3609 31.7864L29.7906 33.1948H36.5139L34.7574 34.7899L34.1435 34.1844H33.5934L34.4704 35.0486L33.046 36.3422L33.0486 36.3396ZM36.9391 32.808L36.9577 32.792L35.3021 25.1101C35.1002 24.9874 34.9514 24.7874 34.8982 24.55H28.2041L28.5124 26.4251H30.9492C31.0396 26.033 31.3957 25.7369 31.8209 25.7369C31.8395 25.7369 31.8581 25.7369 31.8767 25.7369C31.797 25.5022 31.7093 25.2728 31.6056 25.0488L32.3736 24.8567C32.6793 25.5182 32.8892 26.1824 33.0274 26.8519L32.6155 27.0119C32.4879 27.2626 32.2408 27.444 31.9511 27.4867V27.4974H31.688V27.4867C31.3213 27.4334 31.029 27.1586 30.9492 26.8065H28.5735L29.1688 30.4261L28.5655 31.437L29.9527 32.8054H36.9365L36.9391 32.808ZM35.0337 23.8591L35.0258 23.8245L28.0845 18.6738L22.3896 19.1353L22.2488 19.2926L25.1959 22.2L28.0845 23.8218L28.1403 24.1605H34.8982C34.9248 24.0485 34.97 23.9471 35.0337 23.8538V23.8591ZM21.9936 19.5834L23.9203 21.4852L21.5073 20.1302L21.9936 19.5834ZM26.3386 20.4343L26.2456 21.0184C25.637 20.869 25.0231 20.733 24.4013 20.6103L24.4491 20.0662C25.0816 20.1622 25.7114 20.2849 26.3386 20.4343ZM30.1068 22.9789C29.6816 22.5708 29.2166 22.2107 28.701 21.9093L29.0784 21.4985C29.5647 21.7786 30.0324 22.1014 30.4762 22.4614L30.1068 22.9762V22.9789ZM31.9857 26.0783C32.076 26.3904 32.1478 26.7078 32.2009 27.0333C32.0999 27.1213 31.9671 27.1773 31.8209 27.1773C31.5073 27.1773 31.2522 26.9266 31.2522 26.6171C31.2522 26.3077 31.5073 26.0543 31.8209 26.0543C31.8767 26.0543 31.9325 26.0623 31.9857 26.0783ZM31.4568 32.3039L32.27 32.4986C32.5597 31.8131 32.8015 31.0983 32.9822 30.3434L32.169 30.1594C32.0069 30.9489 31.7598 31.6531 31.4568 32.3066V32.3039ZM23.9788 42.9386L23.0301 42.1464C24.1223 41.2848 25.1613 40.3886 26.1207 39.4497L26.995 40.1299C26.033 41.1274 25.0258 42.061 23.9788 42.9386Z" fill="white"></path><path fill-rule="evenodd" clip-rule="evenodd" d="M13.9575 44.1815L15.0046 45.6859H16.1127L19.2219 48.8814H19.2299L25.3048 43.368L21.7093 43.3947C21.6375 43.7254 21.3771 43.9895 21.0423 44.0668V44.0882H20.6569V44.0695C20.2557 43.9868 19.9527 43.6347 19.9501 43.2133C19.9501 42.9812 20.0404 42.7572 20.2078 42.5891C20.3753 42.4211 20.5985 42.3277 20.835 42.3251H20.843C21.2655 42.3251 21.6216 42.6185 21.712 43.0079L25.7353 42.9786L30.0829 39.0336L28.0819 37.0598H28.632L30.3699 38.7749L31.7412 37.5292C31.4781 37.2331 31.4515 36.801 31.6588 36.4783L29.7109 34.5551H26.7159L24.9514 37.5159L23.3038 38.5161H25.8496C25.94 38.1214 26.2961 37.8279 26.7212 37.8279C27.2129 37.8279 27.6142 38.2227 27.6142 38.7082C27.6142 39.1509 27.2846 39.5164 26.8541 39.5777V39.5884H26.591V39.5777C26.2243 39.5244 25.932 39.2496 25.8523 38.8975H23.2214L20.1015 42.093H17.3963L13.9681 44.1762L13.9575 44.1815ZM31.8182 26.057C31.5047 26.057 31.2495 26.3077 31.2495 26.6198C31.2495 26.9319 31.5047 27.18 31.8182 27.18C32.1318 27.18 32.3869 26.9292 32.3869 26.6198C32.3869 26.3104 32.1318 26.057 31.8182 26.057ZM20.8244 42.6505H20.8403C21.1512 42.6505 21.4037 42.9012 21.4064 43.208C21.4064 43.36 21.3479 43.4987 21.2416 43.6054C21.1353 43.7121 20.9918 43.7708 20.8403 43.7734H20.8377C20.6862 43.7734 20.5453 43.7174 20.439 43.6107C20.3301 43.504 20.269 43.3653 20.269 43.2133C20.269 43.0613 20.3274 42.9226 20.4337 42.8159C20.5374 42.7118 20.6782 42.6505 20.827 42.6478L20.8244 42.6505ZM22.6846 38.8895L19.9262 41.7143H18.0208L22.6846 38.8895ZM26.7133 38.148C27.0269 38.148 27.282 38.3988 27.282 38.7108C27.282 39.0229 27.0269 39.271 26.7133 39.271C26.3997 39.271 26.1446 39.0202 26.1446 38.7108C26.1446 38.4014 26.3997 38.148 26.7133 38.148ZM15.273 46.07H15.9479L18.9402 49.1454L18.0022 49.9963L15.2703 46.07H15.273ZM31.9724 37.3158L32.8095 36.5556C32.6979 36.4463 32.5543 36.3903 32.4082 36.3903C32.262 36.3903 32.1159 36.4436 32.0069 36.553C31.9006 36.6597 31.8395 36.801 31.8395 36.9504C31.8395 37.0864 31.8873 37.2118 31.975 37.3132L31.9724 37.3158ZM33.0486 36.3396L32.945 36.2382L32.937 36.2462C32.7802 36.1315 32.5942 36.0755 32.4082 36.0755C32.2408 36.0755 32.0733 36.1209 31.9272 36.2142L29.865 34.1764H26.9365L28.3609 31.7864L29.7906 33.1948H36.5139L34.7574 34.7899L34.1435 34.1844H33.5934L34.4704 35.0486L33.046 36.3422L33.0486 36.3396ZM36.9391 32.808H29.9554L28.5682 31.4397L29.1714 30.4288L28.5761 26.8092H30.9519C31.0316 27.1613 31.3239 27.436 31.6907 27.4894V27.5H31.9538V27.4894C32.3843 27.4253 32.7138 27.0599 32.7138 26.6171C32.7138 26.1317 32.3125 25.7369 31.8209 25.7369C31.3957 25.7369 31.0396 26.033 30.9492 26.4251H28.5124L28.2041 24.55H34.8982C34.9514 24.7847 35.1002 24.9847 35.3021 25.1101L36.9577 32.792L36.9391 32.808ZM35.0337 23.8591L35.0258 23.8245L28.0845 18.6738L22.3896 19.1353L22.2488 19.2926L25.1959 22.2L28.0845 23.8218L28.1403 24.1605H34.8982C34.9248 24.0485 34.97 23.9471 35.0337 23.8538V23.8591ZM21.9936 19.5834L23.9203 21.4852L21.5073 20.1302L21.9936 19.5834Z" fill="white"></path><path fill-rule="evenodd" clip-rule="evenodd" d="M72.567 0.976562H68.7376H49.7368V4.82286H68.7376V43.0057H72.567V4.82286H91.5677V0.976562H72.567Z" fill="white"></path><path fill-rule="evenodd" clip-rule="evenodd" d="M102.822 7.2045C100.098 10.1066 98.4771 13.8115 98.4771 17.8418V26.1479C98.4771 30.1782 100.098 33.8725 102.811 36.7852C103.622 37.6494 104.533 38.455 105.527 39.1565C108.373 41.2023 111.918 42.5573 115.798 42.9121V39.0551C113.276 38.7804 110.855 37.9962 108.759 36.7852C108.312 36.5318 107.887 36.2464 107.473 35.9503C106.247 35.0755 105.203 34.0565 104.374 32.9363C102.854 30.9118 102.025 28.5592 102.025 26.1479V17.8418C102.025 15.4199 102.857 13.078 104.374 11.0428C105.206 9.93318 106.247 8.91426 107.483 8.02871C107.898 7.73263 108.323 7.4579 108.769 7.2045C110.866 5.98286 113.276 5.20934 115.798 4.9346V1.07764C111.918 1.43506 108.373 2.77673 105.527 4.83324C104.533 5.53475 103.622 6.34029 102.822 7.2045ZM132.894 7.2045C132.083 6.32962 131.182 5.53475 130.188 4.82257C127.332 2.77673 123.787 1.43239 119.907 1.07764V4.9346C122.439 5.20934 124.85 5.98286 126.946 7.2045C127.393 7.4579 127.829 7.73263 128.233 8.02871C129.458 8.91426 130.502 9.93318 131.331 11.0428C132.862 13.078 133.68 15.4306 133.68 17.8418V26.1479C133.68 28.5592 132.849 30.9118 131.331 32.9363C130.491 34.0565 129.458 35.0728 128.222 35.9503C127.818 36.2464 127.382 36.5212 126.936 36.7852C124.85 37.9962 122.429 38.7804 119.907 39.0551V42.9121C123.787 42.5547 127.332 41.2023 130.178 39.1565C131.172 38.4443 132.083 37.6494 132.894 36.7852C135.607 33.8832 137.228 30.1782 137.228 26.1479V17.8418C137.228 13.8115 135.607 10.1066 132.894 7.2045Z" fill="white"></path><path fill-rule="evenodd" clip-rule="evenodd" d="M179.944 5.15094C176.875 2.6063 172.216 0.976562 167 0.976562H144.119V4.51878H167C171.153 4.51878 175.124 5.87379 177.646 8.13302C178.507 8.91721 179.955 10.5256 179.955 12.4594C179.955 14.3932 178.507 15.991 177.646 16.7752C175.134 19.0344 171.153 20.3894 167 20.3894H144.119V43.0164H147.949V23.929H167.002C172.219 23.929 176.878 22.3099 179.957 19.7546C182.349 17.7701 183.787 15.2255 183.787 12.4568C183.787 9.68807 182.349 7.13277 179.947 5.14827L179.944 5.15094Z" fill="white"></path><path fill-rule="evenodd" clip-rule="evenodd" d="M190.608 20.072V43.0164H194.438V23.921H226.476V20.072H190.608ZM190.608 0.976562V4.82286H226.476V0.976562H190.608Z" fill="white"></path><path fill-rule="evenodd" clip-rule="evenodd" d="M237.222 39.1674V0.976562H233.393V43.0164H264.278V39.1674H237.222Z" fill="white"></path><path fill-rule="evenodd" clip-rule="evenodd" d="M291.057 0.976562L275.764 19.2985L260.459 0.976562H255.517L274.071 23.1981V43.0164H277.89V22.6673L296 0.976562H291.057Z" fill="white"></path><path fill-rule="evenodd" clip-rule="evenodd" d="M54.2888 58.8155C54.2888 60.0798 54.3765 61.1147 54.5492 61.9149C54.722 62.7151 55.0329 63.342 55.4767 63.7927C55.9205 64.2435 56.521 64.5556 57.2811 64.7236C58.0411 64.8917 58.9978 64.9744 60.1564 64.9744H65.1152C66.157 64.9744 66.9967 64.8837 67.6345 64.7023C68.2723 64.5209 68.7639 64.1955 69.112 63.7234C69.4602 63.2513 69.6914 62.6031 69.8056 61.7762C69.9226 60.9494 69.9784 59.8904 69.9784 58.5994H61.9104V59.9945H68.4716C68.4716 60.768 68.4211 61.3921 68.3175 61.8643C68.2138 62.3364 68.0384 62.6991 67.786 62.9579C67.5362 63.2166 67.1934 63.3873 66.7629 63.47C66.3323 63.5554 65.7823 63.5954 65.1126 63.5954H59.997C59.0961 63.5954 58.3627 63.5394 57.7966 63.43C57.2306 63.3206 56.7895 63.0966 56.4759 62.7605C56.1596 62.4244 55.947 61.9443 55.8381 61.3175C55.7291 60.6906 55.6733 59.8558 55.6733 58.8102V57.5699C55.6733 56.5509 55.7371 55.7267 55.8673 55.0999C55.9949 54.4731 56.234 53.9903 56.5822 53.6462C56.9303 53.3048 57.406 53.0754 58.0092 52.958C58.6151 52.8407 59.3911 52.7847 60.3451 52.7847H65.1126C65.769 52.7847 66.3191 52.8407 66.7629 52.95C67.2066 53.0594 67.5601 53.2168 67.8232 53.4248C68.0863 53.6302 68.2723 53.8863 68.3839 54.1903C68.4929 54.4944 68.554 54.8332 68.5673 55.2066H69.9571C69.9571 53.9023 69.5585 52.9394 68.7613 52.3205C67.964 51.7017 66.7469 51.3896 65.1126 51.3896H60.5391C59.3433 51.3896 58.3414 51.4803 57.5389 51.6617C56.7336 51.8431 56.0905 52.1658 55.6095 52.63C55.1259 53.0941 54.7857 53.7289 54.5864 54.5291C54.3871 55.3293 54.2861 56.3509 54.2861 57.5885V58.8102L54.2888 58.8155Z" fill="white"></path><path fill-rule="evenodd" clip-rule="evenodd" d="M91.8385 54.9823C91.8385 53.8967 91.4824 53.0512 90.7675 52.4457C90.0527 51.8375 88.9047 51.5361 87.3235 51.5361H78.041V64.9795H79.5265V59.2074H87.3235C88.9047 59.2074 90.0553 58.9033 90.7675 58.2978C91.4824 57.6897 91.8385 56.8441 91.8385 55.7612V54.9877V54.9823ZM79.5265 52.9285H87.2464C87.8523 52.9285 88.3519 52.9738 88.7505 53.0645C89.1492 53.1552 89.4654 53.2912 89.6966 53.4699C89.9278 53.6513 90.0925 53.87 90.1882 54.1288C90.2839 54.3875 90.3317 54.6916 90.3317 55.0383V55.6972C90.3317 56.0466 90.2839 56.3507 90.1882 56.6067C90.0925 56.8655 89.9278 57.0842 89.6966 57.2656C89.4654 57.4469 89.1492 57.583 88.7505 57.671C88.3519 57.7617 87.8497 57.807 87.2464 57.807H79.5265V52.9258V52.9285Z" fill="white"></path><path fill-rule="evenodd" clip-rule="evenodd" d="M104.047 51.5332C102.657 51.5332 101.626 51.8159 100.949 52.3868C100.274 52.9549 99.936 53.8725 99.936 55.1368C99.936 55.7449 100.002 56.2677 100.138 56.7052C100.274 57.1453 100.534 57.5054 100.919 57.7908C101.305 58.0762 101.839 58.2869 102.522 58.4309C103.205 58.5723 104.092 58.6577 105.184 58.6817L109.875 58.799C110.813 58.8257 111.576 58.879 112.163 58.9644C112.748 59.0471 113.202 59.1804 113.524 59.3618C113.845 59.5432 114.06 59.7779 114.169 60.0687C114.278 60.3594 114.334 60.7168 114.334 61.1436C114.334 62.0612 114.084 62.696 113.582 63.0508C113.08 63.4055 112.301 63.5842 111.246 63.5842H104.897C104.241 63.5842 103.691 63.5282 103.247 63.4188C102.803 63.3095 102.45 63.1521 102.187 62.9441C101.924 62.7387 101.738 62.4826 101.626 62.1785C101.517 61.8745 101.456 61.5357 101.443 61.1623H100.053C100.053 62.4666 100.449 63.4295 101.241 64.0483C102.033 64.6672 103.096 64.9792 104.435 64.9792H111.326C112.097 64.9792 112.761 64.9152 113.314 64.7845C113.866 64.6565 114.323 64.4431 114.685 64.1444C115.046 63.8483 115.309 63.4562 115.477 62.9734C115.644 62.4879 115.727 61.8931 115.727 61.181C115.727 60.4688 115.631 59.922 115.437 59.4579C115.243 58.9937 114.913 58.6123 114.443 58.3162C113.973 58.0202 113.338 57.7988 112.532 57.6574C111.727 57.516 110.715 57.4307 109.492 57.4067L105.344 57.3106C104.483 57.2973 103.787 57.252 103.261 57.1746C102.734 57.0973 102.328 56.9772 102.043 56.8172C101.759 56.6545 101.573 56.4438 101.483 56.177C101.392 55.913 101.347 55.5742 101.347 55.1608C101.347 54.798 101.382 54.4806 101.453 54.2032C101.525 53.9258 101.658 53.6937 101.857 53.507C102.057 53.3203 102.328 53.1789 102.668 53.0803C103.008 52.9842 103.449 52.9362 103.989 52.9362H110.762C111.419 52.9362 111.969 52.9922 112.413 53.1016C112.857 53.211 113.21 53.3683 113.473 53.5764C113.736 53.7818 113.922 54.0352 114.034 54.3312C114.143 54.6273 114.204 54.9634 114.217 55.3395H115.626C115.626 54.0618 115.24 53.1096 114.467 52.4828C113.696 51.856 112.562 51.5439 111.071 51.5439H104.044L104.047 51.5332Z" fill="white"></path><path fill-rule="evenodd" clip-rule="evenodd" d="M133.455 62.6136C133.455 62.923 133.5 63.2218 133.59 63.5045C133.68 63.7872 133.845 64.0406 134.082 64.2594C134.321 64.4781 134.645 64.6541 135.057 64.7822C135.469 64.9102 135.995 64.9769 136.641 64.9769H142.065C143.261 64.9769 144.13 64.7608 144.669 64.3287C145.208 63.8966 145.48 63.3311 145.48 62.635V62.0935C145.48 61.2026 145.195 60.5624 144.629 60.1757C144.063 59.7889 143.258 59.5809 142.216 59.5569L136.657 59.4395C136.077 59.4262 135.631 59.3355 135.315 59.1674C134.999 58.9994 134.842 58.6953 134.842 58.2579V57.8498C134.842 56.9962 135.448 56.5721 136.657 56.5721H142.081C142.543 56.5721 142.91 56.6121 143.181 56.6895C143.452 56.7668 143.659 56.8708 143.808 56.9989C143.957 57.1269 144.05 57.2736 144.087 57.4337C144.124 57.5937 144.146 57.7591 144.146 57.9271V58.4126H145.535V57.7537C145.535 57.4817 145.488 57.2069 145.392 56.9295C145.296 56.6521 145.115 56.3961 144.852 56.164C144.589 55.9319 144.22 55.7399 143.742 55.5932C143.266 55.4438 142.647 55.3691 141.889 55.3691H136.795C135.65 55.3691 134.81 55.6012 134.276 56.0653C133.742 56.5294 133.476 57.1109 133.476 57.8098V58.2552C133.476 59.1327 133.766 59.7436 134.345 60.085C134.924 60.4264 135.727 60.6051 136.758 60.6185L142.296 60.7358C142.875 60.7492 143.322 60.8718 143.638 61.1039C143.954 61.336 144.111 61.6667 144.111 62.0908V62.4989C144.111 62.939 143.93 63.2671 143.572 63.4858C143.21 63.7046 142.697 63.8139 142.028 63.8139H136.835C136.436 63.8139 136.107 63.7819 135.852 63.7179C135.594 63.6539 135.392 63.5632 135.243 63.4458C135.094 63.3285 134.993 63.1871 134.935 63.0191C134.876 62.851 134.847 62.6563 134.847 62.4376V61.9334H133.457V62.611L133.455 62.6136Z" fill="white"></path><path fill-rule="evenodd" clip-rule="evenodd" d="M157.744 55.3476C156.984 55.3476 156.34 55.441 155.814 55.6277C155.285 55.8144 154.86 56.0758 154.531 56.4119C154.204 56.748 153.962 57.1481 153.808 57.6122C153.654 58.0763 153.577 58.5804 153.577 59.1219V61.2131C153.577 62.4401 153.917 63.3736 154.6 64.0111C155.283 64.6513 156.33 64.9687 157.746 64.9687H161.586C162.357 64.9687 163.008 64.8673 163.534 64.6673C164.063 64.4672 164.488 64.1925 164.818 63.8431C165.145 63.4937 165.381 63.0936 165.522 62.6428C165.663 62.192 165.734 61.7119 165.734 61.2104V59.1192C165.734 58.6284 165.668 58.1537 165.533 57.6949C165.397 57.2361 165.168 56.8333 164.847 56.4839C164.525 56.1345 164.098 55.8571 163.563 55.6517C163.029 55.4463 162.37 55.3423 161.586 55.3423H157.746L157.744 55.3476ZM154.982 61.2184V59.1272C154.982 58.1963 155.224 57.5348 155.705 57.1427C156.189 56.748 156.912 56.5506 157.876 56.5506H161.448C162.386 56.5506 163.104 56.7666 163.601 57.1987C164.095 57.6309 164.345 58.2683 164.345 59.1059V61.2184C164.345 62.1493 164.084 62.8108 163.563 63.2029C163.042 63.5977 162.338 63.7951 161.451 63.7951H157.879C155.95 63.7951 154.985 62.9362 154.985 61.2184H154.982Z" fill="white"></path><path d="M175.822 51.5332H174.433V64.9766H175.822V51.5332Z" fill="white"></path><path fill-rule="evenodd" clip-rule="evenodd" d="M188.841 64.9771H192.585C193.024 64.9771 193.398 64.9371 193.715 64.8597C194.031 64.7824 194.297 64.6864 194.515 64.569C194.733 64.4516 194.913 64.3263 195.054 64.1902C195.195 64.0542 195.312 63.9342 195.402 63.8328V64.9744H196.752V55.404H195.362V61.3895C195.362 61.803 195.285 62.1577 195.131 62.4538C194.977 62.7499 194.77 63.0006 194.515 63.2007C194.257 63.4007 193.962 63.5501 193.627 63.6461C193.292 63.7421 192.944 63.7901 192.585 63.7901H188.841C187.98 63.7901 187.302 63.5874 186.813 63.1793C186.324 62.7712 186.08 62.1551 186.08 61.3282V55.4014H184.671V61.2135C184.671 62.3898 184.998 63.31 185.655 63.9742C186.311 64.6383 187.371 64.9718 188.838 64.9718L188.841 64.9771Z" fill="white"></path><path fill-rule="evenodd" clip-rule="evenodd" d="M208.868 63.7949C208.288 63.7949 207.807 63.6242 207.419 63.2828C207.034 62.9414 206.84 62.3759 206.84 61.589V56.8038H214.021V55.4088H206.84V53.5684H205.45V55.4088H204.254V56.8038H205.45V61.413C205.45 62.64 205.756 63.5415 206.367 64.115C206.978 64.6885 207.81 64.9765 208.865 64.9765H211.626C212.256 64.9765 212.787 64.8965 213.218 64.7338C213.648 64.5711 213.999 64.3657 214.27 64.115C214.541 63.8643 214.733 63.5842 214.85 63.2828C214.967 62.9787 215.022 62.6906 215.022 62.4212H213.518C213.518 62.5386 213.489 62.6773 213.431 62.8373C213.372 63 213.268 63.1494 213.122 63.2935C212.973 63.4348 212.769 63.5549 212.506 63.6509C212.243 63.7469 211.911 63.7949 211.512 63.7949H208.868Z" fill="white"></path><path fill-rule="evenodd" clip-rule="evenodd" d="M224.414 55.4062H223.024V64.9766H224.414V55.4062ZM224.414 51.5332H223.024V52.9282H224.414V51.5332Z" fill="white"></path><path fill-rule="evenodd" clip-rule="evenodd" d="M237.145 55.3476C236.385 55.3476 235.742 55.441 235.216 55.6277C234.687 55.8144 234.262 56.0758 233.933 56.4119C233.606 56.748 233.364 57.1481 233.21 57.6122C233.056 58.0763 232.979 58.5804 232.979 59.1219V61.2131C232.979 62.4401 233.319 63.3736 234.002 64.0111C234.685 64.6513 235.732 64.9687 237.148 64.9687H240.988C241.759 64.9687 242.41 64.8673 242.936 64.6673C243.465 64.4672 243.89 64.1925 244.22 63.8431C244.546 63.4937 244.783 63.0936 244.924 62.6428C245.065 62.192 245.136 61.7119 245.136 61.2104V59.1192C245.136 58.6284 245.07 58.1537 244.934 57.6949C244.799 57.2361 244.57 56.8333 244.249 56.4839C243.927 56.1345 243.499 55.8571 242.965 55.6517C242.431 55.4463 241.772 55.3423 240.988 55.3423H237.148L237.145 55.3476ZM234.384 61.2184V59.1272C234.384 58.1963 234.626 57.5348 235.107 57.1427C235.591 56.748 236.314 56.5506 237.278 56.5506H240.85C241.788 56.5506 242.505 56.7666 243.002 57.1987C243.497 57.6309 243.746 58.2683 243.746 59.1059V61.2184C243.746 62.1493 243.486 62.8108 242.965 63.2029C242.444 63.5977 241.74 63.7951 240.853 63.7951H237.281C235.352 63.7951 234.387 62.9362 234.387 61.2184H234.384Z" fill="white"></path><path fill-rule="evenodd" clip-rule="evenodd" d="M261.166 55.4062H257.499C256.729 55.4062 256.123 55.5423 255.684 55.8144C255.246 56.0864 254.919 56.4678 254.701 56.956V55.4062H253.311V64.9766H254.701V59.2045C254.701 58.8178 254.773 58.463 254.913 58.1403C255.054 57.8175 255.248 57.5428 255.493 57.3161C255.737 57.0893 256.03 56.9133 256.37 56.7826C256.71 56.6546 257.087 56.5879 257.499 56.5879H261.166C261.99 56.5879 262.66 56.8146 263.173 57.2654C263.688 57.7162 263.943 58.3643 263.943 59.2019V64.974H265.333V59.4153C265.333 58.8738 265.262 58.359 265.121 57.8762C264.98 57.3907 264.743 56.9666 264.417 56.5985C264.09 56.2305 263.662 55.9397 263.133 55.7263C262.604 55.5129 261.95 55.4062 261.164 55.4062H261.166Z" fill="white"></path><path fill-rule="evenodd" clip-rule="evenodd" d="M273.587 62.6136C273.587 62.923 273.633 63.2218 273.723 63.5045C273.813 63.7872 273.978 64.0406 274.215 64.2594C274.454 64.4781 274.778 64.6541 275.19 64.7822C275.602 64.9102 276.128 64.9769 276.774 64.9769H282.198C283.393 64.9769 284.262 64.7608 284.802 64.3287C285.341 63.8966 285.612 63.3311 285.612 62.635V62.0935C285.612 61.2026 285.328 60.5624 284.762 60.1757C284.196 59.7889 283.391 59.5809 282.349 59.5569L276.79 59.4395C276.21 59.4262 275.764 59.3355 275.448 59.1674C275.131 58.9994 274.975 58.6953 274.975 58.2579V57.8498C274.975 56.9962 275.581 56.5721 276.79 56.5721H282.213C282.676 56.5721 283.043 56.6121 283.314 56.6895C283.585 56.7668 283.792 56.8708 283.941 56.9989C284.09 57.1269 284.183 57.2736 284.22 57.4337C284.26 57.5964 284.278 57.7591 284.278 57.9271V58.4126H285.668V57.7537C285.668 57.4817 285.62 57.2069 285.525 56.9295C285.429 56.6521 285.248 56.3961 284.985 56.164C284.722 55.9319 284.353 55.7399 283.874 55.5932C283.399 55.4438 282.78 55.3691 282.022 55.3691H276.928C275.782 55.3691 274.943 55.6012 274.409 56.0653C273.874 56.5294 273.609 57.1109 273.609 57.8098V58.2552C273.609 59.1327 273.898 59.7436 274.478 60.085C275.057 60.4264 275.86 60.6051 276.891 60.6185L282.429 60.7358C283.008 60.7492 283.454 60.8718 283.771 61.1039C284.087 61.336 284.244 61.6667 284.244 62.0908V62.4989C284.244 62.939 284.063 63.2671 283.704 63.4858C283.343 63.7046 282.83 63.8139 282.16 63.8139H276.968C276.569 63.8139 276.24 63.7819 275.984 63.7179C275.727 63.6539 275.525 63.5632 275.376 63.4458C275.227 63.3285 275.126 63.1871 275.068 63.0191C275.009 62.851 274.98 62.6563 274.98 62.4376V61.9334H273.59V62.611L273.587 62.6136Z" fill="white"></path></g><defs><clipPath id="clip0_2619_3580"><rect width="296" height="64" fill="white" transform="translate(0 0.976562)"></rect></clipPath></defs></svg>