<svg xmlns="http://www.w3.org/2000/svg" width="70" height="71" viewBox="0 0 70 71" fill="none"><rect y="0.5" width="70" height="70" rx="10" fill="url(#paint0_linear_3737_5124)"></rect><path d="M38.5 47.1562V40.125H42V47.1562H38.5ZM38.5 51.375V48.5625H42V51.375H38.5ZM0 14.8125H56V46.3213L52.5 40.6963V17.625H3.5V32.5005L15.75 22.6787L31.3906 35.2471L29.75 37.8838L15.75 26.6338L3.5 36.4995V45.75H24.8555L23.1055 48.5625H0V14.8125ZM43.75 23.25C43.276 23.25 42.8659 23.1108 42.5195 22.8325C42.1732 22.5542 42 22.2246 42 21.8438C42 21.4629 42.1732 21.1333 42.5195 20.855C42.8659 20.5767 43.276 20.4375 43.75 20.4375C44.224 20.4375 44.6341 20.5767 44.9805 20.855C45.3268 21.1333 45.5 21.4629 45.5 21.8438C45.5 22.2246 45.3268 22.5542 44.9805 22.8325C44.6341 23.1108 44.224 23.25 43.75 23.25ZM24.5 54.1875L40.25 28.875L56 54.1875H24.5ZM29.4492 51.7266H51.0508L40.25 34.3682L29.4492 51.7266Z" fill="white"></path><defs><linearGradient id="paint0_linear_3737_5124" x1="35" y1="0.5" x2="35" y2="70.5" gradientUnits="userSpaceOnUse"><stop stop-color="#921D41"></stop><stop offset="1" stop-color="#1D3792"></stop></linearGradient></defs></svg>