<svg xmlns="http://www.w3.org/2000/svg" width="70" height="70" viewBox="0 0 70 70" fill="none"><g clip-path="url(#clip0_3737_5137)"><rect width="70" height="70" rx="10" fill="url(#paint0_linear_3737_5137)"></rect><g clip-path="url(#clip1_3737_5137)"><path d="M37.5984 10.1054C37.3236 10.0874 37.0472 10.1345 36.7918 10.2428C36.5364 10.3511 36.3094 10.5175 36.1294 10.7283L25.223 24.5857L6.54878 27.3248C6.29933 27.3706 6.06184 27.4696 5.85281 27.6148C5.64378 27.7601 5.4682 27.9481 5.33825 28.1659L-5.06115 43.9525C-5.25237 44.2438 -5.35275 44.5834 -5.34942 44.9279C-5.34609 45.2724 -5.2392 45.6061 -5.04245 45.8862L15.0452 74.7977C15.2071 75.0281 15.4242 75.2144 15.6775 75.3402C15.9309 75.4661 16.2127 75.5276 16.4982 75.5194C16.7837 75.5112 17.0641 75.4335 17.3149 75.2932C17.5657 75.1529 17.7791 74.9543 17.9363 74.7147L27.9254 59.5062L46.5714 56.8495C46.848 56.8099 47.1123 56.7052 47.3422 56.5442C47.5003 56.4659 47.646 56.3647 47.7745 56.2438L59.1253 41.8265C59.3642 41.5224 59.4965 41.1502 59.5016 40.768C59.5067 40.3859 59.3842 40.0152 59.1533 39.7139L39.0558 10.7883C38.8892 10.5645 38.6695 10.3854 38.4156 10.2664C38.1616 10.1475 37.8812 10.0922 37.5984 10.1054ZM55.4732 40.7219L46.0334 52.723L43.7872 49.4902L41.4815 51.0922L43.4432 53.9156L27.1104 56.2419L25.4528 53.8562L23.147 55.4582L24.8341 57.8863L16.4562 70.6776L-1.51288 44.8154L6.86504 32.0241L9.17002 35.3416L11.4758 33.7395L9.18062 30.4362L25.5035 28.0957L27.5633 31.0603L29.8691 29.4582L28.0349 26.8184L37.4355 14.7608L55.4732 40.7219Z" fill="white"></path><path d="M29.7113 34.1519L32.0171 32.5498L35.7541 37.9284L33.4483 39.5304L29.7113 34.1519Z" fill="white"></path><path d="M35.5964 42.6221L37.9022 41.02L41.6392 46.3986L39.3335 48.0006L35.5964 42.6221Z" fill="white"></path><path d="M11.377 38.5181L13.6827 36.916L17.4197 42.2946L15.114 43.8966L11.377 38.5181Z" fill="white"></path><path d="M17.3307 47.0869L19.6365 45.4849L23.3146 50.7787L21.0089 52.3808L17.3307 47.0869Z" fill="white"></path></g></g><defs><linearGradient id="paint0_linear_3737_5137" x1="35" y1="0" x2="35" y2="70" gradientUnits="userSpaceOnUse"><stop stop-color="#921D41"></stop><stop offset="1" stop-color="#1D3792"></stop></linearGradient><clipPath id="clip0_3737_5137"><rect width="70" height="70" rx="10" fill="white"></rect></clipPath><clipPath id="clip1_3737_5137"><rect width="63.173" height="61.8838" fill="white" transform="translate(-16.8798 35) rotate(-34.7915)"></rect></clipPath></defs></svg>