<svg xmlns="http://www.w3.org/2000/svg" width="70" height="70" viewBox="0 0 70 70" fill="none"><rect width="70" height="70" rx="10" fill="url(#paint0_linear_3737_5142)"></rect><path d="M35 55.7999C37.8719 55.7999 40.2 53.4718 40.2 50.5999C40.2 47.728 37.8719 45.3999 35 45.3999C32.1282 45.3999 29.8 47.728 29.8 50.5999C29.8 53.4718 32.1282 55.7999 35 55.7999Z" fill="white"></path><path d="M51.64 39.1602C48.7545 35.6619 44.6822 33.3482 40.2 32.6602L49.04 41.5002L51.64 39.1602ZM58.4 30.8402C54.8486 26.5331 50.434 23.2868 45.5402 21.3837C40.6464 19.4806 35.4215 18.9782 30.32 19.9202L35 24.6002C38.711 24.7211 42.352 25.6435 45.6731 27.304C48.9941 28.9645 51.9166 31.3239 54.24 34.2202L58.4 30.8402ZM18.1 14.2002L14.2 17.8402L19.92 23.5602C16.7687 25.5176 13.9583 27.9766 11.6 30.8402L15.5 34.2202C17.8088 31.4488 20.6346 29.1528 23.82 27.4602L29.8 33.1802C26.4364 34.3307 23.4635 36.4027 21.22 39.1602L24.86 42.8002C25.9838 41.3418 27.3937 40.1283 29.0033 39.2341C30.6128 38.3399 32.388 37.7839 34.22 37.6002L51.9 55.8002L55.8 51.9002L18.1 14.2002Z" fill="white"></path><defs><linearGradient id="paint0_linear_3737_5142" x1="35" y1="0" x2="35" y2="70" gradientUnits="userSpaceOnUse"><stop stop-color="#921D41"></stop><stop offset="1" stop-color="#1D3792"></stop></linearGradient></defs></svg>