<svg xmlns="http://www.w3.org/2000/svg" width="71" height="70" viewBox="0 0 71 70" fill="none"><g clip-path="url(#clip0_3720_5115)"><rect x="0.687988" width="70" height="70" rx="10" fill="url(#paint0_linear_3720_5115)"></rect><g clip-path="url(#clip1_3720_5115)"><path d="M22.084 20.2612C11.3265 20.2612 2.58399 29.0037 2.58399 39.7612C2.58399 45.1562 4.79399 49.9987 8.30399 53.5412L12.919 48.9262C11.7005 47.7318 10.7335 46.3055 10.0749 44.7315C9.41624 43.1574 9.07932 41.4675 9.08398 39.7612C9.08398 32.5787 14.9015 26.7612 22.084 26.7612C29.2665 26.7612 35.084 32.5787 35.084 39.7612C35.084 43.3687 33.6215 46.5862 31.249 48.9262L35.864 53.5412C39.5211 49.8872 41.5784 44.931 41.584 39.7612C41.584 29.0037 32.8415 20.2612 22.084 20.2612ZM22.084 7.26123C4.14398 7.26123 -10.416 21.8212 -10.416 39.7612C-10.416 48.7312 -6.77602 56.8562 -0.893516 62.7387L3.72149 58.1237C1.29712 55.7203 -0.626266 52.8598 -1.93727 49.7078C-3.24828 46.5558 -3.92085 43.175 -3.91602 39.7612C-3.91602 25.3962 7.71898 13.7612 22.084 13.7612C30.3065 13.7612 37.619 17.5637 42.364 23.5112H50.229C44.6065 13.7937 34.109 7.26123 22.084 7.26123ZM22.084 33.2612C18.509 33.2612 15.584 36.1862 15.584 39.7612C15.584 41.5487 16.3315 43.1737 17.5015 44.3437C18.6715 45.5137 20.2965 46.2612 22.084 46.2612C23.8715 46.2612 25.4965 45.5137 26.6665 44.3437C27.8365 43.1737 28.584 41.5487 28.584 39.7612C28.584 36.1862 25.659 33.2612 22.084 33.2612ZM48.084 30.0112H54.584V49.5112H48.084V30.0112ZM48.084 56.0112H54.584V62.5112H48.084V56.0112Z" fill="white"></path></g></g><defs><linearGradient id="paint0_linear_3720_5115" x1="35.688" y1="0" x2="35.688" y2="70" gradientUnits="userSpaceOnUse"><stop stop-color="#921D41"></stop><stop offset="1" stop-color="#1D3792"></stop></linearGradient><clipPath id="clip0_3720_5115"><rect x="0.687988" width="70" height="70" rx="10" fill="white"></rect></clipPath><clipPath id="clip1_3720_5115"><rect width="78" height="78" fill="white" transform="translate(0.687988 -4)"></rect></clipPath></defs></svg>