<svg xmlns="http://www.w3.org/2000/svg" width="71" height="70" viewBox="0 0 71 70" fill="none"><g clip-path="url(#clip0_3720_5082)"><rect x="0.687988" width="70" height="70" rx="10" fill="url(#paint0_linear_3720_5082)"></rect><path d="M9.63799 17.1875H2.15674C0.739488 17.1875 -0.619716 17.7505 -1.62186 18.7526C-2.62401 19.7548 -3.18701 21.114 -3.18701 22.5312V40.3438C-3.18701 41.761 -2.62401 43.1202 -1.62186 44.1224C-0.619716 45.1245 0.739488 45.6875 2.15674 45.6875H7.50049V56.0116L19.2995 45.6875H34.2192C35.4752 45.6874 36.6909 45.2449 37.6531 44.4378C38.6154 43.6306 39.2625 42.5103 39.4811 41.2736C40.8679 40.1413 42.094 38.8253 43.1255 37.3619V40.3438C43.1255 41.5133 42.8951 42.6715 42.4475 43.752C42 44.8326 41.3439 45.8144 40.5169 46.6414C39.6899 47.4684 38.7081 48.1245 37.6275 48.5721C36.547 49.0196 35.3888 49.25 34.2192 49.25H20.639L9.72705 58.7975C9.22214 59.2389 8.60078 59.5255 7.93728 59.6231C7.27377 59.7207 6.5962 59.6251 5.98558 59.3478C5.37496 59.0705 4.85713 58.6232 4.49402 58.0593C4.1309 57.4955 3.93786 56.839 3.93799 56.1684V49.25H2.15674C-0.205346 49.25 -2.47069 48.3117 -4.14093 46.6414C-5.81118 44.9712 -6.74951 42.7058 -6.74951 40.3438V22.5312C-6.74951 20.1692 -5.81118 17.9038 -4.14093 16.2336C-2.47069 14.5633 -0.205346 13.625 2.15674 13.625H11.9785C11.0713 14.724 10.2865 15.9185 9.63799 17.1875ZM27.0942 42.125C31.346 42.125 35.4236 40.436 38.43 37.4296C41.4365 34.4231 43.1255 30.3455 43.1255 26.0938C43.1255 21.842 41.4365 17.7644 38.43 14.7579C35.4236 11.7515 31.346 10.0625 27.0942 10.0625C22.8425 10.0625 18.7649 11.7515 15.7584 14.7579C12.752 17.7644 11.063 21.842 11.063 26.0938C11.063 30.3455 12.752 34.4231 15.7584 37.4296C18.7649 40.436 22.8425 42.125 27.0942 42.125ZM25.313 18.9688C25.313 18.4963 25.5007 18.0433 25.8347 17.7092C26.1688 17.3752 26.6218 17.1875 27.0942 17.1875C27.5667 17.1875 28.0197 17.3752 28.3538 17.7092C28.6878 18.0433 28.8755 18.4963 28.8755 18.9688V26.0938C28.8755 26.5662 28.6878 27.0192 28.3538 27.3533C28.0197 27.6873 27.5667 27.875 27.0942 27.875C26.6218 27.875 26.1688 27.6873 25.8347 27.3533C25.5007 27.0192 25.313 26.5662 25.313 26.0938V18.9688ZM29.3208 33.2188C29.3208 33.8093 29.0862 34.3756 28.6687 34.7932C28.2511 35.2107 27.6848 35.4453 27.0942 35.4453C26.5037 35.4453 25.9374 35.2107 25.5198 34.7932C25.1023 34.3756 24.8677 33.8093 24.8677 33.2188C24.8677 32.6282 25.1023 32.0619 25.5198 31.6443C25.9374 31.2268 26.5037 30.9922 27.0942 30.9922C27.6848 30.9922 28.2511 31.2268 28.6687 31.6443C29.0862 32.0619 29.3208 32.6282 29.3208 33.2188Z" fill="white"></path></g><defs><linearGradient id="paint0_linear_3720_5082" x1="35.688" y1="0" x2="35.688" y2="70" gradientUnits="userSpaceOnUse"><stop stop-color="#921D41"></stop><stop offset="1" stop-color="#1D3792"></stop></linearGradient><clipPath id="clip0_3720_5082"><rect x="0.687988" width="70" height="70" rx="10" fill="white"></rect></clipPath></defs></svg>