<svg xmlns="http://www.w3.org/2000/svg" width="71" height="70" viewBox="0 0 71 70" fill="none"><g clip-path="url(#clip0_3720_5095)"><rect x="0.687988" width="70" height="70" rx="10" fill="url(#paint0_linear_3720_5095)"></rect><g clip-path="url(#clip1_3720_5095)"><path d="M57.8992 17.0902C57.8992 15.879 56.9111 14.8994 55.6945 14.8994L0.141676 14.8994C-1.07724 14.8994 -2.06298 15.8812 -2.06298 17.0902L-2.06298 48.9424C-2.06298 50.1536 -1.07493 51.1332 0.141676 51.1332L55.6922 51.1332C56.9111 51.1332 57.8969 50.1513 57.8969 48.9424V17.0902H57.8992ZM28.2043 15.8055C29.0216 15.8055 29.6841 16.4639 29.6841 17.276C29.6841 18.0881 29.0216 18.7465 28.2043 18.7465C27.3871 18.7465 26.7246 18.0881 26.7246 17.276C26.7246 16.4639 27.3871 15.8055 28.2043 15.8055ZM-0.172286 20.2674L56.2786 20.2674V46.0336H-0.172286L-0.172286 20.2674ZM38.4427 55.9643L40.0172 64.2847H59.5498L56.3986 55.9643L38.4404 55.9643H38.4427ZM20.4846 65.0899L18.9101 70.4579H31.8265L30.252 65.0899H20.4846ZM0.321742 55.9643L-2.82942 64.2847H38.1265L36.552 55.9643H0.321742ZM65.5358 69.8614L60.053 55.1408C59.4113 53.7093 58.4255 52.7436 56.4194 52.7436L-0.0129967 52.7436C-2.01912 52.7436 -2.93331 53.4983 -3.64665 54.9963L-9.12944 69.9945C-10.099 71.8641 -7.01481 76.8994 -4.40385 76.8994H60.8102C63.4212 76.8994 66.3992 71.6507 65.5358 69.8614ZM45.68 75.3854C44.8674 75.3854 44.2072 74.7293 44.2072 73.9218C44.2072 73.1143 44.8674 72.4582 45.68 72.4582C46.4926 72.4582 47.1529 73.1143 47.1529 73.9218C47.1529 74.7293 46.4926 75.3854 45.68 75.3854ZM50.7219 75.3854C49.9093 75.3854 49.249 74.7293 49.249 73.9218C49.249 73.1143 49.9093 72.4582 50.7219 72.4582C51.5345 72.4582 52.1947 73.1143 52.1947 73.9218C52.1947 74.7293 51.5345 75.3854 50.7219 75.3854ZM55.7638 75.3854C54.9488 75.3854 54.2909 74.7293 54.2909 73.9218C54.2909 73.1143 54.9511 72.4582 55.7638 72.4582C56.5764 72.4582 57.2366 73.1143 57.2366 73.9218C57.2366 74.7293 56.5764 75.3854 55.7638 75.3854ZM63.3058 70.7515C62.8371 71.2057 61.7429 71.7998 60.8125 71.7998H-4.40385C-5.37344 71.7998 -6.52078 71.208 -6.96172 70.7698C-7.13255 70.6001 -7.13255 70.3707 -7.06791 70.233L-1.57819 55.3197L-1.55511 55.4115C-0.857924 53.9456 -0.391598 54.0856 -0.0153055 54.0856L56.4194 54.0856C56.7287 54.0856 57.3036 53.9158 57.9476 55.3564L57.9753 55.3335L63.4628 70.2583C63.4974 70.3409 63.5182 70.545 63.3035 70.7538L63.3058 70.7515Z" fill="white"></path><path d="M8.61914 27.5806L21.4168 40.3979" stroke="white" stroke-width="3" stroke-linecap="round" stroke-linejoin="round"></path><path d="M21.4168 27.5806L8.61914 40.3979" stroke="white" stroke-width="3" stroke-linecap="round" stroke-linejoin="round"></path><path d="M31.8188 23.5161C37.4154 23.133 42.5385 24.6723 46.1666 28.3061C49.7947 31.9398 51.3317 37.0707 50.9492 42.6759" stroke="white" stroke-width="3" stroke-linecap="round" stroke-linejoin="round"></path><path d="M31.2207 31.2998C35.0923 30.6862 38.5183 31.4237 40.7859 33.6948C43.0535 35.9659 43.7899 39.3971 43.1772 43.2747" stroke="white" stroke-width="3" stroke-linecap="round" stroke-linejoin="round"></path></g></g><defs><linearGradient id="paint0_linear_3720_5095" x1="35.688" y1="0" x2="35.688" y2="70" gradientUnits="userSpaceOnUse"><stop stop-color="#921D41"></stop><stop offset="1" stop-color="#1D3792"></stop></linearGradient><clipPath id="clip0_3720_5095"><rect x="0.687988" width="70" height="70" rx="10" fill="white"></rect></clipPath><clipPath id="clip1_3720_5095"><rect width="75" height="62" fill="white" transform="translate(-9.31201)"></rect></clipPath></defs></svg>