<svg xmlns="http://www.w3.org/2000/svg" width="71" height="70" viewBox="0 0 71 70" fill="none"><g clip-path="url(#clip0_3720_5299)"><rect x="0.687988" width="70" height="70" rx="10" fill="url(#paint0_linear_3720_5299)"></rect><g clip-path="url(#clip1_3720_5299)"><path d="M12.8797 62.1212L19.1584 58.4962C19.7514 58.1538 20.1328 57.6657 20.3026 57.0319C20.4724 56.398 20.3859 55.7857 20.0429 55.1949C19.7006 54.6019 19.2125 54.2205 18.5786 54.0507C17.9448 53.8809 17.3325 53.9674 16.7417 54.3104L10.463 57.9354C9.87003 58.2777 9.48862 58.7658 9.31878 59.3997C9.14895 60.0335 9.2355 60.6458 9.57845 61.2366C9.92081 61.8296 10.4089 62.211 11.0427 62.3808C11.6766 62.5507 12.2889 62.4641 12.8797 62.1212ZM8.04635 53.7496L14.325 50.1246C14.918 49.7822 15.2994 49.2941 15.4693 48.6603C15.6391 48.0265 15.5525 47.4141 15.2096 46.8234C14.8672 46.2304 14.3791 45.849 13.7453 45.6791C13.1115 45.5093 12.4992 45.5958 11.9084 45.9388L5.62968 49.5638C5.03669 49.9062 4.65528 50.3943 4.48545 51.0281C4.31561 51.6619 4.40217 52.2742 4.74512 52.865C5.08748 53.458 5.57558 53.8394 6.20942 54.0093C6.84325 54.1791 7.45556 54.0925 8.04635 53.7496ZM21.7253 29.1089C21.1323 29.4512 20.7509 29.9393 20.5811 30.5732C20.4112 31.207 20.4978 31.8193 20.8407 32.4101L25.6741 40.7817C26.0164 41.3747 26.5045 41.7561 27.1384 41.9259C27.7722 42.0958 28.3845 42.0092 28.9753 41.6663C29.5683 41.3239 29.9497 40.8358 30.1195 40.202C30.2894 39.5681 30.2028 38.9558 29.8599 38.365L25.0265 29.9934C24.6842 29.4005 24.1961 29.019 23.5622 28.8492C22.9284 28.6794 22.3161 28.7659 21.7253 29.1089ZM3.21302 45.378L9.4917 41.753C10.0847 41.4106 10.4661 40.9225 10.6359 40.2887C10.8058 39.6549 10.7192 39.0426 10.3763 38.4518C10.0339 37.8588 9.5458 37.4774 8.91196 37.3075C8.27813 37.1377 7.66582 37.2243 7.07503 37.5672L0.796349 41.1922C0.203361 41.5346 -0.17805 42.0227 -0.347885 42.6565C-0.517721 43.2903 -0.431165 43.9027 -0.0882133 44.4934C0.254148 45.0864 0.742247 45.4678 1.37608 45.6377C2.00992 45.8075 2.62223 45.721 3.21302 45.378ZM11.4343 74.1177C10.2832 74.7823 9.06065 74.9412 7.76657 74.5945C6.47249 74.2477 5.49426 73.4991 4.83187 72.3486L-12.0848 43.0481C-12.7494 41.897 -12.9083 40.6744 -12.5615 39.3803C-12.2148 38.0863 -11.4662 37.108 -10.3157 36.4456L23.1706 17.1123C24.3217 16.4477 25.5443 16.2888 26.8384 16.6356C28.1325 16.9823 29.1107 17.7309 29.7731 18.8814L46.6898 48.182C47.3544 49.333 47.5133 50.5556 47.1665 51.8497C46.8198 53.1438 46.0711 54.122 44.9206 54.7844L11.4343 74.1177ZM9.01766 69.932L42.504 50.5986L25.5873 21.2981L-7.899 40.6314L9.01766 69.932ZM33.8086 50.0378C34.4016 49.6955 34.783 49.2074 34.9529 48.5735C35.1227 47.9397 35.0361 47.3274 34.6932 46.7366C34.3508 46.1436 33.8627 45.7622 33.2289 45.5924C32.5951 45.4225 31.9827 45.5091 31.392 45.852C30.799 46.1944 30.4176 46.6825 30.2477 47.3163C30.0779 47.9502 30.1644 48.5625 30.5074 49.1533C30.8498 49.7463 31.3379 50.1277 31.9717 50.2975C32.6055 50.4673 33.2178 50.3808 33.8086 50.0378Z" fill="white"></path></g></g><defs><linearGradient id="paint0_linear_3720_5299" x1="35.688" y1="0" x2="35.688" y2="70" gradientUnits="userSpaceOnUse"><stop stop-color="#921D41"></stop><stop offset="1" stop-color="#1D3792"></stop></linearGradient><clipPath id="clip0_3720_5299"><rect x="0.687988" width="70" height="70" rx="10" fill="white"></rect></clipPath><clipPath id="clip1_3720_5299"><rect width="58" height="58" fill="white" transform="translate(-22.312 35) rotate(-30)"></rect></clipPath></defs></svg>