<svg xmlns="http://www.w3.org/2000/svg" width="71" height="70" viewBox="0 0 71 70" fill="none"><g clip-path="url(#clip0_3720_5269)"><rect x="0.687988" width="70" height="70" rx="10" fill="url(#paint0_linear_3720_5269)"></rect><g clip-path="url(#clip1_3720_5269)"><path fill-rule="evenodd" clip-rule="evenodd" d="M48.3454 48.4045C52.1637 49.7268 54.1688 53.8103 55.3793 58.5205C53.8915 57.8514 52.2757 57.5275 50.6012 57.6125C49.6946 57.655 48.8041 57.9789 48.3774 58.7383C46.9803 57.7877 45.4711 56.9912 43.8713 56.3699L46.9429 50.9056L48.3508 48.4045H48.3454ZM25.8306 47.9531H27.4571C29.5742 50.1356 32.5819 52.0261 35.6695 52.0473C38.7785 52.0686 41.8128 50.1569 43.9299 47.9531H45.5351C45.5777 47.9531 45.6204 47.9531 45.6684 47.9531L41.3862 55.568C39.5624 55.0954 37.6533 54.8405 35.6802 54.8405C30.9767 54.8405 26.6039 56.2796 22.9936 58.7383C22.5616 57.9789 21.6764 57.655 20.7698 57.6125C19.09 57.5328 17.4795 57.8514 15.9917 58.5205C17.4635 52.7642 20.1299 47.9531 25.8306 47.9531Z" fill="white"></path><path fill-rule="evenodd" clip-rule="evenodd" d="M45.8604 30.9872C45.935 30.9819 46.0097 30.9766 46.0843 30.9766C46.159 30.9766 46.2336 30.9766 46.3083 30.9872H45.8604ZM25.0733 30.9872C25.148 30.9819 25.2226 30.9766 25.292 30.9766C25.3613 30.9766 25.4413 30.9766 25.5159 30.9872H25.068H25.0733ZM46.7722 38.5862C45.887 45.2452 40.101 50.4121 35.6908 50.3802C31.2806 50.3484 25.4999 45.2346 24.6094 38.5862C23.2175 38.2198 22.1616 36.7647 22.0977 34.9964C22.391 35.2938 22.7376 35.5381 23.1162 35.708C26.7905 37.3648 30.9127 39.1013 34.9976 39.2712C35.3815 39.2871 35.7655 39.2871 36.1548 39.2712C40.2343 39.0959 44.3565 37.3648 48.0361 35.708C48.5214 35.4903 48.964 35.1451 49.2893 34.7309C49.2893 34.7628 49.2893 34.7946 49.2893 34.8265C49.2893 36.6692 48.2121 38.2091 46.7722 38.5862Z" fill="white"></path><path fill-rule="evenodd" clip-rule="evenodd" d="M48.2706 61.0273C44.7884 58.3509 40.4262 56.7578 35.6854 56.7578C30.9446 56.7578 26.5824 58.3509 23.1001 61.0273C23.3827 61.3512 23.628 61.707 23.8307 62.1052C24.108 62.6469 24.2893 63.2151 24.3906 63.7992C26.6517 61.9194 29.3981 60.5865 32.4057 60.0236C32.6404 59.9811 32.8697 60.1245 32.9337 60.3529C33.1363 61.1282 33.2696 61.9141 33.323 62.7H38.0424C38.0958 61.9088 38.2238 61.1228 38.4317 60.3529C38.4904 60.1192 38.7197 59.9758 38.9597 60.0236C41.9727 60.5865 44.7137 61.9141 46.9748 63.7992C47.0761 63.2151 47.2574 62.6469 47.5347 62.1052C47.7374 61.707 47.9827 61.3459 48.2653 61.0273" fill="white"></path><path fill-rule="evenodd" clip-rule="evenodd" d="M38.5596 64.5H32.8109C32.4483 64.5 32.1443 64.7814 32.123 65.1425C32.0003 67.1339 31.4671 69.0827 30.5605 70.8617C29.9792 71.9981 29.2486 73.0601 28.3794 74H42.9911C42.1272 73.0601 41.3913 71.9981 40.81 70.8617C39.8981 69.0827 39.3702 67.1339 39.2475 65.1425C39.2262 64.7814 38.9222 64.5 38.5596 64.5Z" fill="white"></path><path fill-rule="evenodd" clip-rule="evenodd" d="M59.6027 68.6261C58.7654 74.3665 53.6193 74.7701 50.3077 69.5767C48.3453 66.502 47.8813 62.3972 51.4649 61.144L50.3344 60.1616C50.0997 59.9439 49.6305 59.5721 50.6917 59.5244C52.7181 59.4235 54.6326 60.0394 56.3284 61.2874C58.6961 63.0291 60.0506 65.5834 59.6027 68.6314" fill="white"></path><path fill-rule="evenodd" clip-rule="evenodd" d="M11.7735 68.6261C12.6108 74.3665 17.7569 74.7701 21.0632 69.5767C23.0256 66.502 23.4896 62.3972 19.906 61.144L21.0419 60.1616C21.2765 59.9439 21.7458 59.5721 20.6846 59.5244C18.6581 59.4235 16.7437 60.0394 15.0479 61.2874C12.6801 63.0291 11.3256 65.5834 11.7735 68.6314" fill="white"></path><path fill-rule="evenodd" clip-rule="evenodd" d="M35.6002 23.3987C37.104 23.3987 38.3252 24.6147 38.3252 26.1122C38.3252 27.6097 37.104 28.8257 35.6002 28.8257C34.0963 28.8257 32.8751 27.6097 32.8751 26.1122C32.8751 24.6147 34.0963 23.3987 35.6002 23.3987ZM23.2869 29.9515C21.0205 30.0843 20.3699 28.5708 21.9964 26.93C33.6591 17.637 37.664 17.7379 49.204 26.93C50.8252 28.5708 50.1799 30.079 47.9135 29.9515H47.4282V30.987H23.7775V29.9515H23.2922H23.2869Z" fill="white"></path><path fill-rule="evenodd" clip-rule="evenodd" d="M23.6759 32.4578C22.5187 32.4206 22.4174 33.78 23.7239 34.3695C28.4807 36.5148 31.819 37.6671 35.056 37.8052C35.4026 37.8211 35.7439 37.8211 36.0852 37.8052C39.3221 37.6671 42.6604 36.5148 47.4172 34.3695C48.7184 33.78 48.6224 32.4206 47.4652 32.4578H23.6759Z" fill="white"></path></g><path d="M49.2827 7.80664L61.4758 19.9998" stroke="white" stroke-width="3" stroke-linecap="round" stroke-linejoin="round"></path><path d="M61.4758 7.80664L49.2827 19.9998" stroke="white" stroke-width="3" stroke-linecap="round" stroke-linejoin="round"></path></g><defs><linearGradient id="paint0_linear_3720_5269" x1="35.688" y1="0" x2="35.688" y2="70" gradientUnits="userSpaceOnUse"><stop stop-color="#921D41"></stop><stop offset="1" stop-color="#1D3792"></stop></linearGradient><clipPath id="clip0_3720_5269"><rect x="0.687988" width="70" height="70" rx="10" fill="white"></rect></clipPath><clipPath id="clip1_3720_5269"><rect width="48" height="54" fill="white" transform="translate(11.688 20)"></rect></clipPath></defs></svg>