<svg xmlns="http://www.w3.org/2000/svg" width="71" height="70" viewBox="0 0 71 70" fill="none"><g clip-path="url(#clip0_3720_5302)"><rect x="0.687988" width="70" height="70" rx="10" fill="url(#paint0_linear_3720_5302)"></rect><path d="M11.938 11.125V32.375L18.313 28.125L24.688 32.375V11.125M2.37549 47.25C0.966526 47.25 -0.384729 47.8097 -1.38102 48.806C-2.3773 49.8023 -2.93701 51.1535 -2.93701 52.5625M-2.93701 52.5625C-2.93701 53.9715 -2.3773 55.3227 -1.38102 56.319C-0.384729 57.3153 0.966526 57.875 2.37549 57.875H37.438M-2.93701 52.5625V16.4375C-2.93701 15.0285 -2.3773 13.6773 -1.38102 12.681C-0.384729 11.6847 0.966526 11.125 2.37549 11.125H35.313V47.2649H2.35849M34.2505 47.25C32.8415 47.25 31.4903 47.8097 30.494 48.806C29.4977 49.8023 28.938 51.1535 28.938 52.5625C28.938 53.9715 29.4977 55.3227 30.494 56.319C31.4903 57.3153 32.8415 57.875 34.2505 57.875" stroke="white" stroke-width="4"></path></g><defs><linearGradient id="paint0_linear_3720_5302" x1="35.688" y1="0" x2="35.688" y2="70" gradientUnits="userSpaceOnUse"><stop stop-color="#921D41"></stop><stop offset="1" stop-color="#1D3792"></stop></linearGradient><clipPath id="clip0_3720_5302"><rect x="0.687988" width="70" height="70" rx="10" fill="white"></rect></clipPath></defs></svg>