<svg xmlns="http://www.w3.org/2000/svg" width="70" height="70" viewBox="0 0 70 70" fill="none"><rect width="70" height="70" rx="10" fill="url(#paint0_linear_3737_4975)"></rect><path d="M17 39L25 44L31 37L37 45L41 40L47 41L41 35L37 40L31 30L24 37.5L17 31V16.984C17 15.91 17.894 15 18.996 15H39V27C39 27.5304 39.2107 28.0391 39.5858 28.4142C39.9609 28.7893 40.4696 29 41 29H53V52.984C53.0021 53.2468 52.9524 53.5075 52.8537 53.7511C52.755 53.9946 52.6093 54.2164 52.4248 54.4036C52.2404 54.5909 52.0209 54.7399 51.7788 54.8422C51.5367 54.9446 51.2768 54.9982 51.014 55H18.986C18.4596 55 17.9548 54.791 17.5824 54.419C17.21 54.047 17.0005 53.5424 17 53.016V39ZM53 25H43V15.006L53 25Z" fill="white"></path><defs><linearGradient id="paint0_linear_3737_4975" x1="35" y1="0" x2="35" y2="70" gradientUnits="userSpaceOnUse"><stop stop-color="#921D41"></stop><stop offset="1" stop-color="#1D3792"></stop></linearGradient></defs></svg>