<svg xmlns="http://www.w3.org/2000/svg" width="70" height="70" viewBox="0 0 70 70" fill="none"><g clip-path="url(#clip0_3737_4969)"><rect width="70" height="70" rx="10" fill="url(#paint0_linear_3737_4969)"></rect><path d="M73.1667 47.9274C73.1667 47.5379 73.012 47.1643 72.7365 46.8888C72.4611 46.6134 72.0875 46.4587 71.698 46.4587H65.823C65.4334 46.4587 65.0598 46.6134 64.7844 46.8888C64.509 47.1643 64.3542 47.5379 64.3542 47.9274V61.1462H61.4167V29.3232C61.4167 27.8976 61.4128 26.9732 61.3227 26.2957C61.2365 25.6592 61.0975 25.4595 60.9859 25.3478C60.8742 25.2362 60.6745 25.0972 60.038 25.011C59.3585 24.9209 58.4361 24.917 57.0105 24.917C55.5848 24.917 54.6605 24.9209 53.9829 25.011C53.3464 25.0972 53.1467 25.2362 53.035 25.3478C52.9234 25.4595 52.7844 25.6592 52.6982 26.2957C52.6081 26.9752 52.6042 27.8976 52.6042 29.3232V61.1462H49.6667V38.1357C49.6667 37.7462 49.512 37.3726 49.2365 37.0972C48.9611 36.8217 48.5875 36.667 48.198 36.667H42.323C41.9334 36.667 41.5598 36.8217 41.2844 37.0972C41.009 37.3726 40.8542 37.7462 40.8542 38.1357V61.1462H37.4271C37.0376 61.1462 36.664 61.3009 36.3886 61.5763C36.1131 61.8518 35.9584 62.2254 35.9584 62.6149C35.9584 63.0044 36.1131 63.378 36.3886 63.6535C36.664 63.9289 37.0376 64.0837 37.4271 64.0837H76.5938C76.9833 64.0837 77.3569 63.9289 77.6324 63.6535C77.9078 63.378 78.0625 63.0044 78.0625 62.6149C78.0625 62.2254 77.9078 61.8518 77.6324 61.5763C77.3569 61.3009 76.9833 61.1462 76.5938 61.1462H73.1667V47.9274Z" fill="white"></path><path d="M21.0807 33.1248H25.0954V21.0807H21.0807V33.1248ZM23.0881 17.066C23.6568 17.066 24.1339 16.8733 24.5193 16.4879C24.9047 16.1025 25.0967 15.6261 25.0954 15.0587C25.0954 14.49 24.9027 14.0129 24.5173 13.6275C24.1319 13.2421 23.6555 13.05 23.0881 13.0514C22.5193 13.0514 22.0422 13.2441 21.6568 13.6295C21.2714 14.0149 21.0794 14.4913 21.0807 15.0587C21.0807 15.6274 21.2734 16.1045 21.6588 16.4899C22.0442 16.8753 22.5207 17.0674 23.0881 17.066ZM23.0881 43.1615C20.3112 43.1615 17.7017 42.6342 15.2594 41.5797C12.8172 40.5252 10.6927 39.0953 8.88612 37.29C7.07952 35.4834 5.64962 33.359 4.59643 30.9167C3.54325 28.4744 3.01599 25.8649 3.01465 23.0881C3.01465 20.3112 3.54191 17.7017 4.59643 15.2594C5.65096 12.8172 7.08085 10.6927 8.88612 8.88612C10.6927 7.07952 12.8172 5.64962 15.2594 4.59643C17.7017 3.54325 20.3112 3.01599 23.0881 3.01465C25.8649 3.01465 28.4744 3.54191 30.9167 4.59643C33.359 5.65096 35.4834 7.08085 37.29 8.88612C39.0966 10.6927 40.5272 12.8172 41.5817 15.2594C42.6362 17.7017 43.1628 20.3112 43.1615 23.0881C43.1615 25.8649 42.6342 28.4744 41.5797 30.9167C40.5252 33.359 39.0953 35.4834 37.29 37.29C35.4834 39.0966 33.359 40.5272 30.9167 41.5817C28.4744 42.6362 25.8649 43.1628 23.0881 43.1615ZM23.0881 39.1468C27.5711 39.1468 31.3683 37.5911 34.4797 34.4797C37.5911 31.3683 39.1468 27.5711 39.1468 23.0881C39.1468 18.605 37.5911 14.8078 34.4797 11.6964C31.3683 8.58502 27.5711 7.02933 23.0881 7.02933C18.605 7.02933 14.8078 8.58502 11.6964 11.6964C8.58502 14.8078 7.02933 18.605 7.02933 23.0881C7.02933 27.5711 8.58502 31.3683 11.6964 34.4797C14.8078 37.5911 18.605 39.1468 23.0881 39.1468Z" fill="white"></path><path fill-rule="evenodd" clip-rule="evenodd" d="M9.77246 33.288L34.4443 8.61621L36.9677 11.1396L12.2958 35.8114L9.77246 33.288Z" fill="white"></path></g><defs><linearGradient id="paint0_linear_3737_4969" x1="35" y1="0" x2="35" y2="70" gradientUnits="userSpaceOnUse"><stop stop-color="#921D41"></stop><stop offset="1" stop-color="#1D3792"></stop></linearGradient><clipPath id="clip0_3737_4969"><rect width="70" height="70" rx="10" fill="white"></rect></clipPath></defs></svg>