<svg xmlns="http://www.w3.org/2000/svg" width="70" height="70" viewBox="0 0 70 70" fill="none"><g clip-path="url(#clip0_3737_4980)"><rect width="70" height="70" rx="10" fill="url(#paint0_linear_3737_4980)"></rect><g clip-path="url(#clip1_3737_4980)"><path d="M53.9115 42.75C54.8619 42.75 55.7733 43.1275 56.4453 43.7995C57.1173 44.4715 57.4949 45.383 57.4949 46.3333V48.125C58.4452 48.125 59.3567 48.5025 60.0287 49.1745C60.7007 49.8465 61.0782 50.758 61.0782 51.7083V55.2917C61.0782 56.242 60.7007 57.1535 60.0287 57.8255C59.3567 58.4975 58.4452 58.875 57.4949 58.875V60.6667C57.4949 61.617 57.1173 62.5285 56.4453 63.2005C55.7733 63.8725 54.8619 64.25 53.9115 64.25H28.8282C27.8778 64.25 26.9664 63.8725 26.2944 63.2005C25.6224 62.5285 25.2449 61.617 25.2449 60.6667V46.3333C25.2449 45.383 25.6224 44.4715 26.2944 43.7995C26.9664 43.1275 27.8778 42.75 28.8282 42.75H53.9115ZM53.9115 46.3333H28.8282V60.6667H53.9115V46.3333ZM32.4115 48.125C32.8504 48.1251 33.2739 48.2862 33.6019 48.5778C33.9298 48.8694 34.1393 49.2712 34.1907 49.707L34.2032 49.9167V57.0833C34.2027 57.54 34.0278 57.9792 33.7144 58.3113C33.4009 58.6433 32.9724 58.8432 32.5165 58.8699C32.0607 58.8967 31.6118 58.7484 31.2616 58.4553C30.9114 58.1622 30.6864 57.7464 30.6324 57.293L30.6199 57.0833V49.9167C30.6199 49.4415 30.8086 48.9858 31.1446 48.6498C31.4806 48.3138 31.9364 48.125 32.4115 48.125ZM37.7865 48.125C38.2617 48.125 38.7174 48.3138 39.0534 48.6498C39.3894 48.9858 39.5782 49.4415 39.5782 49.9167V57.0833C39.5782 57.5585 39.3894 58.0142 39.0534 58.3502C38.7174 58.6862 38.2617 58.875 37.7865 58.875C37.3114 58.875 36.8556 58.6862 36.5196 58.3502C36.1836 58.0142 35.9949 57.5585 35.9949 57.0833V49.9167C35.9949 49.4415 36.1836 48.9858 36.5196 48.6498C36.8556 48.3138 37.3114 48.125 37.7865 48.125ZM43.1615 48.125C43.6004 48.1251 44.0239 48.2862 44.3519 48.5778C44.6798 48.8694 44.8893 49.2712 44.9407 49.707L44.9532 49.9167V57.0833C44.9527 57.54 44.7778 57.9792 44.4644 58.3113C44.1509 58.6433 43.7224 58.8432 43.2665 58.8699C42.8107 58.8967 42.3618 58.7484 42.0116 58.4553C41.6614 58.1622 41.4363 57.7464 41.3824 57.293L41.3699 57.0833V49.9167C41.3699 49.4415 41.5586 48.9858 41.8946 48.6498C42.2306 48.3138 42.6864 48.125 43.1615 48.125Z" fill="white"></path></g><path d="M21.0807 33.1248H25.0954V21.0807H21.0807V33.1248ZM23.0881 17.066C23.6568 17.066 24.1339 16.8733 24.5193 16.4879C24.9047 16.1025 25.0967 15.6261 25.0954 15.0587C25.0954 14.49 24.9027 14.0129 24.5173 13.6275C24.1319 13.2421 23.6555 13.05 23.0881 13.0514C22.5193 13.0514 22.0422 13.2441 21.6568 13.6295C21.2714 14.0149 21.0794 14.4913 21.0807 15.0587C21.0807 15.6274 21.2734 16.1045 21.6588 16.4899C22.0442 16.8753 22.5207 17.0674 23.0881 17.066ZM23.0881 43.1615C20.3112 43.1615 17.7017 42.6342 15.2594 41.5797C12.8172 40.5252 10.6927 39.0953 8.88612 37.29C7.07952 35.4834 5.64962 33.359 4.59643 30.9167C3.54325 28.4744 3.01599 25.8649 3.01465 23.0881C3.01465 20.3112 3.54191 17.7017 4.59643 15.2594C5.65096 12.8172 7.08085 10.6927 8.88612 8.88612C10.6927 7.07952 12.8172 5.64962 15.2594 4.59643C17.7017 3.54325 20.3112 3.01599 23.0881 3.01465C25.8649 3.01465 28.4744 3.54191 30.9167 4.59643C33.359 5.65096 35.4834 7.08085 37.29 8.88612C39.0966 10.6927 40.5272 12.8172 41.5817 15.2594C42.6362 17.7017 43.1628 20.3112 43.1615 23.0881C43.1615 25.8649 42.6342 28.4744 41.5797 30.9167C40.5252 33.359 39.0953 35.4834 37.29 37.29C35.4834 39.0966 33.359 40.5272 30.9167 41.5817C28.4744 42.6362 25.8649 43.1628 23.0881 43.1615ZM23.0881 39.1468C27.5711 39.1468 31.3683 37.5911 34.4797 34.4797C37.5911 31.3683 39.1468 27.5711 39.1468 23.0881C39.1468 18.605 37.5911 14.8078 34.4797 11.6964C31.3683 8.58502 27.5711 7.02933 23.0881 7.02933C18.605 7.02933 14.8078 8.58502 11.6964 11.6964C8.58502 14.8078 7.02933 18.605 7.02933 23.0881C7.02933 27.5711 8.58502 31.3683 11.6964 34.4797C14.8078 37.5911 18.605 39.1468 23.0881 39.1468Z" fill="white"></path><path fill-rule="evenodd" clip-rule="evenodd" d="M9.77246 33.288L34.4443 8.61621L36.9677 11.1396L12.2958 35.8114L9.77246 33.288Z" fill="white"></path></g><defs><linearGradient id="paint0_linear_3737_4980" x1="35" y1="0" x2="35" y2="70" gradientUnits="userSpaceOnUse"><stop stop-color="#921D41"></stop><stop offset="1" stop-color="#1D3792"></stop></linearGradient><clipPath id="clip0_3737_4980"><rect width="70" height="70" rx="10" fill="white"></rect></clipPath><clipPath id="clip1_3737_4980"><rect width="43" height="43" fill="white" transform="translate(21.6615 32)"></rect></clipPath></defs></svg>