<svg width="20" height="29" viewBox="0 0 20 29" fill="none" xmlns="http://www.w3.org/2000/svg">
<g clip-path="url(#clip0_697_26938)">
<path d="M19.5509 8.74529C19.1858 4.31742 15.8772 0.749714 11.6424 0.104932C11.1915 0.0358979 10.7311 0 10.2612 0C5.11103 0 0.9375 4.28152 0.9375 9.56265C0.9375 11.6282 1.57633 13.5418 2.66331 15.1061C2.66058 15.1061 2.65922 15.1061 2.65649 15.1075C3.01609 15.6294 3.42882 16.1113 3.88376 16.5476C5.08379 16.2286 6.2307 15.8434 7.20597 15.4044C8.9345 14.6284 10.1236 13.6854 10.1236 12.6471C10.1236 12.1183 9.81579 11.566 9.11294 10.9972C9.77221 12.6623 8.0464 13.6081 5.65452 14.3329C4.27197 13.0737 3.4043 11.2581 3.4043 9.23819C3.4043 5.43577 6.48133 2.35269 10.2776 2.35269C11.3046 2.35269 12.2785 2.57775 13.1543 2.98367C15.1144 3.8894 16.5774 5.69258 17.0146 7.86717C17.1059 8.31037 17.1522 8.76876 17.1522 9.23819C17.1522 9.70763 17.1045 10.1715 17.0146 10.6161C16.3131 9.35417 15.1894 8.36422 13.8381 7.84508C13.1598 7.58413 12.4256 7.44053 11.656 7.44053C11.656 7.44053 11.6533 7.44053 11.6519 7.44053C11.6506 7.44053 11.6492 7.44053 11.6478 7.44053C10.0392 7.44053 8.5749 8.06599 7.47976 9.09184C7.48385 9.09184 7.48793 9.09046 7.49202 9.08908C7.49202 9.08908 7.48929 9.09046 7.48793 9.09184C7.8271 8.98829 8.1867 8.93306 8.55856 8.93306C10.2517 8.93444 11.6819 10.0694 12.1546 11.6282C12.1709 11.7731 12.1804 11.9153 12.1804 12.0548C12.1804 12.11 12.1804 12.1653 12.1763 12.2205C12.1736 12.2688 12.1695 12.3171 12.1654 12.3655C12.1641 12.3889 12.1614 12.4124 12.1586 12.4359C12.1546 12.4759 12.1491 12.5159 12.1437 12.5546C12.1368 12.5974 12.13 12.6388 12.1219 12.6816C12.1164 12.712 12.111 12.741 12.1042 12.7714C12.0715 12.9191 12.0279 13.0655 11.9761 13.2077C11.9639 13.2436 11.9502 13.2781 11.9353 13.314C11.9298 13.3292 11.923 13.343 11.9175 13.3582C11.908 13.3816 11.8971 13.4037 11.8862 13.4272C11.874 13.459 11.859 13.4907 11.844 13.5211C11.8236 13.5625 11.8031 13.6039 11.7813 13.644C11.7663 13.673 11.7514 13.702 11.735 13.7296C11.6547 13.8718 11.5648 14.0112 11.464 14.1479C11.4313 14.1935 11.3972 14.239 11.3604 14.2832C11.2801 14.3854 11.1929 14.4862 11.1003 14.5856C11.0771 14.6118 11.0526 14.6381 11.0267 14.6629C10.8891 14.8051 10.7407 14.9432 10.5813 15.0785C10.5377 15.1158 10.4928 15.1531 10.4465 15.1903C10.4029 15.2262 10.3579 15.2608 10.313 15.2953C10.0487 15.4996 9.75858 15.6971 9.4453 15.8862C9.39354 15.918 9.34178 15.9497 9.28865 15.9801C9.2546 15.9994 9.22055 16.0201 9.18649 16.0395C9.16061 16.0547 9.13337 16.0698 9.10749 16.0836C9.07344 16.103 9.03939 16.1223 9.00533 16.1403C8.97945 16.1554 8.95221 16.1706 8.92633 16.1844C8.90726 16.1941 8.88819 16.2052 8.86912 16.2148C8.83371 16.2341 8.79829 16.2535 8.76288 16.27C8.74517 16.2811 8.72746 16.2908 8.70839 16.299C8.62666 16.3432 8.54357 16.3846 8.45912 16.4261C8.37467 16.4689 8.28886 16.5103 8.20168 16.5517C7.70451 16.7878 7.1692 17.0129 6.59847 17.2282C6.19937 17.3787 5.78392 17.5251 5.35213 17.6673C5.33987 17.6714 5.32897 17.6742 5.31671 17.6783C5.14236 17.735 4.96665 17.7916 4.78821 17.8468L5.27721 18.5178L10.0787 25.0996L10.0828 25.094L10.0869 25.0996L14.9128 18.9582C15.1049 18.7139 15.297 18.4709 15.4877 18.2265C15.8296 17.7916 16.2641 17.3304 16.606 16.8955C16.8144 16.6304 17.0214 16.3929 17.1971 16.1347C17.1998 16.1306 17.2039 16.1278 17.2067 16.1237C17.2448 16.0795 17.2802 16.0188 17.3129 15.9539C17.3756 15.8489 17.43 15.7371 17.4791 15.6197C17.49 15.6032 17.5009 15.5852 17.5118 15.5714C18.8085 13.9298 19.5836 11.8394 19.5836 9.56265C19.5836 9.2879 19.5727 9.01452 19.5495 8.74529H19.5509Z" fill="#705782"/>
<path d="M16.1067 25.0759C16.0876 25.1297 16.0658 25.1822 16.0413 25.2333C17.1392 25.5205 17.7998 25.8877 17.7998 26.2895C17.7998 27.2118 14.3073 27.9602 10.0003 27.9602C5.69327 27.9602 2.2008 27.2118 2.2008 26.2895C2.2008 25.856 2.97585 25.4611 4.23989 25.1656C4.23989 25.1656 4.23989 25.1629 4.23989 25.1615C4.23444 25.1159 4.22763 25.0704 4.22218 25.0234C1.66957 25.4197 0.000976562 26.0714 0.000976562 26.81C0.000976562 28.0209 4.47826 29.0012 10.0017 29.0012C15.5251 29.0012 20.001 28.0209 20.001 26.81C20.001 26.1031 18.474 25.4763 16.108 25.0773L16.1067 25.0759Z" fill="#705782"/>
<path d="M13.9897 24.891C13.9775 24.9242 13.9638 24.9559 13.9488 24.9877C14.634 25.1644 15.0467 25.3909 15.0467 25.6366C15.0467 26.2041 12.8646 26.6639 10.1744 26.6639C7.48423 26.6639 5.30211 26.2041 5.30211 25.6366C5.30211 25.3701 5.78566 25.1271 6.57569 24.9449C6.57569 24.9449 6.57569 24.9435 6.57569 24.9421C6.57161 24.9145 6.56752 24.8855 6.5648 24.8579C4.96976 25.1009 3.92773 25.5027 3.92773 25.9569C3.92773 26.7011 6.72416 27.3045 10.1744 27.3045C13.6247 27.3045 16.4211 26.7011 16.4211 25.9569C16.4211 25.522 15.4676 25.1368 13.9897 24.891Z" fill="#705782"/>
</g>
<defs>
<clipPath id="clip0_697_26938">
<rect width="20" height="29" fill="white"/>
</clipPath>
</defs>
</svg>
