<svg width="25" height="25" viewBox="0 0 25 25" fill="none" xmlns="http://www.w3.org/2000/svg">
<path d="M18.3458 17.0022L22.6247 21.2801L21.211 22.6937L16.9331 18.4148C15.3414 19.6908 13.3615 20.3849 11.3215 20.382C6.35822 20.382 2.33008 16.3538 2.33008 11.3906C2.33008 6.42732 6.35822 2.39917 11.3215 2.39917C16.2847 2.39917 20.3129 6.42732 20.3129 11.3906C20.3158 13.4306 19.6218 15.4105 18.3458 17.0022ZM16.3417 16.2609C17.6096 14.957 18.3176 13.2093 18.3148 11.3906C18.3148 7.52626 15.1848 4.39726 11.3215 4.39726C7.45717 4.39726 4.32817 7.52626 4.32817 11.3906C4.32817 15.2539 7.45717 18.3839 11.3215 18.3839C13.1402 18.3867 14.8879 17.6787 16.1918 16.4108L16.3417 16.2609Z" fill="white"/>
</svg>
