<svg xmlns="http://www.w3.org/2000/svg" width="149" height="44" viewBox="0 0 149 44" fill="none"><rect x="0.5" y="0.5" width="147.5" height="43" rx="4.5" fill="black"></rect><path d="M73.9793 23.3747C71.3921 23.3747 69.2834 25.3426 69.2834 28.053C69.2834 30.7469 71.3921 32.7313 73.9793 32.7313C76.5676 32.7313 78.6763 30.7469 78.6763 28.053C78.6752 25.3426 76.5665 23.3747 73.9793 23.3747ZM73.9793 30.8899C72.5614 30.8899 71.3393 29.7206 71.3393 28.0541C71.3393 26.37 72.5625 25.2183 73.9793 25.2183C75.3972 25.2183 76.6193 26.37 76.6193 28.0541C76.6193 29.7195 75.3972 30.8899 73.9793 30.8899ZM63.7339 23.3747C61.1467 23.3747 59.038 25.3426 59.038 28.053C59.038 30.7469 61.1467 32.7313 63.7339 32.7313C66.3222 32.7313 68.4309 30.7469 68.4309 28.053C68.4309 25.3426 66.3222 23.3747 63.7339 23.3747ZM63.7339 30.8899C62.316 30.8899 61.0939 29.7206 61.0939 28.0541C61.0939 26.37 62.3171 25.2183 63.7339 25.2183C65.1518 25.2183 66.3739 26.37 66.3739 28.0541C66.375 29.7195 65.1518 30.8899 63.7339 30.8899ZM51.5481 24.8113V26.7957H56.2979C56.156 27.9122 55.7842 28.7273 55.2166 29.2938C54.5258 29.9846 53.4445 30.7469 51.5481 30.7469C48.6243 30.7469 46.3385 28.3896 46.3385 25.4658C46.3385 22.542 48.6243 20.1847 51.5481 20.1847C53.1255 20.1847 54.2772 20.8051 55.1275 21.6026L56.5278 20.2023C55.3398 19.0682 53.7635 18.2003 51.5481 18.2003C47.543 18.2003 44.1759 21.4607 44.1759 25.4658C44.1759 29.4709 47.543 32.7313 51.5481 32.7313C53.7096 32.7313 55.3409 32.0218 56.6158 30.693C57.927 29.3818 58.3351 27.5382 58.3351 26.0499C58.3351 25.5901 58.2999 25.1644 58.2284 24.8102H51.5481V24.8113ZM101.387 26.3524C100.998 25.3074 99.8095 23.3747 97.3818 23.3747C94.9717 23.3747 92.9686 25.2711 92.9686 28.053C92.9686 30.6754 94.9541 32.7313 97.6117 32.7313C99.7556 32.7313 100.996 31.4201 101.511 30.6578L99.9162 29.5941C99.3849 30.374 98.6578 30.8877 97.6117 30.8877C96.5667 30.8877 95.822 30.4092 95.3435 29.4698L101.599 26.8826L101.387 26.3524ZM95.0069 27.9122C94.9541 26.1038 96.4072 25.1831 97.4533 25.1831C98.2684 25.1831 98.9592 25.5912 99.1902 26.1753L95.0069 27.9122ZM89.9216 32.4486H91.9764V18.6975H89.9216V32.4486ZM86.5534 24.4208H86.483C86.0221 23.8708 85.1355 23.3747 84.0201 23.3747C81.6804 23.3747 79.5365 25.4306 79.5365 28.0717C79.5365 30.6941 81.6804 32.7324 84.0201 32.7324C85.1366 32.7324 86.0221 32.2363 86.483 31.6698H86.5534V32.343C86.5534 34.1327 85.5964 35.0897 84.0553 35.0897C82.7969 35.0897 82.017 34.1866 81.698 33.4243L79.9083 34.169C80.422 35.4087 81.786 36.9333 84.0553 36.9333C86.4654 36.9333 88.5037 35.5154 88.5037 32.0592V23.6596H86.5545V24.4208H86.5534ZM84.1972 30.8899C82.7793 30.8899 81.5924 29.7019 81.5924 28.0717C81.5924 26.4228 82.7793 25.2183 84.1972 25.2183C85.5964 25.2183 86.6953 26.4228 86.6953 28.0717C86.6953 29.7019 85.5964 30.8899 84.1972 30.8899ZM111.016 18.6975H106.098V32.4486H108.15V27.239H111.015C113.29 27.239 115.527 25.5923 115.527 22.9688C115.527 20.3453 113.291 18.6975 111.016 18.6975ZM111.069 25.325H108.15V20.6115H111.069C112.604 20.6115 113.475 21.882 113.475 22.9688C113.475 24.0336 112.604 25.325 111.069 25.325ZM123.754 23.3505C122.268 23.3505 120.729 24.005 120.092 25.4559L121.914 26.216C122.303 25.4559 123.029 25.2073 123.79 25.2073C124.851 25.2073 125.93 25.8442 125.948 26.9761V27.118C125.576 26.9057 124.78 26.5878 123.807 26.5878C121.844 26.5878 119.844 27.6669 119.844 29.6832C119.844 31.5235 121.454 32.7082 123.258 32.7082C124.638 32.7082 125.399 32.0889 125.876 31.3629H125.947V32.4244H127.929V27.1521C127.93 24.7123 126.106 23.3505 123.754 23.3505ZM123.506 30.8866C122.835 30.8866 121.896 30.55 121.896 29.7184C121.896 28.6569 123.065 28.2499 124.073 28.2499C124.974 28.2499 125.4 28.4446 125.948 28.7097C125.788 29.9846 124.692 30.8866 123.506 30.8866ZM135.147 23.6508L132.794 29.6128H132.724L130.282 23.6508H128.071L131.733 31.9833L129.645 36.6187H131.785L137.429 23.6508H135.147ZM116.66 32.4486H118.712V18.6975H116.66V32.4486Z" fill="white"></path><path d="M51.1896 10.7157C51.1896 11.6375 50.9168 12.3712 50.3701 12.919C49.7497 13.5702 48.9401 13.8958 47.9457 13.8958C46.9931 13.8958 46.1824 13.5658 45.5169 12.9058C44.8503 12.2447 44.517 11.4263 44.517 10.4495C44.517 9.47165 44.8503 8.65325 45.5169 7.99325C46.1824 7.33215 46.9931 7.00215 47.9457 7.00215C48.4187 7.00215 48.8708 7.09455 49.2998 7.27825C49.7299 7.46305 50.0742 7.70835 50.3316 8.01525L49.7519 8.59605C49.3152 8.07355 48.7135 7.81285 47.9446 7.81285C47.2494 7.81285 46.6488 8.05705 46.1417 8.54545C45.6346 9.03385 45.3816 9.66855 45.3816 10.4484C45.3816 11.2283 45.6346 11.863 46.1417 12.3514C46.6488 12.8398 47.2494 13.084 47.9446 13.084C48.6816 13.084 49.2965 12.8387 49.7882 12.347C50.1072 12.0269 50.292 11.5814 50.3415 11.0105H47.9446V10.2174H51.1423C51.1753 10.3901 51.1896 10.5562 51.1896 10.7157Z" fill="white"></path><path d="M56.2607 7.95921H53.2555V10.0514H55.9659V10.8445H53.2555V12.9367H56.2607V13.7485H52.4074V7.14851H56.2607V7.95921Z" fill="white"></path><path d="M59.8366 13.7485H58.9885V7.95921H57.1449V7.14851H61.6802V7.95921H59.8366V13.7485Z" fill="white"></path><path d="M64.9615 13.7485V7.14851H65.8096V13.7485H64.9615Z" fill="white"></path><path d="M69.5707 13.7485H68.7226V7.95921H66.879V7.14851H71.4143V7.95921H69.5707V13.7485Z" fill="white"></path><path d="M79.9995 12.896C79.3505 13.5626 78.5442 13.8959 77.5795 13.8959C76.6148 13.8959 75.8085 13.5626 75.1606 12.896C74.5116 12.2294 74.1882 11.4132 74.1882 10.4485C74.1882 9.4838 74.5116 8.6676 75.1606 8.001C75.8085 7.3344 76.6148 7 77.5795 7C78.5387 7 79.3439 7.3355 79.9951 8.0054C80.6463 8.6753 80.9719 9.4893 80.9719 10.4485C80.9719 11.4132 80.6474 12.2294 79.9995 12.896ZM75.7865 12.3427C76.2749 12.8377 76.8722 13.0841 77.5795 13.0841C78.2868 13.0841 78.8852 12.8366 79.3725 12.3427C79.8609 11.8477 80.1062 11.2163 80.1062 10.4485C80.1062 9.6807 79.8609 9.0493 79.3725 8.5543C78.8852 8.0593 78.2868 7.8129 77.5795 7.8129C76.8722 7.8129 76.2749 8.0604 75.7865 8.5543C75.2992 9.0493 75.0539 9.6807 75.0539 10.4485C75.0539 11.2163 75.2992 11.8477 75.7865 12.3427Z" fill="white"></path><path d="M82.1622 13.7485V7.14851H83.194L86.4016 12.2822H86.4379L86.4016 11.0106V7.14851H87.2497V13.7485H86.3642L83.0081 8.36511H82.9718L83.0081 9.63671V13.7485H82.1622Z" fill="white"></path><path d="M51.1896 10.7157C51.1896 11.6375 50.9168 12.3712 50.3701 12.919C49.7497 13.5702 48.9401 13.8958 47.9457 13.8958C46.9931 13.8958 46.1824 13.5658 45.5169 12.9058C44.8503 12.2447 44.517 11.4263 44.517 10.4495C44.517 9.47165 44.8503 8.65325 45.5169 7.99325C46.1824 7.33215 46.9931 7.00215 47.9457 7.00215C48.4187 7.00215 48.8708 7.09455 49.2998 7.27825C49.7299 7.46305 50.0742 7.70835 50.3316 8.01525L49.7519 8.59605C49.3152 8.07355 48.7135 7.81285 47.9446 7.81285C47.2494 7.81285 46.6488 8.05705 46.1417 8.54545C45.6346 9.03385 45.3816 9.66855 45.3816 10.4484C45.3816 11.2283 45.6346 11.863 46.1417 12.3514C46.6488 12.8398 47.2494 13.084 47.9446 13.084C48.6816 13.084 49.2965 12.8387 49.7882 12.347C50.1072 12.0269 50.292 11.5814 50.3415 11.0105H47.9446V10.2174H51.1423C51.1753 10.3901 51.1896 10.5562 51.1896 10.7157Z" stroke="white" stroke-width="0.2" stroke-miterlimit="10"></path><path d="M56.2607 7.95921H53.2555V10.0514H55.9659V10.8445H53.2555V12.9367H56.2607V13.7485H52.4074V7.14851H56.2607V7.95921Z" stroke="white" stroke-width="0.2" stroke-miterlimit="10"></path><path d="M59.8366 13.7485H58.9885V7.95921H57.1449V7.14851H61.6802V7.95921H59.8366V13.7485Z" stroke="white" stroke-width="0.2" stroke-miterlimit="10"></path><path d="M64.9615 13.7485V7.14851H65.8096V13.7485H64.9615Z" stroke="white" stroke-width="0.2" stroke-miterlimit="10"></path><path d="M69.5707 13.7485H68.7226V7.95921H66.879V7.14851H71.4143V7.95921H69.5707V13.7485Z" stroke="white" stroke-width="0.2" stroke-miterlimit="10"></path><path d="M79.9995 12.896C79.3505 13.5626 78.5442 13.8959 77.5795 13.8959C76.6148 13.8959 75.8085 13.5626 75.1606 12.896C74.5116 12.2294 74.1882 11.4132 74.1882 10.4485C74.1882 9.4838 74.5116 8.6676 75.1606 8.001C75.8085 7.3344 76.6148 7 77.5795 7C78.5387 7 79.3439 7.3355 79.9951 8.0054C80.6463 8.6753 80.9719 9.4893 80.9719 10.4485C80.9719 11.4132 80.6474 12.2294 79.9995 12.896ZM75.7865 12.3427C76.2749 12.8377 76.8722 13.0841 77.5795 13.0841C78.2868 13.0841 78.8852 12.8366 79.3725 12.3427C79.8609 11.8477 80.1062 11.2163 80.1062 10.4485C80.1062 9.6807 79.8609 9.0493 79.3725 8.5543C78.8852 8.0593 78.2868 7.8129 77.5795 7.8129C76.8722 7.8129 76.2749 8.0604 75.7865 8.5543C75.2992 9.0493 75.0539 9.6807 75.0539 10.4485C75.0539 11.2163 75.2992 11.8477 75.7865 12.3427Z" stroke="white" stroke-width="0.2" stroke-miterlimit="10"></path><path d="M82.1622 13.7485V7.14851H83.194L86.4016 12.2822H86.4379L86.4016 11.0106V7.14851H87.2497V13.7485H86.3642L83.0081 8.36511H82.9718L83.0081 9.63671V13.7485H82.1622Z" stroke="white" stroke-width="0.2" stroke-miterlimit="10"></path><path fill-rule="evenodd" clip-rule="evenodd" d="M10.5129 7.47039C10.1872 7.82045 10 8.35923 10 9.05934V33.962C10 34.6622 10.1872 35.2009 10.5251 35.5388L10.6134 35.6134L24.5669 21.6598V21.3463L10.6012 7.39581L10.5129 7.47039Z" fill="url(#paint0_linear_704_465)"></path><path fill-rule="evenodd" clip-rule="evenodd" d="M29.2089 26.3293L24.5547 21.6735V21.3478L29.2104 16.6921L29.3109 16.7545L34.8174 19.8837C36.3942 20.7725 36.3942 22.2367 34.8174 23.1377L29.3109 26.2669C29.3094 26.2669 29.2089 26.3293 29.2089 26.3293Z" fill="url(#paint1_linear_704_465)"></path><path fill-rule="evenodd" clip-rule="evenodd" d="M29.3093 26.2668L24.5546 21.5106L10.5128 35.5524C11.0257 36.1034 11.8887 36.1658 12.8536 35.627L29.3093 26.2668Z" fill="url(#paint2_linear_704_465)"></path><path fill-rule="evenodd" clip-rule="evenodd" d="M29.3093 16.7559L12.8536 7.40791C11.8902 6.85695 11.0257 6.93153 10.5128 7.48248L24.5531 21.5106L29.3093 16.7559Z" fill="url(#paint3_linear_704_465)"></path><path opacity="0.2" fill-rule="evenodd" clip-rule="evenodd" d="M29.209 26.1664L12.866 35.452C11.9528 35.9771 11.1385 35.9406 10.6134 35.4642L10.5251 35.5525L10.6134 35.627C11.1385 36.1019 11.9528 36.1399 12.866 35.6149L29.3216 26.2668L29.209 26.1664Z" fill="black"></path><path opacity="0.12" fill-rule="evenodd" clip-rule="evenodd" d="M34.8159 22.9748L29.1968 26.1664L29.2972 26.2668L34.8038 23.1376C35.5922 22.6871 35.9803 22.0996 35.9803 21.5106C35.93 22.0494 35.5298 22.5623 34.8159 22.9748Z" fill="black"></path><path opacity="0.25" fill-rule="evenodd" clip-rule="evenodd" d="M12.8537 7.57081L34.8159 20.048C35.5298 20.4483 35.93 20.9734 35.9924 21.5122C35.9924 20.9247 35.6043 20.3357 34.8159 19.8852L12.8537 7.40795C11.2769 6.50694 10 7.25728 10 9.05931V9.22216C10 7.42013 11.2769 6.68197 12.8537 7.57081Z" fill="white"></path><rect x="0.5" y="0.5" width="147.5" height="43" rx="4.5" stroke="#4F4F4F"></rect><defs><linearGradient id="paint0_linear_704_465" x1="23.3139" y1="8.79166" x2="0.962768" y2="14.7472" gradientUnits="userSpaceOnUse"><stop stop-color="#00A0FF"></stop><stop offset="0.007" stop-color="#00A1FF"></stop><stop offset="0.26" stop-color="#00BEFF"></stop><stop offset="0.512" stop-color="#00D2FF"></stop><stop offset="0.76" stop-color="#00DFFF"></stop><stop offset="1" stop-color="#00E3FF"></stop></linearGradient><linearGradient id="paint1_linear_704_465" x1="36.8692" y1="21.5114" x2="9.61674" y2="21.5114" gradientUnits="userSpaceOnUse"><stop stop-color="#FFE000"></stop><stop offset="0.409" stop-color="#FFBD00"></stop><stop offset="0.775" stop-color="#FFA500"></stop><stop offset="1" stop-color="#FF9C00"></stop></linearGradient><linearGradient id="paint2_linear_704_465" x1="26.7239" y1="24.098" x2="8.78026" y2="54.2983" gradientUnits="userSpaceOnUse"><stop stop-color="#FF3A44"></stop><stop offset="1" stop-color="#C31162"></stop></linearGradient><linearGradient id="paint3_linear_704_465" x1="6.97814" y1="-0.813537" x2="14.9833" y2="12.6744" gradientUnits="userSpaceOnUse"><stop stop-color="#32A071"></stop><stop offset="0.069" stop-color="#2DA771"></stop><stop offset="0.476" stop-color="#15CF74"></stop><stop offset="0.801" stop-color="#06E775"></stop><stop offset="1" stop-color="#00F076"></stop></linearGradient></defs></svg>