<svg width="1919" height="822" viewBox="0 0 1919 822" fill="none" xmlns="http://www.w3.org/2000/svg">
<g clip-path="url(#clip0_654_22566)">
<rect width="1926" height="822" transform="translate(-7)" fill="url(#paint0_linear_654_22566)" fill-opacity="0.66"/>
<g opacity="0.88" clip-path="url(#clip1_654_22566)">
<path d="M1462.97 488.374L1364.53 464.503L973.553 474.657L971.848 474.391L589.229 418.302L467.513 358.704L216.678 311.705L226.532 305.645L479.232 352.643L600.362 411.337L974.991 465.885L1365.44 455.837L1459.67 478.485L1726.65 424.416L1739.06 431.965L1462.97 488.374Z" fill="url(#paint1_linear_654_22566)"/>
<path d="M68.3278 877.279L61.1367 875.684L289.334 650.847L592.212 414.208L743.491 284.272L806.719 189L811.513 189.372L748.551 284.91L597.485 415.325L295.513 652.283L68.3278 877.279Z" fill="url(#paint2_linear_654_22566)"/>
<path d="M633.867 979.037L625.504 977.389L763.093 739.899L971.262 469.713L1074.01 308.303L1110.45 205.162L1115.46 205.587L1079.45 308.941L977.335 470.723L770.285 741.335L633.867 979.037Z" fill="url(#paint3_linear_654_22566)"/>
<path d="M1618.89 1054L1372.79 929.965L1373.27 928.264L1448.96 662.597L1362.03 460.568L1075.29 309.685L745.836 285.761L596.314 294.586L459.471 304.315L277.35 285.016L279.747 282.996L460.429 302.082L595.888 292.46L746.102 283.634H746.528L1078.12 307.665L1367.94 459.718L1456.53 663.66L1382.43 928.53L1623.31 1049.48L1618.89 1054Z" fill="url(#paint4_linear_654_22566)"/>
<path d="M766.449 742.77L765.437 742.557L290.08 653.08L130.651 596.246L40.3625 553.076L-15.1953 466.629L-8.80323 465.141L46.9677 551.109L135.977 593.375L294.714 649.731L767.088 738.304L1217.36 686.627L1451.25 661.108L1616.76 623.308L1618.25 623.573L1893 678.812L1892.68 682.427L1618.83 627.242L1454.93 664.776L1219.86 690.562L766.449 742.77Z" fill="url(#paint5_linear_654_22566)"/>
<path d="M227.384 913.75L219.607 912.368L406.895 673.071L690.277 428.563L835.058 290.918L875.008 215.795L879.962 216.168L840.225 291.556L695.764 429.68L413.394 674.4L227.384 913.75Z" fill="url(#paint6_linear_654_22566)"/>
<path d="M459.044 926.35L451.054 924.862L597.592 708.851L835.59 449.829L957.732 299.85L990.225 221.325L995.233 221.697L963.059 300.435L841.397 450.893L604.464 710.233L459.044 926.35Z" fill="url(#paint7_linear_654_22566)"/>
<path d="M798.09 893.494L877.725 726.767L917.675 665.308L838.2 647.391L683.406 619.958L506.132 591.142L360.073 562.646L272.448 533.245L191.908 510.172H157.391L160.694 482.951L78.9814 417.823L84.681 416.175L167.352 481.675L164.369 507.088H195.051L195.69 507.248L276.923 530.481L364.068 559.615L509.115 587.846L685.909 616.502L840.757 643.882L926.891 663.235L884.969 728.096L809.969 887.008L934.401 874.035L1156.05 819.594L1320.54 852.184H1460.15L1486.73 719.058L1577.55 701.939L1579.15 702.364L1831.21 767.066L1830.04 771.001L1578.99 706.352L1494.13 722.408L1467.93 857.129L1319.9 856.969L1157.27 824.698L936.532 879.033L798.09 893.494Z" fill="url(#paint8_linear_654_22566)"/>
<path d="M1317.82 563.071L1297.84 508.258L934.348 523.57L933.762 523.516L789.514 504.27L637.596 477.263L537.56 458.92L405.564 404.107L181.042 361.575L184.504 359.342L409.505 401.874L409.825 401.98L541.715 456.581L640.259 474.551L791.645 501.4L934.721 520.38L1303.12 504.908L1323.15 559.084L1404.01 551.694L1548.68 530.428L1699.48 477.741L1704.54 480.24L1552.57 533.405L1406.94 554.884L1317.82 563.071Z" fill="url(#paint9_linear_654_22566)"/>
<path d="M916.61 666.903L986.923 562.752H904.678L904.519 559.403H1323.31L1345.47 619.48L916.61 666.903ZM994.221 562.752L927.956 661.693L1337.26 616.556L1317.66 562.805H994.167L994.221 562.752Z" fill="url(#paint10_linear_654_22566)"/>
<path d="M1152.8 822.571L1091.22 703.215L1058.25 648.721L1058.51 648.242L1100.01 560.785L1081.05 466.895L1081.69 466.47L1214.91 381.086L1355.16 377.205L1497.06 311.174L1501.75 312.769L1358.68 379.651L1218.69 383.479L1087.6 467.905L1106.77 561.583L1065.81 648.933L1098.41 702.364L1160.57 821.721L1152.8 822.571Z" fill="url(#paint11_linear_654_22566)"/>
<path d="M1861.04 600.5L1653.67 566.846L1532.17 468.862L1466.38 423.938L1360.17 381.299L1368.16 460.356L1361.82 459.931L1353.67 375.557L1471.12 422.715L1537.55 467.905L1657.56 564.241L1860.93 597.203L1861.04 600.5Z" fill="url(#paint12_linear_654_22566)"/>
<path d="M1839.15 548.344L1686.27 533.245L1586.34 457.857L1555.13 431.009L1460.42 389.38L1545 346.104L1550.01 347.805L1468.46 389.646L1560.35 430.105L1591.83 457.113L1689.63 530.534L1838.13 545.155L1839.15 548.344Z" fill="url(#paint13_linear_654_22566)"/>
<path d="M1770.06 927.945L1576.17 869.251L1574.46 703.162L1614.15 624.371L1652.18 564.666L1684.57 531.066L1698.89 477.635L1781.3 472.212L1784.34 475.083L1705.18 480.346L1691.22 532.874L1658.94 566.58L1621.34 626.232L1582.19 704.917L1584.8 866.805L1771.76 923.267L1770.06 927.945Z" fill="url(#paint14_linear_654_22566)"/>
<path d="M1303.76 506.557H1297.26L1281.12 462.217L1279.79 416.813L1285.91 417.186L1287.4 462.483L1303.76 506.557Z" fill="url(#paint15_linear_654_22566)"/>
<path d="M-235.455 629.262L-237 626.179L42.7066 550.843L159.202 507.514L162.611 509.747L45.37 553.395L-235.455 629.262Z" fill="url(#paint16_linear_654_22566)"/>
<path d="M230.367 496.88L224.721 495.923L286.777 444.353L405.35 402.246L470.39 355.514L457.179 303.465V258.593L383.404 229.671L387.452 228.289L462.453 257.583L462.719 303.04L476.355 355.78L409.239 403.947L291.465 445.895L230.367 496.88Z" fill="url(#paint17_linear_654_22566)"/>
<path d="M397.254 520.539L304.676 497.093L332.428 478.326L337.595 479.655L313.891 495.711L395.763 516.392L466.715 466.364L394.964 440.685L351.551 467.959L286.884 446.267L176.035 404.054L180.669 401.927L291.412 443.981L350.912 463.865L394.378 436.644L475.131 465.46L397.254 520.539Z" fill="url(#paint18_linear_654_22566)"/>
<path d="M613.892 497.837L510.767 480.24L468.898 467.108L472.947 464.662L514.548 477.688L616.502 494.966L613.892 497.837Z" fill="url(#paint19_linear_654_22566)"/>
<path d="M1217.41 383.532L1032.57 379.651L773.694 352.696L678.825 341.797L549.119 297.298L531.487 248.917L531.594 248.705L560.944 205.269L565.791 205.534L536.814 248.811L554.232 296.075L682.127 339.777L775.238 350.357L908.14 364.18L1033 377.205L1216.5 381.033L1352.02 377.312L1235.2 300.009L1236.32 299.478L1348.93 247.482L1353.3 248.917L1241.86 300.488L1361.82 379.545L1217.41 383.532Z" fill="url(#paint20_linear_654_22566)"/>
<path d="M1077.32 309.739L1076.09 307.559L1234.19 299.371L1172.51 258.381L1214.48 217.709L1219.28 218.56L1178.31 258.434L1242.87 301.126L1077.32 309.739Z" fill="url(#paint21_linear_654_22566)"/>
<path d="M1490.89 722.78L1436.39 719.058L1294.86 681.311L1252.41 627.72L1203.35 464.609L1148.96 426.064L1007.86 418.302L642.763 373.377L581.239 352.908L473.267 356.843L473.533 354.45L583.423 350.463L645.746 371.144L1008.66 415.697L1152.27 423.565L1209.42 463.918L1259.44 627.507L1300.35 678.652L1437.83 715.177L1489.98 718.633L1490.89 722.78Z" fill="url(#paint22_linear_654_22566)"/>
<path d="M1337.63 806.994L1207.77 779.667L1175.44 726.767L1182.68 725.864L1213.79 776.318L1331.88 801.093L1371.51 730.276L1377.96 701.727L1385.52 703.003L1379.13 731.924L1337.63 806.994Z" fill="url(#paint23_linear_654_22566)"/>
<path d="M1255.98 841.977L1247.93 840.116L1270.04 790.353L1277.87 792.161L1255.98 841.977Z" fill="url(#paint24_linear_654_22566)"/>
<path d="M1034.38 851.972L1011.05 814.012L1095.85 802.262L1060.91 733.413L978.347 743.089L966.521 716.985L1044.5 560.52L1051.11 561.583L974.352 717.251L983.887 737.985L1066.13 728.416L1105.87 805.771L1021.65 817.521L1042.11 850.59L1034.38 851.972Z" fill="url(#paint25_linear_654_22566)"/>
<path d="M-107.347 721.929L-111.981 719.484L130.864 593.748L255.616 526.175L306.806 495.658L311.76 497.2L260.464 527.876L135.552 595.715L-107.347 721.929Z" fill="url(#paint26_linear_654_22566)"/>
<path d="M43.2391 777.806L37.0068 775.945L228.023 628.784L337.168 552.917L394.004 517.668L399.065 519.263L342.442 554.565L233.776 630.378L43.2391 777.806Z" fill="url(#paint27_linear_654_22566)"/>
<path d="M224.988 467.108L172.732 447.756L230.634 422.768L326.515 387.36L395.177 341.053L457.713 302.721L462.24 303.678L399.918 342.01L330.404 388.955L234.309 424.576L182.107 447.171L229.728 464.715L224.988 467.108Z" fill="url(#paint28_linear_654_22566)"/>
<path d="M579.642 352.218L549.492 321.382L554.712 320.372L585.022 351.154L579.642 352.218Z" fill="url(#paint29_linear_654_22566)"/>
<path d="M881.72 591.143L731.826 567.112L565.738 539.572L568.455 536.489L734.17 563.922L883.691 587.846L881.72 591.143Z" fill="url(#paint30_linear_654_22566)"/>
<path d="M1162.23 638.566L1155.03 637.716L1165.79 589.123L1172.72 589.92L1162.23 638.566Z" fill="url(#paint31_linear_654_22566)"/>
<path d="M1614.31 625.434L1547.62 532.023L1554.06 531.757L1621.23 625.115L1614.31 625.434Z" fill="url(#paint32_linear_654_22566)"/>
<path d="M1544.85 642.766H1537.65L1458.13 483.43H1464.52L1544.85 642.766Z" fill="url(#paint33_linear_654_22566)"/>
<path d="M1148.38 347.327L1148 347.273L1055.58 342.967L934.082 333.185L805.441 321.967L712.703 312.982L662.046 289.961L655.174 247.216L627.795 226.322L632.376 225.418L660.341 246.791L667.372 289.004L715.792 310.961L806.72 319.787L934.987 330.952L1056.01 340.681L1147.58 344.934L1291.19 334.992L1425.05 285.655L1429.25 287.303L1294.44 337.172L1293.74 337.225L1148.38 347.327Z" fill="url(#paint34_linear_654_22566)"/>
<path d="M1287.78 380.874L1154.66 303.731L1092.23 260.773L775.132 241.421L657.944 247.854L534.364 249.821L460.322 259.019L376.746 270.449L375.681 268.536L459.257 257.158L534.311 247.854L657.784 245.94L775.292 239.454H775.718L1095.38 258.966L1159.19 302.774L1292.41 379.651L1287.78 380.874Z" fill="url(#paint35_linear_654_22566)"/>
<path d="M1150.88 262.368L1148.8 260.454L1174.32 257.477L1176.45 259.391L1150.88 262.368Z" fill="url(#paint36_linear_654_22566)"/>
<path d="M387.346 861.861L379.569 860.744L442.904 766.269L503.469 691.306L510.287 692.529L450.149 767.439L387.346 861.861Z" fill="url(#paint37_linear_654_22566)"/>
<path d="M989.906 970.531L932.111 877.81L837.189 817.84L733.424 798.169L554.446 779.082L444.023 768.662L361.032 736.178L220.034 722.674L154.195 688.382L26.0342 649.625L40.2565 552.545L47.2346 551.854L33.8112 647.019L160.001 685.086L224.775 718.74L365.667 732.35L448.497 764.674L556.577 774.616L735.608 793.703L841.663 813.693L939.622 875.684L998.109 968.723L989.906 970.531Z" fill="url(#paint38_linear_654_22566)"/>
<path d="M803.205 892.803L687.348 878.98L510.447 843.359L407.855 824.432L297.272 817.999L156.539 785.674L65.5588 753.403L-78.2097 703.8L-81.459 585.082L-80.8731 584.55L11.8121 505.812L134.433 459.186L137.896 461.153L16.7127 507.354L-74.1614 584.922L-70.3794 700.929L71.0986 749.575L161.546 781.527L301.054 813.427L410.624 819.753L513.857 838.68L689.852 874.088L804.909 887.699L803.205 892.803Z" fill="url(#paint39_linear_654_22566)"/>
<path d="M593.437 603.796L587.524 602.095L649.794 551.428L655.494 552.97L593.437 603.796Z" fill="url(#paint40_linear_654_22566)"/>
<path d="M808.264 577.692L801.872 576.469L853.435 511.022L859.561 512.139L808.264 577.692Z" fill="url(#paint41_linear_654_22566)"/>
<path d="M807.04 392.464L801.713 391.4L839 357.959L844.22 359.023L807.04 392.464Z" fill="url(#paint42_linear_654_22566)"/>
<path d="M474.278 430.211L469.218 428.989L532.979 385.287L537.933 386.456L474.278 430.211Z" fill="url(#paint43_linear_654_22566)"/>
<path d="M1288.89 752.021L1240.63 686.309L1247.56 685.352L1296.09 750.958L1288.89 752.021Z" fill="url(#paint44_linear_654_22566)"/>
</g>
</g>
<defs>
<linearGradient id="paint0_linear_654_22566" x1="963" y1="0" x2="963" y2="822" gradientUnits="userSpaceOnUse">
<stop stop-color="white"/>
<stop offset="1" stop-color="#D1C5D3"/>
</linearGradient>
<linearGradient id="paint1_linear_654_22566" x1="216.975" y1="304.725" x2="1766.09" y2="304.725" gradientUnits="userSpaceOnUse">
<stop stop-color="#E2DBE4"/>
<stop offset="1" stop-color="#FEFEFE"/>
</linearGradient>
<linearGradient id="paint2_linear_654_22566" x1="61.2833" y1="185.536" x2="824.836" y2="185.536" gradientUnits="userSpaceOnUse">
<stop stop-color="#E2DBE4"/>
<stop offset="1" stop-color="#FEFEFE"/>
</linearGradient>
<linearGradient id="paint3_linear_654_22566" x1="625.6" y1="201.267" x2="1124.16" y2="201.267" gradientUnits="userSpaceOnUse">
<stop stop-color="#E2DBE4"/>
<stop offset="1" stop-color="#FEFEFE"/>
</linearGradient>
<linearGradient id="paint4_linear_654_22566" x1="277.613" y1="279.116" x2="1647.2" y2="279.116" gradientUnits="userSpaceOnUse">
<stop stop-color="#E2DBE4"/>
<stop offset="1" stop-color="#FEFEFE"/>
</linearGradient>
<linearGradient id="paint5_linear_654_22566" x1="-14.8224" y1="463.743" x2="1926.88" y2="463.743" gradientUnits="userSpaceOnUse">
<stop stop-color="#E2DBE4"/>
<stop offset="1" stop-color="#FEFEFE"/>
</linearGradient>
<linearGradient id="paint6_linear_654_22566" x1="219.736" y1="212.283" x2="891.686" y2="212.283" gradientUnits="userSpaceOnUse">
<stop stop-color="#E2DBE4"/>
<stop offset="1" stop-color="#FEFEFE"/>
</linearGradient>
<linearGradient id="paint7_linear_654_22566" x1="451.16" y1="217.777" x2="1004.89" y2="217.777" gradientUnits="userSpaceOnUse">
<stop stop-color="#E2DBE4"/>
<stop offset="1" stop-color="#FEFEFE"/>
</linearGradient>
<linearGradient id="paint8_linear_654_22566" x1="79.3238" y1="413.773" x2="1862.32" y2="413.773" gradientUnits="userSpaceOnUse">
<stop stop-color="#E2DBE4"/>
<stop offset="1" stop-color="#FEFEFE"/>
</linearGradient>
<linearGradient id="paint9_linear_654_22566" x1="181.34" y1="358.317" x2="1731.59" y2="358.317" gradientUnits="userSpaceOnUse">
<stop stop-color="#E2DBE4"/>
<stop offset="1" stop-color="#FEFEFE"/>
</linearGradient>
<linearGradient id="paint10_linear_654_22566" x1="904.605" y1="558.862" x2="1353.29" y2="558.862" gradientUnits="userSpaceOnUse">
<stop stop-color="#E2DBE4"/>
<stop offset="1" stop-color="#FEFEFE"/>
</linearGradient>
<linearGradient id="paint11_linear_654_22566" x1="1058.33" y1="308.6" x2="1509.63" y2="308.6" gradientUnits="userSpaceOnUse">
<stop stop-color="#E2DBE4"/>
<stop offset="1" stop-color="#FEFEFE"/>
</linearGradient>
<linearGradient id="paint12_linear_654_22566" x1="1353.77" y1="374.425" x2="1870.05" y2="374.425" gradientUnits="userSpaceOnUse">
<stop stop-color="#E2DBE4"/>
<stop offset="1" stop-color="#FEFEFE"/>
</linearGradient>
<linearGradient id="paint13_linear_654_22566" x1="1460.49" y1="345.086" x2="1845.87" y2="345.086" gradientUnits="userSpaceOnUse">
<stop stop-color="#E2DBE4"/>
<stop offset="1" stop-color="#FEFEFE"/>
</linearGradient>
<linearGradient id="paint14_linear_654_22566" x1="1574.5" y1="469.918" x2="1788.06" y2="469.918" gradientUnits="userSpaceOnUse">
<stop stop-color="#E2DBE4"/>
<stop offset="1" stop-color="#FEFEFE"/>
</linearGradient>
<linearGradient id="paint15_linear_654_22566" x1="1279.79" y1="416.362" x2="1304.18" y2="416.362" gradientUnits="userSpaceOnUse">
<stop stop-color="#E2DBE4"/>
<stop offset="1" stop-color="#FEFEFE"/>
</linearGradient>
<linearGradient id="paint16_linear_654_22566" x1="-236.922" y1="506.901" x2="169.706" y2="506.901" gradientUnits="userSpaceOnUse">
<stop stop-color="#E2DBE4"/>
<stop offset="1" stop-color="#FEFEFE"/>
</linearGradient>
<linearGradient id="paint17_linear_654_22566" x1="224.77" y1="226.937" x2="480.823" y2="226.937" gradientUnits="userSpaceOnUse">
<stop stop-color="#E2DBE4"/>
<stop offset="1" stop-color="#FEFEFE"/>
</linearGradient>
<linearGradient id="paint18_linear_654_22566" x1="176.094" y1="401.33" x2="480.441" y2="401.33" gradientUnits="userSpaceOnUse">
<stop stop-color="#E2DBE4"/>
<stop offset="1" stop-color="#FEFEFE"/>
</linearGradient>
<linearGradient id="paint19_linear_654_22566" x1="468.927" y1="464.495" x2="619.123" y2="464.495" gradientUnits="userSpaceOnUse">
<stop stop-color="#E2DBE4"/>
<stop offset="1" stop-color="#FEFEFE"/>
</linearGradient>
<linearGradient id="paint20_linear_654_22566" x1="531.65" y1="204.371" x2="1376.56" y2="204.371" gradientUnits="userSpaceOnUse">
<stop stop-color="#E2DBE4"/>
<stop offset="1" stop-color="#FEFEFE"/>
</linearGradient>
<linearGradient id="paint21_linear_654_22566" x1="1076.13" y1="217.246" x2="1245.83" y2="217.246" gradientUnits="userSpaceOnUse">
<stop stop-color="#E2DBE4"/>
<stop offset="1" stop-color="#FEFEFE"/>
</linearGradient>
<linearGradient id="paint22_linear_654_22566" x1="473.465" y1="348.589" x2="1508.95" y2="348.589" gradientUnits="userSpaceOnUse">
<stop stop-color="#E2DBE4"/>
<stop offset="1" stop-color="#FEFEFE"/>
</linearGradient>
<linearGradient id="paint23_linear_654_22566" x1="1175.48" y1="701.197" x2="1389.25" y2="701.197" gradientUnits="userSpaceOnUse">
<stop stop-color="#E2DBE4"/>
<stop offset="1" stop-color="#FEFEFE"/>
</linearGradient>
<linearGradient id="paint24_linear_654_22566" x1="1247.94" y1="790.093" x2="1278.4" y2="790.093" gradientUnits="userSpaceOnUse">
<stop stop-color="#E2DBE4"/>
<stop offset="1" stop-color="#FEFEFE"/>
</linearGradient>
<linearGradient id="paint25_linear_654_22566" x1="966.549" y1="559.053" x2="1108.34" y2="559.053" gradientUnits="userSpaceOnUse">
<stop stop-color="#E2DBE4"/>
<stop offset="1" stop-color="#FEFEFE"/>
</linearGradient>
<linearGradient id="paint26_linear_654_22566" x1="-111.899" y1="494.519" x2="319.283" y2="494.519" gradientUnits="userSpaceOnUse">
<stop stop-color="#E2DBE4"/>
<stop offset="1" stop-color="#FEFEFE"/>
</linearGradient>
<linearGradient id="paint27_linear_654_22566" x1="37.0776" y1="516.359" x2="405.493" y2="516.359" gradientUnits="userSpaceOnUse">
<stop stop-color="#E2DBE4"/>
<stop offset="1" stop-color="#FEFEFE"/>
</linearGradient>
<linearGradient id="paint28_linear_654_22566" x1="172.789" y1="301.893" x2="467.38" y2="301.893" gradientUnits="userSpaceOnUse">
<stop stop-color="#E2DBE4"/>
<stop offset="1" stop-color="#FEFEFE"/>
</linearGradient>
<linearGradient id="paint29_linear_654_22566" x1="549.499" y1="320.211" x2="585.652" y2="320.211" gradientUnits="userSpaceOnUse">
<stop stop-color="#E2DBE4"/>
<stop offset="1" stop-color="#FEFEFE"/>
</linearGradient>
<linearGradient id="paint30_linear_654_22566" x1="565.8" y1="536.214" x2="889.336" y2="536.214" gradientUnits="userSpaceOnUse">
<stop stop-color="#E2DBE4"/>
<stop offset="1" stop-color="#FEFEFE"/>
</linearGradient>
<linearGradient id="paint31_linear_654_22566" x1="1155.04" y1="588.874" x2="1173.03" y2="588.874" gradientUnits="userSpaceOnUse">
<stop stop-color="#E2DBE4"/>
<stop offset="1" stop-color="#FEFEFE"/>
</linearGradient>
<linearGradient id="paint32_linear_654_22566" x1="1547.63" y1="531.285" x2="1622.54" y2="531.285" gradientUnits="userSpaceOnUse">
<stop stop-color="#E2DBE4"/>
<stop offset="1" stop-color="#FEFEFE"/>
</linearGradient>
<linearGradient id="paint33_linear_654_22566" x1="1458.14" y1="482.628" x2="1546.38" y2="482.628" gradientUnits="userSpaceOnUse">
<stop stop-color="#E2DBE4"/>
<stop offset="1" stop-color="#FEFEFE"/>
</linearGradient>
<linearGradient id="paint34_linear_654_22566" x1="627.952" y1="224.805" x2="1443.48" y2="224.805" gradientUnits="userSpaceOnUse">
<stop stop-color="#E2DBE4"/>
<stop offset="1" stop-color="#FEFEFE"/>
</linearGradient>
<linearGradient id="paint35_linear_654_22566" x1="375.86" y1="238.742" x2="1308.69" y2="238.742" gradientUnits="userSpaceOnUse">
<stop stop-color="#E2DBE4"/>
<stop offset="1" stop-color="#FEFEFE"/>
</linearGradient>
<linearGradient id="paint36_linear_654_22566" x1="1148.81" y1="257.452" x2="1176.94" y2="257.452" gradientUnits="userSpaceOnUse">
<stop stop-color="#E2DBE4"/>
<stop offset="1" stop-color="#FEFEFE"/>
</linearGradient>
<linearGradient id="paint37_linear_654_22566" x1="379.595" y1="690.448" x2="512.608" y2="690.448" gradientUnits="userSpaceOnUse">
<stop stop-color="#E2DBE4"/>
<stop offset="1" stop-color="#FEFEFE"/>
</linearGradient>
<linearGradient id="paint38_linear_654_22566" x1="26.2241" y1="549.746" x2="1015.37" y2="549.746" gradientUnits="userSpaceOnUse">
<stop stop-color="#E2DBE4"/>
<stop offset="1" stop-color="#FEFEFE"/>
</linearGradient>
<linearGradient id="paint39_linear_654_22566" x1="-81.2858" y1="457.004" x2="820.646" y2="457.004" gradientUnits="userSpaceOnUse">
<stop stop-color="#E2DBE4"/>
<stop offset="1" stop-color="#FEFEFE"/>
</linearGradient>
<linearGradient id="paint40_linear_654_22566" x1="587.538" y1="551.165" x2="656.7" y2="551.165" gradientUnits="userSpaceOnUse">
<stop stop-color="#E2DBE4"/>
<stop offset="1" stop-color="#FEFEFE"/>
</linearGradient>
<linearGradient id="paint41_linear_654_22566" x1="801.883" y1="510.687" x2="860.585" y2="510.687" gradientUnits="userSpaceOnUse">
<stop stop-color="#E2DBE4"/>
<stop offset="1" stop-color="#FEFEFE"/>
</linearGradient>
<linearGradient id="paint42_linear_654_22566" x1="801.721" y1="357.786" x2="844.975" y2="357.786" gradientUnits="userSpaceOnUse">
<stop stop-color="#E2DBE4"/>
<stop offset="1" stop-color="#FEFEFE"/>
</linearGradient>
<linearGradient id="paint43_linear_654_22566" x1="469.231" y1="385.061" x2="539.153" y2="385.061" gradientUnits="userSpaceOnUse">
<stop stop-color="#E2DBE4"/>
<stop offset="1" stop-color="#FEFEFE"/>
</linearGradient>
<linearGradient id="paint44_linear_654_22566" x1="1240.65" y1="685.016" x2="1297.07" y2="685.016" gradientUnits="userSpaceOnUse">
<stop stop-color="#E2DBE4"/>
<stop offset="1" stop-color="#FEFEFE"/>
</linearGradient>
<clipPath id="clip0_654_22566">
<rect width="1926" height="822" fill="white" transform="translate(-7)"/>
</clipPath>
<clipPath id="clip1_654_22566">
<rect width="2130" height="865" fill="white" transform="translate(-237 189)"/>
</clipPath>
</defs>
</svg>
