<svg xmlns="http://www.w3.org/2000/svg" width="1920" height="1173" viewBox="0 0 1920 1173" fill="none"><g opacity="0.55"><g clip-path="url(#clip0_111_878)"><g opacity="0.77"><mask id="mask0_111_878" style="mask-type:alpha" maskUnits="userSpaceOnUse" x="-13" y="140" width="2857" height="1034"><path d="M928.575 931.062C584.474 1123.41 157.932 1011.21 -12.3262 931.062V140.592H2840.62V1171.5C2865.26 1181.38 2757.28 1147.12 2128.22 931.062C1341.9 660.985 1358.7 690.627 928.575 931.062Z" fill="url(#paint0_linear_111_878)"></path></mask><g mask="url(#mask0_111_878)"><rect x="0.366699" y="138.394" width="2319.68" height="982.44" fill="url(#paint1_linear_111_878)" fill-opacity="0.88"></rect></g></g><g opacity="0.77"><mask id="mask1_111_878" style="mask-type:alpha" maskUnits="userSpaceOnUse" x="-71" y="-53" width="2921" height="1059"><path d="M922.084 867.075C591.991 1082.58 158.756 999.907 -16.5996 931.633L-70.8354 143.025L2775.39 -52.7218L2846.12 975.754C2871.38 983.921 2761.31 957.157 2118.91 784.765C1315.9 569.275 1334.7 597.695 922.084 867.075Z" fill="url(#paint2_linear_111_878)"></path></mask><g mask="url(#mask1_111_878)"><rect x="-70.4624" y="107.549" width="2319.68" height="982.44" transform="rotate(-3.93427 -70.4624 107.549)" fill="url(#paint3_linear_111_878)" fill-opacity="0.88"></rect></g></g></g><g clip-path="url(#clip1_111_878)"><g opacity="0.77"><mask id="mask2_111_878" style="mask-type:alpha" maskUnits="userSpaceOnUse" x="-924" y="0" width="2857" height="1033"><path d="M991.425 241.939C1335.53 49.5908 1762.07 161.794 1932.33 241.939V1032.41H-920.619V1.50391C-945.262 -8.37695 -837.282 25.8766 -208.223 241.939C578.101 512.016 561.299 482.374 991.425 241.939Z" fill="url(#paint4_linear_111_878)"></path></mask><g mask="url(#mask2_111_878)"><rect x="1919.63" y="1034.61" width="2319.68" height="982.44" transform="rotate(-180 1919.63 1034.61)" fill="url(#paint5_linear_111_878)" fill-opacity="0.88"></rect></g></g><g opacity="0.77"><mask id="mask3_111_878" style="mask-type:alpha" maskUnits="userSpaceOnUse" x="-930" y="167" width="2921" height="1059"><path d="M997.916 305.926C1328.01 90.4216 1761.24 173.094 1936.6 241.369L1990.84 1029.98L-855.387 1225.72L-926.119 197.247C-951.382 189.08 -841.306 215.844 -198.905 388.236C604.097 603.726 585.301 575.306 997.916 305.926Z" fill="url(#paint6_linear_111_878)"></path></mask><g mask="url(#mask3_111_878)"><rect x="1990.46" y="1065.45" width="2319.68" height="982.44" transform="rotate(176.066 1990.46 1065.45)" fill="url(#paint7_linear_111_878)" fill-opacity="0.88"></rect></g></g></g></g><defs><linearGradient id="paint0_linear_111_878" x1="2051.92" y1="728.807" x2="-12.1222" y2="708.297" gradientUnits="userSpaceOnUse"><stop offset="0.0834264" stop-color="#440597"></stop><stop offset="0.333937" stop-color="#C93CA1"></stop><stop offset="0.721738" stop-color="#6E73EE"></stop><stop offset="1" stop-color="#250054"></stop></linearGradient><linearGradient id="paint1_linear_111_878" x1="1160.21" y1="138.394" x2="1123.19" y2="1259.91" gradientUnits="userSpaceOnUse"><stop stop-color="#BB85E6"></stop><stop offset="1" stop-color="#BC89E4" stop-opacity="0"></stop></linearGradient><linearGradient id="paint2_linear_111_878" x1="1905.6" y1="600.778" x2="12.7391" y2="586.541" gradientUnits="userSpaceOnUse"><stop offset="0.0834264" stop-color="#440597"></stop><stop offset="0.333937" stop-color="#C93CA1"></stop><stop offset="0.721738" stop-color="#6E73EE"></stop><stop offset="1" stop-color="#250054"></stop></linearGradient><linearGradient id="paint3_linear_111_878" x1="1089.38" y1="107.549" x2="1052.36" y2="1229.07" gradientUnits="userSpaceOnUse"><stop stop-color="#E26271"></stop><stop offset="1" stop-color="#B584DC" stop-opacity="0"></stop></linearGradient><linearGradient id="paint4_linear_111_878" x1="-131.924" y1="444.194" x2="1932.12" y2="464.704" gradientUnits="userSpaceOnUse"><stop offset="0.0834264" stop-color="#440597"></stop><stop offset="0.333937" stop-color="#C93CA1"></stop><stop offset="0.721738" stop-color="#6E73EE"></stop><stop offset="1" stop-color="#250054"></stop></linearGradient><linearGradient id="paint5_linear_111_878" x1="3079.47" y1="1034.61" x2="3042.46" y2="2156.13" gradientUnits="userSpaceOnUse"><stop stop-color="#BB85E6"></stop><stop offset="1" stop-color="#BC89E4" stop-opacity="0"></stop></linearGradient><linearGradient id="paint6_linear_111_878" x1="14.3957" y1="572.223" x2="1907.26" y2="586.46" gradientUnits="userSpaceOnUse"><stop offset="0.0834264" stop-color="#440597"></stop><stop offset="0.333937" stop-color="#C93CA1"></stop><stop offset="0.721738" stop-color="#6E73EE"></stop><stop offset="1" stop-color="#250054"></stop></linearGradient><linearGradient id="paint7_linear_111_878" x1="3150.3" y1="1065.45" x2="3113.29" y2="2186.97" gradientUnits="userSpaceOnUse"><stop stop-color="#E26271"></stop><stop offset="1" stop-color="#B584DC" stop-opacity="0"></stop></linearGradient><clipPath id="clip0_111_878"><rect width="1920" height="591" fill="white" transform="matrix(1 0 0 -1 0 1173)"></rect></clipPath><clipPath id="clip1_111_878"><rect width="1920" height="582" fill="white" transform="matrix(-1 0 0 1 1920 0)"></rect></clipPath></defs></svg>