<svg xmlns="http://www.w3.org/2000/svg" width="215" height="449" viewBox="0 0 215 449" fill="none"><rect x="2.02832" y="1.5" width="211" height="446" rx="25.5" fill="#52275F"></rect><g clip-path="url(#clip0_202_1380)"><g filter="url(#filter0_d_202_1380)"><rect x="3.52832" y="3" width="208" height="443" rx="24" fill="white"></rect></g><path d="M245.598 515.13L-32.2017 510.6V-63.7L245.598 -59.17V515.13Z" fill="url(#paint0_linear_202_1380)"></path><path d="M65.1182 114.66C65.0182 114.66 64.9182 114.65 64.8182 114.61C64.2882 114.45 63.9982 113.89 64.1582 113.36C66.4482 105.98 70.5282 93.4101 72.0782 92.2601C74.0482 90.7801 77.5182 90.7601 79.9882 92.2001C80.7382 92.6401 81.8682 93.4201 83.1782 94.3201C84.9282 95.5301 88.0782 97.7101 89.1782 98.0801C90.1082 96.8101 91.9082 90.9301 91.9082 89.8501C91.9082 89.2401 92.9682 84.1901 96.3582 68.2801C98.8982 56.3501 102.068 41.5001 102.118 40.3201V39.9901C102.128 38.5201 102.128 38.4101 100.218 37.8901L99.8482 37.7901C97.0282 37.0401 93.1582 36.0201 93.6282 32.2601C94.0482 28.8801 102.928 8.30008 106.028 5.39008C109.068 2.54008 115.068 -7.27992 115.748 -10.5299C116.018 -11.8099 115.878 -13.3199 115.738 -14.7799C115.508 -17.2099 115.268 -19.7299 116.968 -21.4299C117.888 -22.3499 119.958 -24.6499 122.158 -27.0799C126.298 -31.6699 128.868 -34.4899 129.588 -34.9699C130.858 -35.8199 134.118 -36.1999 134.758 -36.2699C135.298 -36.3299 135.798 -35.9299 135.858 -35.3799C135.918 -34.8299 135.518 -34.3399 134.968 -34.2799C133.578 -34.1299 131.328 -33.7399 130.698 -33.3099C130.088 -32.8799 126.358 -28.7499 123.638 -25.7399C121.418 -23.2899 119.328 -20.9699 118.378 -20.0199C117.348 -18.9899 117.528 -17.1299 117.728 -14.9799C117.878 -13.3699 118.038 -11.7099 117.708 -10.1299C116.878 -6.20992 110.508 3.91008 107.398 6.83008C104.688 9.38008 95.9882 29.4601 95.6082 32.4901C95.3682 34.3701 97.3382 35.0401 100.358 35.8401L100.738 35.9401C103.808 36.7601 104.138 37.8501 104.128 39.9801V40.3101C104.128 41.3701 101.938 51.7301 98.3282 68.6701C96.1982 78.6701 93.9982 89.0001 93.9282 89.8601C93.9282 90.8001 91.8482 99.3601 89.8482 100.03C88.7582 100.39 87.0482 99.3701 82.0682 95.9401C80.8482 95.1001 79.6882 94.3001 79.0082 93.9001C77.0582 92.7701 74.4882 92.9501 73.3082 93.8401C72.4282 94.7901 68.9382 104.81 66.1082 113.94C65.9782 114.37 65.5782 114.64 65.1482 114.64L65.1182 114.66Z" fill="white"></path><path d="M160.368 272.83C160.078 272.83 159.788 272.7 159.588 272.45C157.498 269.83 151.868 262.85 150.968 261.95C149.598 260.59 151.048 257.26 155.038 249.84L155.458 249.05C157.508 245.22 173.758 227.86 178.138 226.64C178.718 226.48 179.628 226.26 180.768 225.98C187.448 224.35 203.098 220.53 206.788 215.31C211.838 208.15 219.078 194.92 219.078 192.83C219.078 190.07 237.128 171.85 244.888 164.15C245.278 163.76 245.908 163.76 246.298 164.15C246.688 164.54 246.688 165.18 246.298 165.56C234.448 177.32 221.578 190.91 221.078 192.91C221.078 195.94 212.708 210.39 208.428 216.45C204.318 222.28 188.738 226.08 181.248 227.91C180.128 228.18 179.238 228.4 178.678 228.56C175.048 229.57 159.258 246.18 157.218 249.99L156.798 250.78C155.548 253.11 152.248 259.25 152.458 260.61C153.838 262.07 160.838 270.81 161.138 271.19C161.478 271.62 161.408 272.25 160.978 272.6C160.798 272.75 160.568 272.82 160.358 272.82L160.368 272.83Z" fill="white"></path><path d="M176.528 229.41C176.528 229.41 172.188 228.2 169.538 227.44C167.708 226.92 151.988 227.18 141.878 227.48C141.338 227.52 140.868 227.06 140.848 226.51C140.828 225.96 141.268 225.5 141.818 225.48C144.428 225.4 167.378 224.74 170.088 225.52C172.728 226.28 177.058 227.49 177.068 227.49L176.528 229.42V229.41Z" fill="white"></path><path d="M214.428 205.94C214.278 205.94 214.128 205.91 213.978 205.83C213.958 205.82 211.618 204.66 204.208 201.7C202.948 201.19 201.718 200.69 200.548 200.2C195.428 198.08 190.598 196.08 188.818 197.1C187.998 197.57 187.558 198.04 187.088 198.53C186.148 199.53 185.178 200.56 181.748 201.35C176.288 202.62 165.048 197.95 162.558 196.72C161.218 196.06 159.888 194.98 158.488 193.84C156.648 192.34 154.738 190.79 152.958 190.4C151.758 190.13 149.818 189.68 147.628 189.17C143.688 188.25 138.788 187.11 136.348 186.62C135.028 186.36 132.778 186.28 130.408 186.21C124.988 186.04 121.328 185.82 119.968 184.46C119.588 184.08 118.898 183.44 118.048 182.65C113.308 178.24 108.618 173.74 107.998 171.56C107.608 170.19 107.868 168.16 108.148 166C108.408 164.01 108.758 161.29 108.178 160.57L107.788 160.08C106.408 158.32 104.978 156.5 101.438 155.22C97.4482 153.77 94.5082 153.39 94.4782 153.38C93.9282 153.31 93.5382 152.81 93.6082 152.26C93.6782 151.71 94.1682 151.32 94.7282 151.39C94.8582 151.41 97.9082 151.8 102.128 153.33C106.208 154.81 107.958 157.04 109.368 158.84L109.748 159.32C110.858 160.71 110.508 163.4 110.138 166.26C109.898 168.12 109.648 170.04 109.928 171.01C110.448 172.84 116.738 178.69 119.418 181.19C120.288 182 120.998 182.66 121.388 183.05C122.298 183.96 127.218 184.12 130.478 184.22C132.938 184.3 135.268 184.37 136.748 184.67C139.218 185.16 144.138 186.31 148.088 187.23C150.268 187.74 152.198 188.19 153.398 188.45C155.638 188.95 157.728 190.65 159.758 192.29C161.068 193.36 162.318 194.37 163.448 194.93C166.498 196.43 176.818 200.45 181.298 199.41C184.148 198.75 184.838 198.01 185.638 197.16C186.158 196.61 186.748 195.98 187.828 195.36C190.458 193.86 195.008 195.74 201.308 198.35C202.468 198.83 203.688 199.33 204.938 199.84C212.448 202.84 214.758 203.99 214.858 204.04C215.348 204.29 215.548 204.89 215.308 205.38C215.138 205.73 214.778 205.93 214.408 205.93L214.428 205.94Z" fill="white"></path><path d="M48.3484 277.08C47.8284 277.08 47.3284 277.05 46.8384 276.98C43.3784 276.49 36.5384 273.98 31.0384 271.96C27.8684 270.8 25.1384 269.8 23.6584 269.39C19.8984 268.36 15.4084 268.3 14.8984 268.29L-42.8716 274.21C-43.4116 274.27 -43.9116 273.87 -43.9716 273.32C-44.0316 272.77 -43.6316 272.28 -43.0816 272.22L14.8484 266.28C15.0584 266.28 19.9484 266.29 24.1784 267.45C25.7384 267.87 28.5084 268.89 31.7184 270.07C37.1284 272.05 43.8584 274.52 47.1084 274.99C50.6784 275.5 55.7184 273.54 59.3884 272.11C60.8184 271.55 62.0484 271.08 62.9184 270.85C65.8284 270.11 81.6384 264.88 81.7984 264.82C81.8984 264.79 92.0884 261.39 99.6484 258.78L101.668 258.08C108.648 255.65 115.238 253.35 123.958 252.31C133.308 251.19 154.208 249.3 154.418 249.28C154.968 249.23 155.458 249.64 155.508 250.19C155.558 250.74 155.148 251.23 154.598 251.28C154.388 251.3 133.518 253.18 124.198 254.3C115.688 255.32 109.198 257.58 102.328 259.98L100.308 260.68C92.7384 263.3 82.5384 266.7 82.4384 266.73C81.7784 266.95 66.3984 272.04 63.4284 272.8C62.6684 272.99 61.4884 273.45 60.1284 273.98C56.7084 275.31 52.1784 277.08 48.3384 277.08H48.3484Z" fill="white"></path><path d="M66.6383 334.44C66.5383 334.44 66.4283 334.42 66.3283 334.39C65.7983 334.22 65.5183 333.66 65.6883 333.13C65.7683 332.89 73.5983 308.57 74.3383 300.09C74.8183 294.54 77.6683 286.52 79.7383 280.65C80.7983 277.66 81.8883 274.58 81.8883 273.84C81.8883 271.37 83.1383 265.16 83.1883 264.89C83.2983 264.35 83.8183 263.99 84.3683 264.11C84.9083 264.22 85.2583 264.75 85.1483 265.29C85.1383 265.35 83.8883 271.57 83.8883 273.84C83.8883 274.87 83.1083 277.11 81.6183 281.31C79.5783 287.07 76.7783 294.96 76.3183 300.25C75.5583 308.96 67.9083 332.72 67.5783 333.73C67.4383 334.15 67.0483 334.42 66.6283 334.42L66.6383 334.44Z" fill="white"></path><path d="M81.8484 278.66C81.3784 278.66 80.9584 278.33 80.8684 277.85C80.7584 277.31 81.1184 276.78 81.6584 276.68C82.5484 276.51 90.4284 275 92.7584 275.09C94.4884 275.16 100.478 273.53 102.638 272.9C103.168 272.74 103.728 273.05 103.878 273.58C104.028 274.11 103.728 274.67 103.198 274.82C102.368 275.06 95.0184 277.2 92.6684 277.09C90.9084 277.03 84.3884 278.19 82.0284 278.65C81.9684 278.66 81.8984 278.67 81.8384 278.67L81.8484 278.66Z" fill="white"></path><path d="M88.188 304.33C86.508 304.33 84.868 304.19 83.798 303.75C81.098 302.66 75.148 301.16 75.088 301.15C74.548 301.02 74.228 300.47 74.358 299.94C74.488 299.4 75.038 299.07 75.568 299.21C75.818 299.27 81.718 300.75 84.548 301.9C86.628 302.74 92.408 302.14 94.458 301.84C95.008 301.76 95.508 302.14 95.598 302.68C95.678 303.23 95.298 303.73 94.758 303.82C94.248 303.9 91.138 304.34 88.198 304.34L88.188 304.33Z" fill="white"></path><path d="M79.0018 217.754C78.8718 217.754 78.7318 217.724 78.6018 217.674C78.0918 217.454 27.1318 195.354 18.5818 192.374C14.8818 191.084 5.84183 187.064 -3.72818 182.804C-16.9482 176.924 -31.9382 170.253 -36.8982 168.963C-42.0882 167.613 -66.7382 158.344 -86.5482 150.894C-100.348 145.704 -112.278 141.224 -114.398 140.614C-119.248 139.224 -152.648 125.534 -154.808 123.804C-156.568 122.394 -159.848 120.923 -159.878 120.913C-160.378 120.693 -160.608 120.093 -160.388 119.593C-160.168 119.093 -159.568 118.864 -159.068 119.084C-158.928 119.144 -155.528 120.664 -153.558 122.244C-151.728 123.674 -119.068 137.203 -113.848 138.693C-111.648 139.323 -99.6882 143.814 -85.8482 149.024C-66.0782 156.454 -41.4882 165.703 -36.3882 167.033C-31.2682 168.363 -16.2082 175.074 -2.90817 180.984C6.62183 185.224 15.6318 189.234 19.2518 190.494C27.8818 193.494 77.3118 214.933 79.4218 215.843C79.9318 216.063 80.1618 216.653 79.9418 217.163C79.7818 217.543 79.4118 217.764 79.0218 217.764L79.0018 217.754Z" fill="white"></path><path d="M65.1183 377.53C64.9783 377.53 64.8483 377.5 64.7083 377.44C64.5683 377.38 50.7583 371.23 45.8083 370.13C40.6683 368.99 28.5483 363.49 28.0383 363.26C18.0283 359.04 -8.9117 348.04 -12.9317 348.04C-15.7317 348.04 -19.3917 346.79 -22.6217 345.69C-25.3017 344.78 -28.0717 343.83 -29.1817 344.05L-32.0117 344.62C-32.5617 344.73 -33.0817 344.38 -33.1917 343.84C-33.3017 343.3 -32.9517 342.77 -32.4117 342.66L-29.5817 342.09C-27.9317 341.76 -25.3117 342.66 -21.9917 343.8C-18.9117 344.85 -15.4117 346.04 -12.9517 346.04C-7.7917 346.04 25.0883 359.85 28.8183 361.43C28.9683 361.5 41.2783 367.08 46.2183 368.18C51.3583 369.32 64.9183 375.36 65.4983 375.61C65.9983 375.83 66.2283 376.43 66.0083 376.93C65.8383 377.3 65.4783 377.52 65.0983 377.52L65.1183 377.53Z" fill="white"></path><path d="M164.238 64.58C164.058 64.58 163.878 64.53 163.718 64.43C163.248 64.14 163.098 63.53 163.388 63.06C163.838 62.32 174.498 44.83 177.608 40.6C177.758 40.4 192.318 20.58 197.928 16.3C202.098 13.12 203.138 13.22 205.528 13.99C205.948 14.12 206.418 14.28 206.998 14.42C209.828 15.13 210.148 15.01 213.188 13.91L214.088 13.59C215.728 13 217.248 12.6 218.718 12.21C220.828 11.65 222.998 11.08 225.628 9.93003C230.238 7.91003 256.788 8.85003 259.798 8.96003C260.348 8.98003 260.778 9.45003 260.758 10C260.738 10.55 260.318 10.97 259.718 10.96C251.658 10.65 229.978 10.21 226.428 11.76C223.668 12.97 221.408 13.56 219.228 14.14C217.738 14.53 216.318 14.91 214.758 15.47L213.868 15.79C210.558 16.98 209.828 17.18 206.508 16.35C205.878 16.19 205.358 16.03 204.908 15.88C203.108 15.3 202.678 15.17 199.128 17.88C194.658 21.29 183.238 36.28 179.208 41.77C176.148 45.94 165.188 63.91 165.078 64.09C164.888 64.4 164.558 64.57 164.228 64.57L164.238 64.58Z" fill="white"></path><path d="M240.488 394.77C239.708 394.77 238.928 394.51 238.278 393.98C237.598 393.42 221.458 380.21 216.858 375.6C212.718 371.46 194.058 358.93 191.138 357.27C190.458 356.88 187.258 355.71 184.438 354.67C177.868 352.26 168.878 348.96 164.168 345.99C159.658 343.14 159.168 343.12 154.508 342.91C153.108 342.85 151.368 342.77 149.138 342.6C144.868 342.27 141.708 342.63 138.928 342.95C135.438 343.35 132.418 343.69 129.168 342.34C127.768 341.76 125.928 341.67 123.978 341.57C120.758 341.41 117.098 341.23 114.428 338.56C113.068 337.2 110.298 335.14 107.008 336.63L106.418 336.9C102.108 338.87 97.2182 341.1 92.7482 338.3C91.0882 337.26 85.9682 337.02 82.1282 340.27C80.6282 341.54 78.7382 343.45 76.7482 345.48C70.8682 351.44 67.0482 355.09 63.5482 355.44C62.5482 355.54 61.1082 355.77 59.4382 356.04C55.0682 356.75 49.6382 357.63 45.2382 357.34C40.4382 357.02 0.658207 350.28 -3.34179 348.28C-4.27179 347.82 -6.88179 346.81 -9.64179 345.74C-15.3518 343.54 -22.4718 340.79 -25.9118 338.68C-29.0518 336.75 -38.3918 334.7 -43.5318 333.86C-45.4418 333.55 -46.7318 331.75 -46.4218 329.84C-46.1118 327.93 -44.3318 326.63 -42.4118 326.95C-40.9118 327.19 -27.5918 329.42 -22.2418 332.72C-19.3518 334.5 -12.2818 337.22 -7.1218 339.21C-3.9418 340.44 -1.43179 341.4 -0.201794 342.02C2.8982 343.29 39.4382 349.93 45.7082 350.35C49.3082 350.59 54.5182 349.75 58.3182 349.13C60.0582 348.85 61.5782 348.6 62.7682 348.48C64.4382 347.99 69.1982 343.16 71.7582 340.56C73.8682 338.42 75.8682 336.39 77.6082 334.92C83.6282 329.82 92.0882 329.62 96.4682 332.36C97.7482 333.16 100.688 331.82 103.528 330.53L104.128 330.26C109.248 327.93 114.958 329.19 119.388 333.62C120.148 334.38 122.278 334.49 124.328 334.59C126.678 334.71 129.338 334.84 131.868 335.89C133.368 336.51 135.048 336.36 138.138 336.01C141.078 335.67 144.748 335.26 149.688 335.64C151.798 335.8 153.478 335.88 154.828 335.94C160.268 336.18 162.088 336.41 167.918 340.09C171.998 342.67 180.938 345.95 186.858 348.12C191.178 349.7 193.478 350.56 194.618 351.21C197.248 352.71 216.918 365.78 221.808 370.67C226.168 375.03 242.548 388.44 242.718 388.58C244.218 389.8 244.438 392.01 243.208 393.51C242.518 394.36 241.508 394.79 240.498 394.79L240.488 394.77Z" fill="#F4E6FF"></path><path d="M151.468 341.47C151.258 341.47 151.038 341.45 150.828 341.41C148.928 341.06 147.668 339.23 148.028 337.33C148.078 337.04 149.358 330.23 151.198 324.68C153.708 317.11 158.438 303.62 161.868 298.28C166.078 291.73 177.878 267.58 177.768 263.51C177.608 262.1 177.288 261.52 176.908 260.85C175.688 258.69 175.338 256.86 176.938 253.43C177.688 251.83 178.438 250.58 179.048 249.57C180.188 247.68 180.578 246.95 180.578 245.55C180.578 244.02 180.728 243.1 180.858 242.37C181.038 241.32 181.218 240.23 180.608 235.2C180.068 230.81 179.928 226.57 179.808 222.82C179.698 219.39 179.598 216.42 179.228 214.45C178.728 211.78 175.928 206.75 174.118 203.92C172.168 202.21 169.978 200.57 168.748 199.88C166.898 200.89 165.578 200.83 163.288 199.79C162.928 199.63 162.098 199.43 161.288 199.25C159.578 198.85 157.248 198.31 154.788 197.1C153.698 196.56 152.778 196.05 151.968 195.61C150.208 194.63 149.308 194.16 148.258 194.04C148.178 194.04 147.898 194.14 147.708 194.21C145.118 195.12 142.718 195.09 139.438 191.97C137.178 189.83 136.998 189.86 135.598 190.03L135.268 190.07C132.848 190.36 128.478 190.22 121.418 187.89C114.218 185.52 109.598 182.01 107.488 180.14C106.948 179.66 106.248 179.13 105.498 178.58C102.758 176.53 99.0083 173.73 100.088 169.56C100.258 168.89 100.108 167.52 99.9883 166.42C99.7883 164.65 99.5883 162.81 100.158 161.11L100.228 160.91C100.348 160.56 100.508 160.08 100.518 159.91C100.518 159.91 100.278 159.47 99.2983 158.62C97.2783 156.86 90.7783 153.69 87.1483 152.1L86.3883 151.77L85.8583 151.14C85.8083 151.09 83.9183 149 80.6083 149C68.9283 149 66.0883 147.69 65.1583 147.26C62.7183 146.13 46.5183 139.15 41.0483 137.51C37.9583 136.58 33.2383 134.51 28.6783 132.51C24.6983 130.76 20.5883 128.96 18.7583 128.47C12.8783 126.9 9.35826 122.06 9.35826 118.29C9.35826 116.39 10.2483 113.86 11.7083 109.93C12.2883 108.38 12.8883 106.77 13.1683 105.75C13.4883 104.58 13.9183 103.64 14.2683 102.88C14.9483 101.4 15.2383 100.78 14.6283 98.6701C13.6083 96.7101 7.18826 92.3401 -4.46174 85.6601C-6.99174 84.2101 -7.82174 83.7301 -8.32174 83.3301C-10.3917 81.6701 -12.9417 78.0301 -13.3117 73.2101C-13.4517 71.4301 -13.3617 68.2001 -13.2617 64.4501C-13.1517 60.5701 -13.0117 55.2701 -13.2817 53.6701C-13.6017 51.7601 -13.4217 49.4201 -13.2317 46.9401C-13.0517 44.5801 -12.8217 41.6401 -13.2517 40.1901C-14.6917 35.2701 -16.6917 31.4701 -17.7217 30.7801C-18.3917 30.3301 -18.7517 30.1501 -19.1017 29.9801C-20.4617 29.3001 -21.1717 28.7601 -23.1917 26.5401C-26.7517 22.6301 -27.1517 19.8401 -27.4717 17.6001C-27.7717 15.5201 -28.3317 12.8801 -30.2517 9.03012C-31.1217 7.28012 -31.6317 5.69013 -32.0417 4.40013C-32.8017 2.02013 -33.0817 1.31012 -34.3517 0.670122L-38.3217 -1.30987C-40.0517 -2.16987 -40.7517 -4.27988 -39.8917 -6.00988C-39.0217 -7.73988 -36.9217 -8.43988 -35.1917 -7.56988L-31.2217 -5.58987C-27.2517 -3.59987 -26.2517 -0.479879 -25.3717 2.27012C-25.0017 3.43012 -24.6217 4.63012 -23.9817 5.89012C-21.5917 10.6601 -20.8817 14.1201 -20.5317 16.6001C-20.2817 18.3501 -20.1117 19.5101 -18.0017 21.8301C-16.5517 23.4301 -16.3817 23.5101 -15.9617 23.7201C-15.5217 23.9401 -14.8617 24.2701 -13.8317 24.9601C-10.1117 27.4401 -7.65174 34.3401 -6.52174 38.2301C-5.74174 40.9101 -5.99174 44.2501 -6.24174 47.4801C-6.39174 49.4301 -6.54174 51.4501 -6.37174 52.5301C-6.02174 54.6301 -6.10174 58.7001 -6.26174 64.6501C-6.35174 67.9001 -6.44174 71.2701 -6.33174 72.6801C-6.12174 75.4601 -4.58174 77.3301 -3.99174 77.8301C-3.62174 78.0801 -2.28174 78.8501 -0.981739 79.5901C14.5683 88.5101 20.1983 92.8001 21.3183 96.6201C22.6983 101.32 21.5483 103.81 20.6283 105.82C20.3383 106.45 20.0883 106.99 19.9183 107.6C19.5583 108.93 18.9283 110.61 18.2683 112.39C17.5683 114.27 16.3983 117.41 16.3583 118.33C16.4183 118.94 17.8083 121 20.5683 121.73C22.9183 122.36 26.8983 124.1 31.4983 126.13C35.6583 127.96 40.3783 130.03 43.0683 130.84C48.9483 132.6 65.4883 139.73 68.0983 140.94C69.1883 141.44 73.1283 142.04 80.6183 142.04C85.8483 142.04 89.2383 144.7 90.6083 146.02C93.0383 147.11 100.798 150.69 103.898 153.39C108.368 157.28 107.818 160.37 106.868 163.19L106.808 163.37C106.738 163.71 106.868 164.91 106.958 165.7C107.138 167.28 107.328 169.04 107.008 170.78C107.528 171.4 108.858 172.39 109.698 173.02C110.528 173.64 111.378 174.28 112.148 174.96C113.858 176.48 117.618 179.32 123.618 181.3C129.988 183.4 133.318 183.31 134.448 183.17L134.748 183.13C138.178 182.71 140.258 183.14 144.268 186.94C144.738 187.39 145.048 187.61 145.228 187.72C145.288 187.7 145.348 187.68 145.408 187.65C146.158 187.39 147.408 186.95 149.048 187.13C151.538 187.41 153.398 188.44 155.378 189.53C156.158 189.96 156.958 190.4 157.908 190.87C159.628 191.72 161.358 192.12 162.888 192.48C164.018 192.74 165.078 192.99 166.028 193.4L166.118 193.34C167.478 192.47 169.988 190.84 179.148 199.06L179.488 199.36L179.738 199.74C180.288 200.58 185.168 208.13 186.118 213.2C186.588 215.7 186.688 218.91 186.818 222.63C186.938 226.23 187.068 230.32 187.568 234.4C188.258 240.01 188.088 241.74 187.778 243.59C187.668 244.21 187.598 244.66 187.598 245.6C187.598 249.01 186.308 251.16 185.058 253.23C184.488 254.18 183.888 255.17 183.298 256.44C183.098 256.87 182.988 257.15 182.938 257.32C182.968 257.37 182.998 257.42 183.028 257.47C183.548 258.4 184.428 259.96 184.738 262.84C185.528 270.01 169.708 299.08 167.758 302.11C165.588 305.48 161.878 314.76 157.838 326.93C156.148 332.02 154.918 338.59 154.908 338.66C154.598 340.34 153.128 341.52 151.468 341.52V341.47Z" fill="#F4E6FF"></path><path d="M61.579 134.266C56.949 134.266 51.509 129.926 49.129 127.816C46.879 125.816 45.809 123.636 44.869 121.716C44.599 121.166 44.339 120.626 44.059 120.106C43.629 120.406 43.119 120.886 42.799 121.396C41.709 123.146 38.349 129.686 37.149 132.056C36.279 133.776 34.169 134.476 32.449 133.596C30.729 132.726 30.029 130.616 30.909 128.896C31.369 127.996 35.409 120.016 36.869 117.686C38.339 115.326 41.379 112.806 44.569 112.806C44.589 112.806 44.609 112.806 44.629 112.806C46.699 112.826 48.529 113.896 49.639 115.756C50.259 116.786 50.739 117.776 51.169 118.656C51.979 120.316 52.559 121.516 53.779 122.596C56.719 125.206 60.249 127.216 61.459 127.286C63.349 126.556 64.829 126.706 65.729 126.796C65.919 126.816 66.179 126.836 66.259 126.836C66.259 126.836 66.439 126.766 66.839 126.446C69.879 124.016 74.069 121.506 79.639 123.646C82.069 124.586 88.009 124.996 93.239 125.356C94.769 125.466 96.289 125.566 97.749 125.686L98.569 125.756C105.199 126.296 107.829 126.316 109.269 124.306C109.559 123.896 109.829 123.506 110.089 123.116C112.589 119.456 115.169 115.676 124.269 116.326C124.329 116.326 124.389 116.326 124.449 116.326C130.079 116.326 147.679 98.4262 150.059 93.3762C152.509 88.1662 163.239 71.4262 167.189 66.3562C169.119 63.8762 172.269 58.7162 175.319 53.7262C178.319 48.8162 181.149 44.1862 183.039 41.7162C184.079 40.3562 208.679 8.24618 215.299 5.30618C217.059 4.51618 219.129 5.30618 219.919 7.08618C220.709 8.85618 219.909 10.9162 218.139 11.7062C214.799 13.3662 198.679 32.7862 188.599 45.9762C186.929 48.1562 184.059 52.8462 181.289 57.3862C178.139 62.5362 174.879 67.8662 172.709 70.6562C168.709 75.7962 158.489 91.8962 156.389 96.3562C153.969 101.486 134.559 123.316 124.269 123.316C124.099 123.316 123.939 123.316 123.779 123.296C118.699 122.936 117.989 123.976 115.879 127.056C115.589 127.476 115.289 127.916 114.979 128.356C111.099 133.786 105.029 133.286 98.009 132.706L97.199 132.636C95.769 132.516 94.269 132.416 92.769 132.306C86.489 131.866 80.549 131.456 77.139 130.146C75.499 129.516 74.069 129.606 71.229 131.876C68.699 133.896 66.709 133.896 65.039 133.716C64.419 133.656 64.299 133.646 63.959 133.786C63.209 134.096 62.419 134.236 61.599 134.236L61.579 134.266Z" fill="#F4E6FF"></path><path d="M238.817 218.138C238.377 217.888 194.667 193.478 182.257 183.548C177.547 179.778 169.357 173.918 160.687 167.718C146.247 157.378 128.267 144.518 123.077 138.808C116.297 131.348 108.897 122.718 106.277 119.638L134.817 2.10794L141.617 -24.2521C142.027 -25.8521 141.067 -27.4921 139.457 -27.9021C137.847 -28.3221 136.217 -27.3521 135.797 -25.7421L128.987 0.657938L111.367 73.1979C105.897 70.8179 90.0166 63.8179 85.5667 60.8479C79.6367 56.8979 41.5067 35.3879 34.4367 31.7579C31.5567 30.2779 25.6367 26.9079 19.9166 23.6579C15.9566 21.4079 11.8667 19.0779 8.82665 17.3979C7.86665 16.8679 7.05665 16.4279 6.36665 16.0679C6.67665 15.4279 6.95665 14.8279 7.15665 14.3179C9.80665 7.25794 10.6567 -15.5221 10.7467 -18.0921C10.8067 -19.7521 9.50665 -21.1321 7.85665 -21.1921C6.23665 -21.2521 4.81665 -19.9521 4.75665 -18.3021C4.52665 -11.5821 3.49665 7.00794 1.54665 12.2079C1.19665 13.1279 0.536652 14.3979 -0.323349 15.8879C-0.333347 15.9079 -0.343349 15.9179 -0.36335 15.9379C-0.36335 15.9479 -0.373348 15.9679 -0.383347 15.9879C-4.46335 22.9679 -13.1133 34.7379 -16.7433 39.5079L-18.6333 41.9979L37.5067 81.2079C38.0266 81.5779 38.6267 81.7479 39.2167 81.7479C40.1666 81.7479 41.0966 81.2979 41.6767 80.4679C42.6266 79.1079 42.2967 77.2379 40.9367 76.2879L-10.0933 40.6479C-6.92335 36.3979 -0.733349 27.9479 3.40665 21.2879C6.49665 22.9279 12.3766 26.2679 16.9566 28.8779C22.7366 32.1679 28.7066 35.5579 31.7066 37.0979C38.4967 40.5879 76.6267 62.0879 82.2467 65.8379C87.4667 69.3179 105.557 77.2079 109.947 79.1079L100.087 119.688C99.7467 121.058 66.0367 256.708 61.8567 270.938C57.7066 285.058 35.7266 342.628 29.6666 356.468C23.8966 369.648 17.2267 379.718 17.1666 379.818L16.8967 380.218L-33.3633 563.618C-33.8033 565.218 -32.8633 566.868 -31.2633 567.308C-30.9933 567.378 -30.7333 567.418 -30.4733 567.418C-29.1533 567.418 -27.9433 566.538 -27.5833 565.208L22.4166 382.728C23.7666 380.648 29.7667 371.188 35.1567 358.868C41.2567 344.928 63.4067 286.878 67.6067 272.618C71.3867 259.768 97.9567 153.078 104.497 126.778C108.027 130.888 113.507 137.188 118.627 142.828C124.247 149.008 141.747 161.528 157.187 172.578C165.787 178.738 173.917 184.548 178.507 188.218C191.307 198.458 234.087 222.348 235.897 223.358C236.357 223.618 236.857 223.738 237.357 223.738C238.407 223.738 239.427 223.188 239.977 222.198C240.787 220.748 240.267 218.928 238.817 218.118V218.138Z" fill="white" stroke="#F2E4F0" stroke-miterlimit="10"></path><path opacity="0.66" d="M92.4574 90.6689C101.645 98.458 115.408 97.324 123.197 88.1359C130.986 78.9479 129.852 65.1852 120.664 57.3961C111.476 49.607 97.7135 50.7411 89.9244 59.9291C82.1353 69.1171 83.2694 82.8798 92.4574 90.6689ZM113.208 66.1913C117.539 69.8626 118.073 76.3493 114.402 80.6799C110.731 85.0104 104.244 85.545 99.9135 81.8737C95.5829 78.2025 95.0484 71.7158 98.7196 67.3852C102.391 63.0546 108.878 62.5201 113.208 66.1913Z" fill="url(#paint1_linear_202_1380)" fill-opacity="0.88"></path><path opacity="0.33" d="M87.2761 96.7806C99.8395 107.431 118.658 105.88 129.309 93.3171C139.959 80.7537 138.409 61.9351 125.845 51.2845C113.282 40.634 94.4632 42.1846 83.8126 54.748C73.1621 67.3114 74.7127 86.13 87.2761 96.7806ZM116.652 62.1284C123.227 67.7019 124.038 77.5498 118.465 84.1243C112.891 90.6987 103.043 91.5102 96.469 85.9367C89.8945 80.3632 89.083 70.5153 94.6565 63.9409C100.23 57.3664 110.078 56.5549 116.652 62.1284Z" fill="url(#paint2_linear_202_1380)" fill-opacity="0.88"></path><path d="M100.502 76.6996L71.5283 69.5403L92.3139 40.9999L107.799 66.6803L100.502 76.6996Z" fill="url(#paint3_linear_202_1380)"></path><path d="M107.319 86.3586C115.128 86.3586 121.459 79.8514 121.459 71.8244C121.459 63.7974 115.128 57.2903 107.319 57.2903C99.5098 57.2903 93.1792 63.7974 93.1792 71.8244C93.1792 79.8514 99.5098 86.3586 107.319 86.3586Z" fill="#9185EC"></path><path d="M113.262 69.0564H113.156L112.086 67.3956C111.879 67.0752 111.521 66.883 111.129 66.883H110.602V66.2203C110.602 65.5468 110.033 65 109.335 65H101.795C101.097 65 100.528 65.5481 100.528 66.2203V74.1176C100.528 74.7912 101.097 75.3379 101.795 75.3379H102.736C102.809 76.2651 103.607 77 104.588 77C105.569 77 106.367 76.2651 106.44 75.3379H108.615C108.689 76.2651 109.487 77 110.467 77C111.448 77 112.246 76.2651 112.32 75.3379H113.26C113.959 75.3379 114.527 74.7898 114.527 74.1176V70.2767C114.527 69.6045 113.959 69.0564 113.26 69.0564H113.262ZM111.128 67.7829C111.195 67.7829 111.257 67.8156 111.292 67.8701L112.056 69.0564H110.6V67.7829H111.128ZM101.462 67.2197H109.668V71.0416H101.462V67.2197ZM101.796 65.8985H109.334C109.518 65.8985 109.668 66.0431 109.668 66.2203V66.5462H101.462V66.2203C101.462 66.0431 101.612 65.8985 101.796 65.8985ZM101.462 71.7165H109.668V72.3792H101.462V71.7165ZM104.588 76.1001C104.073 76.1001 103.654 75.6965 103.654 75.2002C103.654 74.7039 104.073 74.3003 104.588 74.3003C105.103 74.3003 105.522 74.7039 105.522 75.2002C105.522 75.6965 105.103 76.1001 104.588 76.1001ZM110.467 76.1001C109.952 76.1001 109.533 75.6965 109.533 75.2002C109.533 74.7039 109.952 74.3003 110.467 74.3003C110.982 74.3003 111.401 74.7039 111.401 75.2002C111.401 75.6965 110.982 76.1001 110.467 76.1001ZM113.594 74.1162C113.594 74.2935 113.444 74.438 113.26 74.438H112.153C111.854 73.8272 111.213 73.4018 110.467 73.4018C109.722 73.4018 109.082 73.8285 108.783 74.438H106.273C105.975 73.8272 105.334 73.4018 104.588 73.4018C103.842 73.4018 103.203 73.8285 102.904 74.438H101.796C101.612 74.438 101.462 74.2935 101.462 74.1162V73.2777H113.594V74.1162ZM110.6 72.3792V69.9549H113.26C113.444 69.9549 113.594 70.0994 113.594 70.2767V72.3792H110.6Z" fill="white"></path><g clip-path="url(#clip1_202_1380)"><path d="M52.3608 1.92407H170.158V1.92407C169.026 2.24825 168.231 3.26624 168.193 4.44379L168.177 4.9157V4.9157C168.177 12.1755 162.292 18.0607 155.032 18.0607H67.4872C60.2274 18.0607 54.3421 12.1755 54.3421 4.9157V4.9157L54.3266 4.44379C54.2877 3.26624 53.4936 2.24825 52.3608 1.92407V1.92407Z" fill="#41242F"></path><path opacity="0.35" d="M192.985 12.5924H201.95C202.594 12.5924 203.115 13.1142 203.115 13.7579V16.9852C203.115 17.6288 202.594 18.1506 201.95 18.1506H192.985C192.342 18.1506 191.82 17.6288 191.82 16.9852V13.7579C191.82 13.1142 192.342 12.5924 192.985 12.5924Z" stroke="#41242F" stroke-width="0.537888"></path><path opacity="0.4" d="M203.922 14.2959V16.4475C204.355 16.2652 204.637 15.8413 204.637 15.3717C204.637 14.902 204.355 14.4781 203.922 14.2959" fill="#41242F"></path><path d="M192.626 14.1164C192.626 13.7203 192.948 13.3992 193.344 13.3992H201.591C201.987 13.3992 202.308 13.7203 202.308 14.1164V16.6265C202.308 17.0226 201.987 17.3437 201.591 17.3437H193.344C192.948 17.3437 192.626 17.0226 192.626 16.6265V14.1164Z" fill="#41242F"></path><path fill-rule="evenodd" clip-rule="evenodd" d="M184.736 13.5467C185.927 13.5468 187.074 14.0048 187.938 14.826C188.003 14.8894 188.107 14.8886 188.171 14.8242L188.793 14.1967C188.825 14.164 188.843 14.1198 188.843 14.0737C188.842 14.0277 188.824 13.9837 188.791 13.9514C186.524 11.7786 182.947 11.7786 180.68 13.9514C180.647 13.9837 180.628 14.0277 180.628 14.0737C180.628 14.1197 180.646 14.164 180.678 14.1967L181.3 14.8242C181.364 14.8887 181.468 14.8895 181.533 14.826C182.397 14.0047 183.544 13.5467 184.736 13.5467ZM184.735 15.5883C185.39 15.5883 186.022 15.8317 186.507 16.2713C186.573 16.3336 186.676 16.3323 186.74 16.2682L187.361 15.6407C187.394 15.6078 187.412 15.5631 187.412 15.5167C187.411 15.4703 187.392 15.426 187.359 15.3938C185.881 14.0187 183.591 14.0187 182.113 15.3938C182.08 15.426 182.061 15.4703 182.06 15.5167C182.06 15.5632 182.078 15.6078 182.111 15.6407L182.732 16.2682C182.796 16.3323 182.899 16.3336 182.965 16.2713C183.45 15.832 184.081 15.5886 184.735 15.5883ZM185.98 16.962C185.981 17.0085 185.962 17.0534 185.929 17.086L184.855 18.1702C184.823 18.202 184.78 18.22 184.735 18.22C184.691 18.22 184.648 18.202 184.616 18.1702L183.542 17.086C183.509 17.0534 183.49 17.0085 183.491 16.9619C183.492 16.9154 183.512 16.8714 183.547 16.8402C184.233 16.2598 185.238 16.2598 185.924 16.8402C185.959 16.8714 185.979 16.9155 185.98 16.962Z" fill="#41242F"></path><path fill-rule="evenodd" clip-rule="evenodd" d="M177.386 12.5024H176.848C176.551 12.5024 176.31 12.7433 176.31 13.0403V17.702C176.31 17.9991 176.551 18.2399 176.848 18.2399H177.386C177.683 18.2399 177.924 17.9991 177.924 17.702V13.0403C177.924 12.7433 177.683 12.5024 177.386 12.5024ZM174.338 13.7575H174.876C175.173 13.7575 175.414 13.9983 175.414 14.2954V17.702C175.414 17.9991 175.173 18.2399 174.876 18.2399H174.338C174.041 18.2399 173.8 17.9991 173.8 17.702V14.2954C173.8 13.9983 174.041 13.7575 174.338 13.7575ZM172.366 15.0126H171.828C171.531 15.0126 171.29 15.2535 171.29 15.5505V17.7021C171.29 17.9991 171.531 18.24 171.828 18.24H172.366C172.663 18.24 172.904 17.9991 172.904 17.7021V15.5505C172.904 15.2535 172.663 15.0126 172.366 15.0126ZM169.856 16.0884H169.318C169.021 16.0884 168.78 16.3292 168.78 16.6263V17.7021C168.78 17.9991 169.021 18.24 169.318 18.24H169.856C170.153 18.24 170.393 17.9991 170.393 17.7021V16.6263C170.393 16.3292 170.153 16.0884 169.856 16.0884Z" fill="#41242F"></path><path d="M30.6026 18.1987C32.0484 18.1987 32.9072 17.068 32.9072 15.1534C32.9072 14.4324 32.7694 13.8257 32.5054 13.3569C32.1233 12.6281 31.4654 12.2341 30.6341 12.2341C29.3971 12.2341 28.5225 13.0654 28.5225 14.2315C28.5225 15.3267 29.3104 16.1225 30.3938 16.1225C31.0596 16.1225 31.5993 15.8113 31.8672 15.2716H31.879C31.879 15.2716 31.8948 15.2716 31.8987 15.2716C31.9066 15.2716 31.9342 15.2716 31.9342 15.2716C31.9342 16.5716 31.4417 17.3477 30.6105 17.3477C30.1219 17.3477 29.7437 17.0799 29.6137 16.6504H28.6013C28.7707 17.5841 29.5625 18.1987 30.6026 18.1987ZM30.638 15.3149C29.9841 15.3149 29.5192 14.85 29.5192 14.2C29.5192 13.5657 30.0077 13.0811 30.642 13.0811C31.2762 13.0811 31.7648 13.5736 31.7648 14.2158C31.7648 14.85 31.2881 15.3149 30.638 15.3149Z" fill="#41242F"></path><path d="M34.5699 18.1435C34.9442 18.1435 35.2003 17.8757 35.2003 17.5211C35.2003 17.1626 34.9442 16.8986 34.5699 16.8986C34.1996 16.8986 33.9396 17.1626 33.9396 17.5211C33.9396 17.8757 34.1996 18.1435 34.5699 18.1435ZM34.5699 15.1888C34.9442 15.1888 35.2003 14.9249 35.2003 14.5703C35.2003 14.2118 34.9442 13.9479 34.5699 13.9479C34.1996 13.9479 33.9396 14.2118 33.9396 14.5703C33.9396 14.9249 34.1996 15.1888 34.5699 15.1888Z" fill="#41242F"></path><path d="M38.8879 18.0608H39.861V17.0011H40.6292V16.1422H39.861V12.376H38.427C37.4224 13.8888 36.6226 15.1534 36.1105 16.0949V17.0011H38.8879V18.0608ZM37.052 16.1068C37.7139 14.9406 38.3048 14.007 38.8485 13.2033H38.9036V16.1659H37.052V16.1068Z" fill="#41242F"></path><path d="M42.7961 18.0608H43.8126V12.376H42.8001L41.3148 13.416V14.393L42.7292 13.4003H42.7961V18.0608Z" fill="#41242F"></path></g><path opacity="0.66" d="M45.3055 192.376C54.4935 200.165 68.2562 199.031 76.0453 189.843C83.8344 180.655 82.7004 166.893 73.5124 159.103C64.3243 151.314 50.5617 152.448 42.7726 161.636C34.9835 170.824 36.1175 184.587 45.3055 192.376ZM66.0563 167.899C70.3869 171.57 70.9214 178.057 67.2501 182.387C63.5789 186.718 57.0922 187.252 52.7616 183.581C48.431 179.91 47.8965 173.423 51.5677 169.092C55.239 164.762 61.7257 164.227 66.0563 167.899Z" fill="url(#paint4_linear_202_1380)" fill-opacity="0.88"></path><path d="M58.9536 190.361C66.7951 190.361 73.1518 183.827 73.1518 175.767C73.1518 167.706 66.7951 161.172 58.9536 161.172C51.1121 161.172 44.7554 167.706 44.7554 175.767C44.7554 183.827 51.1121 190.361 58.9536 190.361Z" fill="#B3304C"></path><g clip-path="url(#clip2_202_1380)"><path d="M65.4025 173.056H65.2964L64.2267 171.396C64.0201 171.075 63.6621 170.883 63.2701 170.883H62.7423V170.22C62.7423 169.547 62.1735 169 61.4759 169H53.9354C53.2378 169 52.6689 169.548 52.6689 170.22V178.118C52.6689 178.791 53.2378 179.338 53.9354 179.338H54.8763C54.9499 180.265 55.748 181 56.7286 181C57.7092 181 58.5072 180.265 58.5808 179.338H60.7557C60.8292 180.265 61.6273 181 62.6079 181C63.5885 181 64.3866 180.265 64.4601 179.338H65.4011C66.1001 179.338 66.6675 178.79 66.6675 178.118V174.277C66.6675 173.604 66.1001 173.056 65.4011 173.056H65.4025ZM63.2687 171.783C63.3352 171.783 63.3975 171.816 63.4328 171.87L64.1969 173.056H62.7409V171.783H63.2687ZM53.6028 171.22H61.8084V175.042H53.6028V171.22ZM53.9368 169.899H61.4745C61.6584 169.899 61.8084 170.043 61.8084 170.22V170.546H53.6028V170.22C53.6028 170.043 53.7528 169.899 53.9368 169.899ZM53.6028 175.717H61.8084V176.379H53.6028V175.717ZM56.7286 180.1C56.2135 180.1 55.7947 179.697 55.7947 179.2C55.7947 178.704 56.2135 178.3 56.7286 178.3C57.2436 178.3 57.6625 178.704 57.6625 179.2C57.6625 179.697 57.2436 180.1 56.7286 180.1ZM62.6079 180.1C62.0928 180.1 61.674 179.697 61.674 179.2C61.674 178.704 62.0928 178.3 62.6079 178.3C63.123 178.3 63.5418 178.704 63.5418 179.2C63.5418 179.697 63.123 180.1 62.6079 180.1ZM65.735 178.116C65.735 178.293 65.5851 178.438 65.4011 178.438H64.2932C63.9946 177.827 63.3536 177.402 62.6079 177.402C61.8622 177.402 61.2226 177.829 60.924 178.438H58.4138C58.1153 177.827 57.4743 177.402 56.7286 177.402C55.9829 177.402 55.3433 177.829 55.0447 178.438H53.9368C53.7528 178.438 53.6028 178.293 53.6028 178.116V177.278H65.735V178.116ZM62.7409 176.379V173.955H65.4011C65.5851 173.955 65.735 174.099 65.735 174.277V176.379H62.7409Z" fill="white"></path></g><path opacity="0.66" d="M135.598 265.669C144.786 273.458 158.549 272.324 166.338 263.136C174.127 253.948 172.993 240.185 163.805 232.396C154.617 224.607 140.854 225.741 133.065 234.929C125.276 244.117 126.41 257.88 135.598 265.669ZM156.349 241.191C160.679 244.863 161.214 251.349 157.543 255.68C153.871 260.01 147.385 260.545 143.054 256.874C138.724 253.203 138.189 246.716 141.86 242.385C145.531 238.055 152.018 237.52 156.349 241.191Z" fill="url(#paint5_linear_202_1380)" fill-opacity="0.88"></path><path opacity="0.33" d="M130.417 271.781C142.98 282.431 161.799 280.88 172.449 268.317C183.1 255.754 181.549 236.935 168.986 226.285C156.422 215.634 137.604 217.185 126.953 229.748C116.303 242.311 117.853 261.13 130.417 271.781ZM159.793 237.128C166.367 242.702 167.179 252.55 161.605 259.124C156.032 265.699 146.184 266.51 139.61 260.937C133.035 255.363 132.224 245.515 137.797 238.941C143.371 232.366 153.218 231.555 159.793 237.128Z" fill="url(#paint6_linear_202_1380)" fill-opacity="0.88"></path><path d="M149.883 263.048C157.692 263.048 164.022 256.54 164.022 248.513C164.022 240.486 157.692 233.979 149.883 233.979C142.073 233.979 135.743 240.486 135.743 248.513C135.743 256.54 142.073 263.048 149.883 263.048Z" fill="#9185EC"></path><path d="M146.233 238.707L152.821 209L180.917 230.415L156.096 246.225L146.233 238.707Z" fill="url(#paint7_linear_202_1380)"></path><g clip-path="url(#clip3_202_1380)"><path d="M156.403 247.056H156.296L155.227 245.396C155.02 245.075 154.662 244.883 154.27 244.883H153.742V244.22C153.742 243.547 153.173 243 152.476 243H144.935C144.238 243 143.669 243.548 143.669 244.22V252.118C143.669 252.791 144.238 253.338 144.935 253.338H145.876C145.95 254.265 146.748 255 147.729 255C148.709 255 149.507 254.265 149.581 253.338H151.756C151.829 254.265 152.627 255 153.608 255C154.588 255 155.387 254.265 155.46 253.338H156.401C157.1 253.338 157.668 252.79 157.668 252.118V248.277C157.668 247.604 157.1 247.056 156.401 247.056H156.403ZM154.269 245.783C154.335 245.783 154.397 245.816 154.433 245.87L155.197 247.056H153.741V245.783H154.269ZM144.603 245.22H152.808V249.042H144.603V245.22ZM144.937 243.899H152.474C152.658 243.899 152.808 244.043 152.808 244.22V244.546H144.603V244.22C144.603 244.043 144.753 243.899 144.937 243.899ZM144.603 249.717H152.808V250.379H144.603V249.717ZM147.729 254.1C147.214 254.1 146.795 253.697 146.795 253.2C146.795 252.704 147.214 252.3 147.729 252.3C148.244 252.3 148.662 252.704 148.662 253.2C148.662 253.697 148.244 254.1 147.729 254.1ZM153.608 254.1C153.093 254.1 152.674 253.697 152.674 253.2C152.674 252.704 153.093 252.3 153.608 252.3C154.123 252.3 154.542 252.704 154.542 253.2C154.542 253.697 154.123 254.1 153.608 254.1ZM156.735 252.116C156.735 252.293 156.585 252.438 156.401 252.438H155.293C154.995 251.827 154.354 251.402 153.608 251.402C152.862 251.402 152.223 251.829 151.924 252.438H149.414C149.115 251.827 148.474 251.402 147.729 251.402C146.983 251.402 146.343 251.829 146.045 252.438H144.937C144.753 252.438 144.603 252.293 144.603 252.116V251.278H156.735V252.116ZM153.741 250.379V247.955H156.401C156.585 247.955 156.735 248.099 156.735 248.277V250.379H153.741Z" fill="white"></path></g><rect x="-19.4717" y="383" width="254" height="69" fill="white"></rect><rect x="76.5283" y="433.31" width="72.077" height="2.68944" rx="1.34472" fill="#41242F"></rect></g><rect x="2.02832" y="1.5" width="211" height="446" rx="25.5" stroke="white" stroke-width="3"></rect><defs><filter id="filter0_d_202_1380" x="-40.4717" y="-41" width="296" height="531" filterUnits="userSpaceOnUse" color-interpolation-filters="sRGB"><feGaussianBlur stdDeviation="22"></feGaussianBlur></filter><linearGradient id="paint0_linear_202_1380" x1="106.698" y1="-63.7" x2="106.698" y2="515.13" gradientUnits="userSpaceOnUse"><stop offset="0.17628" stop-color="#FFFDFD"></stop><stop offset="0.895735" stop-color="#F3E7F7"></stop></linearGradient><linearGradient id="paint1_linear_202_1380" x1="89.9244" y1="59.9291" x2="130.216" y2="89.0246" gradientUnits="userSpaceOnUse"><stop stop-color="#E26271"></stop><stop offset="1" stop-color="#B584DC" stop-opacity="0"></stop></linearGradient><linearGradient id="paint2_linear_202_1380" x1="83.8126" y1="54.748" x2="138.906" y2="94.5322" gradientUnits="userSpaceOnUse"><stop stop-color="#BB85E6"></stop><stop offset="1" stop-color="#BC89E4" stop-opacity="0"></stop></linearGradient><linearGradient id="paint3_linear_202_1380" x1="81.9211" y1="55.2701" x2="104.26" y2="71.5392" gradientUnits="userSpaceOnUse"><stop stop-color="#9185EC" stop-opacity="0"></stop><stop offset="1" stop-color="#9185EC"></stop></linearGradient><linearGradient id="paint4_linear_202_1380" x1="42.7726" y1="161.636" x2="83.0642" y2="190.732" gradientUnits="userSpaceOnUse"><stop stop-color="#E26271"></stop><stop offset="1" stop-color="#B584DC" stop-opacity="0"></stop></linearGradient><linearGradient id="paint5_linear_202_1380" x1="133.065" y1="234.929" x2="173.357" y2="264.025" gradientUnits="userSpaceOnUse"><stop stop-color="#E26271"></stop><stop offset="1" stop-color="#B584DC" stop-opacity="0"></stop></linearGradient><linearGradient id="paint6_linear_202_1380" x1="126.953" y1="229.748" x2="182.047" y2="269.532" gradientUnits="userSpaceOnUse"><stop stop-color="#BB85E6"></stop><stop offset="1" stop-color="#BC89E4" stop-opacity="0"></stop></linearGradient><linearGradient id="paint7_linear_202_1380" x1="166.869" y1="219.708" x2="150.126" y2="241.674" gradientUnits="userSpaceOnUse"><stop stop-color="#9185EC" stop-opacity="0"></stop><stop offset="1" stop-color="#9185EC"></stop></linearGradient><clipPath id="clip0_202_1380"><rect x="3.52832" y="3" width="208" height="443" rx="24" fill="white"></rect></clipPath><clipPath id="clip1_202_1380"><rect width="201.708" height="23.6671" fill="white" transform="translate(10.5283 3)"></rect></clipPath><clipPath id="clip2_202_1380"><rect width="14" height="12" fill="white" transform="translate(52.6689 169)"></rect></clipPath><clipPath id="clip3_202_1380"><rect width="14" height="12" fill="white" transform="translate(143.669 243)"></rect></clipPath></defs></svg>