<svg xmlns="http://www.w3.org/2000/svg" width="390" height="401" viewBox="0 0 390 401" fill="none"><rect width="390" height="401" fill="url(#paint0_radial_3352_5327)"></rect><g style="mix-blend-mode:multiply" opacity="0.35"><path opacity="0.43" d="M273.621 366.06L-95.24 465.21L-145.3 410.019L273.621 366.06Z" fill="#8ABBE7"></path><path opacity="0.43" d="M66.1293 75.8828L222.78 205.256L-67.8373 173.981L66.1293 75.8828Z" fill="#A1B5EA"></path><path opacity="0.43" d="M121.673 48.7079L163.139 326.205L194.964 344.661L121.673 48.7079Z" fill="#8BE0E0"></path><path opacity="0.43" d="M-150.833 378.174L-22.6686 597.735L163.139 326.205L-150.833 378.174Z" fill="#8CC1E9"></path><path opacity="0.43" d="M-141.825 293.196L-150.833 378.174L163.139 326.206L-141.825 293.196Z" fill="#8BE9E1"></path><path opacity="0.43" d="M-150.833 378.174L-66.0897 172.206L-22.6683 597.735L-150.833 378.174Z" fill="#90C1EE"></path><path opacity="0.43" d="M-66.0897 172.206L-22.6683 597.735L-283.922 341.142L-66.0897 172.206Z" fill="#90BFED"></path></g><defs><radialGradient id="paint0_radial_3352_5327" cx="0" cy="0" r="1" gradientUnits="userSpaceOnUse" gradientTransform="translate(158.719 258.712) rotate(40.6248) scale(258.205 311.882)"><stop stop-color="#FF0000"></stop><stop offset="0.8125" stop-color="#4B354B"></stop></radialGradient></defs></svg>