<svg width="95" height="96" viewBox="0 0 95 96" fill="none" xmlns="http://www.w3.org/2000/svg">
<rect x="13.4971" y="14.7993" width="68" height="68" rx="34" fill="url(#paint0_linear_4_2818)"/>
<path d="M94.91 48.331C94.91 74.5305 73.6711 95.7694 47.4716 95.7694C21.2721 95.7694 0.0332031 74.5305 0.0332031 48.331C0.0332031 22.1315 21.2721 0.892578 47.4716 0.892578C73.6711 0.892578 94.91 22.1315 94.91 48.331ZM7.92376 48.331C7.92376 70.1727 25.6299 87.8789 47.4716 87.8789C69.3133 87.8789 87.0195 70.1727 87.0195 48.331C87.0195 26.4893 69.3133 8.78313 47.4716 8.78313C25.6299 8.78313 7.92376 26.4893 7.92376 48.331Z" fill="url(#paint1_linear_4_2818)"/>
<path d="M29.3974 55.7153V53.6033C29.3974 52.0413 30.0574 50.9413 31.1134 50.0833C32.1474 49.2253 33.4454 48.6093 34.7214 48.0593C35.4694 47.7293 36.1074 47.4433 36.7454 47.1133C38.0214 46.4973 38.8574 45.7713 38.8574 44.6713C38.8574 43.0433 37.8234 42.2513 35.8434 42.2513C33.6654 42.2513 32.5214 43.3513 32.5214 45.3313V45.8373H29.5734V45.1993C29.5734 41.6353 31.8174 39.7653 35.8874 39.7653C37.1854 39.7653 38.2854 39.9633 39.1654 40.3813C40.9254 41.2173 41.8494 42.6693 41.8494 44.5173C41.8494 46.0793 41.2114 47.1793 40.1994 48.0373C39.1654 48.8733 37.9334 49.4893 36.7014 50.0393C36.0634 50.3253 35.4254 50.6333 34.8314 50.8973C33.6874 51.4913 32.8734 52.1073 32.7634 53.0533H41.8274V55.7153H29.3974ZM49.4194 56.0233C45.2394 56.0233 43.2814 53.9553 43.2594 50.6553V50.6113H46.3834V50.7213C46.3834 52.2833 47.5054 53.4493 49.5734 53.4493C51.5754 53.4493 52.9175 52.3493 52.9175 50.2813C52.9175 48.3453 51.7734 47.2893 49.8594 47.2893C48.0994 47.2893 47.1974 48.0153 46.5814 49.0273L46.4714 49.1593L43.4134 48.3453L44.5134 40.0293H55.3154C55.3154 41.2173 55.1614 41.8553 54.6554 42.1853C54.1274 42.5373 53.2034 42.6033 51.5754 42.6033H46.7794L46.2734 46.3213C47.1314 45.4633 48.3194 44.8693 50.2554 44.8693C51.4434 44.8693 52.4114 45.1113 53.2474 45.5513C54.9194 46.4973 55.8654 48.1693 55.8654 50.3913C55.8654 51.5353 55.6015 52.5253 55.0735 53.3833C54.0394 55.0553 52.1035 56.0233 49.4194 56.0233ZM60.6685 46.4313C58.5125 46.4313 57.3025 45.2873 57.3025 43.2633V43.1093C57.3025 40.9313 58.7545 39.8093 60.6905 39.8093C62.7145 39.8093 64.0565 40.9973 64.0565 43.1093V43.2633C64.0565 45.2653 62.7585 46.4313 60.6685 46.4313ZM57.2805 55.7153C57.6105 55.3413 58.0065 54.8353 58.5345 54.1533C59.5905 52.8333 60.9325 51.1393 62.4065 49.2473C63.8585 47.3993 65.3325 45.5293 66.6305 43.8133C67.9285 42.1413 68.9845 40.7993 69.5345 40.0293H72.7685C72.4825 40.4033 72.0425 40.9313 71.5365 41.6133C70.4805 42.9333 69.1605 44.6713 67.7085 46.5193C66.2565 48.4113 64.8265 50.2813 63.5285 51.9533C62.2305 53.6253 61.1965 54.9673 60.6465 55.7153H57.2805ZM60.6905 44.6053C61.5485 44.6053 62.0765 44.0553 62.0765 43.1753V43.1093C62.0765 42.1633 61.5265 41.6353 60.6905 41.6353C59.9205 41.6353 59.3045 42.0973 59.3045 43.1093V43.1753C59.3045 44.0993 59.8325 44.6053 60.6905 44.6053ZM69.3585 55.9573C67.2025 55.9573 65.9925 54.8573 65.9925 52.7893V52.6353C65.9925 50.4573 67.4445 49.3353 69.3805 49.3353C71.4045 49.3353 72.7465 50.5233 72.7465 52.6353V52.7893C72.7465 54.8133 71.4485 55.9573 69.3585 55.9573ZM69.3805 54.1313C70.2385 54.1313 70.7665 53.5813 70.7665 52.7013V52.6353C70.7665 51.6893 70.2165 51.1613 69.3805 51.1613C68.6105 51.1613 67.9945 51.6233 67.9945 52.6353V52.7013C67.9945 53.6253 68.5225 54.1313 69.3805 54.1313Z" fill="white"/>
<defs>
<linearGradient id="paint0_linear_4_2818" x1="7.00112" y1="30.1618" x2="82.3938" y2="41.9065" gradientUnits="userSpaceOnUse">
<stop stop-color="#FF0000"/>
<stop offset="0.8125" stop-color="#662A5C"/>
</linearGradient>
<linearGradient id="paint1_linear_4_2818" x1="-9.03025" y1="22.3271" x2="96.1612" y2="38.7139" gradientUnits="userSpaceOnUse">
<stop stop-color="#FF0000"/>
<stop offset="0.8125" stop-color="#662A5C"/>
</linearGradient>
</defs>
</svg>
