<svg xmlns="http://www.w3.org/2000/svg" width="70" height="70" viewBox="0 0 70 70" fill="none"><g clip-path="url(#clip0_3737_4577)"><rect width="70" height="70" rx="10" fill="url(#paint0_linear_3737_4577)"></rect><g clip-path="url(#clip1_3737_4577)"><path d="M-6.68542 27L-9.00842 29.323L-4.91619 36.3999L-2.26235 36.0107L13.9367 52.2115L12.555 53.5385C11.8473 54.2462 11.8473 55.3183 12.555 56.026L13.2733 56.7461C13.981 57.4538 15.0637 57.4538 15.5945 56.7461L17.6963 58.8462C17.5194 59.9077 17.6963 61.1692 18.581 62.0538L28.1454 71.5634C30.0916 73.5095 33.2762 73.5095 35.2223 71.5634C37.5223 69.4403 37.5011 66.2663 35.555 64.3202L26.0453 54.7539C25.1607 53.8693 23.8993 53.5155 22.8377 53.8693L20.5147 51.7692C21.0455 51.0615 21.0455 49.9788 20.5147 49.4462L19.8513 48.7845C19.6904 48.6168 19.4973 48.4834 19.2836 48.3922C19.0699 48.301 18.8399 48.254 18.6075 48.254C18.3751 48.254 18.1452 48.301 17.9314 48.3922C17.7177 48.4834 17.5246 48.6168 17.3637 48.7845L16.2031 49.9452L0.00403881 33.7461L0.389731 31.0922L-6.68542 27ZM27.8146 27.0548C24.3239 26.7647 19.6956 29.0788 17.53 31.0905C14.8656 33.7549 15.3008 37.2385 17.4186 40.6018L13.6607 44.3615L16.3146 47.3462C17.73 46.1077 19.8177 46.1077 21.233 47.3462L21.9531 48.0645L22.1194 48.2308L23.6675 46.6827C26.8663 48.5634 30.196 48.8341 32.7348 46.2952C35.2117 43.9952 37.8974 38.3231 36.659 34.9615L31.6839 40.1029C30.9762 40.8106 29.904 40.8106 29.1963 40.1029L24.0532 34.9615C23.8855 34.8007 23.752 34.6076 23.6608 34.3939C23.5697 34.1801 23.5227 33.9501 23.5227 33.7178C23.5227 33.4854 23.5697 33.2554 23.6608 33.0417C23.752 32.8279 23.8855 32.6348 24.0532 32.474L29.1981 27.3326C28.7558 27.1769 28.3135 27.0973 27.8146 27.0548ZM8.35304 49.1154L1.93781 55.5288C1.24844 55.3757 0.54388 55.3015 -0.162269 55.3077C-5.11611 55.3077 -9.00842 59.2 -9.00842 64.1538C-9.00842 69.1077 -5.11611 73 -0.162269 73C4.79158 73 8.68389 69.1077 8.68389 64.1538C8.68389 63.2462 8.54058 62.374 8.29642 61.5548L12.056 57.7952L11.504 57.0769C10.0887 55.6615 10.0993 53.5172 11.3377 52.1001L8.35304 49.1154ZM22.0646 57.1884C22.2857 57.1884 22.4945 57.2308 22.6714 57.4095L33.1223 67.8586C33.4761 68.2125 33.4761 68.7751 33.1223 69.1289C32.7684 69.4828 32.2023 69.4828 31.8484 69.1289L21.4011 58.6798C21.0473 58.326 21.0473 57.7634 21.4011 57.4095C21.578 57.2326 21.8434 57.1884 22.0646 57.1884ZM1.05496 59.5627L4.42712 62.9366L3.20989 67.5242L-1.37773 68.7415L-4.75165 65.3675L-3.53442 60.7799L1.05496 59.5627Z" fill="white"></path></g><path d="M54.8666 7.375H58.1166V18.75H54.8666V7.375ZM54.8666 20.375H58.1166V23.625H54.8666V20.375Z" fill="white"></path><path d="M72.2655 7.85113L64.1405 -0.273873C63.9898 -0.425068 63.8107 -0.544973 63.6136 -0.626686C63.4164 -0.7084 63.205 -0.750308 62.9916 -0.749998H49.9916C49.7781 -0.750308 49.5668 -0.7084 49.3696 -0.626686C49.1724 -0.544973 48.9934 -0.425068 48.8427 -0.273873L40.7177 7.85113C40.5665 8.00177 40.4466 8.18084 40.3649 8.37801C40.2832 8.57518 40.2413 8.78657 40.2416 9V22C40.2416 22.4323 40.4122 22.845 40.7177 23.1489L48.8427 31.2739C48.9934 31.4251 49.1724 31.545 49.3696 31.6267C49.5668 31.7084 49.7781 31.7503 49.9916 31.75H62.9916C63.4238 31.75 63.8366 31.5794 64.1405 31.2739L72.2655 23.1489C72.4166 22.9982 72.5366 22.8192 72.6183 22.622C72.7 22.4248 72.7419 22.2134 72.7416 22V9C72.7419 8.78657 72.7 8.57518 72.6183 8.37801C72.5366 8.18084 72.4166 8.00177 72.2655 7.85113ZM69.4916 21.3273L62.3188 28.5H50.6643L43.4916 21.3273V9.67275L50.6643 2.5H62.3188L69.4916 9.67275V21.3273Z" fill="white"></path></g><defs><linearGradient id="paint0_linear_3737_4577" x1="35" y1="0" x2="35" y2="70" gradientUnits="userSpaceOnUse"><stop stop-color="#921D41"></stop><stop offset="1" stop-color="#1D3792"></stop></linearGradient><clipPath id="clip0_3737_4577"><rect width="70" height="70" rx="10" fill="white"></rect></clipPath><clipPath id="clip1_3737_4577"><rect width="46" height="46" fill="white" transform="translate(-9.00842 27)"></rect></clipPath></defs></svg>