<svg xmlns="http://www.w3.org/2000/svg" width="70" height="70" viewBox="0 0 70 70" fill="none"><rect width="70" height="70" rx="10" fill="url(#paint0_linear_3737_4592)"></rect><path d="M20.75 55.75C19.4438 55.75 18.3251 55.2845 17.3941 54.3535C16.4631 53.4225 15.9984 52.3047 16 51V43.875H20.75V51H49.25V43.875H54V51C54 52.3063 53.5345 53.4249 52.6035 54.3559C51.6725 55.2869 50.5547 55.7516 49.25 55.75H20.75ZM16 29.625V13C16 11.6938 16.4655 10.5751 17.3965 9.64413C18.3275 8.71313 19.4453 8.24842 20.75 8.25H39.75L54 22.5V29.625H49.25V24.875H37.375V13H20.75V29.625H16ZM27.875 39.125V34.375H42.125V39.125H27.875ZM46.875 39.125V34.375H61.125V39.125H46.875ZM8.875 39.125V34.375H23.125V39.125H8.875Z" fill="white"></path><defs><linearGradient id="paint0_linear_3737_4592" x1="35" y1="0" x2="35" y2="70" gradientUnits="userSpaceOnUse"><stop stop-color="#921D41"></stop><stop offset="1" stop-color="#1D3792"></stop></linearGradient></defs></svg>