<svg xmlns="http://www.w3.org/2000/svg" width="1920" height="905" viewBox="0 0 1920 905" fill="none"><g clip-path="url(#clip0_697_26482)"><g clip-path="url(#clip1_697_26482)"><g opacity="0.55"><g clip-path="url(#clip2_697_26482)"><g opacity="0.77"><mask id="mask0_697_26482" style="mask-type:alpha" maskUnits="userSpaceOnUse" x="-924" y="-131" width="2857" height="1034"><path d="M991.425 111.937C1335.53 -80.4114 1762.07 31.7916 1932.33 111.937V902.407H-920.619V-128.498C-945.262 -138.379 -837.282 -104.126 -208.223 111.937C578.101 382.014 561.299 352.371 991.425 111.937Z" fill="url(#paint0_linear_697_26482)"></path></mask><g mask="url(#mask0_697_26482)"><rect x="1919.63" y="904.605" width="2319.68" height="982.44" transform="rotate(-180 1919.63 904.605)" fill="url(#paint1_linear_697_26482)" fill-opacity="0.88"></rect></g></g><g opacity="0.77"><mask id="mask1_697_26482" style="mask-type:alpha" maskUnits="userSpaceOnUse" x="-930" y="37" width="2921" height="1059"><path d="M997.917 175.923C1328.01 -39.5807 1761.24 43.0919 1936.6 111.366L1990.84 899.974L-855.386 1095.72L-926.119 67.2445C-951.381 59.0777 -841.306 85.8419 -198.905 258.234C604.097 473.723 585.301 445.303 997.917 175.923Z" fill="url(#paint2_linear_697_26482)"></path></mask><g mask="url(#mask1_697_26482)"><rect x="1990.46" y="935.45" width="2319.68" height="982.44" transform="rotate(176.066 1990.46 935.45)" fill="url(#paint3_linear_697_26482)" fill-opacity="0.88"></rect></g></g></g><g clip-path="url(#clip3_697_26482)"><g opacity="0.77"><mask id="mask2_697_26482" style="mask-type:alpha" maskUnits="userSpaceOnUse" x="-13" y="10" width="2857" height="1033"><path d="M928.574 801.06C584.473 993.408 157.931 881.205 -12.3271 801.06V10.5896H2840.62V1041.5C2865.26 1051.38 2757.28 1017.12 2128.22 801.06C1341.9 530.983 1358.7 560.625 928.574 801.06Z" fill="url(#paint4_linear_697_26482)"></path></mask><g mask="url(#mask2_697_26482)"><rect x="0.366211" y="8.3916" width="2319.68" height="982.44" fill="url(#paint5_linear_697_26482)" fill-opacity="0.88"></rect></g></g><g opacity="0.77"><mask id="mask3_697_26482" style="mask-type:alpha" maskUnits="userSpaceOnUse" x="-71" y="-183" width="2921" height="1059"><path d="M922.082 737.073C591.99 952.578 158.755 869.905 -16.6011 801.631L-70.8369 13.0227L2775.39 -182.724L2846.12 845.752C2871.38 853.919 2761.3 827.155 2118.9 654.763C1315.9 439.273 1334.7 467.693 922.082 737.073Z" fill="url(#paint6_linear_697_26482)"></path></mask><g mask="url(#mask3_697_26482)"><rect x="-70.4639" y="-22.4526" width="2319.68" height="982.44" transform="rotate(-3.93427 -70.4639 -22.4526)" fill="url(#paint7_linear_697_26482)" fill-opacity="0.88"></rect></g></g></g></g></g></g><defs><linearGradient id="paint0_linear_697_26482" x1="-131.924" y1="314.192" x2="1932.12" y2="334.702" gradientUnits="userSpaceOnUse"><stop offset="0.0834264" stop-color="#440597"></stop><stop offset="0.333937" stop-color="#C93CA1"></stop><stop offset="0.721738" stop-color="#6E73EE"></stop><stop offset="1" stop-color="#250054"></stop></linearGradient><linearGradient id="paint1_linear_697_26482" x1="3079.47" y1="904.605" x2="3042.46" y2="2026.13" gradientUnits="userSpaceOnUse"><stop stop-color="#BB85E6"></stop><stop offset="1" stop-color="#BC89E4" stop-opacity="0"></stop></linearGradient><linearGradient id="paint2_linear_697_26482" x1="14.3962" y1="442.221" x2="1907.26" y2="456.458" gradientUnits="userSpaceOnUse"><stop offset="0.0834264" stop-color="#440597"></stop><stop offset="0.333937" stop-color="#C93CA1"></stop><stop offset="0.721738" stop-color="#6E73EE"></stop><stop offset="1" stop-color="#250054"></stop></linearGradient><linearGradient id="paint3_linear_697_26482" x1="3150.3" y1="935.45" x2="3113.29" y2="2056.97" gradientUnits="userSpaceOnUse"><stop stop-color="#E26271"></stop><stop offset="1" stop-color="#B584DC" stop-opacity="0"></stop></linearGradient><linearGradient id="paint4_linear_697_26482" x1="2051.92" y1="598.805" x2="-12.1232" y2="578.295" gradientUnits="userSpaceOnUse"><stop offset="0.0834264" stop-color="#440597"></stop><stop offset="0.333937" stop-color="#C93CA1"></stop><stop offset="0.721738" stop-color="#6E73EE"></stop><stop offset="1" stop-color="#250054"></stop></linearGradient><linearGradient id="paint5_linear_697_26482" x1="1160.21" y1="8.3916" x2="1123.19" y2="1129.91" gradientUnits="userSpaceOnUse"><stop stop-color="#BB85E6"></stop><stop offset="1" stop-color="#BC89E4" stop-opacity="0"></stop></linearGradient><linearGradient id="paint6_linear_697_26482" x1="1905.6" y1="470.776" x2="12.7376" y2="456.539" gradientUnits="userSpaceOnUse"><stop offset="0.0834264" stop-color="#440597"></stop><stop offset="0.333937" stop-color="#C93CA1"></stop><stop offset="0.721738" stop-color="#6E73EE"></stop><stop offset="1" stop-color="#250054"></stop></linearGradient><linearGradient id="paint7_linear_697_26482" x1="1089.38" y1="-22.4526" x2="1052.36" y2="1099.07" gradientUnits="userSpaceOnUse"><stop stop-color="#E26271"></stop><stop offset="1" stop-color="#B584DC" stop-opacity="0"></stop></linearGradient><clipPath id="clip0_697_26482"><rect width="1920" height="905" fill="white"></rect></clipPath><clipPath id="clip1_697_26482"><rect width="1920" height="1328.26" fill="white" transform="translate(0 -130)"></rect></clipPath><clipPath id="clip2_697_26482"><rect width="1920" height="591" fill="white" transform="matrix(-1 0 0 1 1920 -130.002)"></rect></clipPath><clipPath id="clip3_697_26482"><rect width="1920" height="582" fill="white" transform="matrix(1 0 0 -1 -0.000976562 1043)"></rect></clipPath></defs></svg>