<svg xmlns="http://www.w3.org/2000/svg" width="70" height="70" viewBox="0 0 70 70" fill="none"><g clip-path="url(#clip0_3737_4565)"><rect width="70" height="70" rx="10" fill="url(#paint0_linear_3737_4565)"></rect><path d="M33.6147 54.9726C33.6147 56.1612 34.0869 57.3011 34.9273 58.1415C35.7678 58.9819 36.9076 59.4541 38.0962 59.4541C39.2847 59.4541 40.4246 58.9819 41.265 58.1415C42.1055 57.3011 42.5776 56.1612 42.5776 54.9726C42.5776 53.7841 42.1055 52.6442 41.265 51.8038C40.4246 50.9634 39.2847 50.4912 38.0962 50.4912C36.9076 50.4912 35.7678 50.9634 34.9273 51.8038C34.0869 52.6442 33.6147 53.7841 33.6147 54.9726ZM56.0219 54.9726C56.0219 56.1612 56.4941 57.3011 57.3345 58.1415C58.1749 58.9819 59.3148 59.4541 60.5033 59.4541C61.6919 59.4541 62.8318 58.9819 63.6722 58.1415C64.5126 57.3011 64.9848 56.1612 64.9848 54.9726C64.9848 53.7841 64.5126 52.6442 63.6722 51.8038C62.8318 50.9634 61.6919 50.4912 60.5033 50.4912C59.3148 50.4912 58.1749 50.9634 57.3345 51.8038C56.4941 52.6442 56.0219 53.7841 56.0219 54.9726Z" stroke="white" stroke-width="3" stroke-linecap="round" stroke-linejoin="round"></path><path d="M33.6147 54.9726H29.1333V49.2533M31.374 28.084C30.7797 28.084 30.2098 28.3201 29.7896 28.7403C29.3694 29.1605 29.1333 29.7304 29.1333 30.3247V36.5056M51.5405 54.9726V28.084H46.4988M42.5776 54.9726H56.0219M64.9848 54.9726H69.4662V41.5283M69.4662 41.5283H51.5405M69.4662 41.5283L62.744 30.3247H51.5405" stroke="white" stroke-width="3" stroke-linecap="round" stroke-linejoin="round"></path><path d="M22.0807 36.4402H26.0954V24.3962H22.0807V36.4402ZM24.0881 20.3815C24.6568 20.3815 25.1339 20.1888 25.5193 19.8034C25.9047 19.4179 26.0967 18.9415 26.0954 18.3741C26.0954 17.8054 25.9027 17.3283 25.5173 16.9429C25.1319 16.5575 24.6555 16.3654 24.0881 16.3668C23.5193 16.3668 23.0422 16.5595 22.6568 16.9449C22.2714 17.3303 22.0794 17.8067 22.0807 18.3741C22.0807 18.9429 22.2734 19.42 22.6588 19.8054C23.0442 20.1908 23.5207 20.3828 24.0881 20.3815ZM24.0881 46.4769C21.3112 46.4769 18.7017 45.9496 16.2594 44.8951C13.8172 43.8406 11.6927 42.4107 9.88612 40.6054C8.07952 38.7988 6.64962 36.6744 5.59643 34.2321C4.54325 31.7899 4.01599 29.1803 4.01465 26.4035C4.01465 23.6267 4.54191 21.0171 5.59643 18.5749C6.65096 16.1326 8.08085 14.0082 9.88612 12.2016C11.6927 10.3949 13.8172 8.96505 16.2594 7.91186C18.7017 6.85868 21.3112 6.33142 24.0881 6.33008C26.8649 6.33008 29.4744 6.85734 31.9167 7.91186C34.359 8.96639 36.4834 10.3963 38.29 12.2016C40.0966 14.0082 41.5272 16.1326 42.5817 18.5749C43.6362 21.0171 44.1628 23.6267 44.1615 26.4035C44.1615 29.1803 43.6342 31.7899 42.5797 34.2321C41.5252 36.6744 40.0953 38.7988 38.29 40.6054C36.4834 42.412 34.359 43.8426 31.9167 44.8971C29.4744 45.9517 26.8649 46.4782 24.0881 46.4769ZM24.0881 42.4622C28.5711 42.4622 32.3683 40.9065 35.4797 37.7952C38.5911 34.6838 40.1468 30.8866 40.1468 26.4035C40.1468 21.9204 38.5911 18.1232 35.4797 15.0118C32.3683 11.9005 28.5711 10.3448 24.0881 10.3448C19.605 10.3448 15.8078 11.9005 12.6964 15.0118C9.58502 18.1232 8.02933 21.9204 8.02933 26.4035C8.02933 30.8866 9.58502 34.6838 12.6964 37.7952C15.8078 40.9065 19.605 42.4622 24.0881 42.4622Z" fill="white"></path><path fill-rule="evenodd" clip-rule="evenodd" d="M10.7725 36.6035L35.4443 11.9316L37.9677 14.455L13.2958 39.1269L10.7725 36.6035Z" fill="white"></path></g><defs><linearGradient id="paint0_linear_3737_4565" x1="35" y1="0" x2="35" y2="70" gradientUnits="userSpaceOnUse"><stop stop-color="#921D41"></stop><stop offset="1" stop-color="#1D3792"></stop></linearGradient><clipPath id="clip0_3737_4565"><rect width="70" height="70" rx="10" fill="white"></rect></clipPath></defs></svg>