<svg width="541" height="541" viewBox="0 0 541 541" fill="none" xmlns="http://www.w3.org/2000/svg">
<g opacity="0.66" clip-path="url(#clip0_4690_2616)">
<path opacity="0.66" d="M142.465 421.117C225.648 491.635 350.248 481.368 420.766 398.185C491.285 315.002 481.018 190.402 397.834 119.883C314.651 49.3651 190.051 59.6321 119.533 142.816C49.0143 225.999 59.2813 350.599 142.465 421.117ZM330.331 199.51C369.538 232.748 374.377 291.475 341.139 330.682C307.902 369.888 249.175 374.728 209.968 341.49C170.761 308.253 165.922 249.525 199.159 210.319C232.397 171.112 291.124 166.273 330.331 199.51Z" fill="url(#paint0_linear_4690_2616)" fill-opacity="0.88"/>
<path opacity="0.33" d="M95.5577 476.448C209.3 572.873 379.673 558.834 476.098 445.092C572.522 331.35 558.483 160.976 444.741 64.5517C330.999 -31.8727 160.625 -17.8338 64.2011 95.9083C-32.2232 209.65 -18.1844 380.024 95.5577 476.448ZM361.514 162.726C421.036 213.186 428.383 302.343 377.923 361.865C327.464 421.387 238.306 428.733 178.785 378.274C119.263 327.814 111.916 238.657 162.376 179.135C212.835 119.613 301.992 112.267 361.514 162.726Z" fill="url(#paint1_linear_4690_2616)" fill-opacity="0.88"/>
</g>
<defs>
<linearGradient id="paint0_linear_4690_2616" x1="270.149" y1="73.0403" x2="235.194" y2="521.635" gradientUnits="userSpaceOnUse">
<stop stop-color="#C9ACB0"/>
<stop offset="1" stop-color="#B584DC" stop-opacity="0"/>
</linearGradient>
<linearGradient id="paint1_linear_4690_2616" x1="270.149" y1="0.5" x2="222.352" y2="613.893" gradientUnits="userSpaceOnUse">
<stop stop-color="#BB85E6"/>
<stop offset="1" stop-color="#BC89E4" stop-opacity="0"/>
</linearGradient>
<clipPath id="clip0_4690_2616">
<rect width="540" height="540" fill="white" transform="translate(0.149414 0.5)"/>
</clipPath>
</defs>
</svg>
