<svg xmlns="http://www.w3.org/2000/svg" width="1920" height="1634" viewBox="0 0 1920 1634" fill="none"><g clip-path="url(#clip0_1_1470)"><rect width="1925" height="1634" transform="translate(-2.5 0.00012207)" fill="url(#paint0_linear_1_1470)" fill-opacity="0.88"></rect><g clip-path="url(#clip1_1_1470)"><g opacity="0.77"><mask id="mask0_1_1470" style="mask-type:alpha" maskUnits="userSpaceOnUse" x="-927" y="1020" width="2857" height="1033"><path d="M988.425 1261.94C1332.53 1069.59 1759.07 1181.79 1929.33 1261.94V2052.41H-923.62V1021.5C-948.262 1011.62 -840.282 1045.88 -211.223 1261.94C575.101 1532.02 558.299 1502.37 988.425 1261.94Z" fill="url(#paint1_linear_1_1470)"></path></mask><g mask="url(#mask0_1_1470)"><rect x="1916.63" y="2054.61" width="2319.68" height="982.44" transform="rotate(-180 1916.63 2054.61)" fill="url(#paint2_linear_1_1470)" fill-opacity="0.88"></rect></g></g><g opacity="0.77"><mask id="mask1_1_1470" style="mask-type:alpha" maskUnits="userSpaceOnUse" x="-933" y="1187" width="2921" height="1059"><path d="M994.916 1325.93C1325.01 1110.42 1758.24 1193.09 1933.6 1261.37L1987.84 2049.98L-858.387 2245.72L-929.12 1217.25C-954.382 1209.08 -844.307 1235.84 -201.905 1408.24C601.097 1623.73 582.3 1595.31 994.916 1325.93Z" fill="url(#paint3_linear_1_1470)"></path></mask><g mask="url(#mask1_1_1470)"><rect x="1984.62" y="2098.12" width="2319.68" height="982.44" transform="rotate(176.066 1984.62 2098.12)" fill="url(#paint4_linear_1_1470)" fill-opacity="0.88"></rect></g></g></g><g clip-path="url(#clip2_1_1470)"><g opacity="0.77"><mask id="mask2_1_1470" style="mask-type:alpha" maskUnits="userSpaceOnUse" x="-927" y="1151" width="2857" height="1034"><path d="M988.426 1942.06C1332.53 2134.41 1759.07 2022.21 1929.33 1942.06V1151.59H-923.619V2182.5C-948.262 2192.38 -840.282 2158.12 -211.223 1942.06C575.102 1671.98 558.3 1701.63 988.426 1942.06Z" fill="url(#paint5_linear_1_1470)"></path></mask><g mask="url(#mask2_1_1470)"><rect width="2319.68" height="982.44" transform="matrix(-1 0 0 1 1916.63 1149.39)" fill="url(#paint6_linear_1_1470)" fill-opacity="0.88"></rect></g></g><g opacity="0.77"><mask id="mask3_1_1470" style="mask-type:alpha" maskUnits="userSpaceOnUse" x="-933" y="958" width="2921" height="1059"><path d="M994.916 1878.07C1325.01 2093.58 1758.24 2010.91 1933.6 1942.63L1987.84 1154.02L-858.387 958.277L-929.119 1986.75C-954.382 1994.92 -844.306 1968.16 -201.905 1795.76C601.097 1580.27 582.301 1608.69 994.916 1878.07Z" fill="url(#paint7_linear_1_1470)"></path></mask><g mask="url(#mask3_1_1470)"><rect width="2319.68" height="982.44" transform="matrix(-0.997643 -0.0686121 -0.0686121 0.997643 1984.62 1105.88)" fill="url(#paint8_linear_1_1470)" fill-opacity="0.88"></rect></g></g></g><g clip-path="url(#clip3_1_1470)"><g opacity="0.77"><mask id="mask4_1_1470" style="mask-type:alpha" maskUnits="userSpaceOnUse" x="-16" y="-300" width="2857" height="1033"><path d="M925.575 -58.0612C581.474 -250.409 154.932 -138.206 -15.3259 -58.0612V732.41H2837.62V-298.496C2862.26 -308.377 2754.28 -274.123 2125.22 -58.0612C1338.9 212.016 1355.7 182.374 925.575 -58.0612Z" fill="url(#paint9_linear_1_1470)"></path></mask><g mask="url(#mask4_1_1470)"><rect width="2319.68" height="982.44" transform="matrix(1 0 0 -1 -2.63293 734.608)" fill="url(#paint10_linear_1_1470)" fill-opacity="0.88"></rect></g></g><g opacity="0.77"><mask id="mask5_1_1470" style="mask-type:alpha" maskUnits="userSpaceOnUse" x="-74" y="-133" width="2921" height="1059"><path d="M919.084 5.92576C588.991 -209.578 155.757 -126.906 -19.5994 -58.6314L-73.8352 729.977L2772.39 925.723L2843.12 -102.753C2868.38 -110.92 2758.31 -84.1558 2115.91 88.2361C1312.9 303.726 1331.7 275.306 919.084 5.92576Z" fill="url(#paint11_linear_1_1470)"></path></mask><g mask="url(#mask5_1_1470)"><rect width="2319.68" height="982.44" transform="matrix(0.997643 0.0686121 0.0686121 -0.997643 -70.6184 778.125)" fill="url(#paint12_linear_1_1470)" fill-opacity="0.88"></rect></g></g></g><g clip-path="url(#clip4_1_1470)"><g opacity="0.77"><mask id="mask6_1_1470" style="mask-type:alpha" maskUnits="userSpaceOnUse" x="-16" y="-169" width="2857" height="1034"><path d="M925.574 622.061C581.473 814.409 154.932 702.206 -15.3264 622.061V-168.409H2837.62V862.496C2862.26 872.377 2754.28 838.123 2125.22 622.061C1338.9 351.984 1355.7 381.627 925.574 622.061Z" fill="url(#paint13_linear_1_1470)"></path></mask><g mask="url(#mask6_1_1470)"><rect x="-2.63342" y="-170.607" width="2319.68" height="982.44" fill="url(#paint14_linear_1_1470)" fill-opacity="0.88"></rect></g></g><g opacity="0.77"><mask id="mask7_1_1470" style="mask-type:alpha" maskUnits="userSpaceOnUse" x="-74" y="-362" width="2921" height="1059"><path d="M919.084 558.075C588.991 773.579 155.756 690.906 -19.5999 622.632L-73.8357 -165.976L2772.39 -361.723L2843.12 666.753C2868.38 674.92 2758.31 648.156 2115.9 475.764C1312.9 260.274 1331.7 288.694 919.084 558.075Z" fill="url(#paint15_linear_1_1470)"></path></mask><g mask="url(#mask7_1_1470)"><rect x="-70.6189" y="-214.124" width="2319.68" height="982.44" transform="rotate(-3.93427 -70.6189 -214.124)" fill="url(#paint16_linear_1_1470)" fill-opacity="0.88"></rect></g></g></g></g><defs><linearGradient id="paint0_linear_1_1470" x1="-495" y1="1634" x2="2632.76" y2="1351.19" gradientUnits="userSpaceOnUse"><stop stop-color="#7F5382"></stop><stop offset="1" stop-color="#566EAC"></stop></linearGradient><linearGradient id="paint1_linear_1_1470" x1="-134.924" y1="1464.19" x2="1929.12" y2="1484.7" gradientUnits="userSpaceOnUse"><stop offset="0.0834264" stop-color="#440597"></stop><stop offset="0.333937" stop-color="#C93CA1"></stop><stop offset="0.721738" stop-color="#6E73EE"></stop><stop offset="1" stop-color="#250054"></stop></linearGradient><linearGradient id="paint2_linear_1_1470" x1="3076.47" y1="2054.61" x2="3039.46" y2="3176.13" gradientUnits="userSpaceOnUse"><stop stop-color="#BB85E6"></stop><stop offset="1" stop-color="#BC89E4" stop-opacity="0"></stop></linearGradient><linearGradient id="paint3_linear_1_1470" x1="11.3954" y1="1592.22" x2="1904.26" y2="1606.46" gradientUnits="userSpaceOnUse"><stop offset="0.0834264" stop-color="#440597"></stop><stop offset="0.333937" stop-color="#C93CA1"></stop><stop offset="0.721738" stop-color="#6E73EE"></stop><stop offset="1" stop-color="#250054"></stop></linearGradient><linearGradient id="paint4_linear_1_1470" x1="3144.46" y1="2098.12" x2="3107.45" y2="3219.65" gradientUnits="userSpaceOnUse"><stop stop-color="#E26271"></stop><stop offset="1" stop-color="#B584DC" stop-opacity="0"></stop></linearGradient><linearGradient id="paint5_linear_1_1470" x1="-134.924" y1="1739.81" x2="1929.12" y2="1719.3" gradientUnits="userSpaceOnUse"><stop offset="0.0834264" stop-color="#440597"></stop><stop offset="0.333937" stop-color="#C93CA1"></stop><stop offset="0.721738" stop-color="#6E73EE"></stop><stop offset="1" stop-color="#250054"></stop></linearGradient><linearGradient id="paint6_linear_1_1470" x1="1159.84" y1="0" x2="1122.83" y2="1121.52" gradientUnits="userSpaceOnUse"><stop stop-color="#BB85E6"></stop><stop offset="1" stop-color="#BC89E4" stop-opacity="0"></stop></linearGradient><linearGradient id="paint7_linear_1_1470" x1="11.3959" y1="1611.78" x2="1904.26" y2="1597.54" gradientUnits="userSpaceOnUse"><stop offset="0.0834264" stop-color="#440597"></stop><stop offset="0.333937" stop-color="#C93CA1"></stop><stop offset="0.721738" stop-color="#6E73EE"></stop><stop offset="1" stop-color="#250054"></stop></linearGradient><linearGradient id="paint8_linear_1_1470" x1="1159.84" y1="0" x2="1122.83" y2="1121.52" gradientUnits="userSpaceOnUse"><stop stop-color="#E26271"></stop><stop offset="1" stop-color="#B584DC" stop-opacity="0"></stop></linearGradient><linearGradient id="paint9_linear_1_1470" x1="2048.92" y1="144.194" x2="-15.1219" y2="164.705" gradientUnits="userSpaceOnUse"><stop offset="0.0834264" stop-color="#440597"></stop><stop offset="0.333937" stop-color="#C93CA1"></stop><stop offset="0.721738" stop-color="#6E73EE"></stop><stop offset="1" stop-color="#250054"></stop></linearGradient><linearGradient id="paint10_linear_1_1470" x1="1159.84" y1="0" x2="1122.83" y2="1121.52" gradientUnits="userSpaceOnUse"><stop stop-color="#BB85E6"></stop><stop offset="1" stop-color="#BC89E4" stop-opacity="0"></stop></linearGradient><linearGradient id="paint11_linear_1_1470" x1="1902.6" y1="272.223" x2="9.73932" y2="286.46" gradientUnits="userSpaceOnUse"><stop offset="0.0834264" stop-color="#440597"></stop><stop offset="0.333937" stop-color="#C93CA1"></stop><stop offset="0.721738" stop-color="#6E73EE"></stop><stop offset="1" stop-color="#250054"></stop></linearGradient><linearGradient id="paint12_linear_1_1470" x1="1159.84" y1="0" x2="1122.83" y2="1121.52" gradientUnits="userSpaceOnUse"><stop stop-color="#E26271"></stop><stop offset="1" stop-color="#B584DC" stop-opacity="0"></stop></linearGradient><linearGradient id="paint13_linear_1_1470" x1="2048.92" y1="419.806" x2="-15.1224" y2="399.296" gradientUnits="userSpaceOnUse"><stop offset="0.0834264" stop-color="#440597"></stop><stop offset="0.333937" stop-color="#C93CA1"></stop><stop offset="0.721738" stop-color="#6E73EE"></stop><stop offset="1" stop-color="#250054"></stop></linearGradient><linearGradient id="paint14_linear_1_1470" x1="1157.21" y1="-170.607" x2="1120.19" y2="950.913" gradientUnits="userSpaceOnUse"><stop stop-color="#BB85E6"></stop><stop offset="1" stop-color="#BC89E4" stop-opacity="0"></stop></linearGradient><linearGradient id="paint15_linear_1_1470" x1="1902.6" y1="291.777" x2="9.73883" y2="277.54" gradientUnits="userSpaceOnUse"><stop offset="0.0834264" stop-color="#440597"></stop><stop offset="0.333937" stop-color="#C93CA1"></stop><stop offset="0.721738" stop-color="#6E73EE"></stop><stop offset="1" stop-color="#250054"></stop></linearGradient><linearGradient id="paint16_linear_1_1470" x1="1089.22" y1="-214.124" x2="1052.21" y2="907.396" gradientUnits="userSpaceOnUse"><stop stop-color="#E26271"></stop><stop offset="1" stop-color="#B584DC" stop-opacity="0"></stop></linearGradient><clipPath id="clip0_1_1470"><rect width="1925" height="1634" fill="white" transform="translate(-2.5 0.00012207)"></rect></clipPath><clipPath id="clip1_1_1470"><rect width="1920" height="582" fill="white" transform="matrix(-1 0 0 1 1917 1020)"></rect></clipPath><clipPath id="clip2_1_1470"><rect width="1920" height="582" fill="white" transform="matrix(-1 0 0 -1 1917 2184)"></rect></clipPath><clipPath id="clip3_1_1470"><rect width="1920" height="582" fill="white" transform="translate(-2.99951 -300)"></rect></clipPath><clipPath id="clip4_1_1470"><rect width="1920" height="582" fill="white" transform="matrix(1 0 0 -1 -3 864)"></rect></clipPath></defs></svg>