<svg xmlns="http://www.w3.org/2000/svg" width="71" height="70" viewBox="0 0 71 70" fill="none"><g clip-path="url(#clip0_3720_5072)"><rect x="0.687988" width="70" height="70" rx="10" fill="url(#paint0_linear_3720_5072)"></rect><g clip-path="url(#clip1_3720_5072)"><path fill-rule="evenodd" clip-rule="evenodd" d="M28.6784 43.0169C24.88 38.8113 18.3938 38.4855 14.1956 42.2839C9.98998 46.0823 9.66419 52.5684 13.4626 56.7666C17.261 60.9723 23.7471 61.298 27.9453 57.4996C32.151 53.7013 32.4768 47.2151 28.6784 43.0169ZM31.529 40.4476C26.309 34.6723 17.4017 34.2206 11.6263 39.4406C5.85099 44.6606 5.39933 53.568 10.6193 59.3433C15.8394 65.1186 24.7467 65.5703 30.522 60.3503C36.2974 55.1303 36.749 46.2229 31.529 40.4476Z" fill="white"></path><path fill-rule="evenodd" clip-rule="evenodd" d="M10.7453 62.2754L7.70954 58.9138C7.2949 58.4547 6.56929 58.4177 6.11022 58.8324L-1.04971 65.3037C-2.38248 66.5106 -2.48614 68.5912 -1.28665 69.924L-1.11635 70.1091C0.0905466 71.4418 2.17115 71.5455 3.50392 70.346L10.6638 63.8747C11.1229 63.46 11.1599 62.7344 10.7453 62.2754Z" fill="white"></path><path d="M9.93091 57.0803L4.32812 62.1445L7.19788 65.3194L12.8007 60.2552L9.93091 57.0803Z" fill="white"></path><path d="M13.6107 51.8574C12.8184 51.8574 12.1817 51.2206 12.1817 50.4284C12.1817 49.6361 12.8184 48.9994 13.6107 48.9994H14.9509L18.4827 42.4318C18.8529 41.7358 19.7192 41.4766 20.4152 41.8542C20.7928 42.0541 21.0372 42.4021 21.126 42.7872L23.3399 50.7986L23.9693 49.3918C24.2062 48.8587 24.7245 48.5477 25.2724 48.5477H28.1379C28.9301 48.5477 29.5669 49.1845 29.5669 49.9767C29.5669 50.769 28.9301 51.4057 28.1379 51.4057H26.1905L24.3395 55.5595C24.1766 55.952 23.8434 56.2629 23.4065 56.3814C22.6513 56.5887 21.8665 56.1445 21.6517 55.3892L19.312 46.9188L17.1055 51.0207C16.8834 51.5168 16.3799 51.8574 15.8024 51.8574H13.6107Z" fill="white"></path><path fill-rule="evenodd" clip-rule="evenodd" d="M23.688 13C25.3836 13 27.0569 13.1259 28.6933 13.3554L30.8035 18.9678C33.7948 19.7009 36.6158 20.8781 39.1851 22.4404L44.6495 19.9674C47.3298 21.974 49.714 24.3582 51.7206 27.0385L49.2475 32.5029C50.8024 35.0647 51.9871 37.8858 52.7201 40.8845L58.3326 43.0021C58.5695 44.6385 58.688 46.3044 58.688 48C58.688 49.6956 58.5621 51.3689 58.3326 52.9979L52.7201 55.1155C51.9871 58.1068 50.8098 60.9279 49.2475 63.4971L51.7206 68.9615C49.714 71.6418 47.3298 74.026 44.6495 76.0326L39.1851 73.5596C36.6232 75.1144 33.8022 76.2991 30.8035 77.0322L28.6933 82.6446C27.0569 82.8815 25.391 83 23.688 83C21.985 83 20.319 82.8741 18.6827 82.6446L16.5725 77.0322C14.4771 76.5213 12.4631 75.7882 10.5676 74.8627C10.6417 74.4703 10.6935 74.063 10.7231 73.6632C10.7897 72.7451 10.812 71.8344 10.8712 70.9236C10.9008 70.509 10.9304 70.0129 11.0637 69.6131C11.234 69.1096 11.6634 68.6653 12.0411 68.3099C12.0633 68.2877 12.0781 68.2729 12.1003 68.2507L13.0629 67.2807C16.2097 69.0207 19.8304 70.0129 23.688 70.0129C35.8384 70.0129 45.6861 60.1652 45.6861 48.0148C45.6861 35.8644 35.8384 26.0093 23.688 26.0093C11.5376 26.0093 1.68249 35.857 1.68249 48.0148C1.68249 51.2505 2.37849 54.3307 3.63722 57.0999L2.3933 58.3512C1.47517 59.2767 0.845805 59.5877 -0.509177 59.484C-1.68646 59.3952 -2.81931 59.4174 -3.87812 59.5729C-4.47787 58.1439 -4.96655 56.663 -5.34417 55.1377L-10.9566 52.9979C-11.1935 51.3615 -11.312 49.6956 -11.312 48C-11.312 46.3044 -11.1861 44.6311 -10.9566 43.0021L-5.34417 40.8845C-4.61114 37.8932 -3.43387 35.0721 -1.87156 32.5029L-4.34459 27.0385C-2.33803 24.3582 0.0461426 21.974 2.72649 19.9674L8.19084 22.4404C10.7527 20.8856 13.5737 19.7009 16.5725 18.9678L18.6827 13.3554C20.319 13.1185 21.985 13 23.688 13Z" fill="white"></path></g></g><defs><linearGradient id="paint0_linear_3720_5072" x1="35.688" y1="0" x2="35.688" y2="70" gradientUnits="userSpaceOnUse"><stop stop-color="#921D41"></stop><stop offset="1" stop-color="#1D3792"></stop></linearGradient><clipPath id="clip0_3720_5072"><rect x="0.687988" width="70" height="70" rx="10" fill="white"></rect></clipPath><clipPath id="clip1_3720_5072"><rect width="70" height="70" fill="white" transform="translate(-11.312 13)"></rect></clipPath></defs></svg>