<svg xmlns="http://www.w3.org/2000/svg" width="71" height="70" viewBox="0 0 71 70" fill="none"><g clip-path="url(#clip0_3720_5060)"><rect x="0.687988" width="70" height="70" rx="10" fill="url(#paint0_linear_3720_5060)"></rect><g clip-path="url(#clip1_3720_5060)"><path fill-rule="evenodd" clip-rule="evenodd" d="M31.3226 31.5596H33.916V46.8395H31.3226V31.5596ZM8.83515 31.5596H11.4286V46.8395H8.83515V31.5596ZM16.481 36.5995H19.0744V46.8395H16.481V36.5995ZM46.9838 35.3579H43.3893V31.2792C43.4162 30.3847 43.0131 30.0576 42.1397 30.0443H40.0636C39.0491 30.0643 38.8072 29.5436 38.8005 28.6959V26.9803C38.8005 26.0925 38.5653 25.7387 37.4635 25.7387L28.185 25.7253V22.174H30.1334C31.0538 22.174 31.813 21.4264 31.813 20.5052V18.1688C31.813 17.2543 31.0605 16.5 30.1334 16.5H12.7521C11.8317 16.5 11.0725 17.2476 11.0725 18.1688V20.4985C11.0725 21.4131 11.825 22.1674 12.7521 22.1674H14.7006V25.6986L8.23047 25.6853C7.79375 25.6853 7.41751 25.8054 7.06813 26.0658L0.779449 30.7519C0.275548 31.1257 0.00680065 31.6664 0.00680065 32.2872V35.3579H-3.62129V32.2338C-3.62129 31.1991 -4.47456 30.358 -5.50924 30.358H-7.42406C-8.46546 30.358 -9.31201 31.2058 -9.31201 32.2338V49.0824C-9.31201 50.1171 -8.45874 50.9582 -7.42406 50.9582H-5.50252C-4.46112 50.9582 -3.61457 50.1104 -3.61457 49.0824V45.9583H0.0471125V48.8821C0.0538311 49.3828 0.228517 49.8167 0.57117 50.1838L6.81282 56.8325C7.18907 57.233 7.6661 57.4399 8.21703 57.4399L34.5207 57.5C35.0246 57.5 35.4613 57.3331 35.8375 56.986L42.7645 50.6044C43.1743 50.2305 43.3826 49.7499 43.3826 49.2025V45.965H46.9771V49.0891C46.9771 50.1237 47.8304 50.9648 48.8651 50.9648H50.7866C51.828 50.9648 52.6745 50.1171 52.6745 49.0891V32.2338C52.6745 31.1991 51.8213 30.358 50.7866 30.358H48.8651C47.8237 30.358 46.9771 31.2058 46.9771 32.2338V35.3579H46.9838Z" fill="white"></path></g></g><defs><linearGradient id="paint0_linear_3720_5060" x1="35.688" y1="0" x2="35.688" y2="70" gradientUnits="userSpaceOnUse"><stop stop-color="#921D41"></stop><stop offset="1" stop-color="#1D3792"></stop></linearGradient><clipPath id="clip0_3720_5060"><rect x="0.687988" width="70" height="70" rx="10" fill="white"></rect></clipPath><clipPath id="clip1_3720_5060"><rect width="62" height="41" fill="white" transform="translate(-9.31201 16.5)"></rect></clipPath></defs></svg>