<svg xmlns="http://www.w3.org/2000/svg" width="71" height="70" viewBox="0 0 71 70" fill="none"><g clip-path="url(#clip0_3720_5040)"><rect x="0.687988" width="70" height="70" rx="10" fill="url(#paint0_linear_3720_5040)"></rect><g clip-path="url(#clip1_3720_5040)"><path d="M46.5828 23.1043C33.1103 9.63183 11.2656 9.63183 -2.20682 23.1043C-15.6793 36.5767 -15.6793 58.4214 -2.20682 71.8939C11.2656 85.3664 33.1103 85.3664 46.5828 71.8939C60.0552 58.4214 60.056 36.5775 46.5828 23.1043ZM1.8089 67.8782C-9.44604 56.6232 -9.44604 38.375 1.80891 27.12C13.0639 15.8651 31.3114 15.8658 42.5663 27.1208C53.8213 38.3757 53.8213 56.624 42.5663 67.8789C31.3114 79.1339 13.0631 79.1339 1.80815 67.8789L1.8089 67.8782Z" fill="white"></path><path d="M12.3747 40.8058C11.0331 39.4642 10.208 38.1129 9.92099 36.7885L9.87764 36.5853L12.2469 34.216L12.3403 34.9956C12.5249 36.5374 13.1833 37.8835 14.297 38.9971C14.7409 39.441 15.202 39.7901 15.6677 40.033C16.1236 40.2706 16.5832 40.4134 17.0339 40.456C17.4764 40.4978 17.9113 40.441 18.3254 40.2886C18.7417 40.1354 19.1371 39.873 19.5003 39.5098C21.1109 37.8992 20.7417 35.9649 18.3725 33.5957L16.9756 32.1988L18.8321 30.3423L20.1722 31.6824C22.2477 33.7579 23.9876 34.0374 25.4891 32.5359C26.8823 31.1428 26.8045 29.7661 25.2425 28.204C24.3479 27.3094 23.1872 26.7616 21.7948 26.5784L21.0287 26.4775L23.2342 24.272L23.4435 24.3243C24.8882 24.6868 26.2485 25.4985 27.4861 26.7361C28.0818 27.3318 28.5467 27.9656 28.8673 28.6196C29.1909 29.2795 29.3785 29.9484 29.4264 30.6076C29.4742 31.2728 29.3793 31.9283 29.1424 32.5553C28.9062 33.1816 28.5243 33.7609 28.0078 34.2773C26.3942 35.8909 24.5594 36.3371 22.5407 35.6084C22.6543 35.8237 22.7544 36.0419 22.8396 36.2631C23.0728 36.8685 23.1946 37.4821 23.2021 38.0875C23.2088 38.6966 23.0945 39.3013 22.862 39.882C22.6289 40.465 22.2634 41.0083 21.7738 41.4978C21.1251 42.1466 20.3994 42.6227 19.6184 42.9119C18.8366 43.2019 18.019 43.314 17.1901 43.2475C16.368 43.1802 15.5339 42.9381 14.7095 42.5263C13.8934 42.1182 13.1071 41.5397 12.3739 40.8065L12.3747 40.8058Z" fill="white"></path><path d="M17.6171 50.205L17.7397 49.211L17.8936 49.2334C19.5715 49.4748 20.5648 48.5787 20.7472 48.3964C20.8697 48.2738 20.9482 48.1056 20.9818 47.8971C20.73 47.2297 20.8294 46.6221 21.2726 46.1788C21.5977 45.8537 22.0073 45.7177 22.4886 45.7745C22.9565 45.8298 23.3884 46.051 23.7719 46.4345C24.1553 46.8179 24.3182 47.2603 24.3122 47.8059C24.3077 48.35 24.1209 48.8104 23.7569 49.1744C23.1231 49.8082 22.3862 50.2432 21.5678 50.4681C20.7502 50.6923 19.4654 50.6363 17.7494 50.3029L17.6791 50.2895L17.6178 50.2058L17.6171 50.205Z" fill="white"></path><path d="M27.1574 55.5882C25.8308 54.2616 25.0632 53.0949 24.8106 52.0232L24.762 51.8161L27.055 49.5231L27.203 50.2063C27.5139 51.6427 28.1335 52.8318 29.043 53.7414C29.5012 54.1996 29.9862 54.5486 30.4825 54.7788C30.9743 55.006 31.4683 55.1293 31.9519 55.1465C32.4302 55.163 32.907 55.0733 33.3674 54.8774C33.8338 54.6801 34.274 54.3774 34.6731 53.9783C35.4818 53.1697 35.8346 52.2967 35.7524 51.3087C35.6686 50.3101 35.0894 49.266 34.0296 48.2062C33.8488 48.0254 33.6559 47.8385 33.4504 47.6464C33.2434 47.4514 33.0348 47.2593 32.8248 47.0672C32.6148 46.8766 32.4085 46.6913 32.2045 46.5127C32.0049 46.337 31.8188 46.1823 31.6469 46.0478L31.2852 45.7638L39.1776 38.8788L45.9819 45.6831L44.0402 47.6248L39.0857 42.6703L35.4153 45.8669C35.5326 45.9723 35.6522 46.0814 35.774 46.1943C36.0154 46.4162 36.2262 46.618 36.4063 46.7982C37.1522 47.5441 37.7307 48.3228 38.1268 49.1151C38.5274 49.9163 38.7539 50.7242 38.8017 51.5179C38.8495 52.3191 38.7083 53.1136 38.3839 53.8789C38.0633 54.6345 37.5633 55.3543 36.9003 56.0172C36.2038 56.7138 35.4407 57.2332 34.6328 57.5598C33.8211 57.8887 32.9751 58.0367 32.1185 57.9993C31.265 57.9619 30.404 57.7377 29.5587 57.3319C28.7217 56.9298 27.9145 56.3438 27.1611 55.5905L27.1574 55.5882Z" fill="white"></path><path d="M12.622 61.8425L17.1945 57.27L10.5884 59.8089L9.84995 59.0704L12.3948 52.4104L7.79238 57.0129L6.48595 55.7064L13.8193 48.373L15.3164 49.8701C15.3164 49.8701 12.4987 57.1153 12.4636 57.2027C12.5787 57.1534 12.6803 57.113 12.7693 57.0794L19.8463 54.4L21.285 55.8387L13.9516 63.1721L12.6213 61.8418L12.622 61.8425Z" fill="white"></path><path d="M36.0566 23.8594L46.0291 33.8318H35.8078L36.0566 23.8594Z" fill="white"></path><path d="M8.43915 71.4217L-1.53327 61.4493L8.68953 61.4493L8.43915 71.4217Z" fill="white"></path></g></g><defs><linearGradient id="paint0_linear_3720_5040" x1="35.688" y1="0" x2="35.688" y2="70" gradientUnits="userSpaceOnUse"><stop stop-color="#921D41"></stop><stop offset="1" stop-color="#1D3792"></stop></linearGradient><clipPath id="clip0_3720_5040"><rect x="0.687988" width="70" height="70" rx="10" fill="white"></rect></clipPath><clipPath id="clip1_3720_5040"><rect width="69" height="69" fill="white" transform="translate(22.188 -1.29053) rotate(45)"></rect></clipPath></defs></svg>