<svg xmlns="http://www.w3.org/2000/svg" width="149" height="44" viewBox="0 0 149 44" fill="none"><rect x="0.5" y="0.5" width="147.5" height="43" rx="4.5" fill="black"></rect><path d="M97.7096 19.8631V22.3833H96.13V24.0359H97.7096V29.6514C97.7096 31.5689 98.577 32.3359 100.759 32.3359C101.143 32.3359 101.508 32.2902 101.828 32.2355V30.601C101.554 30.6284 101.38 30.6467 101.079 30.6467C100.102 30.6467 99.6727 30.1901 99.6727 29.1492V24.0359H101.828V22.3833H99.6727V19.8631H97.7096Z" fill="white"></path><path d="M107.387 32.4729C110.29 32.4729 112.071 30.528 112.071 27.3048C112.071 24.0999 110.281 22.1459 107.387 22.1459C104.483 22.1459 102.694 24.0999 102.694 27.3048C102.694 30.528 104.474 32.4729 107.387 32.4729ZM107.387 30.7289C105.679 30.7289 104.721 29.4779 104.721 27.3048C104.721 25.1499 105.679 23.8899 107.387 23.8899C109.085 23.8899 110.053 25.1499 110.053 27.3048C110.053 29.4688 109.085 30.7289 107.387 30.7289Z" fill="white"></path><path d="M113.594 32.2811H115.558V26.41C115.558 25.0129 116.608 24.0725 118.096 24.0725C118.443 24.0725 119.027 24.1364 119.192 24.1912V22.2554C118.982 22.2006 118.607 22.1733 118.315 22.1733C117.018 22.1733 115.914 22.8855 115.631 23.8625H115.484V22.3376H113.594V32.2811Z" fill="white"></path><path d="M124.066 23.8168C125.518 23.8168 126.467 24.8303 126.513 26.3917H121.491C121.601 24.8395 122.614 23.8168 124.066 23.8168ZM126.504 29.5966C126.139 30.3728 125.326 30.8019 124.139 30.8019C122.569 30.8019 121.555 29.6971 121.491 27.9531V27.8435H128.513V27.1587C128.513 24.0359 126.842 22.1459 124.075 22.1459C121.272 22.1459 119.491 24.1638 119.491 27.3413C119.491 30.5189 121.235 32.4729 124.084 32.4729C126.358 32.4729 127.947 31.3772 128.394 29.5966H126.504Z" fill="white"></path><path d="M84.8357 28.6091C84.9871 31.0508 87.0218 32.6123 90.0502 32.6123C93.2869 32.6123 95.3122 30.9751 95.3122 28.3631C95.3122 26.3094 94.1576 25.1737 91.3563 24.5207L89.8515 24.1517C88.0723 23.7352 87.353 23.1769 87.353 22.2021C87.353 20.9718 88.4698 20.1674 90.1449 20.1674C91.7348 20.1674 92.8326 20.9529 93.0314 22.2116H95.0945C94.9715 19.9118 92.9462 18.2935 90.1733 18.2935C87.1922 18.2935 85.2048 19.9118 85.2048 22.3441C85.2048 24.3504 86.3309 25.5428 88.801 26.1201L90.5613 26.546C92.3689 26.9719 93.1639 27.5965 93.1639 28.6375C93.1639 29.8489 91.9146 30.729 90.2111 30.729C88.3846 30.729 87.1164 29.9057 86.9366 28.6091H84.8357Z" fill="white"></path><path d="M64.4996 22.1733C63.1482 22.1733 61.9795 22.8489 61.3768 23.9812H61.2307V22.3376H59.3407V35.5865H61.3038V30.7745H61.459C61.9795 31.8246 63.1026 32.4455 64.5179 32.4455C67.0288 32.4455 68.6267 30.4641 68.6267 27.3048C68.6267 24.1455 67.0288 22.1733 64.4996 22.1733ZM63.9426 30.6832C62.2991 30.6832 61.2673 29.3866 61.2673 27.3139C61.2673 25.2321 62.2991 23.9355 63.9517 23.9355C65.6136 23.9355 66.6088 25.2047 66.6088 27.3048C66.6088 29.414 65.6136 30.6832 63.9426 30.6832Z" fill="white"></path><path d="M75.4961 22.1733C74.1447 22.1733 72.9759 22.8489 72.3733 23.9812H72.2272V22.3376H70.3371V35.5865H72.3003V30.7745H72.4555C72.9759 31.8246 74.099 32.4455 75.5143 32.4455C78.0253 32.4455 79.6232 30.4641 79.6232 27.3048C79.6232 24.1455 78.0253 22.1733 75.4961 22.1733ZM74.9391 30.6832C73.2955 30.6832 72.2637 29.3866 72.2637 27.3139C72.2637 25.2321 73.2955 23.9355 74.9482 23.9355C76.61 23.9355 77.6053 25.2047 77.6053 27.3048C77.6053 29.414 76.61 30.6832 74.9391 30.6832Z" fill="white"></path><path d="M55.8185 32.2811H58.0709L53.1402 18.6248H50.8594L45.9287 32.2811H48.1054L49.3641 28.6565H54.5692L55.8185 32.2811ZM51.8909 21.1043H52.0518L54.0298 26.8772H49.9035L51.8909 21.1043Z" fill="white"></path><path d="M47.2474 8.32415V14.9121H49.626C51.5892 14.9121 52.726 13.7022 52.726 11.5976C52.726 9.52485 51.58 8.32415 49.626 8.32415H47.2474ZM48.2701 9.25549H49.5119C50.877 9.25549 51.685 10.1229 51.685 11.6113C51.685 13.1224 50.8906 13.9807 49.5119 13.9807H48.2701V9.25549Z" fill="white"></path><path d="M56.2075 15.0079C57.6594 15.0079 58.5496 14.0355 58.5496 12.4239C58.5496 10.8214 57.6548 9.84443 56.2075 9.84443C54.7557 9.84443 53.8609 10.8214 53.8609 12.4239C53.8609 14.0355 54.7512 15.0079 56.2075 15.0079ZM56.2075 14.1359C55.3538 14.1359 54.8744 13.5105 54.8744 12.4239C54.8744 11.3465 55.3538 10.7164 56.2075 10.7164C57.0567 10.7164 57.5407 11.3465 57.5407 12.4239C57.5407 13.5059 57.0567 14.1359 56.2075 14.1359Z" fill="white"></path><path d="M66.131 9.94031H65.1494L64.2637 13.7342H64.1861L63.1634 9.94031H62.223L61.2003 13.7342H61.1273L60.237 9.94031H59.2417L60.6114 14.9121H61.6203L62.643 11.2506H62.7206L63.7478 14.9121H64.7659L66.131 9.94031Z" fill="white"></path><path d="M67.2614 14.9121H68.2429V12.0039C68.2429 11.2278 68.704 10.7438 69.4299 10.7438C70.1559 10.7438 70.5028 11.141 70.5028 11.94V14.9121H71.4844V11.6934C71.4844 10.511 70.8726 9.84443 69.7632 9.84443C69.0145 9.84443 68.5214 10.1777 68.2795 10.7301H68.2064V9.94031H67.2614V14.9121Z" fill="white"></path><path d="M73.0302 14.9121H74.0118V8H73.0302V14.9121Z" fill="white"></path><path d="M77.7034 15.0079C79.1552 15.0079 80.0455 14.0355 80.0455 12.4239C80.0455 10.8214 79.1507 9.84443 77.7034 9.84443C76.2516 9.84443 75.3568 10.8214 75.3568 12.4239C75.3568 14.0355 76.247 15.0079 77.7034 15.0079ZM77.7034 14.1359C76.8497 14.1359 76.3703 13.5105 76.3703 12.4239C76.3703 11.3465 76.8497 10.7164 77.7034 10.7164C78.5526 10.7164 79.0365 11.3465 79.0365 12.4239C79.0365 13.5059 78.5526 14.1359 77.7034 14.1359Z" fill="white"></path><path d="M82.9701 14.1679C82.4359 14.1679 82.0479 13.9077 82.0479 13.4603C82.0479 13.022 82.3583 12.7891 83.0431 12.7435L84.2576 12.6659V13.0813C84.2576 13.6977 83.7097 14.1679 82.9701 14.1679ZM82.719 14.9942C83.3719 14.9942 83.9151 14.7112 84.2119 14.2135H84.2895V14.9121H85.2346V11.5154C85.2346 10.4653 84.5315 9.84443 83.2851 9.84443C82.1575 9.84443 81.3539 10.3923 81.2535 11.246H82.2031C82.3127 10.8945 82.6916 10.6936 83.2395 10.6936C83.9106 10.6936 84.2576 10.9904 84.2576 11.5154V11.9445L82.9107 12.0221C81.7283 12.0952 81.0618 12.6111 81.0618 13.5059C81.0618 14.4144 81.7603 14.9942 82.719 14.9942Z" fill="white"></path><path d="M88.5655 14.9942C89.2503 14.9942 89.8301 14.6701 90.1269 14.1268H90.2045V14.9121H91.145V8H90.1634V10.7301H90.0903C89.821 10.1823 89.2457 9.85813 88.5655 9.85813C87.31 9.85813 86.5019 10.8534 86.5019 12.4239C86.5019 13.999 87.3009 14.9942 88.5655 14.9942ZM88.844 10.7393C89.6658 10.7393 90.1817 11.3921 90.1817 12.4285C90.1817 13.4694 89.6703 14.1131 88.844 14.1131C88.0131 14.1131 87.5154 13.4785 87.5154 12.4239C87.5154 11.3784 88.0176 10.7393 88.844 10.7393Z" fill="white"></path><path d="M97.5101 15.0079C98.9619 15.0079 99.8521 14.0355 99.8521 12.4239C99.8521 10.8214 98.9573 9.84443 97.5101 9.84443C96.0583 9.84443 95.1635 10.8214 95.1635 12.4239C95.1635 14.0355 96.0537 15.0079 97.5101 15.0079ZM97.5101 14.1359C96.6563 14.1359 96.177 13.5105 96.177 12.4239C96.177 11.3465 96.6563 10.7164 97.5101 10.7164C98.3593 10.7164 98.8432 11.3465 98.8432 12.4239C98.8432 13.5059 98.3593 14.1359 97.5101 14.1359Z" fill="white"></path><path d="M101.151 14.9121H102.133V12.0039C102.133 11.2278 102.594 10.7438 103.32 10.7438C104.046 10.7438 104.393 11.141 104.393 11.94V14.9121H105.374V11.6934C105.374 10.511 104.763 9.84443 103.653 9.84443C102.905 9.84443 102.412 10.1777 102.17 10.7301H102.097V9.94031H101.151V14.9121Z" fill="white"></path><path d="M109.895 8.70308V9.96313H109.105V10.7895H109.895V13.5972C109.895 14.556 110.329 14.9395 111.42 14.9395C111.612 14.9395 111.794 14.9166 111.954 14.8892V14.072C111.817 14.0857 111.73 14.0948 111.58 14.0948C111.091 14.0948 110.877 13.8666 110.877 13.3461V10.7895H111.954V9.96313H110.877V8.70308H109.895Z" fill="white"></path><path d="M113.272 14.9121H114.253V12.0084C114.253 11.2552 114.701 10.7484 115.504 10.7484C116.198 10.7484 116.568 11.1501 116.568 11.9445V14.9121H117.55V11.7026C117.55 10.5201 116.897 9.849 115.838 9.849C115.089 9.849 114.564 10.1823 114.322 10.7393H114.244V8H113.272V14.9121Z" fill="white"></path><path d="M121.091 10.6799C121.816 10.6799 122.291 11.1867 122.314 11.9674H119.803C119.858 11.1912 120.365 10.6799 121.091 10.6799ZM122.309 13.5698C122.127 13.9579 121.721 14.1725 121.127 14.1725C120.342 14.1725 119.835 13.62 119.803 12.748V12.6933H123.314V12.3509C123.314 10.7895 122.478 9.84443 121.095 9.84443C119.694 9.84443 118.803 10.8534 118.803 12.4422C118.803 14.0309 119.675 15.0079 121.1 15.0079C122.236 15.0079 123.031 14.4601 123.255 13.5698H122.309Z" fill="white"></path><path d="M35.277 21.0731C35.3009 19.2239 36.2939 17.4743 37.8693 16.5058C36.8754 15.0864 35.2108 14.1865 33.479 14.1323C31.6318 13.9385 29.8411 15.2377 28.8998 15.2377C27.9403 15.2377 26.491 14.1516 24.9304 14.1837C22.8963 14.2494 20.9999 15.4059 20.0102 17.1844C17.8828 20.8676 19.4697 26.2808 21.5076 29.258C22.5271 30.7159 23.7187 32.3444 25.2779 32.2867C26.8037 32.2234 27.3736 31.3137 29.2153 31.3137C31.0399 31.3137 31.5746 32.2867 33.1654 32.25C34.8026 32.2234 35.8341 30.7856 36.8179 29.3139C37.5505 28.2751 38.1142 27.127 38.4882 25.9121C36.5642 25.0984 35.2793 23.1621 35.277 21.0731Z" fill="white"></path><path d="M32.2722 12.1743C33.1649 11.1027 33.6047 9.72531 33.4982 8.33466C32.1344 8.4779 30.8746 9.12971 29.9698 10.1602C29.0851 11.1671 28.6247 12.5203 28.7118 13.8578C30.0761 13.8718 31.4173 13.2377 32.2722 12.1743Z" fill="white"></path><rect x="0.5" y="0.5" width="147.5" height="43" rx="4.5" stroke="#4F4F4F"></rect></svg>