<svg width="95" height="96" viewBox="0 0 95 96" fill="none" xmlns="http://www.w3.org/2000/svg">
<rect x="13.5537" y="14.7993" width="68" height="68" rx="34" fill="url(#paint0_linear_1_229)"/>
<path d="M47.5283 0.892578C55.6826 0.892578 63.6993 2.99454 70.8046 6.9956C77.9099 10.9967 83.8639 16.7617 88.0919 23.7343C92.3199 30.707 94.6792 38.6517 94.942 46.8019C95.2049 54.952 93.3624 63.0323 89.5925 70.2628C85.8225 77.4934 80.2524 83.6301 73.4197 88.0807C66.587 92.5313 58.7224 95.1454 50.5849 95.6708C42.4475 96.1963 34.3121 94.6152 26.9637 91.0803C19.6154 87.5454 13.3023 82.176 8.63381 75.4902L15.1032 70.9728C18.9952 76.5464 24.2582 81.0228 30.3843 83.9697C36.5103 86.9166 43.2926 88.2347 50.0765 87.7967C56.8604 87.3586 63.4169 85.1793 69.1131 81.469C74.8093 77.7587 79.4529 72.6427 82.5958 66.6149C85.7387 60.587 87.2747 53.8507 87.0556 47.0562C86.8364 40.2617 84.8696 33.6384 81.3448 27.8256C77.8201 22.0127 72.8564 17.2066 66.933 13.871C61.0095 10.5355 54.3263 8.78313 47.5283 8.78313V0.892578Z" fill="url(#paint1_linear_1_229)"/>
<path d="M31.0071 55.7153C31.7111 53.2733 32.8551 50.7213 34.1311 48.3893C35.4071 46.0353 36.7271 44.0553 37.7831 42.7793H29.2471V40.0293H41.2151V42.1413C39.9391 43.6813 38.5751 45.9473 37.3431 48.4773C36.1111 50.9853 35.0771 53.5593 34.5491 55.7153H31.0071ZM48.353 56.0233C44.173 56.0233 42.215 53.9553 42.193 50.6553V50.6113H45.317V50.7213C45.317 52.2833 46.439 53.4493 48.507 53.4493C50.509 53.4493 51.851 52.3493 51.851 50.2813C51.851 48.3453 50.707 47.2893 48.793 47.2893C47.033 47.2893 46.131 48.0153 45.515 49.0273L45.405 49.1593L42.347 48.3453L43.447 40.0293H54.249C54.249 41.2173 54.095 41.8553 53.589 42.1853C53.061 42.5373 52.137 42.6033 50.509 42.6033H45.713L45.207 46.3213C46.065 45.4633 47.253 44.8693 49.189 44.8693C50.377 44.8693 51.345 45.1113 52.181 45.5513C53.853 46.4973 54.799 48.1693 54.799 50.3913C54.799 51.5353 54.535 52.5253 54.007 53.3833C52.973 55.0553 51.037 56.0233 48.353 56.0233ZM59.6021 46.4313C57.4461 46.4313 56.2361 45.2873 56.2361 43.2633V43.1093C56.2361 40.9313 57.6881 39.8093 59.6241 39.8093C61.6481 39.8093 62.9901 40.9973 62.9901 43.1093V43.2633C62.9901 45.2653 61.6921 46.4313 59.6021 46.4313ZM56.2141 55.7153C56.5441 55.3413 56.9401 54.8353 57.4681 54.1533C58.5241 52.8333 59.8661 51.1393 61.3401 49.2473C62.7921 47.3993 64.2661 45.5293 65.5641 43.8133C66.8621 42.1413 67.9181 40.7993 68.4681 40.0293H71.7021C71.4161 40.4033 70.9761 40.9313 70.4701 41.6133C69.4141 42.9333 68.0941 44.6713 66.6421 46.5193C65.1901 48.4113 63.7601 50.2813 62.4621 51.9533C61.1641 53.6253 60.1301 54.9673 59.5801 55.7153H56.2141ZM59.6241 44.6053C60.4821 44.6053 61.0101 44.0553 61.0101 43.1753V43.1093C61.0101 42.1633 60.4601 41.6353 59.6241 41.6353C58.8541 41.6353 58.2381 42.0973 58.2381 43.1093V43.1753C58.2381 44.0993 58.7661 44.6053 59.6241 44.6053ZM68.2921 55.9573C66.1361 55.9573 64.9261 54.8573 64.9261 52.7893V52.6353C64.9261 50.4573 66.3781 49.3353 68.3141 49.3353C70.3381 49.3353 71.6801 50.5233 71.6801 52.6353V52.7893C71.6801 54.8133 70.3821 55.9573 68.2921 55.9573ZM68.3141 54.1313C69.1721 54.1313 69.7001 53.5813 69.7001 52.7013V52.6353C69.7001 51.6893 69.1501 51.1613 68.3141 51.1613C67.5441 51.1613 66.9281 51.6233 66.9281 52.6353V52.7013C66.9281 53.6253 67.4561 54.1313 68.3141 54.1313Z" fill="white"/>
<defs>
<linearGradient id="paint0_linear_1_229" x1="7.05777" y1="30.1618" x2="82.4505" y2="41.9065" gradientUnits="userSpaceOnUse">
<stop stop-color="#FF0000"/>
<stop offset="0.8125" stop-color="#662A5C"/>
</linearGradient>
<linearGradient id="paint1_linear_1_229" x1="-8.97361" y1="22.3271" x2="96.2179" y2="38.7139" gradientUnits="userSpaceOnUse">
<stop stop-color="#FF0000"/>
<stop offset="0.8125" stop-color="#662A5C"/>
</linearGradient>
</defs>
</svg>
