<svg xmlns="http://www.w3.org/2000/svg" width="1920" height="1048" viewBox="0 0 1920 1048" fill="none"><g clip-path="url(#clip0_205_4001)"><g clip-path="url(#clip1_205_4001)"><g clip-path="url(#clip2_205_4001)"><path opacity="0.66" d="M504.226 866.606C582.052 932.583 698.627 922.977 764.604 845.151C830.581 767.325 820.975 650.749 743.149 584.773C665.323 518.796 548.747 528.402 482.77 606.228C416.793 684.054 426.399 800.629 504.226 866.606ZM679.993 659.271C716.675 690.368 721.202 745.313 690.105 781.995C659.009 818.677 604.063 823.204 567.381 792.108C530.7 761.011 526.172 706.066 557.269 669.384C588.366 632.702 643.311 628.175 679.993 659.271Z" fill="url(#paint0_linear_205_4001)" fill-opacity="0.88"></path><path opacity="0.33" d="M460.339 918.375C566.756 1008.59 726.157 995.454 816.372 889.038C906.586 782.621 893.451 623.219 787.034 533.005C680.618 442.79 521.216 455.925 431.002 562.342C340.787 668.759 353.922 828.16 460.339 918.375ZM709.167 624.857C764.856 672.067 771.729 755.482 724.52 811.17C677.31 866.859 593.895 873.732 538.206 826.523C482.518 779.313 475.644 695.898 522.854 640.209C570.063 584.521 653.479 577.647 709.167 624.857Z" fill="url(#paint1_linear_205_4001)" fill-opacity="0.88"></path><g opacity="0.55"><g clip-path="url(#clip3_205_4001)"><g opacity="0.77"><mask id="mask0_205_4001" style="mask-type:alpha" maskUnits="userSpaceOnUse" x="-924" y="0" width="2857" height="1033"><path d="M991.426 242.023C1335.53 49.6753 1762.07 161.878 1932.33 242.023V1032.49H-920.618V1.58838C-945.261 -8.29248 -837.281 25.9611 -208.222 242.023C578.102 512.101 561.3 482.458 991.426 242.023Z" fill="url(#paint2_linear_205_4001)"></path></mask><g mask="url(#mask0_205_4001)"><rect x="1919.63" y="1034.69" width="2319.68" height="982.44" transform="rotate(-180 1919.63 1034.69)" fill="url(#paint3_linear_205_4001)" fill-opacity="0.88"></rect></g></g><g opacity="0.77"><mask id="mask1_205_4001" style="mask-type:alpha" maskUnits="userSpaceOnUse" x="-930" y="167" width="2921" height="1059"><path d="M997.917 306.01C1328.01 90.506 1761.24 173.179 1936.6 241.453L1990.84 1030.06L-855.386 1225.81L-926.119 197.331C-951.381 189.164 -841.306 215.929 -198.905 388.32C604.097 603.81 585.301 575.39 997.917 306.01Z" fill="url(#paint4_linear_205_4001)"></path></mask><g mask="url(#mask1_205_4001)"><rect x="1990.46" y="1065.54" width="2319.68" height="982.44" transform="rotate(176.066 1990.46 1065.54)" fill="url(#paint5_linear_205_4001)" fill-opacity="0.88"></rect></g></g></g><g clip-path="url(#clip4_205_4001)"><g opacity="0.77"><mask id="mask2_205_4001" style="mask-type:alpha" maskUnits="userSpaceOnUse" x="-13" y="140" width="2857" height="1034"><path d="M928.575 931.147C584.474 1123.49 157.932 1011.29 -12.3262 931.147V140.676H2840.62V1171.58C2865.26 1181.46 2757.28 1147.21 2128.22 931.147C1341.9 661.069 1358.7 690.712 928.575 931.147Z" fill="url(#paint6_linear_205_4001)"></path></mask><g mask="url(#mask2_205_4001)"><rect x="0.366699" y="138.478" width="2319.68" height="982.44" fill="url(#paint7_linear_205_4001)" fill-opacity="0.88"></rect></g></g><g opacity="0.77"><mask id="mask3_205_4001" style="mask-type:alpha" maskUnits="userSpaceOnUse" x="-71" y="-53" width="2921" height="1059"><path d="M922.084 867.16C591.991 1082.66 158.756 999.991 -16.5996 931.717L-70.8354 143.109L2775.39 -52.6373L2846.12 975.839C2871.38 984.006 2761.31 957.241 2118.91 784.85C1315.9 569.36 1334.7 597.78 922.084 867.16Z" fill="url(#paint8_linear_205_4001)"></path></mask><g mask="url(#mask3_205_4001)"><rect x="-70.4624" y="107.634" width="2319.68" height="982.44" transform="rotate(-3.93427 -70.4624 107.634)" fill="url(#paint9_linear_205_4001)" fill-opacity="0.88"></rect></g></g></g></g><path opacity="0.77" d="M1212.08 597.172C1234.65 597.365 1256.77 590.86 1275.64 578.48C1294.52 566.1 1309.3 548.401 1318.11 527.621C1326.93 506.841 1329.38 483.914 1325.17 461.739C1320.95 439.564 1310.26 419.136 1294.43 403.04C1278.61 386.944 1258.37 375.901 1236.27 371.309C1214.17 366.717 1191.2 368.781 1170.28 377.241C1149.35 385.701 1131.4 400.176 1118.7 418.837C1106 437.498 1099.12 459.505 1098.93 482.076L1160.12 482.598C1160.21 472.131 1163.41 461.925 1169.3 453.271C1175.18 444.617 1183.51 437.904 1193.21 433.981C1202.92 430.058 1213.57 429.1 1223.82 431.23C1234.07 433.359 1243.45 438.48 1250.79 445.945C1258.13 453.41 1263.09 462.883 1265.04 473.167C1267 483.45 1265.86 494.083 1261.77 503.719C1257.68 513.356 1250.83 521.564 1242.08 527.305C1233.32 533.046 1223.07 536.063 1212.6 535.974L1212.08 597.172Z" fill="url(#paint10_linear_205_4001)" fill-opacity="0.88"></path><path opacity="0.33" d="M1211.65 646.998C1244.08 647.274 1275.86 637.929 1302.97 620.144C1330.09 602.359 1351.32 576.933 1363.98 547.081C1376.65 517.229 1380.18 484.292 1374.12 452.435C1368.07 420.578 1352.7 391.232 1329.97 368.108C1307.23 344.984 1278.15 329.12 1246.4 322.523C1214.66 315.926 1181.66 318.892 1151.6 331.045C1121.54 343.199 1095.75 363.994 1077.51 390.802C1059.26 417.61 1049.38 449.225 1049.1 481.651L1137.02 482.401C1137.15 467.363 1141.73 452.702 1150.19 440.27C1158.65 427.837 1170.61 418.194 1184.55 412.557C1198.49 406.921 1213.79 405.546 1228.52 408.605C1243.24 411.665 1256.73 419.021 1267.27 429.745C1277.81 440.469 1284.94 454.078 1287.75 468.852C1290.55 483.625 1288.92 498.9 1283.04 512.744C1277.17 526.588 1267.33 538.379 1254.75 546.627C1242.18 554.875 1227.44 559.208 1212.4 559.08L1211.65 646.998Z" fill="url(#paint11_linear_205_4001)" fill-opacity="0.88"></path></g></g></g><rect x="0.654297" y="91.7383" width="187.887" height="955.348" fill="url(#paint12_linear_205_4001)"></rect><rect width="249.172" height="955.348" transform="matrix(-1 0 0 1 1920 91.7383)" fill="url(#paint13_linear_205_4001)"></rect><defs><linearGradient id="paint0_linear_205_4001" x1="482.77" y1="606.228" x2="824.057" y2="852.678" gradientUnits="userSpaceOnUse"><stop stop-color="#E26271"></stop><stop offset="1" stop-color="#B584DC" stop-opacity="0"></stop></linearGradient><linearGradient id="paint1_linear_205_4001" x1="431.002" y1="562.342" x2="897.665" y2="899.33" gradientUnits="userSpaceOnUse"><stop stop-color="#BB85E6"></stop><stop offset="1" stop-color="#BC89E4" stop-opacity="0"></stop></linearGradient><linearGradient id="paint2_linear_205_4001" x1="-131.923" y1="444.278" x2="1932.12" y2="464.789" gradientUnits="userSpaceOnUse"><stop offset="0.0834264" stop-color="#440597"></stop><stop offset="0.333937" stop-color="#C93CA1"></stop><stop offset="0.721738" stop-color="#6E73EE"></stop><stop offset="1" stop-color="#250054"></stop></linearGradient><linearGradient id="paint3_linear_205_4001" x1="3079.47" y1="1034.69" x2="3042.46" y2="2156.21" gradientUnits="userSpaceOnUse"><stop stop-color="#BB85E6"></stop><stop offset="1" stop-color="#BC89E4" stop-opacity="0"></stop></linearGradient><linearGradient id="paint4_linear_205_4001" x1="14.3962" y1="572.307" x2="1907.26" y2="586.545" gradientUnits="userSpaceOnUse"><stop offset="0.0834264" stop-color="#440597"></stop><stop offset="0.333937" stop-color="#C93CA1"></stop><stop offset="0.721738" stop-color="#6E73EE"></stop><stop offset="1" stop-color="#250054"></stop></linearGradient><linearGradient id="paint5_linear_205_4001" x1="3150.3" y1="1065.54" x2="3113.29" y2="2187.06" gradientUnits="userSpaceOnUse"><stop stop-color="#E26271"></stop><stop offset="1" stop-color="#B584DC" stop-opacity="0"></stop></linearGradient><linearGradient id="paint6_linear_205_4001" x1="2051.92" y1="728.892" x2="-12.1222" y2="708.381" gradientUnits="userSpaceOnUse"><stop offset="0.0834264" stop-color="#440597"></stop><stop offset="0.333937" stop-color="#C93CA1"></stop><stop offset="0.721738" stop-color="#6E73EE"></stop><stop offset="1" stop-color="#250054"></stop></linearGradient><linearGradient id="paint7_linear_205_4001" x1="1160.21" y1="138.478" x2="1123.19" y2="1260" gradientUnits="userSpaceOnUse"><stop stop-color="#BB85E6"></stop><stop offset="1" stop-color="#BC89E4" stop-opacity="0"></stop></linearGradient><linearGradient id="paint8_linear_205_4001" x1="1905.6" y1="600.862" x2="12.7391" y2="586.625" gradientUnits="userSpaceOnUse"><stop offset="0.0834264" stop-color="#440597"></stop><stop offset="0.333937" stop-color="#C93CA1"></stop><stop offset="0.721738" stop-color="#6E73EE"></stop><stop offset="1" stop-color="#250054"></stop></linearGradient><linearGradient id="paint9_linear_205_4001" x1="1089.38" y1="107.634" x2="1052.36" y2="1229.15" gradientUnits="userSpaceOnUse"><stop stop-color="#E26271"></stop><stop offset="1" stop-color="#B584DC" stop-opacity="0"></stop></linearGradient><linearGradient id="paint10_linear_205_4001" x1="1117.66" y1="420.392" x2="1345.46" y2="545.852" gradientUnits="userSpaceOnUse"><stop stop-color="#E26271"></stop><stop offset="1" stop-color="#B584DC" stop-opacity="0"></stop></linearGradient><linearGradient id="paint11_linear_205_4001" x1="1076.01" y1="393.036" x2="1403.27" y2="573.271" gradientUnits="userSpaceOnUse"><stop stop-color="#BB85E6"></stop><stop offset="1" stop-color="#BC89E4" stop-opacity="0"></stop></linearGradient><linearGradient id="paint12_linear_205_4001" x1="0.654293" y1="537.364" x2="167.739" y2="537.364" gradientUnits="userSpaceOnUse"><stop stop-color="white"></stop><stop offset="1" stop-color="white" stop-opacity="0"></stop></linearGradient><linearGradient id="paint13_linear_205_4001" x1="-5.13929e-06" y1="445.626" x2="221.584" y2="445.626" gradientUnits="userSpaceOnUse"><stop stop-color="white"></stop><stop offset="1" stop-color="white" stop-opacity="0"></stop></linearGradient><clipPath id="clip0_205_4001"><rect width="1920" height="1046" fill="white" transform="translate(0 0.0864258)"></rect></clipPath><clipPath id="clip1_205_4001"><rect width="1920" height="1328.26" fill="white" transform="translate(0 0.0864258)"></rect></clipPath><clipPath id="clip2_205_4001"><rect width="1920" height="1328.26" fill="white" transform="translate(0 0.0864258)"></rect></clipPath><clipPath id="clip3_205_4001"><rect width="1920" height="591" fill="white" transform="matrix(-1 0 0 1 1920 0.0844727)"></rect></clipPath><clipPath id="clip4_205_4001"><rect width="1920" height="582" fill="white" transform="matrix(1 0 0 -1 0 1173.09)"></rect></clipPath></defs></svg>