<svg xmlns="http://www.w3.org/2000/svg" width="71" height="70" viewBox="0 0 71 70" fill="none"><g clip-path="url(#clip0_3720_4167)"><rect x="0.687988" width="70" height="70" rx="10" fill="url(#paint0_linear_3720_4167)"></rect><g clip-path="url(#clip1_3720_4167)"><path fill-rule="evenodd" clip-rule="evenodd" d="M37.258 6H-1.97319C-0.915195 7.17709 0.0660133 8.43886 1.01309 9.71758H36.4219C37.4543 9.71758 38.2904 10.5559 38.2904 11.5721V45.0218C38.2904 46.0465 37.4458 46.8764 36.4219 46.8764H-24.8055C-25.8379 46.8764 -26.674 46.038 -26.674 45.0218V41.2535H-29.7627V46.5038C-29.7627 48.7479 -27.9112 50.594 -25.6416 50.594H-21.0427C-20.7185 50.0435 -20.1213 49.6625 -19.4302 49.6625H-15.1896C-14.4985 49.6625 -13.9013 50.0351 -13.577 50.594H25.9614C26.2856 50.0435 26.8828 49.6625 27.5739 49.6625H31.8145C32.5056 49.6625 33.1028 50.0351 33.4271 50.594H37.258C39.5191 50.594 41.3791 48.7564 41.3791 46.5038V10.0902C41.3791 7.84609 39.5276 6 37.258 6Z" fill="white"></path><path fill-rule="evenodd" clip-rule="evenodd" d="M-28.6277 52.6602L-33.1242 60.8321C-33.3802 61.2894 -33.3716 61.8145 -33.1242 62.2802C-32.8682 62.7375 -32.4246 63 -31.9126 63H44.2803C44.7922 63 45.2359 62.7375 45.4919 62.2802C45.7478 61.8229 45.7564 61.2979 45.4919 60.8321L40.9954 52.6518C40.7394 52.186 40.2957 51.915 39.7753 51.915H33.6064C33.4187 52.728 32.6764 53.3377 31.7976 53.3377H27.5571C26.6783 53.3377 25.936 52.728 25.7483 51.915H-13.3806C-13.5683 52.728 -14.3106 53.3377 -15.1894 53.3377H-19.43C-20.3088 53.3377 -21.0511 52.728 -21.2388 51.915H-27.4161C-27.9366 51.915 -28.3803 52.186 -28.6362 52.6518" fill="white"></path><path fill-rule="evenodd" clip-rule="evenodd" d="M31.8146 50.6191H27.5741C27.0792 50.6191 26.6782 51.0172 26.6782 51.5083C26.6782 51.9995 27.0792 52.3975 27.5741 52.3975H31.8146C32.3095 52.3975 32.7105 51.9995 32.7105 51.5083C32.7105 51.0172 32.3095 50.6191 31.8146 50.6191Z" fill="white"></path><path fill-rule="evenodd" clip-rule="evenodd" d="M33.0346 21.7173H19.2551C18.6919 21.7173 18.2227 22.1746 18.2227 22.7419C18.2227 23.3009 18.6834 23.7666 19.2551 23.7666H33.0346C33.5978 23.7666 34.067 23.3093 34.067 22.7504C34.067 22.1915 33.6063 21.7258 33.0346 21.7258" fill="white"></path><path fill-rule="evenodd" clip-rule="evenodd" d="M28.0945 17.4321H19.2551C18.6919 17.4321 18.2227 17.8894 18.2227 18.4568C18.2227 19.0157 18.6834 19.4815 19.2551 19.4815H28.0945C28.6576 19.4815 29.1183 19.0242 29.1183 18.4568C29.1183 17.8979 28.6576 17.4321 28.0945 17.4321Z" fill="white"></path><path fill-rule="evenodd" clip-rule="evenodd" d="M33.0346 25.9938H19.2551C18.6919 25.9938 18.2227 26.4511 18.2227 27.01C18.2227 27.5689 18.6834 28.0347 19.2551 28.0347H33.0346C33.5978 28.0347 34.067 27.5774 34.067 27.01C34.067 26.4511 33.6063 25.9854 33.0346 25.9854" fill="white"></path><path fill-rule="evenodd" clip-rule="evenodd" d="M33.0346 33.1406H19.2551C18.6919 33.1406 18.2227 33.5979 18.2227 34.1568C18.2227 34.7157 18.6834 35.1815 19.2551 35.1815H33.0346C33.5978 35.1815 34.067 34.7242 34.067 34.1568C34.067 33.5979 33.6063 33.1406 33.0346 33.1406Z" fill="white"></path><path fill-rule="evenodd" clip-rule="evenodd" d="M33.0346 37.4258H19.2551C18.6919 37.4258 18.2227 37.8831 18.2227 38.442C18.2227 39.0009 18.6834 39.4666 19.2551 39.4666H33.0346C33.5978 39.4666 34.067 39.0094 34.067 38.442C34.067 37.8831 33.6063 37.4258 33.0346 37.4258Z" fill="white"></path></g></g><defs><linearGradient id="paint0_linear_3720_4167" x1="35.688" y1="0" x2="35.688" y2="70" gradientUnits="userSpaceOnUse"><stop stop-color="#921D41"></stop><stop offset="1" stop-color="#1D3792"></stop></linearGradient><clipPath id="clip0_3720_4167"><rect x="0.687988" width="70" height="70" rx="10" fill="white"></rect></clipPath><clipPath id="clip1_3720_4167"><rect width="79" height="57" fill="white" transform="translate(-33.312 6)"></rect></clipPath></defs></svg>