<svg xmlns="http://www.w3.org/2000/svg" width="71" height="70" viewBox="0 0 71 70" fill="none"><g clip-path="url(#clip0_3720_4975)"><rect x="0.687988" width="70" height="70" rx="10" fill="url(#paint0_linear_3720_4975)"></rect><g clip-path="url(#clip1_3720_4975)"><path d="M4.05692 34.209L10.6592 39.6119C11.0731 39.9505 11.3831 40.3776 11.5894 40.8931C11.7956 41.4087 11.8241 41.9495 11.6748 42.5158L10.094 49.5135L28.5437 41.245C29.6656 40.7184 30.6968 40.8399 31.6373 41.6096C32.5778 42.3792 32.9009 43.366 32.6066 44.5699L30.1276 55.5436L35.3192 59.792C37.895 55.493 38.7779 50.8449 37.9678 45.8478C37.1576 40.8508 34.7587 36.7206 30.771 33.4573C26.7832 30.194 22.2601 28.6596 17.2015 28.854C12.1429 29.0485 7.76138 30.8335 4.05692 34.209ZM4.91084 65.0581C8.89856 68.3214 13.4217 69.8558 18.4803 69.6614C23.5389 69.4669 27.9204 67.6819 31.6249 64.3064L25.0226 58.9035C24.6087 58.5649 24.2987 58.1378 24.0924 57.6223C23.8862 57.1067 23.8577 56.5659 24.007 55.9996L25.5878 49.0019L7.13815 57.2704C6.01625 57.797 4.98506 57.6755 4.04456 56.9058C3.10405 56.1362 2.78093 55.1494 3.07518 53.9455L5.55418 42.9718L0.362613 38.7234C-2.21324 43.0224 -3.0961 47.6705 -2.28596 52.6676C-1.47582 57.6646 0.923107 61.7948 4.91084 65.0581ZM1.21653 69.5725C-1.56736 67.2944 -3.75273 64.6103 -5.33958 61.5203C-6.92643 58.4303 -7.88716 55.2107 -8.22176 51.8615C-8.55664 48.5096 -8.25199 45.1622 -7.30782 41.8194C-6.36366 38.4765 -4.75236 35.4145 -2.47393 32.6333L2.04047 36.3276C-1.53069 40.6916 -3.03607 45.6782 -2.47566 51.2875C-1.91526 56.8967 0.546907 61.487 4.91084 65.0581C9.27476 68.6293 14.2614 70.1347 19.8707 69.5743C25.4799 69.0139 30.0702 66.5517 33.6413 62.1878L38.1557 65.8821C35.8776 68.666 33.1935 70.8513 30.1035 72.4382C27.0135 74.025 23.7939 74.9858 20.4447 75.3204C17.0928 75.6552 13.7455 75.3506 10.4026 74.4064C7.0597 73.4623 3.99768 71.851 1.21653 69.5725ZM-2.47393 32.6333C-0.195779 29.8494 2.48831 27.6641 5.57832 26.0772C8.66834 24.4904 11.8879 23.5296 15.2371 23.195C18.589 22.8602 21.9364 23.1648 25.2792 24.109C28.6221 25.0531 31.6841 26.6644 34.4653 28.9429C36.7977 30.8516 38.7283 33.0595 40.2569 35.5667C41.7855 38.0739 42.9054 40.812 43.6165 43.7808L49.3626 43.2068L49.9367 48.9529L44.1906 49.5269C44.0809 52.5778 43.5248 55.4833 42.5224 58.2433C41.52 61.0034 40.0645 63.5496 38.1557 65.8821L33.6413 62.1878C37.2125 57.8238 38.7179 52.8372 38.1575 47.2279C37.5971 41.6187 35.1349 37.0284 30.771 33.4573C26.407 29.8861 21.4204 28.3807 15.8111 28.9411C10.2019 29.5015 5.61164 31.9637 2.04047 36.3276L-2.47393 32.6333ZM29.5408 21.1442L33.2351 16.6298L46.7783 27.7127L43.084 32.2271L29.5408 21.1442ZM4.91084 65.0581C0.546907 61.487 -1.91526 56.8967 -2.47566 51.2875C-3.03607 45.6782 -1.53069 40.6916 2.04047 36.3276C5.61164 31.9637 10.2019 29.5015 15.8111 28.9411C21.4204 28.3807 26.407 29.8861 30.771 33.4573C35.1349 37.0284 37.5971 41.6187 38.1575 47.2279C38.7179 52.8372 37.2125 57.8238 33.6413 62.1878C30.0702 66.5517 25.4799 69.0139 19.8707 69.5743C14.2614 70.1347 9.27476 68.6293 4.91084 65.0581Z" fill="white"></path></g></g><defs><linearGradient id="paint0_linear_3720_4975" x1="35.688" y1="0" x2="35.688" y2="70" gradientUnits="userSpaceOnUse"><stop stop-color="#921D41"></stop><stop offset="1" stop-color="#1D3792"></stop></linearGradient><clipPath id="clip0_3720_4975"><rect x="0.687988" width="70" height="70" rx="10" fill="white"></rect></clipPath><clipPath id="clip1_3720_4975"><rect width="70" height="70" fill="white" transform="translate(14.7676 -2.25195) rotate(39.2947)"></rect></clipPath></defs></svg>