<svg xmlns="http://www.w3.org/2000/svg" width="71" height="70" viewBox="0 0 71 70" fill="none"><g clip-path="url(#clip0_3720_5156)"><rect x="0.687988" width="70" height="70" rx="10" fill="url(#paint0_linear_3720_5156)"></rect><path d="M27.8543 41.5723C28.1154 41.8334 28.4696 41.9801 28.8389 41.9801C29.2081 41.9801 29.5623 41.8334 29.8234 41.5723C30.0845 41.3111 30.2312 40.957 30.2312 40.5877C30.2312 40.2185 30.0845 39.8643 29.8234 39.6032C29.5623 39.3421 29.2081 39.1954 28.8389 39.1954C28.4696 39.1954 28.1154 39.3421 27.8543 39.6032C27.5932 39.8643 27.4465 40.2185 27.4465 40.5877C27.4465 40.957 27.5932 41.3111 27.8543 41.5723Z" fill="white"></path><path d="M36.4885 33.4511L36.4949 33.4555L36.638 33.554L36.676 33.5801L36.7022 33.6182L36.8007 33.7613L36.8051 33.7677L36.8083 33.7731L36.8156 33.7834L36.8165 33.7848L36.8165 33.7848L36.8611 33.8491L36.8636 33.8526L36.8635 33.8526C37.1125 34.2247 37.3561 34.6003 37.5945 34.9793C38.1689 35.8882 38.7094 36.818 39.215 37.7669L39.2154 37.7677C39.7668 38.8111 40.3019 39.9638 40.5965 40.9889L36.4885 33.4511ZM36.4885 33.4511L36.483 33.4478M36.4885 33.4511L36.483 33.4478M36.483 33.4478L36.4727 33.4406L36.4728 33.4406L36.469 33.438L36.404 33.394L36.404 33.394L36.4026 33.3931L36.1584 33.2303L36.1578 33.2299C35.9463 33.0898 35.6434 32.8925 35.2767 32.6616L35.2766 32.6616C34.5443 32.2008 33.5435 31.5974 32.4878 31.0401L36.483 33.4478ZM29.2673 29.6596C30.2923 29.9542 31.4451 30.4894 32.4877 31.0401L29.2673 29.6596ZM29.2673 29.6596C28.758 29.5131 28.2157 29.407 27.7012 29.4182C27.192 29.4281 26.5605 29.5586 26.0711 30.048C24.8909 31.2282 24.3526 32.4302 24.1201 33.3732C24.0167 33.7923 23.9751 34.155 23.962 34.436C23.9048 34.5067 23.8442 34.5868 23.7839 34.6772C23.4987 35.0981 23.2217 35.7035 23.1519 36.4979C22.215 37.0999 21.4199 37.8988 20.8222 38.8396C20.2016 39.8166 19.8099 40.9213 19.6766 42.071C19.5432 43.2207 19.6715 44.3857 20.052 45.4788C20.4325 46.5719 21.0552 47.5648 21.8736 48.3832C22.692 49.2016 23.6849 49.8244 24.778 50.2048C25.8711 50.5853 27.0361 50.7136 28.1859 50.5803C29.3356 50.4469 30.4402 50.0552 31.4172 49.4346C32.358 48.8369 33.157 48.0417 33.759 47.1048C34.5527 47.0344 35.1575 46.7581 35.5791 46.4722M29.2673 29.6596L40.5966 40.9889C40.743 41.4983 40.8492 42.0407 40.8379 42.5553C40.828 43.0644 40.6975 43.6957 40.2082 44.1851C39.0284 45.3648 37.8275 45.9039 36.8836 46.1359C36.5354 46.2232 36.1796 46.2761 35.8212 46.2938C35.7495 46.352 35.669 46.4123 35.5791 46.4722M35.5791 46.4722C35.5788 46.4724 35.5785 46.4726 35.5782 46.4728L35.4395 46.2648L35.5799 46.4717C35.5796 46.4719 35.5793 46.4721 35.5791 46.4722ZM25.4917 36.9148L33.3411 44.7642C32.9986 44.7598 32.5181 44.6741 31.8876 44.3878C31.0282 43.9975 29.8919 43.2332 28.4574 41.7988C27.0231 40.3644 26.2588 39.2281 25.8678 38.368C25.5823 37.7386 25.4969 37.2586 25.4917 36.9148ZM26.4077 33.9375L26.4079 33.9365C26.5423 33.3907 26.8685 32.6065 27.6751 31.7774C27.6958 31.7743 27.7167 31.773 27.7377 31.7736L27.7377 31.7739L27.7503 31.7737C27.9322 31.7698 28.2181 31.8094 28.616 31.9246L28.6166 31.9248C29.4075 32.152 30.3909 32.5979 31.3882 33.1236C32.2841 33.6017 33.1619 34.1128 34.02 34.6558L34.0206 34.6561C34.3433 34.8592 34.6635 35.0663 34.9811 35.2775C34.9921 35.2939 35.0039 35.3117 35.017 35.3314C35.0303 35.3515 35.0449 35.3735 35.0613 35.3981C35.1928 35.5973 35.3794 35.8857 35.6002 36.2358C36.0425 36.9382 36.6119 37.8834 37.1317 38.8682L37.1317 38.8683C37.6581 39.8649 38.1042 40.8486 38.3314 41.6396L38.3315 41.6401C38.4465 42.0371 38.4863 42.323 38.4832 42.5061C38.4822 42.539 38.4802 42.5639 38.478 42.5819C37.6491 43.3879 36.8653 43.7138 36.3193 43.8475L36.3174 43.848C36.1606 43.8877 36.001 43.9153 35.8401 43.9306L26.3255 34.416C26.3408 34.2547 26.3683 34.0948 26.4077 33.9375ZM23.5348 39.1986C23.5636 39.1698 23.5926 39.1414 23.6219 39.1134C24.1483 40.3706 25.1398 41.8137 26.7911 43.465C28.344 45.0179 29.7096 45.9866 30.9119 46.533C30.9896 46.5686 31.0667 46.6023 31.143 46.6341C30.7291 47.066 30.2447 47.4256 29.7097 47.697C29.0696 48.0218 28.3704 48.2137 27.6542 48.2611C26.938 48.3085 26.2196 48.2105 25.5423 47.9729C24.865 47.7354 24.2427 47.3632 23.713 46.8788C23.1833 46.3944 22.7572 45.8079 22.4602 45.1544C22.1632 44.501 22.0015 43.7942 21.9849 43.0766C21.9682 42.359 22.097 41.6455 22.3634 40.979C22.6298 40.3126 23.0282 39.707 23.5348 39.1986Z" fill="white" stroke="white" stroke-width="0.5"></path><path d="M18.5689 50.4629L18.569 50.4631C18.6499 50.7057 18.6496 50.968 18.5683 51.2104C18.487 51.4528 18.3291 51.6622 18.1184 51.8069C18.1183 51.8069 18.1183 51.8069 18.1183 51.807L15.9171 53.3201L15.8079 54.4484L16.9846 54.3348L18.3265 52.3226L18.3257 52.3218L18.4396 52.1512C18.5831 51.9363 18.7933 51.7746 19.0378 51.6909C19.2822 51.6072 19.5473 51.6062 19.7923 51.6879L18.5689 50.4629ZM18.5689 50.4629L18.4709 50.1698L19.0919 49.5489L20.7074 51.1644L20.0862 51.7856L19.7926 51.688L18.5689 50.4629ZM21.6433 53.561L21.6434 53.561L22.5504 52.6539C22.9455 52.2589 23.1674 51.7231 23.1674 51.1644C23.1674 50.6057 22.9455 50.07 22.5504 49.6749L20.5814 47.7059C20.1863 47.3108 19.6506 47.0889 19.0919 47.0889C18.5332 47.0889 17.9974 47.3108 17.6024 47.7059L16.6961 48.6122C16.696 48.6122 16.696 48.6123 16.696 48.6123C16.5469 48.7612 16.4216 48.9311 16.3236 49.116L16.6444 45.8052C16.6444 45.8052 16.6444 45.8051 16.6444 45.8051C16.6653 45.5904 16.6269 45.3741 16.5333 45.1798C16.4397 44.9855 16.2946 44.8205 16.1137 44.703L16.1136 44.7029C14.0874 43.3878 11.8091 42.1843 9.7291 41.5754C7.74651 40.9937 5.45556 40.8183 3.95148 42.3224L1.52164 44.7522C1.30068 44.9732 1.17655 45.2729 1.17655 45.5854C1.17655 45.8979 1.30068 46.1976 1.52164 46.4185L23.8378 68.7347C24.0587 68.9556 24.3584 69.0798 24.6709 69.0798C24.9834 69.0798 25.2831 68.9556 25.5041 68.7347L27.9339 66.3048C29.4441 64.7946 29.2998 62.5212 28.7232 60.5294L28.7232 60.5293C28.1213 58.4516 26.914 56.1773 25.5737 54.1351L25.5735 54.1348C25.4556 53.9557 25.291 53.8121 25.0975 53.7196C24.904 53.6271 24.689 53.5892 24.4755 53.6099C24.4755 53.6099 24.4755 53.6099 24.4754 53.6099L21.1406 53.9325C21.3251 53.8347 21.4946 53.7097 21.6433 53.561ZM26.4589 61.1843L26.4589 61.1844C26.9936 63.0289 26.7975 64.1087 26.2676 64.6386L24.6709 66.2353L15.3001 56.8645L23.9851 56.0239C25.0929 57.7887 26.0015 59.6047 26.4589 61.1843ZM14.2283 46.2975L13.3911 54.9555L4.02105 45.5854L5.61775 43.9887C6.12549 43.4809 7.20012 43.2898 9.06663 43.8359C10.6539 44.3009 12.4744 45.2093 14.2283 46.2975Z" fill="white" stroke="white" stroke-width="0.5"></path><path d="M21.8369 13.5757L30.7075 22.4463" stroke="white" stroke-width="3" stroke-linecap="round" stroke-linejoin="round"></path><path d="M30.7075 13.5757L21.8369 22.4463" stroke="white" stroke-width="3" stroke-linecap="round" stroke-linejoin="round"></path><path d="M37.1899 13.4365C43.3072 13.0185 48.9068 14.6984 52.8724 18.664C56.8381 22.6297 58.518 28.2293 58.0999 34.3465" stroke="white" stroke-width="4" stroke-linecap="round" stroke-linejoin="round"></path><path d="M36.5366 21.9312C40.7683 21.2614 44.5131 22.0663 46.9916 24.5449C49.4702 27.0234 50.2751 30.7682 49.6054 34.9999" stroke="white" stroke-width="4" stroke-linecap="round" stroke-linejoin="round"></path></g><defs><linearGradient id="paint0_linear_3720_5156" x1="35.688" y1="0" x2="35.688" y2="70" gradientUnits="userSpaceOnUse"><stop stop-color="#921D41"></stop><stop offset="1" stop-color="#1D3792"></stop></linearGradient><clipPath id="clip0_3720_5156"><rect x="0.687988" width="70" height="70" rx="10" fill="white"></rect></clipPath></defs></svg>