<svg xmlns="http://www.w3.org/2000/svg" width="71" height="70" viewBox="0 0 71 70" fill="none"><rect x="0.687988" width="70" height="70" rx="10" fill="url(#paint0_linear_3720_5172)"></rect><path d="M17.4419 9.03613L28.1919 19.7861" stroke="white" stroke-width="3" stroke-linecap="round" stroke-linejoin="round"></path><path d="M28.1919 9.03613L17.4419 19.7861" stroke="white" stroke-width="3" stroke-linecap="round" stroke-linejoin="round"></path><path d="M30.3132 38.75L27.4694 35.9062C27.8305 35.4097 28.0788 34.9015 28.2142 34.3815C28.3496 33.8615 28.4173 33.3315 28.4173 32.7917C28.4173 32.25 28.3496 31.7192 28.2142 31.1992C28.0788 30.6792 27.8305 30.1944 27.4694 29.7448L30.3132 26.8333C31.0354 27.691 31.577 28.6389 31.9382 29.6771C32.2993 30.7153 32.4798 31.7535 32.4798 32.7917C32.4798 33.8299 32.2993 34.8572 31.9382 35.8737C31.577 36.8903 31.0354 37.849 30.3132 38.75ZM36.0684 44.5729L33.1569 41.6615C34.2854 40.3976 35.1322 38.9983 35.6973 37.4635C36.2625 35.9288 36.5441 34.3715 36.5423 32.7917C36.5423 31.2118 36.2606 29.6663 35.6973 28.155C35.134 26.6438 34.2872 25.2553 33.1569 23.9896L36.0684 21.0781C37.6031 22.7483 38.7433 24.5881 39.489 26.5977C40.2347 28.6073 40.6066 30.6719 40.6048 32.7917C40.6048 34.9132 40.232 36.9896 39.4863 39.0208C38.7406 41.0521 37.6013 42.9028 36.0684 44.5729ZM24.2298 54.5C22.7402 54.5 21.4646 53.9692 20.4029 52.9075C19.3413 51.8458 18.8113 50.5711 18.8132 49.0833C18.8132 47.5937 19.344 46.3181 20.4057 45.2565C21.4673 44.1948 22.742 43.6649 24.2298 43.6667C25.7194 43.6667 26.995 44.1975 28.0567 45.2592C29.1184 46.3208 29.6483 47.5956 29.6465 49.0833C29.6465 50.5729 29.1157 51.8485 28.054 52.9102C26.9923 53.9719 25.7176 54.5018 24.2298 54.5ZM13.3965 65.3333V63.776C13.3965 62.6927 13.6899 61.6997 14.2767 60.7969C14.8635 59.8941 15.676 59.217 16.7142 58.7656C17.8878 58.2691 19.0957 57.8854 20.3379 57.6146C21.5802 57.3438 22.8775 57.2083 24.2298 57.2083C25.584 57.2083 26.8822 57.3438 28.1244 57.6146C29.3666 57.8854 30.5736 58.2691 31.7454 58.7656C32.7836 59.217 33.5961 59.8941 34.1829 60.7969C34.7697 61.6997 35.0632 62.6927 35.0632 63.776V65.3333H13.3965ZM54.1465 35.5C52.6569 35.5 51.3813 34.9692 50.3196 33.9075C49.2579 32.8458 48.728 31.5711 48.7298 30.0833C48.7298 28.5937 49.2606 27.3181 50.3223 26.2565C51.384 25.1948 52.6587 24.6649 54.1465 24.6667C55.6361 24.6667 56.9117 25.1975 57.9734 26.2592C59.035 27.3208 59.565 28.5956 59.5631 30.0833C59.5631 31.5729 59.0323 32.8485 57.9706 33.9102C56.909 34.9719 55.6343 35.5018 54.1465 35.5ZM43.3131 46.3333V44.776C43.3131 43.6927 43.6066 42.6997 44.1934 41.7969C44.7802 40.8941 45.5927 40.217 46.6309 39.7656C47.8045 39.2691 49.0115 38.8854 50.2519 38.6146C51.4923 38.3437 52.7905 38.2083 54.1465 38.2083C55.5007 38.2083 56.7979 38.3437 58.0384 38.6146C59.2788 38.8854 60.4867 39.2691 61.6621 39.7656C62.7003 40.217 63.5128 40.8941 64.0996 41.7969C64.6864 42.6997 64.9798 43.6927 64.9798 44.776V46.3333H43.3131Z" fill="white"></path><defs><linearGradient id="paint0_linear_3720_5172" x1="35.688" y1="0" x2="35.688" y2="70" gradientUnits="userSpaceOnUse"><stop stop-color="#921D41"></stop><stop offset="1" stop-color="#1D3792"></stop></linearGradient></defs></svg>