<svg xmlns="http://www.w3.org/2000/svg" width="70" height="70" viewBox="0 0 70 70" fill="none"><rect width="70" height="70" rx="10" fill="url(#paint0_linear_3737_4838)"></rect><path d="M60.6219 40.2109C60.6028 40.1262 60.5746 40.0436 60.538 39.9643L57.365 32.9046C56.6335 31.2734 54.8539 30.2188 52.829 30.2188H36.2186C34.1954 30.2188 32.4141 31.2734 31.6834 32.9046L28.5072 39.9643C28.435 40.1235 28.3981 40.2953 28.3988 40.4688V54.5625C28.3988 54.9023 28.5404 55.2282 28.7924 55.4685C29.0444 55.7088 29.3862 55.8438 29.7426 55.8438H32.4301C32.7864 55.8438 33.1282 55.7088 33.3802 55.4685C33.6322 55.2282 33.7738 54.9023 33.7738 54.5625V53.2812H55.2738V54.5625C55.2738 54.9023 55.4154 55.2282 55.6674 55.4685C55.9194 55.7088 56.2612 55.8438 56.6176 55.8438H59.3051C59.6615 55.8438 60.0032 55.7088 60.2552 55.4685C60.5072 55.2282 60.6488 54.9023 60.6488 54.5625V40.4688C60.6489 40.3822 60.6399 40.2958 60.6219 40.2109ZM35.1176 48.1562C34.586 48.1562 34.0664 48.006 33.6245 47.7244C33.1825 47.4428 32.838 47.0426 32.6346 46.5744C32.4312 46.1061 32.378 45.5909 32.4817 45.0938C32.5854 44.5968 32.8414 44.1402 33.2172 43.7818C33.5931 43.4234 34.0719 43.1794 34.5933 43.0805C35.1146 42.9816 35.655 43.0324 36.146 43.2263C36.6371 43.4203 37.0568 43.7487 37.3521 44.1701C37.6474 44.5915 37.8051 45.0869 37.8051 45.5938C37.8051 46.2734 37.5219 46.9251 37.0179 47.4057C36.5139 47.8863 35.8303 48.1562 35.1176 48.1562ZM53.9301 48.1562C53.3985 48.1562 52.8789 48.006 52.437 47.7244C51.995 47.4428 51.6506 47.0426 51.4471 46.5744C51.2437 46.1061 51.1905 45.5909 51.2942 45.0938C51.3979 44.5968 51.6539 44.1402 52.0297 43.7818C52.4056 43.4234 52.8844 43.1794 53.4058 43.0805C53.9271 42.9816 54.4675 43.0324 54.9585 43.2263C55.4496 43.4203 55.8693 43.7487 56.1646 44.1701C56.4599 44.5915 56.6176 45.0869 56.6176 45.5938C56.6176 46.2734 56.3344 46.9251 55.8304 47.4057C55.3264 47.8863 54.6428 48.1562 53.9301 48.1562ZM31.78 39.1875L34.1509 33.9144C34.4549 33.2369 35.2855 32.7812 36.2186 32.7812H52.829C53.7613 32.7812 54.5927 33.2369 54.8967 33.9144L57.2676 39.1875H31.78Z" fill="white"></path><path d="M23.0238 38.5625C27.2756 38.5625 31.3532 36.8735 34.3596 33.8671C37.3661 30.8606 39.0551 26.783 39.0551 22.5312C39.0551 18.2795 37.3661 14.2019 34.3596 11.1954C31.3532 8.189 27.2756 6.5 23.0238 6.5C18.7721 6.5 14.6944 8.189 11.688 11.1954C8.68156 14.2019 6.99255 18.2795 6.99255 22.5312C6.99255 26.783 8.68156 30.8606 11.688 33.8671C14.6944 36.8735 18.7721 38.5625 23.0238 38.5625ZM21.2426 15.4062C21.2426 14.9338 21.4302 14.4808 21.7643 14.1467C22.0983 13.8127 22.5514 13.625 23.0238 13.625C23.4962 13.625 23.9493 13.8127 24.2833 14.1467C24.6174 14.4808 24.8051 14.9338 24.8051 15.4062V22.5312C24.8051 23.0037 24.6174 23.4567 24.2833 23.7908C23.9493 24.1248 23.4962 24.3125 23.0238 24.3125C22.5514 24.3125 22.0983 24.1248 21.7643 23.7908C21.4302 23.4567 21.2426 23.0037 21.2426 22.5312V15.4062ZM25.2504 29.6562C25.2504 30.2468 25.0158 30.8131 24.5982 31.2307C24.1807 31.6482 23.6143 31.8828 23.0238 31.8828C22.4333 31.8828 21.8669 31.6482 21.4494 31.2307C21.0318 30.8131 20.7972 30.2468 20.7972 29.6562C20.7972 29.0657 21.0318 28.4994 21.4494 28.0818C21.8669 27.6643 22.4333 27.4297 23.0238 27.4297C23.6143 27.4297 24.1807 27.6643 24.5982 28.0818C25.0158 28.4994 25.2504 29.0657 25.2504 29.6562Z" fill="white"></path><defs><linearGradient id="paint0_linear_3737_4838" x1="35" y1="0" x2="35" y2="70" gradientUnits="userSpaceOnUse"><stop stop-color="#921D41"></stop><stop offset="1" stop-color="#1D3792"></stop></linearGradient></defs></svg>