<svg xmlns="http://www.w3.org/2000/svg" width="70" height="70" viewBox="0 0 70 70" fill="none"><g clip-path="url(#clip0_3737_4833)"><rect width="70" height="70" rx="10" fill="url(#paint0_linear_3737_4833)"></rect><path d="M57 48.5059H70.475L62.15 38.5059H57V48.5059ZM63.25 69.7559C64.225 69.7559 65.1 69.4309 65.85 68.6809C66.6 67.9309 67 67.0559 67 66.0059C67 65.0309 66.6 64.1559 65.85 63.4059C65.1 62.6559 64.225 62.2559 63.25 62.2559C62.2 62.2559 61.325 62.6559 60.575 63.4059C59.825 64.1559 59.5 65.0309 59.5 66.0059C59.5 67.0559 59.825 67.9309 60.575 68.6809C61.325 69.4309 62.2 69.7559 63.25 69.7559ZM34.5 69.7559C35.6 69.7559 36.5 69.4309 37.2 68.6809C37.9 67.9309 38.25 67.0559 38.25 66.0059C38.25 65.0309 37.9 64.1559 37.2 63.4059C36.5 62.6559 35.6 62.2559 34.5 62.2559C33.4 62.2559 32.5 62.6559 31.8 63.4059C31.1 64.1559 30.75 65.0309 30.75 66.0059C30.75 67.0559 31.1 67.9309 31.8 68.6809C32.5 69.4309 33.4 69.7559 34.5 69.7559ZM64.5 33.5059L77 48.5059V66.0059H70.75C70.75 68.0809 69.975 69.8309 68.475 71.3309C67 72.8059 65.25 73.5059 63.25 73.5059C61.175 73.5059 59.425 72.8059 57.95 71.3309C56.45 69.8309 55.75 68.0809 55.75 66.0059H42C42 68.0809 41.25 69.8309 39.775 71.3309C38.25 72.8059 36.525 73.5059 34.5 73.5059C32.475 73.5059 30.75 72.8059 29.225 71.3309C27.75 69.8309 27 68.0809 27 66.0059H22V56.0059H42.475L27 43.7809V51.0059H22V36.0059H24.5L52 51.1559V33.5059H64.5Z" fill="white"></path><path d="M10.9117 17.9619L22 29.0502" stroke="white" stroke-width="3" stroke-linecap="round" stroke-linejoin="round"></path><path d="M22 17.9619L10.9117 29.0502" stroke="white" stroke-width="3" stroke-linecap="round" stroke-linejoin="round"></path><circle cx="16.4558" cy="23.5059" r="9.88281" stroke="white" stroke-width="4"></circle></g><defs><linearGradient id="paint0_linear_3737_4833" x1="35" y1="0" x2="35" y2="70" gradientUnits="userSpaceOnUse"><stop stop-color="#921D41"></stop><stop offset="1" stop-color="#1D3792"></stop></linearGradient><clipPath id="clip0_3737_4833"><rect width="70" height="70" rx="10" fill="white"></rect></clipPath></defs></svg>