<svg xmlns="http://www.w3.org/2000/svg" width="70" height="70" viewBox="0 0 70 70" fill="none"><g clip-path="url(#clip0_3737_4827)"><rect width="70" height="70" rx="10" fill="url(#paint0_linear_3737_4827)"></rect><path d="M42.501 24.7256L53.251 13.9756" stroke="white" stroke-width="3" stroke-linecap="round" stroke-linejoin="round"></path><path d="M53.251 24.7256L42.501 13.9756" stroke="white" stroke-width="3" stroke-linecap="round" stroke-linejoin="round"></path><path d="M32.1371 25.4788L36.1587 25.4788C36.2545 26.0852 36.4383 26.6202 36.7103 27.0836C36.9822 27.5471 37.3091 27.9697 37.6908 28.3514C38.0738 28.7344 38.497 29.0619 38.9605 29.3339C39.4239 29.6058 39.9423 29.773 40.5155 29.8356L40.5634 33.9052C39.4463 33.8094 38.393 33.5221 37.4035 33.0434C36.4141 32.5646 35.5523 31.9582 34.8182 31.224C34.0841 30.4899 33.4853 29.6358 33.0218 28.6617C32.5584 27.6875 32.2635 26.6266 32.1371 25.4788ZM23.9501 25.4309L28.0675 25.4309C28.1633 27.1226 28.5539 28.7108 29.2395 30.1956C29.9251 31.6805 30.8271 32.9808 31.9456 34.0967C33.0627 35.2138 34.3547 36.1075 35.8217 36.7778C37.2886 37.4481 38.8692 37.8311 40.5634 37.9268L40.5634 42.0442C38.2972 41.9485 36.19 41.4538 34.2417 40.5601C32.2935 39.6664 30.5705 38.4694 29.0729 36.9693C27.5728 35.4691 26.3682 33.7373 25.4592 31.7737C24.5501 29.8101 24.0471 27.6958 23.9501 25.4309Z" fill="white"></path><g clip-path="url(#clip1_3737_4827)"><path d="M31.1641 62.8663C31.2115 62.7911 31.251 62.7109 31.2819 62.6269L34.096 55.2181C34.7474 53.5074 34.2225 51.4553 32.7564 49.9892L20.7298 37.9626C19.265 36.4978 17.2116 35.9716 15.5016 36.6236L8.09032 39.4354C7.92275 39.4984 7.77168 39.596 7.6466 39.7222L-2.55782 49.9266C-2.80385 50.1726 -2.93731 50.5111 -2.92882 50.8675C-2.92033 51.224 -2.7706 51.5692 -2.51257 51.8272L-0.566712 53.7731C-0.308675 54.0311 0.0365283 54.1808 0.39296 54.1893C0.749392 54.1978 1.08786 54.0644 1.33389 53.8183L2.26157 52.8906L17.8284 68.4575L16.9007 69.3852C16.6547 69.6312 16.5212 69.9696 16.5297 70.3261C16.5382 70.6825 16.6879 71.0277 16.946 71.2858L18.8918 73.2316C19.1499 73.4896 19.4951 73.6394 19.8515 73.6479C20.2079 73.6563 20.5464 73.5229 20.7924 73.2769L30.9969 63.0724C31.0596 63.0098 31.1157 62.9408 31.1641 62.8663ZM6.94519 50.1529C6.56034 49.768 6.29294 49.283 6.17682 48.7591C6.06069 48.2353 6.10105 47.6961 6.29279 47.2098C6.48454 46.7235 6.81905 46.3119 7.25404 46.0271C7.68902 45.7423 8.20494 45.597 8.73654 45.6097C9.26815 45.6223 9.79157 45.7923 10.2406 46.0982C10.6897 46.4041 11.0442 46.8321 11.2593 47.328C11.4744 47.824 11.5405 48.3657 11.4492 48.8847C11.3579 49.4036 11.1133 49.8764 10.7464 50.2434C10.2543 50.7354 9.5774 51.0024 8.86454 50.9854C8.15167 50.9684 7.46126 50.6689 6.94519 50.1529ZM20.5662 63.7739C20.1813 63.389 19.9139 62.904 19.7978 62.3801C19.6817 61.8562 19.722 61.3171 19.9138 60.8308C20.1055 60.3445 20.44 59.9329 20.875 59.6481C21.31 59.3633 21.8259 59.218 22.3575 59.2306C22.8891 59.2433 23.4126 59.4133 23.8616 59.7192C24.3107 60.0251 24.6652 60.453 24.8803 60.949C25.0954 61.445 25.1615 61.9867 25.0702 62.5056C24.9789 63.0246 24.7343 63.4974 24.3674 63.8644C23.8753 64.3564 23.1984 64.6233 22.4855 64.6064C21.7727 64.5894 21.0822 64.2899 20.5662 63.7739ZM11.0224 41.2426L16.557 39.1413C17.2676 38.8709 18.1989 39.1424 18.8745 39.818L30.9011 51.8446C31.576 52.5195 31.8481 53.4514 31.5778 54.1621L29.4764 59.6966L11.0224 41.2426Z" fill="white"></path></g></g><defs><linearGradient id="paint0_linear_3737_4827" x1="35" y1="0" x2="35" y2="70" gradientUnits="userSpaceOnUse"><stop stop-color="#921D41"></stop><stop offset="1" stop-color="#1D3792"></stop></linearGradient><clipPath id="clip0_3737_4827"><rect width="70" height="70" rx="10" fill="white"></rect></clipPath><clipPath id="clip1_3737_4827"><rect width="44.0297" height="41.9818" fill="white" transform="translate(16.7423 22.8428) rotate(45)"></rect></clipPath></defs></svg>