<svg xmlns="http://www.w3.org/2000/svg" width="70" height="70" viewBox="0 0 70 70" fill="none"><g clip-path="url(#clip0_22_6808)"><path d="M58.8055 0H11.1945C5.01158 0 0 5.01158 0 11.1945V15.597L24.3623 9.06987C25.6652 8.72027 26.9988 9.49336 27.3466 10.7927C27.6944 12.092 26.9231 13.4291 25.6238 13.7769L0 20.641V25.3661L21.4556 19.7868C22.7585 19.448 24.0884 20.2283 24.4272 21.5313C24.766 22.8342 23.9839 24.1641 22.6828 24.5029L0 30.4029V35.0991L20.9564 29.5397C22.2593 29.1955 23.591 29.9704 23.937 31.2697C24.283 32.5708 23.5081 33.9043 22.207 34.2503L0 40.1413V44.8628L21.4556 39.2853C22.7585 38.9466 24.0884 39.7269 24.4272 41.0298C24.766 42.3327 23.9839 43.6626 22.6828 44.0014L0 49.8978V54.5976L22.908 48.5462C24.2146 48.202 25.5427 48.9787 25.8869 50.2798C26.2311 51.5809 25.4544 52.9145 24.1533 53.2587L0.0342395 59.6308C0.455926 65.4281 5.29091 70 11.1945 70H58.8055C64.9884 70 70 64.9884 70 58.8055V11.1945C70 5.01158 64.9884 0 58.8055 0ZM55.9348 9.48795L53.4425 12.4956C57.5873 16.298 60.3372 21.3763 61.2293 26.9267L56.4177 27.6998C55.7131 23.3153 53.5632 19.2985 50.3285 16.2566L47.9876 19.0804L46.2756 9.57445L55.9348 9.48795ZM53.4749 49.3175C48.849 53.5758 42.8354 55.9222 36.5444 55.9222C35.2685 55.9222 33.9854 55.8248 32.733 55.6338C31.9563 55.5149 31.2859 55.0301 30.9309 54.3309C27.3141 47.2253 25.4814 39.5737 25.4814 31.5851C25.4814 23.1135 27.6367 14.732 31.7166 7.34348C32.095 6.65688 32.7816 6.19375 33.5619 6.10184C34.5801 5.9811 35.5857 5.91803 36.5462 5.91803C39.2511 5.91803 41.9128 6.34873 44.4573 7.19571L42.9165 11.8198C40.8694 11.1387 38.7267 10.7927 36.5462 10.7927C36.1605 10.7927 35.7749 10.8053 35.3802 10.8287C32.0896 17.2153 30.3542 24.3641 30.3542 31.5851C30.3542 38.3663 31.8175 44.8808 34.7063 50.9664C35.3172 51.0223 35.9317 51.0493 36.5444 51.0493C46.8847 51.0493 55.6915 42.9922 56.5943 32.7078L61.4491 33.1348C60.9049 39.3394 58.072 45.0862 53.4749 49.3193V49.3175Z" fill="url(#paint0_linear_22_6808)"></path></g><defs><linearGradient id="paint0_linear_22_6808" x1="35" y1="0" x2="35" y2="70" gradientUnits="userSpaceOnUse"><stop stop-color="#921D41"></stop><stop offset="1" stop-color="#1D3792"></stop></linearGradient><clipPath id="clip0_22_6808"><rect width="70" height="70" fill="white"></rect></clipPath></defs></svg>