<svg xmlns="http://www.w3.org/2000/svg" width="70" height="70" viewBox="0 0 70 70" fill="none"><g clip-path="url(#clip0_22_6812)"><path d="M30.7471 35.2253L25.6796 37.7806L30.4534 47.2451L35.5208 44.6898L35.9984 43.1364L32.2807 35.7659L30.7471 35.2253ZM53.2479 35.6271C47.4452 24.1208 33.3619 19.4805 21.8556 25.285C10.3493 31.0877 5.70899 45.1709 11.5135 56.6772C17.3162 68.1835 31.3994 72.8239 42.9057 67.0194C54.412 61.2167 59.0524 47.1334 53.2479 35.6271ZM42.12 48.2957L33.2412 52.7739L37.5932 61.4005L32.0644 64.1883L17.363 35.0396L31.7707 27.7737L35.9064 29.1018L43.5112 44.178L42.12 48.2939V48.2957ZM58.8055 0H11.1945C5.01158 0 0 5.01158 0 11.1945V30.2083C0.668572 29.8154 1.51014 29.7361 2.27422 30.0749C3.53388 30.6336 4.10514 32.1077 3.54649 33.3673C-0.295541 42.0497 -0.0504584 51.8873 4.22047 60.3553C6.10905 64.0982 8.659 67.3509 11.7099 70H17.0441C12.9155 67.3545 9.42128 63.6098 7.05695 58.9244C0.0144163 44.9601 5.64411 27.8692 19.6084 20.8266C33.5728 13.7841 50.6619 19.4138 57.7062 33.3781C64.2982 46.4468 59.7876 62.2529 47.7353 70H58.8055C64.9884 70 70 64.9884 70 58.8055V11.1945C70 5.01158 64.9884 0 58.8055 0ZM65.2659 62.0672C65.0173 62.5808 64.6172 62.9701 64.145 63.2098C63.4765 63.5468 62.6619 63.581 61.9339 63.2296C60.6923 62.6295 60.1733 61.1374 60.7733 59.8975C65.0857 50.9736 65.001 40.7865 60.5445 31.9491C56.133 23.2036 48.0831 17.0981 38.46 15.2023C37.1066 14.9356 36.2272 13.6237 36.4939 12.2704C36.7606 10.9188 38.0743 10.0376 39.4259 10.3043C50.57 12.501 59.8921 19.5706 65.001 29.7019C70.164 39.9377 70.2613 51.7359 65.2677 62.069L65.2659 62.0672Z" fill="url(#paint0_linear_22_6812)"></path></g><defs><linearGradient id="paint0_linear_22_6812" x1="35" y1="0" x2="35" y2="70" gradientUnits="userSpaceOnUse"><stop stop-color="#921D41"></stop><stop offset="1" stop-color="#1D3792"></stop></linearGradient><clipPath id="clip0_22_6812"><rect width="70" height="70" fill="white"></rect></clipPath></defs></svg>