<svg xmlns="http://www.w3.org/2000/svg" width="72" height="70" viewBox="0 0 72 70" fill="none"><g clip-path="url(#clip0_22_6804)"><path d="M23.346 51.0115L19.2598 47.3911L21.0906 52.4441L23.3478 51.0115H23.346ZM33.2185 39.3881L31.7039 37.0958L30.7205 36.8904L27.6895 38.815L29.9779 42.2768L33.009 40.3522L33.2185 39.3881ZM35.0493 43.4409L32.0182 45.3656L34.3527 48.8994L37.3837 46.9748L37.6098 46.0341L36.0327 43.6482L35.0493 43.4427V43.4409ZM59.9816 0H11.4184C5.11182 0 0 5.01158 0 11.1945V31.3202C1.24257 31.8031 1.90981 33.1511 1.49807 34.4179C0.645181 37.04 0.148888 39.7196 0 42.3993V45.8521C0.305128 51.3088 2.04951 56.6538 5.1688 61.3716C7.4352 64.8028 10.2861 67.7077 13.5598 69.9964H20.087C15.2693 67.8105 11.003 64.3126 7.9076 59.6308C-0.830831 46.4126 3.0329 28.6855 16.5192 20.1184C30.0055 11.5513 48.0871 15.3393 56.8255 28.5612C65.564 41.783 61.7002 59.5119 48.2139 68.079C47.0633 68.8106 45.8777 69.4486 44.67 70.0018H59.9816C66.2882 70.0018 71.4 64.9902 71.4 58.8073V11.1945C71.4 5.01158 66.2882 0 59.9816 0ZM67.7201 56.4754C67.5234 57.016 67.1576 57.4503 66.6999 57.7404C66.0529 58.1513 65.2257 58.2721 64.4427 57.9999C63.1082 57.535 62.4116 56.0951 62.8877 54.7868C66.3066 45.3818 65.0952 35.1874 59.5643 26.8204C54.0904 18.538 45.1939 13.2975 35.1522 12.4398C33.7406 12.319 32.6965 11.1008 32.8197 9.71681C32.9428 8.33282 34.1872 7.30924 35.5971 7.42998C47.225 8.42112 57.5295 14.4923 63.8692 24.0848C70.2751 33.7764 71.6776 45.5818 67.7182 56.4736L67.7201 56.4754ZM52.5207 31.2949C45.3207 20.3995 30.4209 17.2783 19.3076 24.3389C8.19435 31.3976 5.01072 46.0053 12.2125 56.9007C19.4124 67.7961 34.3122 70.9173 45.4255 63.8585C56.5388 56.7998 59.7224 42.1921 52.5207 31.2967V31.2949ZM29.2482 56.5601L26.0958 53.7614L22.4361 56.0861L23.7338 60.0633L20.4877 62.1249L13.83 43.2337L17.6239 40.8225L32.4906 54.5003L29.2445 56.5619L29.2482 56.5601ZM41.6371 48.6904L33.2608 54.0119L22.4986 37.7283L30.8749 32.4068L33.4318 32.942L36.7091 37.9031L36.1632 40.4098L38.72 40.9451L42.1684 46.1621L41.6371 48.6922V48.6904ZM41.4919 42.1056L44.6425 40.1053L45.3226 41.1343L46.306 41.3397L47.9768 40.2783L48.1625 39.3304L46.8335 37.3175L38.2146 37.1445L34.8434 32.0446L35.3894 29.5379L41.4515 25.6868L44.0083 26.2221L46.1111 29.4045L42.9367 31.4211L42.2566 30.3921L41.2971 30.1704L39.6262 31.2318L39.4167 32.196L40.3449 33.5998L48.9731 33.7331L52.7614 39.4656L52.7375 39.48L52.1916 41.9867L46.1534 45.8215L43.5966 45.2863L41.4938 42.1038L41.4919 42.1056Z" fill="url(#paint0_linear_22_6804)"></path></g><defs><linearGradient id="paint0_linear_22_6804" x1="35.7" y1="0" x2="35.7" y2="70.0018" gradientUnits="userSpaceOnUse"><stop stop-color="#921D41"></stop><stop offset="1" stop-color="#1D3792"></stop></linearGradient><clipPath id="clip0_22_6804"><rect width="71.4" height="70" fill="white"></rect></clipPath></defs></svg>