<svg xmlns="http://www.w3.org/2000/svg" width="71" height="70" viewBox="0 0 71 70" fill="none"><g clip-path="url(#clip0_3720_4991)"><rect x="0.687988" width="70" height="70" rx="10" fill="url(#paint0_linear_3720_4991)"></rect><path d="M29.6044 41.9395C29.9789 42.314 30.4869 42.5244 31.0166 42.5244C31.5463 42.5244 32.0543 42.314 32.4288 41.9395C32.8033 41.5649 33.0137 41.0569 33.0137 40.5273C33.0137 39.9976 32.8033 39.4896 32.4288 39.1151C32.0543 38.7405 31.5463 38.5301 31.0166 38.5301C30.4869 38.5301 29.9789 38.7405 29.6044 39.1151C29.2299 39.4896 29.0195 39.9976 29.0195 40.5273C29.0195 41.0569 29.2299 41.5649 29.6044 41.9395Z" fill="white"></path><path d="M41.9302 30.3817L41.9366 30.3861L42.1418 30.5273L42.1799 30.5535L42.2061 30.5915L42.3473 30.7968L42.3517 30.8032L42.3557 30.8099L42.3567 30.8115L42.3693 30.8294L42.3703 30.8308L42.3702 30.8308L42.4343 30.9231L42.4367 30.9266L42.4367 30.9266C42.7932 31.4595 43.1422 31.9975 43.4835 32.5403C44.306 33.8417 45.08 35.1731 45.8039 36.5318L45.8043 36.5326C46.5941 38.027 47.3576 39.6727 47.7771 41.1323L41.9302 30.3817ZM41.9302 30.3817L41.9235 30.3777M41.9302 30.3817L41.9235 30.3777M41.9235 30.3777L41.9219 30.3767L41.9039 30.364L41.9039 30.364M41.9235 30.3777L41.9039 30.364M41.9039 30.364L41.9001 30.3615M41.9039 30.364L41.9001 30.3615M41.9001 30.3615L41.8069 30.2984L41.8055 30.2974M41.9001 30.3615L41.8055 30.2974M41.8055 30.2974L41.4553 30.0639L41.4547 30.0635M41.8055 30.2974L41.4547 30.0635M41.4547 30.0635C41.1519 29.863 40.7182 29.5804 40.1929 29.2498L40.1929 29.2497M41.4547 30.0635L40.1929 29.2497M40.1929 29.2497C39.1438 28.5897 37.7108 27.7257 36.1998 26.928L40.1929 29.2497ZM37.6915 46.6213L37.6923 46.6212C37.7048 46.6205 37.7172 46.6198 37.7295 46.6189L26.1135 35.0029C26.1126 35.0152 26.1119 35.0276 26.1112 35.04C26.0826 35.5601 26.1778 36.3335 26.656 37.3878C27.2238 38.6368 28.329 40.2772 30.3926 42.3408C32.4563 44.4044 34.0967 45.5097 35.3447 46.0765L37.6915 46.6213ZM37.6915 46.6213C37.1742 46.6515 36.4002 46.5557 35.3447 46.0765L37.6915 46.6213ZM29.4476 27.5257C29.3513 27.5229 29.2552 27.5362 29.1633 27.5652C27.9055 28.8306 27.3924 30.0441 27.1815 30.9008C27.1067 31.1993 27.0597 31.5041 27.0412 31.8112L27.2908 31.8263C27.293 31.7892 27.2957 31.7522 27.2988 31.7152M29.4476 27.5257L27.2988 31.7152M29.4476 27.5257C29.7592 27.5191 30.2083 27.5859 30.7967 27.7563C31.9669 28.0924 33.4036 28.7458 34.8412 29.5037C36.1343 30.1938 37.4015 30.9314 38.64 31.7152L29.4476 27.5257ZM27.2988 31.7152L41.0181 45.4346C41.2718 45.4132 41.5233 45.3711 41.7702 45.3086L41.7721 45.3081C42.5786 45.1107 43.7312 44.6287 44.9447 43.4393C44.9502 43.4086 44.9565 43.3579 44.9587 43.2811C44.9635 43.0033 44.9035 42.5815 44.7369 42.0062L44.7367 42.0057C44.4077 40.8603 43.7638 39.4415 43.0076 38.0098L43.0076 38.0098C42.2603 36.5939 41.442 35.2356 40.8067 34.2267C40.4895 33.7237 40.2214 33.3093 40.0323 33.0229C40.0095 32.9889 39.9889 32.9578 39.9699 32.9291C39.946 32.893 39.9246 32.8608 39.9047 32.8315C39.4427 32.524 38.9767 32.2224 38.5069 31.9268L38.5063 31.9264C37.2731 31.1461 36.0115 30.4116 34.724 29.7245C33.2914 28.9693 31.8729 28.3256 30.7277 27.9966L30.7272 27.9965C30.151 27.8296 29.7291 27.7698 29.4529 27.7756L29.4403 27.7759L29.4403 27.7756C29.391 27.7741 29.3417 27.7787 29.2936 27.789C28.1046 29.0023 27.6226 30.1549 27.4242 30.9606L27.424 30.9616C27.362 31.2091 27.3201 31.4611 27.2988 31.7152ZM29.3869 24.6142C30.1095 24.5984 30.8757 24.7476 31.601 24.9562L29.3869 24.6142ZM29.3869 24.6142C28.6714 24.6281 27.7978 24.8113 27.1233 25.4858C25.4457 27.1634 24.6827 28.8695 24.3535 30.2046M29.3869 24.6142L47.7771 41.1323C47.9857 41.8577 48.1349 42.6239 48.1191 43.3465C48.1052 44.062 47.922 44.9356 47.2476 45.61C45.5704 47.2872 43.8656 48.0513 42.5295 48.3797C42.0254 48.5061 41.51 48.5815 40.991 48.6048C40.8835 48.6933 40.7614 48.7857 40.6237 48.8775C40.0229 49.2849 39.1552 49.6798 38.0112 49.7711C37.153 51.1213 36.0079 52.2665 34.6566 53.1249C33.2691 54.0063 31.7002 54.5626 30.0674 54.752C28.4345 54.9415 26.78 54.7592 25.2275 54.2188C23.6751 53.6785 22.2649 52.7941 21.1026 51.6317C19.9402 50.4694 19.0558 49.0592 18.5154 47.5068C17.9751 45.9543 17.7928 44.2998 17.9822 42.6669C18.1717 41.0341 18.7279 39.4652 19.6094 38.0777C20.4678 36.7265 21.613 35.5813 22.9631 34.7231C23.0536 33.5779 23.4495 32.7094 23.8559 32.1095C23.9481 31.9713 24.0411 31.85 24.1281 31.7436C24.1449 31.3422 24.2027 30.8161 24.3535 30.2046M24.3535 30.2046L24.5962 30.2644L24.3535 30.2046ZM36.1997 26.928C34.7063 26.1393 33.0606 25.3757 31.6011 24.9563L36.1997 26.928ZM23.3317 38.4576C23.4113 38.3781 23.4921 38.3007 23.5742 38.2253C24.3055 40.0447 25.7295 42.1506 28.1561 44.5772C30.3777 46.7988 32.3262 48.1792 34.0355 48.956C34.1952 49.0292 34.3531 49.0966 34.5089 49.1589C33.8834 49.839 33.1404 50.4022 32.3148 50.8211C31.3836 51.2936 30.3664 51.5728 29.3244 51.6417C28.2825 51.7107 27.2374 51.5681 26.2521 51.2225C25.2667 50.8769 24.3615 50.3355 23.5909 49.6308C22.8203 48.9261 22.2003 48.0728 21.7683 47.1222C21.3362 46.1715 21.101 45.1433 21.0768 44.0994C21.0526 43.0555 21.2399 42.0174 21.6275 41.0478C22.015 40.0783 22.5947 39.1972 23.3317 38.4576Z" fill="white" stroke="white" stroke-width="0.5"></path><path d="M18.3068 70.1832C18.3068 71.4391 18.9347 73.3211 18.9347 73.3211C18.9347 73.3211 15.7667 75.1748 14.5409 73.9491C13.3151 72.7233 15.1689 69.5553 15.1689 69.5553C15.1689 69.5553 17.0508 70.1832 18.3068 70.1832Z" fill="white"></path><path d="M26.242 60.0181L26.2418 60.0178C26.0836 59.7774 25.8626 59.5847 25.6029 59.4606C25.3432 59.3364 25.0545 59.2855 24.768 59.3134L19.0884 59.8627C19.1994 59.8422 19.3093 59.8152 19.4177 59.7818C19.8709 59.642 20.2831 59.3936 20.6184 59.0583L21.9196 57.7572C22.4658 57.2109 22.7727 56.47 22.7727 55.6975C22.7727 54.9249 22.4658 54.184 21.9196 53.6378L19.0952 50.8134C18.5489 50.2671 17.808 49.9602 17.0355 49.9602C16.2629 49.9602 15.522 50.2671 14.9758 50.8134L13.6757 52.1135C13.6757 52.1135 13.6756 52.1135 13.6756 52.1136C13.3378 52.451 13.0882 52.8664 12.9487 53.323C12.916 53.4298 12.8897 53.5381 12.8696 53.6473L13.4168 47.9999C13.4168 47.9998 13.4168 47.9998 13.4168 47.9997C13.4448 47.7116 13.3933 47.4213 13.2677 47.1604C13.1421 46.8996 12.9472 46.6782 12.7045 46.5204L12.7043 46.5204C9.80235 44.6367 6.54441 42.9166 3.57516 42.0474C0.736401 41.2146 -2.4934 40.9802 -4.60475 43.0915L-8.09004 46.5768C-8.38661 46.8734 -8.55323 47.2756 -8.55323 47.6951C-8.55323 48.1145 -8.38661 48.5167 -8.09004 48.8133L23.9197 80.823C24.2162 81.1196 24.6185 81.2862 25.0379 81.2862C25.4573 81.2862 25.8596 81.1196 26.1561 80.823L29.6414 77.3377C31.7624 75.2168 31.5713 72.0111 30.746 69.1605L30.746 69.1605C29.887 66.195 28.1617 62.943 26.242 60.0181ZM18.5883 59.9111L18.1384 59.9546L18.1835 59.8869C18.318 59.9044 18.4533 59.9124 18.5883 59.9111ZM12.7755 54.618L12.8217 54.1412C12.8201 54.2837 12.8289 54.4264 12.8483 54.5682L12.7755 54.618ZM16.1824 54.7259L16.1824 54.7257L16.0205 54.2416L17.0355 53.2266L19.5063 55.6975L18.4911 56.7127L18.0062 56.5515L17.927 56.7886L18.0059 56.5514L18.006 56.5514C17.6771 56.4416 17.3212 56.443 16.9931 56.5553C16.6649 56.6677 16.3828 56.8848 16.1902 57.1732L16.0763 57.3438L16.0773 57.3449L14.0746 60.3481L12.2042 60.5288L12.3784 58.7287L15.5775 56.5296C15.5775 56.5296 15.5775 56.5296 15.5776 56.5296C15.8604 56.3353 16.0724 56.0543 16.1815 55.7289C16.2906 55.4035 16.291 55.0515 16.1824 54.7259ZM27.7069 70.0396L27.7069 70.0396C28.4759 72.6927 28.2099 74.2963 27.405 75.1012L25.0379 77.4683L11.3572 63.7876L24.1104 62.5533C25.7184 65.1069 27.0419 67.7433 27.7069 70.0396ZM2.68604 45.0814C4.9931 45.7573 7.63611 47.0805 10.1739 48.6599L8.94441 61.3748L-4.73532 47.6951L-2.36827 45.328C-1.59424 44.554 0.00298511 44.2964 2.68604 45.0814Z" fill="white" stroke="white" stroke-width="0.5"></path><path d="M17.4419 9.03613L28.1919 19.7861" stroke="white" stroke-width="3" stroke-linecap="round" stroke-linejoin="round"></path><path d="M28.1919 9.03613L17.4419 19.7861" stroke="white" stroke-width="3" stroke-linecap="round" stroke-linejoin="round"></path><path d="M36.0479 8.86792C43.4611 8.36128 50.2471 10.3971 55.053 15.203C59.8588 20.0088 61.8946 26.7948 61.388 34.2081" stroke="white" stroke-width="4" stroke-linecap="round" stroke-linejoin="round"></path><path d="M35.2559 19.1624C40.3841 18.3508 44.9223 19.3262 47.9259 22.3299C50.9296 25.3335 51.905 29.8716 51.0934 34.9999" stroke="white" stroke-width="4" stroke-linecap="round" stroke-linejoin="round"></path></g><defs><linearGradient id="paint0_linear_3720_4991" x1="35.688" y1="0" x2="35.688" y2="70" gradientUnits="userSpaceOnUse"><stop stop-color="#921D41"></stop><stop offset="1" stop-color="#1D3792"></stop></linearGradient><clipPath id="clip0_3720_4991"><rect x="0.687988" width="70" height="70" rx="10" fill="white"></rect></clipPath></defs></svg>