<svg xmlns="http://www.w3.org/2000/svg" width="70" height="70" viewBox="0 0 70 70" fill="none"><g clip-path="url(#clip0_3737_4675)"><rect width="70" height="70" rx="10" fill="url(#paint0_linear_3737_4675)"></rect><path d="M32.3573 10.5687C35.9011 10.5687 38.7886 13.4562 38.7886 17C38.7886 20.5438 35.9011 23.4312 32.3573 23.4312C28.7873 23.4312 25.9261 20.5438 25.9261 17C25.9261 13.4562 28.7873 10.5687 32.3573 10.5687ZM46.0073 15.215L49.8923 12.17C50.2336 11.8812 50.3386 11.4087 50.1023 10.9887L46.4273 4.63625C46.3171 4.44674 46.1428 4.30289 45.9358 4.23068C45.7288 4.15847 45.5028 4.16267 45.2986 4.2425L40.7311 6.08C39.7861 5.345 38.7361 4.74125 37.6336 4.26875L36.9248 -0.587502C36.8723 -1.03375 36.4786 -1.375 36.0323 -1.375H28.6824C28.2098 -1.375 27.8423 -1.03375 27.7636 -0.587502L27.0811 4.26875C25.9524 4.74125 24.9286 5.345 23.9836 6.08L19.3898 4.2425C18.9961 4.085 18.4973 4.2425 18.2873 4.63625L14.6123 10.9887C14.5005 11.1783 14.4602 11.4016 14.4987 11.6182C14.5373 11.8349 14.652 12.0306 14.8223 12.17L18.7073 15.215L18.5761 17L18.7073 18.8112L14.8223 21.83C14.653 21.97 14.5388 22.1657 14.5004 22.382C14.4619 22.5984 14.5016 22.8214 14.6123 23.0112L18.2873 29.3638C18.4973 29.7838 18.9961 29.9412 19.3898 29.7838L23.9836 27.92C24.9286 28.655 25.9524 29.285 27.0811 29.7313L27.7636 34.6138C27.8423 35.0338 28.2098 35.375 28.6824 35.375H36.0323C36.4786 35.375 36.8723 35.0338 36.9248 34.6138L37.6336 29.7313C38.7361 29.285 39.7861 28.655 40.7311 27.92L45.2986 29.7838C45.7448 29.9412 46.1911 29.7838 46.4273 29.3638L50.1023 23.0112C50.3386 22.6175 50.2336 22.1187 49.8923 21.83L46.0073 18.8112L46.1386 17L46.0073 15.215ZM8.1811 37.8163C10.4648 37.8163 12.3023 39.6538 12.3023 41.9375C12.3023 44.2212 10.4648 46.085 8.1811 46.085C7.08111 46.085 6.02618 45.648 5.24837 44.8702C4.47056 44.0924 4.0336 43.0375 4.0336 41.9375C4.0336 39.6538 5.89735 37.8163 8.1811 37.8163ZM16.9486 40.7825L19.4948 38.84C19.6786 38.6562 19.7311 38.3413 19.5736 38.0788L17.2111 33.9838C17.0798 33.7213 16.7648 33.6162 16.5023 33.7213L13.5623 34.9025L11.6198 33.7475L11.1211 30.6237C11.0686 30.335 10.8323 30.125 10.5436 30.125H5.8186C5.5036 30.125 5.26735 30.335 5.21485 30.6237L4.79485 33.7475L2.79985 34.9025L-0.192652 33.7213C-0.428902 33.6162 -0.717652 33.7213 -0.875152 33.9838L-3.23765 38.0788C-3.39515 38.3413 -3.3164 38.6562 -3.1064 38.84L-0.612652 40.7825L-0.691402 41.9375L-0.612652 43.0925L-3.1064 45.035C-3.21423 45.1262 -3.28649 45.2525 -3.31049 45.3918C-3.33449 45.531 -3.3087 45.6742 -3.23765 45.7962L-0.875152 49.8912C-0.717652 50.1537 -0.428902 50.2588 -0.192652 50.1538L2.7736 48.9725L4.79485 50.1275L5.21485 53.2512C5.26735 53.54 5.5036 53.75 5.8186 53.75H10.5436C10.8323 53.75 11.0686 53.54 11.1211 53.2512L11.6198 50.1275L13.5623 48.9725L16.5023 50.1538C16.7648 50.2588 17.0798 50.1537 17.2111 49.8912L19.5736 45.7962C19.7311 45.5337 19.6786 45.2188 19.4948 45.035L16.9486 43.0925L17.0273 41.9375L16.9486 40.7825Z" fill="white"></path><path d="M27.5317 42.0371L38.62 53.1254" stroke="white" stroke-width="3" stroke-linecap="round" stroke-linejoin="round"></path><path d="M38.62 42.0371L27.5317 53.1254" stroke="white" stroke-width="3" stroke-linecap="round" stroke-linejoin="round"></path></g><defs><linearGradient id="paint0_linear_3737_4675" x1="35" y1="0" x2="35" y2="70" gradientUnits="userSpaceOnUse"><stop stop-color="#921D41"></stop><stop offset="1" stop-color="#1D3792"></stop></linearGradient><clipPath id="clip0_3737_4675"><rect width="70" height="70" rx="10" fill="white"></rect></clipPath></defs></svg>