<svg xmlns="http://www.w3.org/2000/svg" width="70" height="70" viewBox="0 0 70 70" fill="none"><rect width="70" height="70" rx="10" fill="url(#paint0_linear_3737_4680)"></rect><path d="M52.0906 38.6916C52.3375 34.4249 51.2529 30.1869 48.9866 26.5634C46.7204 22.9399 43.3845 20.1099 39.4401 18.4646C35.4957 16.8193 31.1375 16.44 26.9682 17.3791C22.7988 18.3181 19.0241 20.5292 16.1659 23.7067C13.3077 26.8841 11.5072 30.871 11.0132 35.1162C10.5193 39.3614 11.3563 43.6551 13.4085 47.404C15.4608 51.1528 18.6269 54.1715 22.4693 56.0428C26.3116 57.9141 30.6404 58.5456 34.8572 57.8499M12.2499 30.6249H50.7499M12.2499 44.3749H37.2291" stroke="white" stroke-width="4" stroke-linecap="round" stroke-linejoin="round"></path><path d="M30.3541 16.875C26.4934 23.0616 24.4467 30.2076 24.4467 37.5C24.4467 44.7924 26.4934 51.9384 30.3541 58.125M32.6458 16.875C37.9464 25.3679 39.6812 34.8783 37.8479 44.375" stroke="white" stroke-width="4" stroke-linecap="round" stroke-linejoin="round"></path><path d="M43.5316 47.0371L54.6199 58.1254" stroke="white" stroke-width="3" stroke-linecap="round" stroke-linejoin="round"></path><path d="M54.6199 47.0371L43.5316 58.1254" stroke="white" stroke-width="3" stroke-linecap="round" stroke-linejoin="round"></path><defs><linearGradient id="paint0_linear_3737_4680" x1="35" y1="0" x2="35" y2="70" gradientUnits="userSpaceOnUse"><stop stop-color="#921D41"></stop><stop offset="1" stop-color="#1D3792"></stop></linearGradient></defs></svg>