<svg xmlns="http://www.w3.org/2000/svg" width="70" height="70" viewBox="0 0 70 70" fill="none"><g clip-path="url(#clip0_3737_4663)"><rect width="70" height="70" rx="10" fill="url(#paint0_linear_3737_4663)"></rect><g clip-path="url(#clip1_3737_4663)"><path d="M2.55938 32.6753L-5.14469 46.0191M3.92323 48.2892L2.04331 41.2732M2.04331 41.2732L9.05928 39.3933M2.04331 41.2732L45.4108 66.3115M52.5988 61.5656L44.8947 74.9094M38.3948 68.1914L45.4108 66.3115M45.4108 66.3115L43.5309 59.2955M37.4981 29.9402L41.8483 22.4054M43.4472 51.8339C43.8175 52.0487 44.2365 52.1654 44.6646 52.1731C45.0926 52.1807 45.5155 52.0791 45.8933 51.8777C46.2711 51.6764 46.5913 51.382 46.8236 51.0224C47.0559 50.6628 47.1926 50.2499 47.2208 49.8227L49.6127 14.3242C49.6504 13.7666 49.531 13.2095 49.268 12.7163C49.005 12.2231 48.609 11.8135 48.1249 11.534C47.6409 11.2545 47.0881 11.1164 46.5295 11.1352C45.9709 11.1541 45.4287 11.3292 44.9646 11.6407L15.418 31.4613C15.0628 31.6998 14.7741 32.0248 14.5793 32.4057C14.3844 32.7866 14.2898 33.2108 14.3043 33.6384C14.3188 34.066 14.442 34.4829 14.6622 34.8497C14.8824 35.2165 15.1924 35.5212 15.563 35.735L43.4472 51.8339Z" stroke="white" stroke-width="4" stroke-linecap="round" stroke-linejoin="round"></path><path d="M33.1965 37.3907C32.9754 37.263 32.814 37.0527 32.7479 36.806C32.6817 36.5592 32.7164 36.2964 32.8441 36.0752C32.9718 35.854 33.1821 35.6926 33.4288 35.6265C33.6755 35.5604 33.9384 35.595 34.1596 35.7227M33.1965 37.3907C33.4177 37.5184 33.6806 37.553 33.9273 37.4869C34.174 37.4208 34.3843 37.2594 34.512 37.0382C34.6397 36.817 34.6743 36.5542 34.6082 36.3075C34.5421 36.0608 34.3807 35.8504 34.1596 35.7227" stroke="white" stroke-width="4"></path></g><path d="M-13.5938 31.8755V43.1255M-7.03125 41.2505L-10.7812 37.5005M-10.7812 37.5005L-7.03125 33.7505M-10.7812 37.5005H25.7812M28.5938 31.8755V43.1255M22.0312 41.2505L25.7812 37.5005M25.7812 37.5005L22.0312 33.7505M7.5 17.3911V11.0386M19.2544 29.063C19.5669 29.0636 19.8745 28.9844 20.148 28.833C20.4214 28.6816 20.6517 28.4629 20.8171 28.1977C20.9825 27.9324 21.0774 27.6294 21.093 27.3172C21.1087 27.005 21.0444 26.694 20.9062 26.4136L9.45938 3.09422C9.27962 2.72783 9.00073 2.41919 8.65438 2.20333C8.30804 1.98747 7.90811 1.87305 7.5 1.87305C7.09189 1.87305 6.69196 1.98747 6.34562 2.20333C5.99927 2.41919 5.72038 2.72783 5.54062 3.09422L-5.90625 26.4136C-6.04381 26.6941 -6.10768 27.0049 -6.09183 27.3169C-6.07598 27.6289 -5.98094 27.9317 -5.81567 28.1968C-5.65039 28.4618 -5.42033 28.6805 -5.14717 28.832C-4.87401 28.9836 -4.56676 29.063 -4.25438 29.063H19.2544Z" stroke="#202124" stroke-width="0.9375" stroke-linecap="round" stroke-linejoin="round"></path><path d="M7.5 23.6719C7.31352 23.6719 7.13468 23.5978 7.00282 23.4659C6.87095 23.3341 6.79688 23.1552 6.79688 22.9688C6.79688 22.7823 6.87095 22.6034 7.00282 22.4716C7.13468 22.3397 7.31352 22.2656 7.5 22.2656M7.5 23.6719C7.68648 23.6719 7.86532 23.5978 7.99718 23.4659C8.12905 23.3341 8.20312 23.1552 8.20312 22.9688C8.20312 22.7823 8.12905 22.6034 7.99718 22.4716C7.86532 22.3397 7.68648 22.2656 7.5 22.2656" stroke="#202124" stroke-width="0.9375"></path></g><defs><linearGradient id="paint0_linear_3737_4663" x1="35" y1="0" x2="35" y2="70" gradientUnits="userSpaceOnUse"><stop stop-color="#921D41"></stop><stop offset="1" stop-color="#1D3792"></stop></linearGradient><clipPath id="clip0_3737_4663"><rect width="70" height="70" rx="10" fill="white"></rect></clipPath><clipPath id="clip1_3737_4663"><rect width="70" height="70" fill="white" transform="translate(-1 1)"></rect></clipPath></defs></svg>