<svg xmlns="http://www.w3.org/2000/svg" width="106" height="99" viewBox="0 0 106 99" fill="none"><g clip-path="url(#clip0_1_1540)"><path d="M20.9548 98.5001C20.4643 98.5001 20.001 98.3063 19.674 97.9465C19.3198 97.5866 19.1291 97.1436 19.1291 96.6453C19.1291 96.147 19.3198 95.6764 19.674 95.3442L30.3013 84.5476L23.3255 77.4606L3.16093 97.9465C2.80669 98.3063 2.34345 98.5001 1.88021 98.5001C1.41697 98.5001 0.926484 98.3063 0.599492 97.9465C0.24525 97.5866 0.0545044 97.1436 0.0545044 96.6453C0.0545044 96.147 0.24525 95.6764 0.599492 95.3442L20.764 74.8583L19.8103 73.8617C19.4833 73.5295 19.2653 73.0312 19.2653 72.5606C19.2653 72.09 19.456 71.5916 19.8103 71.2594L26.1594 64.8092L25.9686 64.4493C17.0854 47.7007 20.0828 26.6335 33.2987 13.2346C41.2828 5.01255 51.9918 0.500122 63.382 0.500122C74.7722 0.500122 85.4812 5.01255 93.5471 13.1792C110.169 30.0662 110.169 57.5561 93.5471 74.4431C85.4812 82.6374 74.7722 87.1222 63.382 87.1222C56.2972 87.1222 49.2668 85.3227 43.0812 81.9176L42.727 81.7239L36.4051 88.1188C36.0509 88.4787 35.5877 88.6724 35.1244 88.6724C34.6612 88.6724 34.1707 88.4787 33.8437 88.1464L32.8627 87.1498L22.2355 97.9188C21.8812 98.2786 21.4453 98.4724 20.9548 98.4724V98.5001ZM23.6252 72.5329L35.1244 84.2154L39.5116 79.7583L38.9666 79.3707C36.9229 77.9035 34.9882 76.2702 33.217 74.4707C31.473 72.699 29.8653 70.7335 28.3938 68.6018L28.0123 68.0481L23.5979 72.5329H23.6252ZM63.382 4.23741C52.9455 4.23741 43.163 8.36227 35.8057 15.8092C28.4483 23.2837 24.4154 33.2222 24.4154 43.825C24.4154 54.4278 28.4756 64.3662 35.8057 71.8408C43.163 79.3154 52.9728 83.4402 63.382 83.4402C73.7913 83.4402 83.601 79.3154 90.9584 71.8408C98.3157 64.3662 102.349 54.4278 102.349 43.825C102.349 33.2222 98.2884 23.2837 90.9584 15.8092C83.601 8.33459 73.8185 4.23741 63.382 4.23741V4.23741Z" fill="#FF0000"></path><path d="M63.382 78.125C54.3625 78.125 45.8607 74.5538 39.5116 68.1035C33.1352 61.6255 29.6473 53.0159 29.6473 43.8527C29.6473 34.6894 33.1625 26.0521 39.5116 19.6018C45.8879 13.1239 54.3625 9.58035 63.382 9.58035C72.4015 9.58035 80.9033 13.1515 87.2524 19.6018C90.0319 22.4256 92.2936 25.6922 93.9558 29.2911C94.1738 29.734 94.1738 30.2323 94.0103 30.703C93.8468 31.1736 93.5198 31.5335 93.0838 31.7549C92.8386 31.8657 92.5661 31.9487 92.2936 31.9487C91.5851 31.9487 90.9311 31.5335 90.6313 30.8691C89.1599 27.6578 87.1434 24.751 84.6365 22.2318C78.9686 16.4736 71.3933 13.29 63.3547 13.29C55.3162 13.29 47.7409 16.4736 42.073 22.2318C36.4051 27.99 33.2715 35.686 33.2715 43.8527C33.2715 52.0193 36.4051 59.7154 42.073 65.4736C47.7409 71.2318 55.3162 74.4154 63.3547 74.4154C71.3933 74.4154 78.9686 71.2318 84.6365 65.4736C88.1789 61.8747 90.7948 57.39 92.2118 52.5453C92.4298 51.7702 93.1655 51.2165 93.9558 51.2165C94.1193 51.2165 94.2828 51.2165 94.4735 51.2996C94.964 51.438 95.3455 51.7425 95.5635 52.1854C95.7815 52.6284 95.836 53.1267 95.6997 53.5973C94.1193 59.051 91.1763 64.0617 87.1979 68.1035C80.8216 74.5815 72.347 78.125 63.3275 78.125H63.382Z" fill="#FF0000"></path><path d="M57.3054 41.638C56.7059 41.638 56.1609 41.3335 55.8612 40.8075C55.3979 40.0046 55.6432 38.9527 56.4607 38.4544L61.3383 35.5199C61.6108 35.3538 61.9105 35.2708 62.2103 35.2708C62.8098 35.2708 63.3548 35.5753 63.6545 36.1013C63.8725 36.4888 63.9542 36.9595 63.8452 37.4024C63.7362 37.8453 63.4637 38.2052 63.0823 38.4544L58.2046 41.3888C57.9321 41.5549 57.6324 41.638 57.3326 41.638H57.3054Z" fill="#340458"></path><path d="M70.7666 64.5046C70.1671 64.5046 69.5676 64.4216 68.9954 64.2832C67.5511 63.9233 66.2704 63.0928 65.3167 61.9024L65.017 61.5425L63.1095 62.7052C62.837 62.8713 62.5373 62.9544 62.2375 62.9544C61.638 62.9544 61.0931 62.6498 60.7933 62.1239L57.3054 56.1719C56.8694 55.4244 57.0601 54.4278 57.7686 53.9018L58.1774 53.5973L57.4416 52.3239C56.4879 50.7182 55.0164 49.4171 53 48.4481C50.7383 47.3685 48.8308 45.6521 47.4956 43.4651C45.6699 40.503 45.0977 36.9318 45.9152 33.4159C46.7054 29.9278 48.7763 26.9657 51.7193 25.1385C53.7902 23.8374 56.1609 23.1453 58.5861 23.1453C59.6216 23.1453 60.6843 23.2837 61.7198 23.5329C65.1532 24.3911 68.0416 26.5504 69.8401 29.651C71.2298 32.0318 71.8565 34.7724 71.6386 37.5131C71.4751 39.4233 71.9928 41.4442 73.1373 43.382L73.655 44.2679L74.1182 44.0465C74.3362 43.9357 74.6087 43.8804 74.854 43.8804C74.9902 43.8804 75.1265 43.8804 75.2627 43.9357C75.6987 44.0465 76.0802 44.3233 76.2982 44.7109L79.7861 50.6628C80.0041 51.0504 80.0859 51.521 79.9769 51.964C79.8679 52.4069 79.5954 52.7668 79.2139 53.0159L77.3064 54.1787L77.4699 54.6216C78.0422 56.0611 78.1512 57.5837 77.7697 59.051C77.3064 60.9335 76.1347 62.5114 74.4997 63.508C73.3825 64.1724 72.129 64.5323 70.8483 64.5323L70.7666 64.5046ZM67.8509 59.7984L68.5049 60.2967C68.9136 60.6013 69.3496 60.8227 69.8401 60.9335C70.1398 61.0165 70.4668 61.0442 70.7666 61.0442C71.4478 61.0442 72.1018 60.8504 72.7013 60.4905C73.5733 59.9645 74.1727 59.134 74.418 58.1374C74.527 57.6391 74.5542 57.1408 74.4997 56.6425L74.3907 55.812L67.8509 59.7431V59.7984ZM61.0658 55.8397L62.8098 58.8295L75.944 50.8843L74.2 47.8945L61.0658 55.8397V55.8397ZM58.5316 26.5504C56.7604 26.5504 54.9892 27.0764 53.4632 28.0453C51.3105 29.4018 49.7846 31.5888 49.1851 34.1911C48.5856 36.7933 48.9943 39.451 50.3568 41.638C51.3378 43.2436 52.7547 44.5171 54.4442 45.3199C57.0329 46.5657 59.0766 48.3651 60.3573 50.5521L61.1203 51.8532L70.7393 46.0397L70.2216 45.1261C68.7229 42.5792 68.0416 39.8385 68.2596 37.2363C68.4231 35.1877 67.9599 33.1668 66.9244 31.395C65.5892 29.0973 63.4365 27.4917 60.9023 26.8826C60.1393 26.6888 59.3491 26.6058 58.5861 26.6058L58.5316 26.5504Z" fill="#340458"></path></g><defs><clipPath id="clip0_1_1540"><rect width="106" height="98" fill="white" transform="translate(0 0.500122)"></rect></clipPath></defs></svg>