<svg xmlns="http://www.w3.org/2000/svg" width="160" height="97" viewBox="0 0 160 97" fill="none"><g clip-path="url(#clip0_1_1510)"><path d="M157.77 82.0472H146.651V39.8462C146.651 39.0393 145.971 38.3534 145.171 38.3534C144.371 38.3534 143.691 39.0393 143.691 39.8462V82.0472H138.012V45.1314C138.012 44.3245 137.332 43.6386 136.532 43.6386C135.732 43.6386 135.052 44.3245 135.052 45.1314V82.0472H24.9464V11.4432H135.052V14.5498C135.052 15.3567 135.732 16.0426 136.532 16.0426C137.332 16.0426 138.012 15.3567 138.012 14.5498V9.95047C138.012 9.14356 137.332 8.4577 136.532 8.4577H23.4666C22.6667 8.4577 21.9867 9.14356 21.9867 9.95047V82.0472H16.3075V10.5153C16.3075 6.56148 19.5071 3.37421 23.3866 3.37421H136.572C140.492 3.37421 143.651 6.60182 143.651 10.5153V20.2385C143.651 21.0454 144.331 21.7312 145.131 21.7312C145.931 21.7312 146.611 21.0454 146.611 20.2385V10.5153C146.611 4.90733 142.092 0.348328 136.532 0.348328H23.4266C17.8673 0.348328 13.3478 4.90733 13.3478 10.5153V82.0472H2.22923C1.7093 82.0472 1.22936 82.3296 0.98939 82.7331C0.709425 83.1769 0.66943 83.7013 0.9094 84.1855C4.58894 91.7704 12.348 96.6521 20.7069 96.6521H139.332C147.691 96.6521 155.45 91.7704 159.129 84.1855C159.369 83.7013 159.329 83.1769 159.049 82.7331C158.769 82.2893 158.29 82.0472 157.81 82.0472H157.77ZM153.97 86.7272C150.331 91.1248 144.971 93.6666 139.332 93.6666H20.7069C15.0676 93.6666 9.70829 91.1248 6.06875 86.7272L4.66893 85.0327H62.3416V88.4217C62.3416 89.2286 63.0216 89.9145 63.8215 89.9145C64.6214 89.9145 65.3013 89.2286 65.3013 88.4217V85.0327H94.6976V88.4217C94.6976 89.2286 95.3775 89.9145 96.1774 89.9145C96.9773 89.9145 97.6572 89.2286 97.6572 88.4217V85.0327H155.33L153.93 86.7272H153.97Z" fill="#FF0000"></path><path d="M54.745 30.5665L57.3846 32.5031C57.8646 32.8662 58.0645 33.4713 57.8646 34.0362C57.6246 34.8027 58.0245 35.65 58.8244 35.9324C58.9844 35.9727 59.1444 36.0131 59.2644 36.0131C59.9043 36.0131 60.4642 35.6096 60.6642 34.9641C61.2241 33.1486 60.6242 31.212 59.1044 30.0823L56.4647 28.1458C55.9448 27.7827 55.7848 27.2178 55.9448 26.6127C56.0248 26.3706 56.3048 25.6847 57.2246 25.6847H60.5042C62.384 25.6847 64.0238 24.4744 64.6237 22.6588L65.6236 19.5119C65.8236 18.9068 66.3035 18.584 66.9034 18.584C67.5034 18.584 67.9833 18.9471 68.1833 19.5119L69.1831 22.6588C69.7831 24.4744 71.4229 25.6847 73.3026 25.6847H76.5822C77.5021 25.6847 77.7821 26.4109 77.862 26.6127C78.062 27.2178 77.862 27.7827 77.3821 28.1458L74.7424 30.0823C73.2226 31.212 72.5827 33.1486 73.1826 34.9641L74.1825 38.111C74.4625 38.9986 73.8625 39.4828 73.6626 39.6441C73.3426 39.8862 73.0627 39.9266 72.8627 39.9266L72.3427 39.8459L69.4231 37.7076C68.6632 37.1831 67.7833 36.8603 66.9034 36.8603C66.7035 36.8603 66.5035 36.8603 66.3035 36.9007C65.9036 36.941 65.5436 37.1427 65.3036 37.4655C65.0637 37.7883 64.9437 38.1917 65.0237 38.5548C65.1037 39.281 65.7436 39.8459 66.4635 39.8459H66.8634H67.3834L70.303 41.9842C71.0629 42.549 71.9428 42.8314 72.8627 42.8314C73.7826 42.8314 74.6624 42.549 75.4224 41.9842C76.9822 40.8545 77.5821 38.9179 76.9822 37.1024L75.9823 33.9555C75.7823 33.3906 75.9823 32.7451 76.4622 32.4224L79.1019 30.4858C80.6617 29.3561 81.2616 27.4196 80.6617 25.604C80.0618 23.7885 78.462 22.5782 76.5422 22.5782H73.2626C72.6627 22.5782 72.1428 22.2151 71.9828 21.6502L70.9829 18.5033C70.383 16.6878 68.7832 15.4774 66.8634 15.4774C64.9437 15.4774 63.3439 16.6474 62.744 18.5033L61.7441 21.6502C61.5441 22.2151 61.0242 22.5782 60.4642 22.5782H57.1847C55.2649 22.5782 53.6651 23.7482 53.0652 25.604C52.4652 27.4196 53.0652 29.3561 54.625 30.4858L54.745 30.5665Z" fill="#340458"></path><path d="M134.134 22.4574C130.015 22.4574 126.655 25.6043 126.295 29.7598L126.215 30.5264L104.978 34.803L104.618 34.1171C103.218 31.4543 100.578 29.8002 97.6586 29.8002C93.2992 29.8002 89.7396 33.3909 89.7396 37.7885C89.7396 39.6444 90.3796 41.4196 91.6194 42.9123L92.0993 43.5175L82.3006 58.4452L81.5807 58.2031C80.7008 57.9207 79.9809 57.7997 79.261 57.7997C77.6212 57.7997 76.0614 58.3242 74.7015 59.2925L74.0616 59.7363L73.4617 59.2521C69.9021 56.428 65.5827 52.9583 62.0231 50.0938L61.4232 49.6096L61.7432 48.8834C62.1831 47.8748 62.3831 46.8258 62.3831 45.7365C62.3831 41.3389 58.8235 37.7482 54.4641 37.7482C50.1046 37.7482 46.5451 41.3389 46.5451 45.7365C46.5451 47.552 47.185 49.2869 48.3849 50.7796L48.8648 51.3445L48.4649 51.99C46.6251 54.8545 44.5453 58.0821 42.7056 60.9466L42.3056 61.5921L41.5857 61.3904C40.7458 61.1483 40.0259 61.0273 39.346 61.0273C34.9866 61.0273 31.427 64.618 31.427 69.0156C31.427 73.4133 34.9866 77.004 39.346 77.004L39.9859 76.9233C40.4259 76.9233 40.9058 76.8022 41.4657 76.6409C41.9057 76.5198 42.3056 76.3584 42.8656 76.1164C43.2655 75.9147 43.6255 75.7129 44.1454 75.3095C44.4654 75.0674 44.7853 74.785 45.0653 74.4622L45.2653 74.2202C45.5052 73.9377 45.7852 73.615 46.0652 73.1308L46.2251 72.8484C46.3851 72.566 46.5451 72.2836 46.6651 71.9608C46.7051 71.8398 46.7451 71.6784 46.7851 71.5574L46.945 70.9925C46.945 70.9925 47.065 70.6698 47.105 70.5084C47.225 69.9839 47.265 69.4594 47.265 68.9349C47.265 68.4105 47.225 67.9263 47.105 67.4018C47.105 67.3211 47.065 67.2404 46.945 66.9177C46.8651 66.5949 46.7851 66.2722 46.6651 65.9898C46.6251 65.8687 46.5451 65.7477 46.3851 65.4249C46.2651 65.1828 46.1451 64.9004 45.9852 64.6584C45.8652 64.4566 45.7452 64.2953 45.5852 64.0935L45.3053 63.7304L44.7853 63.1253L45.1853 62.4797C46.985 59.6556 49.0248 56.4683 50.8645 53.6845L51.3445 53.039L52.1044 53.281L52.4244 53.3617C52.7843 53.4424 53.1443 53.5231 53.5042 53.5635C53.7042 53.5635 53.8642 53.6038 54.0641 53.6038H54.5041C54.5041 53.6038 54.904 53.6038 55.064 53.6038L55.7039 53.5231C56.2639 53.4424 56.8238 53.281 57.3437 53.0793C57.9437 52.8372 58.4636 52.5548 58.9435 52.2724L59.5835 51.8286L60.1834 52.3128C63.7429 55.1773 68.1024 58.6469 71.6619 61.5114L72.2618 62.0359L71.9419 62.7621C71.7819 63.2059 71.6219 63.6497 71.5419 64.1339C71.422 64.6584 71.382 65.1828 71.382 65.667C71.382 70.0646 74.9415 73.6553 79.301 73.6553C83.6604 73.6553 87.22 70.0646 87.22 65.667C87.22 65.1425 87.18 64.6584 87.06 64.1339L86.94 63.6497C86.86 63.327 86.78 63.0042 86.66 62.6815C86.62 62.5604 86.58 62.4394 86.4201 62.157C86.3001 61.8745 86.1401 61.5921 85.9801 61.3501C85.8601 61.1887 85.7401 61.0273 85.6602 60.8659L85.3802 60.4625L84.8603 59.8573L94.619 45.0103L95.3389 45.2524L96.2588 45.4541C96.7388 45.5348 97.2187 45.6155 97.6986 45.6155C98.2186 45.6155 98.7385 45.5751 99.4984 45.3734L99.8184 45.2927C100.138 45.212 100.418 45.1313 100.738 45.0103C100.858 44.9699 101.418 44.6472 101.418 44.6472C101.658 44.5261 101.858 44.4455 102.058 44.2841C102.178 44.2034 102.658 43.8403 102.658 43.8403C102.858 43.6789 103.058 43.5175 103.218 43.3561C103.338 43.2351 103.418 43.1544 103.498 43.0334L103.658 42.8317C103.658 42.8317 104.018 42.4282 104.178 42.2265C104.258 42.1054 104.338 41.9441 104.538 41.6616C104.658 41.4196 104.818 41.1775 104.938 40.9354C105.018 40.7741 105.098 40.5723 105.178 40.2899C105.258 40.0075 105.378 39.7654 105.418 39.483C105.458 39.2409 105.498 39.0392 105.538 38.7971L105.618 38.3533L105.698 37.5464L126.095 33.4312L126.895 33.3102L127.255 33.9961L127.415 34.2381C127.615 34.6013 127.855 34.8837 128.175 35.3678C128.255 35.4888 128.335 35.6099 128.455 35.6906C129.295 36.5782 130.295 37.264 131.534 37.7482C132.054 37.9499 132.614 38.0709 133.294 38.1516H133.774C133.774 38.1516 134.054 38.2323 134.174 38.2323C138.533 38.2323 142.093 34.6416 142.093 30.244C142.093 25.8464 138.533 22.2556 134.174 22.2556L134.134 22.4574ZM44.1054 70.0243C44.0654 70.2663 43.9854 70.4681 43.8254 70.9119C43.1455 72.6063 41.5057 73.8167 39.626 73.9781H39.226C36.5064 74.0184 34.2666 71.7994 34.2666 69.0156C34.2666 66.2318 36.5064 64.0128 39.226 64.0128C40.1459 64.0128 41.0658 64.2953 41.9057 64.8197L42.0257 64.9004C42.3056 65.1022 42.5856 65.3442 42.8656 65.667C43.0655 65.9091 43.2655 66.1915 43.4655 66.4739L43.6255 66.716C43.7454 66.958 43.8654 67.2404 43.9454 67.5229L44.0254 67.8053C44.1054 68.2087 44.1854 68.5718 44.1854 68.9349C44.1854 69.2577 44.1854 69.5805 44.1054 69.9032V70.0243ZM58.2636 48.8834L58.1036 49.0448C57.1838 50.0938 55.8239 50.7393 54.3441 50.7393C53.3442 50.7393 52.3844 50.4569 51.5845 49.892C50.2246 48.9641 49.4247 47.431 49.4247 45.7768C49.4247 43.0334 51.6644 40.7741 54.3841 40.7741C57.1038 40.7741 59.3435 43.0334 59.3435 45.7768C59.3435 46.9065 58.9435 47.9958 58.2236 48.9238L58.2636 48.8834ZM79.221 70.7908C76.5013 70.7908 74.2616 68.5315 74.2616 65.788C74.2616 64.497 74.7815 63.4884 75.2615 62.8428L75.3815 62.6815C76.3413 61.4711 77.7412 60.8256 79.221 60.8256C80.1809 60.8256 81.1407 61.108 81.9406 61.6728C82.2606 61.8746 82.5406 62.1166 82.8205 62.399L82.9805 62.6008C83.1805 62.8025 83.3405 63.0446 83.4604 63.2866L83.6204 63.6094C83.7404 63.8515 83.8204 64.0935 83.9404 64.4163L84.0204 64.6584C84.1004 65.0618 84.1404 65.4249 84.1404 65.788C84.1404 68.5315 81.9006 70.7908 79.181 70.7908H79.221ZM97.5787 42.7913C97.1787 42.7913 96.7788 42.751 96.2588 42.5896L95.9789 42.5089C95.5389 42.3475 95.139 42.1861 94.819 41.9441C93.4192 41.0161 92.5793 39.4427 92.5793 37.7885C92.5793 35.045 94.819 32.7857 97.5387 32.7857C99.8984 32.7857 101.938 34.4802 102.378 36.7799V36.9816C102.458 37.2237 102.458 37.5061 102.458 37.7885C102.458 40.532 100.218 42.7913 97.4987 42.7913H97.5787ZM134.094 35.4485C134.094 35.4485 133.854 35.4485 133.694 35.4485H133.534C133.534 35.4485 133.534 35.4485 133.574 35.4485L133.294 35.3678H133.494C132.454 35.2871 131.534 34.8837 130.694 34.1575C130.375 33.8347 130.055 33.4716 129.695 32.8261C129.455 32.3823 129.295 31.9385 129.175 31.4543C129.095 31.1316 129.095 30.8088 129.095 30.486C129.095 27.7426 131.334 25.4833 134.054 25.4833C136.774 25.4833 139.013 27.7426 139.013 30.486C139.013 33.2295 136.774 35.4888 134.054 35.4888L134.094 35.4485Z" fill="#340458"></path><path d="M125.454 55.4592H122.175C121.575 55.4592 121.055 55.0961 120.895 54.5313L119.895 51.3844C119.295 49.5688 117.695 48.3585 115.776 48.3585C113.856 48.3585 112.256 49.5285 111.656 51.3844L110.656 54.5313C110.496 55.0961 109.976 55.4996 109.376 55.4996H106.097C104.177 55.4996 102.577 56.6696 101.977 58.5255C101.377 60.341 101.977 62.2776 103.537 63.4072L106.177 65.3438C106.657 65.7069 106.857 66.3121 106.657 66.8769L105.657 70.0238C105.057 71.8394 105.657 73.7759 107.217 74.9056C107.977 75.4704 108.856 75.7528 109.776 75.7528C110.696 75.7528 111.576 75.4704 112.336 74.9056L114.976 72.969C115.216 72.8076 115.496 72.7269 115.776 72.7269L116.295 72.8076L119.215 74.9459C119.975 75.5108 120.855 75.7932 121.775 75.7932C122.695 75.7932 123.535 75.5108 124.334 74.9459C125.894 73.8163 126.494 71.8797 125.894 70.0642L124.894 66.9172C124.694 66.3524 124.894 65.7069 125.374 65.3841L128.014 63.4476C129.574 62.3179 130.174 60.3813 129.574 58.5658C128.974 56.7503 127.374 55.5399 125.454 55.5399V55.4592ZM126.254 60.9058L123.615 62.8424C122.095 63.9721 121.455 65.9086 122.055 67.7242L123.095 70.8711C123.375 71.7587 122.775 72.2428 122.615 72.4042C122.375 72.5656 122.095 72.6866 121.815 72.6866L121.295 72.6059L118.375 70.4676C117.615 69.9431 116.735 69.6204 115.856 69.6204C114.976 69.6204 114.056 69.9028 113.296 70.4676L110.616 72.4042C110.616 72.4042 110.256 72.6866 109.816 72.6866L109.296 72.6059L109.016 72.4042C108.496 72.0411 108.336 71.4762 108.536 70.8711L109.536 67.7242C110.096 65.9086 109.496 63.9721 107.977 62.8424L105.337 60.9058C104.817 60.5427 104.657 59.9779 104.817 59.3727C104.897 59.171 105.177 58.4044 106.097 58.4044H109.376C111.256 58.4044 112.896 57.1941 113.496 55.3785L114.496 52.2316C114.696 51.6668 115.176 51.3037 115.776 51.3037C116.375 51.3037 116.855 51.6668 117.055 52.2316L118.055 55.3785C118.655 57.1941 120.295 58.4044 122.175 58.4044H125.454C126.374 58.4044 126.654 59.1306 126.734 59.3324C126.934 59.9375 126.734 60.5024 126.254 60.8655V60.9058Z" fill="#340458"></path></g><defs><clipPath id="clip0_1_1510"><rect width="158.5" height="96.3038" fill="white" transform="translate(0.75 0.348206)"></rect></clipPath></defs></svg>