<svg xmlns="http://www.w3.org/2000/svg" width="108" height="105" viewBox="0 0 108 105" fill="none"><g clip-path="url(#clip0_1_1520)"><path d="M81.1899 0.00012207C66.6867 0.00012207 54.8798 11.8087 54.8798 26.314C54.8798 34.6879 58.7682 42.3805 65.5798 47.4332L65.8637 47.6319C66.2894 47.9442 66.7151 48.228 67.1408 48.5119L67.822 48.9093C68.2194 49.1648 68.6451 49.3918 69.0708 49.6189C69.2979 49.7325 70.0074 50.0731 70.0074 50.0731C70.5183 50.3002 71.0292 50.5557 71.5401 50.7544C72.0793 50.9815 72.6469 51.1802 73.2146 51.3789L74.066 51.606C74.5485 51.7479 75.0594 51.8898 75.5419 52.0034C75.8257 52.0601 76.1379 52.1169 76.4217 52.1737C76.961 52.2872 77.5003 52.344 78.0395 52.4292C78.0395 52.4292 78.6355 52.5143 78.8342 52.5143C79.6005 52.5711 80.3952 52.6279 81.2751 52.6279H81.3034C82.0981 52.6279 82.8928 52.5711 83.6875 52.5143C83.8862 52.5143 84.4538 52.4292 84.4822 52.4292C85.0215 52.3724 85.5607 52.2872 86.1 52.1737C86.3838 52.1169 86.6676 52.0601 86.9798 52.0034C87.4907 51.8898 87.9732 51.7479 88.4841 51.6343L89.3355 51.3789C89.8748 51.2086 90.4141 50.9815 90.9533 50.7828C91.4926 50.5557 92.0318 50.3286 92.7981 49.9596C93.0252 49.846 93.2239 49.7609 93.4225 49.6473C93.8767 49.4202 94.3024 49.1648 94.7849 48.8809L95.3525 48.5403C95.8066 48.2564 96.2324 47.9725 96.6581 47.6603L96.3175 47.2061L96.9135 47.4616C103.697 42.4373 107.585 34.7446 107.585 26.3424C107.585 11.8371 95.7782 0.0285081 81.2751 0.0285081L81.1899 0.00012207ZM94.1889 45.3326L94.1321 45.3894C93.7347 45.6733 93.309 45.9004 92.5995 46.3545C92.2589 46.5532 91.8899 46.7519 91.521 46.9223L91.2939 47.0358V38.6335C91.2939 37.7536 90.556 37.0155 89.6761 37.0155C88.7963 37.0155 88.0584 37.7536 88.0584 38.6335V48.1712V48.3416L87.9164 48.3983C87.3204 48.5687 86.7244 48.739 86.1 48.8525L85.4472 48.9661C84.9647 49.0512 84.4822 49.1364 83.9713 49.1931L83.3186 49.2783C82.6374 49.3351 81.9562 49.3918 81.1899 49.3918C80.4804 49.3918 79.7992 49.3351 79.1464 49.2783L78.4936 49.1931C78.0111 49.1364 77.5003 49.0512 76.8759 48.9377L76.365 48.8525C75.769 48.7106 75.1446 48.5687 74.4918 48.37H74.3782V38.6335C74.3782 37.7536 73.6403 37.0155 72.7605 37.0155C71.8806 37.0155 71.1427 37.7536 71.1427 38.6335V47.0358L70.9156 46.9223C70.5467 46.7519 70.1777 46.5532 69.8371 46.3545L69.4965 46.1558C69.0992 45.9004 68.6735 45.6733 68.2761 45.3894L68.2194 45.3326V36.6181C68.2194 33.1266 71.0576 30.3164 74.5202 30.3164H87.9164C91.4074 30.3164 94.2172 33.155 94.2172 36.6181V45.3326H94.1889ZM97.7082 42.3805L97.4244 42.6644V36.6181C97.4244 31.3383 93.1387 27.052 87.8597 27.052H74.4634C69.1843 27.052 64.8987 31.3383 64.8987 36.6181V42.6644L64.6149 42.3805C60.3859 38.0374 58.087 32.3318 58.087 26.314C58.087 13.597 68.4464 3.23613 81.1615 3.23613C93.8767 3.23613 104.236 13.597 104.236 26.314C104.236 32.3318 101.909 38.0374 97.7082 42.3805V42.3805Z" fill="#340458"></path><path d="M81.1899 9.31076C76.592 9.31076 72.874 13.0577 72.874 17.6279C72.874 22.198 76.6204 25.945 81.1899 25.945C85.7594 25.945 89.5058 22.198 89.5058 17.6279C89.5058 13.0577 85.7594 9.31076 81.1899 9.31076V9.31076ZM81.1899 22.7374C78.3801 22.7374 76.1095 20.4665 76.1095 17.6563C76.1095 14.846 78.3801 12.5752 81.1899 12.5752C83.9997 12.5752 86.2703 14.846 86.2703 17.6563C86.2703 20.4665 83.9997 22.7374 81.1899 22.7374Z" fill="#340458"></path><path d="M42.9594 24.0999H43.896C44.7759 24.0999 45.5138 23.3618 45.5138 22.4819C45.5138 21.6019 44.7759 20.8639 43.896 20.8639H42.9594C42.0796 20.8639 41.3416 21.6019 41.3416 22.4819C41.3416 23.3618 42.0796 24.0999 42.9594 24.0999Z" fill="#340458"></path><path d="M47.6992 45.9287L46.8761 48.5119C46.791 48.739 46.5923 48.8809 46.3653 48.8809H43.669C41.9944 48.8809 40.6037 49.9028 40.0928 51.4924C39.582 53.082 40.0928 54.7284 41.4552 55.6935L43.6406 57.2832C43.8109 57.4251 43.896 57.6522 43.8393 57.8793L43.0162 60.4624C42.5053 62.052 43.0162 63.6984 44.3785 64.6635C45.0313 65.1461 45.7976 65.4016 46.5923 65.4016C47.387 65.4016 48.1533 65.1461 48.8061 64.6635L50.9915 63.0739C50.9915 63.0739 51.1902 62.9604 51.3037 62.9604C51.4172 62.9604 51.5308 62.9888 51.6159 63.0739L53.8013 64.6635C54.4541 65.1461 55.2204 65.4016 56.0151 65.4016C56.8098 65.4016 57.5761 65.1461 58.2289 64.6635C59.5629 63.6984 60.1021 62.0236 59.5912 60.4624L58.7682 57.8793C58.7114 57.6522 58.7682 57.4251 58.9668 57.2832L61.1523 55.6935C62.4862 54.7284 63.0255 53.0536 62.5146 51.4924C62.0037 49.9028 60.5846 48.8809 58.9385 48.8809H56.2422C56.0151 48.8809 55.8164 48.739 55.7313 48.5119L54.9082 45.9287C54.3973 44.3391 52.9783 43.3172 51.3321 43.3172C49.6859 43.3172 48.2668 44.3391 47.756 45.9287H47.6992ZM51.7862 46.9223L52.6093 49.5054C53.1202 51.0666 54.5676 52.1169 56.1854 52.1169H58.8817C59.1371 52.1169 59.3074 52.2304 59.3926 52.4859C59.4777 52.713 59.3926 52.9401 59.1939 53.082L57.0085 54.6716C55.6745 55.6368 55.1353 57.3399 55.6462 58.8728L56.4692 61.4275C56.5544 61.683 56.4692 61.8817 56.2706 62.0236C56.157 62.0804 56.0719 62.1372 55.9584 62.1372C55.8165 62.1372 55.7029 62.052 55.6462 62.0236L53.4607 60.434C52.808 59.9515 52.0416 59.7244 51.2469 59.7244C50.4523 59.7244 49.6859 59.9798 49.0332 60.434L46.8477 62.0236C46.8477 62.0236 46.6775 62.1372 46.5355 62.1372C46.422 62.1372 46.3085 62.1088 46.2233 62.0236C46.0247 61.8817 45.9679 61.683 46.0247 61.4275L46.8477 58.8444C47.3586 57.2832 46.791 55.6084 45.4854 54.6433L43.3 53.0536C43.1013 52.9117 43.0446 52.713 43.1013 52.4575C43.1865 52.2304 43.3568 52.0885 43.6122 52.0885H46.3085C47.9546 52.0885 49.3737 51.0382 49.8846 49.477L50.7077 46.8939C50.7928 46.6668 50.9631 46.5249 51.2186 46.5249C51.474 46.5249 51.6443 46.6384 51.7294 46.8939L51.7862 46.9223Z" fill="#340458"></path><path d="M49.6576 24.0999H50.5942C51.474 24.0999 52.2119 23.3618 52.2119 22.4819C52.2119 21.6019 51.474 20.8639 50.5942 20.8639H49.6576C48.7777 20.8639 48.0398 21.6019 48.0398 22.4819C48.0398 23.3618 48.7777 24.0999 49.6576 24.0999Z" fill="#340458"></path><path d="M46.791 21.2045C47.6708 21.2045 48.4087 20.4665 48.4087 19.5865V18.6497C48.4087 17.7698 47.6708 17.0317 46.791 17.0317C45.9111 17.0317 45.1732 17.7698 45.1732 18.6497V19.5865C45.1732 20.4665 45.9111 21.2045 46.791 21.2045Z" fill="#340458"></path><path d="M48.4087 26.314V25.3773C48.4087 24.4973 47.6708 23.7592 46.791 23.7592C45.9111 23.7592 45.1732 24.4973 45.1732 25.3773V26.314C45.1732 27.194 45.9111 27.932 46.791 27.932C47.6708 27.932 48.4087 27.194 48.4087 26.314Z" fill="#340458"></path><path d="M85.8446 58.3902H84.908C84.0281 58.3902 83.2902 59.1283 83.2902 60.0082C83.2902 60.8882 84.0281 61.6262 84.908 61.6262H85.8446C86.7244 61.6262 87.4623 60.8882 87.4623 60.0082C87.4623 59.1283 86.7244 58.3902 85.8446 58.3902Z" fill="#340458"></path><path d="M88.7111 58.7592C89.591 58.7592 90.3289 58.0212 90.3289 57.1412V56.2045C90.3289 55.3245 89.591 54.5865 88.7111 54.5865C87.8313 54.5865 87.0934 55.3245 87.0934 56.2045V57.1412C87.0934 58.0212 87.8313 58.7592 88.7111 58.7592Z" fill="#340458"></path><path d="M88.7111 61.2856C87.8313 61.2856 87.0934 62.0237 87.0934 62.9036V63.8404C87.0934 64.7203 87.8313 65.4584 88.7111 65.4584C89.591 65.4584 90.3289 64.7203 90.3289 63.8404V62.9036C90.3289 62.0237 89.591 61.2856 88.7111 61.2856Z" fill="#340458"></path><path d="M92.5427 58.3902H91.6061C90.7263 58.3902 89.9883 59.1283 89.9883 60.0082C89.9883 60.8882 90.7263 61.6262 91.6061 61.6262H92.5427C93.4225 61.6262 94.1605 60.8882 94.1605 60.0082C94.1605 59.1283 93.4225 58.3902 92.5427 58.3902Z" fill="#340458"></path><path d="M37.879 70.4827H38.8157C39.6955 70.4827 40.4334 69.7446 40.4334 68.8647C40.4334 67.9847 39.6955 67.2467 38.8157 67.2467H37.879C36.9992 67.2467 36.2613 67.9847 36.2613 68.8647C36.2613 69.7446 36.9992 70.4827 37.879 70.4827Z" fill="#340458"></path><path d="M32.1175 67.2183H31.1809C30.3011 67.2183 29.5631 67.9563 29.5631 68.8363C29.5631 69.7163 30.3011 70.4543 31.1809 70.4543H32.1175C32.9973 70.4543 33.7353 69.7163 33.7353 68.8363C33.7353 67.9563 32.9973 67.2183 32.1175 67.2183Z" fill="#340458"></path><path d="M71.4833 61.3991C71.1711 61.0869 70.7737 60.9166 70.348 60.9166C69.9223 60.9166 69.4965 61.0869 69.2127 61.3991L49.3737 81.241C46.0247 84.5905 41.5687 86.4356 36.8289 86.4356C32.0891 86.4356 27.6332 84.5905 24.2841 81.241C20.935 77.8914 19.0902 73.4348 19.0902 68.6944C19.0902 63.9539 20.935 59.4973 24.2841 56.1477L44.1231 36.3059C44.4353 35.9936 44.6056 35.5962 44.6056 35.1704C44.6056 34.7446 44.4353 34.3188 44.1231 34.035L33.2812 23.1915C32.969 22.8793 32.5716 22.709 32.1459 22.709C31.7202 22.709 31.2944 22.8793 31.0106 23.1915L11.1149 42.9766C4.2748 49.8176 0.5 58.9579 0.5 68.666C0.5 78.374 4.2748 87.5143 11.1149 94.3553C17.9549 101.196 27.0939 104.972 36.8005 104.972C46.5072 104.972 55.6462 101.196 62.4862 94.3553L82.3252 74.5135C82.6374 74.2012 82.8077 73.8038 82.8077 73.3781C82.8077 72.9523 82.6374 72.5265 82.3252 72.2426L71.4833 61.3991V61.3991ZM32.0891 26.5978L40.6605 35.1704L35.8639 39.9393L27.2926 31.3667L32.0891 26.5978ZM60.2157 92.0845C53.9716 98.3294 45.6557 101.764 36.8005 101.764C27.9454 101.764 19.6294 98.3294 13.3854 92.0845C7.14138 85.8395 3.70716 77.5224 3.70716 68.666C3.70716 59.8095 7.14138 51.4924 13.3854 45.2475L24.9936 33.6376L33.565 42.2102L21.9568 53.8201C18.0117 57.7941 15.8263 63.0455 15.8263 68.666C15.8263 74.2864 18.0117 79.5378 21.9568 83.5119C25.9019 87.4859 31.1809 89.6433 36.8005 89.6433C42.4202 89.6433 47.6708 87.4575 51.6443 83.5119L63.2525 71.902L71.8239 80.4746L60.2157 92.0845ZM74.1228 78.1753L65.5515 69.6027L70.348 64.8339L78.9194 73.4064L74.1228 78.1753Z" fill="#FF0000"></path><path d="M35.0125 67.5873C35.8923 67.5873 36.6302 66.8493 36.6302 65.9693V65.0326C36.6302 64.1526 35.8923 63.4146 35.0125 63.4146C34.1326 63.4146 33.3947 64.1526 33.3947 65.0326V65.9693C33.3947 66.8493 34.1326 67.5873 35.0125 67.5873Z" fill="#340458"></path><path d="M35.0125 74.3148C35.8923 74.3148 36.6302 73.5767 36.6302 72.6968V71.76C36.6302 70.8801 35.8923 70.142 35.0125 70.142C34.1326 70.142 33.3947 70.8801 33.3947 71.76V72.6968C33.3947 73.5767 34.1326 74.3148 35.0125 74.3148Z" fill="#340458"></path></g><defs><clipPath id="clip0_1_1520"><rect width="107" height="105" fill="white" transform="translate(0.5 0.00012207)"></rect></clipPath></defs></svg>