<svg xmlns="http://www.w3.org/2000/svg" width="120" height="82" viewBox="0 0 120 82" fill="none"><g clip-path="url(#clip0_1_1588)"><path d="M40.9303 38.4033H47.7419C51.0693 38.4033 54.02 36.2628 55.0558 33.0835L57.159 26.5991C57.8496 24.5216 59.6074 23.7661 61.0514 23.7661C62.4953 23.7661 64.2532 24.5216 64.9437 26.5991L67.0469 33.0835C67.863 35.6333 70.0289 37.6164 72.6029 38.2145L73.011 38.2774C73.8585 38.2774 74.5805 37.7108 74.7689 36.8924C74.863 36.4202 74.7689 35.948 74.5491 35.5388C74.298 35.1296 73.8899 34.8463 73.4191 34.7519C72.0379 34.4371 70.8765 33.3983 70.437 32.0133L68.3339 25.5288C67.298 22.2866 64.4101 20.2091 61.02 20.2091C57.6298 20.2091 54.7733 22.2866 53.7061 25.5288L51.6029 32.0133C51.0693 33.7131 49.4998 34.8463 47.7106 34.8463H40.8989C37.5088 34.8463 34.6523 36.9239 33.585 40.1661C32.5491 43.4083 33.6164 46.7764 36.3787 48.7596L41.9034 52.7573C43.3473 53.796 43.9437 55.6532 43.3787 57.353L41.2756 63.8375C40.2397 67.0797 41.3384 70.4478 44.0693 72.4624C45.4191 73.4382 46.9886 73.9734 48.5895 73.9734C50.1904 73.9734 51.7599 73.4382 53.1097 72.4624L58.6029 68.4333C59.2935 67.9296 60.1411 67.6463 61.02 67.6463C61.8989 67.6463 62.715 67.9296 63.437 68.4333L68.9617 72.4624C70.3115 73.4382 71.8496 73.9419 73.4819 73.9419C75.1141 73.9419 76.6523 73.4382 78.002 72.4624C80.733 70.4478 81.8316 67.0797 80.7958 63.8375L78.6926 57.353C78.4415 56.5661 78.4415 55.7477 78.6612 54.9607C78.9437 54.0164 78.3787 53.0091 77.437 52.7258C77.2801 52.6628 77.1231 52.6628 76.9348 52.6628C76.15 52.6628 75.428 53.1979 75.2083 53.9849C74.8002 55.4644 74.8316 57.0068 75.3025 58.4862L77.4056 64.9707C78.0962 67.0482 77.0917 68.7166 75.9303 69.5665C75.2083 70.1016 74.3608 70.3849 73.5132 70.3849C72.6657 70.3849 71.881 70.1016 71.1276 69.5665L65.6343 65.5373C64.3159 64.5615 62.7464 64.0578 61.1141 64.0578C59.4819 64.0578 57.9124 64.5615 56.594 65.5373L51.1007 69.5665C50.3473 70.1016 49.5626 70.3849 48.715 70.3849C47.8675 70.3849 46.9886 70.1016 46.298 69.5665C45.1366 68.7166 44.1321 67.0797 44.8227 64.9707L46.9258 58.4862C47.9617 55.307 46.8316 51.8444 44.1321 49.8928L38.6388 45.8636C36.881 44.573 36.6926 42.6528 37.1635 41.2678C37.6029 39.8828 38.8585 38.4348 41.0558 38.4348L40.9303 38.4033Z" fill="#340458"></path><path d="M39.8327 26.7565C39.8327 27.7323 40.6488 28.5508 41.6219 28.5508C42.595 28.5508 43.4112 27.7323 43.4112 26.7565V25.5604C43.4112 24.5845 42.595 23.7661 41.6219 23.7661C40.6488 23.7661 39.8327 24.5845 39.8327 25.5604V26.7565Z" fill="#FF0000"></path><path d="M36.8184 23.7661H38.0112C38.9843 23.7661 39.8004 22.9476 39.8004 21.9718C39.8004 20.996 38.9843 20.1776 38.0112 20.1776H36.8184C35.8453 20.1776 35.0291 20.996 35.0291 21.9718C35.0291 22.9476 35.8453 23.7661 36.8184 23.7661Z" fill="#FF0000"></path><path d="M8.59891 6.7365C8.59891 7.55492 9.2581 8.24744 10.1056 8.24744C10.9532 8.24744 11.6124 7.5864 11.6124 6.7365C11.6124 5.88659 10.9532 5.22556 10.1056 5.22556C9.2581 5.22556 8.59891 5.88659 8.59891 6.7365Z" fill="#FF0000"></path><path d="M111.558 58.5176C110.585 58.5176 109.769 59.336 109.769 60.3118V75.3583C109.769 77.0581 108.419 78.4116 106.724 78.4116H7.12332C5.45964 78.4116 4.07848 77.0266 4.07848 75.3583V13.5042H82.5852C83.5583 13.5042 84.3744 12.6857 84.3744 11.7099C84.3744 10.7341 83.5583 9.91567 82.5852 9.91567H4.07848V6.64196C4.07848 4.94216 5.45964 3.58861 7.12332 3.58861H106.724C108.388 3.58861 109.769 4.94216 109.769 6.64196V17.4704C109.769 18.4462 110.585 19.2646 111.558 19.2646C112.531 19.2646 113.348 18.4462 113.348 17.4704V6.64196C113.348 2.95905 110.365 0.00012207 106.724 0.00012207H7.12332C3.48206 0.00012207 0.5 2.99052 0.5 6.64196V75.3268C0.5 79.0097 3.48206 81.9686 7.12332 81.9686H106.724C110.365 81.9686 113.348 78.9782 113.348 75.3268V60.2803C113.348 59.3045 112.531 58.4861 111.558 58.4861V58.5176Z" fill="#FF0000"></path><path d="M14.5305 6.7365C14.5305 7.55492 15.2211 8.24744 16.0373 8.24744C16.8534 8.24744 17.544 7.5864 17.544 6.7365C17.544 5.88659 16.8848 5.22556 16.0373 5.22556C15.1897 5.22556 14.5305 5.88659 14.5305 6.7365V6.7365Z" fill="#FF0000"></path><path d="M20.4652 6.7365C20.4652 7.55492 21.1244 8.24744 21.972 8.24744C22.8195 8.24744 23.4787 7.5864 23.4787 6.7365C23.4787 5.88659 22.8195 5.22556 21.972 5.22556C21.1244 5.22556 20.4652 5.88659 20.4652 6.7365V6.7365Z" fill="#FF0000"></path><path d="M41.6219 20.146C42.595 20.146 43.4112 19.3276 43.4112 18.3518V17.1556C43.4112 16.1798 42.595 15.3614 41.6219 15.3614C40.6488 15.3614 39.8327 16.1798 39.8327 17.1556V18.3518C39.8327 19.3276 40.6488 20.146 41.6219 20.146Z" fill="#FF0000"></path><path d="M8.78797 65.537C7.81488 65.537 6.99873 66.3554 6.99873 67.3312C6.99873 68.307 7.81488 69.1255 8.78797 69.1255H9.9808C10.9539 69.1255 11.77 68.307 11.77 67.3312C11.77 66.3554 10.9539 65.537 9.9808 65.537H8.78797Z" fill="#FF0000"></path><path d="M13.5578 69.157C12.5847 69.157 11.7686 69.9755 11.7686 70.9513V72.1474C11.7686 73.1233 12.5847 73.9417 13.5578 73.9417C14.5309 73.9417 15.347 73.1233 15.347 72.1474V70.9513C15.347 69.9755 14.5309 69.157 13.5578 69.157Z" fill="#FF0000"></path><path d="M119.187 27.134C118.308 24.3954 115.86 22.6011 113.003 22.6011H107.541C106.254 22.6011 105.156 21.7827 104.748 20.5865L103.053 15.3612C102.174 12.6226 99.7253 10.8599 96.8688 10.8599C94.0123 10.8599 91.5639 12.6226 90.685 15.3612L88.9899 20.5865C88.6132 21.8142 87.4832 22.6011 86.1962 22.6011H80.7343C77.8464 22.6011 75.4294 24.3639 74.5504 27.134C73.6715 29.8725 74.5818 32.737 76.9047 34.4368L81.3307 37.6476C82.3666 38.403 82.7747 39.7251 82.398 40.9213L80.7029 46.1466C79.824 48.8852 80.7343 51.7497 83.0572 53.4495C84.1872 54.2679 85.5056 54.7086 86.8868 54.7086C88.2679 54.7086 89.5863 54.2679 90.7164 53.4495L95.1424 50.2387C95.6446 49.861 96.241 49.6721 96.8688 49.6721C97.4966 49.6721 98.0931 49.861 98.5953 50.2387L103.021 53.4495C104.151 54.2679 105.47 54.7086 106.851 54.7086C108.232 54.7086 109.55 54.2679 110.68 53.4495C113.003 51.7497 113.945 48.8852 113.035 46.1466L111.34 40.9213C110.932 39.6936 111.371 38.3716 112.407 37.6476L116.833 34.4368C119.156 32.737 120.098 29.8725 119.187 27.134V27.134ZM107.918 42.0545L109.613 47.2798C110.115 48.7908 109.393 49.9554 108.546 50.5535C108.044 50.9313 107.416 51.1201 106.82 51.1201C106.223 51.1201 105.627 50.9313 105.124 50.5535L100.698 47.3428C99.5684 46.5244 98.25 46.0837 96.8688 46.0837C95.4877 46.0837 94.1693 46.5244 93.0392 47.3428L88.6132 50.5535C88.0796 50.9313 87.5146 51.1201 86.9182 51.1201C86.3218 51.1201 85.6939 50.8998 85.1917 50.5535C84.3442 49.9554 83.6536 48.7593 84.1244 47.2798L85.8195 42.0545C86.6984 39.3474 85.7567 36.4199 83.4652 34.7516L79.0392 31.5409C77.7836 30.628 77.6581 29.18 77.972 28.2672C78.2859 27.2913 79.1962 26.2526 80.7657 26.2526H86.2276C89.0527 26.2526 91.5639 24.4268 92.4114 21.7512L94.1065 16.5259C94.5774 15.0149 95.8643 14.5113 96.9002 14.5113C97.9361 14.5113 99.1917 15.0464 99.694 16.5574L101.389 21.7827C102.268 24.4898 104.748 26.284 107.573 26.284H113.035C114.604 26.284 115.515 27.3858 115.828 28.2986C116.142 29.2744 116.048 30.6595 114.761 31.5723L110.335 34.7831C108.044 36.4514 107.102 39.3789 107.981 42.086L107.918 42.0545Z" fill="#340458"></path><path d="M17.1689 65.537C16.1958 65.537 15.3797 66.3554 15.3797 67.3312C15.3797 68.307 16.1958 69.1255 17.1689 69.1255H18.3617C19.3348 69.1255 20.151 68.307 20.151 67.3312C20.151 66.3554 19.3348 65.537 18.3617 65.537H17.1689Z" fill="#FF0000"></path><path d="M30.1936 35.822C31.1667 35.822 31.9828 35.0036 31.9828 34.0278V22.6642C31.9828 21.6884 31.1667 20.87 30.1936 20.87H11.7676C10.7945 20.87 9.97835 21.6884 9.97835 22.6642V52.946C9.97835 53.9218 10.7945 54.7402 11.7676 54.7402H30.1936C31.1667 54.7402 31.9828 53.9218 31.9828 52.946C31.9828 51.9702 31.1667 51.1518 30.1936 51.1518H13.5568V24.4585H28.4044V34.0278C28.4044 35.0036 29.2205 35.822 30.1936 35.822V35.822Z" fill="#340458"></path><path d="M46.3921 23.7661C47.3652 23.7661 48.1814 22.9476 48.1814 21.9718C48.1814 20.996 47.3652 20.1776 46.3921 20.1776H45.1993C44.2262 20.1776 43.4101 20.996 43.4101 21.9718C43.4101 22.9476 44.2262 23.7661 45.1993 23.7661H46.3921Z" fill="#FF0000"></path><path d="M15.347 62.5469C15.347 61.5711 14.5309 60.7527 13.5578 60.7527C12.5847 60.7527 11.7686 61.5711 11.7686 62.5469V63.7431C11.7686 64.7189 12.5847 65.5373 13.5578 65.5373C14.5309 65.5373 15.347 64.7189 15.347 63.7431V62.5469Z" fill="#FF0000"></path></g><defs><clipPath id="clip0_1_1588"><rect width="119" height="82" fill="white" transform="translate(0.5 0.00012207)"></rect></clipPath></defs></svg>