<svg xmlns="http://www.w3.org/2000/svg" width="170" height="107" viewBox="0 0 170 107" fill="none"><path d="M136.569 95.1452C135.593 95.1432 134.635 95.4158 133.799 95.9333C132.963 96.4508 132.28 97.1935 131.825 98.0811C131.37 98.9686 131.16 99.9672 131.218 100.969C131.275 101.97 131.598 102.936 132.152 103.763C132.705 104.589 133.468 105.244 134.357 105.657C135.247 106.069 136.229 106.224 137.198 106.104C138.167 105.984 139.086 105.594 139.855 104.976C140.623 104.358 141.213 103.535 141.56 102.597H148.451V99.5253H141.822C141.571 98.2854 140.91 97.1727 139.953 96.3748C138.996 95.5769 137.801 95.1426 136.569 95.1452V95.1452ZM136.569 103.071C136.102 103.071 135.645 102.929 135.257 102.662C134.868 102.396 134.566 102.017 134.387 101.573C134.208 101.13 134.162 100.642 134.253 100.171C134.344 99.7001 134.569 99.2676 134.899 98.9282C135.229 98.5887 135.65 98.3576 136.108 98.2639C136.566 98.1703 137.041 98.2183 137.472 98.402C137.904 98.5857 138.272 98.8968 138.532 99.296C138.791 99.6951 138.93 100.164 138.93 100.644C138.928 101.288 138.679 101.904 138.237 102.359C137.794 102.814 137.194 103.07 136.569 103.071V103.071Z" fill="#FF0000"></path><path d="M169.391 85.5547L166.315 73.4012H151.458V91.837H154.447V87.2288H163.417V84.1566H154.447V76.4733H164.015L166.405 85.7527V91.837H163.417V94.9121H166.405V99.5203H161.922C161.668 98.213 160.963 97.0441 159.937 96.2283C158.911 95.4126 157.633 95.0047 156.338 95.0798C155.043 95.1549 153.818 95.7079 152.888 96.6371C151.958 97.5663 151.386 98.8093 151.276 100.138C151.166 101.466 151.527 102.791 152.291 103.868C153.055 104.945 154.172 105.702 155.436 106.001C156.7 106.299 158.026 106.119 159.171 105.493C160.316 104.867 161.203 103.837 161.668 102.592H169.391V85.5547ZM156.671 103.069C156.204 103.069 155.748 102.927 155.359 102.66C154.971 102.394 154.669 102.015 154.49 101.571C154.311 101.128 154.264 100.64 154.355 100.169C154.447 99.698 154.671 99.2655 155.002 98.9261C155.332 98.5867 155.753 98.3555 156.211 98.2619C156.669 98.1682 157.143 98.2163 157.575 98.4C158.006 98.5837 158.375 98.8948 158.635 99.2939C158.894 99.693 159.033 100.162 159.033 100.642C159.031 101.285 158.782 101.901 158.34 102.356C157.898 102.81 157.3 103.067 156.674 103.069H156.671Z" fill="#FF0000"></path><path d="M70.7314 91.8377H148.457V61.1104H70.7314V91.8377ZM73.7202 88.7655V84.0643H145.469V88.7655H73.7202ZM145.469 64.1825V80.9832H138.07V71.8658H135.078V80.9922H127.276V71.8658H124.287V80.9922H116.486V71.8658H113.497V80.9922H105.692V71.8658H102.703V80.9922H94.9015V71.8658H91.9127V80.9922H84.108V71.8658H81.1192V80.9922H73.7202V64.1915L145.469 64.1825Z" fill="#FF0000"></path><path d="M70.7314 97.9846H74.7535C74.3002 98.7936 74.058 99.7092 74.05 100.643C74.05 102.102 74.6139 103.501 75.6175 104.532C76.6211 105.564 77.9822 106.143 79.4016 106.143C80.8209 106.143 82.182 105.564 83.1856 104.532C84.1892 103.501 84.7531 102.102 84.7531 100.643C84.7471 99.7089 84.5047 98.7928 84.0496 97.9846H86.0928C85.6395 98.7936 85.3972 99.7092 85.3893 100.643C85.3893 102.108 85.9555 103.512 86.9632 104.548C87.9709 105.584 89.3376 106.166 90.7627 106.166C92.1878 106.166 93.5546 105.584 94.5623 104.548C95.57 103.512 96.1361 102.108 96.1361 100.643C96.1302 99.7089 95.8878 98.7928 95.4327 97.9846H127.539V94.9125H70.7314V97.9846ZM79.4147 103.085C78.9477 103.085 78.4911 102.942 78.1028 102.676C77.7145 102.409 77.4119 102.03 77.2332 101.587C77.0545 101.143 77.0077 100.655 77.0988 100.184C77.1899 99.7134 77.4148 99.2809 77.745 98.9415C78.0753 98.6021 78.496 98.3709 78.954 98.2772C79.4121 98.1836 79.8868 98.2317 80.3183 98.4154C80.7498 98.5991 81.1185 98.9102 81.378 99.3093C81.6375 99.7084 81.7759 100.178 81.7759 100.658C81.7706 101.298 81.5196 101.911 81.0775 102.363C80.6355 102.814 80.0379 103.068 79.4147 103.07V103.085ZM90.7978 103.085C90.3307 103.085 89.8742 102.942 89.4859 102.676C89.0976 102.409 88.795 102.03 88.6162 101.587C88.4375 101.143 88.3908 100.655 88.4819 100.184C88.573 99.7134 88.7979 99.2809 89.1281 98.9415C89.4583 98.6021 89.8791 98.3709 90.3371 98.2772C90.7951 98.1836 91.2699 98.2317 91.7014 98.4154C92.1328 98.5991 92.5016 98.9102 92.7611 99.3093C93.0205 99.7084 93.159 100.178 93.159 100.658C93.1536 101.299 92.9019 101.913 92.4585 102.365C92.0152 102.816 91.4162 103.07 90.7919 103.07L90.7978 103.085Z" fill="#FF0000"></path><path d="M25.4801 73.4649C18.8304 67.3712 14.9751 58.9944 14.652 49.9494C14.3275 40.8655 17.5727 32.1615 23.7635 25.4058C29.9542 18.65 38.3813 14.657 47.4201 14.1909C56.4977 13.7229 65.1396 16.8359 71.7894 22.9295C78.4392 29.0232 82.2945 37.4 82.6176 46.445C82.759 50.4046 82.2195 54.341 81.0136 58.1174C80.875 58.5912 80.5384 58.9586 80.0999 59.1951C79.6614 59.4316 79.1772 59.476 78.7061 59.3447C78.4505 59.2607 78.1935 59.1378 77.9926 58.9537C77.4702 58.4751 77.2686 57.7271 77.4965 57.0347C78.5812 53.673 79.0584 50.1676 78.9121 46.6166C78.6237 38.5421 75.1896 31.077 69.2631 25.6461C63.3365 20.2151 55.6007 17.4444 47.5317 17.8604C39.4627 18.2764 31.9529 21.8333 26.4354 27.8543C20.918 33.8753 18.0288 41.6664 18.3172 49.7409C18.6056 57.8155 22.0398 65.2806 27.9663 70.7115C33.8928 76.1424 41.6287 78.9132 49.6977 78.4971C54.7408 78.2371 59.6993 76.698 64.0171 74.0836C64.7015 73.6594 65.618 73.7482 66.2006 74.2821C66.3211 74.3926 66.4417 74.503 66.5262 74.6931C66.7943 75.1266 66.8698 75.6088 66.7313 76.0827C66.5927 76.5565 66.2963 76.9607 65.8779 77.2156C61.0281 80.1686 55.4731 81.8746 49.8093 82.1666C40.7317 82.6347 32.0897 79.5217 25.44 73.428L25.4801 73.4649Z" fill="#301247"></path><path d="M48.7504 30.6806V38.2502H51.9171V30.6806C56.4137 31.4206 59.8337 35.2131 59.8337 39.7919C59.8337 43.2144 57.9179 46.1898 55.0837 47.7931V61.3752C55.0837 62.2231 54.3712 62.9169 53.5004 62.9169H47.1671C46.2962 62.9169 45.5837 62.2231 45.5837 61.3752V47.7931C42.7496 46.1898 40.8337 43.2144 40.8337 39.7919C40.8337 35.2131 44.2537 31.4206 48.7504 30.6806M47.1671 45.126L48.7504 46.0202V59.8335H51.9171V46.0202L53.5004 45.126C55.4479 44.016 56.6671 41.981 56.6671 39.7919C56.6671 38.2502 56.0812 36.801 55.0837 35.7064V41.3335H45.5837V35.7064C44.5862 36.801 44.0004 38.2502 44.0004 39.7919C44.0004 41.981 45.2196 44.016 47.1671 45.126M29.8454 56.6577C29.7808 56.2025 29.7808 55.7408 29.8454 55.2856L28.3096 54.1602C28.2394 54.1105 28.1908 54.0372 28.1732 53.9545C28.1557 53.8719 28.1704 53.7858 28.2146 53.7131L29.6712 51.3081C29.7504 51.1539 29.9562 51.0923 30.1304 51.1539L31.9512 51.8477C32.3312 51.5856 32.7271 51.3544 33.1862 51.1694L33.4554 49.3348C33.4719 49.2524 33.5172 49.1782 33.5836 49.1248C33.65 49.0714 33.7334 49.0421 33.8196 49.0419H36.7487C36.9387 49.0419 37.0971 49.1652 37.1287 49.3348L37.3979 51.1694C37.8571 51.3544 38.2529 51.5856 38.6329 51.8477L40.4537 51.1539C40.6121 51.0923 40.8337 51.1539 40.8971 51.3081L42.3696 53.7131C42.4646 53.8673 42.4171 54.0523 42.2746 54.1602L40.7387 55.2856C40.7546 55.5169 40.7862 55.7481 40.7862 55.9794C40.7862 56.2106 40.7546 56.4264 40.7387 56.6577L42.2746 57.7985C42.3447 57.8482 42.3933 57.9215 42.4109 58.0042C42.4285 58.0868 42.4137 58.1729 42.3696 58.2456L40.8971 60.6506C40.8337 60.8048 40.6121 60.851 40.4537 60.8048L38.6329 60.0956C38.2529 60.3731 37.8571 60.6044 37.3979 60.7894L37.1287 62.6239C37.0971 62.7935 36.9387 62.9169 36.7487 62.9169H33.8196C33.6454 62.9169 33.4871 62.7935 33.4554 62.6239L33.1862 60.7894C32.7271 60.6044 32.3312 60.3731 31.9512 60.0956L30.1304 60.8048C29.9562 60.851 29.7504 60.8048 29.6712 60.6506L28.2146 58.2456C28.1704 58.1729 28.1557 58.0868 28.1732 58.0042C28.1908 57.9215 28.2394 57.8482 28.3096 57.7985L29.8454 56.6577ZM35.2921 58.2919C36.6062 58.2919 37.6671 57.2589 37.6671 55.9794C37.6671 54.6998 36.6062 53.6669 35.2921 53.6669C33.9779 53.6669 32.9171 54.6998 32.9171 55.9794C32.9171 57.2589 33.9779 58.2919 35.2921 58.2919Z" fill="#340458"></path></svg>