<svg xmlns="http://www.w3.org/2000/svg" width="162" height="97" viewBox="0 0 162 97" fill="none"><path d="M26.1693 21.2171V23.651H28.6032V26.0848H21.9855L19.8948 22.9658L19.5127 22.434H14V29.3559L20.0847 31.7898V40.688H37.7679L38.1111 40.155L48.6825 24.8679H50.5079V22.434H46.4385L46.1343 22.6628L38.3386 28.5187V26.0848H31.037V23.651H33.4709V21.2171H26.1693ZM16.4339 24.8679H18.1838L20.0847 27.7204V29.1272L16.4339 27.6814V24.8679ZM44.1568 27.2263L36.5132 38.2541H22.5185V28.5187H35.9048V33.3864L37.8446 31.9407L44.1568 27.2263ZM48.6825 29.7356C48.6825 29.7356 46.8571 32.9873 46.8571 33.9949C46.8571 34.479 47.0495 34.9433 47.3918 35.2856C47.7341 35.628 48.1984 35.8203 48.6825 35.8203C49.1667 35.8203 49.631 35.628 49.9733 35.2856C50.3156 34.9433 50.5079 34.479 50.5079 33.9949C50.5079 32.9873 48.6825 29.7356 48.6825 29.7356Z" fill="#340458"></path><path d="M91.8836 30.9525C91.8836 34.9805 90.117 38.6313 87.2694 41.2964L85.8456 39.9821C88.3505 37.6456 89.9061 34.4816 89.9061 30.9525C89.9061 27.4356 88.3505 24.2594 85.8456 21.9229L87.2694 20.6086C90.117 23.2737 91.8836 26.9245 91.8836 30.9525ZM86.6102 28.0319V26.0848H82.3916C81.2314 26.0848 80.2822 26.961 80.2822 28.0319V29.979C80.2822 30.4954 80.5044 30.9906 80.9 31.3558C81.2956 31.7209 81.8321 31.926 82.3916 31.926H84.5009V33.8731H80.2822V35.8202H84.5009C85.661 35.8202 86.6102 34.944 86.6102 33.8731V31.926C86.6102 31.4096 86.388 30.9144 85.9924 30.5492C85.5969 30.1841 85.0603 29.979 84.5009 29.979H82.3916V28.0319H86.6102ZM71.3438 23.6509C72.7281 22.8842 74.3365 22.434 76.0635 22.434C77.7905 22.434 79.3989 22.8842 80.7832 23.6509H84.8832C82.7211 21.4118 79.5703 20.0001 76.0635 20.0001C72.5567 20.0001 69.4059 21.4118 67.2438 23.6509H71.3438ZM77.6455 30.9525C78.4893 30.9525 79.2275 31.634 79.2275 32.4128V33.8731C79.2275 34.1288 79.173 34.382 79.067 34.6183C78.961 34.8545 78.8056 35.0691 78.6097 35.2499C78.4138 35.4307 78.1813 35.5742 77.9254 35.672C77.6695 35.7699 77.3952 35.8202 77.1182 35.8202H72.8995V26.0848H77.1182C77.6776 26.0848 78.2141 26.2899 78.6097 26.6551C79.0053 27.0202 79.2275 27.5155 79.2275 28.0319V29.4922C79.2275 30.271 78.4893 30.9525 77.6455 30.9525M77.1182 31.926H75.0088V33.8731H77.1182V31.926ZM77.1182 28.0319H75.0088V29.979H77.1182V28.0319M66.2814 21.9229L64.8576 20.6086C62.01 23.2737 60.2434 26.9245 60.2434 30.9525C60.2434 34.9805 62.01 38.6313 64.8576 41.2964L66.2814 39.9821C63.7766 37.6456 62.2209 34.4816 62.2209 30.9525C62.2209 27.4356 63.7766 24.2594 66.2814 21.9229ZM69.7355 35.8202V31.926H67.6261V35.8202H65.5168V28.0319C65.5168 27.5155 65.739 27.0202 66.1346 26.6551C66.5302 26.2899 67.0667 26.0848 67.6261 26.0848H69.7355C70.8956 26.0848 71.8448 26.961 71.8448 28.0319V35.8202H69.7355ZM69.7355 29.979V28.0319H67.6261V29.979H69.7355M80.7832 38.2541C79.3989 39.0208 77.7905 39.471 76.0635 39.471C74.3996 39.4697 72.7677 39.0489 71.3438 38.2541H67.2438C69.4059 40.4932 72.5567 41.9049 76.0635 41.9049C79.5703 41.9049 82.7211 40.4932 84.8832 38.2541H80.7832V38.2541Z" fill="#340458"></path><path d="M101.619 27.9101V37.0371M115.309 20.3043V24.8678M112.267 20.3043H118.352M104.661 32.4736H101.619M106.183 27.9101H109.225L112.267 24.8678H117.412C117.694 24.8679 117.971 24.9467 118.211 25.0953C118.451 25.2438 118.645 25.4564 118.772 25.709L120.974 30.1112C121.101 30.3639 121.295 30.5764 121.535 30.7249C121.775 30.8735 122.052 30.9523 122.334 30.9524H124.436V27.9101H127.479C127.882 27.9101 128.269 28.0704 128.554 28.3556C128.84 28.6409 129 29.0278 129 29.4313V38.5583C129 38.9617 128.84 39.3486 128.554 39.6339C128.269 39.9192 127.882 40.0794 127.479 40.0794H124.436V37.0371H119.873V40.0794C119.873 40.4829 119.713 40.8698 119.427 41.155C119.142 41.4403 118.755 41.6006 118.352 41.6006H113.081C112.831 41.6006 112.584 41.5389 112.363 41.4208C112.143 41.3027 111.954 41.1319 111.815 40.9237L109.225 37.0371H106.183V27.9101Z" stroke="#340458" stroke-width="2.43386" stroke-linecap="round" stroke-linejoin="round"></path><path d="M117.371 85.0349C116.395 85.033 115.437 85.3055 114.601 85.823C113.765 86.3405 113.083 87.0832 112.628 87.9708C112.173 88.8584 111.963 89.8569 112.02 90.8584C112.078 91.8598 112.401 92.826 112.954 93.6524C113.508 94.4787 114.271 95.1337 115.16 95.5464C116.05 95.9591 117.032 96.1139 118.001 95.9939C118.97 95.8739 119.889 95.4837 120.657 94.8656C121.426 94.2475 122.016 93.425 122.362 92.4872H129.254V89.4151H122.625C122.373 88.1752 121.713 87.0624 120.756 86.2645C119.799 85.4666 118.604 85.0323 117.371 85.0349V85.0349ZM117.371 92.9612C116.904 92.9612 116.448 92.8189 116.06 92.5522C115.671 92.2855 115.369 91.9064 115.19 91.4629C115.011 91.0194 114.964 90.5314 115.055 90.0606C115.147 89.5898 115.371 89.1573 115.702 88.8179C116.032 88.4785 116.453 88.2473 116.911 88.1537C117.369 88.06 117.844 88.1081 118.275 88.2918C118.706 88.4755 119.075 88.7866 119.335 89.1857C119.594 89.5848 119.733 90.0541 119.733 90.5341C119.731 91.1773 119.482 91.7938 119.039 92.2486C118.597 92.7034 117.997 92.9596 117.371 92.9612V92.9612Z" fill="#FF0000"></path><path d="M150.194 75.4444L147.118 63.2909H132.261V81.7267H135.25V77.1185H144.219V74.0464H135.25V66.3631H144.818L147.208 75.6424V81.7267H144.219V84.8018H147.208V89.41H142.725C142.47 88.1028 141.765 86.9338 140.74 86.1181C139.714 85.3023 138.436 84.8945 137.141 84.9696C135.846 85.0447 134.621 85.5977 133.691 86.5269C132.761 87.4561 132.189 88.6991 132.079 90.0274C131.969 91.3558 132.329 92.6803 133.093 93.7574C133.858 94.8346 134.974 95.5921 136.238 95.8907C137.502 96.1892 138.829 96.0088 139.974 95.3826C141.119 94.7565 142.006 93.7265 142.471 92.4821H150.194V75.4444ZM137.474 92.9592C137.007 92.9592 136.551 92.8168 136.162 92.5501C135.774 92.2834 135.471 91.9044 135.293 91.4609C135.114 91.0174 135.067 90.5294 135.158 90.0586C135.249 89.5877 135.474 89.1553 135.804 88.8158C136.135 88.4764 136.555 88.2452 137.013 88.1516C137.471 88.0579 137.946 88.106 138.378 88.2897C138.809 88.4734 139.178 88.7845 139.437 89.1836C139.697 89.5828 139.835 90.052 139.835 90.5321C139.834 91.1748 139.585 91.7907 139.143 92.2455C138.701 92.7002 138.102 92.9568 137.477 92.9592H137.474Z" fill="#FF0000"></path><path d="M51.5342 81.7274H129.26V51.0001H51.5342V81.7274ZM54.523 78.6553V73.9541H126.271V78.6553H54.523ZM126.271 54.0723V70.873H118.872V61.7556H115.881V70.882H108.079V61.7556H105.09V70.882H97.2883V61.7556H94.2995V70.882H86.4948V61.7556H83.506V70.882H75.7042V61.7556H72.7155V70.882H64.9108V61.7556H61.922V70.882H54.523V54.0813L126.271 54.0723Z" fill="#FF0000"></path><path d="M51.5342 87.8743H55.5562C55.103 88.6833 54.8607 89.5989 54.8528 90.5325C54.8528 91.9913 55.4166 93.3905 56.4202 94.4221C57.4238 95.4536 58.785 96.0332 60.2043 96.0332C61.6236 96.0332 62.9848 95.4536 63.9884 94.4221C64.992 93.3905 65.5558 91.9913 65.5558 90.5325C65.5499 89.5987 65.3075 88.6826 64.8524 87.8743H66.8955C66.4423 88.6833 66.2 89.5989 66.1921 90.5325C66.1921 91.9973 66.7582 93.4022 67.7659 94.438C68.7736 95.4738 70.1404 96.0557 71.5655 96.0557C72.9906 96.0557 74.3573 95.4738 75.365 94.438C76.3727 93.4022 76.9389 91.9973 76.9389 90.5325C76.933 89.5987 76.6905 88.6826 76.2355 87.8743H108.342V84.8022H51.5342V87.8743ZM60.2174 92.9746C59.7504 92.9746 59.2939 92.8322 58.9056 92.5655C58.5173 92.2988 58.2146 91.9198 58.0359 91.4763C57.8572 91.0328 57.8104 90.5448 57.9015 90.074C57.9926 89.6031 58.2175 89.1707 58.5478 88.8312C58.878 88.4918 59.2987 88.2606 59.7568 88.167C60.2148 88.0733 60.6896 88.1214 61.121 88.3051C61.5525 88.4888 61.9213 88.7999 62.1807 89.199C62.4402 89.5982 62.5787 90.0674 62.5787 90.5475C62.5733 91.1881 62.3223 91.8007 61.8803 92.2522C61.4382 92.7038 60.8407 92.958 60.2174 92.9596V92.9746ZM71.6005 92.9746C71.1335 92.9746 70.677 92.8322 70.2887 92.5655C69.9003 92.2988 69.5977 91.9198 69.419 91.4763C69.2403 91.0328 69.1935 90.5448 69.2846 90.074C69.3757 89.6031 69.6006 89.1707 69.9308 88.8312C70.2611 88.4918 70.6818 88.2606 71.1398 88.167C71.5979 88.0733 72.0726 88.1214 72.5041 88.3051C72.9356 88.4888 73.3044 88.7999 73.5638 89.199C73.8233 89.5982 73.9618 90.0674 73.9618 90.5475C73.9564 91.1891 73.7046 91.8026 73.2613 92.2544C72.8179 92.7061 72.2189 92.9596 71.5947 92.9596L71.6005 92.9746Z" fill="#FF0000"></path><path d="M40.8755 53.346H12.9898C5.623 53.346 1.65253 47.3608 1.65253 39.9757V19.0245C1.65253 11.6395 7.623 5.65425 14.9898 5.65425H128.01C135.377 5.65425 139.348 9.63947 139.348 17.0245V31.0001" stroke="#FF0000" stroke-width="2.5" stroke-miterlimit="10"></path></svg>