<svg xmlns="http://www.w3.org/2000/svg" width="78" height="79" viewBox="0 0 78 79" fill="none"><path d="M24.3813 32.2352L37.6722 47.6801L67.2423 18.1014" stroke="#FF0000" stroke-width="4" stroke-miterlimit="10" stroke-linecap="round"></path><path d="M54.1087 64.2901C47.4561 68.1309 39.6627 69.1204 32.2295 67.0722C24.7643 65.0152 18.5207 60.1579 14.6135 53.4073C10.7063 46.6568 9.61613 38.7969 11.5487 31.3414C13.4895 23.8538 18.2291 17.6346 24.8817 13.7937C31.5342 9.9529 39.3276 8.9634 46.7609 11.0116C50.0149 11.9082 53.0759 13.3517 55.8365 15.2951C56.1861 15.5286 56.3986 15.8957 56.4787 16.312C56.5588 16.7283 56.471 17.1327 56.2439 17.4815C56.1102 17.6675 55.9447 17.8447 55.7437 17.9608C55.2211 18.2625 54.5617 18.235 54.0573 17.8732C51.6027 16.1341 48.876 14.8514 45.9528 14.063C39.3171 12.2346 32.3723 13.1151 26.4433 16.5382C20.5143 19.9613 16.2845 25.5325 14.5593 32.1881C12.8341 38.8437 13.8043 45.8477 17.2866 51.864C20.7688 57.8804 26.3616 62.2156 32.9973 64.044C39.633 65.8724 46.5778 64.9919 52.5068 61.5688C58.4358 58.1457 62.6656 52.5745 64.3908 45.9189C65.4691 41.7592 65.4862 37.3414 64.4656 33.169C64.2959 32.5051 64.6025 31.7839 65.1853 31.4474C65.3059 31.3778 65.4265 31.3081 65.6026 31.2881C66.0234 31.1812 66.4346 31.2431 66.7843 31.4766C67.1339 31.71 67.3866 32.0539 67.4868 32.4587C68.6465 37.1494 68.6124 42.0939 67.4015 46.7657C65.4606 54.2532 60.721 60.4724 54.0685 64.3133L54.1087 64.2901Z" fill="#301247"></path></svg>