<svg xmlns="http://www.w3.org/2000/svg" width="84" height="101" viewBox="0 0 84 101" fill="none"><g clip-path="url(#clip0_1_1548)"><path d="M42.4586 100.5C41.6402 100.5 40.789 100.402 39.9706 100.173L10.312 92.1204C6.35101 91.0402 3.6012 87.5378 3.6012 83.5443C-1.21096 55.8193 -1.24369 31.9568 3.6012 10.8766C3.69941 6.06477 7.79138 2.16952 12.7672 2.16952C32.7033 -0.0563428 52.7703 -0.0563428 72.3136 2.16952C77.1912 2.16952 81.2832 6.16297 81.2832 11.073C84.8841 35.4592 84.8841 60.0091 81.2832 83.8062C81.2832 87.5378 78.5661 91.073 74.6051 92.1204L44.9465 100.173C44.1281 100.402 43.3097 100.5 42.4913 100.5H42.4586ZM42.655 3.77344C32.8015 3.77344 22.8826 4.32991 12.9636 5.41011C9.52638 5.41011 6.87478 7.93056 6.87478 11.0402V11.4003C2.06262 32.0877 2.06262 55.5901 6.87478 83.217C6.87478 85.9993 8.67525 88.2252 11.1959 88.9126L40.8545 96.9649C41.9021 97.2595 43.0151 97.2595 44.0954 96.9649L73.7867 88.9126C76.3074 88.2252 78.0751 85.9993 78.0751 83.5116C81.676 59.8127 81.676 35.5901 78.0751 11.2694C78.0751 7.93056 75.4235 5.41011 72.1499 5.41011C62.3947 4.29718 52.5739 3.74071 42.6877 3.74071L42.655 3.77344Z" fill="#FF0000"></path><path d="M27.498 69.5672L30.2806 71.5967C31.1317 72.2186 31.4918 73.2988 31.1644 74.3135L30.1169 77.5869C29.3967 79.8127 30.1496 82.1368 32.0483 83.5443C32.9976 84.2317 34.0779 84.5918 35.1582 84.5918C36.2385 84.5918 37.3515 84.2317 38.2681 83.5443L41.0506 81.5148C41.4762 81.2202 41.9672 81.0566 42.491 81.0566C43.0148 81.0566 43.5058 81.2202 43.9314 81.5148L46.7139 83.5443C47.6633 84.2317 48.7436 84.5918 49.8238 84.5918C50.9041 84.5918 52.0171 84.2317 52.9337 83.5443C54.8324 82.1695 55.5853 79.8454 54.8651 77.5869L53.8176 74.3135C53.4902 73.2988 53.8176 72.2186 54.7015 71.5967L57.484 69.5672C59.3827 68.1924 60.1356 65.8684 59.4154 63.6098C58.6952 61.3839 56.6984 59.9436 54.3741 59.9436H50.9369C49.8893 59.9436 48.94 59.2562 48.6126 58.2743L47.5651 55.0009C46.8449 52.7751 44.848 51.3348 42.5238 51.3348C40.1995 51.3348 38.2026 52.7751 37.4824 55.0009L36.4349 58.2743C36.1075 59.289 35.1909 59.9436 34.1107 59.9436H30.6734C28.3164 59.9436 26.3523 61.3839 25.6321 63.6098C24.9119 65.8356 25.6321 68.1597 27.5635 69.5672H27.498ZM28.3164 64.5263C28.5783 63.708 29.3312 62.8569 30.6407 62.8569H34.0779C36.4022 62.8569 38.4318 61.3839 39.1192 59.1908L40.1668 55.9175C40.5596 54.6736 41.6399 54.2481 42.491 54.2481C43.3422 54.2481 44.3897 54.6736 44.8153 55.9175L45.8628 59.1908C46.583 61.3839 48.6126 62.8569 50.9041 62.8569H54.3414C55.6508 62.8569 56.4037 63.708 56.6656 64.5263C56.9275 65.3446 56.8293 66.4903 55.7818 67.2432L52.9992 69.2726C51.1333 70.6147 50.3476 73.0042 51.0678 75.2301L52.1153 78.5034C52.5082 79.7472 51.9189 80.7292 51.2315 81.2202C50.9696 81.4166 50.4786 81.7112 49.7911 81.7112C49.3001 81.7112 48.809 81.5476 48.3835 81.2202L45.6009 79.1908C44.6843 78.5361 43.604 78.1761 42.491 78.1761C41.378 78.1761 40.2977 78.5361 39.3811 79.1908L36.5986 81.2202C36.173 81.5476 35.682 81.7112 35.1909 81.7112C34.5362 81.7112 34.0125 81.4166 33.7506 81.2202C33.0631 80.7292 32.4739 79.7472 32.8667 78.5034L33.9142 75.2301C34.6344 73.0369 33.8488 70.6474 31.9828 69.2726L29.2003 67.2432C28.1528 66.4903 28.0545 65.3446 28.3164 64.5263V64.5263Z" fill="#340458"></path><path d="M12.9961 33.2988C12.9961 33.2988 12.8979 33.1351 12.8979 33.0369V22.6932C12.8979 22.6932 12.9306 22.4968 12.9961 22.3986C13.0616 22.3332 13.1598 22.3004 13.258 22.3004H14.4692C14.4692 22.3004 14.6984 22.3004 14.7638 22.3659C14.8293 22.4314 14.8948 22.4641 14.9275 22.5623L19.5105 29.6982V22.726C19.5105 22.726 19.5105 22.5296 19.6087 22.4314C19.6742 22.3659 19.7724 22.3332 19.8706 22.3332H21.2128C21.2128 22.3332 21.4092 22.3659 21.5074 22.4314C21.5729 22.4968 21.6056 22.595 21.6056 22.726V33.0697C21.6056 33.0697 21.5729 33.2661 21.5074 33.3643C21.4419 33.4297 21.3437 33.4625 21.2455 33.4625H20.0016C19.8051 33.4625 19.6742 33.3643 19.5433 33.2006L14.993 26.2284V33.0697C14.993 33.0697 14.9602 33.2661 14.8948 33.3315C14.8293 33.397 14.7311 33.4297 14.6001 33.4297H13.258C13.258 33.4297 13.0616 33.397 12.9961 33.3315V33.2988Z" fill="#301247"></path><path d="M25.0429 32.4805C24.2245 31.7603 23.7989 30.6474 23.7662 29.2072C23.7662 28.9126 23.7662 28.4543 23.7662 27.8651C23.7662 27.2759 23.7662 26.8176 23.7662 26.4903C23.7989 25.0828 24.2572 24.0026 25.0756 23.2497C25.894 22.4968 27.007 22.1368 28.4147 22.1368C29.8223 22.1368 30.9353 22.4968 31.7537 23.2497C32.5721 24.0026 33.0304 25.0828 33.0631 26.4903C33.0631 27.1122 33.0631 27.5705 33.0631 27.8651C33.0631 28.1597 33.0631 28.618 33.0631 29.2072C32.9977 30.6474 32.5721 31.7276 31.7864 32.4805C30.968 33.2006 29.855 33.5607 28.4147 33.5607C26.9743 33.5607 25.8613 33.2006 25.0429 32.4805V32.4805ZM30.1169 31.1057C30.5425 30.6802 30.7716 30.0255 30.8044 29.1417C30.8044 28.5198 30.8044 28.0615 30.8044 27.8651C30.8044 27.636 30.8044 27.1777 30.8044 26.5885C30.8044 25.7047 30.5425 25.05 30.1169 24.6245C29.6913 24.199 29.1348 23.9698 28.4147 23.9698C27.6945 23.9698 27.138 24.199 26.7124 24.6245C26.2868 25.05 26.0577 25.7047 26.0249 26.5885C26.0249 26.8831 26.0249 27.3414 26.0249 27.8651C26.0249 28.3888 26.0249 28.8471 26.0249 29.1417C26.0249 30.0255 26.2868 30.6802 26.7124 31.1057C27.138 31.5312 27.6945 31.7603 28.4147 31.7603C29.1348 31.7603 29.6913 31.5312 30.1169 31.1057Z" fill="#301247"></path><path d="M38.9229 33.2988C38.9229 33.2988 38.8246 33.1351 38.8246 33.0369V22.6932C38.8246 22.6932 38.8574 22.4968 38.9229 22.3986C38.9883 22.3332 39.0865 22.3004 39.1847 22.3004H43.3094C44.6189 22.3004 45.6337 22.595 46.3539 23.217C47.0741 23.8062 47.4669 24.69 47.4669 25.8029C47.4669 26.5885 47.2705 27.2104 46.9104 27.7342C46.5176 28.2579 46.0265 28.6507 45.3391 28.8798L47.6633 32.9387C47.6633 32.9387 47.696 33.0697 47.696 33.1024C47.696 33.2006 47.6633 33.2661 47.5978 33.3315C47.5324 33.397 47.4669 33.4297 47.3687 33.4297H45.9283C45.7646 33.4297 45.6337 33.397 45.5355 33.3315C45.4373 33.2661 45.3718 33.1679 45.2736 33.0042L43.2112 29.2399H41.0179V33.0697C41.0179 33.0697 40.9852 33.2661 40.9197 33.3315C40.8543 33.397 40.7561 33.4297 40.6579 33.4297H39.2175C39.2175 33.4297 39.0211 33.397 38.9556 33.3315L38.9229 33.2988ZM43.2767 27.4068C43.8987 27.4068 44.3897 27.2759 44.7171 26.9813C45.0444 26.6867 45.2081 26.2939 45.2081 25.7374C45.2081 25.181 45.0444 24.7882 44.7171 24.4936C44.3897 24.199 43.8987 24.0353 43.2767 24.0353H41.0507V27.4068H43.2767Z" fill="#301247"></path><path d="M49.6274 33.2988C49.6274 33.2988 49.5292 33.1351 49.5292 33.0369V22.6605C49.5292 22.6605 49.562 22.4641 49.6274 22.3986C49.6929 22.3332 49.7911 22.3004 49.8893 22.3004H51.3952C51.3952 22.3004 51.5916 22.3332 51.6571 22.3986C51.7225 22.4641 51.7553 22.5623 51.7553 22.6605V33.0369C51.7553 33.0369 51.7225 33.2333 51.6571 33.2988C51.5916 33.3643 51.4934 33.397 51.3952 33.397H49.8893C49.8893 33.397 49.6929 33.3643 49.6274 33.2988Z" fill="#301247"></path><path d="M55.7163 33.1352C55.0289 32.8406 54.5378 32.4805 54.1777 32.0222C53.8176 31.564 53.654 31.0402 53.6212 30.5165C53.6212 30.4183 53.6212 30.3528 53.7194 30.2874C53.8176 30.2219 53.8504 30.1892 53.9486 30.1892H55.3562C55.3562 30.1892 55.5854 30.1892 55.6508 30.2546C55.7163 30.3201 55.7818 30.3856 55.8472 30.4838C55.9455 30.8438 56.2073 31.1384 56.5674 31.4003C56.9603 31.6294 57.484 31.7604 58.1388 31.7604C58.8917 31.7604 59.4482 31.6294 59.841 31.4003C60.2338 31.1384 60.3975 30.8111 60.3975 30.3528C60.3975 30.0582 60.2993 29.7964 60.1029 29.6327C59.9065 29.4363 59.6119 29.2726 59.219 29.1417C58.8262 29.0108 58.2697 28.8471 57.484 28.618C56.2401 28.3234 55.3235 27.9306 54.7342 27.4396C54.145 26.9486 53.8831 26.2612 53.8831 25.3446C53.8831 24.7227 54.0468 24.199 54.3741 23.708C54.7015 23.217 55.1925 22.8569 55.8145 22.5951C56.4365 22.3332 57.1894 22.1695 58.0078 22.1695C58.8262 22.1695 59.6446 22.3332 60.2666 22.6278C60.8886 22.9224 61.3796 23.3152 61.707 23.7735C62.0343 24.2317 62.2307 24.69 62.2307 25.1482C62.2307 25.2464 62.2307 25.3119 62.1325 25.3774C62.067 25.4428 62.0016 25.4756 61.9034 25.4756H60.4303C60.2011 25.4756 60.0702 25.3774 59.972 25.181C59.9065 24.8536 59.7101 24.5591 59.35 24.3299C58.9899 24.1008 58.5316 24.0026 58.0078 24.0026C57.4186 24.0026 56.9603 24.1008 56.6002 24.3299C56.2401 24.5591 56.0764 24.8864 56.0764 25.3119C56.0764 25.6065 56.1746 25.8684 56.3383 26.032C56.502 26.2284 56.7638 26.3921 57.1567 26.5558C57.5168 26.7194 58.0405 26.8831 58.728 27.0468C59.6773 27.2432 60.3975 27.505 60.954 27.7669C61.5105 28.0288 61.9034 28.3561 62.198 28.7816C62.4926 29.2072 62.5908 29.6982 62.5908 30.3201C62.5908 31.0075 62.3944 31.5967 62.0343 32.0877C61.6742 32.5787 61.1177 32.9715 60.4303 33.2334C59.7428 33.4952 58.9571 33.6262 58.0733 33.6262C57.1239 33.6262 56.3056 33.4952 55.6508 33.2006L55.7163 33.1352Z" fill="#301247"></path><path d="M64.5877 33.2988C64.5877 33.2988 64.4895 33.1351 64.4895 33.0369V22.6932C64.4895 22.6932 64.5222 22.4968 64.5877 22.3986C64.6532 22.3332 64.7514 22.3004 64.8496 22.3004H66.2572C66.2572 22.3004 66.4536 22.3332 66.5519 22.3986C66.6173 22.4641 66.6501 22.5623 66.6501 22.6932V26.4248L70.251 22.595C70.3819 22.3986 70.6111 22.3004 70.873 22.3004H72.4443C72.4443 22.3004 72.608 22.3004 72.6734 22.3986C72.7389 22.4641 72.7716 22.5296 72.7716 22.6278C72.7716 22.6932 72.7716 22.7587 72.7062 22.8242L68.3196 27.636L73.0008 32.906C73.0008 32.906 73.0663 33.0369 73.0663 33.1024C73.0663 33.2006 73.0335 33.2661 72.9681 33.3315C72.9026 33.397 72.8371 33.4297 72.7389 33.4297H71.1021C70.8402 33.4297 70.6438 33.3315 70.4801 33.1351L66.6173 28.9126V33.0369C66.6173 33.0369 66.5846 33.2333 66.5191 33.2988C66.4536 33.3643 66.3554 33.397 66.2245 33.397H64.8169C64.8169 33.397 64.6204 33.3643 64.555 33.2988H64.5877Z" fill="#301247"></path><path d="M73.5573 42.0386H12.636V45.3119H73.5573V42.0386Z" fill="#FF0000"></path></g><defs><clipPath id="clip0_1_1548"><rect width="84" height="100" fill="white" transform="translate(0 0.500122)"></rect></clipPath></defs></svg>