<svg xmlns="http://www.w3.org/2000/svg" width="70" height="70" viewBox="0 0 70 70" fill="none"><g clip-path="url(#clip0_3737_4268)"><rect width="70" height="70" rx="10" fill="url(#paint0_linear_3737_4268)"></rect><path d="M8.50215 4.25146V12.597H-26.8933V39.7742H-20.6762V61.8045H-26.8742V101.889H6.97678V99.1603H43.3398V89.5626H62.8798V55.7991H57.6186V15.7807H43.7561V4.25168H8.50235L8.50215 4.25146ZM12.3346 8.19347H39.9238L39.9177 15.7805H25.9082V32.4711H42.5769V42.3061H46.4098V28.5291H29.7405V19.7225H53.7859V55.7991H35.1367V42.4974H11.072V44.4682L11.0658 59.2732V61.2442H26.5425V57.3022H14.9043V46.439H31.3044L31.304 73.1816L-6.82765 73.1753V53.3079H1.71509V64.6323H5.55415V36.716H19.2687V32.7742H1.72165V49.3653H-10.6599V61.8045H-16.8445V39.7746H-5.06479V35.8328H-23.0604V16.5384H8.50215V23.0648H-12.1468V27.0063H12.3344V8.19368L12.3346 8.19347ZM35.1367 59.7415H59.0475V85.6206H26.9274V89.5626H39.5007V95.2183H6.97739V84.922H-12.4415V88.8638H3.14448V97.9476H-23.0415V65.7532H-10.6597V77.1173H-8.74369L14.7956 77.1236V90.8346H18.6279V77.1236H35.1367V70.473H48.8256V77.6119H52.6581V66.5308H35.1367V59.7415Z" fill="white"></path></g><defs><linearGradient id="paint0_linear_3737_4268" x1="35" y1="0" x2="35" y2="70" gradientUnits="userSpaceOnUse"><stop stop-color="#921D41"></stop><stop offset="1" stop-color="#1D3792"></stop></linearGradient><clipPath id="clip0_3737_4268"><rect width="70" height="70" rx="10" fill="white"></rect></clipPath></defs></svg>