<svg xmlns="http://www.w3.org/2000/svg" width="70" height="70" viewBox="0 0 70 70" fill="none"><rect width="70" height="70" rx="10" fill="url(#paint0_linear_3737_4263)"></rect><path d="M33.0977 23.525C37.1027 23.525 38.5877 25.4375 38.7227 28.25H43.6952C43.5377 24.38 41.1752 20.825 36.4727 19.6775V14.75H29.7227V19.61C28.8452 19.79 28.0352 20.0825 27.2477 20.42L30.6452 23.8175C31.3652 23.6375 32.1977 23.525 33.0977 23.525ZM17.2802 16.82L14.1077 19.9925L21.8477 27.7325C21.8477 32.4125 25.3577 34.9775 30.6452 36.53L38.5427 44.4275C37.7777 45.53 36.1802 46.475 33.0977 46.475C28.4627 46.475 26.6402 44.405 26.3927 41.75H21.4427C21.7127 46.6775 25.4027 49.445 29.7227 50.3675V55.25H36.4727V50.4125C38.6327 50.0075 40.5902 49.175 42.0077 47.8925L47.0027 52.8875L50.1752 49.715L17.2802 16.82Z" fill="white"></path><defs><linearGradient id="paint0_linear_3737_4263" x1="35" y1="0" x2="35" y2="70" gradientUnits="userSpaceOnUse"><stop stop-color="#921D41"></stop><stop offset="1" stop-color="#1D3792"></stop></linearGradient></defs></svg>