<svg xmlns="http://www.w3.org/2000/svg" width="70" height="70" viewBox="0 0 70 70" fill="none"><g clip-path="url(#clip0_3737_4253)"><rect width="70" height="70" rx="10" fill="url(#paint0_linear_3737_4253)"></rect><g clip-path="url(#clip1_3737_4253)"><path fill-rule="evenodd" clip-rule="evenodd" d="M27.9905 43.0169C24.1921 38.8113 17.706 38.4855 13.5077 42.2839C9.30211 46.0823 8.97632 52.5684 12.7747 56.7666C16.5731 60.9723 23.0592 61.298 27.2575 57.4996C31.4631 53.7013 31.7889 47.2151 27.9905 43.0169ZM30.8411 40.4476C25.6211 34.6723 16.7138 34.2206 10.9385 39.4406C5.16312 44.6606 4.71146 53.568 9.93147 59.3433C15.1515 65.1186 24.0588 65.5703 29.8342 60.3503C35.6095 55.1303 36.0612 46.2229 30.8411 40.4476Z" fill="white"></path><path fill-rule="evenodd" clip-rule="evenodd" d="M10.0573 62.2754L7.02156 58.9138C6.60692 58.4547 5.8813 58.4177 5.42223 58.8324L-1.7377 65.3037C-3.07047 66.5106 -3.17413 68.5912 -1.97464 69.924L-1.80434 70.1091C-0.597442 71.4418 1.48316 71.5455 2.81593 70.346L9.97586 63.8747C10.4349 63.46 10.4719 62.7344 10.0573 62.2754Z" fill="white"></path><path d="M9.24304 57.0803L3.64026 62.1445L6.51002 65.3194L12.1128 60.2552L9.24304 57.0803Z" fill="white"></path><path d="M12.9228 51.8574C12.1306 51.8574 11.4938 51.2206 11.4938 50.4284C11.4938 49.6361 12.1306 48.9994 12.9228 48.9994H14.263L17.7948 42.4318C18.165 41.7358 19.0313 41.4766 19.7273 41.8542C20.105 42.0541 20.3493 42.4021 20.4382 42.7872L22.652 50.7986L23.2814 49.3918C23.5183 48.8587 24.0366 48.5477 24.5846 48.5477H27.45C28.2423 48.5477 28.879 49.1845 28.879 49.9767C28.879 50.769 28.2423 51.4057 27.45 51.4057H25.5027L23.6516 55.5595C23.4887 55.952 23.1555 56.2629 22.7187 56.3814C21.9634 56.5887 21.1786 56.1445 20.9639 55.3892L18.6241 46.9188L16.4176 51.0207C16.1955 51.5168 15.692 51.8574 15.1145 51.8574H12.9228Z" fill="white"></path><path fill-rule="evenodd" clip-rule="evenodd" d="M23.952 12.3799L28.6361 20.0083L25.2274 22.1014L23.8743 19.8978L20.9382 24.465L17.5735 22.302L23.952 12.3799ZM33.2769 35.2107L27.2398 25.3787L30.6485 23.2857L36.6856 33.1177L33.2769 35.2107ZM17.8334 29.2948L13.1761 36.5395L9.8114 34.3764L14.4687 27.1318L17.8334 29.2948ZM61.5166 36.4694L57.1181 43.9728L53.6673 41.9499L58.0658 34.4465L61.5166 36.4694ZM41.3265 48.3201L35.2893 38.4881L38.698 36.395L44.7352 46.2271L41.3265 48.3201ZM54.1857 48.975L48.1016 59.3539L43.3389 51.5975L46.7476 49.5044L48.0221 51.58L50.7349 46.9521L54.1857 48.975Z" fill="white"></path></g></g><defs><linearGradient id="paint0_linear_3737_4253" x1="35" y1="0" x2="35" y2="70" gradientUnits="userSpaceOnUse"><stop stop-color="#921D41"></stop><stop offset="1" stop-color="#1D3792"></stop></linearGradient><clipPath id="clip0_3737_4253"><rect width="70" height="70" rx="10" fill="white"></rect></clipPath><clipPath id="clip1_3737_4253"><rect width="70" height="70" fill="white" transform="translate(-12 13)"></rect></clipPath></defs></svg>