<svg width="18" height="18" viewBox="0 0 18 18" fill="none" xmlns="http://www.w3.org/2000/svg">
<path d="M12.8018 3.26213V1.59546M5.30176 3.26213V1.59546M1.76009 5.76213H16.3434M1.55176 7.46546C1.55176 5.70296 1.55176 4.82129 1.91509 4.14796C2.24345 3.54724 2.75329 3.06569 3.37176 2.77213C4.08509 2.42879 5.01842 2.42879 6.88509 2.42879H11.2184C13.0851 2.42879 14.0184 2.42879 14.7318 2.77213C15.3593 3.07379 15.8684 3.55546 16.1884 4.14713C16.5518 4.82213 16.5518 5.70379 16.5518 7.46629V11.5596C16.5518 13.3221 16.5518 14.2038 16.1884 14.8771C15.8601 15.4778 15.3502 15.9594 14.7318 16.253C14.0184 16.5955 13.0851 16.5955 11.2184 16.5955H6.88509C5.01842 16.5955 4.08509 16.5955 3.37176 16.2521C2.75341 15.9588 2.24358 15.4775 1.91509 14.8771C1.55176 14.2021 1.55176 13.3205 1.55176 11.558V7.46546Z" stroke="#340458" stroke-width="1.25" stroke-linecap="round" stroke-linejoin="round"/>
</svg>
