<svg width="21" height="21" viewBox="0 0 21 21" fill="none" xmlns="http://www.w3.org/2000/svg">
<path fill-rule="evenodd" clip-rule="evenodd" d="M10.3027 11.9519C10.9454 11.9519 11.5617 11.6967 12.0162 11.2424C12.4707 10.7881 12.7262 10.1719 12.7266 9.5293C12.7266 8.88646 12.4712 8.26995 12.0166 7.81539C11.5621 7.36084 10.9456 7.10547 10.3027 7.10547C9.6599 7.10547 9.04338 7.36084 8.58883 7.81539C8.13427 8.26995 7.87891 8.88646 7.87891 9.5293C7.87923 10.1719 8.13474 10.7881 8.58926 11.2424C9.04378 11.6967 9.66011 11.9519 10.3027 11.9519Z" stroke="#340458" stroke-width="1.33333" stroke-linecap="square"/>
<path fill-rule="evenodd" clip-rule="evenodd" d="M17.5742 9.52933C17.5742 15.5853 11.5146 19.2186 10.3027 19.2186C9.09082 19.2186 3.03125 15.5853 3.03125 9.52933C3.03221 7.60156 3.79878 5.75308 5.16238 4.3904C6.52598 3.02771 8.37496 2.26237 10.3027 2.2627C14.3178 2.2627 17.5742 5.51668 17.5742 9.52933Z" stroke="#340458" stroke-width="1.33333" stroke-linecap="square"/>
</svg>
