<svg xmlns="http://www.w3.org/2000/svg" width="70" height="70" viewBox="0 0 70 70" fill="none"><rect width="70" height="70" rx="10" fill="url(#paint0_linear_3737_4339)"></rect><path d="M36.487 23.5187L47.6553 42.1203C49.2604 44.792 48.472 48.307 45.8937 49.9703C45.0283 50.5307 44.0196 50.8293 42.9887 50.8303H20.6504C17.6154 50.8303 15.1537 48.2803 15.1537 45.132C15.1537 44.067 15.442 43.0253 15.9837 42.1203L27.1537 23.5187C28.757 20.847 32.147 20.0287 34.7254 21.692C35.4387 22.152 36.042 22.777 36.487 23.5187ZM32.787 24.917C32.583 24.7858 32.3545 24.6972 32.1153 24.6568C31.8761 24.6163 31.6311 24.6248 31.3953 24.6817C31.1594 24.7385 30.9376 24.8426 30.7431 24.9876C30.5486 25.1326 30.3855 25.3155 30.2637 25.5253L19.0954 44.1303C18.9139 44.4335 18.8183 44.7803 18.8187 45.1337C18.8187 46.1837 19.6387 47.0337 20.652 47.0337H42.987C43.3304 47.0337 43.6654 46.9337 43.9554 46.747C44.3715 46.4705 44.6649 46.0441 44.7745 45.5567C44.8841 45.0693 44.8014 44.5583 44.5437 44.1303L33.3754 25.5253C33.2289 25.2804 33.0282 25.0723 32.7887 24.917H32.787ZM31.8204 44.1637C31.3783 44.1637 30.9544 43.9881 30.6418 43.6755C30.3293 43.3629 30.1537 42.939 30.1537 42.497C30.1537 42.055 30.3293 41.631 30.6418 41.3185C30.9544 41.0059 31.3783 40.8303 31.8204 40.8303C32.2624 40.8303 32.6863 41.0059 32.9989 41.3185C33.3114 41.631 33.487 42.055 33.487 42.497C33.487 42.939 33.3114 43.3629 32.9989 43.6755C32.6863 43.9881 32.2624 44.1637 31.8204 44.1637ZM31.8204 29.1637C32.2624 29.1637 32.6863 29.3393 32.9989 29.6518C33.3114 29.9644 33.487 30.3883 33.487 30.8303V37.497C33.487 37.939 33.3114 38.3629 32.9989 38.6755C32.6863 38.9881 32.2624 39.1637 31.8204 39.1637C31.3783 39.1637 30.9544 38.9881 30.6418 38.6755C30.3293 38.3629 30.1537 37.939 30.1537 37.497V30.8303C30.1537 30.3883 30.3293 29.9644 30.6418 29.6518C30.9544 29.3393 31.3783 29.1637 31.8204 29.1637Z" fill="white"></path><path d="M45.4215 15.8306L58.2191 28.6479" stroke="white" stroke-width="3" stroke-linecap="round" stroke-linejoin="round"></path><path d="M58.2191 15.8306L45.4215 28.6479" stroke="white" stroke-width="3" stroke-linecap="round" stroke-linejoin="round"></path><defs><linearGradient id="paint0_linear_3737_4339" x1="35" y1="0" x2="35" y2="70" gradientUnits="userSpaceOnUse"><stop stop-color="#921D41"></stop><stop offset="1" stop-color="#1D3792"></stop></linearGradient></defs></svg>