<svg xmlns="http://www.w3.org/2000/svg" width="70" height="70" viewBox="0 0 70 70" fill="none"><rect width="70" height="70" rx="10" fill="url(#paint0_linear_3737_4334)"></rect><g clip-path="url(#clip0_3737_4334)"><path fill-rule="evenodd" clip-rule="evenodd" d="M46.5752 46.3008C50.0752 47.5251 51.9133 51.3062 53.0229 55.6675C51.6591 55.0479 50.1779 54.748 48.643 54.8267C47.8119 54.866 46.9956 55.1659 46.6045 55.869C45.3238 54.9889 43.9404 54.2514 42.4739 53.6761L45.2896 48.6166L46.5801 46.3008H46.5752ZM25.9366 45.8828H27.4275C29.3682 47.9037 32.1252 49.6541 34.9556 49.6737C37.8055 49.6934 40.587 47.9233 42.5276 45.8828H43.999C44.0381 45.8828 44.0773 45.8828 44.1212 45.8828L40.1959 52.9337C38.5241 52.4961 36.7741 52.26 34.9654 52.26C30.6539 52.26 26.6454 53.5925 23.336 55.869C22.94 55.1659 22.1286 54.866 21.2976 54.8267C19.7577 54.7529 18.2815 55.0479 16.9176 55.6675C18.2668 50.3375 20.711 45.8828 25.9366 45.8828Z" fill="white"></path><path fill-rule="evenodd" clip-rule="evenodd" d="M44.2971 30.1729C44.3656 30.168 44.434 30.1631 44.5024 30.1631C44.5709 30.1631 44.6393 30.1631 44.7077 30.1729H44.2971ZM25.2423 30.1729C25.3108 30.168 25.3792 30.1631 25.4428 30.1631C25.5063 30.1631 25.5796 30.1631 25.6481 30.1729H25.2375H25.2423ZM45.133 37.209C44.3216 43.3748 39.0177 48.159 34.975 48.1295C30.9324 48.1 25.6334 43.365 24.8171 37.209C23.5412 36.8697 22.5733 35.5225 22.5146 33.8852C22.7835 34.1605 23.1012 34.3867 23.4483 34.544C26.8164 36.0781 30.5951 37.6859 34.3396 37.8433C34.6915 37.858 35.0435 37.858 35.4003 37.8433C39.1399 37.681 42.9186 36.0781 46.2916 34.544C46.7364 34.3425 47.1421 34.0229 47.4403 33.6393C47.4403 33.6688 47.4403 33.6983 47.4403 33.7278C47.4403 35.434 46.4529 36.8599 45.133 37.209Z" fill="white"></path><path fill-rule="evenodd" clip-rule="evenodd" d="M46.5067 57.9879C43.3146 55.5097 39.316 54.0347 34.9702 54.0347C30.6245 54.0347 26.6258 55.5097 23.4337 57.9879C23.6928 58.2878 23.9177 58.6172 24.1034 58.986C24.3576 59.4875 24.5238 60.0136 24.6167 60.5545C26.6894 58.8139 29.2069 57.5798 31.9639 57.0586C32.179 57.0192 32.3892 57.152 32.4478 57.3634C32.6336 58.0813 32.7558 58.809 32.8047 59.5367H37.1309C37.1797 58.8041 37.2971 58.0764 37.4877 57.3634C37.5415 57.1471 37.7517 57.0143 37.9717 57.0586C40.7336 57.5798 43.2462 58.809 45.3188 60.5545C45.4117 60.0136 45.5779 59.4875 45.8321 58.986C46.0179 58.6172 46.2427 58.2829 46.5018 57.9879" fill="white"></path><path fill-rule="evenodd" clip-rule="evenodd" d="M37.605 61.2036H32.3354C32.003 61.2036 31.7244 61.4642 31.7048 61.7986C31.5924 63.6424 31.1035 65.4469 30.2725 67.0941C29.7397 68.1463 29.07 69.1297 28.2732 70H41.6673C40.8753 69.1297 40.2008 68.1463 39.6679 67.0941C38.832 65.4469 38.3481 63.6424 38.2356 61.7986C38.2161 61.4642 37.9375 61.2036 37.605 61.2036Z" fill="white"></path><path fill-rule="evenodd" clip-rule="evenodd" d="M56.8945 65.0239C56.127 70.3391 51.4097 70.7127 48.3741 65.904C46.5752 63.0571 46.1499 59.2564 49.4348 58.096L48.3985 57.1863C48.1834 56.9847 47.7532 56.6406 48.726 56.5963C50.5836 56.5029 52.3385 57.0733 53.893 58.2287C56.0634 59.8415 57.3051 62.2065 56.8945 65.0288" fill="white"></path><path fill-rule="evenodd" clip-rule="evenodd" d="M13.0509 65.0239C13.8184 70.3391 18.5356 70.7127 21.5664 65.904C23.3653 63.0571 23.7906 59.2564 20.5056 58.096L21.5468 57.1863C21.7619 56.9847 22.1921 56.6406 21.2193 56.5963C19.3617 56.5029 17.6068 57.0733 16.0523 58.2287C13.8819 59.8415 12.6403 62.2065 13.0509 65.0288" fill="white"></path><path fill-rule="evenodd" clip-rule="evenodd" d="M34.892 23.1468C36.2706 23.1468 37.39 24.2727 37.39 25.6593C37.39 27.0459 36.2706 28.1718 34.892 28.1718C33.5135 28.1718 32.3941 27.0459 32.3941 25.6593C32.3941 24.2727 33.5135 23.1468 34.892 23.1468ZM23.6049 29.2142C21.5273 29.3371 20.9309 27.9358 22.4219 26.4165C33.1127 17.8119 36.7838 17.9053 47.3622 26.4165C48.8483 27.9358 48.2568 29.3322 46.1792 29.2142H45.7344V30.173H24.0546V29.2142H23.6097H23.6049Z" fill="white"></path><path fill-rule="evenodd" clip-rule="evenodd" d="M23.9616 31.5349C22.9008 31.5005 22.808 32.7592 24.0056 33.305C28.366 35.2914 31.4261 36.3584 34.3933 36.4862C34.7111 36.5009 35.0239 36.5009 35.3368 36.4862C38.304 36.3584 41.3641 35.2914 45.7245 33.305C46.9173 32.7592 46.8293 31.5005 45.7685 31.5349H23.9616Z" fill="white"></path></g><path d="M50.3901 9.18262L63.1878 21.9999" stroke="white" stroke-width="3" stroke-linecap="round" stroke-linejoin="round"></path><path d="M63.1878 9.18262L50.3901 21.9999" stroke="white" stroke-width="3" stroke-linecap="round" stroke-linejoin="round"></path><defs><linearGradient id="paint0_linear_3737_4334" x1="35" y1="0" x2="35" y2="70" gradientUnits="userSpaceOnUse"><stop stop-color="#921D41"></stop><stop offset="1" stop-color="#1D3792"></stop></linearGradient><clipPath id="clip0_3737_4334"><rect width="44" height="50" fill="white" transform="translate(12.9727 20)"></rect></clipPath></defs></svg>