<svg xmlns="http://www.w3.org/2000/svg" width="70" height="70" viewBox="0 0 70 70" fill="none"><g clip-path="url(#clip0_3737_4350)"><rect width="70" height="70" rx="10" fill="url(#paint0_linear_3737_4350)"></rect><path d="M31.8522 56.1567C30.7613 56.1567 29.7151 55.7233 28.9437 54.9519C28.1723 54.1805 27.7389 53.1343 27.7389 52.0434V43.8167M31.8522 56.1567V59.2417C31.8522 59.5144 31.9606 59.776 32.1534 59.9688C32.3463 60.1617 32.6078 60.27 32.8806 60.27C33.1533 60.27 33.4149 60.1617 33.6077 59.9688C33.8006 59.776 33.9089 59.5144 33.9089 59.2417V56.1567M31.8522 56.1567H33.9089M27.7389 43.8167V31.4767M27.7389 43.8167H44.1922M33.9089 56.1567H54.4756M56.5322 56.1567C57.6232 56.1567 58.6694 55.7233 59.4408 54.9519C60.2122 54.1805 60.6456 53.1343 60.6456 52.0434V43.8167M56.5322 56.1567V59.2417C56.5322 59.5144 56.4239 59.776 56.231 59.9688C56.0382 60.1617 55.7766 60.27 55.5039 60.27C55.2312 60.27 54.9696 60.1617 54.7768 59.9688C54.5839 59.776 54.4756 59.5144 54.4756 59.2417V56.1567M56.5322 56.1567H54.4756M60.6456 43.8167V31.4767M60.6456 43.8167H44.1922M27.7389 31.4767C27.7389 29.2948 28.6056 27.2023 30.1484 25.6595C31.6912 24.1167 33.7837 23.25 35.9656 23.25H52.4189C54.6008 23.25 56.6932 24.1167 58.236 25.6595C59.7788 27.2023 60.6456 29.2948 60.6456 31.4767M27.7389 31.4767H44.1922M44.1922 43.8167V31.4767M60.6456 31.4767H44.1922M35.9656 49.9867H35.9676M52.9656 49.9868H52.9676" stroke="white" stroke-width="3" stroke-linecap="round" stroke-linejoin="round"></path><path d="M23.0238 38.5625C27.2756 38.5625 31.3532 36.8735 34.3596 33.8671C37.3661 30.8606 39.0551 26.783 39.0551 22.5312C39.0551 18.2795 37.3661 14.2019 34.3596 11.1954C31.3532 8.189 27.2756 6.5 23.0238 6.5C18.7721 6.5 14.6944 8.189 11.688 11.1954C8.68156 14.2019 6.99255 18.2795 6.99255 22.5312C6.99255 26.783 8.68156 30.8606 11.688 33.8671C14.6944 36.8735 18.7721 38.5625 23.0238 38.5625ZM21.2426 15.4062C21.2426 14.9338 21.4302 14.4808 21.7643 14.1467C22.0983 13.8127 22.5514 13.625 23.0238 13.625C23.4962 13.625 23.9493 13.8127 24.2833 14.1467C24.6174 14.4808 24.8051 14.9338 24.8051 15.4062V22.5312C24.8051 23.0037 24.6174 23.4567 24.2833 23.7908C23.9493 24.1248 23.4962 24.3125 23.0238 24.3125C22.5514 24.3125 22.0983 24.1248 21.7643 23.7908C21.4302 23.4567 21.2426 23.0037 21.2426 22.5312V15.4062ZM25.2504 29.6562C25.2504 30.2468 25.0158 30.8131 24.5982 31.2307C24.1807 31.6482 23.6143 31.8828 23.0238 31.8828C22.4333 31.8828 21.8669 31.6482 21.4494 31.2307C21.0318 30.8131 20.7972 30.2468 20.7972 29.6562C20.7972 29.0657 21.0318 28.4994 21.4494 28.0818C21.8669 27.6643 22.4333 27.4297 23.0238 27.4297C23.6143 27.4297 24.1807 27.6643 24.5982 28.0818C25.0158 28.4994 25.2504 29.0657 25.2504 29.6562Z" fill="white"></path></g><defs><linearGradient id="paint0_linear_3737_4350" x1="35" y1="0" x2="35" y2="70" gradientUnits="userSpaceOnUse"><stop stop-color="#921D41"></stop><stop offset="1" stop-color="#1D3792"></stop></linearGradient><clipPath id="clip0_3737_4350"><rect width="70" height="70" rx="10" fill="white"></rect></clipPath></defs></svg>