<svg xmlns="http://www.w3.org/2000/svg" width="70" height="70" viewBox="0 0 70 70" fill="none"><g clip-path="url(#clip0_3737_4167)"><rect width="70" height="70" rx="10" fill="url(#paint0_linear_3737_4167)"></rect><path d="M61.4115 44.5415H37.9115V34.7498H61.4115M58.474 56.2915C57.695 56.2915 56.9478 55.982 56.3969 55.4311C55.846 54.8802 55.5365 54.1331 55.5365 53.354C55.5365 52.5749 55.846 51.8278 56.3969 51.2769C56.9478 50.726 57.695 50.4165 58.474 50.4165C59.2531 50.4165 60.0003 50.726 60.5512 51.2769C61.1021 51.8278 61.4115 52.5749 61.4115 53.354C61.4115 54.1331 61.1021 54.8802 60.5512 55.4311C60.0003 55.982 59.2531 56.2915 58.474 56.2915ZM40.849 56.2915C40.07 56.2915 39.3228 55.982 38.7719 55.4311C38.221 54.8802 37.9115 54.1331 37.9115 53.354C37.9115 52.5749 38.221 51.8278 38.7719 51.2769C39.3228 50.726 40.07 50.4165 40.849 50.4165C41.6281 50.4165 42.3753 50.726 42.9262 51.2769C43.4771 51.8278 43.7865 52.5749 43.7865 53.354C43.7865 54.1331 43.4771 54.8802 42.9262 55.4311C42.3753 55.982 41.6281 56.2915 40.849 56.2915ZM33.9949 54.3332C33.9949 56.0565 34.7586 57.6036 35.9532 58.6807V62.1665C35.9532 62.6859 36.1595 63.184 36.5268 63.5513C36.894 63.9185 37.3922 64.1248 37.9115 64.1248H39.8699C40.3893 64.1248 40.8874 63.9185 41.2546 63.5513C41.6219 63.184 41.8282 62.6859 41.8282 62.1665V60.2082H57.4949V62.1665C57.4949 62.6859 57.7012 63.184 58.0685 63.5513C58.4357 63.9185 58.9338 64.1248 59.4532 64.1248H61.4115C61.9309 64.1248 62.429 63.9185 62.7963 63.5513C63.1635 63.184 63.3699 62.6859 63.3699 62.1665V58.6807C64.5645 57.6036 65.3282 56.0565 65.3282 54.3332V34.7498C65.3282 27.8957 58.3174 26.9165 49.6615 26.9165C41.0057 26.9165 33.9949 27.8957 33.9949 34.7498V54.3332Z" fill="white"></path><path d="M27.5807 37.7937H31.5954V25.7497H27.5807V37.7937ZM29.5881 21.735C30.1568 21.735 30.6339 21.5423 31.0193 21.1569C31.4047 20.7715 31.5967 20.2951 31.5954 19.7276C31.5954 19.1589 31.4027 18.6818 31.0173 18.2964C30.6319 17.911 30.1555 17.719 29.5881 17.7203C29.0193 17.7203 28.5422 17.913 28.1568 18.2984C27.7714 18.6838 27.5794 19.1602 27.5807 19.7276C27.5807 20.2964 27.7734 20.7735 28.1588 21.1589C28.5442 21.5443 29.0207 21.7363 29.5881 21.735ZM29.5881 47.8304C26.8112 47.8304 24.2017 47.3032 21.7594 46.2486C19.3172 45.1941 17.1927 43.7642 15.3861 41.959C13.5795 40.1523 12.1496 38.0279 11.0964 35.5856C10.0432 33.1434 9.51599 30.5338 9.51465 27.757C9.51465 24.9802 10.0419 22.3706 11.0964 19.9284C12.151 17.4861 13.5809 15.3617 15.3861 13.5551C17.1927 11.7485 19.3172 10.3186 21.7594 9.26538C24.2017 8.21219 26.8112 7.68493 29.5881 7.68359C32.3649 7.68359 34.9744 8.21086 37.4167 9.26538C39.859 10.3199 41.9834 11.7498 43.79 13.5551C45.5966 15.3617 47.0272 17.4861 48.0817 19.9284C49.1362 22.3706 49.6628 24.9802 49.6615 27.757C49.6615 30.5338 49.1342 33.1434 48.0797 35.5856C47.0252 38.0279 45.5953 40.1523 43.79 41.959C41.9834 43.7656 39.859 45.1961 37.4167 46.2506C34.9744 47.3052 32.3649 47.8318 29.5881 47.8304ZM29.5881 43.8157C34.0711 43.8157 37.8683 42.2601 40.9797 39.1487C44.0911 36.0373 45.6468 32.2401 45.6468 27.757C45.6468 23.2739 44.0911 19.4767 40.9797 16.3653C37.8683 13.254 34.0711 11.6983 29.5881 11.6983C25.105 11.6983 21.3078 13.254 18.1964 16.3653C15.085 19.4767 13.5293 23.2739 13.5293 27.757C13.5293 32.2401 15.085 36.0373 18.1964 39.1487C21.3078 42.2601 25.105 43.8157 29.5881 43.8157Z" fill="white"></path><path fill-rule="evenodd" clip-rule="evenodd" d="M16.2725 37.9575L40.9443 13.2856L43.4677 15.809L18.7958 40.4809L16.2725 37.9575Z" fill="white"></path></g><defs><linearGradient id="paint0_linear_3737_4167" x1="35" y1="0" x2="35" y2="70" gradientUnits="userSpaceOnUse"><stop stop-color="#921D41"></stop><stop offset="1" stop-color="#1D3792"></stop></linearGradient><clipPath id="clip0_3737_4167"><rect width="70" height="70" rx="10" fill="white"></rect></clipPath></defs></svg>