<svg xmlns="http://www.w3.org/2000/svg" width="70" height="70" viewBox="0 0 70 70" fill="none"><g clip-path="url(#clip0_3737_4180)"><rect width="70" height="70" rx="10" fill="url(#paint0_linear_3737_4180)"></rect><g clip-path="url(#clip1_3737_4180)"><path d="M26.4267 13.5358C24.4741 11.5832 21.1764 11.7144 19.0601 13.8308L-12.4771 45.368C-14.4217 47.3126 -14.4168 50.4741 -12.4642 52.4267L19.355 84.2459C20.2897 85.1831 21.5581 85.7109 22.8817 85.7134C24.2053 85.7158 25.4757 85.1926 26.4137 84.2589L57.951 52.7216C60.0673 50.6053 60.1986 47.3077 58.2459 45.355L26.4267 13.5358ZM36.6809 35.1008C37.1204 35.5403 37.3672 36.1363 37.3672 36.7577C37.3672 37.3792 37.1204 37.9752 36.6809 38.4146C36.2415 38.8541 35.6455 39.101 35.024 39.101C34.4025 39.101 33.8065 38.8541 33.3671 38.4146C32.9279 37.9754 32.6811 37.3797 32.6811 36.7585C32.6811 36.1374 32.9279 35.5417 33.3671 35.1024C33.8063 34.6632 34.402 34.4165 35.0232 34.4165C35.6444 34.4165 36.2417 34.6616 36.6809 35.1008ZM29.094 30.7807C29.2986 31.0123 29.4554 31.2822 29.5553 31.5747C29.6551 31.8672 29.6961 32.1766 29.6758 32.485C29.6555 32.7935 29.5744 33.0948 29.4371 33.3718C29.2998 33.6487 29.109 33.8957 28.8758 34.0985C28.6426 34.3014 28.3715 34.4561 28.0783 34.5537C27.785 34.6513 27.4753 34.6898 27.167 34.6672C26.8587 34.6445 26.558 34.561 26.2822 34.4216C26.0063 34.2821 25.7608 34.0895 25.5598 33.8547C25.1519 33.3858 24.947 32.7741 24.9902 32.1542C25.0333 31.5342 25.321 30.9568 25.7899 30.549C26.2587 30.1411 26.8704 29.9362 27.4904 29.9794C28.1103 30.0225 28.6861 30.3118 29.094 30.7807ZM40.9994 42.6862C41.3204 42.9644 41.5595 43.3249 41.691 43.7288C41.8225 44.1327 41.8415 44.5648 41.7458 44.9787C41.6502 45.3926 41.4436 45.7726 41.1482 46.0779C40.8528 46.3831 40.4798 46.6022 40.0693 46.7114C39.6793 46.8154 39.2689 46.8168 38.8782 46.7153C38.4875 46.6139 38.1297 46.4131 37.8395 46.1324C37.5494 45.8518 37.3368 45.5008 37.2224 45.1137C37.108 44.7266 37.0957 44.3164 37.1867 43.9232C37.2777 43.5299 37.4689 43.1668 37.7417 42.8693C38.0145 42.5718 38.3597 42.3499 38.7436 42.2252C39.1276 42.1005 39.5372 42.0773 39.9328 42.1578C40.3283 42.2383 40.6947 42.4214 40.9994 42.6862ZM19.9822 30.549C20.2143 30.7503 20.4046 30.9953 20.542 31.2702C20.6795 31.545 20.7615 31.8442 20.7833 32.1507C20.8051 32.4572 20.7663 32.7651 20.6692 33.0566C20.572 33.3481 20.4184 33.6177 20.2171 33.8498C20.0158 34.082 19.7707 34.2722 19.4959 34.4097C19.2211 34.5471 18.9219 34.6291 18.6154 34.6509C18.3088 34.6728 18.001 34.634 17.7095 34.5369C17.418 34.4397 17.1484 34.2861 16.9163 34.0848C16.4476 33.6784 16.1595 33.1026 16.1155 32.4838C16.0714 31.8651 16.2749 31.2542 16.6813 30.7856C17.0876 30.3169 17.6635 30.0288 18.2823 29.9848C18.901 29.9407 19.5135 30.1426 19.9822 30.549ZM41.2312 51.798C41.4327 52.0297 41.5866 52.2989 41.6841 52.5901C41.7816 52.8813 41.8208 53.1889 41.7994 53.4952C41.778 53.8016 41.6965 54.1008 41.5596 54.3756C41.4226 54.6505 41.2328 54.8957 41.0011 55.0972C40.7693 55.2987 40.5001 55.4526 40.2089 55.5501C39.9177 55.6476 39.6101 55.6868 39.3038 55.6655C38.9974 55.6441 38.6983 55.5626 38.4234 55.4256C38.1485 55.2886 37.9033 55.0988 37.7018 54.8671C37.3002 54.3986 37.1002 53.7903 37.1454 53.1749C37.1905 52.5595 37.4772 51.9869 37.9428 51.582C38.4084 51.1771 39.0153 50.9727 39.631 51.0135C40.2467 51.0543 40.823 51.3352 41.2312 51.798ZM28.8946 39.8374C29.3584 40.25 29.6392 40.8299 29.6754 41.4495C29.7115 42.0692 29.5001 42.6778 29.0875 43.1415C28.6749 43.6052 28.095 43.8861 27.4754 43.9222C26.8557 43.9584 26.2471 43.7469 25.7834 43.3343C25.3192 42.9218 25.038 42.3417 25.0015 41.7218C24.965 41.1018 25.1763 40.4928 25.5889 40.0286C26.0015 39.5645 26.5816 39.2832 27.2015 39.2467C27.8215 39.2103 28.4305 39.4216 28.8946 39.8342L28.8946 39.8374ZM33.4433 47.238C33.8823 47.6766 34.1291 48.2716 34.1294 48.8922C34.1297 49.5127 33.8835 50.108 33.4449 50.547C33.0063 50.986 32.4113 51.2328 31.7907 51.2331C31.1702 51.2334 30.5749 50.9872 30.1359 50.5486C29.6969 50.1096 29.4503 49.5142 29.4503 48.8933C29.4503 48.2724 29.6969 47.677 30.1359 47.238C30.5749 46.799 31.1704 46.5524 31.7912 46.5524C32.4121 46.5524 33.0075 46.799 33.4465 47.238L33.4433 47.238ZM20.2009 40.0367C20.4053 40.2664 20.5625 40.5342 20.6634 40.8246C20.7643 41.1151 20.807 41.4226 20.7891 41.7295C20.7712 42.0365 20.693 42.3369 20.559 42.6137C20.425 42.8904 20.2378 43.138 20.0081 43.3424C19.7784 43.5468 19.5106 43.704 19.2202 43.8049C18.9297 43.9058 18.6222 43.9486 18.3153 43.9307C18.0083 43.9128 17.7079 43.8346 17.4311 43.7006C17.1544 43.5665 16.9068 43.3793 16.7024 43.1496C16.2898 42.6855 16.0785 42.0764 16.1149 41.4565C16.1514 40.8365 16.4327 40.2565 16.8968 39.8439C17.361 39.4313 17.97 39.22 18.5899 39.2565C19.2099 39.2929 19.79 39.5742 20.2025 40.0383L20.2009 40.0367ZM24.5454 47.2331C24.985 47.6732 25.2318 48.2699 25.2315 48.892C25.2312 49.5141 24.9838 50.1106 24.5437 50.5502C24.1036 50.9899 23.5069 51.2367 22.8849 51.2364C22.2628 51.2361 21.6663 50.9887 21.2267 50.5486C21.009 50.3307 20.8363 50.072 20.7186 49.7874C20.6009 49.5028 20.5403 49.1977 20.5405 48.8897C20.5406 48.5817 20.6015 48.2767 20.7195 47.9922C20.8375 47.7077 21.0104 47.4492 21.2283 47.2315C21.4462 47.0138 21.7048 46.8412 21.9895 46.7235C22.2741 46.6057 22.5791 46.5452 22.8872 46.5454C23.1952 46.5455 23.5001 46.6063 23.7847 46.7243C24.0692 46.8423 24.3277 47.0152 24.5454 47.2331ZM12.4082 35.1024C12.6255 35.32 12.7979 35.5783 12.9155 35.8625C13.033 36.1467 13.0935 36.4513 13.0933 36.7589C13.0932 37.0664 13.0324 37.371 12.9146 37.6551C12.7968 37.9392 12.6241 38.1973 12.4065 38.4146C12.1889 38.632 11.9307 38.8044 11.6465 38.922C11.3623 39.0395 11.0577 39.1 10.7501 39.0998C10.4425 39.0997 10.138 39.0389 9.85391 38.9211C9.56981 38.8033 9.31171 38.6306 9.09433 38.413C8.65511 37.9738 8.40835 37.3781 8.40835 36.7569C8.40835 36.1358 8.65511 35.54 9.09433 35.1008C9.53356 34.6616 10.1293 34.4148 10.7504 34.4148C11.3716 34.4148 11.9689 34.6632 12.4082 35.1024ZM36.6777 59.372C36.8948 59.5893 37.0671 59.8474 37.1845 60.1313C37.302 60.4152 37.3623 60.7195 37.3622 61.0268C37.362 61.3341 37.3014 61.6383 37.1836 61.9221C37.0659 62.2059 36.8934 62.4638 36.6761 62.6809C36.4587 62.8981 36.2007 63.0703 35.9167 63.1878C35.6328 63.3052 35.3285 63.3656 35.0212 63.3654C34.714 63.3653 34.4098 63.3046 34.1259 63.1869C33.8421 63.0692 33.5843 62.8967 33.3671 62.6793C32.9283 62.2405 32.6818 61.6454 32.6818 61.0248C32.6818 60.4043 32.9283 59.8091 33.3671 59.3703C33.8059 58.9315 34.401 58.685 35.0216 58.685C35.6421 58.685 36.2373 58.9315 36.6761 59.3703L36.6777 59.372ZM29.1037 54.6532C29.3079 54.8827 29.4648 55.1502 29.5657 55.4404C29.6665 55.7305 29.7091 56.0377 29.6912 56.3444C29.6733 56.651 29.5952 56.9512 29.4613 57.2276C29.3274 57.5041 29.1404 57.7515 28.9109 57.9557C28.6813 58.1599 28.4139 58.3168 28.1237 58.4177C27.8335 58.5185 27.5263 58.5611 27.2197 58.5432C26.913 58.5253 26.6129 58.4472 26.3364 58.3133C26.0599 58.1794 25.8126 57.9924 25.6084 57.7629C25.1962 57.2991 24.9852 56.6907 25.0216 56.0713C25.0581 55.452 25.3391 54.8725 25.8028 54.4604C26.2665 54.0482 26.875 53.8372 27.4943 53.8736C28.1137 53.9101 28.6932 54.1911 29.1053 54.6548L29.1037 54.6532ZM15.641 47.238C15.8581 47.4554 16.0303 47.7134 16.1478 47.9973C16.2652 48.2813 16.3256 48.5856 16.3255 48.8928C16.3253 49.2001 16.2646 49.5043 16.1469 49.7881C16.0292 50.072 15.8567 50.3298 15.6393 50.547C15.422 50.7641 15.1639 50.9364 14.88 51.0538C14.5961 51.1713 14.2918 51.2316 13.9845 51.2315C13.6773 51.2313 13.373 51.1707 13.0892 51.0529C12.8054 50.9352 12.5475 50.7627 12.3304 50.5454C11.8916 50.1066 11.6451 49.5114 11.6451 48.8909C11.6451 48.2703 11.8916 47.6752 12.3304 47.2364C12.7692 46.7976 13.3643 46.5511 13.9849 46.5511C14.6054 46.5511 15.2005 46.7976 15.6393 47.2364L15.641 47.238ZM19.9919 54.4506C20.2215 54.6547 20.4087 54.902 20.5427 55.1784C20.6767 55.4548 20.755 55.755 20.7731 56.0616C20.7911 56.3683 20.7486 56.6755 20.6479 56.9657C20.5473 57.256 20.3904 57.5235 20.1863 57.7531C19.9823 57.9827 19.735 58.1699 19.4585 58.3039C19.1821 58.438 18.882 58.5163 18.5754 58.5343C18.2687 58.5524 17.9615 58.5099 17.6713 58.4092C17.381 58.3085 17.1135 58.1517 16.8838 57.9476C16.4201 57.5354 16.1391 56.956 16.1027 56.3366C16.0662 55.7173 16.2772 55.1088 16.6894 54.6451C17.1015 54.1814 17.681 53.9004 18.3004 53.8639C18.9197 53.8274 19.5282 54.0385 19.9919 54.4506ZM8.07993 42.9146C8.41203 43.2922 8.61352 43.7668 8.65449 44.268C8.69546 44.7692 8.57371 45.2702 8.30734 45.6967C8.04096 46.1232 7.64415 46.4524 7.17581 46.6355C6.70748 46.8186 6.19259 46.8458 5.70759 46.713C5.35365 46.6185 5.0268 46.4424 4.75329 46.1987C4.47979 45.955 4.26726 45.6506 4.13279 45.3098C3.99832 44.9691 3.94565 44.6015 3.97901 44.2367C4.01237 43.872 4.13084 43.5201 4.32489 43.2094C4.51895 42.8987 4.78318 42.6378 5.09635 42.4478C5.40952 42.2578 5.7629 42.1438 6.12809 42.1152C6.49329 42.0865 6.86012 42.1439 7.1991 42.2827C7.53809 42.4216 7.83978 42.638 8.07993 42.9146ZM28.8655 63.7002C29.1088 63.8985 29.3099 64.1436 29.4566 64.4211C29.6034 64.6986 29.6928 65.0028 29.7197 65.3156C29.7465 65.6283 29.7102 65.9433 29.6129 66.2418C29.5157 66.5402 29.3594 66.8161 29.1534 67.0529C28.9474 67.2898 28.6959 67.4828 28.4138 67.6206C28.1317 67.7583 27.8248 67.8379 27.5113 67.8547C27.1979 67.8715 26.8842 67.8251 26.5891 67.7182C26.2939 67.6114 26.0232 67.4463 25.7931 67.2328C25.3473 66.8192 25.0799 66.2484 25.0474 65.6411C25.0149 65.0339 25.2199 64.4378 25.619 63.979C26.018 63.5201 26.5799 63.2345 27.1858 63.1825C27.7917 63.1304 28.394 63.3161 28.8655 63.7002ZM7.84983 51.5646C8.31827 51.972 8.60569 52.5489 8.64884 53.1682C8.69199 53.7875 8.48735 54.3987 8.07993 54.8671C7.67251 55.3356 7.09568 55.623 6.47634 55.6661C5.85701 55.7093 5.2459 55.5046 4.77745 55.0972C4.54549 54.8955 4.35554 54.65 4.21845 54.3749C4.08135 54.0997 3.99979 53.8003 3.97843 53.4936C3.93527 52.8743 4.13992 52.2632 4.54734 51.7947C4.74908 51.5628 4.99452 51.3728 5.26967 51.2357C5.54481 51.0986 5.84426 51.0171 6.15092 50.9957C6.45759 50.9743 6.76546 51.0136 7.05695 51.1112C7.34845 51.2088 7.61787 51.3629 7.84983 51.5646ZM20.2139 63.9287C20.546 64.3063 20.7475 64.7809 20.7884 65.282C20.8294 65.7832 20.7077 66.2842 20.4413 66.7107C20.1749 67.1372 19.7781 67.4665 19.3098 67.6495C18.8414 67.8326 18.3265 67.8598 17.8415 67.727C17.4876 67.6326 17.1607 67.4564 16.8872 67.2128C16.6137 66.9691 16.4012 66.6646 16.2667 66.3239C16.1323 65.9831 16.0796 65.6156 16.113 65.2508C16.1463 64.886 16.2648 64.5341 16.4589 64.2234C16.6529 63.9127 16.9171 63.6519 17.2303 63.4618C17.5435 63.2718 17.8968 63.1579 18.262 63.1292C18.6272 63.1005 18.9941 63.1579 19.3331 63.2968C19.672 63.4356 19.9737 63.6521 20.2139 63.9287ZM12.4179 59.3639C12.6355 59.5815 12.8081 59.8398 12.9258 60.1241C13.0436 60.4084 13.1042 60.7131 13.1042 61.0208C13.1042 61.3285 13.0436 61.6332 12.9258 61.9175C12.8081 62.2018 12.6355 62.4601 12.4179 62.6777C12.2003 62.8953 11.942 63.0679 11.6577 63.1856C11.3734 63.3034 11.0687 63.364 10.761 63.364C10.4533 63.364 10.1485 63.3034 9.86425 63.1856C9.57996 63.0679 9.32164 62.8953 9.10405 62.6777C8.66461 62.2382 8.41774 61.6422 8.41774 61.0208C8.41774 60.3993 8.66461 59.8033 9.10405 59.3639C9.54349 58.9244 10.1395 58.6775 10.761 58.6775C11.3824 58.6775 11.9784 58.9244 12.4179 59.3639Z" fill="white"></path></g></g><defs><linearGradient id="paint0_linear_3737_4180" x1="35" y1="0" x2="35" y2="70" gradientUnits="userSpaceOnUse"><stop stop-color="#921D41"></stop><stop offset="1" stop-color="#1D3792"></stop></linearGradient><clipPath id="clip0_3737_4180"><rect width="70" height="70" rx="10" fill="white"></rect></clipPath><clipPath id="clip1_3737_4180"><rect width="55" height="55" fill="white" transform="translate(22.8909 10) rotate(45)"></rect></clipPath></defs></svg>