<svg xmlns="http://www.w3.org/2000/svg" width="70" height="70" viewBox="0 0 70 70" fill="none"><g clip-path="url(#clip0_3737_4185)"><rect width="70" height="70" rx="10" fill="url(#paint0_linear_3737_4185)"></rect><path d="M50.67 50.8788C48.0122 50.8788 45.7361 49.9316 43.8417 48.0373C41.9474 46.143 41.0018 43.8685 41.0051 41.2138C41.0051 38.5559 41.9522 36.2798 43.8466 34.3855C45.7409 32.4912 48.0154 31.5456 50.67 31.5488C53.3279 31.5488 55.604 32.496 57.4984 34.3903C59.3927 36.2847 60.3382 38.5592 60.335 41.2138C60.335 43.8717 59.3879 46.1478 57.4935 48.0421C55.5992 49.9365 53.3247 50.882 50.67 50.8788ZM31.3401 70.2088V67.4301C31.3401 65.4971 31.8636 63.7252 32.9107 62.1143C33.9577 60.5035 35.4074 59.2954 37.2599 58.49C39.354 57.604 41.5076 56.9194 43.7209 56.4362C45.9342 55.9529 48.2506 55.7113 50.67 55.7113C53.0863 55.7113 55.4011 55.9529 57.6143 56.4362C59.8276 56.9194 61.9829 57.604 64.0802 58.49C65.9327 59.2954 67.3824 60.5035 68.4294 62.1143C69.4765 63.7252 70 65.4971 70 67.4301V70.2088H31.3401Z" fill="white"></path><path d="M29.0507 41.5857H33.0654V29.5417H29.0507V41.5857ZM31.058 25.527C31.6268 25.527 32.1039 25.3343 32.4893 24.9489C32.8747 24.5635 33.0667 24.087 33.0654 23.5196C33.0654 22.9509 32.8727 22.4738 32.4873 22.0884C32.1019 21.703 31.6254 21.511 31.058 21.5123C30.4893 21.5123 30.0122 21.705 29.6268 22.0904C29.2414 22.4758 29.0494 22.9522 29.0507 23.5196C29.0507 24.0884 29.2434 24.5655 29.6288 24.9509C30.0142 25.3363 30.4906 25.5283 31.058 25.527ZM31.058 51.6224C28.2812 51.6224 25.6717 51.0952 23.2294 50.0406C20.7871 48.9861 18.6627 47.5562 16.8561 45.7509C15.0495 43.9443 13.6196 41.8199 12.5664 39.3776C11.5132 36.9354 10.986 34.3258 10.9846 31.549C10.9846 28.7722 11.5119 26.1626 12.5664 23.7204C13.6209 21.2781 15.0508 19.1537 16.8561 17.3471C18.6627 15.5405 20.7871 14.1106 23.2294 13.0574C25.6717 12.0042 28.2812 11.4769 31.058 11.4756C33.8349 11.4756 36.4444 12.0028 38.8867 13.0574C41.3289 14.1119 43.4534 15.5418 45.26 17.3471C47.0666 19.1537 48.4972 21.2781 49.5517 23.7204C50.6062 26.1626 51.1328 28.7722 51.1315 31.549C51.1315 34.3258 50.6042 36.9354 49.5497 39.3776C48.4951 41.8199 47.0652 43.9443 45.26 45.7509C43.4534 47.5576 41.3289 48.9881 38.8867 50.0426C36.4444 51.0972 33.8349 51.6238 31.058 51.6224ZM31.058 47.6077C35.5411 47.6077 39.3383 46.052 42.4497 42.9407C45.5611 39.8293 47.1168 36.0321 47.1168 31.549C47.1168 27.0659 45.5611 23.2687 42.4497 20.1573C39.3383 17.046 35.5411 15.4903 31.058 15.4903C26.575 15.4903 22.7778 17.046 19.6664 20.1573C16.555 23.2687 14.9993 27.0659 14.9993 31.549C14.9993 36.0321 16.555 39.8293 19.6664 42.9407C22.7778 46.052 26.575 47.6077 31.058 47.6077Z" fill="white"></path><path fill-rule="evenodd" clip-rule="evenodd" d="M17.7424 41.7495L42.4143 17.0776L44.9377 19.601L20.2658 44.2729L17.7424 41.7495Z" fill="white"></path></g><defs><linearGradient id="paint0_linear_3737_4185" x1="35" y1="0" x2="35" y2="70" gradientUnits="userSpaceOnUse"><stop stop-color="#921D41"></stop><stop offset="1" stop-color="#1D3792"></stop></linearGradient><clipPath id="clip0_3737_4185"><rect width="70" height="70" rx="10" fill="white"></rect></clipPath></defs></svg>