<svg xmlns="http://www.w3.org/2000/svg" width="70" height="70" viewBox="0 0 70 70" fill="none"><g clip-path="url(#clip0_3737_4507)"><rect width="70" height="70" rx="10" fill="url(#paint0_linear_3737_4507)"></rect><path d="M74.0662 20.1451L57.91 11.305C57.4783 11.0665 56.9932 10.9414 56.5 10.9414C56.0068 10.9414 55.5217 11.0665 55.09 11.305L38.9337 20.1488C38.4724 20.4012 38.0872 20.7729 37.8185 21.225C37.5498 21.6772 37.4074 22.1931 37.4062 22.7191V40.278C37.4074 40.8039 37.5498 41.3199 37.8185 41.772C38.0872 42.2241 38.4724 42.5958 38.9337 42.8483L55.09 51.692C55.5217 51.9305 56.0068 52.0556 56.5 52.0556C56.9932 52.0556 57.4783 51.9305 57.91 51.692L74.0662 42.8483C74.5276 42.5958 74.9128 42.2241 75.1815 41.772C75.4502 41.3199 75.5926 40.8039 75.5938 40.278V22.7209C75.5935 22.194 75.4516 21.6769 75.1829 21.2237C74.9141 20.7705 74.5285 20.398 74.0662 20.1451ZM56.5 13.8754L71.2499 21.9535L65.7843 24.9461L51.0326 16.8679L56.5 13.8754ZM56.5 30.0316L41.7501 21.9535L47.9739 18.546L62.7238 26.6241L56.5 30.0316ZM40.3438 24.5238L55.0312 32.5615V48.312L40.3438 40.2798V24.5238ZM72.6562 40.2725L57.9688 48.312V32.5689L63.8438 29.3541V35.9066C63.8438 36.2961 63.9985 36.6697 64.2739 36.9452C64.5494 37.2206 64.923 37.3754 65.3125 37.3754C65.702 37.3754 66.0756 37.2206 66.3511 36.9452C66.6265 36.6697 66.7812 36.2961 66.7812 35.9066V27.7459L72.6562 24.5238V40.2706V40.2725Z" fill="white"></path><path d="M35.9135 41.6908C35.644 41.2183 35.0445 41.0783 34.577 41.3817C33.6695 41.9942 32.6796 42.4492 31.6566 42.7583L30.7875 38.4475C30.3806 36.4583 28.6811 35 26.7451 35C25.6451 35 24.6 35.4492 23.8246 36.2892L23.4945 36.6158L23.1645 36.2892C22.389 35.4492 21.3496 35 20.2441 35C18.3081 35 16.6086 36.4583 16.2016 38.4475L15.3326 42.7583C14.3096 42.4492 13.3196 42 12.4121 41.3817C11.9666 41.0725 11.3671 41.2183 11.0756 41.6908C10.7841 42.1808 10.9216 42.8167 11.3671 43.1083C13.5946 44.6017 16.0476 45.325 18.5775 45.325H28.4005C30.9305 45.325 33.3835 44.6017 35.611 43.1083C36.0565 42.8225 36.1885 42.1867 35.9025 41.6908H35.9135Z" fill="white"></path><path d="M21.564 47.3721H15.7669C15.2334 47.3721 14.799 47.8329 14.799 48.3987C14.799 50.0962 16.097 51.4729 17.6975 51.4729H19.6334C21.2339 51.4729 22.5319 50.0962 22.5319 48.3987C22.5319 47.8329 22.0974 47.3721 21.564 47.3721Z" fill="white"></path><path d="M31.233 47.3721H25.4305C24.897 47.3721 24.4625 47.8329 24.4625 48.3987C24.4625 50.0962 25.7605 51.4729 27.361 51.4729H29.297C30.8975 51.4729 32.1955 50.0962 32.1955 48.3987C32.1955 47.8329 31.761 47.3721 31.2275 47.3721H31.233Z" fill="white"></path><path d="M29.3025 53.5268H27.3664C25.7769 53.5268 24.38 52.6985 23.5 51.4443C22.62 52.6985 21.2174 53.5268 19.6334 53.5268H17.6975C16.603 53.5268 15.6075 53.1243 14.799 52.4768V54.5535C14.799 59.6518 18.693 63.7818 23.5 63.7818C28.307 63.7818 32.201 59.6518 32.201 54.5535V52.4768C31.3925 53.1302 30.3914 53.5268 29.3025 53.5268ZM26.1179 59.3777C25.7384 59.7802 25.128 59.7802 24.7485 59.3777C24.061 58.6485 22.9389 58.6485 22.2459 59.3777C21.8664 59.7802 21.2559 59.7802 20.8765 59.3777C20.4969 58.9752 20.4969 58.3277 20.8765 57.9252C22.3175 56.3968 24.6659 56.3968 26.1125 57.9252C26.492 58.3277 26.492 58.9752 26.1125 59.3777H26.1179Z" fill="white"></path></g><defs><linearGradient id="paint0_linear_3737_4507" x1="35" y1="0" x2="35" y2="70" gradientUnits="userSpaceOnUse"><stop stop-color="#921D41"></stop><stop offset="1" stop-color="#1D3792"></stop></linearGradient><clipPath id="clip0_3737_4507"><rect width="70" height="70" rx="10" fill="white"></rect></clipPath></defs></svg>