<svg xmlns="http://www.w3.org/2000/svg" width="70" height="70" viewBox="0 0 70 70" fill="none"><g clip-path="url(#clip0_3737_4485)"><rect width="70" height="70" rx="10" fill="url(#paint0_linear_3737_4485)"></rect><path d="M33.6156 54.0707C33.6156 54.949 33.2667 55.7914 32.6456 56.4125C32.0245 57.0336 31.1821 57.3826 30.3037 57.3826C29.4253 57.3826 28.583 57.0336 27.9619 56.4125C27.3408 55.7914 26.9918 54.949 26.9918 54.0707C26.9918 53.1923 27.3408 52.3499 27.9619 51.7288C28.583 51.1077 29.4253 50.7588 30.3037 50.7588C31.1821 50.7588 32.0245 51.1077 32.6456 51.7288C33.2667 52.3499 33.6156 53.1923 33.6156 54.0707ZM17.0562 54.0707C17.0562 54.949 16.7072 55.7914 16.0861 56.4125C15.465 57.0336 14.6226 57.3826 13.7443 57.3826C12.8659 57.3826 12.0235 57.0336 11.4024 56.4125C10.7813 55.7914 10.4324 54.949 10.4324 54.0707C10.4324 53.1923 10.7813 52.3499 11.4024 51.7288C12.0235 51.1077 12.8659 50.7588 13.7443 50.7588C14.6226 50.7588 15.465 51.1077 16.0861 51.7288C16.7072 52.3499 17.0562 53.1923 17.0562 54.0707Z" stroke="white" stroke-width="3" stroke-linecap="round" stroke-linejoin="round"></path><path d="M33.6156 54.0706H36.9275V35.8552C36.9275 35.416 36.753 34.9948 36.4425 34.6842C36.1319 34.3737 35.7107 34.1992 35.2715 34.1992H20.368V54.0706M26.9918 54.0706H17.0562M10.4324 54.0706H7.12048V44.1349M7.12048 44.1349H20.368M7.12048 44.1349L12.0883 35.8552H20.368" stroke="white" stroke-width="3" stroke-linecap="round" stroke-linejoin="round"></path><path d="M28.1176 10.8037L38.8676 21.5537" stroke="white" stroke-width="3" stroke-linecap="round" stroke-linejoin="round"></path><path d="M38.8676 10.8037L28.1176 21.5537" stroke="white" stroke-width="3" stroke-linecap="round" stroke-linejoin="round"></path><path d="M14.9104 24.7136L18.932 24.7136C19.0278 24.1071 19.2116 23.5722 19.4836 23.1087C19.7555 22.6453 20.0824 22.2227 20.4641 21.841C20.8471 21.4579 21.2704 21.1305 21.7338 20.8585C22.1973 20.5866 22.7156 20.4193 23.2889 20.3568L23.3367 16.2872C22.2196 16.383 21.1663 16.6702 20.1768 17.149C19.1874 17.6278 18.3256 18.2342 17.5915 18.9683C16.8574 19.7025 16.2586 20.5566 15.7951 21.5307C15.3317 22.5049 15.0368 23.5658 14.9104 24.7136ZM6.72341 24.7615L10.8408 24.7615C10.9366 23.0698 11.3273 21.4816 12.0129 19.9967C12.6985 18.5119 13.6005 17.2116 14.7189 16.0957C15.836 14.9786 17.128 14.0849 18.595 13.4146C20.0619 12.7443 21.6425 12.3613 23.3367 12.2656L23.3367 8.14813C21.0706 8.24389 18.9633 8.73862 17.015 9.63232C15.0668 10.526 13.3438 11.723 11.8462 13.2231C10.3461 14.7232 9.14151 16.4551 8.23249 18.4187C7.32346 20.3823 6.82044 22.4966 6.72341 24.7615Z" fill="white"></path><path d="M71.3287 37.8192L58.61 30.6719C58.2702 30.4791 57.8883 30.3779 57.5 30.3779C57.1117 30.3779 56.7298 30.4791 56.39 30.6719L43.6712 37.8222C43.308 38.0263 43.0048 38.3268 42.7933 38.6923C42.5818 39.0579 42.4697 39.4751 42.4688 39.9003V54.0969C42.4697 54.5221 42.5818 54.9393 42.7933 55.3048C43.0048 55.6704 43.308 55.9709 43.6712 56.175L56.39 63.3252C56.7298 63.5181 57.1117 63.6192 57.5 63.6192C57.8883 63.6192 58.2702 63.5181 58.61 63.3252L71.3287 56.175C71.692 55.9709 71.9952 55.6704 72.2067 55.3048C72.4182 54.9393 72.5303 54.5221 72.5312 54.0969V39.9018C72.5311 39.4758 72.4194 39.0577 72.2078 38.6913C71.9962 38.3249 71.6926 38.0237 71.3287 37.8192ZM57.5 32.7501L69.1116 39.2813L64.8089 41.7008L53.1959 35.1696L57.5 32.7501ZM57.5 45.8126L45.8884 39.2813L50.788 36.5263L62.3996 43.0576L57.5 45.8126ZM44.7812 41.3594L56.3438 47.858V60.5925L44.7812 54.0983V41.3594ZM70.2188 54.0924L58.6562 60.5925V47.864L63.2812 45.2648V50.5626C63.2812 50.8775 63.4031 51.1795 63.6199 51.4022C63.8367 51.6249 64.1308 51.7501 64.4375 51.7501C64.7442 51.7501 65.0383 51.6249 65.2551 51.4022C65.4719 51.1795 65.5938 50.8775 65.5938 50.5626V43.9645L70.2188 41.3594V54.0909V54.0924Z" fill="white"></path></g><defs><linearGradient id="paint0_linear_3737_4485" x1="35" y1="0" x2="35" y2="70" gradientUnits="userSpaceOnUse"><stop stop-color="#921D41"></stop><stop offset="1" stop-color="#1D3792"></stop></linearGradient><clipPath id="clip0_3737_4485"><rect width="70" height="70" rx="10" fill="white"></rect></clipPath></defs></svg>