<svg xmlns="http://www.w3.org/2000/svg" width="70" height="70" viewBox="0 0 70 70" fill="none"><rect width="70" height="70" rx="10" fill="url(#paint0_linear_3737_4494)"></rect><path d="M30.1886 35.5711C28.1503 35.5711 26.1578 34.9667 24.4631 33.8343C22.7684 32.7019 21.4475 31.0924 20.6675 29.2093C19.8875 27.3262 19.6834 25.2541 20.081 23.255C20.4787 21.2559 21.4602 19.4197 22.9014 17.9784C24.3427 16.5371 26.179 15.5556 28.178 15.158C30.1771 14.7603 32.2492 14.9644 34.1323 15.7444C36.0154 16.5244 37.6249 17.8453 38.7573 19.5401C39.8897 21.2348 40.4941 23.2273 40.4941 25.2655C40.4941 27.9987 39.4084 30.62 37.4757 32.5527C35.543 34.4853 32.9218 35.5711 30.1886 35.5711ZM30.1886 18.0222C28.7327 18.0222 27.3095 18.4539 26.0989 19.2628C24.8884 20.0716 23.9449 21.2213 23.3878 22.5663C22.8306 23.9114 22.6849 25.3915 22.9689 26.8194C23.2529 28.2473 23.954 29.5589 24.9835 30.5884C26.0129 31.6179 27.3246 32.3189 28.7525 32.603C30.1804 32.887 31.6605 32.7412 33.0055 32.1841C34.3506 31.6269 35.5003 30.6834 36.3091 29.4729C37.118 28.2624 37.5497 26.8392 37.5497 25.3833C37.5497 24.4166 37.3593 23.4594 36.9893 22.5663C36.6194 21.6732 36.0772 20.8617 35.3937 20.1782C34.7101 19.4947 33.8986 18.9524 33.0055 18.5825C32.1124 18.2126 31.1552 18.0222 30.1886 18.0222ZM38.3888 37.3525C30.4218 35.5597 22.087 36.4232 14.6566 39.8111C13.6347 40.2992 12.7726 41.0676 12.1705 42.0268C11.5684 42.9859 11.2512 44.0964 11.2558 45.2289V53.9886C11.2558 54.1819 11.2939 54.3734 11.3679 54.552C11.4418 54.7306 11.5503 54.8929 11.687 55.0296C11.8237 55.1663 11.986 55.2747 12.1646 55.3487C12.3432 55.4227 12.5347 55.4608 12.728 55.4608C12.9213 55.4608 13.1128 55.4227 13.2914 55.3487C13.47 55.2747 13.6323 55.1663 13.769 55.0296C13.9057 54.8929 14.0142 54.7306 14.0882 54.552C14.1622 54.3734 14.2002 54.1819 14.2002 53.9886V45.2289C14.1874 44.6557 14.3422 44.0913 14.6455 43.6049C14.9489 43.1184 15.3877 42.7312 15.908 42.4905C20.384 40.4238 25.2586 39.3635 30.1886 39.3841C32.9509 39.3806 35.7038 39.7068 38.3888 40.3558V37.3525ZM38.5949 51.3533H47.6344V53.4144H38.5949V51.3533Z" fill="white"></path><path d="M54.8336 42.6081H47.2222V45.5525H53.3614V57.875H32.5V45.5525H41.775V46.1708C41.775 46.5613 41.9301 46.9358 42.2062 47.2119C42.4823 47.488 42.8567 47.6431 43.2472 47.6431C43.6377 47.6431 44.0121 47.488 44.2882 47.2119C44.5643 46.9358 44.7194 46.5613 44.7194 46.1708V40.4439C44.7194 40.0534 44.5643 39.679 44.2882 39.4029C44.0121 39.1268 43.6377 38.9717 43.2472 38.9717C42.8567 38.9717 42.4823 39.1268 42.2062 39.4029C41.9301 39.679 41.775 40.0534 41.775 40.4439V42.6081H31.0278C30.6373 42.6081 30.2628 42.7632 29.9867 43.0393C29.7106 43.3154 29.5555 43.6898 29.5555 44.0803V59.3472C29.5555 59.7377 29.7106 60.1122 29.9867 60.3883C30.2628 60.6643 30.6373 60.8195 31.0278 60.8195H54.8336C55.2241 60.8195 55.5985 60.6643 55.8746 60.3883C56.1507 60.1122 56.3058 59.7377 56.3058 59.3472V44.0803C56.3058 43.6898 56.1507 43.3154 55.8746 43.0393C55.5985 42.7632 55.2241 42.6081 54.8336 42.6081Z" fill="white"></path><path d="M62.3899 20.7226L50.1399 33.8477C50.0101 33.9862 49.8387 34.0787 49.6517 34.1114C49.4647 34.144 49.2721 34.1149 49.1031 34.0284C48.934 33.942 48.7977 33.8029 48.7146 33.6322C48.6315 33.4615 48.6062 33.2684 48.6426 33.082L50.246 25.0616L43.9427 22.6947C43.8073 22.644 43.6866 22.5607 43.5913 22.452C43.4961 22.3433 43.4292 22.2127 43.3967 22.0719C43.3642 21.9311 43.3671 21.7844 43.4051 21.6449C43.4431 21.5055 43.5151 21.3776 43.6146 21.2728L55.8646 8.1478C55.9944 8.00927 56.1658 7.91671 56.3528 7.8841C56.5398 7.85149 56.7324 7.8806 56.9014 7.96703C57.0705 8.05346 57.2068 8.19253 57.2899 8.36325C57.3729 8.53397 57.3982 8.72708 57.3619 8.91343L55.7541 16.9426L62.0574 19.3062C62.1918 19.3572 62.3115 19.4405 62.4061 19.5488C62.5006 19.657 62.567 19.7869 62.5995 19.9269C62.6319 20.0669 62.6293 20.2127 62.592 20.3515C62.5547 20.4903 62.4838 20.6178 62.3855 20.7226H62.3899Z" fill="white"></path><defs><linearGradient id="paint0_linear_3737_4494" x1="35" y1="0" x2="35" y2="70" gradientUnits="userSpaceOnUse"><stop stop-color="#921D41"></stop><stop offset="1" stop-color="#1D3792"></stop></linearGradient></defs></svg>