<svg xmlns="http://www.w3.org/2000/svg" width="71" height="71" viewBox="0 0 71 71" fill="none"><rect x="0.613281" y="0.0212402" width="70" height="70" rx="24" fill="url(#paint0_linear_111_902)" fill-opacity="0.88"></rect><path d="M37.6551 14.2504V18.4587C46.618 19.5837 52.9676 27.8962 51.8651 37.042C50.9259 44.6254 45.0867 50.6462 37.6551 51.542V55.7087C48.8842 54.5629 57.0509 44.3962 55.928 32.9379C55.0092 23.042 47.3122 15.2295 37.6551 14.2504ZM33.5717 14.3129C29.5905 14.7087 25.793 16.2712 22.6897 18.8962L25.6092 21.9795C27.8959 20.1045 30.6522 18.8962 33.5717 18.4795V14.3129ZM19.8109 21.8337C17.2581 24.9948 15.6872 28.861 15.2988 32.9379H19.3822C19.7701 29.9795 20.9134 27.167 22.7305 24.8129L19.8109 21.8337ZM42.7592 27.7295L32.7959 37.8962L28.4676 33.4795L26.3034 35.6879L32.7959 42.3129L44.9234 29.9379L42.7592 27.7295ZM15.3192 37.1045C15.7276 41.1879 17.2997 45.042 19.8313 48.2087L22.7305 45.2295C20.9276 42.8745 19.7782 40.0683 19.4026 37.1045H15.3192ZM25.6092 48.292L22.6897 51.1462C25.7823 53.7768 29.5686 55.415 33.5717 55.8545V51.6879C30.6673 51.3046 27.9172 50.1318 25.6092 48.292Z" fill="white"></path><defs><linearGradient id="paint0_linear_111_902" x1="-17.3867" y1="70.0212" x2="96.6085" y2="61.2722" gradientUnits="userSpaceOnUse"><stop stop-color="#AF69E6"></stop><stop offset="1" stop-color="#B584DC" stop-opacity="0"></stop></linearGradient></defs></svg>
