<svg xmlns="http://www.w3.org/2000/svg" width="71" height="71" viewBox="0 0 71 71" fill="none"><rect x="0.613281" y="0.0212402" width="70" height="70" rx="24" fill="url(#paint0_linear_111_898)" fill-opacity="0.88"></rect><path d="M46.1795 46.7761H38.7046V49.5168H46.1795V46.7761Z" fill="white"></path><path d="M32.6251 18.8072V21.5478H55.3636V43.4473H54.4828V42.5897L51.9256 29.0187H32.8428L30.5522 42.4912V43.4473H29.7691V31.5319H26.9004V46.1879H30.5482L30.5354 54.9742H33.5634C33.5405 55.0941 33.5281 55.2157 33.5266 55.3377V56.2112C33.5499 56.739 33.776 57.2375 34.1578 57.6027C34.5395 57.968 35.0475 58.1719 35.5759 58.1719C36.1042 58.1719 36.6122 57.968 36.9939 57.6027C37.3757 57.2375 37.6018 56.739 37.6251 56.2112V55.3377C37.6232 55.2157 37.6109 55.0941 37.5883 54.9742H47.6293C47.603 55.0936 47.5893 55.2155 47.5884 55.3377V56.2112C47.6118 56.739 47.8379 57.2375 48.2196 57.6027C48.6014 57.968 49.1093 58.1719 49.6377 58.1719C50.166 58.1719 50.674 57.968 51.0558 57.6027C51.4375 57.2375 51.6636 56.739 51.687 56.2112V55.3377C51.687 55.2156 51.6747 55.0938 51.6501 54.9742H54.4901V46.1879H58.2363V18.8055L32.6251 18.8072ZM35.2808 31.7593H49.5324L50.8847 38.9324H34.0638L35.2808 31.7593ZM51.6141 46.7787H48.2001V51.2111H51.0689V49.5202H51.6141V52.2327H33.4033V49.5202H34.1375V51.2111H37.0062V46.7787H33.4033V42.8203L33.5962 41.673H51.3995L51.6173 42.8323L51.6141 46.7787Z" fill="white"></path><path d="M22.3881 30.6659C20.5294 30.6659 18.7124 30.1148 17.1669 29.0822C15.6215 28.0495 14.4169 26.5818 13.7056 24.8646C12.9943 23.1473 12.8082 21.2578 13.1708 19.4348C13.5334 17.6118 14.4285 15.9373 15.7428 14.623C17.0571 13.3087 18.7316 12.4137 20.5546 12.0511C22.3776 11.6884 24.2672 11.8746 25.9844 12.5859C27.7016 13.2971 29.1693 14.5016 30.2019 16.0471C31.2346 17.5925 31.7858 19.4095 31.7858 21.2682C31.7832 23.7599 30.7922 26.1487 29.0303 27.9105C27.2685 29.6724 24.8797 30.6633 22.3881 30.6659ZM22.3881 13.9953C20.9485 13.9953 19.5412 14.4222 18.3443 15.222C17.1473 16.0217 16.2144 17.1585 15.6635 18.4885C15.1126 19.8185 14.9684 21.2819 15.2493 22.6938C15.5301 24.1058 16.2233 25.4027 17.2412 26.4206C18.2592 27.4386 19.5561 28.1318 20.968 28.4126C22.38 28.6935 23.8434 28.5493 25.1734 27.9984C26.5034 27.4475 27.6402 26.5146 28.4399 25.3176C29.2397 24.1207 29.6666 22.7134 29.6666 21.2738C29.6659 19.3431 28.899 17.4917 27.5343 16.126C26.1696 14.7602 24.3188 13.9919 22.3881 13.9897V13.9953Z" fill="white"></path><path d="M20.3761 16.6875L27.1745 25.4934L16.9878 20.9698L19.8127 19.7161L20.3761 16.6875Z" fill="white"></path><defs><linearGradient id="paint0_linear_111_898" x1="-17.3867" y1="70.0212" x2="96.6085" y2="61.2722" gradientUnits="userSpaceOnUse"><stop stop-color="#AF69E6"></stop><stop offset="1" stop-color="#B584DC" stop-opacity="0"></stop></linearGradient></defs></svg>
