<svg xmlns="http://www.w3.org/2000/svg" width="71" height="71" viewBox="0 0 71 71" fill="none"><rect x="0.613281" y="0.0212402" width="70" height="70" rx="24" fill="url(#paint0_linear_111_900)" fill-opacity="0.88"></rect><path d="M35.6133 15.7439C30.5006 15.7439 25.5973 17.7749 21.9821 21.3901C18.3669 25.0053 16.3359 29.9086 16.3359 35.0212C16.3359 40.1339 18.3669 45.0372 21.9821 48.6524C25.5973 52.2676 30.5006 54.2986 35.6133 54.2986C38.1448 54.2986 40.6516 53.8 42.9904 52.8312C45.3292 51.8624 47.4544 50.4424 49.2444 48.6524C51.0345 46.8623 52.4544 44.7372 53.4232 42.3984C54.392 40.0595 54.8906 37.5528 54.8906 35.0212C54.8906 32.4897 54.392 29.983 53.4232 27.6441C52.4544 25.3053 51.0345 23.1802 49.2444 21.3901C47.4544 19.6 45.3292 18.1801 42.9904 17.2113C40.6516 16.2425 38.1448 15.7439 35.6133 15.7439ZM35.6133 22.4705C42.5361 22.4705 48.1641 28.0984 48.1641 35.0212C48.1641 41.9441 42.5361 47.572 35.6133 47.572C28.6904 47.572 23.0625 41.9441 23.0625 35.0212C23.0625 28.0984 28.6904 22.4705 35.6133 22.4705ZM35.6133 23.947C33.9384 23.947 32.352 24.3178 30.9301 24.9808C31.8773 27.678 33.4984 31.0837 35.6133 31.0837C37.7316 31.0837 39.2986 27.6671 40.2687 24.9679C38.8539 24.313 37.2772 23.947 35.6133 23.947ZM43.714 27.4645C41.4406 29.1989 38.6985 31.795 39.3524 33.8078C40.0071 35.8228 43.7418 36.257 46.6088 36.3455C46.6603 35.9112 46.6875 35.4695 46.6875 35.0212C46.6875 32.0975 45.5592 29.4421 43.714 27.4645ZM27.4941 27.4845C25.6599 29.4598 24.5391 32.1072 24.5391 35.0212C24.5391 35.4765 24.567 35.9251 24.6201 36.3657C27.4775 36.2981 31.2139 35.8085 31.8671 33.7982C32.5212 31.7849 29.7605 29.2411 27.4941 27.4845ZM33.2517 31.0645C33.103 31.0687 32.959 31.1177 32.8387 31.2051C32.6803 31.3202 32.5741 31.4935 32.5435 31.6869C32.5129 31.8803 32.5603 32.0779 32.6754 32.2363C32.7905 32.3947 32.9638 32.5009 33.1571 32.5316C33.3505 32.5622 33.5481 32.5148 33.7065 32.3998C33.785 32.3428 33.8515 32.2709 33.9021 32.1882C33.9528 32.1056 33.9867 32.0137 34.0019 31.918C34.017 31.8222 34.0132 31.7244 33.9906 31.6301C33.9679 31.5358 33.9269 31.4469 33.87 31.3685C33.7994 31.2714 33.7062 31.1929 33.5984 31.14C33.4907 31.087 33.3717 31.0611 33.2517 31.0645ZM37.9749 31.0645C37.9575 31.064 37.94 31.0641 37.9226 31.0649C37.8115 31.0696 37.7029 31.0993 37.6049 31.1519C37.5069 31.2044 37.422 31.2784 37.3566 31.3684C37.2996 31.4468 37.2586 31.5357 37.236 31.63C37.2133 31.7243 37.2095 31.8222 37.2247 31.9179C37.2398 32.0137 37.2737 32.1056 37.3244 32.1882C37.3751 32.2709 37.4416 32.3428 37.52 32.3998C37.6784 32.5148 37.876 32.5622 38.0694 32.5316C38.2628 32.5009 38.4361 32.3948 38.5511 32.2364C38.6662 32.078 38.7137 31.8804 38.6831 31.687C38.6524 31.4936 38.5463 31.3203 38.3879 31.2052C38.2675 31.1178 38.1236 31.0688 37.9749 31.0645ZM35.6133 32.3962C34.9171 32.3962 34.2494 32.6728 33.7571 33.1651C33.2648 33.6574 32.9883 34.325 32.9883 35.0212C32.9883 35.7174 33.2648 36.3851 33.7571 36.8774C34.2494 37.3697 34.9171 37.6462 35.6133 37.6462C36.3095 37.6462 36.9772 37.3697 37.4694 36.8774C37.9617 36.3851 38.2383 35.7174 38.2383 35.0212C38.2383 34.325 37.9617 33.6574 37.4694 33.1651C36.9772 32.6728 36.3095 32.3962 35.6133 32.3962ZM31.8155 35.5165C31.7416 35.5175 31.6682 35.5297 31.5979 35.5526C31.5057 35.5825 31.4203 35.6303 31.3466 35.6933C31.2728 35.7562 31.2122 35.8331 31.1682 35.9195C31.1241 36.0059 31.0976 36.1001 31.0899 36.1968C31.0823 36.2934 31.0938 36.3907 31.1238 36.4829C31.1843 36.6691 31.3163 36.8236 31.4908 36.9125C31.6652 37.0014 31.8678 37.0173 32.054 36.9569C32.1462 36.9269 32.2317 36.8791 32.3054 36.8161C32.3791 36.7532 32.4397 36.6763 32.4838 36.5899C32.5278 36.5036 32.5544 36.4093 32.562 36.3127C32.5696 36.216 32.5581 36.1188 32.5282 36.0266C32.4794 35.8766 32.384 35.7461 32.2557 35.6543C32.1275 35.5625 31.9732 35.5142 31.8155 35.5165ZM39.4326 35.5171C39.2713 35.5101 39.1123 35.5561 38.9797 35.6481C38.8471 35.7401 38.7483 35.873 38.6984 36.0265C38.6684 36.1187 38.657 36.216 38.6646 36.3126C38.6722 36.4093 38.6988 36.5035 38.7428 36.5898C38.7868 36.6762 38.8474 36.7531 38.9212 36.816C38.9949 36.879 39.0803 36.9268 39.1725 36.9568C39.3587 37.0173 39.5613 37.0013 39.7358 36.9125C39.9102 36.8236 40.0422 36.6691 40.1028 36.4829C40.1327 36.3907 40.1442 36.2934 40.1366 36.1968C40.129 36.1001 40.1024 36.0059 40.0584 35.9195C40.0144 35.8331 39.9538 35.7562 39.88 35.6933C39.8063 35.6303 39.7209 35.5825 39.6286 35.5526C39.5652 35.5319 39.4992 35.52 39.4326 35.5171ZM31.874 37.7905C30.1029 37.799 27.7527 39.1712 25.9329 40.4095C27.4939 43.2124 30.2363 45.2628 33.4915 45.8923C34.311 43.1532 35.0026 39.4431 33.2909 38.1996C32.8927 37.9103 32.4101 37.7878 31.874 37.7905ZM39.3401 37.7921C38.8004 37.7921 38.3154 37.9165 37.9172 38.2057C36.2032 39.451 36.9441 43.1363 37.7459 45.8902C41.0015 45.2573 43.7431 43.2029 45.301 40.3963C43.4958 39.1475 41.1227 37.7921 39.3401 37.792V37.7921ZM35.6133 38.268C35.4175 38.268 35.2297 38.3458 35.0912 38.4843C34.9528 38.6227 34.875 38.8105 34.875 39.0063C34.875 39.2021 34.9528 39.3899 35.0912 39.5284C35.2297 39.6668 35.4175 39.7446 35.6133 39.7446C35.8091 39.7446 35.9969 39.6668 36.1353 39.5284C36.2738 39.3899 36.3516 39.2021 36.3516 39.0063C36.3516 38.8105 36.2738 38.6227 36.1353 38.4843C35.9969 38.3458 35.8091 38.268 35.6133 38.268Z" fill="white"></path><defs><linearGradient id="paint0_linear_111_900" x1="-17.3867" y1="70.0212" x2="96.6085" y2="61.2722" gradientUnits="userSpaceOnUse"><stop stop-color="#AF69E6"></stop><stop offset="1" stop-color="#B584DC" stop-opacity="0"></stop></linearGradient></defs></svg>
