<svg xmlns="http://www.w3.org/2000/svg" width="71" height="71" viewBox="0 0 71 71" fill="none"><rect x="0.613281" y="0.0212402" width="70" height="70" rx="24" fill="url(#paint0_linear_111_907)" fill-opacity="0.88"></rect><path d="M57.2801 38.2713C57.2801 42.0846 54.4634 45.2479 50.7801 45.7679V52.3546C50.7801 53.5039 50.3236 54.6061 49.5109 55.4187C48.6982 56.2314 47.596 56.6879 46.4468 56.6879H38.2134V56.0379C38.2134 54.4864 37.5971 52.9985 36.5 51.9014C35.4029 50.8043 33.915 50.1879 32.3634 50.1879C29.1134 50.1879 26.5134 52.8096 26.5134 56.0379V56.6879H18.2801C17.1308 56.6879 16.0286 56.2314 15.216 55.4187C14.4033 54.6061 13.9468 53.5039 13.9468 52.3546V44.1213H14.5968C17.8251 44.1213 20.4468 41.5213 20.4468 38.2713C20.4468 35.0213 17.8251 32.4213 14.5968 32.4213H13.9468V24.1879C13.9468 23.0387 14.4033 21.9365 15.216 21.1238C16.0286 20.3112 17.1308 19.8546 18.2801 19.8546H24.8668C25.3868 16.1713 28.5501 13.3546 32.3634 13.3546C36.1768 13.3546 39.3401 16.1713 39.8601 19.8546H46.4468C47.596 19.8546 48.6982 20.3112 49.5109 21.1238C50.3236 21.9365 50.7801 23.0387 50.7801 24.1879V30.7746C54.4634 31.2946 57.2801 34.4579 57.2801 38.2713ZM46.4468 41.5213H49.6968C50.5587 41.5213 51.3854 41.1789 51.9949 40.5694C52.6044 39.9599 52.9468 39.1332 52.9468 38.2713C52.9468 37.4093 52.6044 36.5827 51.9949 35.9732C51.3854 35.3637 50.5587 35.0213 49.6968 35.0213H46.4468V24.1879H35.6134V20.9379C35.6134 20.076 35.271 19.2493 34.6615 18.6398C34.052 18.0304 33.2254 17.6879 32.3634 17.6879C31.5015 17.6879 30.6748 18.0304 30.0653 18.6398C29.4559 19.2493 29.1134 20.076 29.1134 20.9379V24.1879H18.2801V28.7813C22.0934 30.2546 24.7801 33.9379 24.7801 38.2713C24.7801 42.6046 22.0718 46.2879 18.2801 47.7613V52.3546H22.8734C23.6159 50.4409 24.9193 48.7963 26.6128 47.6364C28.3063 46.4765 30.3108 45.8554 32.3634 45.8546C36.6968 45.8546 40.3801 48.5629 41.8534 52.3546H46.4468V41.5213Z" fill="white"></path><defs><linearGradient id="paint0_linear_111_907" x1="-17.3867" y1="70.0212" x2="96.6085" y2="61.2722" gradientUnits="userSpaceOnUse"><stop stop-color="#AF69E6"></stop><stop offset="1" stop-color="#B584DC" stop-opacity="0"></stop></linearGradient></defs></svg>
