<svg xmlns="http://www.w3.org/2000/svg" width="70" height="70" viewBox="0 0 70 70" fill="none"><rect width="70" height="70" rx="10" fill="url(#paint0_linear_3737_4757)"></rect><path d="M18.9718 18.9465C14.6785 23.2334 12.2641 29.0502 12.2595 35.1173C12.255 41.1844 14.6608 47.0048 18.9477 51.2981C23.2346 55.5914 29.0514 58.0059 35.1185 58.0104C41.1856 58.015 47.006 55.6092 51.2993 51.3223M55.5693 45.4307C57.7376 41.1349 58.496 36.2647 57.7366 31.513C56.9772 26.7613 54.7386 22.3701 51.3394 18.9641C47.9402 15.5581 43.5534 13.3108 38.8032 12.5419C34.053 11.7731 29.1813 12.5218 24.8812 14.6816M35.1343 47.8427V47.8682" stroke="white" stroke-width="4" stroke-linecap="round" stroke-linejoin="round"></path><path d="M35.1345 38.9463C35.1059 38.437 35.1798 37.9271 35.3518 37.4469C35.5238 36.9666 35.7905 36.5258 36.1359 36.1505M41.4887 31.3213C41.9436 30.1315 42.0451 28.8357 41.7807 27.5896C41.5164 26.3436 40.8976 25.2005 39.9988 24.298C39.1 23.3954 37.9595 22.7718 36.7146 22.5023C35.4696 22.2328 34.1734 22.3288 32.9817 22.7787M12.2595 12.2588L58.0095 58.0088" stroke="white" stroke-width="4" stroke-linecap="round" stroke-linejoin="round"></path><defs><linearGradient id="paint0_linear_3737_4757" x1="35" y1="0" x2="35" y2="70" gradientUnits="userSpaceOnUse"><stop stop-color="#921D41"></stop><stop offset="1" stop-color="#1D3792"></stop></linearGradient></defs></svg>