<svg xmlns="http://www.w3.org/2000/svg" width="71" height="70" viewBox="0 0 71 70" fill="none"><g clip-path="url(#clip0_3720_5257)"><rect x="0.687988" width="70" height="70" rx="10" fill="url(#paint0_linear_3720_5257)"></rect><g clip-path="url(#clip1_3720_5257)"><path fill-rule="evenodd" clip-rule="evenodd" d="M59.4229 37.6449C66.5829 40.1349 70.3429 47.8249 72.6129 56.6949C69.8229 55.4349 66.7929 54.8249 63.6529 54.9849C61.9529 55.0649 60.2829 55.6749 59.4829 57.1049C56.8629 55.3149 54.0329 53.8149 51.0329 52.6449L56.7929 42.3549L59.4329 37.6449H59.4229ZM17.2029 36.7949H20.2529C24.2229 40.9049 29.8629 44.4649 35.6529 44.5049C41.4829 44.5449 47.1729 40.9449 51.1429 36.7949H54.1529C54.2329 36.7949 54.3129 36.7949 54.4029 36.7949L46.3729 51.1349C42.9529 50.2449 39.3729 49.7649 35.6729 49.7649C26.8529 49.7649 18.6529 52.4749 11.8829 57.1049C11.0729 55.6749 9.41293 55.0649 7.71293 54.9849C4.56293 54.8349 1.54293 55.4349 -1.24707 56.6949C1.51293 45.8549 6.51293 36.7949 17.2029 36.7949Z" fill="white"></path><path fill-rule="evenodd" clip-rule="evenodd" d="M54.7631 4.8452C54.9031 4.8352 55.0431 4.8252 55.1831 4.8252C55.3231 4.8252 55.4631 4.8252 55.6031 4.8452H54.7631ZM15.7831 4.8452C15.9231 4.8352 16.0631 4.8252 16.1931 4.8252C16.3231 4.8252 16.4731 4.8252 16.6131 4.8452H15.7731H15.7831ZM56.4731 19.1552C54.8131 31.6952 43.9631 41.4252 35.6931 41.3652C27.4231 41.3052 16.5831 31.6752 14.9131 19.1552C12.3031 18.4652 10.3231 15.7252 10.2031 12.3952C10.7531 12.9552 11.4031 13.4152 12.1131 13.7352C19.0031 16.8552 26.7331 20.1252 34.3931 20.4452C35.1131 20.4752 35.8331 20.4752 36.5631 20.4452C44.2131 20.1152 51.9431 16.8552 58.8431 13.7352C59.7531 13.3252 60.5831 12.6752 61.1931 11.8952C61.1931 11.9552 61.1931 12.0152 61.1931 12.0752C61.1931 15.5452 59.1731 18.4452 56.4731 19.1552Z" fill="white"></path><path fill-rule="evenodd" clip-rule="evenodd" d="M59.283 61.415C52.753 56.375 44.573 53.375 35.683 53.375C26.793 53.375 18.613 56.375 12.083 61.415C12.613 62.025 13.073 62.695 13.453 63.445C13.973 64.465 14.313 65.535 14.503 66.635C18.743 63.095 23.893 60.585 29.533 59.525C29.973 59.445 30.403 59.715 30.523 60.145C30.903 61.605 31.153 63.085 31.253 64.565H40.103C40.203 63.075 40.443 61.595 40.833 60.145C40.943 59.705 41.373 59.435 41.823 59.525C47.473 60.585 52.613 63.085 56.853 66.635C57.043 65.535 57.383 64.465 57.903 63.445C58.283 62.695 58.743 62.015 59.273 61.415" fill="white"></path><path fill-rule="evenodd" clip-rule="evenodd" d="M41.0729 67.9551H30.2929C29.6129 67.9551 29.0429 68.4851 29.0029 69.1651C28.7729 72.9151 27.7729 76.5851 26.0729 79.9351C24.9829 82.0751 23.6129 84.0751 21.9829 85.8451H49.3829C47.7629 84.0751 46.3829 82.0751 45.2929 79.9351C43.5829 76.5851 42.5929 72.9151 42.3629 69.1651C42.3229 68.4851 41.7529 67.9551 41.0729 67.9551Z" fill="white"></path><path fill-rule="evenodd" clip-rule="evenodd" d="M80.5333 75.7255C78.9633 86.5355 69.3133 87.2955 63.1033 77.5155C59.4233 71.7255 58.5533 63.9955 65.2733 61.6355L63.1533 59.7855C62.7133 59.3755 61.8333 58.6755 63.8233 58.5855C67.6233 58.3955 71.2133 59.5555 74.3933 61.9055C78.8333 65.1855 81.3733 69.9955 80.5333 75.7355" fill="white"></path><path fill-rule="evenodd" clip-rule="evenodd" d="M-9.15688 75.7255C-7.58688 86.5355 2.06312 87.2955 8.26312 77.5155C11.9431 71.7255 12.8131 63.9955 6.09312 61.6355L8.22313 59.7855C8.66313 59.3755 9.54313 58.6755 7.55313 58.5855C3.75313 58.3955 0.163124 59.5555 -3.01688 61.9055C-7.45688 65.1855 -9.99688 69.9955 -9.15688 75.7355" fill="white"></path><path fill-rule="evenodd" clip-rule="evenodd" d="M35.5232 -9.44479C38.3432 -9.44479 40.6332 -7.15479 40.6332 -4.33479C40.6332 -1.51479 38.3432 0.775215 35.5232 0.775215C32.7032 0.775215 30.4132 -1.51479 30.4132 -4.33479C30.4132 -7.15479 32.7032 -9.44479 35.5232 -9.44479ZM12.4332 2.89521C8.1832 3.14521 6.9632 0.295214 10.0132 -2.79479C31.8832 -20.2948 39.3932 -20.1048 61.0332 -2.79479C64.0732 0.295214 62.8632 3.13521 58.6132 2.89521H57.7032V4.84521H13.3532V2.89521H12.4432H12.4332Z" fill="white"></path><path fill-rule="evenodd" clip-rule="evenodd" d="M13.1633 7.61566C10.9933 7.54566 10.8033 10.1057 13.2533 11.2157C22.1733 15.2557 28.4333 17.4257 34.5033 17.6857C35.1533 17.7157 35.7933 17.7157 36.4333 17.6857C42.5033 17.4257 48.7633 15.2557 57.6833 11.2157C60.1233 10.1057 59.9433 7.54566 57.7733 7.61566H13.1633Z" fill="white"></path></g></g><defs><linearGradient id="paint0_linear_3720_5257" x1="35.688" y1="0" x2="35.688" y2="70" gradientUnits="userSpaceOnUse"><stop stop-color="#921D41"></stop><stop offset="1" stop-color="#1D3792"></stop></linearGradient><clipPath id="clip0_3720_5257"><rect x="0.687988" width="70" height="70" rx="10" fill="white"></rect></clipPath><clipPath id="clip1_3720_5257"><rect width="90.01" height="101.69" fill="white" transform="translate(-9.31689 -15.8447)"></rect></clipPath></defs></svg>