<svg xmlns="http://www.w3.org/2000/svg" width="71" height="70" viewBox="0 0 71 70" fill="none"><g clip-path="url(#clip0_3720_5244)"><rect x="0.687988" width="70" height="70" rx="10" fill="url(#paint0_linear_3720_5244)"></rect><g clip-path="url(#clip1_3720_5244)"><path d="M-9.5415 54.6123L17.9996 82.1534L60.8413 39.3117L33.3002 11.7706L-9.5415 54.6123ZM-3.42126 54.6123L33.3002 17.8908L54.721 39.3117L17.9996 76.0332L-3.42126 54.6123ZM2.69898 54.6123L5.7591 57.6724L21.0597 42.3718L17.9996 39.3117L2.69898 54.6123ZM27.18 30.1313L28.8064 31.7578C27.3712 33.7652 27.4906 36.5622 29.2838 38.3554C30.4375 39.5091 32.1343 39.9268 33.6827 39.4066L40.3767 37.2079C40.4571 37.2803 40.5213 37.3688 40.5653 37.4676C40.6093 37.5665 40.632 37.6735 40.632 37.7816C40.632 37.8898 40.6093 37.9968 40.5653 38.0956C40.5213 38.1945 40.4571 38.283 40.3767 38.3554L38.4641 40.268C38.3917 40.3483 38.3032 40.4126 38.2044 40.4566C38.1055 40.5005 37.9986 40.5232 37.8904 40.5232C37.7822 40.5233 37.6752 40.5005 37.5764 40.4566C37.4775 40.4126 37.389 40.3483 37.3166 40.268L36.3603 39.3117L33.3002 42.3718L34.2565 43.3281C36.0497 45.1213 38.8467 45.2407 40.8556 43.807L42.4806 45.4319L45.5407 42.3718L43.9142 40.7454C45.3494 38.7379 45.2301 35.941 43.4368 34.1477C42.2832 32.9941 40.5925 32.5825 39.0379 33.0966L32.3439 35.2953C32.0027 34.9541 32.0027 34.4889 32.3439 34.1477L34.2565 32.2352C34.5977 31.894 35.0628 31.894 35.404 32.2352L36.3603 33.1915L39.4204 30.1313L38.4642 29.175C36.6709 27.3818 33.874 27.2625 31.865 28.6961L30.2401 27.0712L27.18 30.1313ZM7.28916 59.2025L10.3493 62.2626L21.0597 51.5522L17.9996 48.4921L7.28916 59.2025ZM15.7045 59.9675C14.7788 60.8932 14.6533 62.0714 14.6992 62.9802C14.7497 63.8875 14.9624 64.7367 15.2746 65.5629C15.9003 67.2169 16.8337 68.747 17.9996 69.9129L21.0597 66.8528C20.5701 66.3632 19.7439 65.0596 19.3384 63.9839C19.2206 63.6733 19.242 63.505 19.1961 63.2663C19.4639 63.3076 19.649 63.3275 20.007 63.4102C20.5885 63.5479 21.2632 63.733 21.9686 63.8416C22.6739 63.9472 23.7082 64.2532 24.8849 63.1225C25.8121 62.232 25.7631 61.623 25.8427 61.1151C25.9177 60.6086 25.9192 60.2001 25.936 59.7763C25.9483 59.4886 25.9666 59.2683 25.985 59.0602C26.0875 59.077 26.3553 59.0112 27.5625 58.5323C29.0329 57.9585 31.0418 56.8707 33.3002 54.6123L30.2401 51.5522C28.3581 53.4342 27.0713 54.1089 26.0324 54.5174C24.9935 54.9229 23.8505 54.8816 22.5898 56.1424C21.6687 57.0635 21.7941 57.6541 21.7283 58.1513C21.6687 58.5935 21.6993 58.9699 21.6809 59.3463C21.4483 59.2912 21.3351 59.2637 21.0597 59.2025C20.2946 58.9997 19.5084 58.8872 18.7172 58.8674C17.8252 58.8628 16.6195 59.0525 15.7045 59.9675Z" fill="white"></path></g></g><defs><linearGradient id="paint0_linear_3720_5244" x1="35.688" y1="0" x2="35.688" y2="70" gradientUnits="userSpaceOnUse"><stop stop-color="#921D41"></stop><stop offset="1" stop-color="#1D3792"></stop></linearGradient><clipPath id="clip0_3720_5244"><rect x="0.687988" width="70" height="70" rx="10" fill="white"></rect></clipPath><clipPath id="clip1_3720_5244"><rect width="69.2426" height="69.2426" fill="white" transform="translate(-23.312 46.9619) rotate(-45)"></rect></clipPath></defs></svg>