<svg xmlns="http://www.w3.org/2000/svg" width="70" height="70" viewBox="0 0 70 70" fill="none"><g clip-path="url(#clip0_3737_4409)"><rect width="70" height="70" rx="10" fill="url(#paint0_linear_3737_4409)"></rect><path d="M12.9816 33.4075L19.4171 39.8431C19.7491 40.175 19.9899 40.5869 20.1163 41.039C20.2427 41.4911 20.2503 41.9682 20.1385 42.4242C20.0268 42.8801 19.7993 43.2995 19.4781 43.6419C19.157 43.9843 18.7529 44.2382 18.3051 44.3789L17.9344 44.4664L7.72242 46.1679L10.4048 48.8503C10.8938 49.3396 11.1788 49.9963 11.2023 50.6877C11.2258 51.3791 10.986 52.0536 10.5313 52.5749C10.0766 53.0963 9.44095 53.4256 8.7528 53.4964C8.06465 53.5672 7.37529 53.3741 6.82402 52.9562L6.546 52.7142L0.110443 46.2786C-0.221558 45.9467 -0.462369 45.5348 -0.588741 45.0827C-0.715114 44.6306 -0.722775 44.1535 -0.610987 43.6975C-0.499197 43.2416 -0.271735 42.8222 0.049436 42.4798C0.370607 42.1374 0.774633 41.8836 1.22251 41.7429L1.5932 41.6553L11.8026 39.9512L9.11765 37.2663C8.62951 36.7765 8.34536 36.1198 8.32257 35.4287C8.29979 34.7376 8.54006 34.0636 8.99489 33.5428C9.44972 33.022 10.0852 32.6931 10.7731 32.6226C11.461 32.5521 12.1499 32.7452 12.701 33.163L12.9816 33.4075ZM38.7238 33.4075L47.7336 42.4173C48.0569 42.7411 48.2936 43.141 48.4221 43.5801C48.5505 44.0193 48.5665 44.4837 48.4686 44.9307C48.3707 45.3777 48.162 45.7929 47.8618 46.1382C47.5615 46.4835 47.1793 46.7477 46.7502 46.9067L46.3924 47.0123L28.082 51.0821L33.5728 56.573C34.0618 57.0623 34.3468 57.719 34.3703 58.4103C34.3938 59.1017 34.154 59.7762 33.6993 60.2976C33.2446 60.819 32.609 61.1483 31.9208 61.2191C31.2327 61.2898 30.5433 61.0968 29.992 60.6788L29.714 60.4369L20.7042 51.4271C20.3803 51.1035 20.1429 50.7036 20.0139 50.2643C19.885 49.8249 19.8686 49.3602 19.9662 48.9129C20.0639 48.4655 20.2725 48.0499 20.5729 47.7043C20.8732 47.3587 21.2557 47.0942 21.685 46.9351L22.0454 46.8321L40.3533 42.7597L34.8625 37.2688C34.3743 36.7791 34.0902 36.1224 34.0674 35.4313C34.0446 34.7402 34.2849 34.0662 34.7397 33.5454C35.1945 33.0245 35.83 32.6957 36.5179 32.6252C37.2058 32.5547 37.8948 32.7478 38.4458 33.1655L38.7238 33.4075Z" fill="white"></path></g><defs><linearGradient id="paint0_linear_3737_4409" x1="35" y1="0" x2="35" y2="70" gradientUnits="userSpaceOnUse"><stop stop-color="#921D41"></stop><stop offset="1" stop-color="#1D3792"></stop></linearGradient><clipPath id="clip0_3737_4409"><rect width="70" height="70" rx="10" fill="white"></rect></clipPath></defs></svg>