<svg xmlns="http://www.w3.org/2000/svg" width="70" height="70" viewBox="0 0 70 70" fill="none"><rect width="70" height="70" rx="10" fill="url(#paint0_linear_3737_4426)"></rect><path d="M62.3899 20.9331L50.1399 34.0581C50.0101 34.1966 49.8387 34.2892 49.6517 34.3218C49.4647 34.3544 49.2721 34.3253 49.1031 34.2389C48.934 34.1524 48.7977 34.0134 48.7146 33.8427C48.6315 33.6719 48.6062 33.4788 48.6426 33.2925L50.246 25.272L43.9427 22.9051C43.8073 22.8545 43.6866 22.7711 43.5913 22.6624C43.4961 22.5538 43.4292 22.4232 43.3967 22.2823C43.3642 22.1415 43.3671 21.9948 43.4051 21.8554C43.4431 21.7159 43.5151 21.5881 43.6146 21.4833L55.8646 8.35825C55.9944 8.21971 56.1658 8.12716 56.3528 8.09455C56.5398 8.06194 56.7324 8.09105 56.9014 8.17748C57.0705 8.26391 57.2068 8.40298 57.2899 8.5737C57.3729 8.74442 57.3982 8.93753 57.3619 9.12388L55.7541 17.1531L62.0574 19.5167C62.1918 19.5677 62.3115 19.651 62.4061 19.7592C62.5006 19.8674 62.567 19.9973 62.5995 20.1373C62.6319 20.2773 62.6293 20.4232 62.592 20.562C62.5547 20.7008 62.4838 20.8282 62.3855 20.9331H62.3899Z" fill="white"></path><path d="M30.1886 35.5716C28.1503 35.5716 26.1578 34.9672 24.4631 33.8348C22.7684 32.7024 21.4475 31.0929 20.6675 29.2098C19.8875 27.3267 19.6834 25.2546 20.081 23.2555C20.4787 21.2564 21.4602 19.4201 22.9014 17.9789C24.3427 16.5376 26.179 15.5561 28.178 15.1585C30.1771 14.7608 32.2492 14.9649 34.1323 15.7449C36.0154 16.5249 37.6249 17.8458 38.7573 19.5405C39.8897 21.2353 40.4941 23.2278 40.4941 25.266C40.4941 27.9992 39.4084 30.6205 37.4757 32.5531C35.543 34.4858 32.9218 35.5716 30.1886 35.5716ZM30.1886 18.0227C28.7327 18.0227 27.3095 18.4544 26.0989 19.2632C24.8884 20.0721 23.9449 21.2217 23.3878 22.5668C22.8306 23.9119 22.6849 25.392 22.9689 26.8199C23.2529 28.2478 23.954 29.5594 24.9835 30.5889C26.0129 31.6183 27.3246 32.3194 28.7525 32.6035C30.1804 32.8875 31.6605 32.7417 33.0055 32.1846C34.3506 31.6274 35.5003 30.6839 36.3091 29.4734C37.118 28.2629 37.5497 26.8397 37.5497 25.3838C37.5497 24.4171 37.3593 23.4599 36.9893 22.5668C36.6194 21.6737 36.0772 20.8622 35.3937 20.1787C34.7101 19.4952 33.8986 18.9529 33.0055 18.583C32.1124 18.2131 31.1552 18.0227 30.1886 18.0227ZM38.3888 37.353C30.4218 35.5602 22.087 36.4237 14.6566 39.8116C13.6347 40.2997 12.7726 41.0681 12.1705 42.0272C11.5684 42.9864 11.2512 44.0969 11.2558 45.2293V53.9891C11.2558 54.1824 11.2939 54.3738 11.3679 54.5525C11.4418 54.7311 11.5503 54.8934 11.687 55.0301C11.8237 55.1668 11.986 55.2752 12.1646 55.3492C12.3432 55.4232 12.5347 55.4613 12.728 55.4613C12.9213 55.4613 13.1128 55.4232 13.2914 55.3492C13.47 55.2752 13.6323 55.1668 13.769 55.0301C13.9057 54.8934 14.0142 54.7311 14.0882 54.5525C14.1622 54.3738 14.2002 54.1824 14.2002 53.9891V45.2293C14.1874 44.6562 14.3422 44.0918 14.6455 43.6054C14.9489 43.1189 15.3877 42.7316 15.908 42.491C20.384 40.4243 25.2586 39.364 30.1886 39.3846C32.9509 39.3811 35.7038 39.7073 38.3888 40.3563V37.353ZM38.5949 51.3538H47.6344V53.4149H38.5949V51.3538Z" fill="white"></path><path d="M54.8336 42.6086H47.2222V45.553H53.3614V57.8755H32.5V45.553H41.775V46.1713C41.775 46.5618 41.9301 46.9363 42.2062 47.2124C42.4823 47.4884 42.8567 47.6436 43.2472 47.6436C43.6377 47.6436 44.0121 47.4884 44.2882 47.2124C44.5643 46.9363 44.7194 46.5618 44.7194 46.1713V40.4444C44.7194 40.0539 44.5643 39.6795 44.2882 39.4034C44.0121 39.1273 43.6377 38.9722 43.2472 38.9722C42.8567 38.9722 42.4823 39.1273 42.2062 39.4034C41.9301 39.6795 41.775 40.0539 41.775 40.4444V42.6086H31.0278C30.6373 42.6086 30.2628 42.7637 29.9867 43.0398C29.7106 43.3159 29.5555 43.6903 29.5555 44.0808V59.3477C29.5555 59.7382 29.7106 60.1126 29.9867 60.3887C30.2628 60.6648 30.6373 60.8199 31.0278 60.8199H54.8336C55.2241 60.8199 55.5985 60.6648 55.8746 60.3887C56.1507 60.1126 56.3058 59.7382 56.3058 59.3477V44.0808C56.3058 43.6903 56.1507 43.3159 55.8746 43.0398C55.5985 42.7637 55.2241 42.6086 54.8336 42.6086Z" fill="white"></path><path d="M6.84577 6.95394C6.26891 6.95394 5.705 6.78288 5.22536 6.46239C4.74572 6.14191 4.37188 5.68638 4.15113 5.15343C3.93037 4.62048 3.87261 4.03404 3.98515 3.46826C4.09769 2.90248 4.37548 2.38278 4.78338 1.97488C5.19128 1.56698 5.71098 1.28919 6.27676 1.17665C6.84254 1.06411 7.42898 1.12187 7.96193 1.34262C8.49488 1.56338 8.95041 1.93722 9.27089 2.41686C9.59138 2.8965 9.76244 3.46041 9.76244 4.03727C9.76244 4.81082 9.45515 5.55269 8.90817 6.09967C8.36119 6.64665 7.61932 6.95394 6.84577 6.95394ZM6.84577 1.98727C6.43373 1.98727 6.03094 2.10946 5.68834 2.33838C5.34573 2.5673 5.07871 2.89267 4.92103 3.27335C4.76334 3.65403 4.72209 4.07292 4.80247 4.47705C4.88286 4.88117 5.08128 5.25239 5.37264 5.54375C5.66399 5.83511 6.03521 6.03352 6.43934 6.11391C6.84346 6.1943 7.26235 6.15304 7.64303 5.99536C8.02371 5.83767 8.34908 5.57065 8.578 5.22804C8.80692 4.88544 8.92911 4.48265 8.92911 4.07061C8.92911 3.79702 8.87522 3.52611 8.77052 3.27335C8.66583 3.02059 8.51237 2.79092 8.31891 2.59747C8.12546 2.40401 7.89579 2.25056 7.64303 2.14586C7.39027 2.04116 7.11936 1.98727 6.84577 1.98727ZM9.16661 7.45811C6.91178 6.95072 4.55287 7.1951 2.44994 8.15394C2.16073 8.29209 1.91672 8.50956 1.74632 8.78102C1.57591 9.05248 1.48614 9.36676 1.48744 9.68727V12.1664C1.48744 12.2212 1.49822 12.2753 1.51916 12.3259C1.5401 12.3764 1.57079 12.4224 1.60948 12.4611C1.64817 12.4998 1.6941 12.5305 1.74466 12.5514C1.79521 12.5723 1.84939 12.5831 1.90411 12.5831C1.95882 12.5831 2.01301 12.5723 2.06356 12.5514C2.11411 12.5305 2.16004 12.4998 2.19874 12.4611C2.23743 12.4224 2.26812 12.3764 2.28906 12.3259C2.31 12.2753 2.32077 12.2212 2.32077 12.1664V9.68727C2.31715 9.52507 2.36095 9.36533 2.44681 9.22766C2.53267 9.08999 2.65684 8.98038 2.80411 8.91227C4.07089 8.32736 5.45049 8.02726 6.84577 8.03311C7.62757 8.03211 8.40669 8.12443 9.16661 8.30811V7.45811ZM9.22494 11.4206H11.7833V12.0039H9.22494V11.4206Z" fill="#202124"></path><path d="M13.8208 8.94567H11.6666V9.779H13.4041V13.2665H7.49996V9.779H10.125V9.954C10.125 10.0645 10.1689 10.1705 10.247 10.2486C10.3251 10.3268 10.4311 10.3707 10.5416 10.3707C10.6521 10.3707 10.7581 10.3268 10.8363 10.2486C10.9144 10.1705 10.9583 10.0645 10.9583 9.954V8.33317C10.9583 8.22266 10.9144 8.11668 10.8363 8.03854C10.7581 7.9604 10.6521 7.9165 10.5416 7.9165C10.4311 7.9165 10.3251 7.9604 10.247 8.03854C10.1689 8.11668 10.125 8.22266 10.125 8.33317V8.94567H7.08329C6.97279 8.94567 6.8668 8.98957 6.78866 9.06771C6.71052 9.14585 6.66663 9.25183 6.66663 9.36234V13.6832C6.66663 13.7937 6.71052 13.8997 6.78866 13.9778C6.8668 14.0559 6.97279 14.0998 7.08329 14.0998H13.8208C13.9313 14.0998 14.0373 14.0559 14.1154 13.9778C14.1936 13.8997 14.2375 13.7937 14.2375 13.6832V9.36234C14.2375 9.25183 14.1936 9.14585 14.1154 9.06771C14.0373 8.98957 13.9313 8.94567 13.8208 8.94567Z" fill="#202124"></path><defs><linearGradient id="paint0_linear_3737_4426" x1="35" y1="0" x2="35" y2="70" gradientUnits="userSpaceOnUse"><stop stop-color="#921D41"></stop><stop offset="1" stop-color="#1D3792"></stop></linearGradient></defs></svg>