<svg xmlns="http://www.w3.org/2000/svg" width="70" height="70" viewBox="0 0 70 70" fill="none"><rect width="70" height="70" rx="10" fill="url(#paint0_linear_3737_4420)"></rect><path d="M35 23.7708C40.635 23.7708 45.2083 28.3442 45.2083 33.9792C45.2083 35.0204 45.0041 36.0208 44.7183 36.96L50.9658 43.2075C53.8037 40.6963 56.0495 37.5521 57.4583 33.9588C53.9262 25.0163 45.2083 18.6667 35 18.6667C32.407 18.6667 29.9162 19.075 27.5683 19.8304L31.9987 24.2608C32.9583 23.975 33.9587 23.7708 35 23.7708ZM16.0329 16.9517C15.8436 17.1406 15.6934 17.3649 15.591 17.6119C15.4885 17.8589 15.4358 18.1237 15.4358 18.3911C15.4358 18.6584 15.4885 18.9232 15.591 19.1702C15.6934 19.4172 15.8436 19.6415 16.0329 19.8304L20.055 23.8525C16.7024 26.5075 14.1105 30.0008 12.5416 33.9792C16.0737 42.9421 24.7916 49.2917 35 49.2917C38.1033 49.2917 41.0637 48.6792 43.7995 47.6175L49.3529 53.1708C49.7346 53.5526 50.2524 53.7671 50.7923 53.7671C51.3321 53.7671 51.8499 53.5526 52.2316 53.1708C52.6134 52.7891 52.8278 52.2713 52.8278 51.7315C52.8278 51.1916 52.6134 50.6738 52.2316 50.2921L18.932 16.9517C18.1358 16.1554 16.8291 16.1554 16.0329 16.9517ZM35 44.1875C29.365 44.1875 24.7916 39.6142 24.7916 33.9792C24.7916 32.4071 25.1591 30.9167 25.792 29.61L28.9975 32.8154C28.9362 33.1829 28.875 33.5708 28.875 33.9792C28.875 37.3683 31.6108 40.1042 35 40.1042C35.4083 40.1042 35.7758 40.0429 36.1637 39.9613L39.3691 43.1667C38.042 43.82 36.572 44.1875 35 44.1875ZM41.0637 33.3054C40.9173 31.926 40.3024 30.6385 39.3215 29.6576C38.3407 28.6767 37.0531 28.0618 35.6737 27.9154L41.0637 33.3054Z" fill="white"></path><defs><linearGradient id="paint0_linear_3737_4420" x1="35" y1="0" x2="35" y2="70" gradientUnits="userSpaceOnUse"><stop stop-color="#921D41"></stop><stop offset="1" stop-color="#1D3792"></stop></linearGradient></defs></svg>