<svg width="95" height="96" viewBox="0 0 95 96" fill="none" xmlns="http://www.w3.org/2000/svg">
<rect x="13.5537" y="14.7993" width="68" height="68" rx="34" fill="url(#paint0_linear_4_2786)"/>
<path d="M47.5283 0.892578C55.1607 0.892578 62.6805 2.73421 69.4493 6.26114C76.218 9.78806 82.0358 14.8961 86.4087 21.1517C90.7817 27.4073 93.5806 34.6256 94.568 42.194C95.5554 49.7623 94.7021 57.4572 92.0805 64.6253L84.67 61.915C86.8555 55.9392 87.5669 49.5243 86.7438 43.2148C85.9206 36.9053 83.5872 30.8876 79.9416 25.6725C76.296 20.4574 71.446 16.199 65.8031 13.2587C60.1602 10.3184 53.8912 8.78313 47.5283 8.78313V0.892578Z" fill="url(#paint1_linear_4_2786)"/>
<path d="M29.454 55.7153H41.884V53.0533H32.82C32.93 52.1073 33.744 51.4913 34.888 50.8973C35.482 50.6333 36.12 50.3253 36.758 50.0393C37.99 49.4893 39.222 48.8733 40.256 48.0373C41.268 47.1793 41.906 46.0793 41.906 44.5173C41.906 42.6693 40.982 41.2173 39.222 40.3813C38.342 39.9633 37.242 39.7653 35.944 39.7653C31.874 39.7653 29.63 41.6353 29.63 45.1993V45.8373H32.578V45.3313C32.578 43.3513 33.722 42.2513 35.9 42.2513C37.88 42.2513 38.914 43.0433 38.914 44.6713C38.914 45.7713 38.078 46.4973 36.802 47.1133C36.164 47.4433 35.526 47.7293 34.778 48.0593C33.502 48.6093 32.204 49.2253 31.17 50.0833C30.114 50.9413 29.454 52.0413 29.454 53.6033V55.7153ZM49.4761 56.0233C52.1601 56.0233 54.0961 55.0553 55.1301 53.3833C55.6581 52.5253 55.9221 51.5353 55.9221 50.3913C55.9221 48.1693 54.9761 46.4973 53.3041 45.5513C52.4681 45.1113 51.5001 44.8693 50.3121 44.8693C48.3761 44.8693 47.1881 45.4633 46.3301 46.3213L46.8361 42.6033H51.6321C53.2601 42.6033 54.1841 42.5373 54.7121 42.1853C55.2181 41.8553 55.3721 41.2173 55.3721 40.0293H44.5701L43.4701 48.3453L46.5281 49.1593L46.6381 49.0273C47.2541 48.0153 48.1561 47.2893 49.9161 47.2893C51.8301 47.2893 52.9741 48.3453 52.9741 50.2813C52.9741 52.3493 51.6321 53.4493 49.6301 53.4493C47.5621 53.4493 46.4401 52.2833 46.4401 50.7213V50.6113H43.3161V50.6553C43.3381 53.9553 45.2961 56.0233 49.4761 56.0233ZM60.7251 46.4313C62.8151 46.4313 64.1131 45.2653 64.1131 43.2633V43.1093C64.1131 40.9973 62.7711 39.8093 60.7471 39.8093C58.8111 39.8093 57.3591 40.9313 57.3591 43.1093V43.2633C57.3591 45.2873 58.5691 46.4313 60.7251 46.4313ZM57.3371 55.7153H60.7031C61.2531 54.9673 62.2871 53.6253 63.5851 51.9533C64.8831 50.2813 66.3131 48.4113 67.7651 46.5193C69.2171 44.6713 70.5371 42.9333 71.5931 41.6133C72.0991 40.9313 72.5391 40.4033 72.8251 40.0293H69.5911C69.0411 40.7993 67.9851 42.1413 66.6871 43.8133C65.3891 45.5293 63.9151 47.3993 62.4631 49.2473C60.9891 51.1393 59.6471 52.8333 58.5911 54.1533C58.0631 54.8353 57.6671 55.3413 57.3371 55.7153ZM60.7471 44.6053C59.8891 44.6053 59.3611 44.0993 59.3611 43.1753V43.1093C59.3611 42.0973 59.9771 41.6353 60.7471 41.6353C61.5831 41.6353 62.1331 42.1633 62.1331 43.1093V43.1753C62.1331 44.0553 61.6051 44.6053 60.7471 44.6053ZM69.4151 55.9573C71.5051 55.9573 72.8031 54.8133 72.8031 52.7893V52.6353C72.8031 50.5233 71.4611 49.3353 69.4371 49.3353C67.5011 49.3353 66.0491 50.4573 66.0491 52.6353V52.7893C66.0491 54.8573 67.2591 55.9573 69.4151 55.9573ZM69.4371 54.1313C68.5791 54.1313 68.0511 53.6253 68.0511 52.7013V52.6353C68.0511 51.6233 68.6671 51.1613 69.4371 51.1613C70.2731 51.1613 70.8231 51.6893 70.8231 52.6353V52.7013C70.8231 53.5813 70.2951 54.1313 69.4371 54.1313Z" fill="white"/>
<defs>
<linearGradient id="paint0_linear_4_2786" x1="7.05777" y1="30.1618" x2="82.4505" y2="41.9065" gradientUnits="userSpaceOnUse">
<stop stop-color="#FF0000"/>
<stop offset="0.8125" stop-color="#662A5C"/>
</linearGradient>
<linearGradient id="paint1_linear_4_2786" x1="-8.97361" y1="22.3271" x2="96.2179" y2="38.7139" gradientUnits="userSpaceOnUse">
<stop stop-color="#FF0000"/>
<stop offset="0.8125" stop-color="#662A5C"/>
</linearGradient>
</defs>
</svg>
