<svg xmlns="http://www.w3.org/2000/svg" width="70" height="70" viewBox="0 0 70 70" fill="none"><rect width="70" height="70" rx="10" fill="url(#paint0_linear_3737_5058)"></rect><path d="M15.3796 9.88965L26.1296 20.6396" stroke="white" stroke-width="3" stroke-linecap="round" stroke-linejoin="round"></path><path d="M26.1296 9.88965L15.3796 20.6396" stroke="white" stroke-width="3" stroke-linecap="round" stroke-linejoin="round"></path><path d="M33.9855 9.72168C41.3987 9.21504 48.1847 11.2509 52.9906 16.0567C57.7964 20.8625 59.8323 27.6486 59.3256 35.0618" stroke="white" stroke-width="4" stroke-linecap="round" stroke-linejoin="round"></path><path d="M33.1936 20.0161C38.3219 19.2045 42.86 20.18 45.8637 23.1836C48.8673 26.1873 49.8428 30.7254 49.0312 35.8537" stroke="white" stroke-width="4" stroke-linecap="round" stroke-linejoin="round"></path><path d="M24.1581 46.5741C21.5002 46.5741 19.2241 45.6269 17.3298 43.7326C15.4354 41.8383 14.4899 39.5638 14.4931 36.9091C14.4931 34.2513 15.4403 31.9752 17.3346 30.0808C19.2289 28.1865 21.5034 27.2409 24.1581 27.2441C26.816 27.2441 29.0921 28.1913 30.9864 30.0857C32.8807 31.98 33.8263 34.2545 33.8231 36.9091C33.8231 39.567 32.8759 41.8431 30.9816 43.7374C29.0872 45.6318 26.8127 46.5773 24.1581 46.5741ZM4.82812 65.9041V63.1254C4.82812 61.1924 5.35165 59.4205 6.39869 57.8096C7.44573 56.1988 8.89547 54.9907 10.7479 54.1853C12.842 53.2993 14.9957 52.6147 17.209 52.1315C19.4222 51.6482 21.7386 51.4066 24.1581 51.4066C26.5743 51.4066 28.8891 51.6482 31.1024 52.1315C33.3156 52.6147 35.4709 53.2993 37.5682 54.1853C39.4207 54.9907 40.8704 56.1988 41.9175 57.8096C42.9645 59.4205 43.488 61.1924 43.488 63.1254V65.9041H4.82812Z" fill="white"></path><defs><linearGradient id="paint0_linear_3737_5058" x1="35" y1="0" x2="35" y2="70" gradientUnits="userSpaceOnUse"><stop stop-color="#921D41"></stop><stop offset="1" stop-color="#1D3792"></stop></linearGradient></defs></svg>