<svg xmlns="http://www.w3.org/2000/svg" width="70" height="70" viewBox="0 0 70 70" fill="none"><g clip-path="url(#clip0_3737_5053)"><rect width="70" height="70" rx="10" fill="url(#paint0_linear_3737_5053)"></rect><path d="M61.5372 57.9265L70.4601 66.669L67.5122 69.5579L58.5914 60.8135C55.2721 63.4211 51.1434 64.8394 46.8893 64.8335C36.5393 64.8335 28.1393 56.6015 28.1393 46.4585C28.1393 42.0858 29.7004 38.0683 32.3059 34.9123C35.7442 30.7477 41.0012 28.0835 46.8893 28.0835C57.2393 28.0835 65.6393 36.3155 65.6393 46.4585C65.6453 50.6276 64.1981 54.6736 61.5372 57.9265ZM57.358 56.4116C60.002 53.747 61.4786 50.1752 61.4726 46.4585C61.4726 38.5634 54.9455 32.1668 46.8893 32.1668C42.2556 32.1668 38.1278 34.2829 35.4568 37.5831C33.484 40.0207 32.3059 43.1044 32.3059 46.4585C32.3059 54.3536 38.833 60.7502 46.8893 60.7502C50.6818 60.756 54.3265 59.309 57.0455 56.7179L57.358 56.4116Z" fill="white"></path><path d="M23.2043 38.1204H27.2189V26.0763H23.2043V38.1204ZM25.2116 22.0616C25.7803 22.0616 26.2574 21.8689 26.6428 21.4835C27.0282 21.0981 27.2203 20.6217 27.2189 20.0543C27.2189 19.4856 27.0262 19.0085 26.6408 18.6231C26.2554 18.2377 25.779 18.0456 25.2116 18.047C24.6429 18.047 24.1658 18.2397 23.7804 18.6251C23.395 19.0105 23.2029 19.4869 23.2043 20.0543C23.2043 20.6231 23.397 21.1001 23.7824 21.4855C24.1678 21.8709 24.6442 22.063 25.2116 22.0616ZM25.2116 48.1571C22.4348 48.1571 19.8252 47.6298 17.383 46.5753C14.9407 45.5208 12.8163 44.0909 11.0097 42.2856C9.20305 40.479 7.77315 38.3546 6.71997 35.9123C5.66678 33.47 5.13952 30.8605 5.13818 28.0837C5.13818 25.3068 5.66545 22.6973 6.71997 20.255C7.77449 17.8128 9.20439 15.6883 11.0097 13.8817C12.8163 12.0751 14.9407 10.6452 17.383 9.59204C19.8252 8.53885 22.4348 8.01159 25.2116 8.01025C27.9884 8.01025 30.598 8.53752 33.0402 9.59204C35.4825 10.6466 37.6069 12.0765 39.4135 13.8817C41.2201 15.6883 42.6507 17.8128 43.7052 20.255C44.7598 22.6973 45.2864 25.3068 45.285 28.0837C45.285 30.8605 44.7578 33.47 43.7032 35.9123C42.6487 38.3546 41.2188 40.479 39.4135 42.2856C37.6069 44.0922 35.4825 45.5228 33.0402 46.5773C30.598 47.6318 27.9884 48.1584 25.2116 48.1571ZM25.2116 44.1424C29.6947 44.1424 33.4919 42.5867 36.6033 39.4753C39.7146 36.364 41.2703 32.5667 41.2703 28.0837C41.2703 23.6006 39.7146 19.8034 36.6033 16.692C33.4919 13.5806 29.6947 12.0249 25.2116 12.0249C20.7285 12.0249 16.9313 13.5806 13.8199 16.692C10.7086 19.8034 9.15287 23.6006 9.15287 28.0837C9.15287 32.5667 10.7086 36.364 13.8199 39.4753C16.9313 42.5867 20.7285 44.1424 25.2116 44.1424Z" fill="white"></path><path fill-rule="evenodd" clip-rule="evenodd" d="M11.896 38.2841L36.5678 13.6123L39.0912 16.1357L14.4194 40.8075L11.896 38.2841Z" fill="white"></path></g><defs><linearGradient id="paint0_linear_3737_5053" x1="35" y1="0" x2="35" y2="70" gradientUnits="userSpaceOnUse"><stop stop-color="#921D41"></stop><stop offset="1" stop-color="#1D3792"></stop></linearGradient><clipPath id="clip0_3737_5053"><rect width="70" height="70" rx="10" fill="white"></rect></clipPath></defs></svg>