<svg xmlns="http://www.w3.org/2000/svg" width="70" height="70" viewBox="0 0 70 70" fill="none"><g clip-path="url(#clip0_3737_5043)"><rect width="70" height="70" rx="10" fill="url(#paint0_linear_3737_5043)"></rect><g clip-path="url(#clip1_3737_5043)"><path fill-rule="evenodd" clip-rule="evenodd" d="M27.9905 43.0169C24.1921 38.8113 17.706 38.4855 13.5077 42.2839C9.30211 46.0823 8.97632 52.5684 12.7747 56.7666C16.5731 60.9723 23.0592 61.298 27.2575 57.4996C31.4631 53.7013 31.7889 47.2151 27.9905 43.0169ZM30.8411 40.4476C25.6211 34.6723 16.7138 34.2206 10.9385 39.4406C5.16312 44.6606 4.71146 53.568 9.93147 59.3433C15.1515 65.1186 24.0588 65.5703 29.8342 60.3503C35.6095 55.1303 36.0612 46.2229 30.8411 40.4476Z" fill="white"></path><path fill-rule="evenodd" clip-rule="evenodd" d="M10.0573 62.2754L7.02156 58.9138C6.60692 58.4547 5.8813 58.4177 5.42223 58.8324L-1.7377 65.3037C-3.07047 66.5106 -3.17413 68.5912 -1.97464 69.924L-1.80434 70.1091C-0.597442 71.4418 1.48316 71.5455 2.81593 70.346L9.97586 63.8747C10.4349 63.46 10.4719 62.7344 10.0573 62.2754Z" fill="white"></path><path d="M9.24304 57.0803L3.64026 62.1445L6.51002 65.3194L12.1128 60.2552L9.24304 57.0803Z" fill="white"></path><path d="M12.9228 51.8574C12.1306 51.8574 11.4938 51.2206 11.4938 50.4284C11.4938 49.6361 12.1306 48.9994 12.9228 48.9994H14.263L17.7948 42.4318C18.165 41.7358 19.0313 41.4766 19.7273 41.8542C20.105 42.0541 20.3493 42.4021 20.4382 42.7872L22.652 50.7986L23.2814 49.3918C23.5183 48.8587 24.0366 48.5477 24.5846 48.5477H27.45C28.2423 48.5477 28.879 49.1845 28.879 49.9767C28.879 50.769 28.2423 51.4057 27.45 51.4057H25.5027L23.6516 55.5595C23.4887 55.952 23.1555 56.2629 22.7187 56.3814C21.9634 56.5887 21.1786 56.1445 20.9639 55.3892L18.6241 46.9188L16.4176 51.0207C16.1955 51.5168 15.692 51.8574 15.1145 51.8574H12.9228Z" fill="white"></path><path fill-rule="evenodd" clip-rule="evenodd" d="M23 13C24.6956 13 26.3689 13.1259 28.0053 13.3554L30.1155 18.9678C33.1068 19.7009 35.9279 20.8781 38.4971 22.4404L43.9615 19.9674C46.6418 21.974 49.026 24.3582 51.0326 27.0385L48.5596 32.5029C50.1144 35.0647 51.2991 37.8858 52.0322 40.8845L57.6446 43.0021C57.8815 44.6385 58 46.3044 58 48C58 49.6956 57.8741 51.3689 57.6446 52.9979L52.0322 55.1155C51.2991 58.1068 50.1219 60.9279 48.5596 63.4971L51.0326 68.9615C49.026 71.6418 46.6418 74.026 43.9615 76.0326L38.4971 73.5596C35.9353 75.1144 33.1142 76.2991 30.1155 77.0322L28.0053 82.6446C26.3689 82.8815 24.703 83 23 83C21.297 83 19.6311 82.8741 17.9947 82.6446L15.8845 77.0322C13.7891 76.5213 11.7751 75.7882 9.87963 74.8627C9.95367 74.4703 10.0055 74.063 10.0351 73.6632C10.1018 72.7451 10.124 71.8344 10.1832 70.9236C10.2128 70.509 10.2424 70.0129 10.3757 69.6131C10.546 69.1096 10.9755 68.6653 11.3531 68.3099C11.3753 68.2877 11.3901 68.2729 11.4123 68.2507L12.3749 67.2807C15.5217 69.0207 19.1424 70.0129 23 70.0129C35.1504 70.0129 44.9981 60.1652 44.9981 48.0148C44.9981 35.8644 35.1504 26.0093 23 26.0093C10.8496 26.0093 0.994499 35.857 0.994499 48.0148C0.994499 51.2505 1.6905 54.3307 2.94923 57.0999L1.70531 58.3512C0.78718 59.2767 0.157817 59.5877 -1.19717 59.484C-2.37444 59.3952 -3.5073 59.4174 -4.56611 59.5729C-5.16586 58.1439 -5.65454 56.663 -6.03216 55.1377L-11.6446 52.9979C-11.8815 51.3615 -12 49.6956 -12 48C-12 46.3044 -11.8741 44.6311 -11.6446 43.0021L-6.03216 40.8845C-5.29913 37.8932 -4.12185 35.0721 -2.55955 32.5029L-5.03258 27.0385C-3.02602 24.3582 -0.641846 21.974 2.0385 19.9674L7.50286 22.4404C10.0647 20.8856 12.8858 19.7009 15.8845 18.9678L17.9947 13.3554C19.6311 13.1185 21.297 13 23 13Z" fill="white"></path></g></g><defs><linearGradient id="paint0_linear_3737_5043" x1="35" y1="0" x2="35" y2="70" gradientUnits="userSpaceOnUse"><stop stop-color="#921D41"></stop><stop offset="1" stop-color="#1D3792"></stop></linearGradient><clipPath id="clip0_3737_5043"><rect width="70" height="70" rx="10" fill="white"></rect></clipPath><clipPath id="clip1_3737_5043"><rect width="70" height="70" fill="white" transform="translate(-12 13)"></rect></clipPath></defs></svg>