<svg xmlns="http://www.w3.org/2000/svg" width="71" height="70" viewBox="0 0 71 70" fill="none"><g clip-path="url(#clip0_3720_5310)"><rect x="0.687988" width="70" height="70" rx="10" fill="url(#paint0_linear_3720_5310)"></rect><path d="M52.8134 17.8746C51.1753 16.2369 48.9548 15.3155 46.6384 15.3124C44.3221 15.3094 42.0991 16.2249 40.4567 17.8582L37.2712 21.1969C36.8638 21.5777 36.3263 21.7885 35.7687 21.7862C35.211 21.784 34.6752 21.5688 34.2709 21.1847C33.8666 20.8007 33.6242 20.2767 33.5934 19.7199C33.5625 19.1631 33.7454 18.6155 34.1048 18.1891L37.3095 14.8285C37.3206 14.816 37.3325 14.8041 37.345 14.793C39.8132 12.3647 43.1409 11.01 46.6034 11.0241C50.0658 11.0382 53.3824 12.4199 55.8307 14.8682C58.279 17.3166 59.6607 20.6332 59.6748 24.0956C59.6889 27.558 58.3343 30.8857 55.906 33.3539C55.8948 33.3664 55.8829 33.3783 55.8704 33.3895L52.5099 36.5941C52.0834 36.9535 51.5359 37.1365 50.979 37.1056C50.4222 37.0747 49.8983 36.8323 49.5142 36.428C49.1301 36.0237 48.915 35.4879 48.9127 34.9303C48.9104 34.3726 49.1213 33.8351 49.5021 33.4277L52.8407 30.2422C54.476 28.5979 55.3916 26.3717 55.3865 24.0527C55.3814 21.7338 54.4559 19.5117 52.8134 17.8746ZM34.1048 48.8031L30.9192 52.1418C29.2704 53.7431 27.0576 54.6314 24.7592 54.6146C22.4608 54.5978 20.2612 53.6773 18.636 52.052C17.0107 50.4267 16.0902 48.2272 16.0734 45.9288C16.0566 43.6304 16.9448 41.4176 18.5462 39.7688L21.8849 36.5832C22.2657 36.1758 22.4765 35.6383 22.4742 35.0807C22.472 34.523 22.2568 33.9873 21.8727 33.5829C21.4887 33.1786 20.9647 32.9362 20.4079 32.9054C19.8511 32.8745 19.3035 33.0574 18.877 33.4168L15.5056 36.6215C15.493 36.6326 15.4812 36.6445 15.47 36.657C13.0417 39.1252 11.6871 42.4529 11.7012 45.9154C11.7153 49.3778 13.097 52.6944 15.5453 55.1427C17.9936 57.591 21.3102 58.9727 24.7726 58.9868C28.235 59.0009 31.5628 57.6463 34.031 55.218C34.0435 55.2068 34.0554 55.1949 34.0665 55.1824L37.2712 51.8219C37.4891 51.6182 37.663 51.3722 37.7823 51.0989C37.9016 50.8256 37.9638 50.5308 37.965 50.2326C37.9662 49.9344 37.9064 49.6391 37.7893 49.3648C37.6722 49.0905 37.5003 48.8431 37.2841 48.6377C37.0678 48.4324 36.8119 48.2733 36.532 48.1705C36.2521 48.0676 35.9541 48.0231 35.6564 48.0396C35.3586 48.0561 35.0674 48.1333 34.8006 48.2665C34.5337 48.3997 34.297 48.586 34.1048 48.8141V48.8031ZM57.563 41.5625H51.0005C50.4203 41.5625 49.8639 41.793 49.4537 42.2032C49.0435 42.6134 48.813 43.1698 48.813 43.75C48.813 44.3302 49.0435 44.8866 49.4537 45.2968C49.8639 45.707 50.4203 45.9375 51.0005 45.9375H57.563C58.1432 45.9375 58.6996 45.707 59.1098 45.2968C59.52 44.8866 59.7505 44.3302 59.7505 43.75C59.7505 43.1698 59.52 42.6134 59.1098 42.2032C58.6996 41.793 58.1432 41.5625 57.563 41.5625ZM13.813 28.4375H20.3755C20.9556 28.4375 21.512 28.207 21.9223 27.7968C22.3325 27.3866 22.563 26.8302 22.563 26.25C22.563 25.6698 22.3325 25.1134 21.9223 24.7032C21.512 24.293 20.9556 24.0625 20.3755 24.0625H13.813C13.2328 24.0625 12.6764 24.293 12.2662 24.7032C11.856 25.1134 11.6255 25.6698 11.6255 26.25C11.6255 26.8302 11.856 27.3866 12.2662 27.7968C12.6764 28.207 13.2328 28.4375 13.813 28.4375ZM44.438 48.125C43.8578 48.125 43.3014 48.3555 42.8912 48.7657C42.481 49.1759 42.2505 49.7323 42.2505 50.3125V56.875C42.2505 57.4552 42.481 58.0116 42.8912 58.4218C43.3014 58.832 43.8578 59.0625 44.438 59.0625C45.0182 59.0625 45.5746 58.832 45.9848 58.4218C46.395 58.0116 46.6255 57.4552 46.6255 56.875V50.3125C46.6255 49.7323 46.395 49.1759 45.9848 48.7657C45.5746 48.3555 45.0182 48.125 44.438 48.125ZM26.938 21.875C27.5181 21.875 28.0745 21.6445 28.4848 21.2343C28.895 20.8241 29.1255 20.2677 29.1255 19.6875V13.125C29.1255 12.5448 28.895 11.9884 28.4848 11.5782C28.0745 11.168 27.5181 10.9375 26.938 10.9375C26.3578 10.9375 25.8014 11.168 25.3912 11.5782C24.981 11.9884 24.7505 12.5448 24.7505 13.125V19.6875C24.7505 20.2677 24.981 20.8241 25.3912 21.2343C25.8014 21.6445 26.3578 21.875 26.938 21.875Z" fill="white"></path></g><defs><linearGradient id="paint0_linear_3720_5310" x1="35.688" y1="0" x2="35.688" y2="70" gradientUnits="userSpaceOnUse"><stop stop-color="#921D41"></stop><stop offset="1" stop-color="#1D3792"></stop></linearGradient><clipPath id="clip0_3720_5310"><rect x="0.687988" width="70" height="70" rx="10" fill="white"></rect></clipPath></defs></svg>