<svg xmlns="http://www.w3.org/2000/svg" width="71" height="70" viewBox="0 0 71 70" fill="none"><rect x="0.687988" width="70" height="70" rx="10" fill="url(#paint0_linear_3720_5307)"></rect><g clip-path="url(#clip0_3720_5307)"><path d="M7.18799 65.8252L17.8755 55.1377V70H7.18799V65.8252ZM21.438 51.5752L32.1255 40.8877V70H21.438V51.5752ZM57.063 37.9375H60.6255V70H49.938V44.4502L57.063 37.9375ZM44.5942 49.7939L46.3755 48.0127V70H35.688V40.8877L44.5942 49.7939ZM64.188 20.125V34.375H60.6255V26.2202L44.5942 42.2236L33.9067 31.5361L7.18799 58.2827V53.2173L33.9067 26.5264L44.5942 37.2139L58.0928 23.6875H49.938V20.125H64.188Z" fill="white"></path></g><path d="M29.5913 6.90332L41.7844 19.0964" stroke="white" stroke-width="3" stroke-linecap="round" stroke-linejoin="round"></path><path d="M41.7844 6.90332L29.5913 19.0964" stroke="white" stroke-width="3" stroke-linecap="round" stroke-linejoin="round"></path><defs><linearGradient id="paint0_linear_3720_5307" x1="35.688" y1="0" x2="35.688" y2="70" gradientUnits="userSpaceOnUse"><stop stop-color="#921D41"></stop><stop offset="1" stop-color="#1D3792"></stop></linearGradient><clipPath id="clip0_3720_5307"><rect width="57" height="57" fill="white" transform="translate(7.18799 13)"></rect></clipPath></defs></svg>