<svg xmlns="http://www.w3.org/2000/svg" width="71" height="70" viewBox="0 0 71 70" fill="none"><g clip-path="url(#clip0_3720_5313)"><rect x="0.687988" width="70" height="70" rx="10" fill="url(#paint0_linear_3720_5313)"></rect><path d="M58.6255 23.4375C58.6255 25.885 57.8997 28.2776 56.54 30.3127C55.1802 32.3477 53.2475 33.9339 50.9862 34.8705C48.725 35.8071 46.2368 36.0522 43.8363 35.5747C41.4358 35.0972 39.2308 33.9186 37.5001 32.1879C35.7694 30.4573 34.5908 28.2523 34.1133 25.8517C33.6358 23.4512 33.8809 20.963 34.8175 18.7018C35.7542 16.4406 37.3403 14.5078 39.3753 13.1481C41.4104 11.7883 43.803 11.0625 46.2505 11.0625C49.5314 11.0663 52.6768 12.3713 54.9968 14.6913C57.3167 17.0112 58.6217 20.1566 58.6255 23.4375ZM54.5005 23.4375C54.4928 21.9695 54.0888 20.5307 53.3311 19.2733L42.0863 30.5181C43.3438 31.2757 44.7825 31.6797 46.2505 31.6875C48.4377 31.6848 50.5346 30.8147 52.0811 29.2681C53.6277 27.7215 54.4978 25.6247 54.5005 23.4375ZM38.0005 23.4375C38.0082 24.9055 38.4123 26.3443 39.17 27.6017L50.4147 16.3569C49.1572 15.5993 47.7186 15.1953 46.2505 15.1875C44.0633 15.1902 41.9665 16.0603 40.4199 17.6069C38.8733 19.1535 38.0033 21.2503 38.0005 23.4375ZM35.0924 42L29.7505 36.6581L32.6793 33.75L40.9293 42L32.6793 50.25L29.7505 47.3419L35.0924 42ZM16.1587 42L21.5005 47.3419L18.5718 50.25L10.3218 42L18.5718 33.75L21.5005 36.6581L16.1587 42Z" fill="white"></path><path d="M2.93799 56.4375H48.313V42H52.438V66.75C52.438 67.844 52.0034 68.8932 51.2298 69.6668C50.4562 70.4404 49.407 70.875 48.313 70.875H2.93799C1.84397 70.875 0.79476 70.4404 0.0211726 69.6668C-0.752415 68.8932 -1.18701 67.844 -1.18701 66.75V25.5C-1.18701 24.406 -0.752415 23.3568 0.0211726 22.5832C0.79476 21.8096 1.84397 21.375 2.93799 21.375H27.688V25.5H2.93799V56.4375ZM2.93799 66.75H48.313V60.5625H2.93799V66.75Z" fill="white"></path></g><defs><linearGradient id="paint0_linear_3720_5313" x1="35.688" y1="0" x2="35.688" y2="70" gradientUnits="userSpaceOnUse"><stop stop-color="#921D41"></stop><stop offset="1" stop-color="#1D3792"></stop></linearGradient><clipPath id="clip0_3720_5313"><rect x="0.687988" width="70" height="70" rx="10" fill="white"></rect></clipPath></defs></svg>